<svg width="181" height="40" viewBox="0 0 181 40" fill="none" xmlns="http://www.w3.org/2000/svg">
<path d="M72.0528 15.4545C71.8924 15.5517 71.7016 15.5854 71.5176 15.5492C71.3337 15.513 71.17 15.4092 71.0585 15.2584C70.5109 14.4722 69.776 13.8348 68.9203 13.4037C68.0647 12.9726 67.1151 12.7614 66.1574 12.7892C62.4232 12.7892 60.1313 15.7438 60.1313 19.9635C60.1313 24.1832 62.4652 27.1939 66.1994 27.1939C67.1699 27.2171 68.1303 26.9921 68.9896 26.5404C69.8489 26.0887 70.5787 25.4252 71.1099 24.6126C71.2161 24.4598 71.3757 24.3525 71.5573 24.3119C71.7387 24.2713 71.929 24.3003 72.0901 24.3932L73.8638 25.4201C73.9607 25.4692 74.0459 25.5386 74.1135 25.6236C74.1811 25.7086 74.2296 25.8072 74.2557 25.9125C74.2819 26.018 74.285 26.1278 74.265 26.2345C74.2448 26.3412 74.202 26.4424 74.1393 26.5311C73.2721 27.8307 72.0891 28.8891 70.7012 29.6067C69.3133 30.3244 67.7659 30.6778 66.2041 30.634C60.234 30.634 56.1871 26.3023 56.1871 19.9868C56.1871 13.6713 60.234 9.39572 66.1154 9.39572C67.6512 9.35305 69.1741 9.68729 70.5509 10.3692C71.9276 11.051 73.1164 12.0598 74.0133 13.3073C74.0748 13.3913 74.1186 13.4871 74.1417 13.5887C74.1648 13.6902 74.1668 13.7955 74.1475 13.898C74.1283 14.0004 74.0882 14.0977 74.0297 14.184C73.9713 14.2703 73.8958 14.3436 73.8079 14.3995L72.0528 15.4545Z" fill="#494A4C"/>
<path fill-rule="evenodd" clip-rule="evenodd" d="M85.1038 29.4891V28.6302C84.1702 29.8345 82.868 30.5813 80.7721 30.5813C77.6727 30.5813 75.5209 28.887 75.5209 25.9135C75.5209 22.212 78.821 21.5772 80.8561 21.2925C81.0171 21.2691 81.1763 21.2466 81.3332 21.2245C83.305 20.9461 84.9031 20.7205 84.9031 19.3974C84.9031 18.1324 83.4421 17.7916 82.2052 17.7916C80.7853 17.8153 79.3903 18.1684 78.1302 18.8232C78.0427 18.8713 77.9464 18.9011 77.8471 18.9109C77.7478 18.9206 77.6476 18.9101 77.5525 18.88C77.4573 18.8499 77.3693 18.8009 77.2937 18.7356C77.2181 18.6705 77.1565 18.5908 77.1126 18.5012L76.4731 17.1662C76.3876 16.9932 76.372 16.7941 76.4293 16.6098C76.4866 16.4255 76.6127 16.2705 76.7812 16.1766C78.546 15.2371 80.5139 14.7435 82.5132 14.7389C86.0701 14.7389 88.5813 16.1999 88.5813 19.7335V29.4891C88.5813 29.6872 88.5026 29.8771 88.3626 30.0172C88.2225 30.1572 88.0325 30.2359 87.8345 30.2359H85.8833C85.7825 30.2403 85.6819 30.2243 85.5875 30.1887C85.4931 30.1532 85.4068 30.0989 85.334 30.0291C85.2612 29.9593 85.2032 29.8754 85.1636 29.7826C85.1241 29.6899 85.1037 29.59 85.1038 29.4891ZM84.9031 22.7442C84.2924 23.2053 83.2232 23.3929 82.0444 23.5996C81.8987 23.6252 81.7514 23.651 81.603 23.6777C80.254 23.9204 79.1337 24.2798 79.1337 25.7456C79.1337 27.0945 80.1093 27.7247 81.519 27.7247C83.2694 27.7247 84.9031 26.7491 84.9031 24.4806V22.7442Z" fill="#494A4C"/>
<path d="M92.2841 26.1157C92.0918 26.1339 91.9139 26.226 91.7881 26.3727L90.7705 27.5583C90.7057 27.6349 90.6567 27.7236 90.6266 27.8192C90.5964 27.915 90.5855 28.0157 90.5946 28.1156C90.6037 28.2155 90.6327 28.3127 90.6797 28.4013C90.7267 28.4899 90.7909 28.5683 90.8686 28.6319C92.5989 29.978 94.7451 30.678 96.937 30.611C100.946 30.611 103.472 28.6598 103.472 25.5045C103.472 22.4984 101.175 21.4669 97.5574 20.8367C97.4808 20.8236 97.4042 20.8106 97.3278 20.7977C95.7136 20.5246 94.1732 20.2639 94.1732 19.1096C94.1732 18.0221 95.3776 17.6206 96.7544 17.6206C98.1797 17.6035 99.5723 18.0489 100.722 18.8903C100.876 19.0059 101.068 19.0581 101.259 19.0364C101.45 19.0147 101.625 18.9206 101.749 18.7735L102.683 17.6767C102.749 17.6002 102.799 17.511 102.831 17.4145C102.862 17.3181 102.873 17.2163 102.862 17.1154C102.853 17.0145 102.823 16.9167 102.775 16.8279C102.726 16.7389 102.659 16.6608 102.58 16.5983C100.945 15.3582 98.9417 14.7009 96.8895 14.7313C93.618 14.7313 90.7472 16.1363 90.7472 19.4644C90.7472 22.6572 93.4261 23.5907 96.2272 24.0574C98.869 24.5196 99.9617 24.7483 99.9617 25.8966C99.9617 27.1568 98.7712 27.6749 97.1606 27.6749C95.5975 27.7105 94.0679 27.2171 92.8197 26.2747C92.6688 26.1544 92.4765 26.0974 92.2841 26.1157Z" fill="#494A4C"/>
<path d="M105.689 29.4908V10.4931C105.689 10.2949 105.768 10.105 105.908 9.9649C106.048 9.82489 106.237 9.74618 106.436 9.74618H108.588C108.786 9.74618 108.976 9.82489 109.116 9.9649C109.256 10.105 109.335 10.2949 109.335 10.4931V16.9813C109.87 16.2663 110.569 15.6899 111.373 15.3001C112.177 14.9104 113.063 14.7186 113.956 14.7408C117.139 14.7408 119.006 17.0092 119.006 20.2487V29.4908C119.006 29.6889 118.928 29.8789 118.788 30.0189C118.647 30.159 118.457 30.2376 118.26 30.2376H116.108C115.909 30.2376 115.719 30.159 115.58 30.0189C115.439 29.8789 115.361 29.6889 115.361 29.4908V21.0888C115.361 19.4785 114.843 18.0175 112.78 18.0175C110.823 18.0175 109.335 19.3945 109.335 21.691V29.4955C109.335 29.6935 109.256 29.8836 109.116 30.0236C108.976 30.1637 108.786 30.2423 108.588 30.2423H106.436C106.337 30.243 106.239 30.224 106.148 30.1863C106.057 30.1487 105.975 30.0934 105.905 30.0233C105.835 29.9533 105.78 29.8703 105.744 29.7788C105.706 29.6874 105.688 29.5895 105.689 29.4908Z" fill="#494A4C"/>
<path fill-rule="evenodd" clip-rule="evenodd" d="M141.136 25.1615L142.685 29.7359C142.732 29.8847 142.824 30.0152 142.949 30.109C143.074 30.2028 143.224 30.2551 143.381 30.2586H146.046C146.166 30.2592 146.285 30.2307 146.393 30.1754C146.5 30.12 146.591 30.0396 146.661 29.9411C146.73 29.8425 146.774 29.7286 146.79 29.6092C146.805 29.4898 146.792 29.3683 146.751 29.2551L139.726 10.2574C139.672 10.1138 139.576 9.9901 139.45 9.90253C139.324 9.81497 139.174 9.76783 139.021 9.76718H135.572C135.421 9.7656 135.275 9.80929 135.149 9.89257C135.024 9.97584 134.927 10.0948 134.871 10.234L127.819 29.2365C127.777 29.3492 127.764 29.4703 127.779 29.5893C127.795 29.7084 127.838 29.822 127.907 29.9205C127.976 30.019 128.068 30.0995 128.174 30.1551C128.28 30.2107 128.398 30.2398 128.518 30.24H131.044C131.199 30.2404 131.351 30.1919 131.478 30.1015C131.604 30.011 131.699 29.8832 131.749 29.7359L133.303 25.1615H141.136ZM134.245 21.9734L137.261 13.0766L140.16 21.9734H134.245Z" fill="#494A4C"/>
<path fill-rule="evenodd" clip-rule="evenodd" d="M152.161 15.8323V17.0087C152.692 16.2745 153.395 15.6832 154.21 15.2873C155.024 14.8915 155.924 14.7035 156.829 14.7401C160.96 14.7401 163.63 18.1569 163.63 22.6333C163.63 27.1097 160.96 30.5685 156.829 30.5685C155.921 30.6028 155.02 30.4108 154.205 30.01C153.39 29.6091 152.688 29.0118 152.161 28.272V34.4661C152.161 34.6641 152.083 34.8541 151.943 34.9941C151.802 35.1342 151.612 35.213 151.415 35.213H149.263C149.064 35.213 148.874 35.1342 148.735 34.9941C148.594 34.8541 148.516 34.6641 148.516 34.4661V15.795C148.516 15.5969 148.594 15.407 148.735 15.2669C148.874 15.1269 149.064 15.0482 149.263 15.0482H151.415C151.515 15.0481 151.616 15.0686 151.709 15.1084C151.802 15.1482 151.886 15.2066 151.956 15.2799C152.026 15.3533 152.08 15.4401 152.115 15.5351C152.151 15.63 152.166 15.7312 152.161 15.8323ZM156.064 27.3991C158.588 27.3991 159.797 25.2425 159.797 22.6333C159.797 20.024 158.565 17.9235 156.064 17.9235C153.562 17.9235 152.161 20.0194 152.161 22.6333C152.161 25.2472 153.492 27.3991 156.064 27.3991Z" fill="#494A4C"/>
<path fill-rule="evenodd" clip-rule="evenodd" d="M169.525 17.0085V15.8321C169.531 15.7308 169.516 15.6293 169.482 15.5341C169.446 15.4389 169.392 15.3518 169.322 15.2783C169.252 15.2048 169.168 15.1464 169.074 15.1069C168.98 15.0672 168.881 15.0471 168.779 15.048H166.627C166.429 15.048 166.239 15.1267 166.099 15.2667C165.959 15.4068 165.88 15.5967 165.88 15.7948V34.4659C165.88 34.6639 165.959 34.8539 166.099 34.994C166.239 35.1341 166.429 35.2127 166.627 35.2127H168.779C168.977 35.2127 169.167 35.1341 169.306 34.994C169.447 34.8539 169.525 34.6639 169.525 34.4659V28.2718C170.053 29.011 170.755 29.6079 171.57 30.0086C172.384 30.4094 173.286 30.6018 174.193 30.5683C178.329 30.5683 180.999 27.1095 180.999 22.633C180.999 18.1567 178.329 14.7399 174.193 14.7399C173.289 14.7042 172.389 14.8925 171.575 15.2882C170.761 15.684 170.056 16.275 169.525 17.0085ZM177.167 22.633C177.167 25.2423 175.958 27.3988 173.432 27.3988C170.874 27.3988 169.525 25.247 169.525 22.633C169.525 20.0192 170.931 17.9233 173.432 17.9233C175.934 17.9233 177.167 20.0238 177.167 22.633Z" fill="#494A4C"/>
<path fill-rule="evenodd" clip-rule="evenodd" d="M9.21969 0C4.1278 0 0 4.1278 0 9.21971V30.7803C0 35.8722 4.12779 40 9.21969 40H30.566C35.6579 40 39.7857 35.8722 39.7857 30.7803V9.21971C39.7857 4.12779 35.6579 0 30.566 0H9.21969Z" fill="#00D632"/>
<path fill-rule="evenodd" clip-rule="evenodd" d="M26.357 14.8774C24.8384 13.5921 22.914 12.8854 20.9245 12.8823C19.2852 12.8823 17.6461 13.4256 17.6461 14.9336C17.6461 16.3083 19.1056 16.8463 20.9034 17.509C21.0777 17.5731 21.2552 17.6386 21.4349 17.7061C24.9896 18.905 27.9166 20.3755 27.9166 23.8599C27.9166 27.6441 24.9801 30.2293 20.175 30.5243L19.7396 32.5522C19.6576 32.931 19.3216 33.2006 18.934 33.1985H15.9133C15.6662 33.1924 15.4345 33.0771 15.2807 32.8836C15.127 32.6901 15.0671 32.4383 15.1171 32.1963L15.5855 30.056C13.7717 29.5935 12.1044 28.68 10.7382 27.4006C10.5799 27.2478 10.4906 27.0374 10.4906 26.8174C10.4906 26.5975 10.5799 26.3871 10.7382 26.2344L12.4149 24.5953C12.7319 24.2834 13.2405 24.2834 13.5576 24.5953C15.0935 26.0606 17.144 26.863 19.2665 26.8292C21.4537 26.8292 22.9382 25.9018 22.9382 24.4313C22.9382 23.1019 21.721 22.6566 19.411 21.8117C19.1659 21.722 18.9085 21.6279 18.639 21.5277C15.6697 20.4693 12.8598 18.9566 12.8598 15.4394C12.8598 11.3696 16.2598 9.38389 20.2688 9.18716L20.6903 7.12185C20.7737 6.74664 21.1068 6.47985 21.4911 6.48023H24.5025C24.7478 6.47945 24.9804 6.58923 25.1358 6.7791C25.2911 6.96897 25.3527 7.21872 25.3033 7.45904L24.835 9.76787C26.368 10.269 27.7886 11.0645 29.0172 12.1095C29.1866 12.2551 29.2873 12.4649 29.2954 12.6881C29.3034 12.9113 29.2178 13.1277 29.0593 13.285L27.4951 14.854C27.1819 15.1622 26.6826 15.1724 26.357 14.8774Z" fill="white"/>
</svg>
