<svg width="152" height="32" viewBox="0 0 152 32" fill="none" xmlns="http://www.w3.org/2000/svg">
<path d="M50.6111 4.87288V25.3815H55.9091V4.87288H63.2715V0H43.2487V4.87288H50.6111Z" fill="#0EE06E"/>
<path d="M62.4366 6.96773V25.3966H67.4918V17.2599C67.4918 13.222 69.5411 11.9013 71.8333 11.9013H73.4272V6.96773H71.5448C69.9508 6.96773 68.4631 7.40795 67.3094 9.88238V6.96773H62.4366Z" fill="#0EE06E"/>
<path d="M75.7194 18.6414V6.96773H80.7591V17.5028C80.7591 19.6585 81.8066 21.2524 83.9624 21.2524C86.0419 21.2524 87.3625 19.6585 87.3625 17.5332V6.96773H92.4025V25.3966H87.6056V23.074C86.3912 24.9109 84.5847 25.8217 82.2925 25.8217C78.2543 25.8065 75.7194 23.0284 75.7194 18.6414Z" fill="#0EE06E"/>
<path d="M98.9452 19.2031L94.558 20.205C94.7555 22.2239 96.6681 25.7306 102.528 25.7458C107.856 25.7458 110.179 22.6793 110.179 19.7648C110.179 17.0475 108.691 15.1348 105.488 14.4061L101.283 13.4345C100.372 13.222 99.856 12.797 99.856 12.038C99.856 11.1272 100.888 10.5048 102.285 10.5048C104.486 10.5048 105.275 11.6888 105.488 12.7666L109.905 11.7951C109.693 9.74577 107.598 6.61862 102.391 6.61862C97.4879 6.61862 94.8767 9.16887 94.8767 12.3264C94.8767 15.4232 96.4404 17.1234 100.129 17.9279L103.013 18.5503C104.759 18.9298 105.139 19.446 105.139 20.1443C105.139 21.0095 104.197 21.7078 102.497 21.7078C100.296 21.7078 99.1578 20.63 98.9452 19.2031Z" fill="#0EE06E"/>
<path d="M119.864 25.3815C116.6 25.3815 114.414 23.575 114.414 19.9925V11.3701H111.317V6.95261H114.414V2.85394L119.454 1.39662V6.95261H123.173V11.3701H119.454V19.0816C119.454 20.4327 120.152 20.964 121.503 20.964H123.446V25.3815H119.864Z" fill="#0EE06E"/>
<path d="M126.178 0.0151951V25.3967H131.218V0.0151951H126.178Z" fill="#0EE06E"/>
<path d="M146.414 6.96773H151.803L144.121 32H138.732L140.858 25.3966H138.08L133.009 6.96773H138.398L142.194 21.222L146.414 6.96773Z" fill="#0EE06E"/>
<path d="M11.8255 11.1272H0V0.0151951H33.8064V11.1272H23.2866V25.3815H11.8255V20.5541L21.2675 11.1272L11.8255 1.68503V11.1272Z" fill="#0EE06E"/>
</svg>
