<svg width="175" height="40" viewBox="0 0 175 40" fill="none" xmlns="http://www.w3.org/2000/svg">
<path d="M154.075 0.00246132C157.245 0.00246132 160.26 0.728021 162.965 2.02596C163.389 2.21668 163.816 2.44632 164.239 2.67618L162.385 4.32049L159.603 1.45363L154.812 5.65612L151.99 2.63854L143.178 10.4713L148.821 16.622L146.618 18.53L152.183 24.6809L149.98 26.5913L157.944 35.3404L162.656 31.06L166.754 35.6468C165.942 36.2581 165.054 36.8706 164.088 37.404C161.151 39.0484 157.749 40 154.115 40C142.946 40 133.864 31.0248 133.864 19.9836C133.826 9.01895 142.908 0 154.076 0L154.075 0.00246132ZM150.365 18.7598L155.197 14.4794L159.525 19.2568L154.693 23.5348L150.365 18.7585V18.7598ZM153.804 27.013L158.599 22.695L162.965 27.4713L158.132 31.7517L153.805 27.013H153.804ZM146.928 10.6219L151.757 6.34399L156.087 11.119L151.255 15.3995L146.928 10.6219ZM155.777 8.33115L159.37 5.12144L162.617 8.67385L159.021 11.9212L155.775 8.33115H155.777ZM162.192 23.0389L165.784 19.8305L169.032 23.4205L165.436 26.6315L162.19 23.0389H162.192ZM165.36 30.2604L168.955 27.0507L172.2 30.6031L168.606 33.8505L165.36 30.2604ZM166.829 13.7539L169.226 11.6161L171.389 13.9848L168.994 16.1237L166.827 13.7539H166.829ZM163.737 6.6867L166.134 4.51016L168.3 6.91763L165.902 9.05782L163.738 6.688L163.737 6.6867ZM169.884 20.8247L172.279 18.6845L174.481 21.0532L172.045 23.192L169.883 20.8247H169.884ZM159.101 15.5124L162.695 12.304L165.941 15.8564L162.349 19.0661L159.101 15.5136V15.5124ZM10.6006 13.7801H10.4186L6.99556 26.7796H4.19884L0 8.31233H2.90342L5.80558 22.0913H5.9863L9.35416 8.31233H11.6613L15.2639 22.0913H15.4472L18.0908 8.31233H21.1235L16.9234 26.7796H14.1242L10.6006 13.7801ZM24.8064 18.9167H30.74C30.6107 16.1828 29.2876 15.0882 27.888 15.0882C26.3064 15.0882 25.0888 16.3146 24.8051 18.9167H24.8064ZM32.8137 23.8146V25.7956C31.6463 26.4734 30.0923 26.9942 28.2244 26.9942C23.8687 26.9942 22.0837 24.2842 22.0837 20.1694C22.0837 16.2091 24.0796 13.3446 27.9659 13.3446C31.2044 13.3446 33.2003 15.4534 33.2003 19.6987V20.6628H24.7524C24.7524 23.7884 26.0202 25.1691 28.6914 25.1691C30.0922 25.1691 31.3877 24.672 32.8124 23.8135L32.8137 23.8146ZM39.2317 24.9067C40.0602 25.2706 40.9691 25.3233 41.6168 25.3233C43.5373 25.3233 44.9846 24.1246 44.9846 19.9044C44.9846 16.5968 43.7921 15.5298 42.0573 15.5298C41.0205 15.5298 40.2686 15.8158 39.233 16.3884V24.9053L39.2317 24.9067ZM39.2569 14.463C40.0352 14.0465 41.3557 13.4965 42.7565 13.4965C45.97 13.4965 47.7073 15.7371 47.7073 19.9046C47.7073 24.775 45.3725 27.1474 41.6168 27.1474C40.2423 27.1474 38.1171 26.7029 36.5619 25.8671V7.69222L39.2582 7.03939V14.463H39.2569ZM59.3736 22.8606H59.5017L65.0462 8.29973H68.2596V26.7684H65.4604V13.3798H65.2281L59.941 26.7684H58.2841L52.997 13.6935H52.7622V26.7684H50.4299V8.29973H53.5681L59.3736 22.8606ZM79.6963 20.1694C79.6963 16.6547 78.2728 15.1697 76.5117 15.1697C74.802 15.1697 73.3233 16.6535 73.3233 20.1694C73.3233 23.7381 74.6715 25.1691 76.5117 25.1691C78.3506 25.1691 79.6975 23.7382 79.6975 20.1682L79.6963 20.1694ZM70.6044 20.1682C70.6044 15.6091 73.0923 13.3433 76.5129 13.3433C79.936 13.3433 82.4226 15.6079 82.4226 20.1669C82.4226 24.6193 80.0653 26.9918 76.5142 26.9918C72.9618 26.9918 70.6057 24.6193 70.6057 20.1669L70.6044 20.1682ZM84.4712 15.2727C85.6386 14.5698 88.1014 13.3446 91.0789 13.3446C94.1894 13.3446 95.3543 14.5672 95.3543 17.2484V26.6805H92.6605V17.8521C92.6605 15.7935 91.6526 15.4296 90.3283 15.4296C89.2927 15.4296 87.9684 15.8993 87.165 16.3672V26.6816H84.4712V15.2714V15.2727ZM101.061 18.9167H106.993C106.868 16.1828 105.543 15.0882 104.144 15.0882C102.562 15.0882 101.344 16.3146 101.059 18.9167H101.061ZM109.065 23.8146V25.7956C107.901 26.4734 106.345 26.9942 104.478 26.9942C100.128 26.9942 98.3393 24.2842 98.3393 20.1694C98.3393 16.2091 100.333 13.3446 104.22 13.3446C107.459 13.3446 109.457 15.4534 109.457 19.6987V20.6628H101.009C101.009 23.7884 102.277 25.1691 104.946 25.1691C106.345 25.1691 107.645 24.672 109.065 23.8135V23.8146ZM120.223 13.3459H122.998L118.305 26.3628C117.009 29.9578 115.431 31.8332 112.45 31.8332V29.7018C114.212 29.7018 115.299 28.296 115.923 26.3654L110.947 13.3459H113.797L117.115 22.9285H117.271L120.223 13.3446L120.223 13.3459Z" fill="#006CB4"/>
</svg>
