<svg width="27" height="24" viewBox="0 0 27 24" fill="none" xmlns="http://www.w3.org/2000/svg">
<path fill-rule="evenodd" clip-rule="evenodd" d="M20.4434 4.2356C19.4912 4.2356 18.7281 5.00572 18.7281 5.95088C18.7281 6.62999 19.1272 7.21809 19.7013 7.49814C19.2952 9.0734 18.273 10.9357 17.2649 12.2239C16.2147 13.5611 14.8004 14.2333 13.3792 14.2333C11.965 14.2333 10.5437 13.5611 9.49355 12.2239C8.48539 10.9427 7.46322 9.0734 7.05715 7.49814C7.63124 7.21809 8.03031 6.62999 8.03031 5.95088C8.03031 4.99872 7.26018 4.2356 6.31502 4.2356C5.36987 4.2356 4.59974 5.00572 4.59974 5.95088C4.59974 6.78402 5.19484 7.48414 5.98597 7.63816C5.95096 9.6545 4.9778 13.0081 3.31152 14.0162L4.3617 17.8949H22.3967L23.4469 14.0162C21.7806 13.0081 20.8074 9.6475 20.7724 7.63816C21.5636 7.48414 22.1587 6.78402 22.1587 5.95088C22.1587 4.99872 21.3885 4.2356 20.4434 4.2356Z" fill="url(#paint0_linear_184_13080)"/>
<path style="mix-blend-mode:multiply" fill-rule="evenodd" clip-rule="evenodd" d="M21.8856 12.0909C20.5624 12.3289 18.9381 11.1737 18.9101 9.56348C18.4341 10.5366 17.846 11.4818 17.2579 12.2239C16.2077 13.5611 14.7934 14.2333 13.3722 14.2333C11.958 14.2333 10.5367 13.5611 9.48656 12.2239C8.89846 11.4748 8.31036 10.5296 7.83428 9.56348C7.80628 11.1737 6.18201 12.3289 4.85879 12.0909C4.43872 12.931 3.91363 13.6452 3.29053 14.0232L4.3407 17.9019H22.3967L23.4469 14.0232C22.8238 13.6452 22.2987 12.938 21.8786 12.0909H21.8856Z" fill="url(#paint1_radial_184_13080)"/>
<path fill-rule="evenodd" clip-rule="evenodd" d="M0 6.2521C0 6.11908 0.126021 5.93705 0.294049 5.90204C0.735123 5.87404 1.16219 6.00006 1.51925 6.2381C1.90432 6.49714 2.29638 6.96622 2.4154 7.68034L0.65811 8.11441L0 6.2521H0Z" fill="url(#paint2_linear_184_13080)"/>
<path fill-rule="evenodd" clip-rule="evenodd" d="M13.3724 0C12.0492 0 10.978 1.07118 10.978 2.3944V2.80047H15.7668V2.3944C15.7668 1.07118 14.6956 0 13.3724 0Z" fill="url(#paint3_linear_184_13080)"/>
<path fill-rule="evenodd" clip-rule="evenodd" d="M26.7445 6.2521C26.7445 6.11908 26.6185 5.93705 26.4505 5.90204C26.0094 5.87404 25.5823 6.00006 25.2253 6.2381C24.8402 6.49714 24.4481 6.96622 24.3291 7.68034L26.0864 8.11441L26.7445 6.2521Z" fill="url(#paint4_linear_184_13080)"/>
<path fill-rule="evenodd" clip-rule="evenodd" d="M23.6431 17.916V20.8355C23.6431 21.0245 23.6011 21.1856 23.5031 21.3466C22.621 22.8308 18.4693 23.993 13.3794 23.993C8.28959 23.993 4.13789 22.8308 3.25575 21.3466C3.15773 21.1856 3.11572 21.0245 3.11572 20.8355V17.916C4.13089 21.8297 22.642 21.8297 23.6501 17.916H23.6431Z" fill="url(#paint5_linear_184_13080)"/>
<path fill-rule="evenodd" clip-rule="evenodd" d="M13.3722 0.406171C14.6954 0.406171 15.7666 1.47735 15.7666 2.80057C15.7666 3.78073 15.1785 4.62087 14.3384 4.99194C15.0035 8.01644 16.3477 11.9721 19.2952 12.9103C21.8086 13.7084 24.147 11.559 24.9032 9.63371C24.3851 9.15063 24.14 8.40851 24.3291 7.68038C24.6021 6.61621 25.6873 5.9791 26.7445 6.25915C25.4562 10.1798 24.3571 14.3245 23.6429 18.2661C23.3419 19.9324 18.8401 21.2486 13.3722 21.2486C7.90432 21.2486 3.40957 19.9394 3.10152 18.2661C2.3874 14.3175 1.28821 10.1658 0 6.25215C1.06418 5.9791 2.14236 6.61621 2.4154 7.67338C2.60443 8.4015 2.35939 9.14363 1.84131 9.62671C2.59043 11.552 4.93582 13.7014 7.44924 12.9033C10.3967 11.9651 11.734 8.00944 12.4061 4.98493C11.5659 4.61387 10.9778 3.77373 10.9778 2.79357C10.9778 1.47035 12.049 0.39917 13.3722 0.39917V0.406171Z" fill="url(#paint6_linear_184_13080)"/>
<path style="mix-blend-mode:multiply" fill-rule="evenodd" clip-rule="evenodd" d="M5.18086 19.9954C4.68378 17.1669 4.09568 14.4575 3.43057 11.86C2.70245 11.2159 2.14236 10.4038 1.84131 9.63367C2.35939 9.15059 2.60443 8.40847 2.4154 7.68035C2.14236 6.61617 1.05718 5.97906 0 6.25911C1.28821 10.1798 2.3874 14.3245 3.10152 18.2661C3.22054 18.9172 3.97666 19.5123 5.18086 20.0024V19.9954Z" fill="url(#paint7_linear_184_13080)"/>
<path style="mix-blend-mode:multiply" fill-rule="evenodd" clip-rule="evenodd" d="M21.1225 13.0013C20.6044 15.4587 20.1704 17.9721 19.8203 20.5415C21.9557 20.0165 23.3839 19.2323 23.6219 18.3362C23.6219 18.3362 23.6359 18.2802 23.6359 18.2592C24.3501 14.3175 25.4493 10.1658 26.7375 6.25216C25.6733 5.97912 24.5951 6.61622 24.3221 7.6734C24.133 8.40152 24.3781 9.14365 24.8962 9.62673C24.3291 11.069 22.8728 12.6372 21.1225 12.9943V13.0013Z" fill="url(#paint8_linear_184_13080)"/>
<path style="mix-blend-mode:screen" fill-rule="evenodd" clip-rule="evenodd" d="M10.1795 21.0875C10.0255 17.9299 9.75944 14.7934 9.38137 11.6919C8.82828 12.245 8.19118 12.6721 7.44905 12.9101C6.81895 13.1131 6.20284 13.1271 5.61475 13.0081C6.19584 15.4935 6.60891 18.0069 6.90996 20.5484C7.87612 20.7864 8.97531 20.9754 10.1795 21.0945V21.0875Z" fill="url(#paint9_radial_184_13080)"/>
<path style="mix-blend-mode:screen" fill-rule="evenodd" clip-rule="evenodd" d="M15.2206 8.06543C14.8776 12.4482 14.6675 16.8309 14.7165 21.2136C15.6757 21.1716 16.5999 21.0946 17.461 20.9826C17.699 18.1611 17.9931 15.3326 18.4062 12.5112C16.9079 11.636 15.8997 9.90674 15.2136 8.06543H15.2206Z" fill="url(#paint10_radial_184_13080)"/>
<path fill-rule="evenodd" clip-rule="evenodd" d="M19.2952 12.9032C21.8086 13.7013 24.147 11.552 24.9031 9.62664C24.5041 11.1669 23.3559 13.0362 21.4236 13.5613C16.5858 14.8705 14.5624 8.70948 14.3384 4.98486C15.0035 8.00937 16.3477 11.965 19.2952 12.9032Z" fill="url(#paint11_linear_184_13080)"/>
<path fill-rule="evenodd" clip-rule="evenodd" d="M7.44924 12.9032C4.93582 13.7013 2.59743 11.552 1.84131 9.62664C2.24038 11.1669 3.38857 13.0362 5.32089 13.5613C10.1587 14.8705 12.182 8.70948 12.4061 4.98486C11.741 8.00937 10.3967 11.965 7.44924 12.9032Z" fill="url(#paint12_linear_184_13080)"/>
<path style="mix-blend-mode:multiply" fill-rule="evenodd" clip-rule="evenodd" d="M5.18091 22.7188V19.9953C3.97671 19.5122 3.22058 18.9101 3.10156 18.259V20.8355C3.10156 21.0245 3.14357 21.1855 3.24159 21.3465C3.54264 21.8506 4.21475 22.3197 5.18091 22.7188Z" fill="url(#paint13_linear_184_13080)"/>
<path style="mix-blend-mode:screen" opacity="0.75" fill-rule="evenodd" clip-rule="evenodd" d="M6.91016 20.5415V23.279C7.86932 23.524 8.9755 23.713 10.1797 23.8391V21.0876C8.9755 20.9686 7.86932 20.7795 6.91016 20.5415Z" fill="url(#paint14_radial_184_13080)"/>
<path style="mix-blend-mode:screen" opacity="0.75" fill-rule="evenodd" clip-rule="evenodd" d="M14.7163 21.2135V23.9719C15.6825 23.9299 16.5996 23.8529 17.4608 23.7339V20.9824C16.5996 21.0944 15.6755 21.1785 14.7163 21.2135Z" fill="url(#paint15_radial_184_13080)"/>
<path style="mix-blend-mode:multiply" fill-rule="evenodd" clip-rule="evenodd" d="M19.8205 20.5414V23.2789C21.7038 22.7958 23.041 22.1167 23.4961 21.3465C23.5941 21.1855 23.6361 21.0245 23.6361 20.8355V18.259C23.4681 19.1832 22.0118 19.9953 19.8135 20.5414H19.8205Z" fill="url(#paint16_linear_184_13080)"/>
<path style="mix-blend-mode:screen" opacity="0.65" fill-rule="evenodd" clip-rule="evenodd" d="M22.852 19.2532C21.3327 20.4224 17.6221 21.2415 13.2954 21.2415C8.96864 21.2415 5.25802 20.4224 3.73877 19.2532C5.097 20.5414 8.87062 21.4585 13.2954 21.4585C17.7201 21.4585 21.4867 20.5414 22.852 19.2532Z" fill="url(#paint17_radial_184_13080)"/>
<path style="mix-blend-mode:multiply" fill-rule="evenodd" clip-rule="evenodd" d="M13.3724 5.1879C13.0294 5.1879 12.7073 5.11789 12.4063 4.98486C12.3713 5.13189 12.3433 5.27891 12.3013 5.43294C12.7073 5.75499 13.2254 5.95102 13.7925 5.95102C14.0516 5.95102 14.2966 5.90902 14.5346 5.832C14.4646 5.54496 14.3946 5.25791 14.3316 4.98486C14.0376 5.11789 13.7085 5.1879 13.3654 5.1879H13.3724Z" fill="url(#paint18_radial_184_13080)"/>
<path fill-rule="evenodd" clip-rule="evenodd" d="M10.0605 13.6522L13.3721 11.9929L16.6837 13.6522L16.2356 19.3371L13.3721 20.1493L10.5086 19.3371L10.0605 13.6522Z" fill="#BE8954"/>
<path fill-rule="evenodd" clip-rule="evenodd" d="M10.4878 13.8972L13.3723 12.448L16.2568 13.8972L15.8507 19.0221L13.3723 19.7292L10.8939 19.0221L10.4878 13.8972Z" fill="#E6E6E6"/>
<path fill-rule="evenodd" clip-rule="evenodd" d="M11.4819 14.4574L11.79 18.287L13.3722 18.7351L14.9545 18.287L15.2626 14.4574L13.3722 13.5122L11.4819 14.4574Z" fill="url(#paint19_radial_184_13080)"/>
<path fill-rule="evenodd" clip-rule="evenodd" d="M10.8939 19.0221L11.79 18.2869L11.482 14.4573L10.4878 13.8972L10.8939 19.0221Z" fill="url(#paint20_radial_184_13080)"/>
<path fill-rule="evenodd" clip-rule="evenodd" d="M11.482 14.4573L13.3723 13.5122V12.448L10.4878 13.8972L11.482 14.4573Z" fill="url(#paint21_radial_184_13080)"/>
<path fill-rule="evenodd" clip-rule="evenodd" d="M13.3725 18.7352L11.7902 18.2871L10.894 19.0222L13.3725 19.7293V18.7352Z" fill="url(#paint22_radial_184_13080)"/>
<path fill-rule="evenodd" clip-rule="evenodd" d="M15.8507 19.0221L14.9546 18.2869L15.2626 14.4573L16.2568 13.8972L15.8507 19.0221Z" fill="url(#paint23_radial_184_13080)"/>
<path fill-rule="evenodd" clip-rule="evenodd" d="M15.2624 14.4573L13.3721 13.5122V12.448L16.2566 13.8972L15.2624 14.4573Z" fill="url(#paint24_radial_184_13080)"/>
<path fill-rule="evenodd" clip-rule="evenodd" d="M13.3721 18.7352L14.9543 18.2871L15.8505 19.0222L13.3721 19.7293V18.7352Z" fill="url(#paint25_radial_184_13080)"/>
<g style="mix-blend-mode:screen" opacity="0.65">
<path fill-rule="evenodd" clip-rule="evenodd" d="M12.3991 13.7853C11.86 14.0723 11.0969 14.2404 10.4878 13.8973L11.489 14.4644L13.3793 13.5193V12.4551C13.3793 13.0222 12.9172 13.5123 12.4061 13.7923L12.3991 13.7853Z" fill="white"/>
</g>
<g style="mix-blend-mode:screen" opacity="0.45">
<path fill-rule="evenodd" clip-rule="evenodd" d="M14.0652 18.7002C14.7793 18.4621 15.5564 18.7842 15.8505 19.0222L14.9543 18.2871L13.3721 18.7352V19.4843C13.3721 19.1132 13.5541 18.8682 14.0652 18.7002Z" fill="white"/>
</g>
<path fill-rule="evenodd" clip-rule="evenodd" d="M10.4876 13.8972L13.3721 12.448V11.9929L10.0605 13.6522L10.4876 13.8972Z" fill="url(#paint26_linear_184_13080)"/>
<path fill-rule="evenodd" clip-rule="evenodd" d="M10.8937 19.0222L10.4876 13.8974L10.0605 13.6523L10.5086 19.3373L10.8937 19.0222Z" fill="url(#paint27_linear_184_13080)"/>
<path fill-rule="evenodd" clip-rule="evenodd" d="M13.3723 19.7293L10.8939 19.0222L10.5088 19.3373L13.3723 20.1494V19.7293Z" fill="url(#paint28_linear_184_13080)"/>
<path fill-rule="evenodd" clip-rule="evenodd" d="M16.2566 13.8972L13.3721 12.448V11.9929L16.6836 13.6522L16.2566 13.8972Z" fill="url(#paint29_linear_184_13080)"/>
<path fill-rule="evenodd" clip-rule="evenodd" d="M15.8506 19.0222L16.2567 13.8974L16.6837 13.6523L16.2357 19.3373L15.8506 19.0222Z" fill="url(#paint30_linear_184_13080)"/>
<path fill-rule="evenodd" clip-rule="evenodd" d="M13.3721 19.7293L15.8505 19.0222L16.2355 19.3373L13.3721 20.1494V19.7293Z" fill="url(#paint31_linear_184_13080)"/>
<g style="mix-blend-mode:screen" opacity="0.7">
<path fill-rule="evenodd" clip-rule="evenodd" d="M10.2495 13.5543C11.1877 13.5263 12.5949 12.8472 13.176 12.0911L10.2495 13.5543Z" fill="#FFFCE3"/>
</g>
<path fill-rule="evenodd" clip-rule="evenodd" d="M13.3724 0.406006C14.6956 0.406006 15.7668 1.47718 15.7668 2.80041C15.7668 4.12363 14.6956 5.1948 13.3724 5.1948C12.0492 5.1948 10.978 4.12363 10.978 2.80041C10.978 1.47718 12.0492 0.406006 13.3724 0.406006Z" fill="url(#paint32_radial_184_13080)"/>
<path style="mix-blend-mode:screen" fill-rule="evenodd" clip-rule="evenodd" d="M13.1066 0.714111C14.1148 0.714111 14.9339 1.53325 14.9339 2.54142C14.9339 3.54958 14.1148 4.36872 13.1066 4.36872C12.0984 4.36872 11.2793 3.54958 11.2793 2.54142C11.2793 1.53325 12.0984 0.714111 13.1066 0.714111Z" fill="url(#paint33_radial_184_13080)"/>
<path style="mix-blend-mode:screen" fill-rule="evenodd" clip-rule="evenodd" d="M12.0002 1.36517C12.5393 0.826084 13.3025 0.728067 13.7155 1.13414C14.1286 1.5402 14.0236 2.31033 13.4845 2.84942C12.9454 3.38851 12.1823 3.48653 11.7692 3.08046C11.3561 2.66739 11.4612 1.90426 12.0002 1.36517Z" fill="url(#paint34_radial_184_13080)"/>
<path style="mix-blend-mode:screen" fill-rule="evenodd" clip-rule="evenodd" d="M14.4504 0.861084C15.0666 1.25315 15.4796 1.93926 15.4796 2.72339C15.4796 3.9416 14.4925 4.92876 13.2743 4.92876C12.9452 4.92876 12.6301 4.85875 12.3501 4.72573C12.5181 4.76774 12.7002 4.78874 12.8822 4.78874C14.1424 4.78874 15.1576 3.76657 15.1576 2.51336C15.1576 1.86225 14.8845 1.28115 14.4504 0.861084Z" fill="url(#paint35_radial_184_13080)"/>
<defs>
<linearGradient id="paint0_linear_184_13080" x1="13.3722" y1="17.8949" x2="13.3722" y2="4.2356" gradientUnits="userSpaceOnUse">
<stop stop-color="#E86900"/>
<stop offset="1" stop-color="#FC8F00"/>
</linearGradient>
<radialGradient id="paint1_radial_184_13080" cx="0" cy="0" r="1" gradientUnits="userSpaceOnUse" gradientTransform="translate(13.4422 0.952041) scale(16.5718)">
<stop offset="0.51" stop-color="white"/>
<stop offset="0.65" stop-color="#F7E0C2"/>
<stop offset="0.95" stop-color="#E6952C"/>
<stop offset="1" stop-color="#E38812"/>
</radialGradient>
<linearGradient id="paint2_linear_184_13080" x1="0" y1="7.00123" x2="2.4154" y2="7.00123" gradientUnits="userSpaceOnUse">
<stop stop-color="#ED8E00"/>
<stop offset="1" stop-color="#FFCB30"/>
</linearGradient>
<linearGradient id="paint3_linear_184_13080" x1="13.3724" y1="2.79347" x2="13.3724" y2="0" gradientUnits="userSpaceOnUse">
<stop stop-color="#ED8E00"/>
<stop offset="1" stop-color="#FFCB30"/>
</linearGradient>
<linearGradient id="paint4_linear_184_13080" x1="24.3291" y1="6.11114e-05" x2="26.7445" y2="6.11114e-05" gradientUnits="userSpaceOnUse">
<stop stop-color="#ED8E00"/>
<stop offset="1" stop-color="#FFCB30"/>
</linearGradient>
<linearGradient id="paint5_linear_184_13080" x1="3.10172" y1="20.9615" x2="23.6431" y2="20.9615" gradientUnits="userSpaceOnUse">
<stop offset="0.05" stop-color="#ED9500"/>
<stop offset="0.4" stop-color="#FFCC00"/>
<stop offset="0.93" stop-color="#B36600"/>
</linearGradient>
<linearGradient id="paint6_linear_184_13080" x1="0" y1="10.8239" x2="26.7445" y2="10.8239" gradientUnits="userSpaceOnUse">
<stop offset="0.05" stop-color="#ED9500"/>
<stop offset="0.4" stop-color="#FFCC00"/>
<stop offset="0.93" stop-color="#B36600"/>
</linearGradient>
<linearGradient id="paint7_linear_184_13080" x1="0" y1="13.0922" x2="5.18086" y2="13.0922" gradientUnits="userSpaceOnUse">
<stop stop-color="#FFA163"/>
<stop offset="1" stop-color="white"/>
</linearGradient>
<linearGradient id="paint8_linear_184_13080" x1="19.8203" y1="13.3653" x2="26.7445" y2="13.3653" gradientUnits="userSpaceOnUse">
<stop stop-color="white"/>
<stop offset="1" stop-color="#FFA163"/>
</linearGradient>
<radialGradient id="paint9_radial_184_13080" cx="0" cy="0" r="1" gradientUnits="userSpaceOnUse" gradientTransform="translate(6.5459 11.9089) scale(11.2509 11.2509)">
<stop stop-color="#FFF0B0"/>
<stop offset="1"/>
</radialGradient>
<radialGradient id="paint10_radial_184_13080" cx="0" cy="0" r="1" gradientUnits="userSpaceOnUse" gradientTransform="translate(3.47266 11.0059) scale(17.3349 17.3349)">
<stop stop-color="#FFF0B0"/>
<stop offset="1"/>
</radialGradient>
<linearGradient id="paint11_linear_184_13080" x1="14.3384" y1="9.36759" x2="24.9031" y2="9.36759" gradientUnits="userSpaceOnUse">
<stop stop-color="#ED8E00"/>
<stop offset="1" stop-color="#FFCB30"/>
</linearGradient>
<linearGradient id="paint12_linear_184_13080" x1="1.84831" y1="9.36759" x2="12.4061" y2="9.36759" gradientUnits="userSpaceOnUse">
<stop stop-color="#FFCB30"/>
<stop offset="1" stop-color="#ED8E00"/>
</linearGradient>
<linearGradient id="paint13_linear_184_13080" x1="3.10156" y1="20.4854" x2="0.700162" y2="20.4854" gradientUnits="userSpaceOnUse">
<stop stop-color="#FFA163"/>
<stop offset="1" stop-color="white"/>
</linearGradient>
<radialGradient id="paint14_radial_184_13080" cx="0" cy="0" r="1" gradientUnits="userSpaceOnUse" gradientTransform="translate(6.78414 20.2195) scale(8.06534 8.06534)">
<stop stop-color="#FFF0B0"/>
<stop offset="1"/>
</radialGradient>
<radialGradient id="paint15_radial_184_13080" cx="0" cy="0" r="1" gradientUnits="userSpaceOnUse" gradientTransform="translate(12.0209 22.7677) scale(5.89498 5.89499)">
<stop stop-color="#FFF0B0"/>
<stop offset="1"/>
</radialGradient>
<linearGradient id="paint16_linear_184_13080" x1="0.000176295" y1="20.7725" x2="23.6431" y2="20.7725" gradientUnits="userSpaceOnUse">
<stop stop-color="white"/>
<stop offset="1" stop-color="#FFA163"/>
</linearGradient>
<radialGradient id="paint17_radial_184_13080" cx="0" cy="0" r="1" gradientUnits="userSpaceOnUse" gradientTransform="translate(13.2954 20.3524) scale(15.2835 15.2835)">
<stop stop-color="#FFF0B0"/>
<stop offset="1"/>
</radialGradient>
<radialGradient id="paint18_radial_184_13080" cx="0" cy="0" r="1" gradientUnits="userSpaceOnUse" gradientTransform="translate(13.0504 3.4096) scale(4.90782)">
<stop stop-color="#FFA163"/>
<stop offset="1" stop-color="white"/>
</radialGradient>
<radialGradient id="paint19_radial_184_13080" cx="0" cy="0" r="1" gradientUnits="userSpaceOnUse" gradientTransform="translate(12.5881 13.7783) scale(6.70712)">
<stop stop-color="#FF8AAF"/>
<stop offset="1" stop-color="#D7001E"/>
</radialGradient>
<radialGradient id="paint20_radial_184_13080" cx="0" cy="0" r="1" gradientUnits="userSpaceOnUse" gradientTransform="translate(9.75967 14.1283) scale(11.0969 11.0968)">
<stop stop-color="#FF8480"/>
<stop offset="1" stop-color="#F50022"/>
</radialGradient>
<radialGradient id="paint21_radial_184_13080" cx="0" cy="0" r="1" gradientUnits="userSpaceOnUse" gradientTransform="translate(11.3279 11.1598) scale(5.07585 5.07584)">
<stop stop-color="#FFE3E3"/>
<stop offset="1" stop-color="#FF8A91"/>
</radialGradient>
<radialGradient id="paint22_radial_184_13080" cx="0" cy="0" r="1" gradientUnits="userSpaceOnUse" gradientTransform="translate(10.824 22.6488) scale(4.7958 4.7958)">
<stop stop-color="#EB716D"/>
<stop offset="0.27" stop-color="#E35252"/>
<stop offset="1" stop-color="#CF0008"/>
</radialGradient>
<radialGradient id="paint23_radial_184_13080" cx="0" cy="0" r="1" gradientUnits="userSpaceOnUse" gradientTransform="translate(13.2743 14.0582) scale(5.59393 5.59393)">
<stop stop-color="#EB716D"/>
<stop offset="1" stop-color="#CF0008"/>
</radialGradient>
<radialGradient id="paint24_radial_184_13080" cx="0" cy="0" r="1" gradientUnits="userSpaceOnUse" gradientTransform="translate(13.7921 12.217) scale(8.44341)">
<stop stop-color="#FF8480"/>
<stop offset="1" stop-color="#F50022"/>
</radialGradient>
<radialGradient id="paint25_radial_184_13080" cx="0" cy="0" r="1" gradientUnits="userSpaceOnUse" gradientTransform="translate(13.127 14.7655) scale(5.55192)">
<stop stop-color="#FFE3E3"/>
<stop offset="1" stop-color="#FF8A91"/>
</radialGradient>
<linearGradient id="paint26_linear_184_13080" x1="10.0605" y1="12.9451" x2="13.3721" y2="12.9451" gradientUnits="userSpaceOnUse">
<stop stop-color="#F5D36C"/>
<stop offset="1" stop-color="#FFF5B0"/>
</linearGradient>
<linearGradient id="paint27_linear_184_13080" x1="10.4736" y1="19.3373" x2="10.4736" y2="13.6523" gradientUnits="userSpaceOnUse">
<stop stop-color="#ED8E00"/>
<stop offset="1" stop-color="#FFCB30"/>
</linearGradient>
<linearGradient id="paint28_linear_184_13080" x1="10.5088" y1="19.5893" x2="13.3723" y2="19.5893" gradientUnits="userSpaceOnUse">
<stop stop-color="#A34900"/>
<stop offset="1" stop-color="#F09C00"/>
</linearGradient>
<linearGradient id="paint29_linear_184_13080" x1="13.3721" y1="12.9451" x2="16.6836" y2="12.9451" gradientUnits="userSpaceOnUse">
<stop stop-color="#F09C00"/>
<stop offset="1" stop-color="#A34900"/>
</linearGradient>
<linearGradient id="paint30_linear_184_13080" x1="16.2707" y1="19.3373" x2="16.2707" y2="13.6523" gradientUnits="userSpaceOnUse">
<stop stop-color="#A34900"/>
<stop offset="1" stop-color="#F09C00"/>
</linearGradient>
<linearGradient id="paint31_linear_184_13080" x1="13.3721" y1="19.5893" x2="16.2355" y2="19.5893" gradientUnits="userSpaceOnUse">
<stop stop-color="#FFBF00"/>
<stop offset="1" stop-color="#DB6A00"/>
</linearGradient>
<radialGradient id="paint32_radial_184_13080" cx="0" cy="0" r="1" gradientUnits="userSpaceOnUse" gradientTransform="translate(12.6093 2.1423) scale(3.26254)">
<stop stop-color="#FCCD10"/>
<stop offset="0.22" stop-color="#ECAB08"/>
<stop offset="0.45" stop-color="#DF8D02"/>
<stop offset="0.58" stop-color="#DB8300"/>
<stop offset="0.71" stop-color="#D57C00"/>
<stop offset="0.88" stop-color="#C76B00"/>
<stop offset="1" stop-color="#BA5B00"/>
</radialGradient>
<radialGradient id="paint33_radial_184_13080" cx="0" cy="0" r="1" gradientUnits="userSpaceOnUse" gradientTransform="translate(11.8604 1.10618) scale(3.97666)">
<stop stop-color="#FFE58A"/>
<stop offset="1"/>
</radialGradient>
<radialGradient id="paint34_radial_184_13080" cx="0" cy="0" r="1" gradientUnits="userSpaceOnUse" gradientTransform="translate(11.0201 0.286994) scale(3.92065)">
<stop stop-color="#FFE58A"/>
<stop offset="1"/>
</radialGradient>
<radialGradient id="paint35_radial_184_13080" cx="0" cy="0" r="1" gradientUnits="userSpaceOnUse" gradientTransform="translate(13.5053 2.38734) scale(3.76663 3.76663)">
<stop stop-color="#FFE58A"/>
<stop offset="1"/>
</radialGradient>
</defs>
</svg>
