<svg width="90" height="90" viewBox="0 0 90 90" fill="none" xmlns="http://www.w3.org/2000/svg">
<circle cx="45" cy="45" r="45" fill="#F3F3F3"/>
<path opacity="0.5" d="M66.6089 25.9836C69.7154 27.6302 71.7289 30.7872 71.912 34.2984L72.4273 44.1799L72.7854 54.0684C72.9127 57.582 71.1854 60.9044 68.2362 62.8185L59.9361 68.2055L51.5515 73.4599C48.5722 75.3269 44.8314 75.4922 41.6991 73.8952L32.8837 69.4006L24.141 64.7665C21.0345 63.1199 19.0209 59.9629 18.8378 56.4517L18.3226 46.5701L17.9645 36.6816C17.8372 33.168 19.5645 29.8457 22.5137 27.9316L30.8138 22.5446L39.1984 17.2902C42.1777 15.4232 45.9185 15.2579 49.0508 16.8549L57.8661 21.3494L66.6089 25.9836Z" fill="url(#paint0_linear_184_12264)"/>
<path d="M55.2696 18.3749C58.7854 18.4028 62.0283 20.2751 63.8104 23.3059L68.8258 31.8356L73.7051 40.444C75.4388 43.5027 75.4388 47.2472 73.7051 50.306L68.8258 58.9143L63.8104 67.4441C62.0283 70.4749 58.7854 72.3471 55.2696 72.3751L45.375 72.4537L35.4803 72.3751C31.9645 72.3471 28.7216 70.4749 26.9395 67.4441L21.9241 58.9143L17.0449 50.306C15.3112 47.2472 15.3112 43.5027 17.0449 40.444L21.9241 31.8356L26.9395 23.3059C28.7216 20.2751 31.9645 18.4028 35.4803 18.3749L45.375 18.2962L55.2696 18.3749Z" fill="url(#paint1_linear_184_12264)"/>
<g filter="url(#filter0_d_184_12264)">
<path d="M29.9913 65.6957C29.1118 64.5428 26.7545 64.3382 24.3925 65.2896C22.0305 66.2409 20.4731 68.0218 20.6371 69.4621L20.5684 69.459L20.6855 69.7417C21.2901 71.2414 23.9004 71.6054 26.5155 70.5509C29.1306 69.498 30.7599 67.4282 30.1569 65.9269L30.0398 65.6426L29.9929 65.6942L29.9913 65.6957Z" fill="#D16A0D"/>
<path d="M29.8725 65.2286C29.9085 65.3161 29.9287 65.3504 29.9537 65.4192C29.9631 65.4457 30.0334 65.6097 30.0397 65.6441C30.2709 67.0985 28.6712 68.9731 26.267 69.9416C23.8066 70.932 21.3556 70.6368 20.5698 69.4573C20.5698 69.4573 20.4386 69.1309 20.4042 69.0418C19.7997 67.5406 21.4306 65.4707 24.0456 64.4178C26.6607 63.3649 29.2711 63.7273 29.8741 65.227L29.8725 65.2286Z" fill="#D16A0D"/>
<path d="M29.8458 65.1629C30.4503 66.6626 28.8194 68.734 26.2043 69.7869C23.5893 70.8398 20.9789 70.4774 20.3759 68.9777C19.7713 67.478 21.4022 65.4066 24.0173 64.3537C26.6324 63.3008 29.2428 63.6632 29.8458 65.1629Z" fill="url(#paint2_linear_184_12264)"/>
<g style="mix-blend-mode:screen" opacity="0.5">
<path d="M24.0236 64.3694C26.6339 63.318 29.2381 63.6773 29.8489 65.1707C29.8489 65.1676 29.8473 65.1661 29.8458 65.1629C29.2412 63.6617 26.6324 63.2993 24.0173 64.3537C21.4022 65.4066 19.7713 67.4765 20.3759 68.9777C20.3759 68.9809 20.3775 68.9824 20.379 68.9855C19.7838 67.4859 21.4132 65.4223 24.0236 64.3709V64.3694Z" fill="#FEF0A0"/>
</g>
<path d="M29.0975 65.4644C29.6068 66.7282 28.2337 68.4716 26.031 69.3573C23.8284 70.2447 21.632 69.9385 21.1227 68.6747C20.6134 67.4109 21.9866 65.6675 24.1892 64.7818C26.3919 63.8945 28.5898 64.2006 29.0975 65.4644Z" fill="url(#paint3_linear_184_12264)"/>
<path d="M29.0975 65.4644C29.6068 66.7282 28.2337 68.4716 26.031 69.3573C23.8284 70.2447 21.632 69.9385 21.1227 68.6747C20.6134 67.4109 21.9866 65.6675 24.1892 64.7818C26.3919 63.8945 28.5898 64.2006 29.0975 65.4644Z" fill="url(#paint4_linear_184_12264)"/>
<g style="mix-blend-mode:multiply">
<path d="M24.1891 64.7818C26.3855 63.8976 28.5772 64.1991 29.0943 65.4551C29.0943 65.4519 29.0912 65.4488 29.0912 65.4457C28.5819 64.1819 26.384 63.8773 24.1829 64.7646C21.9802 65.6519 20.6087 67.3953 21.1164 68.6575C21.1179 68.6606 21.1195 68.6637 21.121 68.6669C20.6243 67.4046 21.9943 65.6675 24.1907 64.7833L24.1891 64.7818Z" fill="#FEF0A0"/>
</g>
<g style="mix-blend-mode:screen" opacity="0.3">
<path d="M26.0326 69.3574C23.8347 70.2416 21.6414 69.9401 21.1274 68.6825C21.1274 68.6857 21.129 68.6872 21.1306 68.6904C21.6398 69.9541 23.8362 70.2588 26.0389 69.373C28.2416 68.4857 29.6147 66.7423 29.1054 65.4801C29.1054 65.477 29.1039 65.4754 29.1023 65.4723C29.6022 66.7345 28.2306 68.4732 26.0326 69.3574Z" fill="#FEF0A0"/>
</g>
<path opacity="0.4" d="M24.2314 64.8848C26.4137 64.0053 28.5773 64.2646 29.1116 65.4987C29.1069 65.4878 29.1038 65.4753 29.0975 65.4644C28.5898 64.2006 26.3919 63.8959 24.1892 64.7817C21.9866 65.669 20.615 67.4124 21.1227 68.6746C21.1274 68.6855 21.1321 68.6965 21.1368 68.709C20.6665 67.4483 22.0475 65.7627 24.2298 64.8832L24.2314 64.8848Z" fill="#D16A0D"/>
<g style="mix-blend-mode:multiply" opacity="0.4">
<path d="M26.6822 66.6594C26.5587 66.5859 26.4275 66.5438 26.2854 66.5344C26.1448 66.5235 25.8901 66.5297 25.5246 66.5516C25.0934 66.5766 24.8294 66.5828 24.7341 66.5688C24.6357 66.5563 24.5654 66.4953 24.5201 66.3844C24.4936 66.3173 24.4936 66.261 24.5186 66.211C24.5451 66.1626 24.5967 66.122 24.6732 66.0907C24.7701 66.0517 24.8404 66.0454 24.8857 66.072C24.931 66.0985 24.9778 66.1735 25.0278 66.2985L24.9528 66.3641L25.0762 66.4157L26.3478 65.9033C26.3322 65.8408 26.3182 65.7939 26.3072 65.7658C26.2229 65.5565 26.0604 65.4331 25.8167 65.394C25.5746 65.3534 25.2512 65.3987 24.8466 65.5299L24.756 65.3034L24.6326 65.2534L24.6029 65.355L24.1702 65.5409L24.2608 65.7674C23.8421 65.9689 23.5484 66.172 23.3829 66.3797C23.2157 66.5859 23.1751 66.7953 23.2594 67.0062C23.3188 67.1514 23.4219 67.2624 23.5703 67.3373C23.7187 67.4123 23.8749 67.4529 24.0405 67.4592C24.2061 67.467 24.5092 67.4592 24.9528 67.4389C25.2184 67.4264 25.384 67.4451 25.4527 67.4967C25.5199 67.5482 25.5855 67.6545 25.6496 67.8122C25.6746 67.8747 25.673 67.931 25.6433 67.9794C25.6136 68.0278 25.5574 68.07 25.4699 68.1044C25.3699 68.145 25.2965 68.1481 25.2512 68.1122C25.2059 68.0762 25.145 67.9638 25.0684 67.7732L25.0341 67.6888L24.9981 67.5998L24.8747 67.5482L24.7794 67.6638L23.725 68.1122L23.7812 68.2512C23.9077 68.5668 24.1233 68.7355 24.4279 68.7589C24.7326 68.7839 25.0591 68.7355 25.4074 68.6183L25.3949 68.8417L25.5168 68.8933L26.1026 68.6574L25.9948 68.3918C26.4181 68.1825 26.7087 67.9622 26.8696 67.731C27.0305 67.4998 27.0602 67.2577 26.9587 67.0062C26.8962 66.8484 26.8024 66.7328 26.679 66.6609L26.6822 66.6594Z" fill="#AA7E03"/>
</g>
<path d="M26.2248 65.8533L24.9532 66.3657L24.9063 66.2485C24.8564 66.1235 24.8079 66.047 24.7642 66.022C24.7189 65.9954 24.6486 66.0017 24.5517 66.0407C24.4736 66.072 24.4221 66.1126 24.3971 66.161C24.3721 66.2095 24.3721 66.2673 24.3986 66.3344C24.4439 66.4453 24.5142 66.5063 24.6127 66.5188C24.7079 66.5313 24.9719 66.5266 25.4031 66.5016C25.7702 66.4797 26.0233 66.4735 26.1654 66.4844C26.306 66.4938 26.4373 66.536 26.5607 66.6094C26.6841 66.6828 26.7778 66.7968 26.8403 66.9546C26.9418 67.2061 26.9121 67.4483 26.7512 67.6795C26.5903 67.9107 26.2998 68.1309 25.8764 68.3403L25.9842 68.6058L25.3984 68.8417L25.2875 68.5668C24.9407 68.6855 24.6142 68.7324 24.308 68.7074C24.0034 68.6824 23.7878 68.5137 23.6613 68.1981L23.605 68.0606L24.8766 67.5482L24.947 67.7216C25.0235 67.9122 25.0844 68.0247 25.1282 68.0606C25.1735 68.0966 25.2453 68.0934 25.3469 68.0528C25.4328 68.0184 25.4906 67.9763 25.5187 67.9278C25.5484 67.8794 25.5499 67.8232 25.525 67.7591C25.4609 67.6013 25.3953 67.4951 25.3281 67.4436C25.2609 67.392 25.0954 67.3717 24.8298 67.3858C24.3877 67.4076 24.0831 67.4139 23.9175 67.4061C23.7519 67.3983 23.5957 67.3577 23.4473 67.2827C23.2989 67.2077 23.1958 67.0983 23.1364 66.953C23.052 66.7422 23.0927 66.5328 23.2598 66.3266C23.427 66.1204 23.7191 65.9158 24.1377 65.7143L24.0471 65.4893L24.633 65.2534L24.7236 65.4784C25.1266 65.3487 25.45 65.3034 25.6937 65.3425C25.9358 65.3815 26.0998 65.5065 26.1842 65.7158C26.1967 65.7455 26.2092 65.7908 26.2248 65.8533Z" fill="white"/>
<g style="mix-blend-mode:screen" opacity="0.7">
<path style="mix-blend-mode:screen" d="M24.7314 65.4752V65.4783C25.0829 65.3659 25.3735 65.3159 25.6031 65.3315C25.3735 65.3143 25.0829 65.3627 24.7314 65.4752Z" fill="url(#paint5_linear_184_12264)"/>
<path style="mix-blend-mode:screen" d="M24.7145 66.0063C24.7332 66.0079 24.7504 66.0126 24.7629 66.022C24.8082 66.0485 24.855 66.1235 24.905 66.2485L24.9519 66.3656L24.9597 66.3625L24.9144 66.2485C24.8644 66.1235 24.8176 66.0485 24.7707 66.022C24.7551 66.0126 24.7348 66.0079 24.7129 66.0063H24.7145Z" fill="url(#paint6_linear_184_12264)"/>
<path style="mix-blend-mode:screen" d="M25.5297 67.9278C25.5594 67.8794 25.5609 67.8231 25.5359 67.7591C25.4719 67.6013 25.4063 67.4951 25.3391 67.4435C25.2985 67.4123 25.2219 67.392 25.1079 67.3857C25.2157 67.3936 25.2891 67.4139 25.3297 67.4435C25.3969 67.4967 25.4625 67.6013 25.5266 67.7591C25.5516 67.8216 25.55 67.8778 25.5203 67.9278C25.4922 67.9762 25.4344 68.0184 25.3485 68.0528C25.2907 68.0762 25.2423 68.0872 25.2032 68.0856C25.2438 68.0903 25.2954 68.0793 25.3579 68.0543C25.4438 68.02 25.5016 67.9778 25.5297 67.9294V67.9278Z" fill="url(#paint7_linear_184_12264)"/>
<path style="mix-blend-mode:screen" d="M26.1636 66.4828C26.023 66.4719 25.7684 66.4781 25.4013 66.5C25.0186 66.5219 24.7686 66.5281 24.6499 66.5203C24.7639 66.5297 25.017 66.5219 25.4107 66.5C25.77 66.4781 26.0215 66.4734 26.1636 66.4828Z" fill="url(#paint8_linear_184_12264)"/>
<path style="mix-blend-mode:screen" d="M25.2969 68.5684C25.2969 68.5684 25.2922 68.5699 25.2891 68.5715L25.3984 68.8433L25.4062 68.8402L25.2969 68.5699V68.5684Z" fill="url(#paint9_linear_184_12264)"/>
<path style="mix-blend-mode:screen" d="M24.3173 68.7088C24.0127 68.6838 23.7971 68.5151 23.669 68.1995L23.6144 68.062L24.8781 67.5528V67.5481L23.605 68.0605L23.6612 68.198C23.7878 68.5135 24.0033 68.6822 24.308 68.7072C24.3173 68.7072 24.3283 68.7088 24.3376 68.7088C24.3314 68.7088 24.3236 68.7088 24.3173 68.7088Z" fill="url(#paint10_linear_184_12264)"/>
<path style="mix-blend-mode:screen" d="M23.8925 67.4045C23.741 67.3936 23.5957 67.353 23.4582 67.2842C23.3098 67.2092 23.2067 67.0999 23.1473 66.953C23.063 66.7422 23.1036 66.5328 23.2692 66.3266C23.4363 66.1204 23.7285 65.9158 24.1471 65.7143L24.0565 65.4893L24.6345 65.2565V65.2534L24.0471 65.4893L24.1377 65.7143C23.7191 65.9158 23.4254 66.1189 23.2598 66.3266C23.0927 66.5328 23.052 66.7422 23.1364 66.953C23.1942 67.0983 23.2989 67.2092 23.4473 67.2827C23.5879 67.353 23.7363 67.3936 23.8925 67.4045Z" fill="url(#paint11_linear_184_12264)"/>
</g>
</g>
<g filter="url(#filter1_d_184_12264)">
<path d="M80.496 50.4221C81.0259 49.7355 80.7792 48.342 79.864 47.1248C78.9488 45.9075 77.6789 45.2834 76.8722 45.6011L76.8633 45.5609L76.7181 45.6724C75.9453 46.2538 76.1391 47.8182 77.1531 49.1657C78.1662 50.5134 79.6141 51.1343 80.3881 50.5535L80.5342 50.4418L80.4972 50.4227L80.496 50.4221Z" fill="#D16A0D"/>
<path d="M80.7477 50.281C80.7027 50.3153 80.686 50.3324 80.6502 50.3575C80.6363 50.367 80.5524 50.433 80.5335 50.4419C79.7291 50.8006 78.3986 50.1667 77.4669 48.9277C76.5138 47.6596 76.305 46.1979 76.8647 45.5614C76.8647 45.5614 77.033 45.4351 77.0792 45.4014C77.8528 44.8198 79.3011 45.4416 80.3141 46.7893C81.3272 48.1371 81.5219 49.7012 80.7489 50.2817L80.7477 50.281Z" fill="#D16A0D"/>
<path d="M80.7811 50.2557C80.0083 50.8371 78.5592 50.2155 77.5461 48.8678C76.5331 47.5201 76.3384 45.9559 77.1114 45.3754C77.8842 44.794 79.3333 45.4156 80.3464 46.7633C81.3594 48.1111 81.5541 49.6752 80.7811 50.2557Z" fill="url(#paint12_linear_184_12264)"/>
<g style="mix-blend-mode:screen" opacity="0.5">
<path d="M80.3386 46.7693C81.3501 48.1146 81.5456 49.6746 80.7774 50.2586C80.7792 50.2581 80.7799 50.257 80.7814 50.2556C81.5551 49.674 81.3607 48.1107 80.3467 46.7632C79.3336 45.4155 77.8854 44.7937 77.1117 45.3754C77.1099 45.3759 77.1093 45.377 77.1077 45.3784C77.8819 44.8024 79.3263 45.4242 80.3377 46.7695L80.3386 46.7693Z" fill="#FEF0A0"/>
</g>
<path d="M80.4915 49.8701C79.8402 50.3599 78.6205 49.8365 77.7679 48.7011C76.9143 47.566 76.7512 46.2498 77.4025 45.7599C78.0537 45.2701 79.2734 45.7935 80.1261 46.9289C80.9797 48.064 81.143 49.3811 80.4915 49.8701Z" fill="url(#paint13_linear_184_12264)"/>
<path d="M80.4915 49.8701C79.8402 50.3599 78.6205 49.8365 77.7679 48.7011C76.9143 47.566 76.7512 46.2498 77.4025 45.7599C78.0537 45.2701 79.2734 45.7935 80.1261 46.9289C80.9797 48.064 81.143 49.3811 80.4915 49.8701Z" fill="url(#paint14_linear_184_12264)"/>
<g style="mix-blend-mode:multiply">
<path d="M80.126 46.9286C80.9768 48.0606 81.1419 49.3734 80.4964 49.8665C80.4982 49.8661 80.4995 49.8638 80.5013 49.8633C81.1526 49.3735 80.9883 48.0565 80.135 46.9223C79.2814 45.7872 78.062 45.2647 77.4114 45.7534C77.4098 45.7548 77.4082 45.7562 77.4067 45.7575C78.059 45.2752 79.2746 45.7977 80.1254 46.9297L80.126 46.9286Z" fill="#FEF0A0"/>
</g>
<g style="mix-blend-mode:screen" opacity="0.3">
<path d="M77.7678 48.7019C76.9168 47.569 76.7514 46.2552 77.3984 45.7637C77.3966 45.7641 77.3959 45.7653 77.3943 45.7667C76.7431 46.2565 76.9071 47.5725 77.7597 48.7079C78.6133 49.843 79.833 50.3664 80.4834 49.8768C80.4852 49.8764 80.4858 49.8752 80.4874 49.8738C79.8356 50.358 78.6188 49.8348 77.7678 48.7019Z" fill="#FEF0A0"/>
</g>
<path opacity="0.4" d="M80.0729 46.9692C80.9188 48.0938 81.1039 49.3838 80.4736 49.8835C80.4792 49.8791 80.486 49.8754 80.4913 49.8701C81.1428 49.3811 80.9786 48.0642 80.1259 46.9288C79.2724 45.7937 78.0529 45.2712 77.4023 45.7599C77.3967 45.7643 77.3911 45.7687 77.3846 45.7733C78.0401 45.3066 79.2276 45.8434 80.0735 46.968L80.0729 46.9692Z" fill="#D16A0D"/>
<g style="mix-blend-mode:multiply" opacity="0.4">
<path d="M79.4268 48.6596C79.4501 48.577 79.4542 48.4946 79.4376 48.4111C79.4222 48.3281 79.3791 48.182 79.3099 47.9742C79.2287 47.729 79.1843 47.5775 79.1776 47.5202C79.1696 47.4615 79.1939 47.4114 79.251 47.3681C79.2857 47.3423 79.3182 47.3336 79.3509 47.3403C79.383 47.3482 79.4145 47.3717 79.4444 47.411C79.4819 47.461 79.4964 47.5006 79.4881 47.5309C79.4797 47.5612 79.4437 47.5998 79.3792 47.6481L79.3297 47.6149L79.319 47.6942L79.8119 48.3495C79.8456 48.3308 79.8705 48.3154 79.885 48.3047C79.9929 48.2236 80.039 48.1106 80.0239 47.9638C80.0099 47.8176 79.9336 47.6378 79.7952 47.4244L79.912 47.337L79.9218 47.258L79.8585 47.2565L79.6842 47.0353L79.5673 47.1227C79.3861 46.9121 79.2233 46.7738 79.0777 46.7103C78.9327 46.6457 78.8054 46.6546 78.6967 46.736C78.6219 46.7928 78.5738 46.8695 78.5535 46.9669C78.5331 47.0642 78.5338 47.1607 78.5559 47.2574C78.577 47.3542 78.6284 47.5281 78.7088 47.7813C78.7571 47.9328 78.7719 48.0313 78.7528 48.079C78.7334 48.1258 78.6822 48.1801 78.601 48.2416C78.5687 48.2657 78.536 48.2735 78.5034 48.2638C78.4709 48.2542 78.4378 48.2282 78.4044 48.183C78.3655 48.1315 78.3523 48.0896 78.366 48.0579C78.3798 48.0261 78.4353 47.9735 78.5336 47.8998L78.577 47.8669L78.6229 47.8324L78.6336 47.7531L78.552 47.7159L78.1298 47.1762L78.0582 47.2302C77.8955 47.3521 77.8314 47.5028 77.865 47.6824C77.8977 47.8622 77.9762 48.0433 78.0978 48.2265L77.9668 48.2538L77.9559 48.3322L78.1829 48.6341L78.3196 48.5307C78.5061 48.7429 78.6783 48.8767 78.8368 48.9338C78.9952 48.991 79.1397 48.9707 79.2693 48.8731C79.3508 48.8125 79.403 48.7405 79.4255 48.6581L79.4268 48.6596Z" fill="#AA7E03"/>
</g>
<path d="M79.8217 48.2706L79.3289 47.6153L79.3893 47.5701C79.4538 47.5218 79.4905 47.482 79.4982 47.4529C79.5065 47.4226 79.492 47.383 79.4544 47.333C79.4243 47.2928 79.3929 47.2693 79.361 47.2623C79.3292 47.2554 79.2958 47.2643 79.2611 47.2901C79.204 47.3334 79.1797 47.3834 79.1877 47.4422C79.1952 47.4992 79.2388 47.651 79.32 47.8962C79.3895 48.1049 79.4322 48.2501 79.4479 48.334C79.4643 48.4166 79.4602 48.499 79.4369 48.5816C79.4136 48.6643 79.3622 48.7361 79.2808 48.7966C79.1512 48.8942 79.0067 48.9145 78.8482 48.8574C78.6898 48.8002 78.5175 48.6665 78.3311 48.4543L78.1943 48.5577L77.9674 48.2558L78.109 48.1491C77.9868 47.9672 77.9092 47.7858 77.8762 47.605C77.8435 47.4252 77.9076 47.2745 78.0703 47.1526L78.141 47.0988L78.6339 47.7541L78.5446 47.8216C78.4463 47.8953 78.3908 47.9479 78.3768 47.9787C78.363 48.0105 78.376 48.0515 78.4151 48.1039C78.4483 48.1482 78.4816 48.175 78.5139 48.1838C78.5465 48.1934 78.5792 48.1856 78.6124 48.1613C78.6936 48.0999 78.7448 48.0455 78.7642 47.9987C78.7836 47.9519 78.7697 47.8531 78.7205 47.7019C78.6394 47.4499 78.5886 47.2749 78.5675 47.178C78.5464 47.0811 78.5457 46.9846 78.566 46.8873C78.5864 46.7899 78.6336 46.7134 78.7083 46.6566C78.8171 46.5752 78.9443 46.5663 79.0893 46.631C79.2343 46.6956 79.3977 46.8327 79.579 47.0434L79.6949 46.9562L79.9219 47.2581L79.8059 47.3453C79.9432 47.558 80.0194 47.7378 80.0346 47.8847C80.0495 48.0306 80.0027 48.1447 79.8948 48.2258C79.8796 48.2376 79.8554 48.2519 79.8217 48.2706Z" fill="white"/>
<g style="mix-blend-mode:screen" opacity="0.7">
<path style="mix-blend-mode:screen" d="M79.8091 47.3493L79.8073 47.3498C79.9266 47.5354 80.0005 47.6956 80.027 47.8306C80.0014 47.6953 79.9285 47.535 79.8091 47.3493Z" fill="url(#paint15_linear_184_12264)"/>
<path style="mix-blend-mode:screen" d="M79.4998 47.4216C79.5018 47.4326 79.5017 47.4433 79.4982 47.4519C79.4899 47.4822 79.4538 47.5209 79.3894 47.5691L79.3289 47.6144L79.332 47.6184L79.3908 47.5745C79.4553 47.5263 79.4913 47.4876 79.4994 47.4565C79.5024 47.446 79.502 47.4335 79.4995 47.4207L79.4998 47.4216Z" fill="url(#paint16_linear_184_12264)"/>
<path style="mix-blend-mode:screen" d="M78.5158 48.1901C78.5484 48.1998 78.5811 48.192 78.6142 48.1676C78.6955 48.1062 78.7467 48.0518 78.7661 48.0051C78.7778 47.9768 78.7777 47.9294 78.7637 47.8625C78.7758 47.926 78.7755 47.9716 78.7646 47.9996C78.7443 48.0467 78.694 48.1008 78.6128 48.1622C78.5806 48.1863 78.5478 48.1941 78.5144 48.1847C78.482 48.176 78.4487 48.1491 78.4156 48.1048C78.3931 48.075 78.3793 48.0487 78.3741 48.0259C78.3777 48.0501 78.392 48.0782 78.4161 48.1104C78.4493 48.1548 78.4826 48.1816 78.5149 48.1904L78.5158 48.1901Z" fill="url(#paint17_linear_184_12264)"/>
<path style="mix-blend-mode:screen" d="M79.449 48.3327C79.4336 48.2498 79.3906 48.1036 79.3211 47.895C79.2492 47.6772 79.2069 47.5338 79.1931 47.464C79.2053 47.5313 79.249 47.6763 79.3226 47.9004C79.3908 48.1046 79.4325 48.2491 79.449 48.3327Z" fill="url(#paint18_linear_184_12264)"/>
<path style="mix-blend-mode:screen" d="M78.1101 48.1549C78.1101 48.1549 78.1085 48.1524 78.1071 48.1509L77.967 48.2561L77.97 48.2602L78.1092 48.1551L78.1101 48.1549Z" fill="url(#paint19_linear_184_12264)"/>
<path style="mix-blend-mode:screen" d="M77.8772 47.6106C77.8445 47.4308 77.9086 47.2801 78.0711 47.1573L78.142 47.1044L78.6319 47.7556L78.6346 47.7549L78.1415 47.0987L78.0708 47.1525C77.9081 47.2744 77.844 47.4251 77.8767 47.6049C77.8781 47.6104 77.8789 47.6169 77.8804 47.6223C77.8794 47.6187 77.8782 47.6142 77.8772 47.6106Z" fill="url(#paint20_linear_184_12264)"/>
<path style="mix-blend-mode:screen" d="M78.5645 47.1633C78.5474 47.0741 78.5484 46.9839 78.5668 46.8938C78.5871 46.7965 78.6344 46.72 78.71 46.6629C78.8188 46.5816 78.946 46.5726 79.0908 46.6364C79.2358 46.701 79.3992 46.8381 79.5804 47.0488L79.6964 46.9616L79.9203 47.2595L79.9221 47.259L79.6949 46.9562L79.579 47.0434C79.3977 46.8327 79.235 46.6945 79.0893 46.631C78.9443 46.5663 78.8171 46.5752 78.7083 46.6566C78.6333 46.7125 78.5855 46.7902 78.566 46.8873C78.5472 46.9794 78.5467 47.0714 78.5645 47.1633Z" fill="url(#paint21_linear_184_12264)"/>
</g>
</g>
<g style="mix-blend-mode:multiply">
<path d="M29.9862 38.1917C29.9845 38.1404 29.9811 38.0892 29.9742 38.0396C29.9674 37.9849 29.9606 37.9301 29.9503 37.8754C29.9383 37.8156 29.9246 37.754 29.9093 37.6942C29.8905 37.6258 29.8682 37.5574 29.8426 37.4907C29.8118 37.407 29.7742 37.3249 29.7314 37.2462C29.6613 37.1146 29.5793 36.9898 29.4818 36.8718C29.4203 36.7983 29.3536 36.7265 29.2818 36.6598C29.21 36.5931 29.133 36.5315 29.0561 36.4751L28.9928 36.417L28.9843 36.4255L28.9227 36.4922L28.8526 36.5692L28.7825 36.6461L28.7124 36.723L28.6423 36.8L28.5722 36.8769L28.5004 36.9539L28.4303 37.0308L28.3585 37.1077L28.2884 37.1847L28.2166 37.2616L28.1465 37.3386L28.0764 37.4155L28.0063 37.4924L27.9345 37.5694L27.8644 37.6463L27.7943 37.7233L27.7224 37.8002L27.6524 37.8771L27.5805 37.9541L27.5104 38.031L27.4404 38.108L27.3702 38.1849L27.2984 38.2618L27.2283 38.3388L27.1565 38.4157L27.0864 38.4927L27.0163 38.5696L26.9462 38.6465L26.8744 38.7235L26.8043 38.8004L26.7342 38.8774L26.6624 38.9543L26.5923 39.0312L26.5222 39.1082L26.4504 39.1851L26.3803 39.2621L26.3102 39.339L26.2401 39.4159L26.17 39.4929L26.0999 39.5698L26.0383 39.6365L26.0298 39.6468L26.093 39.7049C26.1546 39.7784 26.2213 39.8502 26.2931 39.9169C26.3649 39.9836 26.4401 40.0451 26.5188 40.1016C26.6436 40.1905 26.7752 40.264 26.9103 40.3238C26.9924 40.3597 27.0779 40.3905 27.1634 40.4162C27.2318 40.4367 27.3019 40.4538 27.372 40.4675C27.4318 40.4794 27.4933 40.488 27.5549 40.4948C27.6096 40.5016 27.666 40.5051 27.7208 40.5068C27.7721 40.5085 27.8233 40.5068 27.8729 40.5068C27.9208 40.5051 27.9687 40.5016 28.0165 40.4965C28.061 40.4914 28.1054 40.4863 28.1499 40.4794C28.1926 40.4726 28.2354 40.464 28.2764 40.4555C28.3175 40.4469 28.3568 40.4367 28.3961 40.4247C28.4354 40.4145 28.4731 40.4025 28.5107 40.3888C28.5466 40.3768 28.5842 40.3632 28.6201 40.3478C28.6543 40.3341 28.6902 40.3187 28.7244 40.3016C28.7586 40.2862 28.7911 40.2691 28.8236 40.252C28.856 40.2349 28.8868 40.2178 28.9193 40.199C28.9501 40.1802 28.9808 40.1614 29.0099 40.1409C29.039 40.1221 29.068 40.1016 29.0971 40.0793C29.1262 40.0588 29.1535 40.0366 29.1809 40.0144C29.2082 39.9921 29.2339 39.9699 29.2612 39.946C29.2869 39.9237 29.3126 39.8998 29.3382 39.8742C29.3621 39.8502 29.3878 39.8246 29.4117 39.7989C29.4356 39.7733 29.4579 39.7476 29.4801 39.7203C29.5023 39.6929 29.5246 39.6673 29.5451 39.6382C29.5673 39.6109 29.5878 39.5818 29.6066 39.5544C29.6271 39.5254 29.646 39.4963 29.6648 39.4655C29.6836 39.4347 29.7024 39.404 29.7195 39.3732C29.7366 39.3424 29.7537 39.3099 29.7691 39.2774C29.7862 39.245 29.8016 39.2108 29.8152 39.1783C29.8306 39.1441 29.8443 39.1099 29.858 39.0757C29.8717 39.0398 29.8836 39.0039 29.8956 38.968C29.9076 38.9304 29.9178 38.8927 29.9281 38.8551C29.9383 38.8158 29.9469 38.7765 29.9554 38.7389C29.964 38.6978 29.9708 38.6568 29.9759 38.6158C29.9828 38.573 29.9879 38.5303 29.9913 38.4875C29.9947 38.4431 29.9982 38.3969 29.9999 38.3525C29.9999 38.3046 29.9999 38.2567 29.9999 38.2088L29.9862 38.1917Z" fill="#D16A0D"/>
</g>
<path d="M26.8522 36.1742C27.9756 35.7006 29.2716 36.2289 29.7435 37.3522C30.2171 38.4756 29.6888 39.7716 28.5654 40.2435C27.4421 40.7171 26.1461 40.1888 25.6742 39.0654C25.2006 37.9421 25.7289 36.6461 26.8522 36.1742Z" fill="url(#paint22_linear_184_12264)"/>
<g style="mix-blend-mode:screen" opacity="0.5">
<path d="M26.0999 36.7162C26.9275 35.8237 28.3227 35.7707 29.2152 36.5948C29.2152 36.5948 29.2117 36.5914 29.21 36.5897C28.3158 35.7604 26.9189 35.8117 26.0897 36.706C25.2605 37.6002 25.3117 38.9971 26.2059 39.8263L26.2111 39.8314C25.322 39.0005 25.2724 37.607 26.0999 36.7162Z" fill="#FEF0A0"/>
</g>
<path d="M28.9725 36.846C29.7248 37.5453 29.7693 38.7217 29.07 39.474C28.3707 40.2263 27.1943 40.2707 26.442 39.5714C25.6897 38.8721 25.6453 37.6958 26.3446 36.9435C27.0439 36.1912 28.2202 36.1467 28.9725 36.846Z" fill="url(#paint23_linear_184_12264)"/>
<path d="M28.3156 37.8377C28.225 37.8052 28.1429 37.7916 28.0711 37.8001C27.9976 37.8069 27.8779 37.8343 27.7086 37.8839C27.5086 37.9403 27.3838 37.9694 27.3325 37.9711C27.2795 37.9728 27.2196 37.942 27.1512 37.8788C27.1102 37.8411 27.0863 37.8052 27.0777 37.7727C27.0692 37.7403 27.0777 37.7112 27.1016 37.6838C27.1324 37.6514 27.1649 37.6394 27.1974 37.6514C27.2299 37.6633 27.2846 37.7044 27.3615 37.7762L27.3906 37.8035L27.3701 37.8258L27.4333 37.8429L27.8368 37.4086C27.8026 37.371 27.777 37.3453 27.7582 37.3282C27.63 37.2085 27.4983 37.1487 27.3632 37.1487C27.2282 37.1487 27.0897 37.2068 26.9495 37.3248L26.811 37.1966L26.7477 37.1795L26.7905 37.2188L26.6246 37.3966L26.7631 37.5248C26.6434 37.6873 26.587 37.8411 26.5921 37.9831C26.5972 38.125 26.6656 38.2566 26.7956 38.3763C26.8845 38.4601 26.9819 38.5165 27.0845 38.5473C27.1871 38.5781 27.2812 38.5883 27.3649 38.5763C27.4487 38.5644 27.5923 38.5319 27.7992 38.4755C27.9223 38.4413 28.0112 38.4379 28.0659 38.4635C28.1207 38.4891 28.1959 38.5473 28.2934 38.6379C28.3327 38.6738 28.3549 38.708 28.3618 38.7405C28.3686 38.773 28.3583 38.8037 28.331 38.8328C28.2985 38.867 28.2643 38.8756 28.2284 38.8585C28.1925 38.8414 28.1155 38.7781 27.9976 38.6704L27.9463 38.6225L27.8916 38.5712L27.8283 38.5541L27.871 38.5934L27.488 39.0055L27.5735 39.0842C27.7667 39.2637 27.9429 39.3457 28.1019 39.3321C28.2609 39.3167 28.3994 39.2568 28.519 39.1525L28.6456 39.2688L28.625 39.291L28.6883 39.3081L28.8747 39.1081L28.7105 38.9559C28.8285 38.7866 28.8781 38.6242 28.8593 38.4686C28.8405 38.313 28.7533 38.1626 28.5977 38.019C28.5002 37.9283 28.4062 37.8685 28.3173 37.836L28.3156 37.8377Z" fill="#D16A0D"/>
<path d="M27.7736 37.3916L27.3701 37.8259L27.2983 37.7592C27.2213 37.6874 27.1666 37.6464 27.1341 37.6344C27.1017 37.6224 27.0692 37.6344 27.0384 37.6669C27.0144 37.6925 27.0059 37.7233 27.0128 37.7541C27.0213 37.7866 27.0452 37.8208 27.0863 37.8601C27.1547 37.9233 27.2145 37.9541 27.2675 37.9524C27.3188 37.9524 27.4453 37.9216 27.6436 37.8652C27.8129 37.8173 27.9343 37.7883 28.0061 37.7814C28.0796 37.7746 28.16 37.7866 28.2506 37.819C28.3412 37.8515 28.4353 37.9131 28.531 38.002C28.6866 38.1456 28.7738 38.2961 28.7926 38.4517C28.8114 38.609 28.7618 38.7714 28.6439 38.939L28.808 39.0911L28.6216 39.2912L28.4524 39.1339C28.3327 39.2399 28.1942 39.2997 28.0352 39.3134C27.8762 39.3271 27.7001 39.245 27.5069 39.0655L27.4214 38.9868L27.8249 38.5525L27.9309 38.6517C28.0472 38.7594 28.1241 38.8227 28.1617 38.8398C28.1976 38.8569 28.2318 38.8483 28.2643 38.8141C28.2917 38.7851 28.3019 38.7543 28.2951 38.7218C28.2882 38.6893 28.266 38.6551 28.2267 38.6192C28.1292 38.5286 28.0523 38.4705 27.9976 38.4448C27.9429 38.4192 27.854 38.4243 27.7308 38.4568C27.524 38.5132 27.3803 38.5457 27.2966 38.5577C27.2128 38.5696 27.1204 38.5577 27.0162 38.5286C26.9136 38.4978 26.8161 38.4397 26.7272 38.3576C26.5973 38.2379 26.5289 38.1063 26.5238 37.9644C26.5186 37.8225 26.5751 37.6703 26.6947 37.5062L26.5562 37.3779L26.7426 37.1779L26.8811 37.3061C27.023 37.1881 27.1615 37.13 27.2966 37.13C27.4316 37.13 27.5633 37.1916 27.6915 37.3095C27.7086 37.3266 27.736 37.3523 27.7702 37.3899L27.7736 37.3916Z" fill="white"/>
<g style="mix-blend-mode:screen" opacity="0.7">
<path style="mix-blend-mode:screen" d="M26.8884 37.3044H26.8901C27.0132 37.2035 27.1329 37.1454 27.2509 37.1334C27.1329 37.1454 27.0115 37.2018 26.8867 37.3044H26.8884Z" fill="url(#paint24_linear_184_12264)"/>
<path style="mix-blend-mode:screen" d="M27.1021 37.6309C27.1123 37.6309 27.1226 37.6309 27.1328 37.636C27.1653 37.648 27.22 37.689 27.297 37.7609L27.3688 37.8275V37.8241L27.3021 37.7592C27.2252 37.6873 27.1705 37.6463 27.138 37.6343C27.126 37.6309 27.114 37.6292 27.1038 37.6309H27.1021Z" fill="url(#paint25_linear_184_12264)"/>
<path style="mix-blend-mode:screen" d="M28.3056 38.7236C28.2988 38.6911 28.2766 38.6569 28.2372 38.621C28.1398 38.5304 28.0628 38.4722 28.0098 38.4466C27.9774 38.4312 27.9312 38.4261 27.873 38.4329C27.9295 38.4278 27.9722 38.4329 28.0047 38.4466C28.0594 38.4722 28.1364 38.5304 28.2338 38.621C28.2732 38.6569 28.2954 38.6911 28.3022 38.7236C28.309 38.7561 28.2988 38.7868 28.2714 38.8159C28.2526 38.8347 28.2338 38.8467 28.215 38.8501C28.2372 38.8501 28.2578 38.8364 28.2766 38.8159C28.3039 38.7868 28.3142 38.7561 28.3073 38.7236H28.3056Z" fill="url(#paint26_linear_184_12264)"/>
<path style="mix-blend-mode:screen" d="M28.0081 37.7815C27.9346 37.7883 27.8149 37.8157 27.6457 37.8653C27.4696 37.9149 27.3499 37.9439 27.29 37.9508C27.3499 37.9456 27.4696 37.9166 27.6508 37.8653C27.8166 37.8174 27.9363 37.79 28.0098 37.7815H28.0081Z" fill="url(#paint27_linear_184_12264)"/>
<path style="mix-blend-mode:screen" d="M28.4595 39.1356H28.4561L28.6236 39.2929V39.2895L28.4595 39.1356Z" fill="url(#paint28_linear_184_12264)"/>
<path style="mix-blend-mode:screen" d="M28.0442 39.3169C27.8852 39.3306 27.7091 39.2485 27.5159 39.069L27.4304 38.9903L27.8305 38.5577H27.8288L27.4253 38.9903L27.5108 39.069C27.704 39.2485 27.8801 39.3306 28.0391 39.3169C28.0442 39.3169 28.0494 39.3169 28.0545 39.3169C28.0511 39.3169 28.0477 39.3169 28.0442 39.3169Z" fill="url(#paint29_linear_184_12264)"/>
<path style="mix-blend-mode:screen" d="M27.2902 38.5612C27.2116 38.5697 27.1244 38.5578 27.0286 38.5304C26.926 38.4996 26.8286 38.4415 26.7397 38.3594C26.6097 38.2397 26.5413 38.1081 26.5362 37.9662C26.5311 37.8243 26.5875 37.6721 26.7072 37.508L26.5687 37.3797L26.7517 37.1831H26.7499L26.5636 37.3814L26.7021 37.5097C26.5824 37.6721 26.526 37.826 26.5311 37.9679C26.5362 38.1098 26.6046 38.2415 26.7346 38.3611C26.8235 38.4449 26.9209 38.5013 27.0235 38.5321C27.121 38.5612 27.2099 38.5714 27.2902 38.5629V38.5612Z" fill="url(#paint30_linear_184_12264)"/>
</g>
<path d="M20.0696 27.6758C23.0487 28.3199 21.1032 25.8582 21.8771 25.3796C18.2393 23.7415 17.8147 22.4821 16.9213 20.4622L14.1394 24.3082C16.0297 26.0638 18.5706 27.3517 20.0696 27.6758Z" fill="url(#paint31_linear_184_12264)"/>
<path d="M49.5769 31.6301C50.2976 31.686 50.8619 32.2503 50.9178 32.971L50.9793 33.7979H51.0686L51.1301 32.971C51.186 32.2503 51.7502 31.686 52.471 31.6301L53.2978 31.5687V31.4793L52.471 31.4178C51.7502 31.3619 51.186 30.7976 51.1301 30.0769L51.0686 29.25H50.9793L50.9178 30.0769C50.8619 30.7976 50.2976 31.3619 49.5769 31.4178L48.75 31.4793V31.5687L49.5769 31.6301Z" fill="white"/>
<path d="M30.3911 58.8954C30.7263 58.9233 30.9889 59.1859 31.0168 59.5211L31.0448 59.9122H31.1174L31.1454 59.5211C31.1733 59.1859 31.4359 58.9233 31.7711 58.8954L32.1622 58.8674V58.7948L31.7711 58.7668C31.4359 58.7389 31.1733 58.4763 31.1454 58.1411L31.1174 57.75H31.0448L31.0168 58.1411C30.9889 58.4763 30.7263 58.7389 30.3911 58.7668L30 58.7948V58.8674L30.3911 58.8954Z" fill="white"/>
<path d="M22.4361 58.2317C23.0153 58.2774 23.4726 58.7348 23.5183 59.314L23.5641 60H23.6859L23.7317 59.314C23.7774 58.7348 24.2347 58.2774 24.8139 58.2317L25.5 58.186V58.064L24.8139 58.0183C24.2347 57.9726 23.7774 57.5152 23.7317 56.936L23.6859 56.25H23.5641L23.5183 56.936C23.4726 57.5152 23.0153 57.9726 22.4361 58.0183L21.75 58.064V58.186L22.4361 58.2317Z" fill="white"/>
<path d="M54.3326 22.8049C55.9361 22.682 57.1821 21.4305 57.305 19.8326L57.4446 18H57.6458L57.7855 19.8326C57.9084 21.4361 59.1599 22.682 60.7578 22.8049L62.5904 22.9446V23.1457L60.7578 23.2854C59.1543 23.4083 57.9084 24.6598 57.7855 26.2577L57.6458 28.0903H57.4446L57.305 26.2577C57.1821 24.6542 55.9305 23.4083 54.3326 23.2854L52.5 23.1457V22.9446L54.3326 22.8049Z" fill="white"/>
<path d="M68.4141 37.0896C67.9088 34.8157 65.8876 32.2892 66.6456 30.268C66.0392 29.8638 65.1296 32.2892 66.1402 34.8157C66.2244 35.1526 67.9088 36.5843 68.4141 37.0896Z" fill="#D9D9D9"/>
<path d="M66.1399 31.2784C65.6165 32.7179 65.8873 34.0576 66.1399 34.8156C61.1115 25.6095 68.6667 24.7095 71.6982 24.053C71.6982 24.053 71.6983 25.9728 71.951 26.7307C72.4563 27.7413 74.7301 28.4993 74.7301 28.4993C74.4778 29.2572 67.1504 28.4993 66.1399 31.2784Z" fill="url(#paint32_linear_184_12264)"/>
<g clip-path="url(#clip0_184_12264)">
<path style="mix-blend-mode:screen" opacity="0.5" d="M45.3525 54.705C52.5888 54.705 58.455 48.8388 58.455 41.6025C58.455 34.3662 52.5888 28.5 45.3525 28.5C38.1162 28.5 32.25 34.3662 32.25 41.6025C32.25 48.8388 38.1162 54.705 45.3525 54.705Z" fill="url(#paint33_radial_184_12264)"/>
<path fill-rule="evenodd" clip-rule="evenodd" d="M58.41 46.38C58.26 45.7275 57.87 44.9025 57.105 44.37L57.135 43.5525C57.87 44.0625 58.38 45.2175 58.395 45.93V46.38H58.4025H58.41Z" fill="url(#paint34_linear_184_12264)"/>
<path style="mix-blend-mode:screen" opacity="0.5" fill-rule="evenodd" clip-rule="evenodd" d="M57.5777 44.52C58.0127 45.1575 58.2077 45.5625 58.3352 46.1325C58.1552 45.525 57.7652 44.8425 57.0977 44.37L57.1277 43.5525C57.3077 43.68 57.4727 43.845 57.6227 44.025C57.5252 43.995 57.3977 44.01 57.3977 44.1375C57.3977 44.265 57.5327 44.46 57.5702 44.52H57.5777Z" fill="url(#paint35_radial_184_12264)"/>
<path fill-rule="evenodd" clip-rule="evenodd" d="M44.0548 39.6449L39.5473 46.3574C38.5348 45.6299 33.7723 40.5974 37.6198 34.8749L37.8598 34.5224L38.2498 34.3049C38.8723 33.9599 40.1248 33.8324 40.9348 34.2074C39.7498 36.1274 40.2448 36.9749 41.5423 37.7249L44.2798 39.3074L44.0548 39.6449ZM38.5948 36.8099C38.8123 37.6874 39.4198 38.4599 40.3948 39.0224L42.2173 40.0724L39.6823 43.8449C37.8898 41.4974 37.5223 39.2624 38.5948 36.8099Z" fill="#BC7800"/>
<path fill-rule="evenodd" clip-rule="evenodd" d="M50.8651 43.575L47.3101 50.835C48.4501 51.3525 55.1851 52.9575 58.2226 46.7625L58.4101 46.38V45.93C58.3876 45.2175 57.8776 44.0625 57.1426 43.5525C56.0701 45.5325 55.0876 45.5325 53.7901 44.7825L51.0526 43.2L50.8726 43.5675L50.8651 43.575ZM56.0476 46.8825C55.1776 47.13 54.2101 46.995 53.2351 46.4325L51.4126 45.3825L49.4101 49.4625C52.3426 49.8375 54.4576 49.0425 56.0476 46.8825Z" fill="#BC7800"/>
<path fill-rule="evenodd" clip-rule="evenodd" d="M44.0548 39.645L39.5473 46.3575C38.5348 45.63 33.7723 40.5975 37.6198 34.875L37.8598 34.5225C38.4973 34.32 39.4048 34.2525 40.2523 34.65C39.5023 35.9625 39.7723 37.1775 41.1223 37.9575L44.0623 39.6525L44.0548 39.645ZM42.2173 40.0725L40.3948 39.0225C39.0823 38.265 38.4373 37.125 38.5123 35.865C37.3198 37.8375 37.1548 39.9075 38.0023 42.0075C38.3323 42.8175 38.7973 43.5975 39.3448 44.2875L39.3673 44.31L42.2173 40.0725Z" fill="url(#paint36_linear_184_12264)"/>
<path fill-rule="evenodd" clip-rule="evenodd" d="M44.0551 39.645L44.2801 39.3075L41.5426 37.725C40.2451 36.975 39.7501 36.1275 40.9351 34.2075L40.2451 34.6425C39.4951 35.955 39.7651 37.17 41.1151 37.95L44.0551 39.645Z" fill="url(#paint37_linear_184_12264)"/>
<path fill-rule="evenodd" clip-rule="evenodd" d="M38.5951 36.81C38.5201 36.5025 38.4901 36.1875 38.5126 35.865C37.3201 37.8375 37.1551 39.9075 38.0026 42.0075C38.3401 42.84 38.8051 43.6125 39.3676 44.31L39.6826 43.845C37.8901 41.4975 37.5226 39.2625 38.5951 36.81Z" fill="url(#paint38_linear_184_12264)"/>
<path fill-rule="evenodd" clip-rule="evenodd" d="M37.8525 34.5149C38.49 34.3124 39.3975 34.2449 40.245 34.6424L40.935 34.2074C40.125 33.8249 38.8725 33.9599 38.25 34.3049L37.86 34.5224L37.8525 34.5149Z" fill="url(#paint39_linear_184_12264)"/>
<path fill-rule="evenodd" clip-rule="evenodd" d="M50.8651 43.575L47.3101 50.835C48.4501 51.3525 55.1851 52.9575 58.2226 46.7625L58.4101 46.38C58.2601 45.7275 57.8701 44.9025 57.1051 44.37C56.3476 45.675 55.1551 46.05 53.8051 45.27L50.8651 43.575ZM51.4126 45.3825L53.2351 46.4325C54.5476 47.19 55.8601 47.1825 56.9101 46.485C55.8001 48.51 54.0901 49.68 51.8401 49.995C50.9701 50.115 50.0701 50.1 49.1926 49.9725H49.1626L51.4126 45.3825Z" fill="url(#paint40_linear_184_12264)"/>
<path fill-rule="evenodd" clip-rule="evenodd" d="M50.8652 43.575L51.0452 43.2075L53.7827 44.79C55.0802 45.54 56.0627 45.54 57.1352 43.56L57.1052 44.3775C56.3477 45.6825 55.1552 46.0575 53.8052 45.2775L50.8652 43.5825V43.575Z" fill="url(#paint41_linear_184_12264)"/>
<path fill-rule="evenodd" clip-rule="evenodd" d="M56.0476 46.8899C56.3476 46.7999 56.6401 46.6724 56.9101 46.4924C55.8001 48.5174 54.0901 49.6874 51.8401 50.0024C50.9551 50.1299 50.0476 50.1074 49.1626 49.9724L49.4101 49.4699C52.3426 49.8449 54.4576 49.0499 56.0476 46.8899Z" fill="url(#paint42_linear_184_12264)"/>
<path fill-rule="evenodd" clip-rule="evenodd" d="M44.1675 57.6375L43.32 59.1C42.9 59.8275 40.5525 59.265 38.085 57.84C35.6175 56.415 33.96 54.6675 34.38 53.94L35.2275 52.4775L44.16 57.6375H44.1675Z" fill="url(#paint43_linear_184_12264)"/>
<path fill-rule="evenodd" clip-rule="evenodd" d="M44.1677 57.6374C43.7477 58.3649 41.4002 57.8024 38.9327 56.3774C36.4652 54.9524 34.8077 53.2049 35.2277 52.4774C36.0077 51.1274 37.3127 51.5249 38.9027 51.6224C39.6227 51.6674 40.3202 51.5174 40.7177 50.8274L41.1977 50.0024L42.2627 50.6174L43.3277 51.2324L42.8477 52.0574C42.4502 52.7474 42.6677 53.4299 43.0652 54.0299C43.9427 55.3574 44.9402 56.2949 44.1602 57.6374H44.1677Z" fill="url(#paint44_linear_184_12264)"/>
<path style="mix-blend-mode:multiply" fill-rule="evenodd" clip-rule="evenodd" d="M35.7 52.7474C36.48 51.3974 37.665 51.7274 39.12 51.7499C39.78 51.7574 40.4325 51.5774 40.83 50.8949C40.9875 50.6174 41.145 50.3474 41.31 50.0699L41.1975 50.0024L40.7175 50.8274C40.32 51.5174 39.6225 51.6674 38.9025 51.6224C37.3125 51.5249 36.0075 51.1274 35.2275 52.4774C35.1075 52.6874 35.16 52.9874 35.355 53.3399C35.4675 53.1449 35.58 52.9424 35.7 52.7474Z" fill="url(#paint45_radial_184_12264)"/>
<path style="mix-blend-mode:multiply" fill-rule="evenodd" clip-rule="evenodd" d="M42.7498 53.8425C43.4398 55.065 44.2573 55.89 43.4773 57.24C43.3423 57.4725 43.2073 57.7125 43.0723 57.945C43.6273 57.99 44.0173 57.8925 44.1673 57.6375C44.9473 56.2875 43.9498 55.3575 43.0723 54.03C42.6748 53.43 42.4573 52.7475 42.8548 52.0575L43.3348 51.2325L43.1698 51.135C43.0123 51.4125 42.8548 51.6825 42.6898 51.96C42.2923 52.65 42.4423 53.2875 42.7498 53.8425Z" fill="url(#paint46_radial_184_12264)"/>
<path style="mix-blend-mode:screen" opacity="0.5" fill-rule="evenodd" clip-rule="evenodd" d="M42.8849 56.9025C43.6649 55.5525 42.9974 54.81 42.4724 53.685C42.2324 53.175 42.1499 52.575 42.5474 51.885C42.7049 51.6075 42.8624 51.3375 43.0274 51.06L42.7199 50.8875C42.5624 51.165 42.4049 51.435 42.2399 51.7125C41.8424 52.4025 41.7974 52.935 41.8799 53.3475C42.0524 54.27 42.3899 54.825 41.6099 56.1675C41.3774 56.565 41.1524 56.9625 40.9199 57.36C41.4374 57.57 41.9249 57.7274 42.3524 57.8249C42.5324 57.5174 42.7049 57.2099 42.8849 56.9025Z" fill="url(#paint47_radial_184_12264)"/>
<path style="mix-blend-mode:screen" fill-rule="evenodd" clip-rule="evenodd" d="M38.8048 54.5399C39.5848 53.1899 39.9673 53.0549 40.5673 52.5824C40.8373 52.3724 41.1673 52.0049 41.5723 51.3149C41.7298 51.0374 41.8873 50.7674 42.0523 50.4899L41.6248 50.2424C41.4673 50.5199 41.3098 50.7899 41.1448 51.0674C40.7473 51.7574 40.2298 52.0124 39.7348 52.1024C38.6398 52.2899 37.7923 52.1624 37.0123 53.5049C36.8098 53.8574 36.6073 54.2099 36.4048 54.5624C36.8548 54.9749 37.4173 55.4099 38.0548 55.8299C38.3023 55.3949 38.5498 54.9674 38.8048 54.5324V54.5399Z" fill="url(#paint48_radial_184_12264)"/>
<path style="mix-blend-mode:multiply" opacity="0.5" fill-rule="evenodd" clip-rule="evenodd" d="M35.2274 52.4775L34.3799 53.94C34.2599 54.15 34.3124 54.45 34.5074 54.8025L35.3549 53.34C35.1599 52.9875 35.0999 52.6875 35.2274 52.4775Z" fill="url(#paint49_linear_184_12264)"/>
<path style="mix-blend-mode:multiply" opacity="0.5" fill-rule="evenodd" clip-rule="evenodd" d="M43.0726 57.945L42.2251 59.4075C42.7801 59.4525 43.1701 59.355 43.3201 59.1L44.1676 57.6375C44.0176 57.9 43.6276 57.99 43.0726 57.945Z" fill="url(#paint50_linear_184_12264)"/>
<path style="mix-blend-mode:screen" opacity="0.75" fill-rule="evenodd" clip-rule="evenodd" d="M37.2076 57.2999L38.0551 55.8374C37.4176 55.4174 36.8551 54.9824 36.4051 54.5699L35.5576 56.0324C36.0076 56.4449 36.5701 56.8799 37.2076 57.2999Z" fill="url(#paint51_linear_184_12264)"/>
<path style="mix-blend-mode:multiply" fill-rule="evenodd" clip-rule="evenodd" d="M50.8651 43.575L47.3101 50.835C47.6026 50.97 48.2551 51.1725 49.1251 51.2925C49.8901 50.955 50.6326 50.5275 51.3226 50.0475C50.6176 50.1 49.8976 50.07 49.2001 49.965H49.1701L51.4201 45.375L53.2426 46.425C53.7301 46.71 54.2176 46.8825 54.6901 46.9575C54.7651 46.8675 54.8326 46.7775 54.9076 46.695L55.8076 45.5625C55.2151 45.7725 54.5401 45.69 53.8126 45.27L50.8726 43.575H50.8651Z" fill="url(#paint52_radial_184_12264)"/>
<path style="mix-blend-mode:screen" opacity="0.35" fill-rule="evenodd" clip-rule="evenodd" d="M40.9198 57.36L40.0723 58.8225C40.5898 59.0325 41.0773 59.19 41.5048 59.2875L42.3523 57.825C41.9248 57.7275 41.4373 57.57 40.9198 57.36Z" fill="url(#paint53_linear_184_12264)"/>
<path style="mix-blend-mode:multiply" fill-rule="evenodd" clip-rule="evenodd" d="M42.9827 51.8325C42.8852 52.005 42.3527 51.825 41.7977 51.4275C41.2427 51.03 40.8752 50.565 40.9727 50.385L41.2802 49.8525L43.2902 51.3L42.9827 51.8325Z" fill="url(#paint54_radial_184_12264)"/>
<path fill-rule="evenodd" clip-rule="evenodd" d="M41.4977 36.45L48.2102 40.32L54.9227 44.1975L53.6027 45.9525C50.9777 49.425 46.0202 53.475 41.9702 51.1425C37.9277 48.81 38.9552 42.4875 40.6502 38.475L41.5052 36.45H41.4977Z" fill="url(#paint55_linear_184_12264)"/>
<path style="mix-blend-mode:screen" opacity="0.75" fill-rule="evenodd" clip-rule="evenodd" d="M41.7523 36.5925L47.1748 39.72L52.5973 42.8475L51.4873 44.4C49.2898 47.475 45.1648 51.12 41.9023 49.23C38.6398 47.3475 39.5773 41.865 41.0248 38.3625L41.7598 36.5925H41.7523Z" fill="url(#paint56_radial_184_12264)"/>
<path style="mix-blend-mode:screen" opacity="0.75" fill-rule="evenodd" clip-rule="evenodd" d="M42.165 36.8325L46.305 39.225L50.445 41.6175L49.5225 42.9375C47.685 45.555 44.325 48.705 41.835 47.265C39.345 45.825 40.275 41.2725 41.535 38.325L42.1725 36.84L42.165 36.8325Z" fill="url(#paint57_radial_184_12264)"/>
<path style="mix-blend-mode:multiply" fill-rule="evenodd" clip-rule="evenodd" d="M41.9624 51.135C38.3474 49.05 39.5774 42.8475 41.3249 38.865C41.6174 38.1975 41.9099 37.53 42.2024 36.855L41.4974 36.45L40.6424 38.475C38.9474 42.4875 37.9199 48.8025 41.9624 51.1425V51.135Z" fill="url(#paint58_radial_184_12264)"/>
<path style="mix-blend-mode:multiply" opacity="0.75" fill-rule="evenodd" clip-rule="evenodd" d="M52.7249 45.45C50.1599 48.96 45.4649 53.16 41.9624 51.135C46.0049 53.4675 50.9699 49.425 53.5949 45.945L54.9149 44.19L54.0224 43.6725C53.5949 44.265 53.1599 44.85 52.7324 45.4425L52.7249 45.45Z" fill="url(#paint59_radial_184_12264)"/>
<path style="mix-blend-mode:screen" opacity="0.6" fill-rule="evenodd" clip-rule="evenodd" d="M41.9624 51.135C44.8499 52.8 49.2524 48.4275 51.7424 44.88C52.1624 44.28 52.5824 43.6875 53.0024 43.0875L51.0824 41.9775C50.6849 42.585 50.2874 43.2 49.8899 43.8075C47.5274 47.4375 43.6949 52.1325 41.9624 51.135Z" fill="url(#paint60_radial_184_12264)"/>
<path style="mix-blend-mode:screen" fill-rule="evenodd" clip-rule="evenodd" d="M41.9625 51.135C41.1525 50.67 43.755 45.255 45.8175 41.46C46.1625 40.8225 46.515 40.185 46.86 39.5475L44.175 37.995C43.86 38.6475 43.545 39.3075 43.2225 39.96C41.34 43.86 39.525 49.7325 41.955 51.1275L41.9625 51.135Z" fill="url(#paint61_radial_184_12264)"/>
<path fill-rule="evenodd" clip-rule="evenodd" d="M46.9798 42.4424C43.7998 40.6049 41.5123 38.3924 41.2573 37.0349C41.1223 36.3224 42.0223 34.9349 42.4123 34.2524L49.3873 38.2799L56.3623 42.3074C55.9573 43.0124 55.2148 44.4599 54.5323 44.6999C53.2273 45.1574 50.1673 44.2799 46.9873 42.4424H46.9798Z" fill="url(#paint62_radial_184_12264)"/>
<path style="mix-blend-mode:screen" fill-rule="evenodd" clip-rule="evenodd" d="M46.3052 41.7974C43.6952 40.1549 41.8202 38.2049 41.6252 37.0424C41.5202 36.4274 42.2702 35.2724 42.6002 34.6949L48.3227 38.3024L54.0452 41.9099C53.7077 42.5024 53.0852 43.7174 52.5152 43.9049C51.4352 44.2649 48.9152 43.4399 46.3052 41.7974Z" fill="url(#paint63_radial_184_12264)"/>
<path style="mix-blend-mode:screen" fill-rule="evenodd" clip-rule="evenodd" d="M45.5927 40.9875C43.5527 39.5775 42.0977 37.9425 41.9552 36.9825C41.8802 36.48 42.4802 35.55 42.7427 35.0925L47.2052 38.1825L51.6677 41.2725C51.3977 41.745 50.8952 42.72 50.4452 42.8625C49.5977 43.125 47.6252 42.39 45.5852 40.98L45.5927 40.9875Z" fill="url(#paint64_radial_184_12264)"/>
<path style="mix-blend-mode:multiply" opacity="0.75" fill-rule="evenodd" clip-rule="evenodd" d="M56.3551 42.3C56.0926 42.75 55.4101 42.9075 54.4426 42.8175L53.9326 43.6275L53.2051 44.79C53.7451 44.8425 54.1876 44.8125 54.5251 44.6925H54.5401C55.2226 44.43 55.9501 42.9975 56.3551 42.3Z" fill="url(#paint65_radial_184_12264)"/>
<path style="mix-blend-mode:multiply" opacity="0.75" fill-rule="evenodd" clip-rule="evenodd" d="M42.2852 36.8999L42.7802 35.9549C42.3452 35.2874 42.1877 34.7099 42.3827 34.3049C41.9777 34.9949 41.1377 36.3149 41.2577 37.0124V37.0274C41.2877 37.1624 41.3327 37.3049 41.4002 37.4624C41.4677 37.6274 41.5652 37.7999 41.6777 37.9799L41.7002 38.0099L42.2927 36.8924L42.2852 36.8999Z" fill="url(#paint66_radial_184_12264)"/>
<path style="mix-blend-mode:screen" opacity="0.65" fill-rule="evenodd" clip-rule="evenodd" d="M50.9774 41.9175L49.8599 43.86C50.4224 44.0925 50.9624 44.28 51.4649 44.43C51.6374 44.4825 51.8024 44.5275 51.9599 44.565L52.8599 43.005L53.1149 42.5625C52.4699 42.3975 51.7649 42.1575 51.0149 41.85L50.9774 41.9175Z" fill="url(#paint67_radial_184_12264)"/>
<path style="mix-blend-mode:screen" fill-rule="evenodd" clip-rule="evenodd" d="M46.8752 39.6524C45.9527 39.0449 45.1427 38.4224 44.4602 37.8149L43.3052 39.8174C43.9802 40.4249 44.7977 41.0549 45.7202 41.6624L46.8827 39.6524H46.8752Z" fill="url(#paint68_radial_184_12264)"/>
<g style="mix-blend-mode:screen" opacity="0.75">
<path fill-rule="evenodd" clip-rule="evenodd" d="M50.5802 36.1575C54.3902 38.355 56.9102 41.13 56.2052 42.345C55.5002 43.56 51.8477 42.765 48.0377 40.5675C44.2277 38.37 41.7077 35.595 42.4127 34.38C43.1177 33.165 46.7702 33.96 50.5802 36.165V36.1575Z" fill="#FFFCE4"/>
</g>
<path fill-rule="evenodd" clip-rule="evenodd" d="M50.6252 36.1275C54.4727 38.3475 57.0377 41.115 56.3552 42.3075C55.6652 43.5 51.9902 42.66 48.1427 40.4325C44.2952 38.2125 41.7302 35.445 42.4127 34.2525C43.1027 33.06 46.7777 33.9 50.6252 36.1275Z" fill="url(#paint69_radial_184_12264)"/>
<path fill-rule="evenodd" clip-rule="evenodd" d="M50.5351 36.285C54.1501 38.37 56.5801 40.9275 55.9576 42C55.3426 43.0725 51.9076 42.2475 48.3001 40.1625C44.6851 38.0775 42.2551 35.52 42.8776 34.4475C43.4926 33.375 46.9276 34.2 50.5351 36.285Z" fill="url(#paint70_radial_184_12264)"/>
<path style="mix-blend-mode:screen" fill-rule="evenodd" clip-rule="evenodd" d="M49.3198 35.8275C51.9898 37.3725 53.8348 39.435 54.1423 41.025C54.2323 41.505 54.1873 41.94 53.9773 42.3075C53.9623 42.3375 53.9398 42.3675 53.9248 42.39C54.9223 42.5475 55.6423 42.45 55.9273 42.0525C55.9423 42.03 55.9573 42.015 55.9648 41.9925C56.5798 40.92 54.1573 38.3625 50.5423 36.2775C47.5198 34.5375 44.6323 33.675 43.4023 34.0575C44.9698 33.96 47.1598 34.5675 49.3273 35.82L49.3198 35.8275Z" fill="url(#paint71_radial_184_12264)"/>
<path style="mix-blend-mode:multiply" fill-rule="evenodd" clip-rule="evenodd" d="M51.2473 41.6024C51.4123 40.7549 50.8048 39.5924 49.6648 38.4449C48.9223 37.6949 47.9548 36.9449 46.8223 36.2999C45.6973 35.6474 44.5648 35.1824 43.5448 34.9124C43.2823 34.8449 43.0273 34.7849 42.7798 34.7474C42.6748 35.9399 44.9848 38.2499 48.2998 40.1624C49.3198 40.7474 50.3173 41.2349 51.2473 41.6099V41.6024Z" fill="url(#paint72_radial_184_12264)"/>
<path style="mix-blend-mode:screen" fill-rule="evenodd" clip-rule="evenodd" d="M38.1225 52.9425C38.805 53.4375 39.225 54.0675 39.0675 54.345C38.91 54.6225 38.2275 54.4425 37.545 53.9475C36.8625 53.4525 36.4425 52.8225 36.6 52.545C36.7575 52.2675 37.44 52.4475 38.1225 52.9425Z" fill="url(#paint73_radial_184_12264)"/>
<path style="mix-blend-mode:screen" opacity="0.5" fill-rule="evenodd" clip-rule="evenodd" d="M38.0027 35.055C38.4077 34.695 39.6152 34.89 39.7202 35.31C39.7877 35.565 39.6752 36.0375 39.9227 36.6075C39.7277 36.015 39.8402 35.34 40.2377 34.635C39.3977 34.2375 38.4902 34.3125 37.8452 34.5075L37.6052 34.86C36.4352 36.6075 36.0602 38.2875 36.1352 39.8025C36.1727 37.92 37.2902 35.655 37.9877 35.0475L38.0027 35.055Z" fill="url(#paint74_radial_184_12264)"/>
<path style="mix-blend-mode:screen" opacity="0.5" fill-rule="evenodd" clip-rule="evenodd" d="M39.8776 34.305C39.1051 34.245 38.6626 34.2825 38.1001 34.455C38.7151 34.3125 39.5026 34.2975 40.2451 34.6425L40.9351 34.2075C40.7401 34.1175 40.5151 34.05 40.2751 34.02C40.3501 34.0875 40.4026 34.2075 40.2901 34.2675C40.1776 34.3275 39.9451 34.3125 39.8776 34.305Z" fill="url(#paint75_radial_184_12264)"/>
<path style="mix-blend-mode:multiply" opacity="0.5" fill-rule="evenodd" clip-rule="evenodd" d="M39.1351 43.065C39.1426 43.2375 39.0976 43.425 38.8576 43.23C37.5751 42.165 37.2451 39.375 37.7326 37.9425C37.7701 37.8225 37.9576 37.2975 38.1301 37.365C38.2351 37.41 38.2576 37.575 38.2651 37.7175C38.3551 37.425 38.4676 37.125 38.5951 36.825C38.5201 36.5175 38.4901 36.2025 38.5126 35.88C37.3201 37.8525 37.1551 39.9225 38.0026 42.0225C38.2351 42.6 38.5351 43.155 38.8951 43.68C38.9926 43.8225 39.0976 43.9725 39.2026 44.1075C39.2251 43.845 39.2551 43.575 39.2926 43.305C39.2401 43.2225 39.1876 43.1475 39.1351 43.065Z" fill="url(#paint76_radial_184_12264)"/>
<path style="mix-blend-mode:multiply" opacity="0.5" fill-rule="evenodd" clip-rule="evenodd" d="M50.3624 49.5449C50.2049 49.6199 50.0699 49.7624 50.3624 49.8674C51.9224 50.4449 54.5099 49.3349 55.5074 48.1949C55.5899 48.0974 55.9574 47.6699 55.8149 47.5649C55.7249 47.4899 55.5674 47.5574 55.4474 47.6249C55.6574 47.3999 55.8599 47.1524 56.0549 46.8899C56.3549 46.7999 56.6474 46.6724 56.9174 46.4924C55.8074 48.5174 54.0974 49.6874 51.8474 50.0024C51.2324 50.0924 50.5949 50.1074 49.9649 50.0624C49.7924 50.0474 49.6124 50.0324 49.4399 50.0099C49.6574 49.8599 49.8749 49.6949 50.0849 49.5299C50.1824 49.5299 50.2724 49.5449 50.3699 49.5449H50.3624Z" fill="url(#paint77_radial_184_12264)"/>
<path style="mix-blend-mode:multiply" fill-rule="evenodd" clip-rule="evenodd" d="M54.7273 45.2025C54.5773 45.165 54.4273 45.1125 54.2698 45.045L54.0073 45.39C54.6523 45.7125 55.2598 45.765 55.7923 45.57C55.6573 45.615 54.6898 45.63 54.6148 45.3525C54.5998 45.285 54.6523 45.2325 54.7198 45.2025H54.7273Z" fill="url(#paint78_linear_184_12264)"/>
<path style="mix-blend-mode:multiply" opacity="0.75" fill-rule="evenodd" clip-rule="evenodd" d="M40.7176 37.1099C40.8226 37.2224 40.9426 37.3274 41.0851 37.4249L40.9201 37.8224C40.3201 37.4249 39.9751 36.9224 39.8701 36.3674C39.9001 36.5024 40.3651 37.3574 40.6501 37.2749C40.7176 37.2524 40.7326 37.1849 40.7251 37.1099H40.7176Z" fill="url(#paint79_linear_184_12264)"/>
<path style="mix-blend-mode:screen" fill-rule="evenodd" clip-rule="evenodd" d="M48.5173 38.28C48.5173 40.62 46.6198 42.5175 44.2798 42.5175C41.9398 42.5175 40.0498 40.62 40.0498 38.28C40.0498 35.94 41.9473 34.0425 44.2798 34.0425C46.6123 34.0425 48.5173 35.94 48.5173 38.28Z" fill="url(#paint80_radial_184_12264)"/>
<path style="mix-blend-mode:screen" d="M39.8398 36.3825C40.7469 36.3825 41.4823 35.6472 41.4823 34.74C41.4823 33.8329 40.7469 33.0975 39.8398 33.0975C38.9326 33.0975 38.1973 33.8329 38.1973 34.74C38.1973 35.6472 38.9326 36.3825 39.8398 36.3825Z" fill="url(#paint81_radial_184_12264)"/>
</g>
<defs>
<filter id="filter0_d_184_12264" x="16.25" y="63.75" width="18.0322" height="15.4043" filterUnits="userSpaceOnUse" color-interpolation-filters="sRGB">
<feFlood flood-opacity="0" result="BackgroundImageFix"/>
<feColorMatrix in="SourceAlpha" type="matrix" values="0 0 0 0 0 0 0 0 0 0 0 0 0 0 0 0 0 0 127 0" result="hardAlpha"/>
<feOffset dy="4"/>
<feGaussianBlur stdDeviation="2"/>
<feComposite in2="hardAlpha" operator="out"/>
<feColorMatrix type="matrix" values="0 0 0 0 0 0 0 0 0 0 0 0 0 0 0 0 0 0 0.25 0"/>
<feBlend mode="normal" in2="BackgroundImageFix" result="effect1_dropShadow_184_12264"/>
<feBlend mode="normal" in="SourceGraphic" in2="effect1_dropShadow_184_12264" result="shape"/>
</filter>
<filter id="filter1_d_184_12264" x="72.2451" y="45.1572" width="13.0098" height="13.614" filterUnits="userSpaceOnUse" color-interpolation-filters="sRGB">
<feFlood flood-opacity="0" result="BackgroundImageFix"/>
<feColorMatrix in="SourceAlpha" type="matrix" values="0 0 0 0 0 0 0 0 0 0 0 0 0 0 0 0 0 0 127 0" result="hardAlpha"/>
<feOffset dy="4"/>
<feGaussianBlur stdDeviation="2"/>
<feComposite in2="hardAlpha" operator="out"/>
<feColorMatrix type="matrix" values="0 0 0 0 0 0 0 0 0 0 0 0 0 0 0 0 0 0 0.25 0"/>
<feBlend mode="normal" in2="BackgroundImageFix" result="effect1_dropShadow_184_12264"/>
<feBlend mode="normal" in="SourceGraphic" in2="effect1_dropShadow_184_12264" result="shape"/>
</filter>
<linearGradient id="paint0_linear_184_12264" x1="71.6169" y1="28.638" x2="19.133" y2="62.112" gradientUnits="userSpaceOnUse">
<stop stop-color="#882AFF"/>
<stop offset="1" stop-color="#6255FF"/>
</linearGradient>
<linearGradient id="paint1_linear_184_12264" x1="60.9375" y1="18.4199" x2="29.8125" y2="72.33" gradientUnits="userSpaceOnUse">
<stop stop-color="#882AFF"/>
<stop offset="1" stop-color="#6255FF"/>
</linearGradient>
<linearGradient id="paint2_linear_184_12264" x1="22.1799" y1="65.6172" x2="26.8786" y2="70.3976" gradientUnits="userSpaceOnUse">
<stop stop-color="#FFD08D"/>
<stop offset="0.58" stop-color="#FFDC2A"/>
<stop offset="0.81" stop-color="#F3C237"/>
<stop offset="1" stop-color="#EBB140"/>
</linearGradient>
<linearGradient id="paint3_linear_184_12264" x1="26.1472" y1="69.6278" x2="24.2951" y2="65.0276" gradientUnits="userSpaceOnUse">
<stop stop-color="#F0C827"/>
<stop offset="0.08" stop-color="#E9BE25"/>
<stop offset="0.22" stop-color="#E2B424"/>
<stop offset="0.38" stop-color="#EECA46"/>
<stop offset="0.57" stop-color="#FAE168"/>
<stop offset="0.68" stop-color="#FFEA76"/>
<stop offset="0.74" stop-color="#FDE770"/>
<stop offset="0.82" stop-color="#FBE161"/>
<stop offset="0.91" stop-color="#F6D647"/>
<stop offset="1" stop-color="#F0C827"/>
</linearGradient>
<linearGradient id="paint4_linear_184_12264" x1="26.1472" y1="69.6278" x2="24.2951" y2="65.0276" gradientUnits="userSpaceOnUse">
<stop stop-color="#FFD08D"/>
<stop offset="0.58" stop-color="#FFAF2A"/>
<stop offset="0.71" stop-color="#F8A631"/>
<stop offset="1" stop-color="#EC9540"/>
</linearGradient>
<linearGradient id="paint5_linear_184_12264" x1="25.3111" y1="65.7436" x2="25.2388" y2="65.5642" gradientUnits="userSpaceOnUse">
<stop offset="0.04" stop-color="#F8DA36"/>
<stop offset="0.11" stop-color="#F1CD21"/>
<stop offset="0.19" stop-color="#EBC412"/>
<stop offset="0.28" stop-color="#E8BE09"/>
<stop offset="0.42" stop-color="#E8BD07"/>
<stop offset="0.51" stop-color="#EFCB1B"/>
<stop offset="0.64" stop-color="#F8DB33"/>
<stop offset="0.77" stop-color="#FDE542"/>
<stop offset="0.87" stop-color="#FFE947"/>
<stop offset="1" stop-color="#FFEC63"/>
</linearGradient>
<linearGradient id="paint6_linear_184_12264" x1="25.0266" y1="66.6343" x2="24.8678" y2="66.2399" gradientUnits="userSpaceOnUse">
<stop offset="0.04" stop-color="#F8DA36"/>
<stop offset="0.11" stop-color="#F1CD21"/>
<stop offset="0.19" stop-color="#EBC412"/>
<stop offset="0.28" stop-color="#E8BE09"/>
<stop offset="0.42" stop-color="#E8BD07"/>
<stop offset="0.51" stop-color="#EFCB1B"/>
<stop offset="0.64" stop-color="#F8DB33"/>
<stop offset="0.77" stop-color="#FDE542"/>
<stop offset="0.87" stop-color="#FFE947"/>
<stop offset="1" stop-color="#FFEC63"/>
</linearGradient>
<linearGradient id="paint7_linear_184_12264" x1="25.5244" y1="68.2937" x2="25.2564" y2="67.6281" gradientUnits="userSpaceOnUse">
<stop offset="0.04" stop-color="#F8DA36"/>
<stop offset="0.11" stop-color="#F1CD21"/>
<stop offset="0.19" stop-color="#EBC412"/>
<stop offset="0.28" stop-color="#E8BE09"/>
<stop offset="0.42" stop-color="#E8BD07"/>
<stop offset="0.51" stop-color="#EFCB1B"/>
<stop offset="0.64" stop-color="#F8DB33"/>
<stop offset="0.77" stop-color="#FDE542"/>
<stop offset="0.87" stop-color="#FFE947"/>
<stop offset="1" stop-color="#FFEC63"/>
</linearGradient>
<linearGradient id="paint8_linear_184_12264" x1="25.6166" y1="67.0052" x2="25.4175" y2="66.5106" gradientUnits="userSpaceOnUse">
<stop offset="0.04" stop-color="#F8DA36"/>
<stop offset="0.11" stop-color="#F1CD21"/>
<stop offset="0.19" stop-color="#EBC412"/>
<stop offset="0.28" stop-color="#E8BE09"/>
<stop offset="0.42" stop-color="#E8BD07"/>
<stop offset="0.51" stop-color="#EFCB1B"/>
<stop offset="0.64" stop-color="#F8DB33"/>
<stop offset="0.77" stop-color="#FDE542"/>
<stop offset="0.87" stop-color="#FFE947"/>
<stop offset="1" stop-color="#FFEC63"/>
</linearGradient>
<linearGradient id="paint9_linear_184_12264" x1="25.5161" y1="69.1058" x2="25.4061" y2="68.8324" gradientUnits="userSpaceOnUse">
<stop offset="0.04" stop-color="#F8DA36"/>
<stop offset="0.11" stop-color="#F1CD21"/>
<stop offset="0.19" stop-color="#EBC412"/>
<stop offset="0.28" stop-color="#E8BE09"/>
<stop offset="0.42" stop-color="#E8BD07"/>
<stop offset="0.51" stop-color="#EFCB1B"/>
<stop offset="0.64" stop-color="#F8DB33"/>
<stop offset="0.77" stop-color="#FDE542"/>
<stop offset="0.87" stop-color="#FFE947"/>
<stop offset="1" stop-color="#FFEC63"/>
</linearGradient>
<linearGradient id="paint10_linear_184_12264" x1="24.6811" y1="68.8804" x2="24.3521" y2="68.0635" gradientUnits="userSpaceOnUse">
<stop offset="0.04" stop-color="#F8DA36"/>
<stop offset="0.11" stop-color="#F1CD21"/>
<stop offset="0.19" stop-color="#EBC412"/>
<stop offset="0.28" stop-color="#E8BE09"/>
<stop offset="0.42" stop-color="#E8BD07"/>
<stop offset="0.51" stop-color="#EFCB1B"/>
<stop offset="0.64" stop-color="#F8DB33"/>
<stop offset="0.77" stop-color="#FDE542"/>
<stop offset="0.87" stop-color="#FFE947"/>
<stop offset="1" stop-color="#FFEC63"/>
</linearGradient>
<linearGradient id="paint11_linear_184_12264" x1="24.4466" y1="67.4824" x2="23.801" y2="65.8788" gradientUnits="userSpaceOnUse">
<stop offset="0.04" stop-color="#F8DA36"/>
<stop offset="0.11" stop-color="#F1CD21"/>
<stop offset="0.19" stop-color="#EBC412"/>
<stop offset="0.28" stop-color="#E8BE09"/>
<stop offset="0.42" stop-color="#E8BD07"/>
<stop offset="0.51" stop-color="#EFCB1B"/>
<stop offset="0.64" stop-color="#F8DB33"/>
<stop offset="0.77" stop-color="#FDE542"/>
<stop offset="0.87" stop-color="#FFE947"/>
<stop offset="1" stop-color="#FFEC63"/>
</linearGradient>
<linearGradient id="paint12_linear_184_12264" x1="79.332" y1="45.8974" x2="77.2977" y2="49.3518" gradientUnits="userSpaceOnUse">
<stop stop-color="#FFD08D"/>
<stop offset="0.58" stop-color="#FFDC2A"/>
<stop offset="0.81" stop-color="#F3C237"/>
<stop offset="1" stop-color="#EBB140"/>
</linearGradient>
<linearGradient id="paint13_linear_184_12264" x1="77.6296" y1="48.8101" x2="80.0005" y2="47.0281" gradientUnits="userSpaceOnUse">
<stop stop-color="#F0C827"/>
<stop offset="0.08" stop-color="#E9BE25"/>
<stop offset="0.22" stop-color="#E2B424"/>
<stop offset="0.38" stop-color="#EECA46"/>
<stop offset="0.57" stop-color="#FAE168"/>
<stop offset="0.68" stop-color="#FFEA76"/>
<stop offset="0.74" stop-color="#FDE770"/>
<stop offset="0.82" stop-color="#FBE161"/>
<stop offset="0.91" stop-color="#F6D647"/>
<stop offset="1" stop-color="#F0C827"/>
</linearGradient>
<linearGradient id="paint14_linear_184_12264" x1="77.6296" y1="48.8101" x2="80.0005" y2="47.0281" gradientUnits="userSpaceOnUse">
<stop stop-color="#FFD08D"/>
<stop offset="0.58" stop-color="#FFAF2A"/>
<stop offset="0.71" stop-color="#F8A631"/>
<stop offset="1" stop-color="#EC9540"/>
</linearGradient>
<linearGradient id="paint15_linear_184_12264" x1="79.7437" y1="47.7257" x2="79.8362" y2="47.6562" gradientUnits="userSpaceOnUse">
<stop offset="0.04" stop-color="#F8DA36"/>
<stop offset="0.11" stop-color="#F1CD21"/>
<stop offset="0.19" stop-color="#EBC412"/>
<stop offset="0.28" stop-color="#E8BE09"/>
<stop offset="0.42" stop-color="#E8BD07"/>
<stop offset="0.51" stop-color="#EFCB1B"/>
<stop offset="0.64" stop-color="#F8DB33"/>
<stop offset="0.77" stop-color="#FDE542"/>
<stop offset="0.87" stop-color="#FFE947"/>
<stop offset="1" stop-color="#FFEC63"/>
</linearGradient>
<linearGradient id="paint16_linear_184_12264" x1="79.1853" y1="47.6991" x2="79.3886" y2="47.5463" gradientUnits="userSpaceOnUse">
<stop offset="0.04" stop-color="#F8DA36"/>
<stop offset="0.11" stop-color="#F1CD21"/>
<stop offset="0.19" stop-color="#EBC412"/>
<stop offset="0.28" stop-color="#E8BE09"/>
<stop offset="0.42" stop-color="#E8BD07"/>
<stop offset="0.51" stop-color="#EFCB1B"/>
<stop offset="0.64" stop-color="#F8DB33"/>
<stop offset="0.77" stop-color="#FDE542"/>
<stop offset="0.87" stop-color="#FFE947"/>
<stop offset="1" stop-color="#FFEC63"/>
</linearGradient>
<linearGradient id="paint17_linear_184_12264" x1="78.3036" y1="48.2437" x2="78.6467" y2="47.9858" gradientUnits="userSpaceOnUse">
<stop offset="0.04" stop-color="#F8DA36"/>
<stop offset="0.11" stop-color="#F1CD21"/>
<stop offset="0.19" stop-color="#EBC412"/>
<stop offset="0.28" stop-color="#E8BE09"/>
<stop offset="0.42" stop-color="#E8BD07"/>
<stop offset="0.51" stop-color="#EFCB1B"/>
<stop offset="0.64" stop-color="#F8DB33"/>
<stop offset="0.77" stop-color="#FDE542"/>
<stop offset="0.87" stop-color="#FFE947"/>
<stop offset="1" stop-color="#FFEC63"/>
</linearGradient>
<linearGradient id="paint18_linear_184_12264" x1="79.0626" y1="48.0975" x2="79.3175" y2="47.906" gradientUnits="userSpaceOnUse">
<stop offset="0.04" stop-color="#F8DA36"/>
<stop offset="0.11" stop-color="#F1CD21"/>
<stop offset="0.19" stop-color="#EBC412"/>
<stop offset="0.28" stop-color="#E8BE09"/>
<stop offset="0.42" stop-color="#E8BD07"/>
<stop offset="0.51" stop-color="#EFCB1B"/>
<stop offset="0.64" stop-color="#F8DB33"/>
<stop offset="0.77" stop-color="#FDE542"/>
<stop offset="0.87" stop-color="#FFE947"/>
<stop offset="1" stop-color="#FFEC63"/>
</linearGradient>
<linearGradient id="paint19_linear_184_12264" x1="77.8335" y1="48.3648" x2="77.9744" y2="48.2589" gradientUnits="userSpaceOnUse">
<stop offset="0.04" stop-color="#F8DA36"/>
<stop offset="0.11" stop-color="#F1CD21"/>
<stop offset="0.19" stop-color="#EBC412"/>
<stop offset="0.28" stop-color="#E8BE09"/>
<stop offset="0.42" stop-color="#E8BD07"/>
<stop offset="0.51" stop-color="#EFCB1B"/>
<stop offset="0.64" stop-color="#F8DB33"/>
<stop offset="0.77" stop-color="#FDE542"/>
<stop offset="0.87" stop-color="#FFE947"/>
<stop offset="1" stop-color="#FFEC63"/>
</linearGradient>
<linearGradient id="paint20_linear_184_12264" x1="77.8344" y1="47.8473" x2="78.2554" y2="47.5308" gradientUnits="userSpaceOnUse">
<stop offset="0.04" stop-color="#F8DA36"/>
<stop offset="0.11" stop-color="#F1CD21"/>
<stop offset="0.19" stop-color="#EBC412"/>
<stop offset="0.28" stop-color="#E8BE09"/>
<stop offset="0.42" stop-color="#E8BD07"/>
<stop offset="0.51" stop-color="#EFCB1B"/>
<stop offset="0.64" stop-color="#F8DB33"/>
<stop offset="0.77" stop-color="#FDE542"/>
<stop offset="0.87" stop-color="#FFE947"/>
<stop offset="1" stop-color="#FFEC63"/>
</linearGradient>
<linearGradient id="paint21_linear_184_12264" x1="78.6053" y1="47.4955" x2="79.4318" y2="46.8743" gradientUnits="userSpaceOnUse">
<stop offset="0.04" stop-color="#F8DA36"/>
<stop offset="0.11" stop-color="#F1CD21"/>
<stop offset="0.19" stop-color="#EBC412"/>
<stop offset="0.28" stop-color="#E8BE09"/>
<stop offset="0.42" stop-color="#E8BD07"/>
<stop offset="0.51" stop-color="#EFCB1B"/>
<stop offset="0.64" stop-color="#F8DB33"/>
<stop offset="0.77" stop-color="#FDE542"/>
<stop offset="0.87" stop-color="#FFE947"/>
<stop offset="1" stop-color="#FFEC63"/>
</linearGradient>
<linearGradient id="paint22_linear_184_12264" x1="26.3858" y1="39.978" x2="29.056" y2="36.4579" gradientUnits="userSpaceOnUse">
<stop stop-color="#FFD08D"/>
<stop offset="0.58" stop-color="#FFDC2A"/>
<stop offset="0.81" stop-color="#F3C237"/>
<stop offset="1" stop-color="#EBB140"/>
</linearGradient>
<linearGradient id="paint23_linear_184_12264" x1="29.0979" y1="39.4565" x2="26.3711" y2="36.9253" gradientUnits="userSpaceOnUse">
<stop stop-color="#FFAA3F"/>
<stop offset="0.58" stop-color="#FFAF2A"/>
<stop offset="0.71" stop-color="#F8A631"/>
<stop offset="1" stop-color="#EC9540"/>
</linearGradient>
<linearGradient id="paint24_linear_184_12264" x1="27.1529" y1="37.2521" x2="27.0426" y2="37.1497" gradientUnits="userSpaceOnUse">
<stop offset="0.04" stop-color="#F8DA36"/>
<stop offset="0.11" stop-color="#F1CD21"/>
<stop offset="0.19" stop-color="#EBC412"/>
<stop offset="0.28" stop-color="#E8BE09"/>
<stop offset="0.42" stop-color="#E8BD07"/>
<stop offset="0.51" stop-color="#EFCB1B"/>
<stop offset="0.64" stop-color="#F8DB33"/>
<stop offset="0.77" stop-color="#FDE542"/>
<stop offset="0.87" stop-color="#FFE947"/>
<stop offset="1" stop-color="#FFEC63"/>
</linearGradient>
<linearGradient id="paint25_linear_184_12264" x1="27.3857" y1="37.8204" x2="27.1438" y2="37.5959" gradientUnits="userSpaceOnUse">
<stop offset="0.04" stop-color="#F8DA36"/>
<stop offset="0.11" stop-color="#F1CD21"/>
<stop offset="0.19" stop-color="#EBC412"/>
<stop offset="0.28" stop-color="#E8BE09"/>
<stop offset="0.42" stop-color="#E8BD07"/>
<stop offset="0.51" stop-color="#EFCB1B"/>
<stop offset="0.64" stop-color="#F8DB33"/>
<stop offset="0.77" stop-color="#FDE542"/>
<stop offset="0.87" stop-color="#FFE947"/>
<stop offset="1" stop-color="#FFEC63"/>
</linearGradient>
<linearGradient id="paint26_linear_184_12264" x1="28.3177" y1="38.7791" x2="27.9104" y2="38.4011" gradientUnits="userSpaceOnUse">
<stop offset="0.04" stop-color="#F8DA36"/>
<stop offset="0.11" stop-color="#F1CD21"/>
<stop offset="0.19" stop-color="#EBC412"/>
<stop offset="0.28" stop-color="#E8BE09"/>
<stop offset="0.42" stop-color="#E8BD07"/>
<stop offset="0.51" stop-color="#EFCB1B"/>
<stop offset="0.64" stop-color="#F8DB33"/>
<stop offset="0.77" stop-color="#FDE542"/>
<stop offset="0.87" stop-color="#FFE947"/>
<stop offset="1" stop-color="#FFEC63"/>
</linearGradient>
<linearGradient id="paint27_linear_184_12264" x1="27.8261" y1="37.9869" x2="27.5241" y2="37.7065" gradientUnits="userSpaceOnUse">
<stop offset="0.04" stop-color="#F8DA36"/>
<stop offset="0.11" stop-color="#F1CD21"/>
<stop offset="0.19" stop-color="#EBC412"/>
<stop offset="0.28" stop-color="#E8BE09"/>
<stop offset="0.42" stop-color="#E8BD07"/>
<stop offset="0.51" stop-color="#EFCB1B"/>
<stop offset="0.64" stop-color="#F8DB33"/>
<stop offset="0.77" stop-color="#FDE542"/>
<stop offset="0.87" stop-color="#FFE947"/>
<stop offset="1" stop-color="#FFEC63"/>
</linearGradient>
<linearGradient id="paint28_linear_184_12264" x1="28.6518" y1="39.2736" x2="28.4851" y2="39.1189" gradientUnits="userSpaceOnUse">
<stop offset="0.04" stop-color="#F8DA36"/>
<stop offset="0.11" stop-color="#F1CD21"/>
<stop offset="0.19" stop-color="#EBC412"/>
<stop offset="0.28" stop-color="#E8BE09"/>
<stop offset="0.42" stop-color="#E8BD07"/>
<stop offset="0.51" stop-color="#EFCB1B"/>
<stop offset="0.64" stop-color="#F8DB33"/>
<stop offset="0.77" stop-color="#FDE542"/>
<stop offset="0.87" stop-color="#FFE947"/>
<stop offset="1" stop-color="#FFEC63"/>
</linearGradient>
<linearGradient id="paint29_linear_184_12264" x1="28.1539" y1="39.2172" x2="27.6539" y2="38.753" gradientUnits="userSpaceOnUse">
<stop offset="0.04" stop-color="#F8DA36"/>
<stop offset="0.11" stop-color="#F1CD21"/>
<stop offset="0.19" stop-color="#EBC412"/>
<stop offset="0.28" stop-color="#E8BE09"/>
<stop offset="0.42" stop-color="#E8BD07"/>
<stop offset="0.51" stop-color="#EFCB1B"/>
<stop offset="0.64" stop-color="#F8DB33"/>
<stop offset="0.77" stop-color="#FDE542"/>
<stop offset="0.87" stop-color="#FFE947"/>
<stop offset="1" stop-color="#FFEC63"/>
</linearGradient>
<linearGradient id="paint30_linear_184_12264" x1="27.4578" y1="38.3914" x2="26.4766" y2="37.4806" gradientUnits="userSpaceOnUse">
<stop offset="0.04" stop-color="#F8DA36"/>
<stop offset="0.11" stop-color="#F1CD21"/>
<stop offset="0.19" stop-color="#EBC412"/>
<stop offset="0.28" stop-color="#E8BE09"/>
<stop offset="0.42" stop-color="#E8BD07"/>
<stop offset="0.51" stop-color="#EFCB1B"/>
<stop offset="0.64" stop-color="#F8DB33"/>
<stop offset="0.77" stop-color="#FDE542"/>
<stop offset="0.87" stop-color="#FFE947"/>
<stop offset="1" stop-color="#FFEC63"/>
</linearGradient>
<linearGradient id="paint31_linear_184_12264" x1="14.7791" y1="24.2693" x2="21.3989" y2="26.5153" gradientUnits="userSpaceOnUse">
<stop stop-color="#FA6045"/>
<stop offset="1" stop-color="#C9290C"/>
</linearGradient>
<linearGradient id="paint32_linear_184_12264" x1="73.5063" y1="27.7951" x2="65.5923" y2="30.6749" gradientUnits="userSpaceOnUse">
<stop stop-color="#FFCA7D"/>
<stop offset="1" stop-color="#FFA422"/>
</linearGradient>
<radialGradient id="paint33_radial_184_12264" cx="0" cy="0" r="1" gradientUnits="userSpaceOnUse" gradientTransform="translate(45.3525 41.6025) scale(13.1025)">
<stop stop-color="#FCEA10"/>
<stop offset="0.12" stop-color="#CDBE0D"/>
<stop offset="0.3" stop-color="#8F8509"/>
<stop offset="0.47" stop-color="#5C5505"/>
<stop offset="0.63" stop-color="#343003"/>
<stop offset="0.78" stop-color="#171501"/>
<stop offset="0.91" stop-color="#060500"/>
<stop offset="1"/>
</radialGradient>
<linearGradient id="paint34_linear_184_12264" x1="55.5825" y1="41.7375" x2="58.65" y2="46.1025" gradientUnits="userSpaceOnUse">
<stop stop-color="#FFCC00"/>
<stop offset="1" stop-color="#9C5900"/>
</linearGradient>
<radialGradient id="paint35_radial_184_12264" cx="0" cy="0" r="1" gradientUnits="userSpaceOnUse" gradientTransform="translate(59.5127 45.3) scale(4.00499 4.005)">
<stop/>
<stop offset="1" stop-color="#FFF369"/>
</radialGradient>
<linearGradient id="paint36_linear_184_12264" x1="36.6748" y1="33.87" x2="42.4048" y2="44.985" gradientUnits="userSpaceOnUse">
<stop stop-color="#FFCC00"/>
<stop offset="1" stop-color="#B36600"/>
</linearGradient>
<linearGradient id="paint37_linear_184_12264" x1="41.5726" y1="34.1325" x2="42.0751" y2="37.8375" gradientUnits="userSpaceOnUse">
<stop stop-color="#DB7D00"/>
<stop offset="1" stop-color="#914900"/>
</linearGradient>
<linearGradient id="paint38_linear_184_12264" x1="37.6801" y1="36.015" x2="39.0001" y2="44.1075" gradientUnits="userSpaceOnUse">
<stop stop-color="#C77000"/>
<stop offset="0.4" stop-color="#CC8B00"/>
<stop offset="1" stop-color="#BA5E00"/>
</linearGradient>
<linearGradient id="paint39_linear_184_12264" x1="37.8525" y1="34.3049" x2="40.935" y2="34.3049" gradientUnits="userSpaceOnUse">
<stop stop-color="#FFCC00"/>
<stop offset="1" stop-color="#B36600"/>
</linearGradient>
<linearGradient id="paint40_linear_184_12264" x1="47.1676" y1="48.8175" x2="69.4876" y2="42" gradientUnits="userSpaceOnUse">
<stop stop-color="#B35100"/>
<stop offset="1" stop-color="#FFCC00"/>
</linearGradient>
<linearGradient id="paint41_linear_184_12264" x1="53.6702" y1="44.2875" x2="56.8127" y2="42.9825" gradientUnits="userSpaceOnUse">
<stop stop-color="#8A4500"/>
<stop offset="1" stop-color="#B86800"/>
</linearGradient>
<linearGradient id="paint42_linear_184_12264" x1="49.4251" y1="50.4374" x2="57.0526" y2="47.0174" gradientUnits="userSpaceOnUse">
<stop stop-color="#C75A00"/>
<stop offset="0.4" stop-color="#BF6D00"/>
<stop offset="1" stop-color="#914900"/>
</linearGradient>
<linearGradient id="paint43_linear_184_12264" x1="34.425" y1="53.8725" x2="43.3575" y2="59.0325" gradientUnits="userSpaceOnUse">
<stop stop-color="#781916"/>
<stop offset="0.31" stop-color="#963333"/>
<stop offset="1" stop-color="#450E0E"/>
</linearGradient>
<linearGradient id="paint44_linear_184_12264" x1="36.1277" y1="50.9174" x2="45.0677" y2="56.0774" gradientUnits="userSpaceOnUse">
<stop offset="0.05" stop-color="#ED9500"/>
<stop offset="0.4" stop-color="#FFCC00"/>
<stop offset="0.93" stop-color="#B36600"/>
</linearGradient>
<radialGradient id="paint45_radial_184_12264" cx="0" cy="0" r="1" gradientUnits="userSpaceOnUse" gradientTransform="translate(37.68 54.2474) scale(5.775 5.775)">
<stop stop-color="white"/>
<stop offset="1" stop-color="#E08F48"/>
</radialGradient>
<radialGradient id="paint46_radial_184_12264" cx="0" cy="0" r="1" gradientUnits="userSpaceOnUse" gradientTransform="translate(41.7898 57.3075) scale(6.03 6.03)">
<stop stop-color="white"/>
<stop offset="1" stop-color="#E08F48"/>
</radialGradient>
<radialGradient id="paint47_radial_184_12264" cx="0" cy="0" r="1" gradientUnits="userSpaceOnUse" gradientTransform="translate(40.0424 54.8925) scale(4.17)">
<stop stop-color="#FFF369"/>
<stop offset="0.11" stop-color="#FAEE67"/>
<stop offset="0.23" stop-color="#ECE161"/>
<stop offset="0.36" stop-color="#D6CC58"/>
<stop offset="0.5" stop-color="#B6AE4B"/>
<stop offset="0.64" stop-color="#8E873A"/>
<stop offset="0.78" stop-color="#5C5826"/>
<stop offset="0.92" stop-color="#22210E"/>
<stop offset="1"/>
</radialGradient>
<radialGradient id="paint48_radial_184_12264" cx="0" cy="0" r="1" gradientUnits="userSpaceOnUse" gradientTransform="translate(37.6423 52.3649) scale(4.17)">
<stop stop-color="#FFF369"/>
<stop offset="0.11" stop-color="#FAEE67"/>
<stop offset="0.23" stop-color="#ECE161"/>
<stop offset="0.36" stop-color="#D6CC58"/>
<stop offset="0.5" stop-color="#B6AE4B"/>
<stop offset="0.64" stop-color="#8E873A"/>
<stop offset="0.78" stop-color="#5C5826"/>
<stop offset="0.92" stop-color="#22210E"/>
<stop offset="1"/>
</radialGradient>
<linearGradient id="paint49_linear_184_12264" x1="34.6349" y1="53.505" x2="35.1074" y2="53.775" gradientUnits="userSpaceOnUse">
<stop stop-color="#616DBE"/>
<stop offset="0.6" stop-color="#C2C7E6"/>
<stop offset="1" stop-color="white"/>
</linearGradient>
<linearGradient id="paint50_linear_184_12264" x1="42.8476" y1="58.3275" x2="43.5376" y2="58.725" gradientUnits="userSpaceOnUse">
<stop stop-color="white"/>
<stop offset="0.4" stop-color="#C2C7E6"/>
<stop offset="1" stop-color="#616DBE"/>
</linearGradient>
<linearGradient id="paint51_linear_184_12264" x1="35.9176" y1="55.4174" x2="37.7026" y2="56.4524" gradientUnits="userSpaceOnUse">
<stop stop-color="#AB665D"/>
<stop offset="1" stop-color="#2B2321"/>
</linearGradient>
<radialGradient id="paint52_radial_184_12264" cx="0" cy="0" r="1" gradientUnits="userSpaceOnUse" gradientTransform="translate(49.2376 43.8825) scale(8.205)">
<stop stop-color="#E08F48"/>
<stop offset="1" stop-color="white"/>
</radialGradient>
<linearGradient id="paint53_linear_184_12264" x1="40.5748" y1="57.9525" x2="41.8498" y2="58.695" gradientUnits="userSpaceOnUse">
<stop stop-color="#AB665D"/>
<stop offset="1" stop-color="#2B2321"/>
</linearGradient>
<radialGradient id="paint54_radial_184_12264" cx="0" cy="0" r="1" gradientUnits="userSpaceOnUse" gradientTransform="translate(42.7277 50.175) scale(3.5325 3.5325)">
<stop stop-color="#FFA163"/>
<stop offset="1" stop-color="white"/>
</radialGradient>
<linearGradient id="paint55_linear_184_12264" x1="38.3777" y1="41.85" x2="51.7952" y2="49.5975" gradientUnits="userSpaceOnUse">
<stop offset="0.05" stop-color="#ED9500"/>
<stop offset="0.4" stop-color="#FFCC00"/>
<stop offset="1" stop-color="#D96D00"/>
</linearGradient>
<radialGradient id="paint56_radial_184_12264" cx="0" cy="0" r="1" gradientUnits="userSpaceOnUse" gradientTransform="translate(42.1948 38.7225) scale(12.8025 12.8025)">
<stop stop-color="#FFF369"/>
<stop offset="0.11" stop-color="#FAEE67"/>
<stop offset="0.23" stop-color="#ECE161"/>
<stop offset="0.36" stop-color="#D6CC58"/>
<stop offset="0.5" stop-color="#B6AE4B"/>
<stop offset="0.64" stop-color="#8E873A"/>
<stop offset="0.78" stop-color="#5C5826"/>
<stop offset="0.92" stop-color="#22210E"/>
<stop offset="1"/>
</radialGradient>
<radialGradient id="paint57_radial_184_12264" cx="0" cy="0" r="1" gradientUnits="userSpaceOnUse" gradientTransform="translate(43.1025 37.4925) scale(10.2075)">
<stop stop-color="#FFF369"/>
<stop offset="0.11" stop-color="#FAEE67"/>
<stop offset="0.23" stop-color="#ECE161"/>
<stop offset="0.36" stop-color="#D6CC58"/>
<stop offset="0.5" stop-color="#B6AE4B"/>
<stop offset="0.64" stop-color="#8E873A"/>
<stop offset="0.78" stop-color="#5C5826"/>
<stop offset="0.92" stop-color="#22210E"/>
<stop offset="1"/>
</radialGradient>
<radialGradient id="paint58_radial_184_12264" cx="0" cy="0" r="1" gradientUnits="userSpaceOnUse" gradientTransform="translate(45.2624 43.455) scale(10.77 10.77)">
<stop stop-color="white"/>
<stop offset="1" stop-color="#E08F48"/>
</radialGradient>
<radialGradient id="paint59_radial_184_12264" cx="0" cy="0" r="1" gradientUnits="userSpaceOnUse" gradientTransform="translate(46.3274 44.46) scale(9.315)">
<stop stop-color="white"/>
<stop offset="1" stop-color="#E08F48"/>
</radialGradient>
<radialGradient id="paint60_radial_184_12264" cx="0" cy="0" r="1" gradientUnits="userSpaceOnUse" gradientTransform="translate(44.3774 39.2325) scale(12.225 12.225)">
<stop stop-color="#FFF369"/>
<stop offset="0.11" stop-color="#FAEE67"/>
<stop offset="0.23" stop-color="#ECE161"/>
<stop offset="0.36" stop-color="#D6CC58"/>
<stop offset="0.5" stop-color="#B6AE4B"/>
<stop offset="0.64" stop-color="#8E873A"/>
<stop offset="0.78" stop-color="#5C5826"/>
<stop offset="0.92" stop-color="#22210E"/>
<stop offset="1"/>
</radialGradient>
<radialGradient id="paint61_radial_184_12264" cx="0" cy="0" r="1" gradientUnits="userSpaceOnUse" gradientTransform="translate(39.9675 38.4375) scale(12.8925)">
<stop stop-color="#FFF369"/>
<stop offset="0.11" stop-color="#FAEE67"/>
<stop offset="0.23" stop-color="#ECE161"/>
<stop offset="0.36" stop-color="#D6CC58"/>
<stop offset="0.5" stop-color="#B6AE4B"/>
<stop offset="0.64" stop-color="#8E873A"/>
<stop offset="0.78" stop-color="#5C5826"/>
<stop offset="0.92" stop-color="#22210E"/>
<stop offset="1"/>
</radialGradient>
<radialGradient id="paint62_radial_184_12264" cx="0" cy="0" r="1" gradientUnits="userSpaceOnUse" gradientTransform="translate(43.4623 39.0599) scale(12.675)">
<stop stop-color="#FFCC00"/>
<stop offset="1" stop-color="#ED9500"/>
</radialGradient>
<radialGradient id="paint63_radial_184_12264" cx="0" cy="0" r="1" gradientUnits="userSpaceOnUse" gradientTransform="translate(51.0827 32.1599) scale(12.36 12.36)">
<stop stop-color="#FFF369"/>
<stop offset="0.11" stop-color="#FAEE67"/>
<stop offset="0.23" stop-color="#ECE161"/>
<stop offset="0.36" stop-color="#D6CC58"/>
<stop offset="0.5" stop-color="#B6AE4B"/>
<stop offset="0.64" stop-color="#8E873A"/>
<stop offset="0.78" stop-color="#5C5826"/>
<stop offset="0.92" stop-color="#22210E"/>
<stop offset="1"/>
</radialGradient>
<radialGradient id="paint64_radial_184_12264" cx="0" cy="0" r="1" gradientUnits="userSpaceOnUse" gradientTransform="translate(48.4352 34.245) scale(8.7525)">
<stop stop-color="#FFF369"/>
<stop offset="0.11" stop-color="#FAEE67"/>
<stop offset="0.23" stop-color="#ECE161"/>
<stop offset="0.36" stop-color="#D6CC58"/>
<stop offset="0.5" stop-color="#B6AE4B"/>
<stop offset="0.64" stop-color="#8E873A"/>
<stop offset="0.78" stop-color="#5C5826"/>
<stop offset="0.92" stop-color="#22210E"/>
<stop offset="1"/>
</radialGradient>
<radialGradient id="paint65_radial_184_12264" cx="0" cy="0" r="1" gradientUnits="userSpaceOnUse" gradientTransform="translate(52.4701 41.94) scale(5.2725 5.2725)">
<stop stop-color="white"/>
<stop offset="1" stop-color="#FFA163"/>
</radialGradient>
<radialGradient id="paint66_radial_184_12264" cx="0" cy="0" r="1" gradientUnits="userSpaceOnUse" gradientTransform="translate(44.0552 37.7399) scale(5.385 5.385)">
<stop stop-color="white"/>
<stop offset="1" stop-color="#FFA163"/>
</radialGradient>
<radialGradient id="paint67_radial_184_12264" cx="0" cy="0" r="1" gradientUnits="userSpaceOnUse" gradientTransform="translate(49.7099 40.7025) scale(4.995 4.995)">
<stop stop-color="#FFF369"/>
<stop offset="0.11" stop-color="#FAEE67"/>
<stop offset="0.23" stop-color="#ECE161"/>
<stop offset="0.36" stop-color="#D6CC58"/>
<stop offset="0.5" stop-color="#B6AE4B"/>
<stop offset="0.64" stop-color="#8E873A"/>
<stop offset="0.78" stop-color="#5C5826"/>
<stop offset="0.92" stop-color="#22210E"/>
<stop offset="1"/>
</radialGradient>
<radialGradient id="paint68_radial_184_12264" cx="0" cy="0" r="1" gradientUnits="userSpaceOnUse" gradientTransform="translate(42.7727 37.3124) scale(6.6)">
<stop stop-color="#FFF369"/>
<stop offset="0.11" stop-color="#FAEE67"/>
<stop offset="0.23" stop-color="#ECE161"/>
<stop offset="0.36" stop-color="#D6CC58"/>
<stop offset="0.5" stop-color="#B6AE4B"/>
<stop offset="0.64" stop-color="#8E873A"/>
<stop offset="0.78" stop-color="#5C5826"/>
<stop offset="0.92" stop-color="#22210E"/>
<stop offset="1"/>
</radialGradient>
<radialGradient id="paint69_radial_184_12264" cx="0" cy="0" r="1" gradientUnits="userSpaceOnUse" gradientTransform="translate(42.3302 36.9375) scale(18.3975 18.3975)">
<stop stop-color="#FCF80D"/>
<stop offset="1" stop-color="#FC9C0D"/>
</radialGradient>
<radialGradient id="paint70_radial_184_12264" cx="0" cy="0" r="1" gradientUnits="userSpaceOnUse" gradientTransform="translate(55.1776 34.8525) scale(9.57)">
<stop stop-color="#FCF80D"/>
<stop offset="1" stop-color="#F78A0C"/>
</radialGradient>
<radialGradient id="paint71_radial_184_12264" cx="0" cy="0" r="1" gradientUnits="userSpaceOnUse" gradientTransform="translate(49.7248 42.1425) scale(12.225)">
<stop/>
<stop offset="0.15" stop-color="#201F0D"/>
<stop offset="0.48" stop-color="#736E2F"/>
<stop offset="0.97" stop-color="#F6EB65"/>
<stop offset="1" stop-color="#FFF369"/>
</radialGradient>
<radialGradient id="paint72_radial_184_12264" cx="0" cy="0" r="1" gradientUnits="userSpaceOnUse" gradientTransform="translate(41.3248 42.0824) scale(10.875)">
<stop stop-color="#E08F48"/>
<stop offset="1" stop-color="white"/>
</radialGradient>
<radialGradient id="paint73_radial_184_12264" cx="0" cy="0" r="1" gradientUnits="userSpaceOnUse" gradientTransform="translate(37.485 52.035) scale(3.6225 3.6225)">
<stop stop-color="#FFF369"/>
<stop offset="0.11" stop-color="#FAEE67"/>
<stop offset="0.23" stop-color="#ECE161"/>
<stop offset="0.36" stop-color="#D6CC58"/>
<stop offset="0.5" stop-color="#B6AE4B"/>
<stop offset="0.64" stop-color="#8E873A"/>
<stop offset="0.78" stop-color="#5C5826"/>
<stop offset="0.92" stop-color="#22210E"/>
<stop offset="1"/>
</radialGradient>
<radialGradient id="paint74_radial_184_12264" cx="0" cy="0" r="1" gradientUnits="userSpaceOnUse" gradientTransform="translate(36.7727 33.105) scale(8.0625)">
<stop stop-color="#FFF369"/>
<stop offset="0.11" stop-color="#FAEE67"/>
<stop offset="0.23" stop-color="#ECE161"/>
<stop offset="0.36" stop-color="#D6CC58"/>
<stop offset="0.5" stop-color="#B6AE4B"/>
<stop offset="0.64" stop-color="#8E873A"/>
<stop offset="0.78" stop-color="#5C5826"/>
<stop offset="0.92" stop-color="#22210E"/>
<stop offset="1"/>
</radialGradient>
<radialGradient id="paint75_radial_184_12264" cx="0" cy="0" r="1" gradientUnits="userSpaceOnUse" gradientTransform="translate(39.7726 33.465) scale(2.805 2.805)">
<stop/>
<stop offset="0.08" stop-color="#22210E"/>
<stop offset="0.22" stop-color="#5C5826"/>
<stop offset="0.36" stop-color="#8E873A"/>
<stop offset="0.5" stop-color="#B6AE4B"/>
<stop offset="0.64" stop-color="#D6CC58"/>
<stop offset="0.77" stop-color="#ECE161"/>
<stop offset="0.89" stop-color="#FAEE67"/>
<stop offset="1" stop-color="#FFF369"/>
</radialGradient>
<radialGradient id="paint76_radial_184_12264" cx="0" cy="0" r="1" gradientUnits="userSpaceOnUse" gradientTransform="translate(41.1751 39.9825) scale(5.3775)">
<stop stop-color="white"/>
<stop offset="1" stop-color="#E08F48"/>
</radialGradient>
<radialGradient id="paint77_radial_184_12264" cx="0" cy="0" r="1" gradientUnits="userSpaceOnUse" gradientTransform="translate(51.3449 44.7749) scale(7.215 7.215)">
<stop stop-color="white"/>
<stop offset="1" stop-color="#E08F48"/>
</radialGradient>
<linearGradient id="paint78_linear_184_12264" x1="54.0148" y1="45.36" x2="55.7998" y2="45.36" gradientUnits="userSpaceOnUse">
<stop stop-color="#E08F48"/>
<stop offset="1" stop-color="white"/>
</linearGradient>
<linearGradient id="paint79_linear_184_12264" x1="41.1001" y1="37.8974" x2="39.8851" y2="36.2699" gradientUnits="userSpaceOnUse">
<stop stop-color="#E08F48"/>
<stop offset="1" stop-color="white"/>
</linearGradient>
<radialGradient id="paint80_radial_184_12264" cx="0" cy="0" r="1" gradientUnits="userSpaceOnUse" gradientTransform="translate(44.2798 38.28) scale(4.2375)">
<stop stop-color="#FFF200"/>
<stop offset="0.07" stop-color="#E1D500"/>
<stop offset="0.21" stop-color="#A69D00"/>
<stop offset="0.36" stop-color="#736D00"/>
<stop offset="0.5" stop-color="#4A4600"/>
<stop offset="0.64" stop-color="#292700"/>
<stop offset="0.77" stop-color="#121100"/>
<stop offset="0.89" stop-color="#040400"/>
<stop offset="1"/>
</radialGradient>
<radialGradient id="paint81_radial_184_12264" cx="0" cy="0" r="1" gradientUnits="userSpaceOnUse" gradientTransform="translate(39.8398 34.74) scale(1.6425)">
<stop stop-color="#FFF200"/>
<stop offset="0.07" stop-color="#E1D500"/>
<stop offset="0.21" stop-color="#A69D00"/>
<stop offset="0.36" stop-color="#736D00"/>
<stop offset="0.5" stop-color="#4A4600"/>
<stop offset="0.64" stop-color="#292700"/>
<stop offset="0.77" stop-color="#121100"/>
<stop offset="0.89" stop-color="#040400"/>
<stop offset="1"/>
</radialGradient>
<clipPath id="clip0_184_12264">
<rect width="26.205" height="30.9225" fill="white" transform="translate(32.25 28.5)"/>
</clipPath>
</defs>
</svg>
