<svg width="160" height="160" viewBox="0 0 160 160" fill="none" xmlns="http://www.w3.org/2000/svg">
<circle cx="80" cy="80" r="80" fill="#F3F3F3"/>
<path opacity="0.5" d="M122.311 48.2576C125.418 49.9042 127.431 53.0612 127.614 56.5724L128.76 78.5421L129.556 100.527C129.683 104.041 127.956 107.363 125.007 109.277L106.553 121.254L87.9116 132.936C84.9324 134.803 81.1915 134.969 78.0593 133.372L58.4601 123.379L39.0223 113.076C35.9158 111.429 33.9023 108.272 33.7192 104.761L32.5736 82.7914L31.7774 60.8062C31.6501 57.2926 33.3774 53.9703 36.3266 52.0562L54.7802 40.0792L73.4217 28.3971C76.401 26.5301 80.1418 26.3648 83.2741 27.9619L102.873 37.9546L122.311 48.2576Z" fill="url(#paint0_linear_1246_17975)"/>
<path d="M102.666 32.7017C106.181 32.7296 109.424 34.6019 111.206 37.6327L122.357 56.5968L133.205 75.7358C134.939 78.7946 134.939 82.5391 133.205 85.5978L122.357 104.737L111.206 123.701C109.424 126.732 106.181 128.604 102.666 128.632L80.6667 128.807L58.6678 128.632C55.152 128.604 51.9092 126.732 50.1271 123.701L38.9762 104.737L28.1283 85.5978C26.3946 82.5391 26.3945 78.7946 28.1283 75.7358L38.9762 56.5968L50.1271 37.6327C51.9092 34.6019 55.152 32.7296 58.6678 32.7017L80.6667 32.5268L102.666 32.7017Z" fill="url(#paint1_linear_1246_17975)"/>
<g filter="url(#filter0_d_1246_17975)">
<path d="M53.3174 116.793C51.7539 114.744 47.5631 114.38 43.364 116.071C39.1649 117.763 36.3961 120.928 36.6877 123.489L36.5655 123.484L36.7738 123.986C37.8485 126.652 42.4892 127.299 47.1382 125.425C51.7872 123.553 54.6838 119.873 53.6118 117.204L53.4035 116.699L53.3202 116.79L53.3174 116.793Z" fill="#D16A0D"/>
<path d="M53.1064 115.962C53.1703 116.117 53.2063 116.179 53.2508 116.301C53.2674 116.348 53.3924 116.64 53.4035 116.701C53.8145 119.286 50.9707 122.619 46.6966 124.341C42.3226 126.101 37.9652 125.577 36.5682 123.48C36.5682 123.48 36.3349 122.899 36.2739 122.741C35.1991 120.072 38.0985 116.392 42.7475 114.521C47.3965 112.649 52.0371 113.293 53.1091 115.959L53.1064 115.962Z" fill="#D16A0D"/>
<path d="M53.0591 115.846C54.1339 118.512 51.2345 122.194 46.5855 124.066C41.9365 125.938 37.2958 125.294 36.2238 122.628C35.1491 119.962 38.0484 116.279 42.6974 114.407C47.3464 112.535 51.9871 113.18 53.0591 115.846Z" fill="url(#paint2_linear_1246_17975)"/>
<g style="mix-blend-mode:screen" opacity="0.5">
<path d="M42.7086 114.435C47.3492 112.566 51.9788 113.205 53.0647 115.86C53.0647 115.854 53.0619 115.851 53.0591 115.846C51.9844 113.177 47.3465 112.533 42.6974 114.407C38.0484 116.279 35.1491 119.959 36.2239 122.628C36.2239 122.633 36.2266 122.636 36.2294 122.642C35.1713 119.976 38.0679 116.307 42.7086 114.438V114.435Z" fill="#FEF0A0"/>
</g>
<path d="M51.7288 116.382C52.6342 118.628 50.1931 121.728 46.2772 123.302C42.3614 124.88 38.4567 124.335 37.5514 122.089C36.646 119.842 39.0871 116.743 43.003 115.168C46.9188 113.591 50.8263 114.135 51.7288 116.382Z" fill="url(#paint3_linear_1246_17975)"/>
<path d="M51.7288 116.382C52.6342 118.628 50.1931 121.728 46.2772 123.302C42.3614 124.88 38.4567 124.335 37.5514 122.089C36.646 119.842 39.0871 116.743 43.003 115.168C46.9188 113.591 50.8263 114.135 51.7288 116.382Z" fill="url(#paint4_linear_1246_17975)"/>
<g style="mix-blend-mode:multiply">
<path d="M43.003 115.168C46.9077 113.596 50.8041 114.132 51.7233 116.365C51.7233 116.36 51.7178 116.354 51.7178 116.349C50.8124 114.102 46.9049 113.56 42.9919 115.138C39.076 116.715 36.6377 119.814 37.5403 122.058C37.543 122.064 37.5458 122.07 37.5486 122.075C36.6654 119.831 39.101 116.743 43.0057 115.171L43.003 115.168Z" fill="#FEF0A0"/>
</g>
<g style="mix-blend-mode:screen" opacity="0.3">
<path d="M46.2801 123.303C42.3726 124.875 38.4734 124.339 37.5597 122.104C37.5597 122.109 37.5625 122.112 37.5653 122.117C38.4706 124.364 42.3753 124.906 46.2912 123.331C50.207 121.754 52.6481 118.654 51.7428 116.41C51.7428 116.405 51.74 116.402 51.7372 116.396C52.6259 118.64 50.1875 121.731 46.2801 123.303Z" fill="#FEF0A0"/>
</g>
<path opacity="0.4" d="M43.078 115.352C46.9577 113.788 50.8041 114.25 51.7539 116.443C51.7456 116.424 51.74 116.402 51.7289 116.382C50.8263 114.136 46.9188 113.594 43.003 115.169C39.0872 116.746 36.6488 119.846 37.5514 122.089C37.5597 122.109 37.5681 122.128 37.5764 122.151C36.7405 119.909 39.1955 116.913 43.0752 115.349L43.078 115.352Z" fill="#D16A0D"/>
<g style="mix-blend-mode:multiply" opacity="0.4">
<path d="M47.4353 118.507C47.2159 118.377 46.9826 118.302 46.7299 118.285C46.48 118.266 46.0273 118.277 45.3774 118.316C44.6109 118.36 44.1416 118.371 43.9722 118.346C43.7972 118.324 43.6722 118.216 43.5917 118.018C43.5445 117.899 43.5445 117.799 43.5889 117.71C43.6361 117.624 43.7278 117.552 43.8639 117.496C44.0361 117.427 44.161 117.416 44.2416 117.463C44.3221 117.51 44.4054 117.644 44.4943 117.866L44.361 117.982L44.5804 118.074L46.841 117.163C46.8132 117.052 46.7882 116.969 46.7688 116.919C46.6188 116.547 46.33 116.327 45.8968 116.258C45.4663 116.186 44.8914 116.266 44.1721 116.499L44.0111 116.097L43.7917 116.008L43.7389 116.188L42.9696 116.519L43.1307 116.921C42.3864 117.28 41.8643 117.641 41.5699 118.01C41.2728 118.377 41.2005 118.749 41.3505 119.124C41.456 119.382 41.6393 119.579 41.9032 119.713C42.167 119.846 42.4447 119.918 42.7391 119.929C43.0335 119.943 43.5722 119.929 44.361 119.893C44.8331 119.871 45.1275 119.904 45.2497 119.996C45.3691 120.087 45.4857 120.276 45.5996 120.557C45.644 120.668 45.6413 120.768 45.5885 120.854C45.5357 120.94 45.4357 121.015 45.2802 121.076C45.1025 121.148 44.9719 121.154 44.8914 121.09C44.8109 121.026 44.7026 120.826 44.5665 120.487L44.5054 120.337L44.4415 120.179L44.2221 120.087L44.0527 120.293L42.1781 121.09L42.2781 121.337C42.503 121.898 42.8863 122.198 43.4278 122.24C43.9694 122.284 44.5498 122.198 45.1691 121.99L45.1469 122.387L45.3636 122.479L46.405 122.059L46.2134 121.587C46.966 121.215 47.4825 120.823 47.7686 120.412C48.0546 120.001 48.1074 119.571 47.9269 119.124C47.8158 118.843 47.6492 118.638 47.4298 118.51L47.4353 118.507Z" fill="#AA7E03"/>
</g>
<path d="M46.6216 117.074L44.361 117.985L44.2777 117.777C44.1888 117.555 44.1027 117.419 44.0249 117.374C43.9444 117.327 43.8194 117.338 43.6473 117.408C43.5084 117.463 43.4167 117.535 43.3723 117.621C43.3279 117.707 43.3279 117.81 43.3751 117.93C43.4556 118.127 43.5806 118.235 43.7556 118.257C43.925 118.28 44.3943 118.271 45.1608 118.227C45.8134 118.188 46.2633 118.177 46.5161 118.196C46.766 118.213 46.9993 118.288 47.2187 118.418C47.4381 118.549 47.6047 118.752 47.7158 119.032C47.8963 119.479 47.8436 119.91 47.5575 120.321C47.2715 120.732 46.7549 121.123 46.0023 121.496L46.1939 121.968L45.1525 122.387L44.9553 121.898C44.3388 122.109 43.7583 122.193 43.214 122.148C42.6724 122.104 42.2892 121.804 42.0643 121.243L41.9643 120.998L44.2249 120.087L44.3499 120.396C44.486 120.735 44.5943 120.935 44.672 120.998C44.7526 121.062 44.8803 121.057 45.0608 120.985C45.2136 120.923 45.3163 120.848 45.3663 120.762C45.4191 120.676 45.4219 120.576 45.3774 120.462C45.2636 120.182 45.1469 119.993 45.0275 119.901C44.9081 119.81 44.6137 119.774 44.1416 119.799C43.3557 119.838 42.8141 119.849 42.5197 119.835C42.2253 119.821 41.9476 119.749 41.6838 119.615C41.42 119.482 41.2366 119.288 41.1311 119.029C40.9811 118.654 41.0534 118.282 41.3505 117.916C41.6477 117.549 42.167 117.185 42.9113 116.827L42.7502 116.427L43.7917 116.008L43.9527 116.408C44.6692 116.177 45.2441 116.097 45.6774 116.166C46.1079 116.236 46.3994 116.458 46.5494 116.83C46.5716 116.883 46.5938 116.963 46.6216 117.074Z" fill="white"/>
<g style="mix-blend-mode:screen" opacity="0.7">
<path style="mix-blend-mode:screen" d="M43.9665 116.402V116.408C44.5914 116.208 45.1079 116.119 45.5162 116.147C45.1079 116.116 44.5914 116.202 43.9665 116.402Z" fill="url(#paint5_linear_1246_17975)"/>
<path style="mix-blend-mode:screen" d="M43.9361 117.346C43.9694 117.348 43.9999 117.357 44.0221 117.373C44.1027 117.421 44.186 117.554 44.2749 117.776L44.3582 117.984L44.3721 117.979L44.2915 117.776C44.2027 117.554 44.1194 117.421 44.036 117.373C44.0083 117.357 43.9722 117.348 43.9333 117.346H43.9361Z" fill="url(#paint6_linear_1246_17975)"/>
<path style="mix-blend-mode:screen" d="M45.3858 120.763C45.4385 120.676 45.4413 120.576 45.3969 120.463C45.283 120.182 45.1664 119.993 45.047 119.902C44.9748 119.846 44.8387 119.81 44.636 119.799C44.8276 119.813 44.9581 119.849 45.0303 119.902C45.1497 119.996 45.2664 120.182 45.3802 120.463C45.4247 120.574 45.4219 120.674 45.3691 120.763C45.3191 120.849 45.2164 120.924 45.0636 120.985C44.9609 121.026 44.8748 121.046 44.8054 121.043C44.8776 121.051 44.9692 121.032 45.0803 120.987C45.233 120.926 45.3358 120.851 45.3858 120.765V120.763Z" fill="url(#paint7_linear_1246_17975)"/>
<path style="mix-blend-mode:screen" d="M46.5133 118.193C46.2633 118.174 45.8106 118.185 45.158 118.224C44.4776 118.262 44.0333 118.274 43.8222 118.26C44.0249 118.276 44.4748 118.262 45.1747 118.224C45.8134 118.185 46.2606 118.176 46.5133 118.193Z" fill="url(#paint8_linear_1246_17975)"/>
<path style="mix-blend-mode:screen" d="M44.972 121.9C44.972 121.9 44.9636 121.903 44.9581 121.906L45.1525 122.389L45.1664 122.384L44.972 121.903V121.9Z" fill="url(#paint9_linear_1246_17975)"/>
<path style="mix-blend-mode:screen" d="M43.2306 122.151C42.6891 122.107 42.3058 121.807 42.0781 121.246L41.9809 121.002L44.2276 120.096V120.088L41.9642 120.999L42.0642 121.243C42.2892 121.804 42.6724 122.104 43.214 122.149C43.2306 122.149 43.2501 122.151 43.2667 122.151C43.2556 122.151 43.2418 122.151 43.2306 122.151Z" fill="url(#paint10_linear_1246_17975)"/>
<path style="mix-blend-mode:screen" d="M42.4753 119.832C42.2059 119.813 41.9476 119.74 41.7032 119.618C41.4394 119.485 41.2561 119.29 41.1506 119.029C41.0006 118.654 41.0728 118.282 41.3672 117.916C41.6644 117.549 42.1837 117.185 42.928 116.827L42.7669 116.427L43.7945 116.013V116.008L42.7502 116.427L42.9113 116.827C42.167 117.185 41.6449 117.546 41.3505 117.916C41.0534 118.282 40.9811 118.654 41.1311 119.029C41.2339 119.288 41.42 119.485 41.6838 119.615C41.9337 119.74 42.1976 119.813 42.4753 119.832Z" fill="url(#paint11_linear_1246_17975)"/>
</g>
</g>
<g filter="url(#filter1_d_1246_17975)">
<path d="M143.104 89.6388C144.046 88.4183 143.608 85.941 141.981 83.7769C140.354 81.6129 138.096 80.5034 136.662 81.0682L136.646 80.9968L136.388 81.1949C135.014 82.2285 135.359 85.0096 137.161 87.4052C138.962 89.8012 141.536 90.9049 142.912 89.8725L143.172 89.674L143.106 89.64L143.104 89.6388Z" fill="#D16A0D"/>
<path d="M143.551 89.3889C143.471 89.4499 143.442 89.4802 143.378 89.5248C143.353 89.5417 143.204 89.6591 143.17 89.6749C141.74 90.3126 139.375 89.1856 137.719 86.983C136.024 84.7286 135.653 82.1301 136.648 80.9985C136.648 80.9985 136.947 80.7739 137.029 80.7141C138.405 79.6801 140.979 80.7855 142.78 83.1815C144.581 85.5774 144.928 88.3581 143.553 89.3901L143.551 89.3889Z" fill="#D16A0D"/>
<path d="M143.611 89.3432C142.238 90.3768 139.661 89.2719 137.86 86.8759C136.059 84.4799 135.713 81.6992 137.087 80.6672C138.461 79.6336 141.038 80.7386 142.839 83.1346C144.64 85.5306 144.986 88.3112 143.611 89.3432Z" fill="url(#paint12_linear_1246_17975)"/>
<g style="mix-blend-mode:screen" opacity="0.5">
<path d="M142.824 83.1456C144.622 85.5372 144.97 88.3106 143.604 89.3489C143.607 89.348 143.609 89.346 143.611 89.3435C144.987 88.3095 144.641 85.5304 142.838 83.1349C141.037 80.7389 138.463 79.6335 137.087 80.6675C137.084 80.6684 137.083 80.6704 137.08 80.6729C138.457 79.6489 141.024 80.7544 142.823 83.146L142.824 83.1456Z" fill="#FEF0A0"/>
</g>
<path d="M143.096 88.6581C141.938 89.5289 139.77 88.5985 138.254 86.58C136.736 84.562 136.446 82.222 137.604 81.3512C138.762 80.4804 140.93 81.4109 142.446 83.4293C143.964 85.4473 144.254 87.7889 143.096 88.6581Z" fill="url(#paint13_linear_1246_17975)"/>
<path d="M143.096 88.6581C141.938 89.5289 139.77 88.5985 138.254 86.58C136.736 84.562 136.446 82.222 137.604 81.3512C138.762 80.4804 140.93 81.4109 142.446 83.4293C143.964 85.4473 144.254 87.7889 143.096 88.6581Z" fill="url(#paint14_linear_1246_17975)"/>
<g style="mix-blend-mode:multiply">
<path d="M142.446 83.4284C143.959 85.4408 144.252 87.7747 143.105 88.6514C143.108 88.6506 143.11 88.6465 143.113 88.6456C144.271 87.7748 143.979 85.4336 142.462 83.4172C140.945 81.3992 138.777 80.4703 137.62 81.3391C137.617 81.3416 137.615 81.3441 137.612 81.3465C138.771 80.489 140.933 81.418 142.445 83.4304L142.446 83.4284Z" fill="#FEF0A0"/>
</g>
<g style="mix-blend-mode:screen" opacity="0.3">
<path d="M138.254 86.5815C136.741 84.5675 136.447 82.2319 137.597 81.358C137.594 81.3589 137.593 81.3609 137.59 81.3634C136.432 82.2342 136.724 84.5738 138.24 86.5922C139.757 88.6103 141.926 89.5407 143.082 88.6704C143.085 88.6695 143.086 88.6675 143.089 88.665C141.93 89.5258 139.767 88.5956 138.254 86.5815Z" fill="#FEF0A0"/>
</g>
<path opacity="0.4" d="M142.352 83.5003C143.856 85.4996 144.185 87.793 143.064 88.6813C143.074 88.6735 143.086 88.6669 143.096 88.6574C144.254 87.7882 143.962 85.4471 142.446 83.4286C140.929 81.4106 138.761 80.4817 137.604 81.3505C137.594 81.3583 137.584 81.3661 137.573 81.3744C138.738 80.5446 140.849 81.499 142.353 83.4983L142.352 83.5003Z" fill="#D16A0D"/>
<g style="mix-blend-mode:multiply" opacity="0.4">
<path d="M141.204 86.5065C141.245 86.3595 141.253 86.2131 141.223 86.0645C141.196 85.9171 141.119 85.6574 140.996 85.2879C140.852 84.852 140.773 84.5826 140.761 84.4809C140.747 84.3763 140.79 84.2874 140.891 84.2103C140.953 84.1646 141.011 84.1491 141.069 84.161C141.126 84.175 141.182 84.2167 141.235 84.2867C141.302 84.3755 141.328 84.4459 141.313 84.4998C141.298 84.5536 141.234 84.6224 141.119 84.7081L141.031 84.6491L141.012 84.7901L141.888 85.955C141.948 85.9218 141.993 85.8945 142.018 85.8755C142.21 85.7313 142.292 85.5304 142.265 85.2694C142.24 85.0096 142.105 84.6899 141.859 84.3105L142.066 84.1551L142.084 84.0146L141.971 84.0121L141.661 83.6188L141.454 83.7742C141.132 83.3997 140.842 83.1539 140.583 83.041C140.325 82.9261 140.099 82.942 139.906 83.0867C139.773 83.1876 139.687 83.324 139.651 83.4971C139.615 83.6701 139.616 83.8418 139.656 84.0135C139.693 84.1858 139.784 84.4949 139.927 84.9449C140.013 85.2142 140.04 85.3895 140.006 85.4742C139.971 85.5574 139.88 85.654 139.736 85.7632C139.678 85.8061 139.62 85.82 139.562 85.8028C139.504 85.7856 139.446 85.7395 139.386 85.6591C139.317 85.5676 139.294 85.4931 139.318 85.4366C139.342 85.3802 139.441 85.2867 139.616 85.1557L139.693 85.0971L139.775 85.0357L139.794 84.8948L139.649 84.8287L138.898 83.8692L138.771 83.9652C138.481 84.182 138.368 84.4498 138.427 84.7691C138.485 85.0888 138.625 85.4108 138.841 85.7364L138.608 85.785L138.589 85.9243L138.992 86.4611L139.236 86.2773C139.567 86.6545 139.873 86.8923 140.155 86.9939C140.437 87.0955 140.693 87.0594 140.924 86.8859C141.069 86.7783 141.162 86.6502 141.201 86.5037L141.204 86.5065Z" fill="#AA7E03"/>
</g>
<path d="M141.906 85.8143L141.03 84.6494L141.137 84.569C141.252 84.4833 141.317 84.4125 141.331 84.3607C141.345 84.3068 141.32 84.2364 141.253 84.1476C141.199 84.076 141.143 84.0343 141.087 84.0219C141.03 84.0096 140.971 84.0255 140.909 84.0712C140.808 84.1483 140.764 84.2372 140.779 84.3418C140.792 84.4431 140.87 84.7129 141.014 85.1488C141.137 85.5199 141.213 85.778 141.241 85.927C141.27 86.074 141.263 86.2204 141.222 86.3674C141.18 86.5143 141.089 86.642 140.944 86.7496C140.714 86.9231 140.457 86.9592 140.175 86.8576C139.893 86.7559 139.587 86.5181 139.256 86.141L139.013 86.3248L138.609 85.788L138.861 85.5984C138.644 85.2749 138.506 84.9525 138.447 84.6312C138.389 84.3114 138.503 84.0436 138.792 83.8268L138.918 83.7312L139.794 84.8962L139.635 85.0161C139.461 85.1472 139.362 85.2407 139.337 85.2955C139.313 85.3519 139.336 85.4249 139.405 85.518C139.464 85.5968 139.523 85.6445 139.581 85.6601C139.639 85.6772 139.697 85.6633 139.756 85.62C139.9 85.5109 139.991 85.4142 140.026 85.3311C140.06 85.2479 140.035 85.0722 139.948 84.8034C139.804 84.3553 139.714 84.0442 139.676 83.872C139.639 83.6998 139.637 83.5282 139.673 83.3551C139.71 83.1821 139.794 83.0461 139.926 82.9451C140.12 82.8004 140.346 82.7846 140.604 82.8995C140.861 83.0144 141.152 83.2581 141.474 83.6326L141.68 83.4777L142.084 84.0144L141.878 84.1694C142.122 84.5476 142.257 84.8673 142.284 85.1283C142.311 85.3877 142.228 85.5906 142.036 85.7348C142.009 85.7558 141.966 85.7811 141.906 85.8143Z" fill="white"/>
<g style="mix-blend-mode:screen" opacity="0.7">
<path style="mix-blend-mode:screen" d="M141.883 84.1772L141.88 84.1781C142.092 84.5081 142.223 84.7927 142.271 85.0329C142.225 84.7923 142.095 84.5072 141.883 84.1772Z" fill="url(#paint15_linear_1246_17975)"/>
<path style="mix-blend-mode:screen" d="M141.333 84.3043C141.336 84.324 141.336 84.343 141.33 84.3584C141.315 84.4122 141.251 84.481 141.137 84.5667L141.029 84.6471L141.035 84.6542L141.139 84.5763C141.254 84.4906 141.318 84.4218 141.332 84.3664C141.338 84.3478 141.337 84.3256 141.332 84.3027L141.333 84.3043Z" fill="url(#paint16_linear_1246_17975)"/>
<path style="mix-blend-mode:screen" d="M139.584 85.6722C139.642 85.6893 139.7 85.6755 139.759 85.6322C139.903 85.523 139.994 85.4264 140.029 85.3432C140.05 85.2929 140.05 85.2087 140.025 85.0898C140.046 85.2027 140.046 85.2837 140.026 85.3336C139.99 85.4172 139.901 85.5134 139.756 85.6226C139.699 85.6654 139.641 85.6793 139.581 85.6626C139.524 85.647 139.465 85.5993 139.406 85.5205C139.366 85.4676 139.341 85.4208 139.332 85.3803C139.338 85.4233 139.364 85.4732 139.407 85.5305C139.466 85.6093 139.525 85.6571 139.582 85.6726L139.584 85.6722Z" fill="url(#paint17_linear_1246_17975)"/>
<path style="mix-blend-mode:screen" d="M141.243 85.9252C141.215 85.7778 141.139 85.518 141.015 85.147C140.887 84.76 140.812 84.505 140.788 84.3809C140.809 84.5006 140.887 84.7584 141.018 85.1567C141.139 85.5196 141.213 85.7767 141.243 85.9252Z" fill="url(#paint18_linear_1246_17975)"/>
<path style="mix-blend-mode:screen" d="M138.862 85.6076C138.862 85.6076 138.859 85.6032 138.857 85.6005L138.608 85.7876L138.613 85.7947L138.861 85.6081L138.862 85.6076Z" fill="url(#paint19_linear_1246_17975)"/>
<path style="mix-blend-mode:screen" d="M138.448 84.6409C138.39 84.3211 138.504 84.0533 138.793 83.8349L138.919 83.7409L139.79 84.8987L139.795 84.8974L138.918 83.7308L138.792 83.8265C138.503 84.0432 138.389 84.3111 138.447 84.6308C138.45 84.6404 138.451 84.6521 138.454 84.6617C138.452 84.6553 138.45 84.6473 138.448 84.6409Z" fill="url(#paint20_linear_1246_17975)"/>
<path style="mix-blend-mode:screen" d="M139.671 83.8459C139.64 83.6873 139.642 83.5269 139.675 83.3668C139.711 83.1937 139.795 83.0577 139.929 82.9564C140.123 82.8117 140.349 82.7958 140.606 82.9091C140.864 83.024 141.155 83.2677 141.477 83.6423L141.683 83.4873L142.081 84.0169L142.084 84.016L141.68 83.4777L141.474 83.6326C141.152 83.2581 140.863 83.0124 140.604 82.8995C140.346 82.7846 140.12 82.8004 139.926 82.9451C139.793 83.0445 139.708 83.1825 139.673 83.3551C139.64 83.5189 139.639 83.6824 139.671 83.8459Z" fill="url(#paint21_linear_1246_17975)"/>
</g>
</g>
<path d="M70.3458 59.8683C75.6421 61.0134 72.1834 56.637 73.5592 55.7861C67.092 52.874 66.3373 50.635 64.7489 47.0442L59.8034 53.8814C63.1639 57.0026 67.681 59.2921 70.3458 59.8683Z" fill="url(#paint22_linear_1246_17975)"/>
<path d="M125.625 76.6046C124.726 72.5621 121.133 68.0706 122.48 64.4773C121.402 63.7586 119.785 68.0706 121.582 72.5622C121.732 73.161 124.726 75.7062 125.625 76.6046Z" fill="#D9D9D9"/>
<path d="M121.582 66.2738C120.652 68.8328 121.133 71.2146 121.582 72.5621C112.643 56.1957 126.074 54.5958 131.464 53.4287C131.464 53.4287 131.464 56.8415 131.913 58.189C132.811 59.9856 136.854 61.3331 136.854 61.3331C136.405 62.6806 123.379 61.3331 121.582 66.2738Z" fill="url(#paint23_linear_1246_17975)"/>
<g filter="url(#filter2_b_1246_17975)">
<rect x="41.3333" y="65.334" width="76.1111" height="32.2353" rx="4" fill="url(#paint24_linear_1246_17975)"/>
<rect x="41.8333" y="65.834" width="75.1111" height="31.2353" rx="3.5" stroke="white" stroke-opacity="0.5"/>
</g>
<path d="M79.8365 71.87L81.0901 72.3177L82.4332 70.9746L79.8365 71.87Z" fill="white"/>
<path d="M79.8365 71.8711L82.4332 70.9757L80.6424 70.707L79.8365 71.8711Z" fill="white"/>
<path d="M79.8364 71.873L78.2247 74.1116L79.8364 73.2162V71.873Z" fill="white"/>
<path d="M79.8365 71.873V73.2162L81.4482 74.1116L79.8365 71.873Z" fill="white"/>
<path d="M79.8365 71.873L81.4482 74.1116L81.0901 72.3208L79.8365 71.873Z" fill="white"/>
<path d="M78.4933 72.3208L78.2247 74.1116L79.8364 71.873L78.4933 72.3208Z" fill="white"/>
<path d="M79.8365 71.8715L80.6424 70.7075L79.8365 69.0957V71.8715Z" fill="white"/>
<path d="M79.8366 71.87L77.1503 70.9746L78.4934 72.3177L79.8366 71.87Z" fill="white"/>
<path d="M79.8365 69.0957L79.0306 70.7075L79.8365 71.8715V69.0957Z" fill="white"/>
<path d="M79.8366 71.8711L79.0307 70.707L77.1503 70.9757L79.8366 71.8711Z" fill="white"/>
<path d="M85.8358 72.4061L86.8208 72.7643L87.8058 71.7793L85.8358 72.4061Z" fill="white"/>
<path d="M85.8358 72.4074L87.8058 71.7806L86.4626 71.6016L85.8358 72.4074Z" fill="white"/>
<path d="M85.8359 72.4043L84.6719 74.1056L85.8359 73.4788V72.4043Z" fill="white"/>
<path d="M85.8358 72.4043V73.4788L86.9999 74.1056L85.8358 72.4043Z" fill="white"/>
<path d="M85.8358 72.4043L86.9999 74.1056L86.8208 72.7625L85.8358 72.4043Z" fill="white"/>
<path d="M84.851 72.7625L84.6719 74.1056L85.8359 72.4043L84.851 72.7625Z" fill="white"/>
<path d="M85.8358 72.4055L86.4626 71.5996L85.8358 70.4355V72.4055Z" fill="white"/>
<path d="M85.8359 72.4061L83.9555 71.7793L84.851 72.7643L85.8359 72.4061Z" fill="white"/>
<path d="M85.8359 70.4355L85.2091 71.5996L85.8359 72.4055V70.4355Z" fill="white"/>
<path d="M85.8359 72.4074L85.2091 71.6016L83.9555 71.7806L85.8359 72.4074Z" fill="white"/>
<path d="M73.8372 72.4061L74.7326 72.7643L75.7176 71.7793L73.8372 72.4061Z" fill="white"/>
<path d="M73.8372 72.4074L75.7176 71.7806L74.3744 71.6016L73.8372 72.4074Z" fill="white"/>
<path d="M73.8373 72.4043L72.5837 74.1056L73.8373 73.4788V72.4043Z" fill="white"/>
<path d="M73.8372 72.4043V73.4788L75.0012 74.1056L73.8372 72.4043Z" fill="white"/>
<path d="M73.8372 72.4043L75.0012 74.1056L74.7326 72.7625L73.8372 72.4043Z" fill="white"/>
<path d="M72.8523 72.7625L72.5837 74.1056L73.8373 72.4043L72.8523 72.7625Z" fill="white"/>
<path d="M73.8372 72.4055L74.3745 71.5996L73.8372 70.4355V72.4055Z" fill="white"/>
<path d="M73.8373 72.4061L71.8673 71.7793L72.8523 72.7643L73.8373 72.4061Z" fill="white"/>
<path d="M73.8372 70.4355L73.2104 71.5996L73.8372 72.4055V70.4355Z" fill="white"/>
<path d="M73.8373 72.4074L73.2105 71.6016L71.8673 71.7806L73.8373 72.4074Z" fill="white"/>
<path d="M51.0934 83.9586H52.6157V79.392H51.3621V78.5861C52.0784 78.4965 52.5261 78.3175 52.9738 78.0488H53.8693V83.9586H55.2124V85.0331H51.0934V83.9586Z" fill="#FBFF20"/>
<path d="M56.3764 81.4508C56.3764 79.1227 57.2719 77.8691 58.7045 77.8691C60.1372 77.8691 61.1222 79.1227 61.1222 81.4508C61.1222 83.7789 60.2268 85.1221 58.7045 85.1221C57.2719 85.1221 56.3764 83.8685 56.3764 81.4508ZM59.8686 81.4508C59.8686 79.4809 59.4209 78.8541 58.7045 78.8541C58.0777 78.8541 57.5405 79.4809 57.5405 81.4508C57.5405 83.4208 58.0777 84.1371 58.7045 84.1371C59.4209 84.1371 59.8686 83.4208 59.8686 81.4508Z" fill="#FBFF20"/>
<path d="M63.0027 83.4219C63.4504 83.4219 63.8086 83.78 63.8086 84.3173C63.8086 84.8546 63.4504 85.2127 63.0027 85.2127C62.555 85.2127 62.1968 84.8546 62.1968 84.3173C62.1968 83.78 62.555 83.4219 63.0027 83.4219Z" fill="#FBFF20"/>
<path d="M64.9726 81.4508C64.9726 79.1227 65.868 77.8691 67.3007 77.8691C68.7333 77.8691 69.7183 79.1227 69.7183 81.4508C69.7183 83.7789 68.8229 85.1221 67.3007 85.1221C65.868 85.1221 64.9726 83.8685 64.9726 81.4508ZM68.5543 81.4508C68.5543 79.4809 68.1066 78.8541 67.3902 78.8541C66.7634 78.8541 66.2262 79.4809 66.2262 81.4508C66.2262 83.4208 66.7634 84.1371 67.3902 84.1371C68.017 84.1371 68.5543 83.4208 68.5543 81.4508Z" fill="#FBFF20"/>
<path d="M70.6138 81.4508C70.6138 79.1227 71.5093 77.8691 73.0315 77.8691C74.4642 77.8691 75.3596 79.1227 75.3596 81.4508C75.3596 83.7789 74.4642 85.1221 73.0315 85.1221C71.5093 85.1221 70.6138 83.8685 70.6138 81.4508ZM74.106 81.4508C74.106 79.4809 73.6583 78.8541 72.9419 78.8541C72.2256 78.8541 71.7779 79.4809 71.7779 81.4508C71.7779 83.4208 72.3151 84.1371 72.9419 84.1371C73.6583 84.1371 74.106 83.4208 74.106 81.4508Z" fill="#FBFF20"/>
<path d="M76.2549 81.4508C76.2549 79.1227 77.1503 77.8691 78.583 77.8691C80.0157 77.8691 81.0006 79.1227 81.0006 81.4508C81.0006 83.7789 80.1052 85.1221 78.583 85.1221C77.1503 85.1221 76.2549 83.8685 76.2549 81.4508ZM79.747 81.4508C79.747 79.4809 79.2993 78.8541 78.583 78.8541C77.9562 78.8541 77.4189 79.4809 77.4189 81.4508C77.4189 83.4208 77.9562 84.1371 78.583 84.1371C79.2993 84.1371 79.747 83.4208 79.747 81.4508Z" fill="#FBFF20"/>
<path d="M82.9705 83.4219C83.4182 83.4219 83.7764 83.78 83.7764 84.3173C83.7764 84.8546 83.4182 85.2127 82.9705 85.2127C82.5228 85.2127 82.1647 84.8546 82.1647 84.3173C82.1647 83.78 82.5228 83.4219 82.9705 83.4219Z" fill="#FBFF20"/>
<path d="M84.851 81.4508C84.851 79.1227 85.7464 77.8691 87.1791 77.8691C88.6118 77.8691 89.5072 79.1227 89.5072 81.4508C89.5072 83.7789 88.6118 85.1221 87.1791 85.1221C85.836 85.1221 84.851 83.8685 84.851 81.4508ZM88.4327 81.4508C88.4327 79.4809 87.985 78.8541 87.2687 78.8541C86.6419 78.8541 86.1046 79.4809 86.1046 81.4508C86.1046 83.4208 86.6419 84.1371 87.2687 84.1371C87.985 84.1371 88.4327 83.4208 88.4327 81.4508Z" fill="#FBFF20"/>
<path d="M90.4923 81.4508C90.4923 79.1227 91.3877 77.8691 92.8204 77.8691C94.2531 77.8691 95.1485 79.1227 95.1485 81.4508C95.1485 83.7789 94.2531 85.1221 92.8204 85.1221C91.4772 85.1221 90.4923 83.8685 90.4923 81.4508ZM94.074 81.4508C94.074 79.4809 93.6263 78.8541 92.9099 78.8541C92.2831 78.8541 91.7459 79.4809 91.7459 81.4508C91.7459 83.4208 92.2831 84.1371 92.9099 84.1371C93.5367 84.1371 94.074 83.4208 94.074 81.4508Z" fill="#FBFF20"/>
<path d="M96.1334 81.4508C96.1334 79.1227 97.0288 77.8691 98.4615 77.8691C99.8941 77.8691 100.79 79.1227 100.79 81.4508C100.79 83.7789 99.8941 85.1221 98.4615 85.1221C97.1183 85.1221 96.1334 83.8685 96.1334 81.4508ZM99.7151 81.4508C99.7151 79.4809 99.2673 78.8541 98.551 78.8541C97.9242 78.8541 97.387 79.4809 97.387 81.4508C97.387 83.4208 97.9242 84.1371 98.551 84.1371C99.1778 84.1371 99.7151 83.4208 99.7151 81.4508Z" fill="#FBFF20"/>
<path d="M107.774 79.4812C107.326 79.123 107.058 78.8544 106.52 78.8544C105.894 78.8544 105.535 79.123 105.535 79.7498C105.535 81.093 108.49 80.8243 108.49 83.0629C108.49 84.1374 107.863 84.8537 106.789 85.0328V86.1969H105.894V85.1224C105.267 85.0328 104.461 84.7642 104.013 84.3165L104.55 83.4211C105.088 83.8688 105.625 84.1374 106.162 84.1374C106.879 84.1374 107.237 83.7792 107.237 83.1524C107.237 81.7198 104.282 81.8988 104.282 79.8394C104.282 78.8544 104.909 78.0485 105.894 77.959V76.7949H106.789V77.8694C107.505 77.959 107.953 78.3171 108.401 78.7649L107.774 79.4812Z" fill="#FBFF20"/>
<path d="M67.1217 88.2578H68.0172L68.4649 90.6755C68.5544 91.2127 68.644 91.6604 68.7335 92.1977C68.823 91.6604 68.9126 91.2127 69.0021 90.6755L69.6289 88.2578H70.3453L70.9721 90.6755C71.0616 91.2127 71.1511 91.6604 71.3302 92.1977C71.4198 91.6604 71.5093 91.2127 71.5989 90.6755L72.0466 88.2578H72.6734L71.7779 93.0036H70.7034L70.0766 90.4964C69.9871 90.1382 69.8976 89.78 69.8976 89.4219C69.808 89.78 69.7185 90.1382 69.7185 90.4964L69.0917 93.0036H68.0172L67.1217 88.2578Z" fill="white"/>
<path d="M73.3898 88.2578H74.1956V93.0036H73.3898V88.2578Z" fill="white"/>
<path d="M75.4492 88.2578H76.3446L77.8668 90.9441L78.3145 91.9291C78.3145 91.4813 78.225 90.8545 78.225 90.3173V88.2578H79.0309V93.0036H78.1354L76.6132 90.3173L76.1655 89.3323C76.1655 89.8696 76.2551 90.4068 76.2551 90.9441V93.0036H75.4492V88.2578Z" fill="white"/>
<path d="M80.2843 88.2578H81.1798L82.702 90.9441L83.1497 91.9291C83.1497 91.4813 83.0602 90.8545 83.0602 90.3173V88.2578H83.866V93.0036H82.9706L81.4484 90.3173L81.0007 89.3323C81.0007 89.8696 81.0902 90.4068 81.0902 90.9441V93.0036H80.2843V88.2578Z" fill="white"/>
<path d="M85.0303 88.2578H87.8957V88.9742H85.8362V90.2277H87.5375V90.9441H85.8362V92.3768H87.8957V93.0931H84.9408V88.2578H85.0303Z" fill="white"/>
<path d="M91.5668 93.0039L90.5818 91.213H89.8655V93.0934H89.0596V88.3477H90.5818C91.5668 88.3477 92.3727 88.7058 92.3727 89.7803C92.3727 90.4967 92.0145 90.9444 91.3877 91.1235L92.5518 93.0934H91.5668V93.0039ZM89.8655 90.4967H90.5818C91.2086 90.4967 91.5668 90.228 91.5668 89.6908C91.5668 89.1535 91.2086 88.9745 90.5818 88.9745H89.8655V90.4967Z" fill="white"/>
<path d="M65.5993 90.4043H46.8849V91.3893H65.5993V90.4043Z" fill="white"/>
<path d="M65.5993 89.1504H52.1679V89.6876H65.5993V89.1504Z" fill="white"/>
<path d="M65.5993 92.0156H52.1679V92.5529H65.5993V92.0156Z" fill="white"/>
<path d="M112.699 90.4043H93.9842V91.3893H112.699V90.4043Z" fill="white"/>
<path d="M107.416 89.1504H93.9843V89.6876H107.416V89.1504Z" fill="white"/>
<path d="M107.416 92.0156H93.9842V92.5529H107.416V92.0156Z" fill="white"/>
<circle cx="81.5219" cy="89.4796" r="0.87977" transform="rotate(-90 81.5219 89.4796)" fill="#FFA531"/>
<circle cx="100.182" cy="41.3999" r="0.746687" transform="rotate(-150 100.182 41.3999)" fill="#13CCDF"/>
<circle cx="38.5386" cy="46.6206" r="0.746687" transform="rotate(-150 38.5386 46.6206)" fill="#13CCDF"/>
<circle cx="118.12" cy="50.4191" r="0.87977" transform="rotate(-90 118.12 50.4191)" fill="#FFA531"/>
<circle cx="76.6379" cy="21.5362" r="0.87977" transform="rotate(-90 76.6379 21.5362)" fill="#FFA531"/>
<circle cx="88.0378" cy="54.5558" r="0.87977" transform="rotate(-90 88.0378 54.5558)" fill="#FF228C"/>
<circle cx="100.69" cy="111.292" r="0.87977" transform="rotate(-90 100.69 111.292)" fill="#FF228C"/>
<circle cx="33.0204" cy="83.1437" r="0.87977" transform="rotate(-90 33.0204 83.1437)" fill="#FF228C"/>
<circle cx="116.361" cy="31.0616" r="0.87977" transform="rotate(-90 116.361 31.0616)" fill="#FF228C"/>
<circle cx="65.3343" cy="59.5655" r="0.87977" transform="rotate(-90 65.3343 59.5655)" fill="url(#paint25_linear_1246_17975)"/>
<circle cx="110.219" cy="78.8585" r="0.87977" transform="rotate(-90 110.219 78.8585)" fill="url(#paint26_linear_1246_17975)"/>
<circle cx="101.933" cy="20.505" r="0.87977" transform="rotate(-90 101.933 20.505)" fill="url(#paint27_linear_1246_17975)"/>
<g style="mix-blend-mode:multiply">
<path d="M50.6302 68.512C50.6257 68.3752 50.6165 68.2384 50.5983 68.1062C50.58 67.9603 50.5618 67.8144 50.5344 67.6685C50.5025 67.5089 50.4661 67.3448 50.425 67.1852C50.3749 67.0028 50.3156 66.8204 50.2472 66.6426C50.1651 66.4192 50.0648 66.2003 49.9508 65.9906C49.7639 65.6395 49.5451 65.3067 49.2852 64.9921C49.121 64.796 48.9432 64.6045 48.7517 64.4267C48.5602 64.2489 48.3551 64.0848 48.1499 63.9343L47.9812 63.7793L47.9584 63.8021L47.7942 63.9799L47.6073 64.1851L47.4204 64.3903L47.2334 64.5954L47.0465 64.8006L46.8596 65.0058L46.6681 65.2109L46.4811 65.4161L46.2897 65.6213L46.1027 65.8265L45.9112 66.0316L45.7243 66.2368L45.5373 66.442L45.3504 66.6472L45.1589 66.8523L44.972 67.0575L44.785 67.2627L44.5935 67.4679L44.4066 67.673L44.2151 67.8782L44.0282 68.0834L43.8413 68.2885L43.6543 68.4937L43.4628 68.6989L43.2759 68.9041L43.0844 69.1093L42.8974 69.3144L42.7105 69.5196L42.5236 69.7248L42.3321 69.9299L42.1451 70.1351L41.9582 70.3403L41.7667 70.5455L41.5798 70.7506L41.3929 70.9558L41.2013 71.161L41.0144 71.3662L40.8275 71.5713L40.6405 71.7765L40.4536 71.9817L40.2666 72.1869L40.1025 72.3647L40.0797 72.392L40.2484 72.547C40.4126 72.7431 40.5904 72.9346 40.7819 73.1124C40.9734 73.2902 41.174 73.4544 41.3837 73.6048C41.7166 73.8419 42.0676 74.038 42.4278 74.1976C42.6466 74.2933 42.8747 74.3754 43.1026 74.4438C43.285 74.4985 43.4719 74.5441 43.6589 74.5805C43.8184 74.6125 43.9826 74.6353 44.1467 74.6535C44.2926 74.6717 44.4431 74.6808 44.589 74.6854C44.7258 74.69 44.8625 74.6854 44.9947 74.6854C45.1224 74.6808 45.2501 74.6717 45.3778 74.658C45.4963 74.6444 45.6148 74.6307 45.7334 74.6124C45.8474 74.5942 45.9614 74.5714 46.0708 74.5486C46.1802 74.5258 46.2851 74.4985 46.39 74.4666C46.4948 74.4392 46.5951 74.4073 46.6955 74.3708C46.7912 74.3389 46.8915 74.3024 46.9872 74.2614C47.0784 74.2249 47.1742 74.1839 47.2654 74.1383C47.3566 74.0972 47.4432 74.0516 47.5298 74.0061C47.6164 73.9605 47.6985 73.9149 47.7851 73.8647C47.8672 73.8146 47.9493 73.7644 48.0268 73.7097C48.1043 73.6595 48.1818 73.6048 48.2593 73.5455C48.3368 73.4908 48.4098 73.4316 48.4827 73.3723C48.5557 73.313 48.624 73.2537 48.697 73.1899C48.7654 73.1306 48.8338 73.0668 48.9022 72.9984C48.966 72.9346 49.0344 72.8662 49.0982 72.7978C49.162 72.7294 49.2213 72.661 49.2806 72.5881C49.3399 72.5151 49.3992 72.4467 49.4539 72.3692C49.5131 72.2963 49.5678 72.2188 49.618 72.1458C49.6727 72.0683 49.7229 71.9908 49.7731 71.9087C49.8232 71.8267 49.8733 71.7446 49.9189 71.6625C49.9645 71.5804 50.0101 71.4938 50.0512 71.4072C50.0968 71.3206 50.1378 71.2294 50.1743 71.1427C50.2153 71.0516 50.2518 70.9604 50.2883 70.8692C50.3247 70.7734 50.3567 70.6777 50.3886 70.5819C50.4205 70.4816 50.4478 70.3813 50.4752 70.281C50.5025 70.1761 50.5253 70.0713 50.5481 69.971C50.5709 69.8615 50.5892 69.7521 50.6028 69.6427C50.6211 69.5287 50.6347 69.4147 50.6439 69.3007C50.653 69.1822 50.6621 69.0591 50.6667 68.9406C50.6667 68.8129 50.6667 68.6852 50.6667 68.5576L50.6302 68.512Z" fill="#D16A0D"/>
</g>
<path d="M42.2728 63.1292C45.2683 61.8663 48.7244 63.2751 49.9828 66.2707C51.2457 69.2662 49.8368 72.7222 46.8413 73.9806C43.8458 75.2436 40.3897 73.8347 39.1313 70.8392C37.8684 67.8437 39.2772 64.3876 42.2728 63.1292Z" fill="url(#paint28_linear_1246_17975)"/>
<g style="mix-blend-mode:screen" opacity="0.5">
<path d="M40.2665 64.5759C42.4733 62.1959 46.1938 62.0546 48.5738 64.2522C48.5738 64.2522 48.5647 64.2431 48.5601 64.2385C46.1755 62.0272 42.4505 62.164 40.2392 64.5486C38.0279 66.9331 38.1646 70.6582 40.5492 72.8695L40.5629 72.8832C38.192 70.6673 38.0598 66.9514 40.2665 64.5759Z" fill="#FEF0A0"/>
</g>
<path d="M47.9264 64.9208C49.9325 66.7856 50.051 69.9225 48.1862 71.9287C46.3214 73.9348 43.1846 74.0533 41.1784 72.1885C39.1723 70.3237 39.0538 67.1869 40.9186 65.1807C42.7834 63.1746 45.9202 63.056 47.9264 64.9208Z" fill="url(#paint29_linear_1246_17975)"/>
<path d="M46.1755 67.566C45.9339 67.4793 45.715 67.4429 45.5235 67.4657C45.3275 67.4839 45.0083 67.5568 44.5569 67.6891C44.0235 67.8395 43.6907 67.917 43.5539 67.9216C43.4125 67.9262 43.2529 67.8441 43.0706 67.6754C42.9611 67.5751 42.8973 67.4793 42.8745 67.3927C42.8517 67.3061 42.8745 67.2286 42.9383 67.1556C43.0204 67.069 43.107 67.0371 43.1937 67.069C43.2803 67.1009 43.4262 67.2103 43.6314 67.4018L43.7089 67.4748L43.6542 67.534L43.8229 67.5796L44.8989 66.4215C44.8077 66.3212 44.7393 66.2528 44.6892 66.2072C44.3472 65.8881 43.9961 65.7285 43.6359 65.7285C43.2757 65.7285 42.9065 65.8835 42.5326 66.1981L42.1632 65.8562L41.9945 65.8106L42.1085 65.9155L41.6663 66.3896L42.0356 66.7316C41.7164 67.1647 41.5659 67.5751 41.5796 67.9535C41.5933 68.3319 41.7757 68.683 42.1222 69.0022C42.3593 69.2256 42.6192 69.376 42.8927 69.4581C43.1663 69.5402 43.4171 69.5675 43.6405 69.5356C43.8639 69.5037 44.2469 69.4171 44.7986 69.2666C45.1269 69.1754 45.3639 69.1663 45.5098 69.2347C45.6557 69.3031 45.8564 69.4581 46.1163 69.6998C46.2211 69.7955 46.2804 69.8867 46.2987 69.9733C46.3169 70.06 46.2895 70.142 46.2166 70.2195C46.1299 70.3107 46.0388 70.3335 45.943 70.2879C45.8473 70.2423 45.6421 70.0736 45.3275 69.7864L45.1907 69.6587L45.0448 69.5219L44.8761 69.4764L44.9901 69.5812L43.9688 70.68L44.1967 70.8898C44.7119 71.3685 45.1816 71.5874 45.6056 71.5509C46.0296 71.5098 46.3989 71.3503 46.7181 71.0721L47.0555 71.3822L47.0008 71.4415L47.1695 71.4871L47.6665 70.9536L47.2287 70.5478C47.5433 70.0964 47.6756 69.6633 47.6254 69.2484C47.5753 68.8335 47.3427 68.4322 46.9278 68.0493C46.6679 67.8076 46.4172 67.648 46.1801 67.5614L46.1755 67.566Z" fill="#D16A0D"/>
<path d="M44.7304 66.3753L43.6544 67.5334L43.4629 67.3556C43.2577 67.1641 43.1118 67.0547 43.0252 67.0228C42.9386 66.9909 42.8519 67.0228 42.7698 67.1094C42.706 67.1778 42.6832 67.2599 42.7015 67.3419C42.7243 67.4286 42.7881 67.5197 42.8975 67.6246C43.0799 67.7933 43.2395 67.8754 43.3808 67.8708C43.5176 67.8708 43.855 67.7888 44.3839 67.6383C44.8353 67.5106 45.159 67.4331 45.3505 67.4149C45.5465 67.3966 45.7608 67.4285 46.0025 67.5152C46.2441 67.6018 46.4949 67.7659 46.7502 68.003C47.1651 68.386 47.3976 68.7873 47.4478 69.2022C47.4979 69.6216 47.3657 70.0548 47.0511 70.5016L47.4889 70.9074L46.9918 71.4408L46.5405 71.0214C46.2213 71.304 45.852 71.4636 45.428 71.5001C45.004 71.5366 44.5344 71.3177 44.0192 70.839L43.7912 70.6293L44.8672 69.4712L45.1499 69.7356C45.4599 70.0229 45.6651 70.1916 45.7654 70.2371C45.8611 70.2827 45.9523 70.2599 46.0389 70.1688C46.1119 70.0912 46.1393 70.0092 46.121 69.9225C46.1028 69.8359 46.0435 69.7447 45.9387 69.649C45.6788 69.4073 45.4736 69.2523 45.3277 69.1839C45.1818 69.1155 44.9447 69.1292 44.6164 69.2158C44.0647 69.3663 43.6817 69.4529 43.4583 69.4848C43.2349 69.5168 42.9887 69.4849 42.7106 69.4073C42.437 69.3253 42.1771 69.1703 41.94 68.9514C41.5935 68.6322 41.4112 68.2812 41.3975 67.9027C41.3838 67.5243 41.5343 67.1185 41.8534 66.6808L41.4841 66.3389L41.9811 65.8054L42.3504 66.1474C42.7288 65.8328 43.0981 65.6777 43.4583 65.6777C43.8185 65.6777 44.1696 65.8419 44.5116 66.1565C44.5571 66.2021 44.6301 66.2705 44.7213 66.3708L44.7304 66.3753Z" fill="white"/>
<g style="mix-blend-mode:screen" opacity="0.7">
<path style="mix-blend-mode:screen" d="M42.3684 66.1454H42.373C42.7013 65.8764 43.0205 65.7214 43.3351 65.6895C43.0205 65.7214 42.6968 65.8718 42.3639 66.1454H42.3684Z" fill="url(#paint30_linear_1246_17975)"/>
<path style="mix-blend-mode:screen" d="M42.9384 67.0155C42.9657 67.0155 42.993 67.0155 43.0204 67.0291C43.1068 67.061 43.2525 67.1702 43.4573 67.3614L43.6485 67.5389V67.5298L43.471 67.3568C43.2661 67.1657 43.1205 67.0564 43.034 67.0246C43.0022 67.0155 42.9703 67.0109 42.943 67.0155H42.9384Z" fill="url(#paint31_linear_1246_17975)"/>
<path style="mix-blend-mode:screen" d="M46.1481 69.9295C46.1299 69.8429 46.0706 69.7517 45.9657 69.6559C45.7058 69.4143 45.5007 69.2593 45.3593 69.1909C45.2727 69.1499 45.1496 69.1362 44.9945 69.1544C45.145 69.1407 45.259 69.1544 45.3456 69.1909C45.4915 69.2593 45.6967 69.4143 45.9566 69.6559C46.0615 69.7517 46.1207 69.8429 46.139 69.9295C46.1572 70.0161 46.1299 70.0982 46.0569 70.1757C46.0068 70.2259 45.9566 70.2578 45.9064 70.2669C45.9657 70.2669 46.0205 70.2304 46.0706 70.1757C46.1436 70.0982 46.1709 70.0161 46.1527 69.9295H46.1481Z" fill="url(#paint32_linear_1246_17975)"/>
<path style="mix-blend-mode:screen" d="M45.3548 67.416C45.1587 67.4343 44.8396 67.5072 44.3882 67.6394C43.9186 67.7717 43.5994 67.8492 43.4399 67.8674C43.5994 67.8537 43.9186 67.7762 44.4019 67.6394C44.8442 67.5118 45.1633 67.4388 45.3594 67.416H45.3548Z" fill="url(#paint33_linear_1246_17975)"/>
<path style="mix-blend-mode:screen" d="M46.5586 71.0293H46.5495L46.9955 71.4481V71.439L46.5586 71.0293Z" fill="url(#paint34_linear_1246_17975)"/>
<path style="mix-blend-mode:screen" d="M45.4505 71.5107C45.0264 71.5472 44.5568 71.3283 44.0416 70.8496L43.8137 70.6399L44.8805 69.4863H44.876L43.8 70.6399L44.0279 70.8496C44.5432 71.3283 45.0128 71.5472 45.4368 71.5107C45.4505 71.5107 45.4642 71.5107 45.4779 71.5107C45.4687 71.5107 45.4596 71.5107 45.4505 71.5107Z" fill="url(#paint35_linear_1246_17975)"/>
<path style="mix-blend-mode:screen" d="M43.4399 69.4972C43.2302 69.5199 42.9976 69.488 42.7423 69.4151C42.4687 69.333 42.2088 69.178 41.9717 68.9591C41.6252 68.64 41.4429 68.2889 41.4292 67.9105C41.4155 67.5321 41.566 67.1263 41.8851 66.6886L41.5158 66.3466L42.0037 65.8223H41.9991L41.5022 66.3512L41.8714 66.6931C41.5523 67.1263 41.4018 67.5366 41.4155 67.915C41.4292 68.2935 41.6116 68.6445 41.9581 68.9637C42.1952 69.1871 42.4551 69.3376 42.7286 69.4196C42.9885 69.4972 43.2256 69.5245 43.4399 69.5017V69.4972Z" fill="url(#paint36_linear_1246_17975)"/>
</g>
<path d="M54.0285 104.704C54.6245 104.754 55.0913 105.221 55.141 105.817L55.1907 106.512H55.3198L55.3696 105.817C55.4192 105.221 55.886 104.754 56.482 104.704L57.1772 104.654V104.525L56.482 104.476C55.886 104.426 55.4192 103.959 55.3696 103.363L55.3198 102.668H55.1907L55.141 103.363C55.0913 103.959 54.6245 104.426 54.0285 104.476L53.3333 104.525V104.654L54.0285 104.704Z" fill="white"/>
<path d="M39.8863 103.523C40.9161 103.604 41.729 104.417 41.8103 105.447L41.8917 106.667H42.1083L42.1897 105.447C42.271 104.417 43.0839 103.604 44.1137 103.523L45.3333 103.442V103.225L44.1137 103.144C43.0839 103.062 42.271 102.249 42.1897 101.22L42.1083 100H41.8917L41.8103 101.22C41.729 102.249 40.9161 103.062 39.8863 103.144L38.6667 103.225V103.442L39.8863 103.523Z" fill="white"/>
<path d="M90.8033 65.5653C92.0846 65.6646 93.0879 66.6678 93.1872 67.9491L93.2964 69.4192H93.4553L93.5646 67.9491C93.664 66.6678 94.6671 65.6646 95.9484 65.5653L97.4184 65.456V65.2971L95.9484 65.1879C94.6671 65.0885 93.664 64.0853 93.5646 62.804L93.4553 61.334H93.2964L93.1872 62.804C93.0879 64.0853 92.0846 65.0885 90.8033 65.1879L89.3333 65.2971V65.456L90.8033 65.5653Z" fill="white"/>
<path d="M99.2579 49.8761C102.109 49.6575 104.324 47.4326 104.542 44.5919L104.79 41.334H105.148L105.396 44.5919C105.615 47.4426 107.84 49.6575 110.68 49.8761L113.938 50.1244V50.4819L110.68 50.7303C107.83 50.9488 105.615 53.1737 105.396 56.0144L105.148 59.2723H104.79L104.542 56.0144C104.324 53.1638 102.099 50.9488 99.2579 50.7303L96 50.4819V50.1244L99.2579 49.8761Z" fill="white"/>
<defs>
<filter id="filter0_d_1246_17975" x="32" y="113.334" width="25.8348" height="21.1641" filterUnits="userSpaceOnUse" color-interpolation-filters="sRGB">
<feFlood flood-opacity="0" result="BackgroundImageFix"/>
<feColorMatrix in="SourceAlpha" type="matrix" values="0 0 0 0 0 0 0 0 0 0 0 0 0 0 0 0 0 0 127 0" result="hardAlpha"/>
<feOffset dy="4"/>
<feGaussianBlur stdDeviation="2"/>
<feComposite in2="hardAlpha" operator="out"/>
<feColorMatrix type="matrix" values="0 0 0 0 0 0 0 0 0 0 0 0 0 0 0 0 0 0 0.25 0"/>
<feBlend mode="normal" in2="BackgroundImageFix" result="effect1_dropShadow_1246_17975"/>
<feBlend mode="normal" in="SourceGraphic" in2="effect1_dropShadow_1246_17975" result="shape"/>
</filter>
<filter id="filter1_d_1246_17975" x="131.547" y="80.2793" width="16.9066" height="17.9805" filterUnits="userSpaceOnUse" color-interpolation-filters="sRGB">
<feFlood flood-opacity="0" result="BackgroundImageFix"/>
<feColorMatrix in="SourceAlpha" type="matrix" values="0 0 0 0 0 0 0 0 0 0 0 0 0 0 0 0 0 0 127 0" result="hardAlpha"/>
<feOffset dy="4"/>
<feGaussianBlur stdDeviation="2"/>
<feComposite in2="hardAlpha" operator="out"/>
<feColorMatrix type="matrix" values="0 0 0 0 0 0 0 0 0 0 0 0 0 0 0 0 0 0 0.25 0"/>
<feBlend mode="normal" in2="BackgroundImageFix" result="effect1_dropShadow_1246_17975"/>
<feBlend mode="normal" in="SourceGraphic" in2="effect1_dropShadow_1246_17975" result="shape"/>
</filter>
<filter id="filter2_b_1246_17975" x="-8.66666" y="15.334" width="176.111" height="132.234" filterUnits="userSpaceOnUse" color-interpolation-filters="sRGB">
<feFlood flood-opacity="0" result="BackgroundImageFix"/>
<feGaussianBlur in="BackgroundImageFix" stdDeviation="25"/>
<feComposite in2="SourceAlpha" operator="in" result="effect1_backgroundBlur_1246_17975"/>
<feBlend mode="normal" in="SourceGraphic" in2="effect1_backgroundBlur_1246_17975" result="shape"/>
</filter>
<linearGradient id="paint0_linear_1246_17975" x1="127.319" y1="50.9121" x2="34.0144" y2="110.421" gradientUnits="userSpaceOnUse">
<stop stop-color="#882AFF"/>
<stop offset="1" stop-color="#6255FF"/>
</linearGradient>
<linearGradient id="paint1_linear_1246_17975" x1="108.333" y1="32.7467" x2="53" y2="128.587" gradientUnits="userSpaceOnUse">
<stop stop-color="#882AFF"/>
<stop offset="1" stop-color="#6255FF"/>
</linearGradient>
<linearGradient id="paint2_linear_1246_17975" x1="39.4309" y1="116.654" x2="47.7842" y2="125.152" gradientUnits="userSpaceOnUse">
<stop stop-color="#FFD08D"/>
<stop offset="0.58" stop-color="#FFDC2A"/>
<stop offset="0.81" stop-color="#F3C237"/>
<stop offset="1" stop-color="#EBB140"/>
</linearGradient>
<linearGradient id="paint3_linear_1246_17975" x1="46.4838" y1="123.783" x2="43.1912" y2="115.605" gradientUnits="userSpaceOnUse">
<stop stop-color="#F0C827"/>
<stop offset="0.08" stop-color="#E9BE25"/>
<stop offset="0.22" stop-color="#E2B424"/>
<stop offset="0.38" stop-color="#EECA46"/>
<stop offset="0.57" stop-color="#FAE168"/>
<stop offset="0.68" stop-color="#FFEA76"/>
<stop offset="0.74" stop-color="#FDE770"/>
<stop offset="0.82" stop-color="#FBE161"/>
<stop offset="0.91" stop-color="#F6D647"/>
<stop offset="1" stop-color="#F0C827"/>
</linearGradient>
<linearGradient id="paint4_linear_1246_17975" x1="46.4838" y1="123.783" x2="43.1912" y2="115.605" gradientUnits="userSpaceOnUse">
<stop stop-color="#FFD08D"/>
<stop offset="0.58" stop-color="#FFAF2A"/>
<stop offset="0.71" stop-color="#F8A631"/>
<stop offset="1" stop-color="#EC9540"/>
</linearGradient>
<linearGradient id="paint5_linear_1246_17975" x1="44.997" y1="116.879" x2="44.8686" y2="116.56" gradientUnits="userSpaceOnUse">
<stop offset="0.04" stop-color="#F8DA36"/>
<stop offset="0.11" stop-color="#F1CD21"/>
<stop offset="0.19" stop-color="#EBC412"/>
<stop offset="0.28" stop-color="#E8BE09"/>
<stop offset="0.42" stop-color="#E8BD07"/>
<stop offset="0.51" stop-color="#EFCB1B"/>
<stop offset="0.64" stop-color="#F8DB33"/>
<stop offset="0.77" stop-color="#FDE542"/>
<stop offset="0.87" stop-color="#FFE947"/>
<stop offset="1" stop-color="#FFEC63"/>
</linearGradient>
<linearGradient id="paint6_linear_1246_17975" x1="44.4909" y1="118.462" x2="44.2086" y2="117.761" gradientUnits="userSpaceOnUse">
<stop offset="0.04" stop-color="#F8DA36"/>
<stop offset="0.11" stop-color="#F1CD21"/>
<stop offset="0.19" stop-color="#EBC412"/>
<stop offset="0.28" stop-color="#E8BE09"/>
<stop offset="0.42" stop-color="#E8BD07"/>
<stop offset="0.51" stop-color="#EFCB1B"/>
<stop offset="0.64" stop-color="#F8DB33"/>
<stop offset="0.77" stop-color="#FDE542"/>
<stop offset="0.87" stop-color="#FFE947"/>
<stop offset="1" stop-color="#FFEC63"/>
</linearGradient>
<linearGradient id="paint7_linear_1246_17975" x1="45.3763" y1="121.413" x2="44.8999" y2="120.23" gradientUnits="userSpaceOnUse">
<stop offset="0.04" stop-color="#F8DA36"/>
<stop offset="0.11" stop-color="#F1CD21"/>
<stop offset="0.19" stop-color="#EBC412"/>
<stop offset="0.28" stop-color="#E8BE09"/>
<stop offset="0.42" stop-color="#E8BD07"/>
<stop offset="0.51" stop-color="#EFCB1B"/>
<stop offset="0.64" stop-color="#F8DB33"/>
<stop offset="0.77" stop-color="#FDE542"/>
<stop offset="0.87" stop-color="#FFE947"/>
<stop offset="1" stop-color="#FFEC63"/>
</linearGradient>
<linearGradient id="paint8_linear_1246_17975" x1="45.5408" y1="119.122" x2="45.1868" y2="118.242" gradientUnits="userSpaceOnUse">
<stop offset="0.04" stop-color="#F8DA36"/>
<stop offset="0.11" stop-color="#F1CD21"/>
<stop offset="0.19" stop-color="#EBC412"/>
<stop offset="0.28" stop-color="#E8BE09"/>
<stop offset="0.42" stop-color="#E8BD07"/>
<stop offset="0.51" stop-color="#EFCB1B"/>
<stop offset="0.64" stop-color="#F8DB33"/>
<stop offset="0.77" stop-color="#FDE542"/>
<stop offset="0.87" stop-color="#FFE947"/>
<stop offset="1" stop-color="#FFEC63"/>
</linearGradient>
<linearGradient id="paint9_linear_1246_17975" x1="45.3617" y1="122.856" x2="45.1661" y2="122.37" gradientUnits="userSpaceOnUse">
<stop offset="0.04" stop-color="#F8DA36"/>
<stop offset="0.11" stop-color="#F1CD21"/>
<stop offset="0.19" stop-color="#EBC412"/>
<stop offset="0.28" stop-color="#E8BE09"/>
<stop offset="0.42" stop-color="#E8BD07"/>
<stop offset="0.51" stop-color="#EFCB1B"/>
<stop offset="0.64" stop-color="#F8DB33"/>
<stop offset="0.77" stop-color="#FDE542"/>
<stop offset="0.87" stop-color="#FFE947"/>
<stop offset="1" stop-color="#FFEC63"/>
</linearGradient>
<linearGradient id="paint10_linear_1246_17975" x1="43.8773" y1="122.457" x2="43.2925" y2="121.004" gradientUnits="userSpaceOnUse">
<stop offset="0.04" stop-color="#F8DA36"/>
<stop offset="0.11" stop-color="#F1CD21"/>
<stop offset="0.19" stop-color="#EBC412"/>
<stop offset="0.28" stop-color="#E8BE09"/>
<stop offset="0.42" stop-color="#E8BD07"/>
<stop offset="0.51" stop-color="#EFCB1B"/>
<stop offset="0.64" stop-color="#F8DB33"/>
<stop offset="0.77" stop-color="#FDE542"/>
<stop offset="0.87" stop-color="#FFE947"/>
<stop offset="1" stop-color="#FFEC63"/>
</linearGradient>
<linearGradient id="paint11_linear_1246_17975" x1="43.4604" y1="119.97" x2="42.3126" y2="117.12" gradientUnits="userSpaceOnUse">
<stop offset="0.04" stop-color="#F8DA36"/>
<stop offset="0.11" stop-color="#F1CD21"/>
<stop offset="0.19" stop-color="#EBC412"/>
<stop offset="0.28" stop-color="#E8BE09"/>
<stop offset="0.42" stop-color="#E8BD07"/>
<stop offset="0.51" stop-color="#EFCB1B"/>
<stop offset="0.64" stop-color="#F8DB33"/>
<stop offset="0.77" stop-color="#FDE542"/>
<stop offset="0.87" stop-color="#FFE947"/>
<stop offset="1" stop-color="#FFEC63"/>
</linearGradient>
<linearGradient id="paint12_linear_1246_17975" x1="141.035" y1="81.5952" x2="137.419" y2="87.7364" gradientUnits="userSpaceOnUse">
<stop stop-color="#FFD08D"/>
<stop offset="0.58" stop-color="#FFDC2A"/>
<stop offset="0.81" stop-color="#F3C237"/>
<stop offset="1" stop-color="#EBB140"/>
</linearGradient>
<linearGradient id="paint13_linear_1246_17975" x1="138.008" y1="86.7738" x2="142.223" y2="83.6057" gradientUnits="userSpaceOnUse">
<stop stop-color="#F0C827"/>
<stop offset="0.08" stop-color="#E9BE25"/>
<stop offset="0.22" stop-color="#E2B424"/>
<stop offset="0.38" stop-color="#EECA46"/>
<stop offset="0.57" stop-color="#FAE168"/>
<stop offset="0.68" stop-color="#FFEA76"/>
<stop offset="0.74" stop-color="#FDE770"/>
<stop offset="0.82" stop-color="#FBE161"/>
<stop offset="0.91" stop-color="#F6D647"/>
<stop offset="1" stop-color="#F0C827"/>
</linearGradient>
<linearGradient id="paint14_linear_1246_17975" x1="138.008" y1="86.7738" x2="142.223" y2="83.6057" gradientUnits="userSpaceOnUse">
<stop stop-color="#FFD08D"/>
<stop offset="0.58" stop-color="#FFAF2A"/>
<stop offset="0.71" stop-color="#F8A631"/>
<stop offset="1" stop-color="#EC9540"/>
</linearGradient>
<linearGradient id="paint15_linear_1246_17975" x1="141.767" y1="84.8464" x2="141.931" y2="84.7228" gradientUnits="userSpaceOnUse">
<stop offset="0.04" stop-color="#F8DA36"/>
<stop offset="0.11" stop-color="#F1CD21"/>
<stop offset="0.19" stop-color="#EBC412"/>
<stop offset="0.28" stop-color="#E8BE09"/>
<stop offset="0.42" stop-color="#E8BD07"/>
<stop offset="0.51" stop-color="#EFCB1B"/>
<stop offset="0.64" stop-color="#F8DB33"/>
<stop offset="0.77" stop-color="#FDE542"/>
<stop offset="0.87" stop-color="#FFE947"/>
<stop offset="1" stop-color="#FFEC63"/>
</linearGradient>
<linearGradient id="paint16_linear_1246_17975" x1="140.774" y1="84.7977" x2="141.135" y2="84.5261" gradientUnits="userSpaceOnUse">
<stop offset="0.04" stop-color="#F8DA36"/>
<stop offset="0.11" stop-color="#F1CD21"/>
<stop offset="0.19" stop-color="#EBC412"/>
<stop offset="0.28" stop-color="#E8BE09"/>
<stop offset="0.42" stop-color="#E8BD07"/>
<stop offset="0.51" stop-color="#EFCB1B"/>
<stop offset="0.64" stop-color="#F8DB33"/>
<stop offset="0.77" stop-color="#FDE542"/>
<stop offset="0.87" stop-color="#FFE947"/>
<stop offset="1" stop-color="#FFEC63"/>
</linearGradient>
<linearGradient id="paint17_linear_1246_17975" x1="139.207" y1="85.7674" x2="139.817" y2="85.309" gradientUnits="userSpaceOnUse">
<stop offset="0.04" stop-color="#F8DA36"/>
<stop offset="0.11" stop-color="#F1CD21"/>
<stop offset="0.19" stop-color="#EBC412"/>
<stop offset="0.28" stop-color="#E8BE09"/>
<stop offset="0.42" stop-color="#E8BD07"/>
<stop offset="0.51" stop-color="#EFCB1B"/>
<stop offset="0.64" stop-color="#F8DB33"/>
<stop offset="0.77" stop-color="#FDE542"/>
<stop offset="0.87" stop-color="#FFE947"/>
<stop offset="1" stop-color="#FFEC63"/>
</linearGradient>
<linearGradient id="paint18_linear_1246_17975" x1="140.556" y1="85.5072" x2="141.009" y2="85.1666" gradientUnits="userSpaceOnUse">
<stop offset="0.04" stop-color="#F8DA36"/>
<stop offset="0.11" stop-color="#F1CD21"/>
<stop offset="0.19" stop-color="#EBC412"/>
<stop offset="0.28" stop-color="#E8BE09"/>
<stop offset="0.42" stop-color="#E8BD07"/>
<stop offset="0.51" stop-color="#EFCB1B"/>
<stop offset="0.64" stop-color="#F8DB33"/>
<stop offset="0.77" stop-color="#FDE542"/>
<stop offset="0.87" stop-color="#FFE947"/>
<stop offset="1" stop-color="#FFEC63"/>
</linearGradient>
<linearGradient id="paint19_linear_1246_17975" x1="138.371" y1="85.9807" x2="138.621" y2="85.7925" gradientUnits="userSpaceOnUse">
<stop offset="0.04" stop-color="#F8DA36"/>
<stop offset="0.11" stop-color="#F1CD21"/>
<stop offset="0.19" stop-color="#EBC412"/>
<stop offset="0.28" stop-color="#E8BE09"/>
<stop offset="0.42" stop-color="#E8BD07"/>
<stop offset="0.51" stop-color="#EFCB1B"/>
<stop offset="0.64" stop-color="#F8DB33"/>
<stop offset="0.77" stop-color="#FDE542"/>
<stop offset="0.87" stop-color="#FFE947"/>
<stop offset="1" stop-color="#FFEC63"/>
</linearGradient>
<linearGradient id="paint20_linear_1246_17975" x1="138.372" y1="85.0617" x2="139.121" y2="84.499" gradientUnits="userSpaceOnUse">
<stop offset="0.04" stop-color="#F8DA36"/>
<stop offset="0.11" stop-color="#F1CD21"/>
<stop offset="0.19" stop-color="#EBC412"/>
<stop offset="0.28" stop-color="#E8BE09"/>
<stop offset="0.42" stop-color="#E8BD07"/>
<stop offset="0.51" stop-color="#EFCB1B"/>
<stop offset="0.64" stop-color="#F8DB33"/>
<stop offset="0.77" stop-color="#FDE542"/>
<stop offset="0.87" stop-color="#FFE947"/>
<stop offset="1" stop-color="#FFEC63"/>
</linearGradient>
<linearGradient id="paint21_linear_1246_17975" x1="139.743" y1="84.4364" x2="141.213" y2="83.332" gradientUnits="userSpaceOnUse">
<stop offset="0.04" stop-color="#F8DA36"/>
<stop offset="0.11" stop-color="#F1CD21"/>
<stop offset="0.19" stop-color="#EBC412"/>
<stop offset="0.28" stop-color="#E8BE09"/>
<stop offset="0.42" stop-color="#E8BD07"/>
<stop offset="0.51" stop-color="#EFCB1B"/>
<stop offset="0.64" stop-color="#F8DB33"/>
<stop offset="0.77" stop-color="#FDE542"/>
<stop offset="0.87" stop-color="#FFE947"/>
<stop offset="1" stop-color="#FFEC63"/>
</linearGradient>
<linearGradient id="paint22_linear_1246_17975" x1="60.9405" y1="53.8123" x2="72.709" y2="57.8052" gradientUnits="userSpaceOnUse">
<stop stop-color="#FA6045"/>
<stop offset="1" stop-color="#C9290C"/>
</linearGradient>
<linearGradient id="paint23_linear_1246_17975" x1="134.678" y1="60.0812" x2="120.608" y2="65.2008" gradientUnits="userSpaceOnUse">
<stop stop-color="#FFCA7D"/>
<stop offset="1" stop-color="#FFA422"/>
</linearGradient>
<linearGradient id="paint24_linear_1246_17975" x1="79.3889" y1="65.334" x2="79.3889" y2="97.5693" gradientUnits="userSpaceOnUse">
<stop stop-color="#FF6856"/>
<stop offset="1" stop-color="#DA2604"/>
</linearGradient>
<linearGradient id="paint25_linear_1246_17975" x1="65.3343" y1="58.6858" x2="65.3343" y2="60.4453" gradientUnits="userSpaceOnUse">
<stop stop-color="#882AFF"/>
<stop offset="1" stop-color="#6255FF"/>
</linearGradient>
<linearGradient id="paint26_linear_1246_17975" x1="110.219" y1="77.9787" x2="110.219" y2="79.7383" gradientUnits="userSpaceOnUse">
<stop stop-color="#882AFF"/>
<stop offset="1" stop-color="#6255FF"/>
</linearGradient>
<linearGradient id="paint27_linear_1246_17975" x1="101.933" y1="19.6252" x2="101.933" y2="21.3848" gradientUnits="userSpaceOnUse">
<stop stop-color="#882AFF"/>
<stop offset="1" stop-color="#6255FF"/>
</linearGradient>
<linearGradient id="paint28_linear_1246_17975" x1="41.0289" y1="73.2728" x2="48.1495" y2="63.8857" gradientUnits="userSpaceOnUse">
<stop stop-color="#FFD08D"/>
<stop offset="0.58" stop-color="#FFDC2A"/>
<stop offset="0.81" stop-color="#F3C237"/>
<stop offset="1" stop-color="#EBB140"/>
</linearGradient>
<linearGradient id="paint29_linear_1246_17975" x1="48.2607" y1="71.882" x2="40.9894" y2="65.1322" gradientUnits="userSpaceOnUse">
<stop stop-color="#FFAA3F"/>
<stop offset="0.58" stop-color="#FFAF2A"/>
<stop offset="0.71" stop-color="#F8A631"/>
<stop offset="1" stop-color="#EC9540"/>
</linearGradient>
<linearGradient id="paint30_linear_1246_17975" x1="43.0737" y1="66.0058" x2="42.7797" y2="65.7329" gradientUnits="userSpaceOnUse">
<stop offset="0.04" stop-color="#F8DA36"/>
<stop offset="0.11" stop-color="#F1CD21"/>
<stop offset="0.19" stop-color="#EBC412"/>
<stop offset="0.28" stop-color="#E8BE09"/>
<stop offset="0.42" stop-color="#E8BD07"/>
<stop offset="0.51" stop-color="#EFCB1B"/>
<stop offset="0.64" stop-color="#F8DB33"/>
<stop offset="0.77" stop-color="#FDE542"/>
<stop offset="0.87" stop-color="#FFE947"/>
<stop offset="1" stop-color="#FFEC63"/>
</linearGradient>
<linearGradient id="paint31_linear_1246_17975" x1="43.6934" y1="67.52" x2="43.0496" y2="66.9223" gradientUnits="userSpaceOnUse">
<stop offset="0.04" stop-color="#F8DA36"/>
<stop offset="0.11" stop-color="#F1CD21"/>
<stop offset="0.19" stop-color="#EBC412"/>
<stop offset="0.28" stop-color="#E8BE09"/>
<stop offset="0.42" stop-color="#E8BD07"/>
<stop offset="0.51" stop-color="#EFCB1B"/>
<stop offset="0.64" stop-color="#F8DB33"/>
<stop offset="0.77" stop-color="#FDE542"/>
<stop offset="0.87" stop-color="#FFE947"/>
<stop offset="1" stop-color="#FFEC63"/>
</linearGradient>
<linearGradient id="paint32_linear_1246_17975" x1="46.1802" y1="70.0777" x2="45.0942" y2="69.0696" gradientUnits="userSpaceOnUse">
<stop offset="0.04" stop-color="#F8DA36"/>
<stop offset="0.11" stop-color="#F1CD21"/>
<stop offset="0.19" stop-color="#EBC412"/>
<stop offset="0.28" stop-color="#E8BE09"/>
<stop offset="0.42" stop-color="#E8BD07"/>
<stop offset="0.51" stop-color="#EFCB1B"/>
<stop offset="0.64" stop-color="#F8DB33"/>
<stop offset="0.77" stop-color="#FDE542"/>
<stop offset="0.87" stop-color="#FFE947"/>
<stop offset="1" stop-color="#FFEC63"/>
</linearGradient>
<linearGradient id="paint33_linear_1246_17975" x1="44.8693" y1="67.9637" x2="44.0639" y2="67.2161" gradientUnits="userSpaceOnUse">
<stop offset="0.04" stop-color="#F8DA36"/>
<stop offset="0.11" stop-color="#F1CD21"/>
<stop offset="0.19" stop-color="#EBC412"/>
<stop offset="0.28" stop-color="#E8BE09"/>
<stop offset="0.42" stop-color="#E8BD07"/>
<stop offset="0.51" stop-color="#EFCB1B"/>
<stop offset="0.64" stop-color="#F8DB33"/>
<stop offset="0.77" stop-color="#FDE542"/>
<stop offset="0.87" stop-color="#FFE947"/>
<stop offset="1" stop-color="#FFEC63"/>
</linearGradient>
<linearGradient id="paint34_linear_1246_17975" x1="47.0706" y1="71.3967" x2="46.6269" y2="70.9849" gradientUnits="userSpaceOnUse">
<stop offset="0.04" stop-color="#F8DA36"/>
<stop offset="0.11" stop-color="#F1CD21"/>
<stop offset="0.19" stop-color="#EBC412"/>
<stop offset="0.28" stop-color="#E8BE09"/>
<stop offset="0.42" stop-color="#E8BD07"/>
<stop offset="0.51" stop-color="#EFCB1B"/>
<stop offset="0.64" stop-color="#F8DB33"/>
<stop offset="0.77" stop-color="#FDE542"/>
<stop offset="0.87" stop-color="#FFE947"/>
<stop offset="1" stop-color="#FFEC63"/>
</linearGradient>
<linearGradient id="paint35_linear_1246_17975" x1="45.743" y1="71.2448" x2="44.4097" y2="70.0071" gradientUnits="userSpaceOnUse">
<stop offset="0.04" stop-color="#F8DA36"/>
<stop offset="0.11" stop-color="#F1CD21"/>
<stop offset="0.19" stop-color="#EBC412"/>
<stop offset="0.28" stop-color="#E8BE09"/>
<stop offset="0.42" stop-color="#E8BD07"/>
<stop offset="0.51" stop-color="#EFCB1B"/>
<stop offset="0.64" stop-color="#F8DB33"/>
<stop offset="0.77" stop-color="#FDE542"/>
<stop offset="0.87" stop-color="#FFE947"/>
<stop offset="1" stop-color="#FFEC63"/>
</linearGradient>
<linearGradient id="paint36_linear_1246_17975" x1="43.8868" y1="69.0443" x2="41.2703" y2="66.6155" gradientUnits="userSpaceOnUse">
<stop offset="0.04" stop-color="#F8DA36"/>
<stop offset="0.11" stop-color="#F1CD21"/>
<stop offset="0.19" stop-color="#EBC412"/>
<stop offset="0.28" stop-color="#E8BE09"/>
<stop offset="0.42" stop-color="#E8BD07"/>
<stop offset="0.51" stop-color="#EFCB1B"/>
<stop offset="0.64" stop-color="#F8DB33"/>
<stop offset="0.77" stop-color="#FDE542"/>
<stop offset="0.87" stop-color="#FFE947"/>
<stop offset="1" stop-color="#FFEC63"/>
</linearGradient>
</defs>
</svg>
