<svg width="112" height="124" viewBox="0 0 112 124" fill="none" xmlns="http://www.w3.org/2000/svg">
<path d="M52.2401 113.652C64.5498 113.652 74.5288 112.906 74.5288 111.986C74.5288 111.066 64.5498 110.32 52.2401 110.32C39.9303 110.32 29.9513 111.066 29.9513 111.986C29.9513 112.906 39.9303 113.652 52.2401 113.652Z" fill="url(#paint0_radial_1246_31600)"/>
<path d="M52.2401 34.5312C43.0089 34.5312 34.4463 37.7887 28.4097 43.8224C22.3546 49.856 19.0856 58.3698 19.0856 67.5683C19.0856 76.7669 22.3546 85.2992 28.4097 91.3143C34.4648 97.348 43.0089 100.605 52.2401 100.605C61.4714 100.605 70.034 97.348 76.0705 91.3143C82.1257 85.2807 85.3947 76.7669 85.3947 67.5683C85.3947 58.3698 82.1257 49.8375 76.0705 43.8224C70.0154 37.7887 61.4714 34.5312 52.2401 34.5312Z" fill="url(#paint1_linear_1246_31600)"/>
<path d="M52.2401 40.084C44.5504 40.084 37.4366 42.7862 32.4031 47.8019C27.3695 52.8176 24.6577 59.9062 24.6577 67.5686C24.6577 75.231 27.3695 82.3196 32.4031 87.3353C37.4366 92.3511 44.5504 95.0533 52.2401 95.0533C59.9297 95.0533 67.0435 92.3511 72.0771 87.3353C77.1106 82.3196 79.8224 75.231 79.8224 67.5686C79.8224 59.9062 77.1106 52.8176 72.0771 47.8019C67.0435 42.7862 59.9297 40.084 52.2401 40.084Z" fill="url(#paint2_linear_1246_31600)"/>
<path d="M54.7104 84.171V89.779H49.3611V84.5597C45.702 84.4486 42.1544 83.4122 40.0741 82.2832L41.7086 75.9164C44.0118 77.1749 47.2251 78.3039 50.7727 78.3039C51.3114 78.3039 51.7757 78.2114 52.2401 78.1559C54.5247 77.8042 56.0663 76.6937 56.0663 74.9354C56.0663 73.1772 54.8218 72.0852 52.2401 70.9932C51.6271 70.7341 50.9956 70.475 50.2155 70.1973C44.3647 68.2355 40.3713 65.5148 40.3713 60.2399C40.3713 55.3908 43.7517 51.6336 49.6025 50.5417V45.3594H54.9519V50.153C58.6109 50.264 61.0813 51.0784 62.9201 51.9483L61.2856 58.093C59.9297 57.4452 57.3479 56.1867 53.4102 56.1867C52.9273 56.1867 52.6115 56.2792 52.2029 56.3347C49.6768 56.6679 48.711 57.9634 48.711 59.296C48.711 60.6286 49.7697 61.5725 52.2029 62.683C53.0573 63.0717 54.0603 63.4789 55.2676 63.9231C61.8242 66.2181 64.3874 69.1979 64.3874 74.1581C64.3874 79.1183 61.007 83.079 54.6547 84.171H54.7104Z" fill="url(#paint3_linear_1246_31600)"/>
<path d="M27.3771 108.257L26.1296 110.292L44.6884 121.544L45.9482 119.516C47.8717 116.498 45.2722 111.539 40.147 108.43C35.0219 105.32 29.3006 105.24 27.3771 108.257Z" fill="#E69D25"/>
<path d="M38.7398 110.701C43.865 113.81 46.4645 118.776 44.541 121.787C42.6175 124.804 36.9024 124.724 31.771 121.615C26.6458 118.505 24.0463 113.54 25.9698 110.529C27.8933 107.517 33.6085 107.591 38.7398 110.701Z" fill="#F2D25E"/>
<path d="M32.2135 121.585C27.0883 118.476 24.4888 113.51 26.4123 110.499C27.2174 109.239 28.6799 108.526 30.4805 108.336C28.4771 108.447 26.8425 109.172 25.976 110.53C24.0525 113.547 26.652 118.506 31.7772 121.616C34.7638 123.429 37.9532 124.209 40.4789 123.951C38.0331 124.086 35.0342 123.294 32.2135 121.585Z" fill="#F5E378"/>
<path d="M42.7035 120.594C41.2717 122.837 36.8655 122.702 32.8833 120.287C28.9011 117.872 26.8302 114.08 28.262 111.837C29.6939 109.594 34.1001 109.73 38.0822 112.145C42.0644 114.56 44.1354 118.351 42.7035 120.594Z" fill="#F5E378"/>
<path d="M42.4823 120.542C41.0505 122.785 36.6443 122.65 32.6621 120.234C28.6799 117.819 26.609 114.028 28.0408 111.785C29.4727 109.542 33.8789 109.677 37.861 112.092C41.8432 114.507 43.9142 118.299 42.4823 120.542Z" fill="#EBAE39"/>
<path d="M42.3779 119.871C40.946 122.114 36.5398 121.979 32.5577 119.564C29.8722 117.936 28.0593 115.68 27.5984 113.695C27.7582 115.822 29.6755 118.415 32.6621 120.228C36.6443 122.643 41.0505 122.778 42.4823 120.535C42.9494 119.804 43.0416 118.907 42.8203 117.954C42.8756 118.661 42.7343 119.312 42.3779 119.871Z" fill="#CC8420"/>
<path d="M31.9183 113.374C32.1027 113.214 32.3116 113.092 32.539 113.006C32.7664 112.919 32.9999 112.864 33.2334 112.846C33.4669 112.827 33.6943 112.833 33.9155 112.876C34.1368 112.913 34.3334 112.981 34.5055 113.073C34.5669 113.11 34.61 113.153 34.6345 113.208C34.6591 113.264 34.6653 113.307 34.6407 113.344L34.1368 114.222C34.0999 114.284 34.0569 114.327 34.0077 114.351C33.9586 114.376 33.8971 114.394 33.8234 114.401C33.7988 114.401 33.7496 114.401 33.6882 114.407C33.6267 114.407 33.553 114.425 33.4731 114.45C33.3932 114.474 33.3133 114.517 33.2334 114.579C33.1535 114.64 33.0798 114.726 33.0122 114.843C32.963 114.929 32.9261 115.015 32.8954 115.101C32.8647 115.187 32.8524 115.273 32.8524 115.353C32.8524 115.433 32.877 115.513 32.92 115.587C32.963 115.66 33.0368 115.728 33.1351 115.783C33.2334 115.839 33.3256 115.869 33.4178 115.857C33.5099 115.857 33.6083 115.814 33.725 115.746C33.8418 115.679 33.9708 115.574 34.1183 115.439C34.2658 115.304 34.444 115.132 34.6591 114.929C34.8742 114.726 35.0893 114.56 35.3044 114.444C35.5195 114.327 35.7468 114.253 35.9865 114.222C36.2262 114.198 36.472 114.222 36.7362 114.29C36.9943 114.357 37.2832 114.487 37.5904 114.659C37.867 114.818 38.1005 114.997 38.2849 115.199C38.4754 115.402 38.6167 115.623 38.7212 115.851C38.8256 116.084 38.881 116.324 38.8932 116.576C38.9055 116.828 38.8748 117.08 38.8011 117.326L39.5016 117.731C39.5754 117.774 39.6245 117.823 39.6553 117.891C39.686 117.959 39.6921 118.014 39.6553 118.063L39.1513 118.942C39.1206 118.991 39.0715 119.016 38.9977 119.022C38.924 119.022 38.8502 119.009 38.7826 118.966L38.0575 118.549C37.8608 118.721 37.6519 118.856 37.4184 118.948C37.1848 119.04 36.9452 119.102 36.7055 119.126C36.4658 119.151 36.2262 119.139 35.9865 119.089C35.7468 119.04 35.5256 118.96 35.3228 118.85C35.2614 118.819 35.2245 118.77 35.1938 118.721C35.1692 118.665 35.163 118.622 35.1876 118.585L35.6915 117.707C35.7284 117.645 35.7653 117.602 35.8083 117.578C35.8513 117.553 35.9066 117.541 35.9742 117.528C36.0111 117.528 36.0664 117.528 36.1463 117.522C36.2262 117.522 36.3122 117.504 36.4105 117.485C36.5089 117.461 36.6072 117.418 36.7055 117.35C36.8038 117.283 36.8899 117.184 36.9698 117.049C37.105 116.816 37.1787 116.594 37.1971 116.392C37.2094 116.189 37.1234 116.029 36.9267 115.918C36.8284 115.863 36.7301 115.845 36.6318 115.863C36.5334 115.882 36.4228 115.937 36.2999 116.017C36.177 116.103 36.0418 116.22 35.882 116.367C35.7284 116.521 35.5379 116.693 35.3167 116.895C34.9111 117.277 34.4748 117.473 34.02 117.492C33.5591 117.51 33.049 117.356 32.4837 117.031C32.2563 116.902 32.0474 116.742 31.8691 116.564C31.6909 116.385 31.5434 116.189 31.4267 115.974C31.3099 115.765 31.2362 115.537 31.1932 115.304C31.1501 115.07 31.1563 114.831 31.1932 114.585L30.4619 114.167C30.3881 114.124 30.339 114.075 30.3082 114.007C30.2775 113.94 30.2714 113.884 30.3082 113.835L30.8121 112.956C30.8429 112.907 30.892 112.883 30.9658 112.876C31.0395 112.876 31.1133 112.889 31.1809 112.932L31.9183 113.356V113.374Z" fill="#CC8420"/>
<path d="M31.8016 113.546C31.9859 113.386 32.1949 113.263 32.4223 113.177C32.6496 113.091 32.8832 113.036 33.1167 113.018C33.3502 112.999 33.5776 113.005 33.7988 113.048C34.02 113.085 34.2167 113.153 34.3888 113.245C34.4502 113.282 34.4932 113.325 34.5178 113.38C34.5424 113.435 34.5485 113.479 34.524 113.515L34.02 114.394C33.9832 114.456 33.9402 114.499 33.891 114.523C33.8418 114.548 33.7804 114.566 33.7066 114.572C33.6821 114.572 33.6329 114.572 33.5714 114.579C33.51 114.579 33.4362 114.597 33.3564 114.622C33.2765 114.646 33.1966 114.689 33.1167 114.751C33.0368 114.812 32.9631 114.898 32.8955 115.015C32.8463 115.101 32.8094 115.187 32.7787 115.273C32.748 115.359 32.7357 115.445 32.7357 115.525C32.7357 115.605 32.7603 115.685 32.8033 115.758C32.8463 115.832 32.92 115.9 33.0184 115.955C33.1167 116.01 33.2089 116.041 33.301 116.029C33.3932 116.029 33.4916 115.986 33.6083 115.918C33.7251 115.851 33.8541 115.746 34.0016 115.611C34.1491 115.476 34.3273 115.304 34.5424 115.101C34.7575 114.898 34.9726 114.732 35.1877 114.615C35.4027 114.499 35.6301 114.425 35.8698 114.394C36.1095 114.37 36.3553 114.394 36.6195 114.462C36.8776 114.529 37.1665 114.658 37.4737 114.83C37.7503 114.99 37.9838 115.168 38.1681 115.371C38.3586 115.574 38.5 115.795 38.6045 116.023C38.7089 116.256 38.7642 116.496 38.7765 116.748C38.7888 117 38.7581 117.252 38.6844 117.498L39.3849 117.903C39.4587 117.946 39.5078 117.995 39.5385 118.063C39.5693 118.131 39.5754 118.186 39.5385 118.235L39.0346 119.114C39.0039 119.163 38.9547 119.188 38.881 119.194C38.8073 119.194 38.7335 119.181 38.6659 119.138L37.9408 118.72C37.7441 118.893 37.5352 119.028 37.3017 119.12C37.0681 119.212 36.8285 119.274 36.5888 119.298C36.3491 119.323 36.1095 119.31 35.8698 119.261C35.6301 119.212 35.4089 119.132 35.2061 119.022C35.1446 118.985 35.1078 118.942 35.077 118.893C35.0525 118.837 35.0463 118.794 35.0709 118.757L35.5748 117.879C35.6117 117.817 35.6486 117.774 35.6916 117.75C35.7346 117.725 35.7899 117.713 35.8575 117.7C35.8944 117.7 35.9497 117.7 36.0296 117.694C36.1095 117.694 36.1955 117.676 36.2938 117.657C36.3921 117.633 36.4905 117.59 36.5888 117.522C36.6871 117.455 36.7731 117.356 36.853 117.221C36.9882 116.987 37.062 116.766 37.0804 116.563C37.0989 116.361 37.0067 116.201 36.81 116.09C36.7117 116.035 36.6134 116.017 36.5151 116.035C36.4167 116.053 36.3061 116.109 36.1832 116.189C36.0603 116.275 35.9251 116.391 35.7653 116.539C35.6117 116.693 35.4212 116.865 35.1999 117.067C34.7944 117.448 34.358 117.645 33.8971 117.663C33.4362 117.682 32.9262 117.528 32.3608 117.203C32.1334 117.074 31.9245 116.914 31.7463 116.736C31.5681 116.557 31.4206 116.361 31.3038 116.146C31.1871 115.937 31.1133 115.709 31.0703 115.476C31.0273 115.242 31.0334 115.003 31.0703 114.757L30.339 114.339C30.2653 114.296 30.2161 114.247 30.1854 114.179C30.1546 114.111 30.1485 114.056 30.1854 114.007L30.6893 113.128C30.72 113.079 30.7692 113.054 30.8429 113.048C30.9167 113.048 30.9904 113.061 31.058 113.104L31.7954 113.528L31.8016 113.546Z" fill="#F2D25E"/>
<path d="M27.4378 78.1776L27.9048 76.8133L15.4667 72.5977L14.9874 73.9619C14.2438 75.996 16.4315 78.5893 19.8729 79.7508C23.3143 80.9123 26.7003 80.2117 27.4378 78.1776Z" fill="#E69D25"/>
<path d="M20.4014 78.2184C16.9661 77.0507 14.7784 74.4636 15.5159 72.4295C16.2594 70.3954 19.6455 69.6886 23.0807 70.8563C26.516 72.0177 28.7037 74.6111 27.9663 76.6452C27.2227 78.6793 23.8366 79.386 20.4014 78.2184Z" fill="#F2D25E"/>
<path d="M22.8288 70.938C26.2641 72.1056 28.4518 74.6928 27.7144 76.7269C27.4071 77.575 26.6328 78.1895 25.5942 78.5398C26.7618 78.2141 27.6345 77.5688 27.9663 76.6532C28.7099 74.6191 26.5222 72.0257 23.0808 70.8643C21.0774 70.1883 19.0925 70.1453 17.636 70.6246C19.0618 70.2252 20.9361 70.2989 22.8288 70.938Z" fill="#F5E378"/>
<path d="M16.7634 72.8909C17.3165 71.3791 19.9344 70.8814 22.6076 71.7847C25.2747 72.6881 27.0015 74.6546 26.4485 76.1725C25.8954 77.6842 23.2775 78.182 20.6043 77.2786C17.9372 76.3753 16.2104 74.4088 16.7634 72.8909Z" fill="#F5E378"/>
<path d="M16.8986 72.8967C17.4516 71.385 20.0695 70.8872 22.7428 71.7906C25.4098 72.694 27.1367 74.6605 26.5836 76.1783C26.0305 77.6901 23.4126 78.1879 20.7394 77.2845C18.0723 76.3811 16.3455 74.4146 16.8986 72.8967Z" fill="#EBAE39"/>
<path d="M17.0522 73.2778C17.6053 71.766 20.2232 71.2682 22.8964 72.1716C24.697 72.78 26.0674 73.8739 26.5959 74.9862C26.221 73.7509 24.7523 72.4727 22.7489 71.7906C20.0818 70.8872 17.4578 71.385 16.9047 72.8967C16.7265 73.3884 16.7879 73.9292 17.046 74.4699C16.9231 74.0582 16.917 73.6526 17.0583 73.2778H17.0522Z" fill="#CC8420"/>
<path d="M24.0825 75.7493C23.9964 75.8661 23.8858 75.9705 23.7629 76.0504C23.64 76.1303 23.5109 76.1918 23.3757 76.2348C23.2406 76.2778 23.1054 76.3024 22.9702 76.3085C22.835 76.3147 22.7059 76.3024 22.5953 76.2716C22.5584 76.2594 22.5277 76.2409 22.5031 76.2102C22.4785 76.1795 22.4724 76.1549 22.4785 76.1303L22.6629 75.5465C22.6752 75.5035 22.6936 75.4728 22.7182 75.4543C22.7428 75.4359 22.7797 75.4174 22.8227 75.399C22.8411 75.399 22.8657 75.3867 22.9026 75.3744C22.9394 75.3621 22.9824 75.3498 23.0255 75.3191C23.0685 75.2945 23.1115 75.2577 23.1545 75.2147C23.1975 75.1716 23.2283 75.104 23.2528 75.0303C23.2713 74.975 23.2836 74.9197 23.2897 74.8644C23.2897 74.8091 23.2897 74.7538 23.2774 74.7107C23.2651 74.6616 23.2406 74.6186 23.2037 74.5817C23.1668 74.5448 23.1176 74.5141 23.05 74.4895C22.9824 74.4711 22.9271 74.4649 22.8718 74.4834C22.8165 74.4956 22.7612 74.5325 22.7059 74.5878C22.6445 74.6431 22.583 74.7169 22.5154 74.8214C22.4478 74.9197 22.3618 75.0426 22.2634 75.1962C22.1651 75.3437 22.0607 75.4666 21.9439 75.5649C21.8333 75.6633 21.7104 75.737 21.569 75.7862C21.4338 75.8353 21.2802 75.8538 21.1204 75.8476C20.9545 75.8415 20.7763 75.8046 20.5673 75.737C20.383 75.6817 20.2232 75.6018 20.0819 75.5096C19.9405 75.4113 19.8299 75.3068 19.7377 75.1839C19.6455 75.061 19.5779 74.9258 19.5411 74.7783C19.4981 74.6308 19.4858 74.4772 19.4981 74.3236L19.031 74.1761C18.9818 74.1638 18.945 74.1392 18.9204 74.1023C18.8958 74.0655 18.8835 74.0347 18.8958 73.9979L19.0802 73.4141C19.0925 73.3833 19.117 73.3588 19.1601 73.3465C19.2031 73.3342 19.2461 73.3342 19.2953 73.3465L19.7807 73.5001C19.8729 73.3711 19.9835 73.2666 20.1064 73.1806C20.2293 73.0945 20.3645 73.0269 20.5059 72.9839C20.6472 72.9347 20.7886 72.9102 20.9361 72.9102C21.0835 72.9102 21.2249 72.9286 21.3601 72.9655C21.397 72.9778 21.4277 72.9962 21.4523 73.0269C21.4768 73.0576 21.483 73.0822 21.4768 73.1068L21.2925 73.6906C21.2802 73.7336 21.2618 73.7644 21.2372 73.7828C21.2126 73.8012 21.1819 73.8197 21.145 73.832C21.1266 73.832 21.0897 73.8442 21.0405 73.8565C20.9975 73.8688 20.9422 73.8873 20.8869 73.9118C20.8316 73.9364 20.7824 73.9794 20.7333 74.0286C20.6841 74.0778 20.6472 74.1515 20.6165 74.2375C20.5673 74.3973 20.5489 74.5325 20.5673 74.6554C20.5858 74.7783 20.6595 74.8582 20.7886 74.9012C20.8562 74.9197 20.9176 74.9197 20.9729 74.8951C21.0282 74.8705 21.0897 74.8275 21.1511 74.7599C21.2126 74.6923 21.2802 74.6063 21.3539 74.4956C21.4277 74.385 21.5137 74.256 21.6182 74.1085C21.8087 73.832 22.0361 73.6599 22.3065 73.5861C22.5769 73.5124 22.8964 73.537 23.2713 73.6599C23.4249 73.709 23.5663 73.7705 23.6953 73.8565C23.8244 73.9426 23.935 74.0348 24.0333 74.1454C24.1255 74.256 24.2054 74.3789 24.2607 74.5079C24.316 74.6431 24.3467 74.7845 24.3529 74.932L24.8383 75.0856C24.8875 75.0979 24.9244 75.1225 24.9489 75.1593C24.9797 75.1962 24.9858 75.2269 24.9735 75.2638L24.7892 75.8476C24.7769 75.8783 24.7523 75.9029 24.7093 75.9152C24.6663 75.9275 24.6232 75.9275 24.5741 75.9152L24.0825 75.7616V75.7493Z" fill="#CC8420"/>
<path d="M24.1316 75.6321C24.0456 75.7489 23.9349 75.8533 23.812 75.9332C23.6891 76.0131 23.5601 76.0746 23.4249 76.1176C23.2897 76.1606 23.1545 76.1852 23.0193 76.1913C22.8841 76.1975 22.755 76.1852 22.6444 76.1545C22.6076 76.1422 22.5768 76.1237 22.5522 76.093C22.5277 76.0623 22.5215 76.0377 22.5277 76.0131L22.712 75.4293C22.7243 75.3863 22.7428 75.3556 22.7673 75.3371C22.7919 75.3187 22.8288 75.3003 22.8718 75.2818C22.8902 75.2818 22.9148 75.2695 22.9517 75.2572C22.9886 75.245 23.0316 75.2327 23.0746 75.2019C23.1176 75.1774 23.1606 75.1405 23.2037 75.0975C23.2467 75.0544 23.2774 74.9869 23.302 74.9131C23.3204 74.8578 23.3327 74.8025 23.3388 74.7472C23.3388 74.6919 23.3388 74.6366 23.3266 74.5935C23.3143 74.5444 23.2897 74.5014 23.2528 74.4645C23.2159 74.4276 23.1668 74.3969 23.0992 74.3723C23.0316 74.3539 22.9763 74.3477 22.921 74.3662C22.8657 74.3785 22.8104 74.4153 22.755 74.4706C22.6997 74.526 22.6321 74.5997 22.5645 74.7042C22.4969 74.8025 22.4109 74.9254 22.3126 75.079C22.2143 75.2265 22.1098 75.3494 21.993 75.4477C21.8824 75.5461 21.7595 75.6198 21.6182 75.669C21.483 75.7181 21.3293 75.7366 21.1696 75.7304C21.0036 75.7243 20.8254 75.6874 20.6165 75.6198C20.4321 75.5645 20.2723 75.4846 20.131 75.3924C19.9896 75.2941 19.879 75.1896 19.7869 75.0667C19.6947 74.9438 19.6271 74.8086 19.5902 74.6611C19.5472 74.5137 19.5349 74.36 19.5472 74.2064L19.0801 74.0589C19.031 74.0466 18.9941 74.022 18.9695 73.9852C18.9449 73.9483 18.9327 73.9176 18.9449 73.8807L19.1293 73.2969C19.1416 73.2662 19.1662 73.2416 19.2092 73.2293C19.2522 73.217 19.2952 73.217 19.3444 73.2293L19.8299 73.3829C19.9221 73.2539 20.0327 73.1494 20.1556 73.0634C20.2785 72.9773 20.4137 72.9097 20.555 72.8667C20.6964 72.8176 20.8377 72.793 20.9852 72.793C21.1327 72.793 21.274 72.8053 21.4092 72.8483C21.4461 72.8606 21.4768 72.879 21.5014 72.9097C21.526 72.9405 21.5321 72.965 21.526 72.9896L21.3416 73.5734C21.3293 73.6164 21.3109 73.6472 21.2863 73.6656C21.2617 73.684 21.231 73.7025 21.1941 73.7148C21.1757 73.7148 21.1388 73.7271 21.0897 73.7393C21.0466 73.7516 20.9913 73.7701 20.936 73.7947C20.8807 73.8192 20.8316 73.8623 20.7824 73.9114C20.7332 73.9606 20.6964 74.0343 20.6656 74.1204C20.6165 74.2801 20.598 74.4153 20.6165 74.5382C20.6349 74.6611 20.7087 74.741 20.8377 74.7841C20.9053 74.8025 20.9668 74.8025 21.0221 74.7779C21.0774 74.7533 21.1388 74.7103 21.2003 74.6427C21.2617 74.5751 21.3293 74.4891 21.4031 74.3785C21.4768 74.2678 21.5629 74.1388 21.6673 73.9913C21.8578 73.7148 22.0852 73.5427 22.3556 73.469C22.626 73.3952 22.9455 73.4198 23.3204 73.5427C23.474 73.5919 23.6154 73.6533 23.7444 73.7393C23.8735 73.8254 23.9841 73.9176 24.0824 74.0282C24.1746 74.1388 24.2545 74.2617 24.3098 74.3908C24.3651 74.5259 24.3958 74.6673 24.402 74.8148L24.8875 74.9684C24.9366 74.9807 24.9735 75.0053 24.9981 75.0422C25.0288 75.079 25.035 75.1098 25.0227 75.1466L24.8383 75.7304C24.826 75.7612 24.8014 75.7857 24.7584 75.798C24.7154 75.8103 24.6724 75.8103 24.6232 75.798L24.1316 75.6444V75.6321Z" fill="#F2D25E"/>
<path d="M92.176 9.78353L90.6888 8.01367L71.2205 24.3725L72.6953 26.1547C76.6529 30.862 84.2178 31.0156 89.6011 26.4926C94.9783 21.9697 96.1336 14.4908 92.1821 9.78353H92.176Z" fill="#E69D25"/>
<path d="M87.7944 24.3419C82.4172 28.8649 74.8462 28.7112 70.8886 24.0039C66.931 19.2966 68.0863 11.8178 73.4696 7.29481C78.8468 2.77185 86.4178 2.92549 90.3754 7.6328C94.333 12.3401 93.1777 19.819 87.7944 24.3419Z" fill="#F2D25E"/>
<path d="M73.439 7.8909C78.8161 3.36795 86.3872 3.52159 90.3447 8.2289C91.9917 10.1893 92.7537 12.6351 92.6861 15.1485C92.895 12.4323 92.1515 9.74679 90.3755 7.6328C86.4179 2.92549 78.853 2.77185 73.4697 7.29481C70.3356 9.93115 68.6333 13.5692 68.5473 17.0843C68.8054 13.7597 70.4831 10.3798 73.439 7.8909Z" fill="#F5E378"/>
<path d="M72.9288 22.4379C69.9852 18.929 70.9869 13.22 75.1595 9.71098C79.3383 6.202 85.1334 6.19586 88.077 9.70483C91.0206 13.2138 90.0189 18.9228 85.8462 22.4318C81.6674 25.9408 75.8724 25.9469 72.9288 22.4379Z" fill="#F5E378"/>
<path d="M73.0518 22.1879C70.1082 18.679 71.1098 12.97 75.2825 9.46098C79.4613 5.95201 85.2564 5.94585 88.2 9.45483C91.1436 12.9638 90.1419 18.6728 85.9692 22.1818C81.7904 25.6908 75.9954 25.6969 73.0518 22.1879Z" fill="#EBAE39"/>
<path d="M74.0227 22.5274C71.0791 19.0184 72.0808 13.3094 76.2535 9.80042C79.0742 7.43447 82.6262 6.6663 85.5452 7.48977C82.4725 6.16853 78.4228 6.82608 75.2887 9.46242C71.1098 12.9714 70.1082 18.6804 73.0579 22.1894C74.0166 23.3324 75.2764 24.1006 76.6898 24.4939C75.6697 24.0575 74.7602 23.4 74.0289 22.5274H74.0227Z" fill="#CC8420"/>
<path d="M85.4714 14.1203C85.6066 14.5075 85.6865 14.8823 85.7111 15.2572C85.7357 15.6259 85.7111 15.9701 85.6558 16.2896C85.5943 16.603 85.496 16.8857 85.3547 17.1315C85.2195 17.3773 85.0597 17.5679 84.8692 17.7031C84.8016 17.7461 84.7278 17.7584 84.648 17.7399C84.5681 17.7215 84.5128 17.6846 84.4697 17.6293L83.5172 16.1729C83.4496 16.0684 83.4066 15.9762 83.4005 15.8902C83.3882 15.8103 83.3882 15.712 83.4005 15.6075C83.4066 15.5706 83.4189 15.5092 83.4435 15.4293C83.4619 15.3494 83.4742 15.2449 83.4681 15.1159C83.4681 14.993 83.4435 14.8455 83.3943 14.6857C83.3513 14.5259 83.2591 14.3477 83.1362 14.1572C83.044 14.0159 82.9457 13.8868 82.8412 13.77C82.7368 13.6533 82.6323 13.555 82.5278 13.4812C82.4233 13.4075 82.3127 13.3645 82.196 13.3522C82.0792 13.3337 81.9686 13.3645 81.858 13.4382C81.7474 13.5119 81.6736 13.6041 81.649 13.727C81.6183 13.8438 81.6306 14.0097 81.6736 14.2187C81.7166 14.4276 81.8027 14.6857 81.9194 14.9991C82.0423 15.3125 82.1898 15.6997 82.3742 16.1606C82.5585 16.6215 82.6876 17.0455 82.7613 17.4327C82.8351 17.8198 82.8412 18.1762 82.7859 18.5019C82.7306 18.8276 82.6077 19.1288 82.4172 19.3992C82.2267 19.6634 81.9563 19.9092 81.606 20.1427C81.2926 20.3455 80.9669 20.4746 80.6351 20.5238C80.2971 20.5729 79.9591 20.5606 79.6149 20.4746C79.2708 20.3886 78.939 20.2411 78.6071 20.026C78.2753 19.8109 77.9618 19.5344 77.6607 19.2148L76.868 19.731C76.7881 19.7863 76.6959 19.8047 76.5976 19.7802C76.4993 19.7556 76.4255 19.7064 76.3702 19.6265L75.4177 18.1701C75.3624 18.0902 75.3501 17.998 75.3685 17.8997C75.387 17.8014 75.4361 17.7276 75.5222 17.6723L76.3456 17.1315C76.192 16.7198 76.0998 16.3265 76.0691 15.9393C76.0322 15.5522 76.0507 15.1958 76.106 14.8639C76.1674 14.5321 76.2719 14.2371 76.4255 13.979C76.5792 13.7209 76.7697 13.5119 76.9909 13.3522C77.0585 13.3092 77.1322 13.2969 77.2121 13.3091C77.292 13.3276 77.3535 13.3645 77.3903 13.4259L78.3429 14.8823C78.4105 14.9868 78.4535 15.079 78.4658 15.1527C78.4781 15.2265 78.4781 15.3125 78.4658 15.4108C78.4535 15.46 78.435 15.5338 78.4105 15.6382C78.3859 15.7427 78.3674 15.8656 78.3613 16.0131C78.3613 16.1606 78.3736 16.3265 78.4227 16.5109C78.4719 16.6952 78.5641 16.9042 78.7116 17.1254C78.9697 17.5187 79.2216 17.8198 79.4797 18.0288C79.7378 18.2377 79.9775 18.2684 80.1987 18.1209C80.3094 18.0472 80.3708 17.9366 80.3831 17.7952C80.3954 17.6477 80.3708 17.4634 80.3032 17.2237C80.2418 16.9902 80.1373 16.7014 80.0021 16.3634C79.8669 16.0254 79.7071 15.6198 79.5289 15.1527C79.1909 14.2801 79.0987 13.5427 79.2524 12.9404C79.406 12.3382 79.7993 11.8281 80.4384 11.4102C80.6965 11.2382 80.9792 11.1276 81.2865 11.06C81.5876 10.9985 81.901 10.9924 82.2206 11.0477C82.5401 11.0968 82.8597 11.2075 83.1792 11.3734C83.4988 11.5393 83.8122 11.7605 84.1133 12.0432L84.9368 11.5024C85.0167 11.4471 85.1089 11.4348 85.2072 11.4533C85.3055 11.4717 85.3792 11.527 85.4346 11.6069L86.3871 13.0633C86.4362 13.1432 86.4547 13.2354 86.4362 13.3337C86.4178 13.4321 86.3625 13.5058 86.2826 13.5611L85.4468 14.108L85.4714 14.1203Z" fill="#CC8420"/>
<path d="M85.2993 13.8059C85.4345 14.193 85.5144 14.5679 85.539 14.9428C85.5636 15.3115 85.539 15.6556 85.4837 15.9752C85.4222 16.2886 85.3239 16.5713 85.1825 16.8171C85.0473 17.0629 84.8876 17.2534 84.6971 17.3886C84.6295 17.4316 84.5557 17.4439 84.4758 17.4255C84.3959 17.407 84.3406 17.3702 84.2976 17.3149L83.3451 15.8584C83.2775 15.754 83.2345 15.6618 83.2283 15.5757C83.216 15.4958 83.216 15.3975 83.2283 15.2931C83.2345 15.2562 83.2468 15.1947 83.2714 15.1148C83.2898 15.0349 83.3021 14.9305 83.2959 14.8014C83.2959 14.6785 83.2714 14.531 83.2222 14.3713C83.1792 14.2115 83.087 14.0333 82.9641 13.8428C82.8719 13.7014 82.7736 13.5724 82.6691 13.4556C82.5646 13.3388 82.4602 13.2405 82.3557 13.1668C82.2512 13.093 82.1406 13.05 82.0239 13.0377C81.9071 13.0193 81.7965 13.05 81.6859 13.1238C81.5752 13.1975 81.5015 13.2897 81.4769 13.4126C81.4462 13.5293 81.4585 13.6953 81.5015 13.9042C81.5445 14.1132 81.6306 14.3713 81.7473 14.6847C81.8702 14.9981 82.0177 15.3852 82.2021 15.8461C82.3864 16.307 82.5155 16.7311 82.5892 17.1182C82.663 17.5054 82.6691 17.8618 82.6138 18.1875C82.5585 18.5132 82.4356 18.8143 82.2451 19.0847C82.0546 19.349 81.7842 19.5948 81.4339 19.8283C81.1205 20.0311 80.7948 20.1601 80.4629 20.2093C80.125 20.2585 79.787 20.2462 79.4428 20.1601C79.0987 20.0741 78.7668 19.9266 78.435 19.7115C78.1031 19.4964 77.7897 19.2199 77.4886 18.9004L76.6959 19.4166C76.616 19.4719 76.5238 19.4903 76.4255 19.4657C76.3271 19.4411 76.2534 19.392 76.1981 19.3121L75.2456 17.8557C75.1903 17.7758 75.178 17.6836 75.1964 17.5853C75.2148 17.4869 75.264 17.4132 75.35 17.3579L76.1735 16.8171C76.0199 16.4054 75.9277 16.0121 75.897 15.6249C75.8601 15.2377 75.8785 14.8813 75.9338 14.5495C75.9953 14.2176 76.0998 13.9226 76.2534 13.6645C76.407 13.4064 76.5975 13.1975 76.8188 13.0377C76.8864 12.9947 76.9601 12.9824 77.04 12.9947C77.1199 13.0131 77.1813 13.05 77.2182 13.1115L78.1707 14.5679C78.2383 14.6724 78.2814 14.7646 78.2936 14.8383C78.3059 14.912 78.3059 14.9981 78.2936 15.0964C78.2814 15.1456 78.2629 15.2193 78.2383 15.3238C78.2138 15.4282 78.1953 15.5512 78.1892 15.6986C78.1892 15.8461 78.2015 16.0121 78.2506 16.1964C78.2998 16.3808 78.392 16.5897 78.5395 16.8109C78.7976 17.2042 79.0495 17.5054 79.3076 17.7143C79.5657 17.9232 79.8054 17.954 80.0266 17.8065C80.1372 17.7327 80.1987 17.6221 80.211 17.4808C80.2233 17.3333 80.1987 17.1489 80.1311 16.9093C80.0696 16.6757 79.9652 16.3869 79.83 16.0489C79.6948 15.7109 79.535 15.3053 79.3568 14.8383C79.0188 13.9657 78.9266 13.2282 79.0802 12.626C79.2339 12.0237 79.6272 11.5137 80.2663 11.0958C80.5244 10.9237 80.8071 10.8131 81.1143 10.7455C81.4155 10.6841 81.7289 10.6779 82.0484 10.7332C82.368 10.7824 82.6875 10.893 83.0071 11.0589C83.3267 11.2249 83.6401 11.4461 83.9412 11.7288L84.7647 11.188C84.8446 11.1327 84.9367 11.1204 85.0351 11.1388C85.1334 11.1573 85.2071 11.2126 85.2624 11.2924L86.215 12.7489C86.2641 12.8288 86.2826 12.921 86.2641 13.0193C86.2457 13.1176 86.1904 13.1914 86.1105 13.2467L85.2747 13.7936L85.2993 13.8059Z" fill="#F2D25E"/>
<path d="M100.031 50.5927C96.5761 44.2074 91.3011 39.0992 85.246 35.9713C79.1909 32.8064 78.2807 35.7307 82.7942 39.6359C87.3263 43.5226 90.4653 48.6494 91.8769 53.9797C93.3071 59.3101 93.0099 64.8625 91.3011 69.6562C89.6109 74.4498 86.4904 78.5031 82.6828 81.2423L76.2933 74.8755C73.5258 72.1177 71.2598 73.0617 71.2598 76.9484V105.081H99.4922C103.411 105.081 104.34 102.823 101.572 100.065L95.1831 93.6983C100.384 87.4795 103.56 79.8727 104.303 72.2288C105.083 64.5849 103.504 56.9966 100.049 50.6113L100.031 50.5927Z" fill="url(#paint4_linear_1246_31600)"/>
<path d="M2.92611 35.0841L9.31556 41.4509C4.11484 47.6696 0.957265 55.2765 0.195732 62.9204C-0.584375 70.5642 0.994413 78.1526 4.44917 84.5379C7.90393 90.9232 13.1789 96.0315 19.2341 99.1594C25.2892 102.324 26.1993 99.4 21.6858 95.4947C17.1538 91.608 14.0148 86.4813 12.6031 81.1509C11.173 75.8206 11.4701 70.2681 13.1789 65.4745C14.8692 60.6809 17.9896 56.6276 21.7973 53.8884L28.1867 60.2552C30.9542 63.0129 33.2203 62.069 33.2203 58.1823V30.0684H5.00639C1.10586 30.0684 0.158584 32.3264 2.92611 35.0841Z" fill="url(#paint5_linear_1246_31600)"/>
<path d="M40.4188 16.8874H20.9416C19.628 16.8874 18.6963 15.6139 19.0918 14.3606C19.3465 13.5496 20.0971 13 20.9416 13H40.4188C41.7325 13 42.6641 14.2735 42.2687 15.5268C42.014 16.3378 41.2633 16.8874 40.4188 16.8874Z" fill="#A1F0F8"/>
<path d="M47.5301 16.9937C48.6184 16.9937 49.5006 16.1115 49.5006 15.0232C49.5006 13.935 48.6184 13.0527 47.5301 13.0527C46.4418 13.0527 45.5596 13.935 45.5596 15.0232C45.5596 16.1115 46.4418 16.9937 47.5301 16.9937Z" fill="#A1F0F8"/>
<path d="M111.168 22.5743L111.255 22.5541C108.226 21.9107 105.9 19.4777 105.384 16.4214L105.149 15.0273L104.928 16.3209C104.412 19.3772 102.086 21.8102 99.05 22.4536L98.9629 22.4737C101.992 23.1171 104.318 25.5501 104.834 28.6064L105.069 30.0005L105.29 28.707C105.806 25.6507 108.132 23.2177 111.168 22.5743Z" fill="#EBAE39"/>
<path d="M45.7258 5.12734L45.7861 5.11393C43.7285 4.67828 42.14 3.02278 41.7915 0.945039L41.6306 0L41.4832 0.884717C41.1346 2.96246 39.5462 4.61796 37.4885 5.05361L37.4282 5.06702C39.4859 5.50267 41.0743 7.15817 41.4229 9.23591L41.5837 10.181L41.7312 9.29623C42.0797 7.21849 43.6682 5.56299 45.7258 5.12734Z" fill="#EBAE39"/>
<defs>
<radialGradient id="paint0_radial_1246_31600" cx="0" cy="0" r="1" gradientUnits="userSpaceOnUse" gradientTransform="translate(52.2493 111.214) rotate(-2.68378) scale(22.3132 22.3132)">
<stop stop-color="#B9D0F2"/>
<stop offset="1" stop-color="#F1FAFF"/>
</radialGradient>
<linearGradient id="paint1_linear_1246_31600" x1="28.4097" y1="43.8224" x2="75.92" y2="91.4829" gradientUnits="userSpaceOnUse">
<stop stop-color="#C1D5F4"/>
<stop offset="0.21" stop-color="#BDD2F3"/>
<stop offset="0.39" stop-color="#B3CCF1"/>
<stop offset="0.54" stop-color="#A2C1ED"/>
<stop offset="0.69" stop-color="#8BB2E8"/>
<stop offset="0.84" stop-color="#6C9EE2"/>
<stop offset="0.97" stop-color="#4786DA"/>
<stop offset="1" stop-color="#3F81D9"/>
</linearGradient>
<linearGradient id="paint2_linear_1246_31600" x1="32.4216" y1="47.8019" x2="71.9363" y2="87.4756" gradientUnits="userSpaceOnUse">
<stop stop-color="#90B6EA"/>
<stop offset="0.18" stop-color="#A2C2ED"/>
<stop offset="0.42" stop-color="#B3CCF1"/>
<stop offset="0.68" stop-color="#BDD2F3"/>
<stop offset="1" stop-color="#C1D5F4"/>
</linearGradient>
<linearGradient id="paint3_linear_1246_31600" x1="39.6655" y1="55.2983" x2="64.3922" y2="80.1314" gradientUnits="userSpaceOnUse">
<stop stop-color="#CEDEF6"/>
<stop offset="0.18" stop-color="#E0EAF9"/>
<stop offset="0.42" stop-color="#F1F6FC"/>
<stop offset="0.68" stop-color="#FBFCFE"/>
<stop offset="1" stop-color="white"/>
</linearGradient>
<linearGradient id="paint4_linear_1246_31600" x1="87.8792" y1="34.6289" x2="87.8792" y2="105.081" gradientUnits="userSpaceOnUse">
<stop stop-color="#C4F9FF"/>
<stop offset="1" stop-color="#13CCDF"/>
</linearGradient>
<linearGradient id="paint5_linear_1246_31600" x1="16.6101" y1="30.0684" x2="16.6101" y2="100.502" gradientUnits="userSpaceOnUse">
<stop stop-color="#C4F9FF"/>
<stop offset="1" stop-color="#13CCDF"/>
</linearGradient>
</defs>
</svg>
