<svg width="120" height="120" viewBox="0 0 120 120" fill="none" xmlns="http://www.w3.org/2000/svg">
<path d="M60 120C93.1371 120 120 93.1371 120 60C120 26.8629 93.1371 0 60 0C26.8629 0 0 26.8629 0 60C0 93.1371 26.8629 120 60 120Z" fill="url(#paint0_linear_1248_34192)"/>
<path opacity="0.28" fill-rule="evenodd" clip-rule="evenodd" d="M57.798 23.8262C78.7553 23.8262 95.7471 40.8191 95.7471 61.7753C95.7471 82.7315 78.7549 99.7245 57.798 99.7245C36.841 99.7245 19.8466 82.7323 19.8466 61.7753C19.8466 40.8184 36.8403 23.8262 57.798 23.8262Z" fill="url(#paint1_radial_1248_34192)"/>
<path d="M36.8855 30.1362C36.8516 30.2227 36.8078 30.3026 36.7567 30.3792C36.6779 30.4562 36.6863 30.5211 36.5499 30.4883C36.6436 30.3518 36.7706 30.2519 36.8855 30.1362C36.8746 30.1398 36.8567 30.1409 36.8377 30.142C36.5448 30.3372 36.255 30.5405 35.9679 30.7437C35.9478 30.8068 35.9318 30.8718 35.9245 30.9433C35.869 30.932 35.7946 30.9265 35.7103 30.9258C34.3351 31.9124 33.0296 32.9866 31.801 34.1433C31.9937 34.0604 32.2327 34.0236 32.387 33.8784C32.3994 34.1604 32.8416 33.8083 32.9993 33.705C33.0759 33.6551 33.1974 33.4522 33.0919 33.3661C33.0153 33.3044 32.7935 33.6273 32.6351 33.6467C32.923 33.1596 33.355 32.8385 33.8472 32.5458C34.1709 32.3535 34.9743 31.6957 35.2951 31.6504C35.2268 31.7088 35.1163 31.7818 35.2046 31.8617C35.3356 31.9792 34.9681 32.0175 34.917 32.0605C34.7113 32.2324 34.6095 32.4075 34.3358 32.5192C34.0165 32.6491 33.2667 32.8585 33.2131 33.3139C33.4689 33.365 33.6455 33.0993 33.8235 33.2314C33.6557 33.3712 33.5309 33.5711 33.4809 33.7722C33.6714 33.7729 33.7235 33.8568 33.8815 33.8649C34.0005 33.8707 34.0293 34.3724 34.2391 34.0787C34.4369 33.8036 34.5814 33.466 34.5566 33.099C34.6547 33.2453 34.6686 33.4022 34.5814 33.5387C34.7456 33.6014 35.4173 33.0282 35.5559 32.8268C35.7223 32.5852 35.9628 31.9128 36.2558 31.9062C36.0128 32.363 36.536 32.0146 36.6601 31.9379C36.9187 31.7778 37.1497 31.6409 37.4011 31.4899C37.8284 31.2334 37.9732 31.2564 37.9966 30.7182C38.0061 30.4974 38.5432 30.3427 38.7026 30.2052C38.9274 30.0125 39.0263 29.7976 39.2492 29.6217C39.3098 29.5739 39.7006 29.3984 39.702 29.3404C39.706 29.1671 39.1729 29.3109 39.0938 29.4203C38.9307 29.6422 38.3239 29.7491 38.0681 29.8476C37.9827 29.8797 37.6919 30.0698 37.6376 29.9735C37.5438 29.8093 37.38 29.8235 37.2252 29.8939C37.1439 29.9465 37.0611 29.9979 36.9811 30.0508C36.9436 30.0815 36.91 30.1114 36.8852 30.1362H36.8855Z" fill="url(#paint2_radial_1248_34192)"/>
<path d="M38.1648 32.1364C38.0947 32.448 38.2469 32.7622 38.31 33.0585C38.3556 33.2774 38.7818 33.2467 38.8752 33.0125C38.95 32.8268 39.2496 32.6746 39.1204 32.4739C39.0606 32.382 38.5275 32.3174 38.4385 32.374C38.5034 32.1565 38.3531 32.0244 38.1648 32.1364Z" fill="url(#paint3_radial_1248_34192)"/>
<path d="M50.8767 30.6038C50.094 30.6852 49.0487 30.6231 48.3182 30.9099C48.3196 30.8727 48.3226 30.8362 48.3237 30.7994C48.1131 30.6761 47.768 30.436 47.5611 30.1134C47.4888 29.9996 47.0211 29.9926 47.0262 29.8839C47.0367 29.6723 46.5252 29.7409 46.3858 29.7329C46.3869 29.819 46.3563 29.924 46.3741 30.008C46.3358 29.6037 45.8513 29.7569 45.6192 29.6836C45.6364 29.7668 45.5842 29.7858 45.5707 29.8463C45.3492 29.7051 45.3269 30.0985 45.3131 30.2714C45.227 30.1619 45.181 29.9558 45.0661 29.8956C44.8818 29.8 44.8304 30.0215 44.6753 30.0645C44.6797 30.1371 44.6574 30.2123 44.6647 30.2845C44.6837 30.3309 44.7103 30.3444 44.7001 30.3987C44.6877 30.3601 44.6767 30.3225 44.6647 30.2845C44.4939 30.232 44.3673 30.0645 44.2228 30.2579C43.5934 29.692 43.6029 31.4999 43.635 31.7714C43.5591 31.7696 43.4121 31.7287 43.3486 31.6941C43.3935 31.4248 43.5901 30.8975 43.3979 30.6469C43.3267 30.5535 43.0848 30.4028 43.0155 30.5662C42.9107 30.814 43.1158 30.7633 43.1829 30.9099C42.8137 30.7983 42.8009 31.0201 42.6039 31.2602C42.4452 31.454 42.2536 31.3007 42.4218 31.7492C42.1872 31.5955 42.15 32.1009 42.1587 32.2833C42.5189 32.2399 42.8881 32.0976 43.2176 32.0743C43.0177 32.2768 42.5284 32.4067 42.2711 32.5117C41.9011 32.6628 41.5917 32.8445 41.1973 33.0788C40.8678 33.2743 40.8368 33.4542 40.488 33.614C40.1921 33.7505 39.8564 33.9625 39.5966 34.1672C39.1193 34.5412 38.7935 35.0089 38.472 35.5347C38.3816 35.6825 38.0404 36.2324 38.0335 36.3918C38.0335 36.3947 38.0769 36.8804 38.0156 36.834C38.1006 36.8983 38.4797 36.729 38.5877 36.7049C38.3396 37.3212 39.3182 37.2212 39.4897 36.8198C39.5918 36.5826 40.0614 36.2174 40.2712 36.0383C40.8536 35.5395 41.4855 35.1746 42.0628 34.713C42.4689 34.3879 42.8608 34.1876 43.3698 34.119C43.7043 34.0741 44.6563 33.8096 44.8778 33.5381C45.1303 33.2298 45.925 33.0623 46.2946 32.993C46.943 32.8708 47.6118 32.7588 48.2514 32.5679C48.8659 32.3844 49.5657 32.2815 50.0032 31.7652C50.394 31.3022 51.277 31.4485 51.7097 31.0194C52.0111 31.2708 52.3063 30.7315 52.6095 30.7432C52.7839 30.7505 53.5403 30.606 53.5509 30.4717C52.6711 30.4166 51.7531 30.5126 50.8752 30.6038H50.8767Z" fill="url(#paint4_radial_1248_34192)"/>
<path d="M50.4104 33.2041C50.0342 33.1329 49.7467 33.3296 49.357 33.3026C49.0746 33.2829 48.6094 33.3569 48.4536 33.5766C48.4561 33.5219 48.459 33.4668 48.4612 33.4117C48.2558 33.3066 47.7643 33.2041 47.5494 33.4887C47.4965 33.5594 46.9842 33.8108 47.2834 33.8787C47.1867 33.8897 47.1013 33.9324 47.1042 34.0418C47.1104 34.2159 47.4527 34.1728 47.5388 34.2359C47.4169 34.2184 47.0787 34.3538 47.2042 34.5475C47.2914 34.6814 47.7369 34.5497 47.8913 34.534C47.7982 34.9044 48.6316 34.6698 48.8976 34.6012C49.3234 34.4924 49.7963 34.3374 50.2101 34.1881C50.4399 34.1049 50.5921 33.8083 50.734 33.7506C50.9701 33.6536 50.7723 33.0172 50.4104 33.2041Z" fill="url(#paint5_radial_1248_34192)"/>
<path d="M39.1876 31.8129C38.4706 31.6761 38.7191 32.2292 39.1416 32.4485C39.5787 32.6758 39.6393 31.4867 39.1876 31.8129Z" fill="url(#paint6_radial_1248_34192)"/>
<path d="M83.6913 85.5616C83.4593 85.6364 83.3195 85.7969 83.1353 85.948C83.0065 86.053 82.7919 86.1548 82.654 86.3059C82.3333 86.6584 81.9585 86.9207 81.5145 87.1083C80.9493 87.3469 80.4582 87.3881 79.9988 87.768C79.8091 87.9263 79.7058 87.9938 79.5927 88.2124C79.4362 88.513 79.4712 88.6652 79.191 88.8761C78.8414 89.1399 78.4572 89.2822 78.1525 89.6208C78.1715 89.5993 77.8774 90.0988 77.8756 90.0882C77.9037 90.5457 78.5367 90.325 78.8374 90.2542C79.8383 90.0192 80.3655 89.3241 81.2124 88.848C81.5043 88.6838 81.783 88.4295 82.022 88.2127C82.1304 88.1153 82.2581 88.0161 82.3504 87.9095C82.508 87.7282 82.7346 87.6534 82.8809 87.4943C83.0065 87.3604 83.013 87.1834 83.1856 87.1364C83.4308 87.0696 83.5808 86.8696 83.6256 86.6277C83.6662 86.4139 83.8931 86.2406 83.9431 86.0031C83.9909 85.7812 83.9942 85.3317 83.691 85.5619L83.6913 85.5616Z" fill="url(#paint7_radial_1248_34192)"/>
<path d="M41.1039 32.3821C41.1254 32.0679 40.8703 32.1595 40.8813 31.8706C40.8908 31.6265 40.4799 31.5892 40.3628 31.7228C40.2592 32.0209 40.3595 32.2898 40.2895 32.4952C40.0286 32.3376 39.9932 32.7959 39.8275 32.9637C40.1654 33.0287 41.0845 32.6747 41.1035 32.3817L41.1039 32.3821Z" fill="url(#paint8_radial_1248_34192)"/>
<path d="M24.6174 67.7544C24.5641 67.3856 24.3339 67.2962 24.4142 67.7413C24.4152 67.9084 24.227 68.509 24.5098 68.3565C24.5568 68.1044 24.6579 68.0343 24.6174 67.7544Z" fill="url(#paint9_radial_1248_34192)"/>
<path d="M25.0337 71.4898C25.1122 70.933 25.1224 70.2236 25.0063 69.6351C24.9534 69.3673 24.8425 69.1699 24.8542 68.8754C24.8615 68.6879 24.8082 67.8968 24.5094 68.3562C24.424 68.8594 24.7641 69.4946 24.8516 69.9836C24.9056 70.2853 24.6703 71.5277 25.033 71.4898H25.0337Z" fill="url(#paint10_radial_1248_34192)"/>
<path d="M25.3544 70.5695C25.3511 70.6505 25.465 71.2555 25.6211 70.9735C25.7222 70.7932 25.5208 70.4696 25.3544 70.5695Z" fill="url(#paint11_radial_1248_34192)"/>
<path d="M31.222 34.7966C31.2165 34.8316 31.1497 34.8721 31.1804 34.9177C31.2603 34.9002 31.3358 34.9089 31.4223 34.8754C31.1771 35.0545 30.7896 35.3512 30.6885 35.6369C30.5926 35.9069 30.1135 36.1017 29.9343 36.3633C29.5315 36.9519 29.194 37.6364 28.6799 38.1804C28.4369 38.4362 28.153 38.6558 27.8834 38.8762C27.517 39.1754 27.455 39.4739 27.1653 39.8249C26.9446 40.092 26.8902 40.1963 26.7763 40.4839C26.6293 40.8586 26.2929 41.0151 26.1404 41.3767C26.1531 41.2968 26.1641 41.1012 26.2115 41.0392C26.3403 40.867 26.4742 40.8221 26.5706 40.659C26.6932 40.4492 26.6855 40.3288 26.7482 40.1697C26.7939 40.0515 26.8493 39.9037 26.9044 39.7497C22.4664 45.9614 19.847 53.5602 19.847 61.7754C19.847 61.813 19.8492 61.8491 19.8499 61.887C19.936 61.9885 20.0163 62.0527 20.078 62.0447C20.2984 62.0162 20.3078 61.1493 20.3144 60.9595C20.3487 60.0214 20.2184 59.0436 20.3294 58.1135C20.3808 57.6749 20.4509 56.6423 20.8424 56.3694C21.0303 56.2377 21.1357 55.9505 21.1759 55.7371C21.2219 55.4937 21.4302 55.3678 21.5116 55.1339C21.5911 54.9048 21.771 54.8256 21.8724 54.6592C21.9753 54.4903 21.9651 54.298 22.0735 54.1418C22.3789 53.7029 22.261 53.1202 22.43 52.6331C22.5708 52.2252 22.8977 51.8351 22.9692 51.3995C23.0397 50.9682 23.4315 50.573 23.5498 50.1147C23.6381 49.7728 23.7333 49.763 23.9927 49.5539C24.1544 49.424 24.2565 49.1617 24.4134 49.0515C24.551 48.9548 25.4347 48.2367 24.9356 48.0546C25.1888 47.6708 25.2771 47.2658 25.581 46.9108C25.843 46.6061 26.1648 46.3288 26.5374 46.1675C26.448 46.3547 26.1378 47.129 26.63 46.9892C26.7172 46.9648 26.977 46.4901 27.0562 46.393C27.3616 46.0157 28.0096 45.8424 28.2793 45.4491C28.4445 45.2101 28.7146 45.0835 28.8674 44.8664C28.9503 44.7474 28.9984 44.4968 28.924 44.3698C28.8773 44.2899 29.0488 44.1352 29.0378 44.0334C28.9864 43.5703 28.8058 43.9403 28.6489 44.1607C28.5011 44.3687 28.4041 44.5559 28.2059 44.7233C28.4044 44.5216 28.4559 44.3045 28.1209 44.2804C27.9374 44.2672 28.1658 43.6842 27.906 44.0126C28.0585 43.6327 28.2767 43.3364 28.4672 42.9865C28.7135 42.5319 28.4803 42.1616 27.9987 42.5155C28.1935 42.2692 28.4949 41.6321 28.8751 41.7675C28.6343 42.0616 28.9904 42.8202 29.3746 42.4918C29.595 42.3024 29.4148 41.7529 29.1582 41.723C29.1597 41.7029 29.1615 41.6828 29.1623 41.662C29.6275 41.635 30.2372 41.65 30.5327 41.2297C30.6925 41.0013 31.0523 40.578 31.3435 40.5685C30.975 41.1268 30.5119 41.696 30.1317 42.2028C29.9219 42.4837 29.5833 42.8004 29.4947 43.1591C29.3075 43.913 30.1445 43.1121 30.3926 43.5057C30.0296 43.3992 29.8369 44.1366 30.1657 44.1782C30.331 44.199 30.6458 43.7437 30.7538 43.5962C30.6145 44.1866 31.0979 44.1797 31.3526 43.7013C31.473 43.4777 31.9466 42.7395 31.6372 42.5932C31.616 42.6534 31.589 42.6319 31.55 42.6519C31.5792 42.6322 31.6073 42.6122 31.6372 42.5932C31.8663 42.4516 31.9525 41.924 31.9503 41.6781C31.9473 41.1315 31.6135 41.4989 31.3486 41.6325C31.5934 41.4796 31.55 41.3366 31.4628 41.1716C31.3369 40.9385 31.7 40.9549 31.7343 40.9093C31.8941 40.6959 32.1823 40.2573 32.09 39.996C32.3586 40.2409 32.3564 39.7713 32.387 39.6421C32.4293 39.4575 32.6125 39.2126 32.695 38.9762C32.7939 38.6843 32.5246 38.4376 32.7004 38.1935C32.9186 37.8892 32.4797 37.6616 32.4253 37.389C32.3403 36.9599 32.5417 36.9942 32.7534 36.6932C32.88 36.5129 32.9383 36.2061 33.0387 35.9963C33.1514 35.7627 33.3466 35.4968 33.4116 35.2377C33.4838 34.9472 33.8122 34.7214 33.7823 34.4211C33.5342 34.4521 33.0748 34.9235 32.9289 35.1414C32.7085 35.4708 32.2527 35.7598 31.9433 35.9762C31.9718 35.5442 32.4089 35.2282 32.6348 34.8991C32.7658 35.0385 33.0044 34.9235 33.0858 34.7462C33.1376 34.6356 32.9529 34.6061 33.0142 34.4273C32.9478 34.4361 32.877 34.4047 32.811 34.4131C32.9175 34.2438 32.9486 34.0416 32.9945 33.8628C32.6972 33.761 32.8486 33.9774 32.7056 34.0267C32.5279 34.0872 32.3016 34.0438 32.1374 34.1128C32.0477 34.1504 31.8955 34.1956 31.7423 34.1985C31.5285 34.4018 31.311 34.6024 31.1008 34.8104C31.1636 34.805 31.2129 34.7991 31.2223 34.7962L31.222 34.7966Z" fill="url(#paint12_radial_1248_34192)"/>
<path d="M24.1825 67.5039C24.1679 67.5397 24.1518 67.5765 24.1365 67.6126C23.9745 68.2836 24.7243 67.6608 24.1825 67.5039Z" fill="url(#paint13_radial_1248_34192)"/>
<path d="M22.9568 66.76C22.9517 66.899 22.9335 67.5894 23.2976 67.3646C23.5136 67.2318 23.7234 67.6893 23.8209 67.4266C23.9022 67.2059 23.1597 66.3707 22.9568 66.7604V66.76Z" fill="url(#paint14_radial_1248_34192)"/>
<path d="M24.0584 67.0254C23.9103 67.2035 24.0777 67.4644 24.1821 67.5034C24.2332 67.4024 24.2332 66.8156 24.0584 67.0254Z" fill="url(#paint15_radial_1248_34192)"/>
<path d="M21.3058 64.0513C21.362 64.0553 21.408 63.9856 21.4506 64.0046C21.4707 64.013 21.6415 64.1768 21.6477 64.1827C21.6874 63.9977 21.6922 63.7047 21.4995 63.7868C21.505 63.4934 21.289 63.2475 21.212 62.9366C21.2116 62.9363 21.2109 62.9366 21.2102 62.9363C21.2091 62.9304 21.2109 62.9224 21.2102 62.9173C21.1941 62.8487 21.1759 62.7805 21.1784 62.7042C21.1919 62.4451 21.1004 61.7329 20.8537 61.6953C20.8537 61.8088 20.8508 61.8617 20.7271 61.8533C20.495 61.8376 20.5833 61.9197 20.5239 62.0697C20.4235 62.3225 20.5377 62.5031 20.5293 62.7659C20.5198 63.0526 20.7052 63.203 20.7297 62.8231C20.7428 62.5896 20.6362 62.3707 20.6764 62.1273C20.7234 62.0941 20.7891 62.0616 20.8413 62.0259C20.8552 62.32 21.0701 62.5466 21.011 62.8658C21.1157 63.2387 21.0398 63.4949 21.2558 63.8258C21.3102 63.9101 21.1624 64.0418 21.3051 64.0513H21.3058Z" fill="url(#paint16_radial_1248_34192)"/>
<path d="M20.6136 60.6293C20.3013 60.7596 20.4337 61.3211 20.7595 61.0256C20.753 61.2106 20.7446 61.3948 20.7373 61.5798C21.023 61.5039 21.0376 60.39 20.6136 60.6293Z" fill="url(#paint17_radial_1248_34192)"/>
<path d="M21.7797 66.9281C21.8268 66.9744 21.8137 67.1083 21.8502 67.1331C21.9673 67.2112 21.8724 67.2878 22.0472 67.3123C21.9458 66.8858 22.2731 67.1207 22.3679 66.8898C22.4435 66.7073 22.6693 67.1229 22.7813 67.1371C22.8029 66.6198 22.7131 66.1939 22.3927 65.782C22.2428 65.5893 22.0987 65.5704 21.9177 65.4766C21.9144 65.4751 21.8567 65.5481 21.8527 65.554C21.7655 65.6605 21.7954 65.4748 21.7549 65.466C21.6433 65.4408 21.6495 65.0665 21.4736 65.4474C21.3342 65.6846 21.5813 65.8251 21.5313 66.0586C21.4959 66.2239 21.0321 66.2833 21.2478 66.5683C21.4463 66.8299 21.451 66.7781 21.6181 66.8978C21.6714 66.9365 21.7181 66.8671 21.7797 66.9288V66.9281Z" fill="url(#paint18_radial_1248_34192)"/>
<path d="M37.4869 92.9148C37.3314 92.6667 37.3887 92.4525 37.2504 92.2142C37.3125 92.2365 37.3668 92.2452 37.4274 92.2832C37.3781 92.1427 37.2508 92.1507 37.1344 91.9807C37.0366 91.841 37.0457 91.6209 36.9512 91.4662C36.8013 91.2214 36.524 90.7493 36.6798 90.5384C36.8837 90.2643 36.7914 89.8893 36.9363 89.5868C37.1344 89.1701 37.2015 88.9643 37.2187 88.4553C37.2304 88.1462 36.983 87.793 36.8487 87.5121C36.7549 87.3183 36.5995 87.091 36.5656 86.8965C36.5152 86.601 36.0701 86.574 35.8745 86.439C35.2236 85.9913 34.9298 85.1765 34.2355 84.7536C34.0439 84.6369 33.7582 84.5146 33.5477 84.4355C33.3018 84.3432 33.1514 84.187 32.9237 84.0932C32.796 84.0407 32.6264 84.2198 32.5808 84.0673C32.5508 83.963 32.5242 83.8732 32.4702 83.7783C32.3976 83.6473 32.3031 83.4408 32.159 83.393C31.8915 83.3044 31.7959 83.0088 31.5511 82.8964C31.4697 82.8577 30.9045 82.5502 30.8961 82.5352C30.7312 82.2444 30.6845 82.2207 30.409 82.0915C30.2204 82.0036 29.9146 81.7909 29.919 82.1842C29.8913 82.1816 29.865 82.1798 29.8373 82.1765C30.0139 81.5821 30.2397 80.8024 29.6625 80.3153C29.3899 80.0854 29.3166 79.4929 29.1739 79.1853C29.0251 78.8664 28.7977 78.3282 28.5252 78.1023C28.1804 77.8152 27.8954 77.3719 27.463 77.2744C26.9745 77.1617 26.8486 76.8953 26.6005 76.4885C26.5045 76.3305 26.4494 76.4714 26.4191 76.2269C26.4104 76.163 26.3991 76.1499 26.3724 76.0966C26.3385 76.0295 26.2885 75.9682 26.2575 75.9007C26.1798 75.7325 26.0849 75.5384 25.9937 75.3807C25.8882 75.1994 25.7649 75.0487 25.585 74.9436C25.3745 74.8217 25.485 74.4518 25.3037 74.2963C25.3044 74.2978 25.315 73.7268 25.3464 73.641C25.5328 73.1302 25.195 73.3597 24.9728 73.3644C24.8786 73.3659 24.4922 73.2699 24.4827 73.1999C24.4696 73.0886 24.4762 72.8886 24.3007 72.9386C24.0748 73.0032 24.2208 73.3834 24.1587 73.5545C24.0715 73.4786 24.0237 73.3039 23.9256 73.2262C23.7669 73.0992 23.4815 73.1247 23.3673 72.9963C23.3031 72.9229 23.2739 72.5719 23.2064 72.4519C23.1363 72.326 22.939 72.3968 22.9134 72.1487C23.0072 72.1979 23.14 72.1932 23.236 72.2352C23.3031 71.8166 23.0324 71.8488 22.8496 71.6437C22.8474 71.686 22.8466 71.7287 22.8452 71.7707C22.8185 71.7681 22.7919 71.7659 22.7653 71.7637C22.8109 71.5718 22.5799 71.3204 22.5715 71.5302C22.5609 71.8115 22.5755 72.106 22.6219 72.3793C22.2479 72.3895 22.7671 71.4463 22.2909 71.4145C22.053 71.3974 22.1599 71.8396 21.9702 71.9239C21.8403 71.9823 21.6411 71.9907 21.6137 72.176C21.5805 72.3957 21.5433 72.6704 21.521 72.9488C24.2127 81.6964 29.9854 89.0884 37.5675 93.8766C37.5974 93.8485 37.6241 93.8299 37.6368 93.8343C37.6751 93.611 37.4825 93.5562 37.4898 93.3534C37.4942 93.2315 37.5471 93.0133 37.4858 92.9148H37.4869Z" fill="url(#paint19_radial_1248_34192)"/>
<path d="M21.5302 65.061C21.6955 64.9865 21.7473 64.3152 21.5156 64.3976C21.4941 64.4367 21.1978 65.2106 21.5302 65.061Z" fill="url(#paint20_radial_1248_34192)"/>
<path d="M20.4742 66.1566C20.4698 66.2854 20.4647 66.4142 20.4604 66.5427C20.541 66.6601 20.9982 67.2655 21.0161 66.7999C21.0328 66.3723 20.8234 66.2394 20.4742 66.1562V66.1566Z" fill="url(#paint21_radial_1248_34192)"/>
<path d="M20.6005 64.0339C20.4355 63.9153 20.3867 63.5209 20.2637 63.3756C20.1776 63.276 20.0141 63.1396 19.8784 63.0195C19.8901 63.3866 19.9039 63.7533 19.9262 64.1174C20.0729 64.2305 20.2316 64.3407 20.3235 64.4327C20.3279 64.4371 20.5695 65.1843 20.5768 65.1679C20.3363 65.7846 21.5885 65.8926 21.3434 65.1624C21.2175 64.7877 20.9095 64.2557 20.6008 64.0343L20.6005 64.0339Z" fill="url(#paint22_radial_1248_34192)"/>
<path d="M51.4287 39.2759C51.6991 38.9004 51.8089 38.4878 51.7334 38.0598C51.9644 37.8908 52.1439 37.6595 52.238 37.3942C52.3114 37.4581 52.3949 37.4767 52.4916 37.4512V37.5055C52.322 37.5665 52.2691 37.6974 52.3384 37.893C52.6854 37.874 52.9123 37.6704 53.0466 37.3413C53.0809 37.627 53.1272 37.8996 53.1977 38.2324C52.3778 38.1572 52.0622 38.3447 52.4916 38.8329V38.9986C51.8557 39.2697 51.5448 39.5288 52.3384 39.6627C52.3865 39.728 52.4544 39.7652 52.5405 39.7725C51.8268 40.203 50.9624 40.7084 51.9337 40.9872C52.6109 40.6522 53.2385 40.4694 54.0073 40.3793C54.1332 40.4439 54.27 40.4628 54.412 40.4344L54.463 40.3256C55.4343 40.3669 56.1302 40.1381 55.8273 39.3846C56.4111 38.7687 56.2648 38.3411 55.3738 38.1689C55.2439 37.9875 55.1534 37.7748 55.1202 37.5614C54.69 37.1107 54.3087 36.7426 53.8581 36.347C54.3755 35.7286 54.5918 35.2375 53.4531 35.2973C53.5443 35.2123 53.6465 35.1386 53.7563 35.0787C53.7267 34.8846 53.7939 34.7529 53.9573 34.6891V34.634C53.873 34.6102 53.8223 34.5548 53.8052 34.469C53.6804 34.4453 53.5633 34.4636 53.4531 34.5238C53.2316 34.8025 52.8842 34.9503 52.558 35.0047C52.477 35.0145 52.4103 35.0262 52.3333 35.0437C51.7699 34.9251 51.3813 35.3163 51.2759 36.0136C51.5134 36.0544 51.655 35.9526 51.7338 35.7395L51.7827 35.9019C51.6013 35.98 51.4685 36.1124 51.4291 36.292C51.5473 36.3649 51.6666 36.3595 51.7827 36.292L51.8027 36.4218C51.6429 36.4956 51.5641 36.6181 51.5824 36.7853C51.6915 36.8484 51.8093 36.8674 51.9341 36.8436V36.9615C51.3284 36.7455 50.7504 36.8535 50.3192 37.2855V37.5063C49.6854 37.3723 49.3668 37.5307 49.4577 38.005C49.326 38.0667 49.2767 38.19 49.3044 38.3352C49.3701 38.3984 49.4449 38.409 49.5278 38.3681L49.6106 38.4998C49.4613 38.6406 49.3519 38.7753 49.2537 38.9428C49.141 38.9909 49.0235 39.0278 48.9031 39.053C48.8276 39.2587 48.8494 39.4806 48.9516 39.663C49.7919 39.748 50.6056 39.6145 51.4298 39.2766L51.4287 39.2759ZM52.2716 35.2043V35.2057L52.3282 35.2517C52.295 35.3024 52.2472 35.3367 52.1855 35.3524C52.172 35.2867 52.2023 35.2378 52.2716 35.2046V35.2043ZM52.0903 36.9958L52.238 37.1184L52.1859 37.23C52.122 37.2238 52.0695 37.1804 52.0359 37.1184L52.0903 36.9958Z" fill="url(#paint23_radial_1248_34192)"/>
<path d="M78.4211 29.9288C78.0806 29.951 77.7734 29.9649 77.622 29.9386V30.0492C78.2036 30.3243 78.7626 30.5943 79.3413 30.8782C78.4988 30.687 77.6198 30.498 76.7638 30.3254C76.9908 30.5451 77.3294 30.7275 77.6727 30.8235C76.762 30.5392 75.7141 30.5768 74.892 30.9344L74.9953 30.9902L74.9431 31.0431C74.7198 31.0303 74.5308 30.9778 74.3363 30.8782V30.8235H74.5355C74.1097 30.4527 73.4522 30.2703 72.8184 30.3254V30.4352C73.2825 30.6461 73.643 30.8607 74.0327 31.1544C73.18 30.9946 72.6874 31.1154 73.1709 31.8181C72.5827 31.4868 71.958 31.3872 71.6541 31.7072C71.7172 31.7276 71.769 31.7645 71.8063 31.8181L71.4016 31.7072C71.4334 31.6455 71.4822 31.6265 71.5519 31.6514C71.5662 31.5711 71.5508 31.4977 71.5041 31.4306H70.9984C70.9616 31.3062 70.9152 31.2055 70.8448 31.0982L70.6938 31.0427H70.7441L70.8444 31.0982C75.3357 30.3495 69.9848 29.8949 67.9152 29.607C67.9597 29.5811 67.9762 29.5438 67.9641 29.496C66.1503 29.0275 64.1439 29.0826 62.5016 29.6613C62.2473 29.5822 61.9514 29.6252 61.6952 29.7733V29.8854C61.3562 29.8533 61.107 29.9817 61.0359 30.2707C61.3376 30.1546 61.6434 30.1287 61.9444 30.2148C61.5533 30.4334 61.1873 30.695 60.9337 30.934V31.0982L61.0851 31.154C60.8819 31.1489 60.6685 31.2285 60.5794 31.3733L60.6798 31.4306C60.2113 31.6616 59.8066 31.8148 59.3684 31.9261C59.1838 31.8721 59.0948 31.9261 59.1137 32.0925L59.2163 32.148C58.6934 32.2622 58.2355 32.4187 57.7476 32.646V33.1988C57.655 33.5228 57.7648 33.9986 57.9998 34.3573C57.8954 34.7612 58.1081 34.9786 58.5569 35.0195L58.6091 35.1319C59.4545 35.145 60.1565 34.9272 60.8341 34.4689C61.0629 34.7678 61.2114 35.0724 61.2869 35.4052C61.5369 35.6588 61.785 35.8587 62.0484 36.0134V36.1265C61.6788 36.1364 61.3997 36.2499 61.2891 36.5042C61.2869 36.6082 61.2698 36.7213 61.2377 36.8428C61.2278 36.7071 61.2482 36.5976 61.2891 36.5042C61.2975 36.2035 61.1731 35.9769 60.8341 35.8489C60.5039 34.7196 59.9876 35.4092 59.5187 36.4549L59.4188 36.51C59.3739 36.7541 59.4848 36.8851 59.7351 36.8975C59.6986 37.0033 59.6928 37.1139 59.7191 37.2292L59.8216 37.2843C59.3936 37.6579 58.2099 38.2932 57.2934 38.611L57.243 38.9977C56.3545 39.6976 55.5547 40.4215 54.9158 41.1042C54.6655 41.133 54.4579 41.0724 54.4109 40.8754C54.181 40.7944 53.9387 40.7951 53.7037 40.8754C53.718 41.1337 53.7643 41.3486 53.857 41.5924C52.878 41.3143 52.0603 41.4351 51.9837 42.3644C52.0892 42.3936 52.141 42.4673 52.1373 42.5856C52.5653 42.5305 52.9827 42.6644 53.2491 42.972L53.4082 42.9745C53.3228 43.42 53.5534 43.6437 54.0164 43.6368C53.9008 43.89 53.8803 44.1385 53.9555 44.4092H53.8566C53.8365 44.8792 53.769 45.3363 53.653 45.7913C53.3367 45.7581 53.0108 45.7746 52.7423 45.8443C52.2617 45.71 51.7006 45.7144 51.1733 45.8443C50.5917 45.5057 49.7558 45.5188 49.203 46.0106C48.9622 45.9869 48.7695 46.061 48.5973 46.2303C48.7772 47.0254 48.817 47.8175 48.7166 48.629C48.2481 49.1883 48.0701 49.875 48.2416 50.5402L48.4116 50.5176C48.4791 50.8722 48.4448 51.3542 48.3415 51.7556C48.8721 51.8672 49.3205 51.8519 49.8605 51.6998C49.9565 52.0789 50.1462 52.4401 50.4155 52.7491C49.8018 53.9966 48.9315 55.0453 47.8873 55.8411L47.9982 55.8451C47.8095 57.008 47.3454 58.1113 46.6233 58.9356C43.9827 60.1897 42.1011 63.0193 42.4247 65.8941L42.5491 65.8751C42.7246 67.5605 42.8637 69.8537 42.8823 71.31C44.206 74.1658 47.9062 74.8963 51.4608 73.9714C53.5249 73.4332 55.3183 73.6196 55.5084 74.7485C56.9752 74.7485 56.1488 76.7294 57.6462 77.2753C58.4792 78.0116 59.8967 78.4279 60.6838 78.3685C60.5072 79.1964 60.8359 79.4255 61.5401 79.5941C61.2971 79.9911 61.1067 80.5245 61.0344 81.0309L61.1377 80.7536C61.9287 81.0583 62.4206 82.2854 62.6866 82.6937C63.1959 83.4683 62.8683 83.8474 64.4566 84.4848C65.2684 85.3719 63.0558 85.6681 63.4116 86.4428C63.5743 86.7051 63.8429 87.0736 63.5137 87.3276C61.3544 89.6843 63.8472 91.2139 63.4616 91.6364C63.7254 92.0936 64.1027 92.5015 64.5737 92.8503C64.5004 93.5137 65.3929 93.4152 66.1945 93.1813C67.7109 92.9062 67.3285 92.3848 68.6194 92.0301C69.2065 91.8681 71.4104 91.979 72.0562 91.7448C72.4269 91.4218 72.779 91.177 73.1694 90.9716C75.2036 88.389 74.6979 87.0532 75.814 87.1608C77.5103 86.5424 78.9859 84.9942 80.395 83.1549C81.2054 82.0902 79.704 80.4676 80.9701 79.532C81.5973 79.0676 82.1983 78.1382 83.144 77.6135C83.7884 77.2571 84.7312 77.384 85.4241 76.8214C86.2316 76.1599 87.4583 76.2712 87.8852 75.3407C88.781 74.3647 89.2772 73.0559 89.1484 71.9707H88.8463C87.779 72.4476 86.5049 72.9315 85.3552 73.2949H85.1541L85.0541 73.2409C84.7334 72.9435 84.6068 72.6527 84.7516 72.3564C84.5991 71.9565 85.3756 71.8204 85.662 71.8606C87.0788 71.1038 88.5664 70.3179 90.1602 69.4845C90.258 69.2751 90.2178 68.985 90.4229 68.8361C90.5699 68.7277 90.8129 68.7161 90.9702 68.6559C91.33 68.5183 91.982 68.4063 91.982 67.9097C91.982 67.6769 91.9944 67.6674 92.2356 67.6346C92.6297 67.582 92.476 67.3518 92.6647 67.1369C92.8511 66.9238 93.2901 66.9161 93.3974 66.6684C93.4784 65.8678 93.7779 65.1644 94.3077 64.4565C94.3559 64.2832 94.4643 64.0303 94.4066 63.8505C94.3562 63.6914 94.1979 63.7249 94.1319 63.5742C94.0457 63.3801 93.9509 62.9875 93.7998 62.8562C93.54 62.631 93.1471 62.8463 92.8913 62.5785C92.6366 62.3125 92.6413 61.863 92.5928 61.516C92.5662 61.3303 92.6165 60.7063 92.4381 60.6487C92.2082 60.575 92.0032 61.227 91.9058 61.3376C91.7459 61.5196 91.6408 61.7714 91.5259 61.9732C91.4599 62.0877 91.4478 62.2902 91.3584 62.3249C91.1979 62.388 91.11 62.4672 91.1202 62.6435C90.8403 62.5354 90.4481 62.4249 90.2372 62.6639C90.0442 62.8846 90.0657 62.472 89.8508 62.4701C89.9256 62.1326 89.9818 61.4426 89.8063 61.1453C89.556 60.7191 89.3363 61.0201 89.2013 61.3664C88.8926 61.0749 88.9915 60.4301 88.6708 60.0663C88.3756 59.7332 88.1162 59.4289 87.9348 59.0461C87.841 58.8484 87.7506 58.6594 87.7352 58.4386C87.7159 58.1478 87.7739 58.0453 88.037 57.9975C88.1008 57.9858 88.4376 57.9636 88.4931 57.9975C88.6401 58.0854 88.6328 58.2496 88.7689 58.4102C89.0021 58.6857 89.1039 59.1673 89.3005 59.4887C89.4859 59.7916 89.6818 59.6285 89.884 59.8474C89.9796 59.9529 90.1346 59.8744 90.1744 60.0426C90.2054 60.1809 90.2226 60.2163 90.3142 60.3159C90.3678 60.3761 90.7298 60.6625 90.8184 60.7027C90.9487 60.7614 91.1975 60.6746 91.2968 60.7859C91.3183 60.81 91.3956 60.9201 91.4256 60.9242C91.8514 60.9785 92.0254 60.4137 92.4874 60.3721C92.5757 60.6782 92.6709 61.0139 92.7654 61.3368C92.8858 61.7557 93.4532 61.4226 93.6739 61.6692C93.7495 61.7528 94.6989 61.8768 95.7402 61.9487C95.7417 61.8903 95.7453 61.8323 95.7453 61.7743C95.7453 48.4243 88.8444 36.6914 78.4192 29.927L78.4211 29.9288ZM58.1537 33.9176C58.2446 33.8187 58.0651 34.0157 58.1537 33.9176V33.9176ZM79.6463 30.9902C79.5536 31.0865 79.7354 30.8895 79.6463 30.9902V30.9902ZM78.3284 30.9344C78.2408 31.0311 78.4189 30.8329 78.3284 30.9344V30.9344ZM78.1292 30.8782C78.0642 30.9468 78.2379 30.7596 78.1292 30.8782V30.8782ZM77.8267 30.7107C77.7333 30.8089 77.915 30.614 77.8267 30.7107V30.7107ZM77.1674 43.6382C77.665 43.5565 78.0077 43.4627 78.4824 43.2785C78.4495 43.4051 78.3598 43.4521 78.2299 43.416C78.4123 43.7656 78.4313 44.0702 78.2755 44.4296C77.9154 44.2344 77.5479 44.2122 77.1677 44.3548C76.8769 44.1337 76.8831 43.8947 77.1677 43.6382H77.1674ZM76.7638 30.7669C76.8532 30.6695 76.6715 30.8672 76.7638 30.7669V30.7669ZM73.1713 46.2321C73.5876 46.0541 73.6281 45.5899 73.4756 45.1291C73.9134 45.0269 74.0411 44.7332 73.8806 44.2994C74.1115 44.1797 74.2881 43.9221 74.3367 43.6382L74.4355 43.582C74.8533 43.8608 75.2609 44.0199 75.7009 44.0801C77.6705 44.8201 83.9737 46.4226 78.632 47.7259C78.5298 47.3961 78.316 47.3089 78.0274 47.5008C77.9102 47.4442 77.8449 47.364 77.8263 47.229C76.8926 47.0067 75.9549 47.2107 75.4003 47.889L75.2448 47.9445C74.8723 47.7609 74.4235 47.7478 73.9824 47.889V47.7792C73.8634 47.6507 73.7215 47.5796 73.5584 47.5825C73.2311 47.1706 73.1005 46.7382 73.1709 46.2321H73.1713ZM61.897 37.3416L61.8766 37.2088C62.0845 37.1354 62.1823 36.996 62.1491 36.7851C63.3069 36.8917 64.1643 36.502 64.4734 35.5168H64.2231C64.2847 35.2494 64.3136 35.0254 64.323 34.7437C65.3133 34.1752 65.125 33.6837 64.0716 33.3086C64.0855 33.0612 64.0687 32.8248 64.0206 32.5924C64.5748 32.287 65.0528 31.9903 65.5363 31.651C65.5392 31.5357 65.4841 31.4423 65.3837 31.373C65.6658 31.0052 66.1219 30.9738 66.5506 31.2084L66.4992 31.2653C66.3605 31.5576 66.0941 31.8418 65.7909 32.0389C65.5417 31.9104 65.337 31.909 65.3345 32.203L65.4377 32.2589C65.4396 32.5661 65.5899 32.8193 65.8489 32.9222C65.7628 33.1769 65.7968 33.4239 65.9424 33.6396C66.0817 33.702 66.2226 33.7125 66.3656 33.6717C67.3468 33.8877 68.664 34.0238 69.7341 34.0271L69.5305 34.0829V34.3098C68.7636 33.9315 67.9265 33.9778 67.3584 34.478C67.0187 34.3627 66.7396 34.4124 66.7002 34.6886C66.6404 34.917 66.7002 35.1261 66.8527 35.2968C66.6947 35.3585 66.6287 35.4829 66.6692 35.65C66.6177 36.0725 66.5776 36.4889 66.551 36.8979L66.1974 36.9541C66.1697 37.0785 66.1014 37.1748 65.9927 37.2296C65.001 36.8899 63.9516 37.1172 63.1412 37.8039C63.0839 37.6725 62.985 37.5685 62.8588 37.5054C62.9394 37.1807 62.7541 37.0493 62.3509 37.1183C62.1976 37.2493 61.8408 37.4226 61.5434 37.5054L61.392 37.3941L61.8981 37.3412L61.897 37.3416ZM69.0259 50.6526C68.9351 50.7511 69.1142 50.5544 69.0259 50.6526V50.6526ZM68.8767 50.376C68.7829 50.4745 68.9653 50.2771 68.8767 50.376V50.376ZM71.0999 55.6805C69.154 54.7892 68.3275 55.7302 68.2155 57.6669C67.6124 57.0317 66.8323 56.6752 65.9916 56.6719C65.3272 55.4277 64.1034 54.8738 62.584 54.984C62.4764 54.8027 62.398 54.6133 62.3498 54.409C62.1677 54.3017 61.9769 54.3083 61.8452 54.4648C61.7481 54.1484 61.9689 53.8372 62.3498 53.58C62.3348 53.1359 62.1998 52.7601 61.9452 52.4211L62.0495 52.3649C62.1732 52.107 62.2184 51.8964 62.1998 51.5929C62.1342 51.5739 62.0842 51.5363 62.0495 51.4794C61.9098 51.4823 61.7985 51.5637 61.7437 51.7012C61.0589 51.2652 60.0799 51.3046 59.2173 51.7012C58.8795 51.4502 58.469 51.5213 58.0541 51.8111C57.6356 51.5732 57.1295 51.5695 56.7388 51.8111C55.9039 51.737 55.002 52.0406 54.412 52.6411C53.2943 53.1246 52.4843 53.2636 51.2262 53.1925C51.154 52.9984 51.0642 52.7842 50.9734 52.5871C51.787 52.3055 52.8397 51.8917 53.5038 51.5925C54.1044 51.4265 54.4116 51.0623 54.5138 50.4318C55.1264 49.1646 56.094 47.5063 57.0934 46.0117C58.3238 46.4667 59.3702 46.2237 60.2791 45.2922V45.1736C60.844 45.2787 61.2194 45.622 61.3398 46.1788C60.8637 46.6984 61.4737 46.6382 61.897 46.62V46.7316C61.7 46.7079 61.6511 46.786 61.7437 46.9502H62.1998C62.4877 47.3461 62.8665 47.7197 63.2609 47.9992C64.7671 48.4436 65.5775 49.5401 65.556 51.0371H65.7902C66.3474 50.3789 66.4827 49.7072 66.0434 49.0493C66.0821 48.7403 66.2437 48.6326 66.5502 48.7749L66.598 49.0493C67.7791 48.7924 66.4448 48.0335 65.4852 47.5001C65.5716 47.3545 65.5487 47.1972 65.4374 47.0618C64.4424 46.6233 63.5513 45.9928 62.7493 45.1838C62.6574 44.7 62.792 44.3362 63.2102 44.1888L63.3112 44.2454C63.2551 44.542 63.3251 44.7573 63.5159 44.962C63.6776 45.039 63.794 45.0204 63.8666 44.9069C65.0138 45.8567 66.2452 46.7524 67.5084 47.5584C67.4672 48.0039 67.4847 48.4458 67.5598 48.8844C67.6514 48.9431 67.7518 48.9807 67.8623 48.9964V49.0493C67.7645 49.4496 68.0681 49.7681 68.5702 49.9874C68.533 50.9638 69.0281 51.6443 69.8859 52.0876C69.949 52.173 69.9979 52.2657 70.0352 52.3646C70.7379 52.8655 70.9032 52.5112 70.6941 51.5925C71.0597 51.6534 70.8937 51.2499 70.7445 51.1492C70.882 51.34 71.1674 51.2922 71.2524 51.0926C71.2662 51.1787 71.3108 51.7789 71.441 51.8089C71.5271 51.8289 71.5519 51.2623 71.5519 51.2605C71.73 51.5195 71.8573 51.3436 71.8573 51.7016C71.7847 51.8994 71.8511 51.9895 72.0551 51.9712C72.362 52.0157 72.4736 51.8176 72.4138 51.5356C72.1985 51.2448 71.9314 50.9904 71.6297 50.789C71.3078 50.5738 71.1852 50.28 71.0097 49.936C70.7831 49.4915 70.2453 49.3543 70.0355 48.8297C70.4394 49.3529 71.5169 48.9895 71.0466 48.4965C71.3553 48.6877 71.4151 48.51 71.6045 48.3301C71.6727 48.3491 71.7384 48.3692 71.8066 48.3878C71.5746 48.5633 71.8194 48.633 71.5552 48.8567C71.4582 48.9388 71.352 49.0756 71.4837 49.1854C71.7902 49.4394 71.8606 49.1376 72.0255 49.1741C72.5732 49.296 71.6614 50.006 72.5145 50.1542C72.3309 50.1261 72.1419 50.1687 72.1339 50.3877C72.116 50.8135 72.393 50.8295 72.7195 50.9842C72.4813 51.0817 72.3386 51.2732 72.4145 51.5359C72.7013 51.6235 72.7163 51.3845 72.96 51.4195C73.3884 51.4805 73.1818 52.3485 73.546 52.1774C73.9572 53.6398 74.082 52.0008 74.4914 52.2525C74.7479 52.721 75.216 52.8097 75.7535 52.5871C75.8615 52.4521 75.8794 52.3047 75.8027 52.1435C76.7266 52.7488 77.6468 52.8407 78.4827 52.1435C78.6258 52.2712 78.794 52.3281 78.9881 52.3091C78.9625 52.4481 78.995 52.559 79.0873 52.6411C78.64 57.3261 75.5269 57.7851 71.1002 55.6798L71.0999 55.6805ZM70.2902 52.1975C70.3245 52.4138 70.2402 51.8888 70.2902 52.1975V52.1975ZM84.2452 71.1983C84.146 71.0119 84.0099 70.8929 83.8789 70.7061C83.7256 70.4875 83.5304 70.3595 83.3622 70.1781C83.1236 69.9212 82.5657 69.6775 82.5237 69.3301C82.4489 68.7161 82.2716 68.2326 82.0468 67.7192C81.9614 67.5262 81.6506 67.2941 81.4634 67.1964C81.2248 67.0694 81.2631 66.4531 81.2631 66.236C81.2631 65.7474 81.2368 65.0275 81.0095 64.5725C80.9343 64.4222 80.7409 64.2817 80.6293 64.1562C80.4096 63.9085 80.0999 63.98 80.0999 63.5768C80.0999 63.3677 80.3297 63.2834 80.2535 63.0255C80.2283 62.9416 80.0918 62.8813 80.048 62.8029C79.9503 62.6267 79.8434 62.48 79.7434 62.3052C79.3172 61.5532 78.883 60.5702 78.6849 59.8773C78.8972 60.151 79.2322 59.9766 79.1906 59.6464C79.6401 59.6387 79.7799 60.3524 80.0243 60.6228C80.21 60.8297 80.2787 60.9884 80.3389 61.2536C80.3848 61.4521 80.6176 61.5718 80.7066 61.755C80.8548 62.0604 80.8336 62.4085 81.0091 62.6949C81.1868 62.9846 81.2722 62.8558 81.5141 63.0251C82.4891 63.7071 81.706 65.2538 82.5288 66.0076C82.7109 66.174 82.943 66.2375 83.1086 66.4221C83.3352 66.672 83.3202 66.98 83.4366 67.2785C83.6176 67.744 83.8956 68.1056 84.1193 68.6037C84.2149 68.8179 84.6101 69.3093 84.3718 69.5695C84.1522 69.8103 84.3218 69.9081 84.3974 70.2048C84.5185 70.6816 84.4411 71.2286 84.6009 71.6956C84.3207 71.6847 84.3517 71.3964 84.2445 71.1976L84.2452 71.1983ZM84.6528 71.8069C84.5619 71.9058 84.7392 71.7095 84.6528 71.8069V71.8069ZM85.003 44.0805C85.1785 43.8783 85.3993 43.7502 85.6642 43.6937C85.7945 43.8517 85.9721 43.9287 86.171 43.9155C86.202 43.8758 86.2341 43.8385 86.2692 43.8035C86.6114 44.014 86.7588 44.3862 86.7227 44.8069C86.0871 44.6299 85.889 44.8616 86.117 45.4597H85.7634C86.171 46.215 86.823 46.8863 87.5849 47.3373C87.7659 48.2407 88.207 49.1865 88.747 49.8236C89.0674 50.4001 89.4169 51.2236 89.7077 52.0884H89.0502V52.2047C88.8423 52.1369 88.6328 52.1241 88.4241 52.1657C88.2796 52.0267 88.0965 51.9274 87.8866 51.8676C87.4769 51.5294 87.1372 51.2101 86.7756 50.8179L86.7256 50.5417C86.8661 50.1936 86.8836 49.7203 86.7756 49.3266C86.6151 48.9493 85.4898 46.9681 84.8035 45.9574L84.5491 45.9034C84.4798 45.6874 84.3167 45.5316 84.0941 45.4597C84.0781 45.1999 84.0941 44.9423 84.1434 44.6872C84.5506 44.5606 84.8378 44.3472 85.0027 44.0801L85.003 44.0805Z" fill="url(#paint24_radial_1248_34192)"/>
<path d="M20.0878 32.295C18.8253 33.8702 18.4127 36.0485 18.5769 38.2169C18.7323 40.3985 19.3778 42.5837 20.1984 44.688C21.9027 48.8968 24.3605 52.828 27.0956 56.5227C32.6125 63.911 39.3265 70.393 46.5711 76.134C50.229 78.9658 54.0222 81.625 57.9687 84.0342C61.9211 86.4318 66.0314 88.5671 70.2745 90.367C74.5184 92.1469 78.9286 93.5892 83.4348 94.2569C85.6802 94.566 87.9673 94.6875 90.1525 94.3277C92.3246 93.98 94.4033 93.0579 95.6961 91.4029C96.991 89.7489 97.3796 87.5082 97.1917 85.3175C97.0114 83.1107 96.3401 80.9222 95.4965 78.8191C93.7604 74.6088 91.2906 70.6816 88.5368 66.9964C82.9977 59.6179 76.2617 53.1582 68.9985 47.4446C61.6817 41.8 53.7752 36.8479 45.2795 33.2714C41.0367 31.5058 36.6312 30.0663 32.1378 29.4245C29.8993 29.1345 27.6239 29.0337 25.4701 29.4074C23.3261 29.7686 21.3149 30.6943 20.0867 32.2954L20.0878 32.295ZM18.5418 31.0865C19.3672 30.0532 20.4465 29.2534 21.5955 28.7013C22.7481 28.1548 23.9653 27.7935 25.1822 27.6315C27.6192 27.2721 30.0346 27.4516 32.3801 27.8107C37.0694 28.5981 41.5231 30.1838 45.795 32.0808C50.0685 33.9873 54.1675 36.24 58.1176 38.7135C62.0794 41.1709 65.8799 43.8758 69.5411 46.7521C73.207 49.6225 76.739 52.6685 80.0681 55.929C83.4114 59.1735 86.5797 62.6102 89.4501 66.3006C92.3056 69.9942 94.9101 73.9341 96.7772 78.29C97.67 80.4785 98.4023 82.7743 98.6191 85.1996C98.7442 86.4066 98.6774 87.6549 98.4209 88.8769C98.159 90.0974 97.6452 91.2974 96.8615 92.3132C96.066 93.3203 95.0236 94.107 93.9023 94.655C92.7782 95.1979 91.5832 95.5632 90.3817 95.7321C87.976 96.105 85.5722 95.9467 83.2337 95.6062C78.5575 94.8447 74.1086 93.2615 69.8377 91.3788C65.5665 89.4811 61.4693 87.2335 57.5174 84.7695C53.5512 82.3252 49.7448 79.6327 46.0764 76.7677C42.4017 73.9104 38.8599 70.8768 35.5191 67.6273C32.1652 64.393 28.9875 60.9628 26.1049 57.2787C23.2312 53.5942 20.6147 49.6587 18.7159 45.301C17.8 43.1135 17.0415 40.8141 16.7999 38.364C16.6627 37.1449 16.7182 35.877 16.9692 34.6269C17.2257 33.3787 17.7427 32.1403 18.5418 31.0869V31.0865Z" fill="#E2E8FF"/>
<path d="M98.2057 85.3115C97.9962 82.9606 97.2916 80.6991 96.4021 78.5449C95.6811 76.8161 94.8262 75.1501 93.8892 73.5337C93.8337 73.7052 93.7753 73.8756 93.717 74.0453C94.5722 75.5551 95.3483 77.1073 96.0088 78.7076C96.879 80.8374 97.5613 83.0668 97.7547 85.3487C97.8481 86.4864 97.809 87.6368 97.562 88.7413C97.3183 89.8454 96.8498 90.8959 96.1562 91.7793C95.4658 92.6652 94.5606 93.3745 93.5477 93.8769C92.5348 94.3826 91.4281 94.6997 90.301 94.8836C88.0392 95.247 85.712 95.1244 83.4337 94.7938C81.1521 94.456 78.902 93.8952 76.6959 93.2066C74.4881 92.5156 72.3214 91.6942 70.1946 90.7806C65.9398 88.9489 61.8419 86.7608 57.8888 84.3431C53.9361 81.9229 50.1287 79.2644 46.4697 76.4166C42.8264 73.5505 39.3295 70.495 36.031 67.2407C32.7333 63.9853 29.6245 60.5336 26.8245 56.8461C25.4274 55.0002 24.1116 53.0938 22.9127 51.1173C21.7166 49.1407 20.6355 47.093 19.762 44.9611C18.8972 42.832 18.2222 40.6056 18.0347 38.3328C17.9449 37.1995 17.9869 36.0556 18.2339 34.9602C18.4791 33.8645 18.9403 32.8327 19.6346 31.9526C20.3155 31.0769 21.2091 30.3745 22.211 29.8746C23.2144 29.3711 24.3145 29.054 25.4354 28.8687C27.686 28.503 30.0098 28.6213 32.2841 28.9475C33.9074 29.1846 35.5158 29.5371 37.1048 29.9666C37.2869 29.848 37.4701 29.7283 37.6547 29.6119C35.9183 29.1117 34.153 28.6997 32.3615 28.4231C30.0533 28.0747 27.6849 27.9313 25.3413 28.2925C24.1751 28.4764 23.0152 28.7979 21.9392 29.328C20.8632 29.8538 19.8784 30.6084 19.1296 31.5633L19.1267 31.5673C18.389 32.5174 17.8887 33.6598 17.6391 34.8285C17.3845 36.002 17.3534 37.2038 17.4571 38.3809C17.6731 40.7409 18.3838 43.005 19.2796 45.1599C20.1841 47.3171 21.2955 49.3764 22.5175 51.3584C23.7424 53.3408 25.0826 55.248 26.5008 57.0913C29.3359 60.7831 32.4728 64.2301 35.7957 67.4779C39.1222 70.7249 42.6422 73.769 46.3088 76.6224C49.9641 79.4881 53.7705 82.1659 57.7257 84.6069C61.6813 87.0446 65.7851 89.2532 70.0512 91.109C72.1835 92.0361 74.3582 92.8713 76.5777 93.577C78.7965 94.2801 81.0627 94.8562 83.3709 95.2084C85.6755 95.5532 88.0403 95.6914 90.3725 95.328C91.5343 95.143 92.6858 94.8212 93.7542 94.2936C94.8211 93.7696 95.7935 93.0206 96.5331 92.0744C97.2712 91.1276 97.7642 90.0038 98.0156 88.842C98.2699 87.6788 98.3045 86.4827 98.2049 85.3104L98.2057 85.3115Z" fill="#99AAF4"/>
<path d="M110.956 60.748C110.622 60.2212 110.197 59.7731 109.739 59.3776C108.82 58.5869 107.779 57.9808 106.717 57.4445C104.582 56.3845 102.332 55.6128 100.064 54.9429C98.3443 54.4445 96.6108 54.0084 94.866 53.6217C94.8981 53.764 94.9298 53.9063 94.9597 54.0497C96.6342 54.4324 98.298 54.8597 99.9454 55.3453C102.196 56.0203 104.424 56.7972 106.515 57.8469C107.554 58.3767 108.565 58.9755 109.435 59.7289C109.866 60.1059 110.258 60.5262 110.554 60.9991C110.848 61.4709 111.033 62.0025 111.024 62.5403C111.02 63.0785 110.821 63.6046 110.515 64.0688C110.206 64.534 109.803 64.9434 109.361 65.3086C108.472 66.0394 107.445 66.6108 106.393 67.1129C104.275 68.1068 102.027 68.8242 99.7597 69.4393C95.2119 70.6507 90.5528 71.4261 85.8795 72.0219C81.2025 72.6061 76.4989 72.9845 71.7891 73.2143C67.0786 73.4428 62.3622 73.5205 57.6458 73.4668C52.9298 73.3935 48.2164 73.1877 43.5153 72.8316C38.8132 72.474 34.1227 71.9698 29.4629 71.259C24.8097 70.5321 20.1743 69.6258 15.6666 68.2878C13.4201 67.6099 11.194 66.8298 9.11092 65.78C8.07686 65.2499 7.06945 64.6515 6.2098 63.902C5.7818 63.5276 5.39504 63.1113 5.10532 62.6472C4.8189 62.1842 4.6423 61.6686 4.65142 61.1498C4.65543 60.6138 4.84553 60.1172 5.14437 59.6589C5.44502 59.2024 5.84383 58.7952 6.27986 58.4325C7.16066 57.7061 8.18195 57.134 9.22987 56.6308C11.3399 55.6347 13.5843 54.9126 15.8483 54.293C17.499 53.8497 19.1639 53.4651 20.8402 53.124C20.8807 52.9521 20.923 52.7817 20.9646 52.6113C19.2052 52.9499 17.4531 53.3382 15.7148 53.7899C13.4267 54.3967 11.1531 55.1049 8.98358 56.1065C7.90355 56.6151 6.84286 57.1934 5.89382 57.9637C5.42204 58.3493 4.97908 58.7894 4.62551 59.3155C4.45001 59.5793 4.29859 59.8654 4.19095 60.1726C4.13549 60.3259 4.09535 60.4857 4.06397 60.6466C4.03442 60.8024 4.018 60.9954 4.01398 61.1297V61.1384C4.00267 61.8051 4.23911 62.4458 4.57553 62.9774C4.91596 63.5134 5.34687 63.9648 5.80917 64.3632C6.73777 65.1586 7.78205 65.7647 8.84821 66.3014C10.9904 67.3603 13.245 68.1287 15.5167 68.7961C20.0707 70.1093 24.7279 70.9824 29.4009 71.6753C34.0764 72.3649 38.7778 72.8484 43.4891 73.1837C48.2 73.5176 52.9203 73.7011 57.6422 73.7522C62.3626 73.8208 67.0862 73.7573 71.8044 73.5424C76.5215 73.3267 81.2339 72.9629 85.9251 72.3916C90.6123 71.8121 95.2881 71.0528 99.8695 69.8509C102.155 69.2401 104.425 68.5268 106.586 67.5227C107.662 67.0137 108.717 66.4342 109.657 65.6684C110.125 65.2845 110.562 64.8478 110.908 64.3296C111.252 63.8144 111.496 63.1952 111.503 62.5465C111.514 61.8981 111.286 61.2727 110.956 60.7484L110.956 60.748Z" fill="#99AAF4"/>
<path style="mix-blend-mode:screen" d="M44.9807 72.7817C44.9807 74.4014 43.6682 75.7139 42.0485 75.7139C40.4288 75.7139 39.1164 74.4014 39.1164 72.7817C39.1164 71.1621 40.4296 69.8496 42.0485 69.8496C43.6675 69.8496 44.9807 71.1621 44.9807 72.7817Z" fill="url(#paint25_radial_1248_34192)"/>
<path d="M21.1916 40.6548C21.1916 42.2741 19.8784 43.5869 18.2591 43.5869C16.6398 43.5869 15.3277 42.2741 15.3277 40.6548C15.3277 39.0355 16.6401 37.7227 18.2591 37.7227C19.878 37.7227 21.1916 39.0355 21.1916 40.6548Z" fill="url(#paint26_radial_1248_34192)"/>
<path style="mix-blend-mode:screen" d="M78.5798 73.1392C78.5798 74.7588 77.2666 76.0713 75.6476 76.0713C74.0287 76.0713 72.7155 74.7588 72.7155 73.1392C72.7155 71.5195 74.0276 70.207 75.6476 70.207C77.2677 70.207 78.5798 71.5198 78.5798 73.1392Z" fill="url(#paint27_radial_1248_34192)"/>
<path d="M98.0196 34.7606C97.7715 33.5915 97.2716 32.4491 96.5338 31.4997L96.5298 31.4953C95.7811 30.5404 94.7977 29.7855 93.7214 29.2594C92.6442 28.7296 91.4843 28.4081 90.3171 28.2238C87.9749 27.863 85.6062 28.0064 83.298 28.3552C80.9865 28.7124 78.7192 29.2922 76.4996 29.9997C74.2808 30.7094 72.1058 31.5493 69.9731 32.4805C65.7066 34.3399 61.6036 36.5514 57.6487 38.9931C53.695 41.4367 49.8897 44.1178 46.2362 46.9864C42.5721 49.8438 39.0555 52.8916 35.7325 56.1422C32.4125 59.3936 29.279 62.8435 26.449 66.5371C25.0344 68.3834 23.6993 70.2932 22.4796 72.2766C21.262 74.2612 20.1575 76.3209 19.2584 78.4769C18.3689 80.6312 17.665 82.8923 17.4545 85.2432C17.3542 86.4155 17.3896 87.6112 17.6431 88.7748C17.8945 89.9362 18.3879 91.0607 19.1267 92.0069C19.866 92.9533 20.8391 93.7024 21.9056 94.2257C22.974 94.7533 24.1262 95.0758 25.2876 95.2608C27.6192 95.6239 29.9832 95.4852 32.2881 95.1408C34.1045 94.8635 35.8934 94.4464 37.6543 93.9396C37.5055 93.8462 37.3584 93.7499 37.2106 93.6543C35.5694 94.1067 33.9067 94.4767 32.2261 94.7259C29.9478 95.0565 27.6214 95.1791 25.3584 94.8157C24.2317 94.631 23.125 94.3143 22.1132 93.809C21.1 93.3065 20.194 92.5972 19.504 91.7113C18.8089 90.8283 18.3411 89.7775 18.0974 88.6734C17.8515 87.5685 17.8121 86.4177 17.9055 85.2804C18.0996 82.9981 18.7801 80.7694 19.6514 78.6397C20.5304 76.5066 21.6174 74.4593 22.8189 72.4842C24.0233 70.5099 25.3442 68.6053 26.7438 66.7623C29.5494 63.077 32.6617 59.6286 35.962 56.3765C39.2645 53.1254 42.7648 50.0733 46.4106 47.2116C50.0714 44.3663 53.8789 41.7107 57.833 39.2938C61.7875 36.8794 65.8862 34.6949 70.1391 32.8665C72.2674 31.9569 74.4348 31.1399 76.6416 30.4532C78.8476 29.7687 81.096 29.2127 83.3753 28.8788C85.6496 28.553 87.9713 28.4347 90.2226 28.8007C91.3442 28.9857 92.4443 29.3031 93.4477 29.8067C94.45 30.3065 95.3436 31.0089 96.0241 31.8846C96.7184 32.7643 97.1807 33.7962 97.4256 34.8919C97.6715 35.9876 97.7145 37.1315 97.624 38.2645C97.4365 40.538 96.7615 42.7641 95.8967 44.8928C95.26 46.4486 94.5098 47.9599 93.6863 49.4315C93.7564 49.6318 93.8261 49.8321 93.8917 50.0339C94.8182 48.4397 95.6632 46.7971 96.378 45.092C97.2738 42.9363 97.9853 40.6726 98.2016 38.3126C98.3042 37.1359 98.2728 35.9333 98.0177 34.7602L98.0196 34.7606Z" fill="#99AAF4"/>
<path style="mix-blend-mode:screen" d="M99.1631 32.3071C99.1631 33.9268 97.8506 35.2389 96.231 35.2389C94.6113 35.2389 93.2985 33.9264 93.2985 32.3071C93.2985 30.6878 94.6117 29.375 96.231 29.375C97.8503 29.375 99.1631 30.6878 99.1631 32.3071Z" fill="url(#paint28_radial_1248_34192)"/>
<path d="M21.1916 81.2255C21.1916 82.8451 19.8784 84.1572 18.2591 84.1572C16.6398 84.1572 15.3277 82.8451 15.3277 81.2255C15.3277 79.6058 16.6401 78.293 18.2591 78.293C19.878 78.293 21.1916 79.6061 21.1916 81.2255Z" fill="url(#paint29_radial_1248_34192)"/>
<path style="mix-blend-mode:color-dodge" fill-rule="evenodd" clip-rule="evenodd" d="M57.798 23.8262C78.7553 23.8262 95.7471 40.8191 95.7471 61.7753C95.7471 82.7315 78.7549 99.7245 57.798 99.7245C36.841 99.7245 19.8466 82.7323 19.8466 61.7753C19.8466 40.8184 36.8403 23.8262 57.798 23.8262Z" fill="url(#paint30_radial_1248_34192)"/>
<path d="M114.609 30.9361V47.4708C114.609 49.1372 113.924 50.6288 112.824 51.7117C111.746 52.7713 110.268 53.4102 108.637 53.4102H88.5277C85.2311 53.4102 82.6197 50.7675 82.6197 47.4708V30.9361C82.6197 28.9432 83.5658 27.1619 85.0662 26.0778C86.048 25.3678 87.224 24.9336 88.5277 24.9336H108.637C111.934 24.9336 114.609 27.6395 114.609 30.9361Z" fill="url(#paint31_linear_1248_34192)"/>
<path d="M100.756 49.7694L90.6301 59.91C90.4094 60.1308 90.0558 60.1972 89.7657 60.0771C89.4771 59.9586 89.2681 59.6762 89.2681 59.3635V48.8438L100.756 49.7694Z" fill="url(#paint32_linear_1248_34192)"/>
<path d="M104.355 39.2203L100.886 29.3242H96.2562L93.8122 36.3422L89.9526 47.3888H94.0319L95.3279 42.8727H101.838L103.133 47.3888H107.214L104.355 39.2203ZM96.2802 39.8618C96.6301 38.7329 96.9418 37.7054 97.2161 36.8052C97.9364 34.4379 98.3947 32.8726 98.5888 32.1181C98.6541 32.4103 98.7625 32.8084 98.9132 33.3127C99.0292 33.7009 99.4521 35.0798 100.184 37.4383C100.406 38.1535 100.656 38.9839 100.935 39.8618H96.2806H96.2802Z" fill="white"/>
<path style="mix-blend-mode:multiply" opacity="0.3" d="M112.823 51.7109C111.745 52.7705 110.268 53.4094 108.637 53.4094H97.114L90.6444 59.8939C90.4236 60.1147 90.0628 60.1887 89.7731 60.0687C89.4844 59.9501 89.2681 59.6754 89.2681 59.3623V53.4094H88.5274C85.2307 53.4094 82.6193 50.7666 82.6193 47.4699V30.9353C82.6193 28.9423 83.5654 27.1774 85.0658 26.0938C84.9075 29.5871 85.6609 35.3123 92.2097 36.0924C92.7665 36.1588 93.2977 36.2252 93.8199 36.2927C95.0444 36.4496 96.173 36.6145 97.2201 36.797C98.2991 36.9845 99.2853 37.1914 100.185 37.4289C101.871 37.8734 103.252 38.4276 104.356 39.1705C106.033 40.2991 107.074 41.8571 107.585 44.1426C108.482 48.1595 109.948 50.606 112.823 51.7105L112.823 51.7109Z" fill="url(#paint33_linear_1248_34192)"/>
<path d="M86.2962 48.1827V64.7174C86.2962 66.2546 85.7295 67.6893 84.7743 68.7478C83.6826 69.9581 82.1147 70.752 80.3553 70.752H60.2456C56.9489 70.752 54.1817 68.014 54.1817 64.7174V48.1827C54.1817 46.081 55.3157 44.2632 56.9577 43.1996C57.891 42.5958 59.0506 42.2754 60.2456 42.2754H80.3553C83.6519 42.2754 86.2962 44.8861 86.2962 48.1827Z" fill="url(#paint34_linear_1248_34192)"/>
<path d="M79.5219 66.0332V76.5529C79.5219 76.8656 79.3519 77.1466 79.0633 77.2666C78.7735 77.3866 78.4503 77.3202 78.2295 77.0995L68.0758 66.9589L79.5219 66.0332Z" fill="url(#paint35_linear_1248_34192)"/>
<path d="M79.0202 49.8027H61.5828V52.5626H79.0202V49.8027Z" fill="white"/>
<path d="M77.9336 65.8582C71.7691 64.4297 68.4352 60.5456 66.7243 57.539C64.8853 54.3073 64.4931 51.4088 64.4774 51.2865L67.2056 50.933L65.8413 51.1099L67.2052 50.9297C67.2085 50.9549 67.565 53.4933 69.1653 56.2653C71.2601 59.8939 74.4191 62.2196 78.5546 63.1778L77.9336 65.8582Z" fill="white"/>
<path d="M62.7132 65.8582L62.0922 63.1778C66.2277 62.2196 69.3868 59.8939 71.4815 56.2653C73.0819 53.4933 73.438 50.9549 73.4416 50.9297L76.1694 51.2865C76.1537 51.4084 75.7615 54.3073 73.9225 57.539C72.2116 60.5456 68.8778 64.4297 62.7132 65.8582Z" fill="white"/>
<path d="M71.6187 47.043H68.9843V51.0573H71.6187V47.043Z" fill="white"/>
<path style="mix-blend-mode:multiply" opacity="0.3" d="M84.7885 68.7471C83.6968 69.9574 82.1151 70.7514 80.3553 70.7514H79.5219V76.5529C79.5219 76.8656 79.3519 77.1466 79.0632 77.2666C78.7735 77.3867 78.4503 77.3531 78.2295 77.132L71.8249 70.7514H60.2456C56.9489 70.7514 54.1817 68.0134 54.1817 64.7167V48.1821C54.1817 46.0804 55.3157 44.2316 56.9577 43.168C56.8376 46.1289 57.4207 50.6235 61.5306 52.4059C61.6521 52.4584 61.7864 52.508 61.9141 52.5551C62.5731 52.8029 63.3233 52.9842 64.1621 53.0838C64.4084 53.113 64.654 53.1426 64.893 53.1717C65.9653 53.3031 66.9742 53.4374 67.9192 53.5815C69.5984 53.838 71.0776 54.1241 72.3722 54.478C73.3402 54.7422 74.2035 55.0461 74.9697 55.4037C77.4582 56.5618 78.9202 58.3081 79.5576 61.1581C80.4541 65.171 81.9169 67.6416 84.7885 68.7471Z" fill="url(#paint36_linear_1248_34192)"/>
<path d="M56.7559 62.7985L72.15 50.168L72.2306 50.207L56.9577 63.1447L56.7559 62.7985Z" fill="url(#paint37_linear_1248_34192)"/>
<path d="M55.8156 63.6385L56.4184 62.9803L56.7322 62.2545C56.7866 62.129 56.8727 62.0203 56.9825 61.9389L57.1628 61.8054C57.266 61.7287 57.3912 61.6875 57.52 61.6875H58.1111C58.1111 61.6875 58.0082 61.8802 57.8403 61.9097C57.6725 61.9393 57.3218 62.3348 57.3218 62.3348L57.274 62.7989L57.9447 62.3096L58.6595 61.4883V61.9444C58.6595 62.1002 58.6033 62.2512 58.5015 62.3691L57.9217 63.0401C57.7787 63.2057 57.5816 63.3156 57.3653 63.3502L57.2222 63.3732C56.9249 63.421 56.66 63.5889 56.4899 63.8377L56.0824 64.4339L55.816 63.6389L55.8156 63.6385Z" fill="url(#paint38_linear_1248_34192)"/>
<path d="M23.2823 85.5092C23.2823 85.5092 23.1152 86.2948 22.97 86.9566C22.8248 87.6185 22.2428 88.1257 21.9881 88.654C21.7334 89.182 21.6192 88.5639 21.5492 88.1823C21.4791 87.8006 21.5492 87.0121 21.864 86.7425C22.1789 86.4725 22.4187 86.2371 22.4033 86.1824C22.388 86.128 22.6055 85.2188 22.6055 85.2188L23.2823 85.5096V85.5092Z" fill="url(#paint39_linear_1248_34192)"/>
<path d="M30.2657 109.126C30.2259 108.962 30.2525 108.743 30.3952 108.597C30.5875 108.399 30.9097 108.415 31.1118 108.507C31.2297 108.56 31.3212 108.645 31.6449 109.32C31.9871 110.034 31.9853 110.149 31.9306 110.214C31.8186 110.347 31.5048 110.249 31.4373 110.228C31.2125 110.158 31.1574 110.051 30.694 109.617C30.3799 109.323 30.3018 109.275 30.2657 109.126Z" fill="url(#paint40_linear_1248_34192)"/>
<path d="M30.4842 108.012L30.5627 108.839C30.7509 108.936 30.8681 108.929 30.9294 108.839L31.0874 108.012H30.4842Z" fill="url(#paint41_linear_1248_34192)"/>
<path d="M38.3907 109.024C38.2801 108.897 38.2028 108.69 38.2619 108.494C38.3414 108.23 38.6348 108.097 38.8563 108.085C38.9854 108.078 39.1058 108.111 39.7042 108.561C40.3366 109.036 40.3884 109.139 40.3694 109.222C40.3311 109.391 40.0075 109.449 39.9378 109.461C39.7061 109.503 39.6079 109.434 38.9971 109.262C38.583 109.146 38.4918 109.14 38.3907 109.024V109.024Z" fill="url(#paint42_linear_1248_34192)"/>
<path d="M38.4454 107.643L38.5239 108.469C38.7121 108.567 38.8289 108.56 38.8906 108.469L39.0485 107.643H38.4454Z" fill="url(#paint43_linear_1248_34192)"/>
<path d="M30.2726 108.174C30.57 108.192 30.8677 108.21 31.1651 108.228C31.7948 105.155 32.4867 102.01 33.2463 98.7988C34.079 95.2788 34.9488 91.8665 35.845 88.5648C36.1292 89.8214 36.4102 91.2915 36.6316 92.944C36.9604 95.3967 37.0268 97.2758 37.0428 97.7961C37.1238 100.456 36.8921 100.771 37.0016 102.432C37.0877 103.738 37.3705 105.657 38.3174 107.987C38.6009 107.97 38.8844 107.953 39.1682 107.936C39.7889 104.933 40.3209 101.284 40.4712 97.1171C40.6555 92.0063 40.2132 87.5782 39.6335 84.0859C37.0563 84.1658 34.4796 84.2461 31.9029 84.326C31.0983 86.1219 30.732 87.6577 30.5462 88.7377C30.173 90.908 30.4018 91.9789 30.1208 95.6765C29.9756 97.5874 29.8698 97.8906 29.7643 99.1596C29.5899 101.261 29.5596 104.297 30.2722 108.174L30.2726 108.174Z" fill="url(#paint44_linear_1248_34192)"/>
<path style="mix-blend-mode:multiply" opacity="0.3" d="M31.9853 100.84C32.2203 98.3409 31.3191 98.3923 31.7387 96.2341C32.1247 94.2481 32.9438 93.9171 33.5481 91.3816C34.033 89.3467 33.6626 88.9001 34.0414 88.0098C34.5095 86.9093 35.8771 85.7082 39.8079 85.1981C39.7517 84.8182 39.6937 84.4461 39.6338 84.0859C37.0567 84.1658 34.48 84.2461 31.9032 84.326C31.0987 86.1219 30.7323 87.6577 30.5466 88.7377C30.1733 90.908 30.4021 91.9789 30.1212 95.6765C29.976 97.5874 29.8701 97.8906 29.7647 99.1596C29.5903 101.261 29.56 104.297 30.2726 108.174C30.57 108.192 30.8677 108.21 31.1651 108.228C31.1833 108.138 31.203 108.048 31.2213 107.958C31.0709 107.715 30.9345 107.441 30.8334 107.131C30.181 105.126 31.6909 103.962 31.9849 100.84H31.9853Z" fill="url(#paint45_linear_1248_34192)"/>
<path d="M22.2395 85.667C22.6233 85.7356 23.0072 85.8039 23.391 85.8725C23.6282 85.1544 23.9719 84.0718 24.3426 82.7393C24.7663 81.2152 24.9841 80.2304 25.0768 79.8692C25.446 78.4319 26.5264 76.4153 29.7099 73.9604C29.6782 75.5221 29.6538 76.8072 29.6373 77.6898C29.5049 84.7727 29.5125 86.0586 30.4536 86.7646C31.2716 87.3787 31.7233 86.75 35.4396 86.8208C38.8285 86.8854 39.5419 87.4287 40.4026 86.8062C41.7993 85.7962 41.2568 83.3986 41.2787 80.4034C41.2969 77.9317 41.7037 74.434 43.4993 70.1642C44.8212 70.2927 47.032 70.3277 49.5442 69.4651C53.4454 68.1257 55.662 65.4501 56.4936 64.3252C56.2196 63.9552 55.9452 63.5848 55.6711 63.2148C54.2682 63.8271 52.1005 64.6353 49.3632 65.0826C44.618 65.858 42.4368 64.8502 38.0302 65.0239C35.4925 65.1242 30.3091 65.3289 26.8041 67.9845C20.3582 72.8683 22.0085 84.2075 22.2399 85.6663L22.2395 85.667Z" fill="url(#paint46_linear_1248_34192)"/>
<path style="mix-blend-mode:multiply" opacity="0.3" d="M34.5347 84.8447C34.3384 83.7508 34.9277 83.29 34.6168 82.0483C34.1782 80.2965 32.7716 80.2827 32.4374 78.7998C32.1185 77.3855 33.2992 76.9608 33.589 74.7289C33.8017 73.0881 33.501 70.7156 32.3965 70.3289C31.0221 69.8476 29.0021 72.6495 28.7777 72.9607C28.0013 74.0378 27.5499 75.15 27.2857 76.1439C27.9144 75.4623 28.7077 74.7329 29.71 73.9605C29.6782 75.5221 29.6538 76.8072 29.6374 77.6899C29.5049 84.7728 29.5126 86.0586 30.4536 86.7647C31.2716 87.3787 31.7234 86.7501 35.4396 86.8208C35.5458 86.823 35.6417 86.8267 35.7428 86.8296C34.9401 86.0947 34.6354 85.4066 34.5347 84.8451V84.8447Z" fill="url(#paint47_linear_1248_34192)"/>
<path d="M35.672 62.9984C35.672 62.9984 35.5574 63.911 35.2181 64.5739C34.9116 65.1731 33.5291 65.4544 33.2441 65.5708C32.9591 65.6872 33.7137 66.1546 34.4978 66.2976C35.2819 66.4403 37.5537 66.4417 37.9846 66.1746C38.4155 65.9076 37.6799 65.8714 37.1322 65.6189C36.5845 65.3664 36.347 64.2372 36.4864 63.7442C36.6261 63.2513 35.672 62.998 35.672 62.998V62.9984Z" fill="url(#paint48_linear_1248_34192)"/>
<path d="M37.1308 62.6598C37.3169 62.3453 37.1983 61.775 36.8338 61.5294C36.5634 61.3473 36.2532 61.4086 36.0274 61.4535C35.923 61.4743 35.1885 61.629 35.0203 62.1734C34.9671 62.3464 34.989 62.5755 35.0674 62.7525C35.1079 62.8437 35.1827 62.9557 35.348 63.1688C35.4947 63.3578 35.4848 63.3516 35.5297 63.4063C35.637 63.538 35.8428 63.7584 36.2113 64.0069C36.2259 63.9058 36.2503 63.7803 36.2956 63.6424C36.3131 63.5891 36.3831 63.3815 36.5028 63.2034C36.7455 62.8418 36.9852 62.9061 37.1304 62.6598H37.1308Z" fill="url(#paint49_linear_1248_34192)"/>
<path d="M35.7442 63.7684C35.7442 63.7684 36.1405 64.2971 36.8177 64.1869C37.4241 64.0884 37.3818 62.7113 36.964 62.4588C36.8246 62.3746 36.5605 62.3592 36.3543 62.4391C36.2324 62.4862 36.1952 62.5424 35.9949 62.6154C35.8103 62.6829 35.7544 62.6668 35.7019 62.7205C35.6362 62.7876 35.5979 62.9401 35.7559 63.3287C35.6282 63.2218 35.4841 63.19 35.3896 63.2466C35.3746 63.2557 35.3352 63.2882 35.3159 63.3334C35.2454 63.498 35.4075 63.6837 35.7439 63.7684H35.7442Z" fill="url(#paint50_linear_1248_34192)"/>
<path d="M35.6067 62.9902C35.6067 62.9902 35.865 63.4689 36.0088 63.5821C36.1526 63.6952 36.4766 63.7641 36.7914 63.5923C37.106 63.4204 37.2807 63.2599 37.2807 63.2599C37.2807 63.2599 37.4095 63.9232 37.3311 64.0053C37.2526 64.0874 36.6725 64.4424 36.5061 64.4173C36.3394 64.3921 35.9325 64.0637 35.838 63.8605C35.7439 63.6572 35.6304 63.1292 35.6304 63.1292L35.6067 62.9906V62.9902Z" fill="url(#paint51_linear_1248_34192)"/>
<path d="M81.9031 16.6617L79.6934 20.2447L79.3577 20.7884C79.3577 20.7884 79.2154 20.741 78.948 20.6534C78.8151 20.6056 78.648 20.5585 78.4521 20.5009C78.2565 20.4388 78.0285 20.383 77.7723 20.3173C77.2604 20.1929 76.6314 20.0554 75.8976 19.9579C75.1649 19.8601 74.3286 19.7912 73.4106 19.7985C72.4937 19.8047 71.4969 19.8846 70.4519 20.0619C69.9308 20.1604 69.3952 20.2659 68.8577 20.4173C68.7902 20.4348 68.722 20.4531 68.6541 20.4706C68.5866 20.4906 68.5191 20.5118 68.4516 20.5315C68.3166 20.5727 68.1801 20.6136 68.0433 20.6541C67.7744 20.749 67.4971 20.8336 67.2264 20.9413C66.1328 21.3477 65.0422 21.8863 63.9917 22.5402C63.4678 22.8689 62.9573 23.2316 62.4574 23.6143L62.09 23.9128C62.0295 23.9628 61.9649 24.0121 61.9076 24.0613L61.7346 24.212L61.5613 24.362C61.504 24.4123 61.4475 24.459 61.384 24.5211L61.0129 24.871L60.9662 24.9148L60.91 24.9056L60.8706 24.8808L60.8655 24.8863L60.8195 24.9954L60.6674 25.1804C60.5554 25.2931 60.4492 25.4124 60.3434 25.531L60.023 25.885C59.9194 26.0065 59.8176 26.1287 59.7136 26.2491C59.3031 26.7351 58.9131 27.2375 58.5591 27.7608L58.4245 27.9563L58.2971 28.1552C58.2125 28.2877 58.126 28.4194 58.0439 28.5529C57.8845 28.8233 57.7206 29.0897 57.5758 29.3655C57.4222 29.6355 57.2886 29.9146 57.1493 30.1897C57.0828 30.3288 57.0205 30.4685 56.9566 30.6075C56.9245 30.6769 56.8927 30.7465 56.8606 30.8159C56.8311 30.8863 56.8023 30.9563 56.7734 31.0264C56.5304 31.5843 56.3334 32.1495 56.152 32.7088C56.0674 32.9905 55.9806 33.2678 55.9109 33.547C55.8331 33.8246 55.7737 34.103 55.7098 34.3771C55.4705 35.4761 55.346 36.5408 55.2964 37.5281C55.2472 38.5169 55.2811 39.4291 55.3563 40.2355C55.4318 41.0419 55.5515 41.7399 55.6657 42.3131C55.7266 42.5984 55.7791 42.8553 55.8364 43.0716C55.8919 43.2902 55.9357 43.4767 55.9828 43.6299C56.0061 43.7102 56.0262 43.7799 56.0433 43.8404C56.0798 43.9678 56.0229 44.1017 55.9105 44.1648C55.8952 44.1739 55.8791 44.1809 55.8616 44.1871L55.8394 44.1944C55.696 44.2429 55.5394 44.1707 55.4843 44.0294C55.461 43.9718 55.4347 43.9039 55.4041 43.8262C55.3439 43.6803 55.2785 43.4887 55.2005 43.2658C55.1169 43.0421 55.0388 42.7841 54.9476 42.4948C54.7736 41.915 54.5813 41.2017 54.4222 40.3676C54.2649 39.5342 54.1383 38.5797 54.0912 37.5292C54.0453 36.4798 54.0693 35.3334 54.2149 34.1282C54.2551 33.8272 54.2912 33.5214 54.347 33.2142C54.3941 32.9055 54.4583 32.5957 54.5229 32.2823C54.6608 31.658 54.8184 31.0213 55.0253 30.3853C55.0501 30.3058 55.0746 30.2259 55.1001 30.146C55.1275 30.0664 55.1548 29.9869 55.1829 29.9081C55.2388 29.749 55.2928 29.5881 55.3512 29.429C55.4752 29.113 55.5942 28.7908 55.7357 28.4759C55.8674 28.1563 56.0192 27.844 56.1688 27.5269C56.2458 27.37 56.3279 27.2153 56.4082 27.058L56.5304 26.8241L56.6592 26.5928C56.9989 25.9711 57.3831 25.3676 57.7929 24.7772C57.8969 24.6302 58.0016 24.4838 58.106 24.3372L58.4336 23.9073C58.542 23.7621 58.658 23.6238 58.7726 23.4844L58.9452 23.2739L59.0309 23.1692L59.132 23.0557L59.4688 22.6726C59.5209 22.6102 59.5877 22.5409 59.6519 22.4734L59.8453 22.2694L60.0391 22.0662C60.1036 21.9979 60.1686 21.9385 60.2332 21.8739C60.3627 21.7473 60.4922 21.6192 60.6218 21.4926C61.1527 20.9986 61.7018 20.5253 62.2739 20.0864C63.4182 19.2118 64.6372 18.459 65.8829 17.8548C66.1916 17.6975 66.5087 17.5647 66.8188 17.4231C66.9761 17.3582 67.1326 17.294 67.2891 17.2298C67.3672 17.1987 67.4457 17.1666 67.523 17.1349C67.6018 17.1053 67.6806 17.0772 67.7591 17.0481C68.3837 16.8069 69.0113 16.6179 69.6258 16.4413C70.8601 16.1078 72.0591 15.8961 73.1764 15.7816C74.294 15.6659 75.3302 15.652 76.2479 15.6863C77.1655 15.7206 77.9639 15.8151 78.6199 15.9104C78.9472 15.9607 79.2402 16.006 79.4924 16.0585C79.7456 16.1074 79.9619 16.1479 80.1349 16.1902C80.4823 16.2698 81.9031 16.6627 81.9031 16.6627V16.6617Z" fill="url(#paint52_linear_1248_34192)"/>
<path style="mix-blend-mode:multiply" opacity="0.3" d="M79.5642 20.114C79.6117 20.1545 79.6547 20.1983 79.6934 20.2446L79.3577 20.7883C79.3577 20.7883 79.2154 20.7408 78.948 20.6533C78.8152 20.6055 78.648 20.5584 78.4521 20.5008C78.2565 20.4387 78.0285 20.3829 77.7723 20.3172C77.2604 20.1928 76.6314 20.0552 75.8976 19.9578C75.165 19.86 74.3287 19.7911 73.4106 19.7984C72.4937 19.8046 71.4969 19.8845 70.4519 20.0618C69.9308 20.1603 69.3952 20.2658 68.8577 20.4172C68.7902 20.4347 68.722 20.453 68.6541 20.4705C68.5866 20.4905 68.5191 20.5117 68.4516 20.5314C68.3166 20.5726 68.1802 20.6135 68.0433 20.654C67.7744 20.7489 67.4971 20.8335 67.2264 20.9412C66.1328 21.3476 65.0422 21.8862 63.9918 22.54C63.4678 22.8688 62.9573 23.2315 62.4575 23.6142L62.09 23.9127C62.0295 23.9627 61.9649 24.0119 61.9076 24.0612L61.7346 24.2119L61.5613 24.3619C61.504 24.4122 61.4475 24.4589 61.384 24.5209L61.0129 24.8709L60.9662 24.9146L60.91 24.9055L60.8706 24.8807L60.8655 24.8862L60.8195 24.9953L60.6674 25.1803C60.5554 25.293 60.4492 25.4123 60.3434 25.5309L60.023 25.8848C59.9194 26.0063 59.8176 26.1286 59.7136 26.249C59.3031 26.735 58.9131 27.2374 58.5591 27.7607L58.4245 27.9562L58.2972 28.1551C58.2125 28.2875 58.126 28.4193 58.0439 28.5528C57.8845 28.8232 57.7207 29.0895 57.5758 29.3654C57.4222 29.6354 57.2886 29.9145 57.1493 30.1896C57.0829 30.3287 57.0205 30.4684 56.9566 30.6074C56.9245 30.6767 56.8928 30.7464 56.8606 30.8158C56.8311 30.8862 56.8023 30.9562 56.7734 31.0263C56.5304 31.5842 56.3334 32.1494 56.1521 32.7087C56.0674 32.9904 55.9806 33.2677 55.9109 33.5468C55.8332 33.8245 55.7737 34.1029 55.7098 34.3769C55.4705 35.4759 55.346 36.5406 55.2964 37.528C55.2472 38.5168 55.2811 39.429 55.3563 40.2354C55.4318 41.0417 55.5515 41.7397 55.6657 42.313C55.7266 42.5983 55.7792 42.8552 55.8364 43.0715C55.8919 43.2901 55.9357 43.4766 55.9828 43.6298C56.0061 43.7101 56.0262 43.7798 56.0433 43.8403C56.0798 43.9677 56.0229 44.1016 55.9105 44.1647C55.353 42.1407 53.2882 33.1283 58.6536 26.4752C64.7317 18.9387 75.5579 16.6524 79.5646 20.1154L79.5642 20.114Z" fill="url(#paint53_linear_1248_34192)"/>
<path d="M83.0703 15.4004L87.4568 23.7294L75.8706 21.994L83.0703 15.4004Z" fill="url(#paint54_linear_1248_34192)"/>
<path style="mix-blend-mode:multiply" opacity="0.3" d="M83.0703 15.4004L87.4568 23.7294L75.8706 21.994L83.0703 15.4004Z" fill="url(#paint55_linear_1248_34192)"/>
<path d="M83.4775 14.9629L87.5003 23.6827L76.3128 21.589L83.4775 14.9629Z" fill="url(#paint56_linear_1248_34192)"/>
<path d="M90.8203 75.7896L92.2469 72.6071L92.4636 72.124C92.4636 72.124 92.5859 72.1477 92.8147 72.1908C92.9289 72.2156 93.0715 72.2364 93.2386 72.2623C93.4061 72.2919 93.5991 72.313 93.8166 72.3393C94.2504 72.386 94.7821 72.4309 95.3954 72.4312C96.0077 72.432 96.702 72.398 97.4555 72.2926C98.2079 72.1882 99.0183 72.0146 99.8571 71.7555C100.274 71.6183 100.703 71.4735 101.128 71.2907C101.182 71.2688 101.236 71.2465 101.289 71.225C101.343 71.2013 101.396 71.1764 101.449 71.1531C101.556 71.1046 101.663 71.056 101.771 71.0079C101.982 70.901 102.201 70.801 102.411 70.6835C103.265 70.2311 104.102 69.6706 104.895 69.0197C105.289 68.6927 105.669 68.3399 106.038 67.971L106.308 67.6861C106.352 67.6386 106.4 67.5908 106.442 67.5441L106.568 67.4018L106.694 67.2599C106.735 67.2124 106.777 67.1679 106.822 67.1099L107.089 66.7823L107.122 66.741L107.18 66.7502L107.226 66.7739L107.23 66.7688L107.245 66.6666L107.345 66.4944C107.425 66.3897 107.496 66.2784 107.57 66.1693L107.794 65.8431C107.866 65.7322 107.936 65.6201 108.008 65.5099C108.292 65.0663 108.558 64.6113 108.792 64.1431L108.881 63.9676L108.964 63.7907C109.019 63.6728 109.076 63.5549 109.129 63.4367C109.231 63.1974 109.337 62.9609 109.426 62.7187C109.522 62.48 109.602 62.2363 109.686 61.9955C109.726 61.8743 109.762 61.7525 109.8 61.6313C109.818 61.5708 109.837 61.5102 109.856 61.45C109.872 61.3887 109.889 61.3281 109.905 61.2679C110.044 60.7834 110.144 60.2977 110.233 59.8186C110.272 59.5782 110.313 59.341 110.34 59.1042C110.374 58.8678 110.392 58.6328 110.415 58.4007C110.492 57.4721 110.479 56.584 110.413 55.7678C110.347 54.9501 110.22 54.2047 110.071 53.5504C109.921 52.8962 109.747 52.3358 109.591 51.8775C109.51 51.6498 109.439 51.4444 109.369 51.2729C109.299 51.0996 109.244 50.9511 109.188 50.8299C109.16 50.7668 109.136 50.7114 109.115 50.6636C109.072 50.5629 109.104 50.4468 109.19 50.3826C109.201 50.3735 109.214 50.3658 109.227 50.3589L109.245 50.3505C109.357 50.295 109.493 50.3374 109.554 50.4475C109.579 50.4924 109.608 50.5453 109.642 50.6055C109.707 50.7187 109.782 50.869 109.87 51.0438C109.963 51.2182 110.055 51.4218 110.161 51.6494C110.367 52.1066 110.602 52.6718 110.823 53.3395C111.043 54.0073 111.25 54.7772 111.403 55.635C111.555 56.4921 111.659 57.4364 111.67 58.442C111.67 58.6937 111.674 58.9488 111.661 59.2071C111.656 59.4658 111.636 59.727 111.617 59.9916C111.572 60.5192 111.511 61.0596 111.41 61.604C111.398 61.6718 111.387 61.7404 111.375 61.8087C111.361 61.8769 111.347 61.9451 111.333 62.013C111.304 62.1498 111.277 62.2877 111.246 62.4249C111.179 62.6982 111.116 62.9755 111.034 63.2495C110.96 63.5261 110.869 63.7994 110.781 64.076C110.734 64.2132 110.684 64.3489 110.635 64.4872L110.56 64.6926L110.479 64.8966C110.268 65.4439 110.017 65.9814 109.745 66.5108C109.675 66.6429 109.605 66.7742 109.535 66.9063L109.313 67.2949C109.239 67.4259 109.159 67.5521 109.08 67.6791L108.961 67.8707L108.902 67.9659L108.832 68.0703L108.597 68.4213C108.56 68.4782 108.513 68.5424 108.468 68.6048L108.331 68.7931L108.194 68.981C108.148 69.0441 108.101 69.0999 108.055 69.1602C107.962 69.2784 107.87 69.3973 107.777 69.5155C107.395 69.9786 106.995 70.427 106.573 70.8499C105.728 71.6924 104.808 72.4429 103.85 73.0742C103.613 73.2369 103.367 73.3803 103.128 73.5303C103.006 73.6007 102.884 73.6704 102.763 73.7401C102.702 73.774 102.641 73.8087 102.581 73.8433C102.519 73.8762 102.458 73.9075 102.396 73.9404C101.909 74.206 101.414 74.4293 100.928 74.6413C99.9505 75.0492 98.9887 75.3528 98.0834 75.5681C97.1778 75.7841 96.3284 75.9081 95.5709 75.9793C94.8134 76.0504 94.1475 76.0596 93.5984 76.0526C93.324 76.0468 93.0785 76.0413 92.8657 76.0256C92.6526 76.0129 92.4702 76.003 92.3235 75.9873C92.0298 75.9596 90.8199 75.7906 90.8199 75.7906L90.8203 75.7896Z" fill="url(#paint57_linear_1248_34192)"/>
<path style="mix-blend-mode:multiply" opacity="0.3" d="M92.367 72.7007C92.3235 72.6726 92.2834 72.6413 92.2466 72.6073L92.4633 72.1242C92.4633 72.1242 92.5855 72.148 92.8143 72.191C92.9285 72.2158 93.0712 72.2366 93.2383 72.2625C93.4058 72.2921 93.5988 72.3132 93.8162 72.3395C94.2501 72.3862 94.7817 72.4311 95.3951 72.4315C96.0073 72.4322 96.7017 72.3983 97.4551 72.2928C98.2075 72.1885 99.0179 72.0148 99.8567 71.7557C100.274 71.6185 100.703 71.4737 101.128 71.2909C101.181 71.269 101.235 71.2467 101.289 71.2252C101.342 71.2015 101.395 71.1767 101.449 71.1533C101.555 71.1048 101.663 71.0562 101.771 71.0081C101.982 70.9012 102.2 70.8012 102.411 70.6837C103.265 70.2313 104.102 69.6708 104.894 69.0199C105.289 68.693 105.669 68.3401 106.038 67.9712L106.308 67.6863C106.352 67.6388 106.4 67.591 106.442 67.5443L106.567 67.402L106.693 67.2601C106.735 67.2127 106.776 67.1681 106.822 67.1101L107.089 66.7825L107.122 66.7412L107.18 66.7504L107.226 66.7741L107.229 66.769L107.245 66.6668L107.344 66.4946C107.424 66.3899 107.496 66.2786 107.57 66.1695L107.794 65.8433C107.866 65.7324 107.935 65.6203 108.008 65.5102C108.292 65.0665 108.558 64.6115 108.792 64.1433L108.881 63.9678L108.964 63.7909C109.019 63.673 109.076 63.5552 109.129 63.4369C109.231 63.1976 109.336 62.9611 109.425 62.7189C109.522 62.4802 109.601 62.2365 109.686 61.9957C109.726 61.8745 109.762 61.7527 109.799 61.6315C109.818 61.571 109.837 61.5104 109.855 61.4502C109.872 61.3889 109.888 61.3283 109.904 61.2681C110.043 60.7836 110.144 60.2979 110.232 59.8188C110.271 59.5784 110.313 59.3412 110.34 59.1044C110.373 58.868 110.392 58.633 110.415 58.4009C110.492 57.4723 110.479 56.5842 110.413 55.768C110.346 54.9503 110.22 54.2049 110.07 53.5507C109.921 52.8964 109.747 52.336 109.591 51.8777C109.51 51.65 109.439 51.4446 109.368 51.2731C109.299 51.0998 109.243 50.9513 109.188 50.8301C109.16 50.767 109.136 50.7116 109.115 50.6638C109.071 50.5631 109.103 50.447 109.189 50.3828C109.866 51.9846 112.539 59.1635 108.853 65.2099C104.678 72.0589 96.0336 75.1104 92.3673 72.7004L92.367 72.7007Z" fill="url(#paint58_linear_1248_34192)"/>
<path d="M89.9985 76.9535L85.4927 70.5879L95.1973 70.7572L89.9985 76.9535Z" fill="url(#paint59_linear_1248_34192)"/>
<path style="mix-blend-mode:multiply" opacity="0.3" d="M89.9985 76.9535L85.4927 70.5879L95.1973 70.7572L89.9985 76.9535Z" fill="url(#paint60_linear_1248_34192)"/>
<path d="M89.7114 77.357L85.4617 70.6309L94.878 71.1377L89.7114 77.357Z" fill="url(#paint61_linear_1248_34192)"/>
<defs>
<linearGradient id="paint0_linear_1248_34192" x1="60" y1="0" x2="60" y2="120" gradientUnits="userSpaceOnUse">
<stop stop-color="#DEE5FF"/>
<stop offset="1" stop-color="#F0F3FC"/>
</linearGradient>
<radialGradient id="paint1_radial_1248_34192" cx="0" cy="0" r="1" gradientUnits="userSpaceOnUse" gradientTransform="translate(57.7969 61.775) scale(37.9499 37.9499)">
<stop offset="0.48" stop-color="#57DDFE"/>
<stop offset="0.69" stop-color="#54DCFD"/>
<stop offset="0.78" stop-color="#4DD9FB"/>
<stop offset="0.85" stop-color="#41D4F8"/>
<stop offset="0.91" stop-color="#2FCDF3"/>
<stop offset="0.96" stop-color="#18C3EE"/>
<stop offset="1" stop-color="#00BAE8"/>
</radialGradient>
<radialGradient id="paint2_radial_1248_34192" cx="0" cy="0" r="1" gradientUnits="userSpaceOnUse" gradientTransform="translate(57.3189 62.1952) scale(38.2546)">
<stop offset="0.48" stop-color="#04B3EC"/>
<stop offset="0.75" stop-color="#04B1E9"/>
<stop offset="0.88" stop-color="#04ABE2"/>
<stop offset="0.97" stop-color="#04A2D6"/>
<stop offset="1" stop-color="#049DCF"/>
</radialGradient>
<radialGradient id="paint3_radial_1248_34192" cx="0" cy="0" r="1" gradientUnits="userSpaceOnUse" gradientTransform="translate(57.3102 62.1977) scale(38.251 38.2509)">
<stop offset="0.48" stop-color="#04B3EC"/>
<stop offset="0.75" stop-color="#04B1E9"/>
<stop offset="0.88" stop-color="#04ABE2"/>
<stop offset="0.97" stop-color="#04A2D6"/>
<stop offset="1" stop-color="#049DCF"/>
</radialGradient>
<radialGradient id="paint4_radial_1248_34192" cx="0" cy="0" r="1" gradientUnits="userSpaceOnUse" gradientTransform="translate(57.3197 62.1958) scale(38.2546)">
<stop offset="0.48" stop-color="#04B3EC"/>
<stop offset="0.75" stop-color="#04B1E9"/>
<stop offset="0.88" stop-color="#04ABE2"/>
<stop offset="0.97" stop-color="#04A2D6"/>
<stop offset="1" stop-color="#049DCF"/>
</radialGradient>
<radialGradient id="paint5_radial_1248_34192" cx="0" cy="0" r="1" gradientUnits="userSpaceOnUse" gradientTransform="translate(57.3207 62.1988) scale(38.2589 38.259)">
<stop offset="0.48" stop-color="#04B3EC"/>
<stop offset="0.75" stop-color="#04B1E9"/>
<stop offset="0.88" stop-color="#04ABE2"/>
<stop offset="0.97" stop-color="#04A2D6"/>
<stop offset="1" stop-color="#049DCF"/>
</radialGradient>
<radialGradient id="paint6_radial_1248_34192" cx="0" cy="0" r="1" gradientUnits="userSpaceOnUse" gradientTransform="translate(57.3229 62.2027) scale(38.263 38.263)">
<stop offset="0.48" stop-color="#04B3EC"/>
<stop offset="0.75" stop-color="#04B1E9"/>
<stop offset="0.88" stop-color="#04ABE2"/>
<stop offset="0.97" stop-color="#04A2D6"/>
<stop offset="1" stop-color="#049DCF"/>
</radialGradient>
<radialGradient id="paint7_radial_1248_34192" cx="0" cy="0" r="1" gradientUnits="userSpaceOnUse" gradientTransform="translate(57.3167 62.1953) scale(38.2571 38.2571)">
<stop offset="0.48" stop-color="#04B3EC"/>
<stop offset="0.75" stop-color="#04B1E9"/>
<stop offset="0.88" stop-color="#04ABE2"/>
<stop offset="0.97" stop-color="#04A2D6"/>
<stop offset="1" stop-color="#049DCF"/>
</radialGradient>
<radialGradient id="paint8_radial_1248_34192" cx="0" cy="0" r="1" gradientUnits="userSpaceOnUse" gradientTransform="translate(57.3189 62.1979) scale(38.256 38.256)">
<stop offset="0.48" stop-color="#04B3EC"/>
<stop offset="0.75" stop-color="#04B1E9"/>
<stop offset="0.88" stop-color="#04ABE2"/>
<stop offset="0.97" stop-color="#04A2D6"/>
<stop offset="1" stop-color="#049DCF"/>
</radialGradient>
<radialGradient id="paint9_radial_1248_34192" cx="0" cy="0" r="1" gradientUnits="userSpaceOnUse" gradientTransform="translate(57.296 62.1963) scale(38.2276 38.2275)">
<stop offset="0.48" stop-color="#04B3EC"/>
<stop offset="0.75" stop-color="#04B1E9"/>
<stop offset="0.88" stop-color="#04ABE2"/>
<stop offset="0.97" stop-color="#04A2D6"/>
<stop offset="1" stop-color="#049DCF"/>
</radialGradient>
<radialGradient id="paint10_radial_1248_34192" cx="0" cy="0" r="1" gradientUnits="userSpaceOnUse" gradientTransform="translate(57.2982 62.1968) scale(38.2306 38.2305)">
<stop offset="0.48" stop-color="#04B3EC"/>
<stop offset="0.75" stop-color="#04B1E9"/>
<stop offset="0.88" stop-color="#04ABE2"/>
<stop offset="0.97" stop-color="#04A2D6"/>
<stop offset="1" stop-color="#049DCF"/>
</radialGradient>
<radialGradient id="paint11_radial_1248_34192" cx="0" cy="0" r="1" gradientUnits="userSpaceOnUse" gradientTransform="translate(57.3123 62.1961) scale(38.2462 38.246)">
<stop offset="0.48" stop-color="#04B3EC"/>
<stop offset="0.75" stop-color="#04B1E9"/>
<stop offset="0.88" stop-color="#04ABE2"/>
<stop offset="0.97" stop-color="#04A2D6"/>
<stop offset="1" stop-color="#049DCF"/>
</radialGradient>
<radialGradient id="paint12_radial_1248_34192" cx="0" cy="0" r="1" gradientUnits="userSpaceOnUse" gradientTransform="translate(57.3211 62.1946) scale(38.256 38.256)">
<stop offset="0.48" stop-color="#04B3EC"/>
<stop offset="0.75" stop-color="#04B1E9"/>
<stop offset="0.88" stop-color="#04ABE2"/>
<stop offset="0.97" stop-color="#04A2D6"/>
<stop offset="1" stop-color="#049DCF"/>
</radialGradient>
<radialGradient id="paint13_radial_1248_34192" cx="0" cy="0" r="1" gradientUnits="userSpaceOnUse" gradientTransform="translate(57.3704 62.2019) scale(38.3101 38.31)">
<stop offset="0.48" stop-color="#04B3EC"/>
<stop offset="0.75" stop-color="#04B1E9"/>
<stop offset="0.88" stop-color="#04ABE2"/>
<stop offset="0.97" stop-color="#04A2D6"/>
<stop offset="1" stop-color="#049DCF"/>
</radialGradient>
<radialGradient id="paint14_radial_1248_34192" cx="0" cy="0" r="1" gradientUnits="userSpaceOnUse" gradientTransform="translate(57.3247 62.1954) scale(38.2597 38.2597)">
<stop offset="0.48" stop-color="#04B3EC"/>
<stop offset="0.75" stop-color="#04B1E9"/>
<stop offset="0.88" stop-color="#04ABE2"/>
<stop offset="0.97" stop-color="#04A2D6"/>
<stop offset="1" stop-color="#049DCF"/>
</radialGradient>
<radialGradient id="paint15_radial_1248_34192" cx="0" cy="0" r="1" gradientUnits="userSpaceOnUse" gradientTransform="translate(57.3157 62.1909) scale(38.2506 38.2505)">
<stop offset="0.48" stop-color="#04B3EC"/>
<stop offset="0.75" stop-color="#04B1E9"/>
<stop offset="0.88" stop-color="#04ABE2"/>
<stop offset="0.97" stop-color="#04A2D6"/>
<stop offset="1" stop-color="#049DCF"/>
</radialGradient>
<radialGradient id="paint16_radial_1248_34192" cx="0" cy="0" r="1" gradientUnits="userSpaceOnUse" gradientTransform="translate(57.3149 62.1945) scale(38.2491 38.2491)">
<stop offset="0.48" stop-color="#04B3EC"/>
<stop offset="0.75" stop-color="#04B1E9"/>
<stop offset="0.88" stop-color="#04ABE2"/>
<stop offset="0.97" stop-color="#04A2D6"/>
<stop offset="1" stop-color="#049DCF"/>
</radialGradient>
<radialGradient id="paint17_radial_1248_34192" cx="0" cy="0" r="1" gradientUnits="userSpaceOnUse" gradientTransform="translate(57.2726 62.1957) scale(38.205 38.205)">
<stop offset="0.48" stop-color="#04B3EC"/>
<stop offset="0.75" stop-color="#04B1E9"/>
<stop offset="0.88" stop-color="#04ABE2"/>
<stop offset="0.97" stop-color="#04A2D6"/>
<stop offset="1" stop-color="#049DCF"/>
</radialGradient>
<radialGradient id="paint18_radial_1248_34192" cx="0" cy="0" r="1" gradientUnits="userSpaceOnUse" gradientTransform="translate(57.3244 62.1953) scale(38.2593 38.2593)">
<stop offset="0.48" stop-color="#04B3EC"/>
<stop offset="0.75" stop-color="#04B1E9"/>
<stop offset="0.88" stop-color="#04ABE2"/>
<stop offset="0.97" stop-color="#04A2D6"/>
<stop offset="1" stop-color="#049DCF"/>
</radialGradient>
<radialGradient id="paint19_radial_1248_34192" cx="0" cy="0" r="1" gradientUnits="userSpaceOnUse" gradientTransform="translate(57.3193 62.1949) scale(38.2546 38.2546)">
<stop offset="0.48" stop-color="#04B3EC"/>
<stop offset="0.75" stop-color="#04B1E9"/>
<stop offset="0.88" stop-color="#04ABE2"/>
<stop offset="0.97" stop-color="#04A2D6"/>
<stop offset="1" stop-color="#049DCF"/>
</radialGradient>
<radialGradient id="paint20_radial_1248_34192" cx="0" cy="0" r="1" gradientUnits="userSpaceOnUse" gradientTransform="translate(57.312 62.196) scale(38.2458 38.2459)">
<stop offset="0.48" stop-color="#04B3EC"/>
<stop offset="0.75" stop-color="#04B1E9"/>
<stop offset="0.88" stop-color="#04ABE2"/>
<stop offset="0.97" stop-color="#04A2D6"/>
<stop offset="1" stop-color="#049DCF"/>
</radialGradient>
<radialGradient id="paint21_radial_1248_34192" cx="0" cy="0" r="1" gradientUnits="userSpaceOnUse" gradientTransform="translate(57.324 62.1944) scale(38.2585 38.2586)">
<stop offset="0.48" stop-color="#04B3EC"/>
<stop offset="0.75" stop-color="#04B1E9"/>
<stop offset="0.88" stop-color="#04ABE2"/>
<stop offset="0.97" stop-color="#04A2D6"/>
<stop offset="1" stop-color="#049DCF"/>
</radialGradient>
<radialGradient id="paint22_radial_1248_34192" cx="0" cy="0" r="1" gradientUnits="userSpaceOnUse" gradientTransform="translate(57.3171 62.1964) scale(38.2513 38.2513)">
<stop offset="0.48" stop-color="#04B3EC"/>
<stop offset="0.75" stop-color="#04B1E9"/>
<stop offset="0.88" stop-color="#04ABE2"/>
<stop offset="0.97" stop-color="#04A2D6"/>
<stop offset="1" stop-color="#049DCF"/>
</radialGradient>
<radialGradient id="paint23_radial_1248_34192" cx="0" cy="0" r="1" gradientUnits="userSpaceOnUse" gradientTransform="translate(57.3204 62.1951) scale(38.2546 38.2546)">
<stop offset="0.48" stop-color="#04B3EC"/>
<stop offset="0.75" stop-color="#04B1E9"/>
<stop offset="0.88" stop-color="#04ABE2"/>
<stop offset="0.97" stop-color="#04A2D6"/>
<stop offset="1" stop-color="#049DCF"/>
</radialGradient>
<radialGradient id="paint24_radial_1248_34192" cx="0" cy="0" r="1" gradientUnits="userSpaceOnUse" gradientTransform="translate(57.3204 62.1954) scale(38.2542)">
<stop offset="0.48" stop-color="#04B3EC"/>
<stop offset="0.75" stop-color="#04B1E9"/>
<stop offset="0.88" stop-color="#04ABE2"/>
<stop offset="0.97" stop-color="#04A2D6"/>
<stop offset="1" stop-color="#049DCF"/>
</radialGradient>
<radialGradient id="paint25_radial_1248_34192" cx="0" cy="0" r="1" gradientUnits="userSpaceOnUse" gradientTransform="translate(42.0485 72.7817) scale(2.93213 2.93213)">
<stop stop-color="white"/>
<stop offset="1"/>
</radialGradient>
<radialGradient id="paint26_radial_1248_34192" cx="0" cy="0" r="1" gradientUnits="userSpaceOnUse" gradientTransform="translate(18.2596 40.6548) rotate(90) scale(2.93213 2.93195)">
<stop stop-color="#99AAF4"/>
<stop offset="1" stop-color="#E1E8FF"/>
</radialGradient>
<radialGradient id="paint27_radial_1248_34192" cx="0" cy="0" r="1" gradientUnits="userSpaceOnUse" gradientTransform="translate(75.6477 73.1395) scale(2.93213)">
<stop stop-color="white"/>
<stop offset="1"/>
</radialGradient>
<radialGradient id="paint28_radial_1248_34192" cx="0" cy="0" r="1" gradientUnits="userSpaceOnUse" gradientTransform="translate(96.2306 32.3071) scale(2.93213)">
<stop stop-color="white"/>
<stop offset="1" stop-color="#06FFFF"/>
</radialGradient>
<radialGradient id="paint29_radial_1248_34192" cx="0" cy="0" r="1" gradientUnits="userSpaceOnUse" gradientTransform="translate(18.2596 81.2251) rotate(90) scale(2.93213 2.93195)">
<stop stop-color="#99AAF4"/>
<stop offset="1" stop-color="#E1E8FF"/>
</radialGradient>
<radialGradient id="paint30_radial_1248_34192" cx="0" cy="0" r="1" gradientUnits="userSpaceOnUse" gradientTransform="translate(53.2104 4.14009) scale(84.4484)">
<stop stop-color="white"/>
<stop offset="1"/>
</radialGradient>
<linearGradient id="paint31_linear_1248_34192" x1="97.3953" y1="-8.62211" x2="99.4386" y2="71.5719" gradientUnits="userSpaceOnUse">
<stop stop-color="#FFC444"/>
<stop offset="1" stop-color="#F36F56"/>
</linearGradient>
<linearGradient id="paint32_linear_1248_34192" x1="93.4057" y1="-8.48719" x2="95.4487" y2="71.701" gradientUnits="userSpaceOnUse">
<stop stop-color="#FFC444"/>
<stop offset="1" stop-color="#F36F56"/>
</linearGradient>
<linearGradient id="paint33_linear_1248_34192" x1="82.6193" y1="43.1097" x2="112.823" y2="43.1097" gradientUnits="userSpaceOnUse">
<stop stop-color="#FFC444"/>
<stop offset="1" stop-color="#F36F56"/>
</linearGradient>
<linearGradient id="paint34_linear_1248_34192" x1="71.0156" y1="48.4863" x2="65.2695" y2="107.48" gradientUnits="userSpaceOnUse">
<stop stop-color="#1D54B6"/>
<stop offset="1" stop-color="#9571F6"/>
</linearGradient>
<linearGradient id="paint35_linear_1248_34192" x1="76.1745" y1="47.3852" x2="70.4504" y2="106.153" gradientUnits="userSpaceOnUse">
<stop stop-color="#1E54B6"/>
<stop offset="1" stop-color="#9571F6"/>
</linearGradient>
<linearGradient id="paint36_linear_1248_34192" x1="54.1813" y1="60.2514" x2="84.7885" y2="60.2514" gradientUnits="userSpaceOnUse">
<stop stop-color="#1D54B6"/>
<stop offset="1" stop-color="#9571F6"/>
</linearGradient>
<linearGradient id="paint37_linear_1248_34192" x1="71.5717" y1="48.0086" x2="56.3571" y2="66.2662" gradientUnits="userSpaceOnUse">
<stop stop-color="#311944"/>
<stop offset="1" stop-color="#A03976"/>
</linearGradient>
<linearGradient id="paint38_linear_1248_34192" x1="58.9328" y1="61.1369" x2="51.2843" y2="68.1275" gradientUnits="userSpaceOnUse">
<stop stop-color="#FFC444"/>
<stop offset="1" stop-color="#F36F56"/>
</linearGradient>
<linearGradient id="paint39_linear_1248_34192" x1="21.7134" y1="91.1987" x2="23.5228" y2="79.1093" gradientUnits="userSpaceOnUse">
<stop stop-color="#FFC444"/>
<stop offset="1" stop-color="#F36F56"/>
</linearGradient>
<linearGradient id="paint40_linear_1248_34192" x1="31.5712" y1="112.328" x2="30.0909" y2="103.611" gradientUnits="userSpaceOnUse">
<stop stop-color="#AA80F9"/>
<stop offset="1" stop-color="#6165D7"/>
</linearGradient>
<linearGradient id="paint41_linear_1248_34192" x1="30.6966" y1="108.945" x2="31.1899" y2="103.791" gradientUnits="userSpaceOnUse">
<stop stop-color="#FFC444"/>
<stop offset="1" stop-color="#F36F56"/>
</linearGradient>
<linearGradient id="paint42_linear_1248_34192" x1="39.6506" y1="110.957" x2="38.1703" y2="102.24" gradientUnits="userSpaceOnUse">
<stop stop-color="#AA80F9"/>
<stop offset="1" stop-color="#6165D7"/>
</linearGradient>
<linearGradient id="paint43_linear_1248_34192" x1="38.5505" y1="109.696" x2="39.0438" y2="104.543" gradientUnits="userSpaceOnUse">
<stop stop-color="#FFC444"/>
<stop offset="1" stop-color="#F36F56"/>
</linearGradient>
<linearGradient id="paint44_linear_1248_34192" x1="32.1761" y1="108.272" x2="39.852" y2="79.4331" gradientUnits="userSpaceOnUse">
<stop stop-color="#444B8C"/>
<stop offset="1" stop-color="#26264F"/>
</linearGradient>
<linearGradient id="paint45_linear_1248_34192" x1="29.6487" y1="107.6" x2="37.3245" y2="78.7602" gradientUnits="userSpaceOnUse">
<stop stop-color="#444B8C"/>
<stop offset="1" stop-color="#26264F"/>
</linearGradient>
<linearGradient id="paint46_linear_1248_34192" x1="21.8819" y1="75.1583" x2="56.4932" y2="75.1583" gradientUnits="userSpaceOnUse">
<stop stop-color="#FFC444"/>
<stop offset="1" stop-color="#F36F56"/>
</linearGradient>
<linearGradient id="paint47_linear_1248_34192" x1="27.2861" y1="78.655" x2="35.7428" y2="78.655" gradientUnits="userSpaceOnUse">
<stop stop-color="#FFC444"/>
<stop offset="1" stop-color="#F36F56"/>
</linearGradient>
<linearGradient id="paint48_linear_1248_34192" x1="36.836" y1="67.539" x2="34.1659" y2="63.6115" gradientUnits="userSpaceOnUse">
<stop stop-color="#FFC444"/>
<stop offset="1" stop-color="#F36F56"/>
</linearGradient>
<linearGradient id="paint49_linear_1248_34192" x1="35.1443" y1="65.7532" x2="36.3082" y2="61.6315" gradientUnits="userSpaceOnUse">
<stop stop-color="#444B8C"/>
<stop offset="1" stop-color="#3E4177"/>
</linearGradient>
<linearGradient id="paint50_linear_1248_34192" x1="38.8429" y1="64.5201" x2="34.579" y2="62.198" gradientUnits="userSpaceOnUse">
<stop stop-color="#FFC444"/>
<stop offset="1" stop-color="#F36F56"/>
</linearGradient>
<linearGradient id="paint51_linear_1248_34192" x1="38.511" y1="64.9605" x2="35.7813" y2="63.0987" gradientUnits="userSpaceOnUse">
<stop stop-color="#444B8C"/>
<stop offset="1" stop-color="#3E4177"/>
</linearGradient>
<linearGradient id="paint52_linear_1248_34192" x1="58.6749" y1="19.6403" x2="83.6734" y2="46.3881" gradientUnits="userSpaceOnUse">
<stop stop-color="#FFC444"/>
<stop offset="1" stop-color="#F36F56"/>
</linearGradient>
<linearGradient id="paint53_linear_1248_34192" x1="58.9957" y1="22.7807" x2="80.0743" y2="45.3341" gradientUnits="userSpaceOnUse">
<stop stop-color="#FFC444"/>
<stop offset="1" stop-color="#F36F56"/>
</linearGradient>
<linearGradient id="paint54_linear_1248_34192" x1="70.2294" y1="8.80963" x2="95.3952" y2="35.7365" gradientUnits="userSpaceOnUse">
<stop stop-color="#FFC444"/>
<stop offset="1" stop-color="#F36F56"/>
</linearGradient>
<linearGradient id="paint55_linear_1248_34192" x1="70.2294" y1="8.80963" x2="95.3952" y2="35.7365" gradientUnits="userSpaceOnUse">
<stop stop-color="#FFC444"/>
<stop offset="1" stop-color="#F36F56"/>
</linearGradient>
<linearGradient id="paint56_linear_1248_34192" x1="70.6806" y1="8.41705" x2="95.8176" y2="35.3132" gradientUnits="userSpaceOnUse">
<stop stop-color="#FFC444"/>
<stop offset="1" stop-color="#F36F56"/>
</linearGradient>
<linearGradient id="paint57_linear_1248_34192" x1="109.58" y1="70.8061" x2="86.1512" y2="51.5438" gradientUnits="userSpaceOnUse">
<stop stop-color="#1D54B6"/>
<stop offset="1" stop-color="#9571F6"/>
</linearGradient>
<linearGradient id="paint58_linear_1248_34192" x1="108.977" y1="68.2617" x2="89.2216" y2="52.0198" gradientUnits="userSpaceOnUse">
<stop stop-color="#1D54B6"/>
<stop offset="1" stop-color="#9571F6"/>
</linearGradient>
<linearGradient id="paint59_linear_1248_34192" x1="101.263" y1="80.9547" x2="77.677" y2="61.5629" gradientUnits="userSpaceOnUse">
<stop stop-color="#1D54B6"/>
<stop offset="1" stop-color="#9571F6"/>
</linearGradient>
<linearGradient id="paint60_linear_1248_34192" x1="101.263" y1="80.9547" x2="77.677" y2="61.5629" gradientUnits="userSpaceOnUse">
<stop stop-color="#1950B0"/>
<stop offset="1" stop-color="#1950B0"/>
</linearGradient>
<linearGradient id="paint61_linear_1248_34192" x1="100.934" y1="81.3257" x2="77.3757" y2="61.9565" gradientUnits="userSpaceOnUse">
<stop stop-color="#1D54B6"/>
<stop offset="1" stop-color="#9571F6"/>
</linearGradient>
</defs>
</svg>
