<svg width="182" height="212" viewBox="0 0 182 212" fill="none" xmlns="http://www.w3.org/2000/svg">
<g opacity="0.2">
<path d="M181.416 157.812L91.7303 106.085V0.292969L181.416 52.3124V157.812Z" fill="url(#paint0_linear_1246_31542)"/>
<path d="M181.124 158.105L91.4382 106.377V0.292969H92.0225L181.708 51.7279V157.52H181.124V158.105ZM92.0225 106.085L180.831 157.228V52.6046L92.3146 1.1697V105.793L92.0225 106.085Z" fill="white"/>
</g>
<g opacity="0.2">
<path d="M181.416 158.689L90.2697 210.416L0.58429 158.689L91.7304 105.793L181.416 158.689Z" fill="url(#paint1_linear_1246_31542)"/>
<path d="M90.2697 211.001H89.6854L0 158.982V158.105L91.4382 105.209H92.0225L181.708 158.105V158.982L90.2697 210.709V211.001ZM1.46067 158.69L90.2697 209.832L180.831 158.69L92.0225 106.378L1.46067 158.69Z" fill="white"/>
</g>
<path fill-rule="evenodd" clip-rule="evenodd" d="M94.3595 47.3436C105.461 57.8644 120.36 59.3256 134.966 57.2799L144.315 56.111L147.236 56.6955L144.315 61.3713V65.755C146.36 106.085 145.775 151.382 107.506 175.346C101.955 178.853 93.191 178.561 91.4382 185.283L90.8539 187.913L87.9326 186.744L84.427 185.283C78.2921 182.653 73.9101 178.853 68.3595 175.346C30.0899 151.675 29.5056 106.085 31.2584 65.755V56.4032L41.191 57.5722C55.7977 59.6179 70.6966 58.4489 81.7977 47.6359L87.9326 41.791L90.5618 42.3755L91.1461 45.0057L93.7753 47.6359L94.3595 47.3436ZM88.2247 53.4808C76.8315 64.586 61.0562 68.6774 40.3146 65.755C38.5618 106.961 39.7303 146.707 73.3258 167.456C78.2921 170.378 82.382 174.177 88.2247 176.808C94.0674 174.177 98.1573 170.378 103.124 167.456C136.719 146.707 137.888 106.961 136.135 65.755C115.685 68.6774 99.618 64.586 88.2247 53.4808Z" fill="#037D8A"/>
<path d="M91.146 187.621L88.2247 186.452L84.7191 184.991C80.6292 183.238 77.4157 180.9 73.9101 178.562C72.1573 177.393 70.4045 176.224 68.6517 175.055C51.4157 164.242 40.3146 148.461 35.0562 126.25C30.382 106.377 30.6741 84.4591 31.5505 65.171V55.527H32.1348L41.4831 56.696C45.2809 57.2804 49.0786 57.5727 52.2921 57.5727C64.5618 57.5727 74.7865 54.0658 81.7977 47.0519L87.9326 41.207L90.8539 41.7915L91.4382 44.4217L94.0674 47.0519C101.371 54.0658 111.303 57.5727 123.573 57.5727C127.079 57.5727 130.584 57.5727 134.382 56.696L143.73 55.527L146.944 56.1115L144.022 60.7874V65.171C144.899 84.1669 145.483 106.377 140.809 126.25C135.551 148.168 124.449 164.242 107.213 175.055C105.461 176.224 103.124 177.1 100.786 177.685C96.4045 179.146 92.3146 180.607 91.146 184.699L90.5618 187.329L91.146 187.621ZM32.4269 56.1115V65.4633C30.0899 108.131 31.5505 151.675 68.9438 174.762C70.6966 175.931 72.4494 177.1 74.2022 178.269C77.7078 180.607 80.9213 182.945 85.0112 184.699L88.5168 186.16L91.146 187.037L91.7303 184.699C92.8989 180.315 96.9887 178.854 101.371 177.393C103.708 176.516 105.753 175.931 107.798 174.762C145.191 151.675 146.652 108.131 144.899 65.4633V60.7874L147.528 56.4037H144.607L135.258 57.2804C131.461 57.8649 127.663 58.1572 124.449 58.1572C111.888 58.1572 101.955 54.6502 94.6517 47.3442L91.7303 44.714L91.146 42.0838L88.5168 41.4993L82.6741 47.3442C75.3708 54.358 65.4382 58.1572 52.8764 58.1572C49.3708 58.1572 45.8651 58.1572 42.0674 57.2804L32.7191 56.1115H32.4269ZM88.2247 177.1C84.4269 175.347 81.2135 173.301 78 170.963C76.5393 169.794 74.7865 168.625 73.3258 167.749C58.1348 158.397 48.2022 144.077 43.5281 124.497C39.4382 107.839 39.4382 88.8428 40.3146 65.7555C44.4045 66.34 48.4944 66.6322 52.2921 66.6322C66.8989 66.6322 79.1685 62.2486 87.9326 53.4813C96.9887 62.2486 108.966 66.6322 123.573 66.6322C127.371 66.6322 131.461 66.6322 135.551 65.7555C136.427 88.8428 136.427 107.546 132.337 124.497C127.663 144.077 117.73 158.397 102.539 167.749C100.786 168.625 99.3258 169.794 97.8651 170.963C94.6517 173.009 91.7303 175.347 87.6404 177.1H88.2247ZM40.6067 66.0478C38.8539 107.839 40.0224 146.707 73.618 167.456C75.3708 168.333 76.8314 169.502 78.2921 170.671C81.2135 172.717 84.4269 175.055 88.2247 176.808C92.0224 175.055 95.2359 173.009 98.1573 170.671C99.618 169.502 101.371 168.333 102.831 167.456C136.427 146.707 137.595 107.546 135.843 66.0478C131.753 66.6322 127.663 66.9245 123.865 66.9245C109.258 66.9245 96.9887 62.5408 88.2247 53.7735C79.1685 62.5408 67.191 66.9245 52.5842 66.9245C48.7865 66.9245 44.6966 66.9245 40.6067 66.0478Z" fill="#037D8A"/>
<path fill-rule="evenodd" clip-rule="evenodd" d="M90.854 54.3574C79.4607 65.4627 63.6854 69.5541 42.9438 66.6317C41.191 107.838 42.3596 147.583 75.9551 168.332C80.6292 171.255 85.0113 175.054 90.854 177.684C96.6966 175.054 100.787 171.255 105.753 168.332C139.348 147.583 140.517 107.838 138.764 66.6317C118.315 69.5541 102.247 65.4627 90.854 54.3574Z" fill="#8BBAE9"/>
<path d="M90.854 177.977C87.0562 176.223 83.8427 173.885 80.6292 171.839C79.1686 170.67 77.4158 169.501 75.9551 168.625C42.3596 147.875 41.191 108.423 42.9438 66.6317C47.0337 67.2161 51.1236 67.5084 54.9214 67.5084C69.5281 67.5084 81.5056 63.1247 90.5618 54.3574C99.618 63.1247 111.596 67.5084 126.202 67.5084C130 67.5084 134.09 67.5084 138.18 66.6317C139.933 108.423 138.764 147.875 105.169 168.625C103.416 169.501 101.955 170.67 100.494 171.839C97.2809 173.885 94.3596 176.223 90.2697 177.977H90.854ZM43.236 66.9239C41.4832 108.423 42.6517 147.583 75.9551 168.04C77.7079 168.917 79.1686 170.086 80.6292 171.255C83.5506 173.301 86.7641 175.639 90.5618 177.392C94.3596 175.639 97.5731 173.593 100.494 171.255C101.955 170.086 103.708 168.917 105.169 168.04C138.472 147.291 139.64 108.423 137.888 66.9239C133.798 67.5084 129.708 67.8006 126.202 67.8006C111.596 67.8006 99.3259 63.417 90.5618 54.6497C81.5056 63.417 69.5281 67.8006 54.9214 67.8006C51.1236 67.8006 47.3259 67.8006 43.236 66.9239Z" fill="#373435"/>
<path fill-rule="evenodd" clip-rule="evenodd" d="M44.4045 115.144H90.8539V54.3574C79.4607 65.4627 63.6854 69.5541 42.9438 66.6317C42.3595 83.5818 42.0674 100.24 44.1124 115.144H44.4045Z" fill="#D8E6E6"/>
<path fill-rule="evenodd" clip-rule="evenodd" d="M90.8539 54.3574V115.144H137.303C139.64 99.9475 139.348 83.2896 138.472 66.6317C118.022 69.5541 101.955 65.4627 90.5618 54.3574H90.8539Z" fill="#EFF9FC"/>
<path fill-rule="evenodd" clip-rule="evenodd" d="M137.596 115.145H91.1461V177.685C96.9888 175.055 101.079 171.255 106.045 168.333C125.91 156.059 134.382 137.063 137.596 115.145Z" fill="#D2E5F7"/>
<path fill-rule="evenodd" clip-rule="evenodd" d="M90.8539 177.685V115.145H44.4045C47.618 137.063 56.0899 156.059 75.955 168.333C80.6292 171.255 85.0112 175.055 90.8539 177.685Z" fill="#BBDBFA"/>
<g opacity="0.17">
<path fill-rule="evenodd" clip-rule="evenodd" d="M48.2023 111.345C46.1573 97.3172 46.1573 82.4127 46.7416 66.9238C46.1573 66.9238 45.2809 66.9238 44.6966 66.9238C44.1124 83.2895 43.8202 99.3629 46.1573 113.975H48.7865C48.7865 113.975 48.7865 112.222 48.4944 111.637L48.2023 111.345Z" fill="#D2E5F7"/>
</g>
<g opacity="0.17">
<path fill-rule="evenodd" clip-rule="evenodd" d="M90.854 111.346H48.2023C48.2023 111.346 48.2023 113.099 48.4944 113.684H90.854V111.346Z" fill="#D2E5F7"/>
</g>
<g opacity="0.17">
<path fill-rule="evenodd" clip-rule="evenodd" d="M92.6068 55.8184V111.637H94.9438V57.8641C94.9438 57.8641 93.4832 56.6951 92.6068 56.1106V55.8184Z" fill="#D2E5F7"/>
</g>
<g opacity="0.17">
<path d="M94.9438 111.346H92.6068V113.684H94.9438V111.346Z" fill="#D2E5F7"/>
</g>
<g opacity="0.17">
<path fill-rule="evenodd" clip-rule="evenodd" d="M94.6517 111.346V113.684H137.595C137.595 113.684 137.595 111.93 137.888 111.346H94.6517Z" fill="#D2E5F7"/>
</g>
<g opacity="0.17">
<path fill-rule="evenodd" clip-rule="evenodd" d="M79.7528 164.534C61.0562 152.844 52.2921 135.602 48.7865 115.145H46.1573C49.6629 136.478 58.1348 154.89 77.7078 167.164C82.0899 169.794 85.8876 173.301 91.146 175.639V171.84C87.0562 169.502 83.8427 166.872 80.0449 164.534H79.7528Z" fill="#D2E5F7"/>
</g>
<g opacity="0.17">
<path fill-rule="evenodd" clip-rule="evenodd" d="M92.6068 115.145V172.717C92.6068 172.717 94.0674 173.593 94.9438 173.886V115.145H92.6068Z" fill="#D2E5F7"/>
</g>
<g opacity="0.17">
<path fill-rule="evenodd" clip-rule="evenodd" d="M94.6517 173.884C94.6517 173.884 93.191 173.3 92.3146 172.715V176.222C98.1573 173.592 102.247 169.793 107.213 166.871C109.843 165.117 112.18 163.364 114.517 161.61C115.977 160.149 117.438 158.688 118.899 157.227C115.977 159.857 112.764 162.195 109.258 164.24C104.292 167.163 100.202 170.962 94.3595 173.592L94.6517 173.884Z" fill="#D2E5F7"/>
</g>
<path fill-rule="evenodd" clip-rule="evenodd" d="M96.9887 48.2218C108.09 58.7426 122.989 60.2038 137.595 58.1581L146.944 56.9891V66.6332C148.989 106.963 148.697 152.261 110.427 176.225C104.876 179.732 100.786 183.531 94.3595 186.161L90.8539 187.622L87.3483 186.161C81.2135 183.531 76.8314 179.732 71.2809 176.225C33.0112 152.553 32.4269 106.963 34.1797 66.6332V56.9891L44.1123 58.1581C58.7191 60.2038 73.618 59.0348 84.7191 48.2218L90.8539 42.377L96.9887 48.2218ZM90.8539 54.3589C79.4606 65.4642 63.6854 69.5556 42.9438 66.6332C41.191 107.84 42.3595 147.585 75.955 168.334C80.6292 171.256 85.0112 175.056 90.8539 177.686C96.6966 175.056 100.786 171.256 105.753 168.334C139.348 147.585 140.517 107.84 138.764 66.6332C118.315 69.5556 102.247 65.4642 90.8539 54.3589Z" fill="#13CCDF"/>
<g opacity="0.1">
<path fill-rule="evenodd" clip-rule="evenodd" d="M96.9888 48.2206C108.09 58.7414 122.989 60.2026 137.595 58.1569L146.944 56.9879V66.632C148.989 105.5 148.697 149.337 114.225 173.593C146.652 149.045 146.652 106.377 145.191 68.3854V59.0336L135.258 60.2026C120.652 62.2483 105.753 61.0793 94.6517 50.2663L88.809 44.7137L90.8539 42.668L96.9888 48.5128V48.2206ZM34.764 58.7414V56.6957L44.4045 57.8646C56.9663 59.6181 69.8202 59.0336 80.0449 52.0198C69.2359 60.4948 55.5056 61.3716 42.0674 59.6181L34.764 58.7414ZM88.809 56.4034C88.809 56.4034 86.4719 58.4491 85.0112 59.3259C86.1798 58.4491 87.3483 57.2802 88.5168 56.1112L88.809 56.4034ZM42.9438 68.9699C42.9438 68.9699 41.4831 68.9699 40.8989 68.9699C39.1461 110.176 40.3146 149.921 73.9101 170.671C78.5843 173.593 82.9663 177.392 88.809 180.023C94.6517 177.392 98.7416 173.593 103.708 170.671C105.753 169.502 107.506 168.041 109.258 166.872C108.09 167.748 107.213 168.333 106.045 169.21C101.079 172.132 96.9888 175.931 91.1461 178.561C85.3034 175.931 81.2135 172.132 76.2472 169.21C43.2359 148.752 41.4831 109.884 43.2359 69.2621L42.9438 68.9699Z" fill="#E6E6E6"/>
</g>
<g opacity="0.29">
<path fill-rule="evenodd" clip-rule="evenodd" d="M90.8539 54.3586C90.8539 54.3586 89.3932 55.5276 88.809 56.1121C100.202 66.9251 115.978 71.0165 136.427 68.0941C138.18 106.963 137.011 144.37 108.966 165.996C139.348 144.662 140.225 106.378 138.472 66.3406C118.022 69.2631 101.955 65.1717 90.5618 54.0664L90.8539 54.3586ZM85.0112 59.0345C74.2022 66.3406 60.1797 68.9708 42.9438 66.6329V68.6786C60.4719 70.7243 74.4944 67.5096 85.0112 59.3268V59.0345Z" fill="#E6E6E6"/>
</g>
<g opacity="0.33">
<path d="M91.7303 184.114C91.7303 184.114 91.1461 184.114 91.1461 183.821C91.1461 183.529 91.1461 182.945 91.4382 182.945C113.056 171.547 127.371 159.857 133.213 147.583C133.213 147.291 133.798 146.999 134.09 147.291C134.382 147.291 134.674 147.875 134.382 148.168C128.247 160.442 113.933 172.716 92.0225 184.114C92.0225 184.114 92.0225 184.114 91.7303 184.114Z" fill="white"/>
</g>
<path fill-rule="evenodd" clip-rule="evenodd" d="M77.7079 102.578H103.416V92.6416C103.416 89.1347 101.955 85.92 99.618 83.582C97.2809 81.2441 94.0674 79.7829 90.5618 79.7829C87.0562 79.7829 83.8427 81.2441 81.5056 83.582C79.1685 85.92 77.7079 89.1347 77.7079 92.6416V102.578ZM109.258 102.578C112.18 103.162 114.517 105.793 114.517 109.007V138.816C114.517 142.323 111.595 145.245 108.09 145.245H72.4494C68.9438 145.245 66.0225 142.323 66.0225 138.816V109.007C66.0225 105.793 68.3595 103.162 71.2809 102.578V92.3494C71.2809 87.089 73.3258 82.4131 76.8315 78.9061C80.3371 75.3992 85.0112 73.3535 90.2696 73.3535C95.5281 73.3535 100.202 75.3992 103.708 78.9061C107.213 82.4131 109.258 87.089 109.258 92.3494V102.286V102.578Z" fill="#13CCDF"/>
<path fill-rule="evenodd" clip-rule="evenodd" d="M90.5618 111.637C94.3595 111.637 97.2809 114.559 97.2809 118.358C97.2809 121.281 95.2359 123.911 92.6067 124.788V132.971C92.6067 132.971 91.7303 135.016 90.5618 135.016C90.5618 135.016 88.5168 134.139 88.5168 132.971V124.788C85.5955 123.911 83.8427 121.281 83.8427 118.358C83.8427 114.559 86.764 111.637 90.5618 111.637Z" fill="#EFF9FC"/>
<path fill-rule="evenodd" clip-rule="evenodd" d="M97.2809 47.9296C102.831 53.19 109.258 56.1124 116.27 57.5736C123.281 59.0348 130.584 58.7426 137.888 57.5736L147.236 56.4047V65.7565C148.404 85.9213 148.989 107.255 144.022 126.835C139.348 146.416 129.708 163.658 110.427 175.64C108.674 176.809 106.921 177.978 105.169 179.147C101.663 181.485 98.4494 183.823 94.3595 185.576L90.8539 187.038L87.3483 185.576C83.2584 183.823 79.7528 181.485 76.5393 179.147C74.7865 177.978 73.0337 176.809 71.2809 175.64C52 163.658 42.3595 146.416 37.6854 126.835C33.0112 107.547 33.3033 85.9213 34.1798 65.7565V56.4047H34.4719L43.8202 57.8659C51.1236 58.7426 58.4269 59.0348 65.4382 57.8659C72.4494 56.4047 78.8764 53.4822 84.4269 48.2218L90.5618 42.377L96.6966 48.2218L97.2809 47.9296ZM115.978 58.1581C108.966 56.6969 102.539 53.7745 96.9887 48.5141L91.146 42.9614L85.3034 48.5141C79.7528 53.7745 73.3258 56.9891 66.3146 58.1581C59.3033 59.6193 52 59.3271 44.6966 58.1581L35.6404 56.9891V66.3409C34.4719 86.5058 34.1798 107.84 38.8539 127.128C43.5281 146.416 53.1685 163.658 72.1573 175.64C73.9101 176.809 75.6629 177.978 77.4157 179.147C80.6292 181.485 84.1348 183.823 88.2247 185.576L91.4382 187.038L94.6517 185.576C98.7416 183.823 101.955 181.485 105.461 179.147C107.213 177.978 108.966 176.809 110.719 175.64C129.708 163.658 139.348 146.416 144.022 127.128C148.697 107.84 148.404 86.5058 147.528 66.3409V56.9891L137.888 58.1581C130.584 59.0348 123.281 59.3271 116.27 58.1581H115.978ZM91.146 54.6512C85.5955 60.2038 78.5843 63.7107 70.6966 65.7565C62.809 67.8022 53.7528 68.0944 43.5281 66.6332C42.6517 87.0902 42.6517 107.255 46.7416 124.79C51.1236 142.324 59.5955 157.521 76.2472 167.75C78 168.626 79.4607 169.795 80.9213 170.964C83.8427 173.01 87.0562 175.348 90.8539 177.101C94.6517 175.348 97.8652 173.302 100.786 170.964C102.247 169.795 104 168.626 105.461 167.75C122.112 157.521 130.876 142.324 134.966 124.79C139.056 107.255 139.056 87.0902 138.18 66.6332C127.955 68.0944 118.899 67.8022 111.011 65.7565C103.124 63.7107 96.4045 59.9116 90.5618 54.6512H91.146ZM70.6966 65.4642C62.809 67.5099 53.7528 67.8022 43.5281 66.3409C42.6517 87.0902 42.3595 107.255 46.7416 125.082C51.1236 142.909 59.5955 158.105 76.5393 168.334C78.2921 169.211 79.7528 170.38 81.2135 171.549C84.4269 173.887 87.3483 175.932 91.4382 177.686C95.2359 175.932 98.4494 173.887 101.663 171.549C103.124 170.38 104.876 169.211 106.337 168.334C123.281 157.813 131.753 142.617 136.135 125.082C140.517 107.255 140.225 87.0902 139.348 66.3409C129.124 67.8022 120.067 67.5099 112.18 65.4642C104.292 63.4185 97.573 59.6193 91.7303 54.3589C86.1798 59.9116 79.1685 63.7107 71.2809 65.4642H70.6966Z" fill="#61A0E0"/>
<g opacity="0.1">
<path d="M181.416 52.3124L90.2697 104.916L0.58429 53.1891L91.7304 0.292969L181.416 52.3124Z" fill="url(#paint2_linear_1246_31542)"/>
<path d="M90.2697 105.208H89.6854L0 53.4806V52.6039L91.7303 0H92.3146L182 51.7271V52.6039L90.5618 105.5L90.2697 105.208ZM1.46067 53.1884L90.2697 104.331L180.831 52.0194L91.7303 0.876731L1.46067 53.1884Z" fill="white"/>
</g>
<g opacity="0.1">
<path d="M181.416 158.689L90.2697 210.416V104.916L181.416 52.3125V158.689Z" fill="url(#paint3_linear_1246_31542)"/>
<path d="M90.2697 211H89.6854V105.208L181.124 52.0195H181.708V158.981L90.2697 211.292V211ZM90.2697 105.208V209.831L180.831 158.689V52.8963L90.2697 105.208Z" fill="white"/>
</g>
<g opacity="0.1">
<path d="M90.2697 210.415L0.584259 158.688V53.1875L90.2697 104.915V210.415Z" fill="url(#paint4_linear_1246_31542)"/>
<path d="M89.9775 210.999L0 158.98V53.1875H0.58427L90.2697 104.622V210.415H89.6854L89.9775 210.999ZM0.876405 158.395L89.6854 209.538V105.207L0.876405 54.0642V158.395Z" fill="white"/>
</g>
<defs>
<linearGradient id="paint0_linear_1246_31542" x1="-12114.3" y1="-6817.07" x2="-12122.3" y2="-6959.05" gradientUnits="userSpaceOnUse">
<stop stop-color="#586FED"/>
<stop offset="1" stop-color="#4DEDFF"/>
</linearGradient>
<linearGradient id="paint1_linear_1246_31542" x1="12333.9" y1="-6849.59" x2="12333.9" y2="-6988.64" gradientUnits="userSpaceOnUse">
<stop stop-color="#586FED"/>
<stop offset="1" stop-color="#4DEDFF"/>
</linearGradient>
<linearGradient id="paint2_linear_1246_31542" x1="138.472" y1="78.3221" x2="36.2075" y2="23.1199" gradientUnits="userSpaceOnUse">
<stop stop-color="#586FED"/>
<stop offset="1" stop-color="#4DEDFF"/>
</linearGradient>
<linearGradient id="paint3_linear_1246_31542" x1="153.955" y1="162.488" x2="115.956" y2="97.0381" gradientUnits="userSpaceOnUse">
<stop stop-color="#586FED"/>
<stop offset="1" stop-color="#4DEDFF"/>
</linearGradient>
<linearGradient id="paint4_linear_1246_31542" x1="110.427" y1="244.607" x2="1.98434" y2="57.0217" gradientUnits="userSpaceOnUse">
<stop stop-color="#586FED"/>
<stop offset="1" stop-color="#4DEDFF"/>
</linearGradient>
</defs>
</svg>
