<svg width="160" height="160" viewBox="0 0 160 160" fill="none" xmlns="http://www.w3.org/2000/svg">
<circle cx="80" cy="80" r="80" fill="#F3F3F3"/>
<path opacity="0.5" d="M123.644 50.9256C126.751 52.5722 128.764 55.7292 128.948 59.2404L130.093 81.2101L130.889 103.195C131.017 106.709 129.289 110.031 126.34 111.945L107.887 123.922L89.245 135.604C86.2657 137.471 82.5249 137.637 79.3926 136.04L59.7935 126.047L40.3557 115.744C37.2492 114.097 35.2356 110.94 35.0525 107.429L33.9069 85.4593L33.1107 63.4742C32.9835 59.9606 34.7108 56.6383 37.66 54.7242L56.1135 42.7472L74.7551 31.0651C77.7343 29.1981 81.4752 29.0328 84.6075 30.6298L104.207 40.6225L123.644 50.9256Z" fill="url(#paint0_linear_1246_18942)"/>
<path d="M103.999 35.3697C107.515 35.3976 110.757 37.2699 112.54 40.3007L123.69 59.2648L134.538 78.4038C136.272 81.4625 136.272 85.207 134.538 88.2658L123.69 107.405L112.54 126.369C110.757 129.4 107.515 131.272 103.999 131.3L82 131.475L60.0011 131.3C56.4853 131.272 53.2425 129.4 51.4604 126.369L40.3095 107.405L29.4615 88.2658C27.7278 85.207 27.7278 81.4625 29.4615 78.4038L40.3095 59.2648L51.4604 40.3007C53.2425 37.2699 56.4853 35.3976 60.0011 35.3697L82 35.1948L103.999 35.3697Z" fill="url(#paint1_linear_1246_18942)"/>
<path d="M107.764 101.361C107.764 106.085 103.937 109.913 99.2154 109.913C95.6465 109.913 92.5884 107.725 91.3084 104.616C90.8952 103.614 90.6672 102.514 90.6672 101.361C90.6672 96.638 94.4948 92.8086 99.2154 92.8086C100.317 92.8086 101.371 93.0175 102.338 93.3983C105.515 94.6458 107.764 97.7408 107.764 101.361Z" fill="url(#paint2_linear_1246_18942)"/>
<path opacity="0.1" d="M102.98 96.6538C102.98 101.378 99.1523 105.206 94.4306 105.206C93.3293 105.206 92.2754 104.998 91.3074 104.617C91.0986 104.109 90.9377 103.579 90.8291 103.028C90.8089 102.924 90.7901 102.82 90.7738 102.715C90.7027 102.274 90.6667 101.821 90.6667 101.362C90.6667 96.638 94.4943 92.8086 99.2145 92.8086C100.317 92.8086 101.371 93.019 102.338 93.3988C102.751 94.4023 102.98 95.5011 102.98 96.6538Z" fill="white"/>
<path d="M98.6348 101.055C100.089 99.5997 100.089 97.2401 98.6348 95.7847C97.1801 94.3294 94.8216 94.3294 93.3669 95.7847C91.9122 97.2401 91.9122 99.5997 93.3669 101.055C94.8216 102.51 97.1801 102.51 98.6348 101.055Z" fill="#FADBEE"/>
<path d="M94.792 96.998C94.9035 96.998 95.0072 97.0143 95.1039 97.0474C95.2002 97.0805 95.2841 97.1284 95.3542 97.1916C95.4248 97.2549 95.4801 97.3314 95.5201 97.4218C95.5606 97.5122 95.5808 97.6149 95.5808 97.73C95.5808 97.8277 95.566 97.9186 95.5369 98.0021C95.5072 98.085 95.4678 98.1651 95.4174 98.2416C95.3671 98.3182 95.3098 98.3922 95.2441 98.4638C95.1785 98.5355 95.1089 98.6085 95.0358 98.6831L94.3442 99.3918C94.3931 99.3785 94.443 99.3676 94.4928 99.3597C94.5427 99.3518 94.5911 99.3479 94.6375 99.3479H95.5181C95.5536 99.3479 95.5818 99.3582 95.6025 99.3795C95.6233 99.4002 95.6336 99.4269 95.6336 99.46V99.6585H93.8792V99.5464C93.8792 99.5232 93.8842 99.499 93.8931 99.4748C93.9019 99.4501 93.9168 99.4274 93.938 99.4071L94.7801 98.5606C94.8502 98.49 94.9134 98.4219 94.9712 98.3562C95.0289 98.2905 95.0778 98.2248 95.1188 98.1591C95.1597 98.0929 95.1908 98.0258 95.213 97.9581C95.2353 97.8905 95.2461 97.8179 95.2461 97.7408C95.2461 97.6638 95.2338 97.5961 95.2096 97.5378C95.1849 97.4801 95.1513 97.4317 95.1084 97.3936C95.0659 97.3556 95.0156 97.3275 94.9578 97.3082C94.9006 97.2894 94.8389 97.28 94.7727 97.28C94.7066 97.28 94.6454 97.2899 94.5891 97.3092C94.5328 97.3289 94.483 97.3561 94.4395 97.3912C94.3961 97.4257 94.3595 97.4672 94.3294 97.5151C94.2993 97.563 94.2786 97.6154 94.2662 97.6732C94.2564 97.7087 94.2416 97.7344 94.2218 97.7502C94.2026 97.766 94.1769 97.7739 94.1448 97.7739C94.1389 97.7739 94.1325 97.7739 94.1256 97.7729C94.1187 97.7724 94.1112 97.7709 94.1024 97.77L93.9321 97.7408C93.9488 97.6208 93.9824 97.5146 94.0308 97.4223C94.0797 97.3299 94.1419 97.2524 94.2174 97.1902C94.2924 97.1279 94.3788 97.08 94.476 97.0479C94.5733 97.0153 94.6784 96.999 94.791 96.999L94.792 96.998Z" fill="#BF4584"/>
<path d="M97.8361 98.3433C97.8361 98.574 97.8114 98.7725 97.7616 98.9409C97.7122 99.1093 97.6446 99.2486 97.5587 99.3587C97.4728 99.4689 97.3716 99.5508 97.2551 99.6047C97.1381 99.659 97.0132 99.6857 96.88 99.6857C96.7467 99.6857 96.6203 99.659 96.5043 99.6047C96.3888 99.5508 96.2881 99.4689 96.2027 99.3587C96.1168 99.2486 96.0497 99.1093 96.0008 98.9409C95.9519 98.7725 95.9272 98.5735 95.9272 98.3433C95.9272 98.1132 95.9519 97.9142 96.0008 97.7448C96.0497 97.5759 96.1168 97.4361 96.2027 97.3255C96.2881 97.2149 96.3888 97.1324 96.5043 97.0785C96.6198 97.0247 96.7452 96.998 96.88 96.998C97.0147 96.998 97.1381 97.0247 97.2551 97.0785C97.3721 97.1324 97.4733 97.2149 97.5587 97.3255C97.6446 97.4361 97.7117 97.5759 97.7616 97.7448C97.811 97.9137 97.8361 98.1132 97.8361 98.3433ZM97.4965 98.3433C97.4965 98.1428 97.4797 97.9739 97.4462 97.8376C97.4126 97.7013 97.3672 97.5912 97.3104 97.5082C97.2531 97.4247 97.1875 97.3655 97.113 97.3294C97.0384 97.2934 96.9604 97.2751 96.88 97.2751C96.7995 97.2751 96.7215 97.2929 96.647 97.3294C96.5724 97.3655 96.5068 97.4252 96.4505 97.5082C96.3942 97.5912 96.3493 97.7013 96.3157 97.8376C96.2822 97.9739 96.2654 98.1428 96.2654 98.3433C96.2654 98.5438 96.2822 98.7123 96.3157 98.8486C96.3493 98.9844 96.3942 99.094 96.4505 99.1775C96.5068 99.2604 96.5724 99.3202 96.647 99.3563C96.7215 99.3923 96.7995 99.4106 96.88 99.4106C96.9604 99.4106 97.0384 99.3928 97.113 99.3563C97.1875 99.3202 97.2531 99.2604 97.3104 99.1775C97.3672 99.094 97.4126 98.9849 97.4462 98.8486C97.4797 98.7127 97.4965 98.5443 97.4965 98.3433Z" fill="#BF4584"/>
<path opacity="0.3" d="M99.3024 93.7958C98.8799 93.1666 97.1818 93.5671 95.5103 94.6912C93.8389 95.8152 92.8264 97.236 93.249 97.8657C93.6715 98.4949 95.3696 98.0944 97.0411 96.9703C98.7125 95.8463 99.725 94.4255 99.3024 93.7958Z" fill="white"/>
<path d="M114.667 103.904C114.667 107.029 112.135 109.562 109.011 109.562C106.651 109.562 104.627 108.115 103.78 106.058C103.507 105.395 103.356 104.667 103.356 103.904C103.356 100.779 105.888 98.2461 109.011 98.2461C109.74 98.2461 110.437 98.3844 111.077 98.6364C113.179 99.4618 114.667 101.509 114.667 103.904Z" fill="url(#paint3_linear_1246_18942)"/>
<path opacity="0.1" d="M111.502 100.79C111.502 103.915 108.97 106.447 105.846 106.447C105.117 106.447 104.421 106.31 103.78 106.058C103.507 105.395 103.356 104.667 103.356 103.904C103.356 100.779 105.888 98.2461 109.011 98.2461C109.74 98.2461 110.437 98.3844 111.077 98.6364C111.351 99.3002 111.502 100.027 111.502 100.79Z" fill="white"/>
<path d="M106.885 104.425C108.246 104.425 109.35 103.321 109.35 101.96C109.35 100.598 108.246 99.4941 106.885 99.4941C105.524 99.4941 104.421 100.598 104.421 101.96C104.421 103.321 105.524 104.425 106.885 104.425Z" fill="#EBF0FD"/>
<path opacity="0.3" d="M109.07 98.8984C108.79 98.4817 107.666 98.7469 106.561 99.4904C105.455 100.234 104.785 101.174 105.065 101.59C105.344 102.007 106.468 101.742 107.574 100.998C108.679 100.255 109.35 99.3144 109.07 98.8984Z" fill="white"/>
<path opacity="0.3" d="M105.483 103.573C105.282 104.246 104.841 104.708 104.498 104.606C104.155 104.504 104.04 103.875 104.241 103.202C104.442 102.529 104.883 102.066 105.225 102.168C105.569 102.271 105.684 102.899 105.483 103.573Z" fill="white"/>
<path d="M107.178 101.221V101.311C107.178 101.337 107.175 101.358 107.169 101.375C107.164 101.391 107.158 101.405 107.152 101.416L106.483 102.767C106.473 102.787 106.46 102.804 106.442 102.818C106.425 102.832 106.402 102.839 106.372 102.839H106.229L106.908 101.504C106.917 101.485 106.928 101.469 106.938 101.452C106.948 101.437 106.959 101.421 106.972 101.407H106.128C106.116 101.407 106.104 101.402 106.094 101.392C106.084 101.382 106.079 101.37 106.079 101.358V101.221H107.178L107.178 101.221Z" fill="black"/>
<path d="M69.7413 56.0093L63.4339 108.435C63.3394 109.221 63.8811 109.926 64.6401 110.001L90.9113 112.885C92.5205 112.985 93.4016 112.163 93.5012 111.327L100.123 55.5899C100.222 54.7587 99.4324 54.0059 97.8162 54.0059L71.3062 54.5642C70.5387 54.577 69.8358 55.2272 69.7418 56.009L69.7413 56.0093Z" fill="url(#paint4_linear_1246_18942)"/>
<path d="M68.5589 55.917L62.2169 108.605C62.1218 109.395 62.6655 110.103 63.4271 110.179L90.6628 112.891C91.5167 112.976 92.2992 112.358 92.399 111.518L99.0582 55.4926C99.1574 54.6571 98.5303 53.9856 97.667 54.0002L70.1293 54.4649C69.3591 54.4778 68.6532 55.1314 68.5586 55.9172L68.5589 55.917Z" fill="url(#paint5_linear_1246_18942)"/>
<path d="M69.0757 58.8259L63.1974 107.678C63.1086 108.416 63.6178 109.077 64.3306 109.146L89.9449 111.636C90.7386 111.713 91.466 111.137 91.5591 110.355L97.7132 58.6001C97.8058 57.8222 97.2235 57.1926 96.4216 57.2013L70.5444 57.4768C69.8239 57.4845 69.1639 58.0916 69.0755 58.8261L69.0757 58.8259Z" fill="#D8DEE8"/>
<path d="M82.8115 55.8844C82.7778 56.1649 82.9791 56.3895 83.2613 56.3858C83.5438 56.3823 83.8003 56.1515 83.834 55.8705C83.8676 55.5895 83.6656 55.365 83.3831 55.3692C83.1009 55.3734 82.8451 55.6039 82.8117 55.8844H82.8115Z" fill="url(#paint6_linear_1246_18942)"/>
<g style="mix-blend-mode:soft-light">
<path d="M73.5042 91.6162C78.7479 81.9212 86.5815 79.0191 88.94 69.0273C90.2148 63.6264 89.3463 58.4569 87.8833 54.1654L97.6674 54.0002C98.5307 53.9856 99.1578 54.6573 99.0585 55.4926L92.3994 111.518C92.2996 112.358 91.517 112.976 90.6631 112.891L69.2532 110.759C69.095 102.072 71.167 95.9377 73.5044 91.6159L73.5042 91.6162Z" fill="white"/>
</g>
<path d="M61.7565 81.0706C61.7565 81.0706 61.5658 80.356 61.701 80.1733C61.8362 79.9906 62.6616 79.2603 62.5824 79.4984C62.5029 79.7366 62.3838 79.8953 62.3838 79.8953C62.3838 79.8953 62.8285 80.1018 62.5425 80.4112C62.2568 80.721 62.1612 80.7923 62.1454 81.0703C62.1296 81.3481 61.9471 81.4434 61.7565 81.0703V81.0706Z" fill="url(#paint7_linear_1246_18942)"/>
<path d="M53.8253 111.914C53.8253 111.914 53.7243 112.532 53.7372 112.752C53.7501 112.972 56.1907 113.084 56.2152 112.919C56.24 112.755 55.8119 112.493 55.5106 112.4C55.2093 112.308 54.3274 112.061 54.3274 112.061L53.8253 111.914Z" fill="url(#paint8_linear_1246_18942)"/>
<path d="M54.4174 111.296L54.3397 112.065C54.3397 112.065 54.0562 112.252 53.8064 112.108L53.6814 111.271L54.4174 111.297V111.296Z" fill="url(#paint9_linear_1246_18942)"/>
<path d="M49.4706 112.918C49.4706 112.918 49.3696 113.536 49.3825 113.756C49.3954 113.976 51.836 114.088 51.8605 113.923C51.8853 113.759 51.4572 113.497 51.1559 113.404C50.8546 113.312 49.9727 113.065 49.9727 113.065L49.4706 112.918Z" fill="url(#paint10_linear_1246_18942)"/>
<path d="M50.0632 112.3L49.9855 113.069C49.9855 113.069 49.702 113.256 49.4522 113.112L49.3271 112.275L50.0632 112.301V112.3Z" fill="url(#paint11_linear_1246_18942)"/>
<path d="M53.9748 91.2375C54.2568 91.8094 54.5391 92.3813 54.821 92.9532C55.0478 96.217 55.1607 99.7663 55.0882 103.562C55.0342 106.386 54.8834 109.061 54.6666 111.572C54.284 111.554 53.9015 111.537 53.519 111.519C52.9659 110.421 52.3131 108.758 52.2529 106.705C52.1903 104.564 52.8394 104.28 52.7983 102.229C52.7448 99.572 51.6305 98.8631 51.0368 95.6664C50.8098 94.4439 50.657 92.8472 50.8385 90.9102C51.8838 91.0191 52.929 91.1283 53.9743 91.2372L53.9748 91.2375Z" fill="url(#paint12_linear_1246_18942)"/>
<path style="mix-blend-mode:multiply" opacity="0.3" d="M50.8387 90.9102C51.4032 90.9691 51.9676 91.028 52.5324 91.0869C53.5487 92.8554 53.8324 94.6959 53.6539 95.5102C53.4016 96.6622 52.7341 97.0311 52.771 98.1875C52.8074 99.3318 53.4816 99.6287 53.9092 100.977C54.2053 101.911 54.127 102.77 53.9587 104.449C53.6195 107.831 52.8027 108.865 53.4868 109.974C53.6811 110.289 54.0315 110.664 54.7177 110.951C54.7009 111.158 54.6843 111.366 54.6667 111.572C54.2842 111.554 53.9017 111.536 53.5192 111.519C52.9661 110.421 52.3133 108.758 52.2531 106.705C52.1905 104.564 52.8396 104.279 52.7985 102.229C52.745 99.5717 51.6307 98.8629 51.037 95.6664C50.81 94.4439 50.6572 92.8472 50.8387 90.9102Z" fill="url(#paint13_linear_1246_18942)"/>
<path d="M52.4568 92.2657C51.9273 95.1535 51.4596 98.244 51.0947 101.522C50.654 105.479 50.4188 109.21 50.3264 112.674C49.9065 112.686 49.4869 112.698 49.067 112.71C47.4127 109.437 47.3116 107.218 47.5501 105.774C47.6419 105.217 47.8917 104.126 47.9487 102.494C47.9883 101.357 47.9157 100.491 47.8251 99.451C47.6266 97.17 47.3854 96.6721 47.3508 94.9275C47.3181 93.29 47.3114 92.4616 47.7788 91.9781C49.0103 90.704 52.214 92.1531 52.4568 92.2657Z" fill="url(#paint14_linear_1246_18942)"/>
<path d="M61.5368 80.9611C61.8161 80.9416 62.0951 80.9223 62.3744 80.9027C63.0329 83.5644 62.5605 86.1462 61.0741 87.0957C58.7515 88.5791 54.435 85.7842 53.4996 82.7407C53.0891 81.4048 53.1825 79.4771 54.0032 79.1026C54.231 78.9986 54.5845 78.9825 55.3503 79.4123C57.6372 80.6962 57.6973 83.123 58.86 83.3285C59.3769 83.4198 60.2115 83.0903 61.5373 80.9609L61.5368 80.9611Z" fill="#6135E9"/>
<path d="M55.1424 93.5427C55.5447 92.8752 55.0394 92.2315 54.9245 90.9671C54.7943 89.5339 55.3464 89.2952 55.8923 86.9202C56.2555 85.3406 56.6039 83.8242 56.1879 82.0491C55.9886 81.1984 55.6504 79.7555 54.4561 79.0586C53.8399 78.6988 52.9984 78.735 51.3408 78.8216C49.2909 78.9288 48.2661 78.9823 47.5016 79.3849C47.3897 79.4438 45.0645 80.7087 44.9043 82.7705C44.7414 84.869 47.0265 85.151 47.3313 87.9494C47.4682 89.2056 47.2243 91.1377 47.0661 92.3907C46.9144 93.5939 46.8096 93.9019 47.0473 94.2664C47.6197 95.1445 49.3718 94.8942 52.8761 94.3939C54.2506 94.1975 54.8423 94.0408 55.1424 93.5427Z" fill="#6135E9"/>
<path d="M49.8105 87.4973C49.6622 88.0427 49.1294 88.45 48.7586 89.7768C48.6786 90.0632 48.1079 92.103 48.8479 92.6051C49.2753 92.8951 49.659 92.3457 50.6964 92.2739C52.4938 92.1496 53.3502 93.6603 54.5244 93.2476C54.7282 93.1758 54.9971 93.0233 55.2657 92.6727C55.3192 92.9886 55.31 93.2632 55.1426 93.5412C54.8426 94.0394 54.2509 94.1958 52.8763 94.3922C49.3721 94.8925 47.62 95.1428 47.0475 94.2647C46.8101 93.9005 46.9146 93.5922 47.0664 92.389C47.2246 91.1358 47.4684 89.2036 47.3315 87.9477C47.0268 85.1493 44.7413 84.8673 44.9045 82.7688C44.9481 82.2078 45.1543 81.7084 45.4304 81.2734C48.3293 82.4465 50.2765 85.7833 49.8108 87.4973H49.8105Z" fill="#491FCD"/>
<path d="M46.1491 91.622L46.7292 91.9924C46.8334 91.872 47.0745 91.6294 47.4508 91.5467C47.875 91.4534 48.3619 91.5873 48.3731 91.7225C48.3822 91.8309 48.0856 91.9404 48.0398 91.9572C47.6697 92.0939 47.3951 91.9802 47.2456 92.129C47.1926 92.1815 47.1268 92.2795 46.975 92.3702C46.9351 92.3939 46.8935 92.415 46.8715 92.4236C46.6244 92.5197 46.2008 92.0897 46.1644 92.052L46.1491 91.6217V91.622Z" fill="url(#paint15_linear_1246_18942)"/>
<path d="M47.8626 84.016C48.2822 83.0111 48.5729 81.4724 47.9101 79.1875C43.5433 80.9082 41.3164 84.9873 42.1859 88.2207C42.9026 90.8864 45.5106 92.1847 46.0924 92.458C46.2278 92.1498 46.3633 91.8418 46.4984 91.5338C45.8243 90.7831 45.0645 89.673 45.1719 88.4061C45.321 86.65 47.0129 86.0504 47.8624 84.016H47.8626Z" fill="#6135E9"/>
<path d="M51.2333 76.75C51.2333 76.75 51.1989 77.5138 50.9617 78.0859C50.7476 78.6029 49.6203 78.928 49.3918 79.0433C49.1633 79.1587 49.8199 79.4961 50.4792 79.5623C51.1385 79.6286 53.0211 79.4788 53.3605 79.229C53.7 78.9792 53.0877 78.998 52.6173 78.8252C52.1466 78.6524 51.8745 77.7321 51.9577 77.3145C52.0407 76.8968 51.2333 76.75 51.2333 76.75Z" fill="url(#paint16_linear_1246_18942)"/>
<path d="M52.2762 76.4732C52.6184 76.137 52.6662 76.0979 52.7033 75.9817C52.8529 75.5155 52.4911 74.8768 52.0168 74.7196C51.992 74.7114 51.6739 74.6097 51.5526 74.7476C51.4493 74.8647 51.6011 75.0266 51.5291 75.2526C51.4615 75.4641 51.2783 75.4799 50.9383 75.7572C50.6583 75.9855 50.4845 76.1276 50.4444 76.3274C50.3617 76.7391 50.8601 77.3358 51.3013 77.3197C51.46 77.3137 51.5031 77.2328 52.2762 76.4732Z" fill="url(#paint17_linear_1246_18942)"/>
<path d="M51.3445 77.3872C51.3445 77.3872 51.7082 77.799 52.2621 77.6628C52.758 77.541 52.6314 76.4026 52.2685 76.2209C52.1474 76.1602 51.9273 76.1652 51.7619 76.2449C51.6642 76.2919 51.6369 76.341 51.4757 76.4147C51.3272 76.4828 51.2799 76.4734 51.24 76.5214C51.19 76.5814 51.1685 76.7106 51.3252 77.022C51.2123 76.9421 51.0908 76.9252 51.0162 76.9782C51.0044 76.9866 50.9741 77.0164 50.961 77.0552C50.9137 77.1963 51.0603 77.3394 51.3445 77.3872Z" fill="url(#paint18_linear_1246_18942)"/>
<path d="M92.8205 61.9668L92.9485 62.6578L90.3135 62.664L67.4471 62.7182C66.8589 62.7197 66.3179 63.2059 66.2372 63.8043L60.7786 100.286C60.6973 100.89 61.6372 101.811 62.2219 101.857L72.3665 102.636V102.624L87.5411 103.788H87.5419L87.5785 103.803C88.2264 103.853 88.8209 103.383 88.905 102.745C88.905 102.745 88.905 102.748 88.905 102.748L94.017 63.7974C94.1 63.1653 93.4719 61.9648 92.8203 61.9668H92.8205Z" fill="url(#paint19_linear_1246_18942)"/>
<path d="M88.3881 101.985C88.3044 102.623 87.7102 103.1 87.0623 103.05L61.6795 101.101C61.095 101.056 60.6882 100.53 60.7694 99.9266L65.7316 63.0571C65.8121 62.4587 66.353 61.9724 66.9408 61.9707L92.4669 61.9004C93.1183 61.8987 93.5803 62.4094 93.4976 63.0412L88.3883 101.985H88.3881Z" fill="url(#paint20_linear_1246_18942)"/>
<path d="M88.7252 81.7089C88.6836 82.0248 88.3885 82.2605 88.0662 82.2486L65.7264 81.4334C65.4315 81.4227 65.224 81.1798 65.2646 80.878L65.7038 77.6226C65.7444 77.3211 66.0136 77.1171 66.3087 77.1252L88.668 77.7462C88.9909 77.7551 89.2194 77.9831 89.1781 78.2988L88.7255 81.7087L88.7252 81.7089Z" fill="white"/>
<path d="M87.8603 88.3261C87.8188 88.6426 87.5234 88.9129 87.201 88.8968L64.8781 87.7941C64.5835 87.7795 64.3785 87.4975 64.4191 87.1955L64.8617 83.8772C64.9023 83.5754 65.1739 83.3166 65.4688 83.3285L87.8054 84.2295C88.1277 84.2426 88.3558 84.5342 88.3142 84.8504L87.8603 88.3264V88.3261Z" fill="white"/>
<path style="mix-blend-mode:multiply" opacity="0.1" d="M89.1798 78.2857C89.1268 78.2686 89.0699 78.2592 89.0092 78.2574L66.6493 77.6368C66.3545 77.6283 66.0851 77.8328 66.045 78.1337L65.6051 81.3891C65.6041 81.3975 65.6033 81.4054 65.6026 81.4138C65.3758 81.35 65.23 81.1351 65.2641 80.8776L65.7041 77.6222C65.7442 77.3213 66.0136 77.1166 66.3084 77.1253L88.6683 77.7459C88.9854 77.7554 89.213 77.9762 89.1798 78.2857Z" fill="url(#paint21_linear_1246_18942)"/>
<path style="mix-blend-mode:multiply" opacity="0.1" d="M88.3188 84.772C88.265 84.7507 88.2071 84.7378 88.1457 84.7353L65.8096 83.8342C65.5147 83.8223 65.2426 84.0815 65.2025 84.3833L64.7591 87.7018C64.7566 87.7231 64.7549 87.7437 64.7549 87.765C64.5281 87.6917 64.384 87.4478 64.4182 87.1903L64.8616 83.8718C64.9017 83.57 65.1736 83.3108 65.4687 83.3227L87.8048 84.2238C88.1031 84.2367 88.3197 84.4855 88.3188 84.772Z" fill="url(#paint22_linear_1246_18942)"/>
<path d="M81.9233 93.6825C81.9892 93.1831 81.6361 92.7231 81.1343 92.6941L69.5785 92.0306C69.0999 92.0031 68.658 92.4062 68.5929 92.8924L68.1161 96.4868C68.0509 96.9738 68.383 97.4397 68.8613 97.4724L80.4111 98.2627C80.9127 98.2971 81.3747 97.8735 81.4408 97.3734L81.9233 93.6825Z" fill="url(#paint23_linear_1246_18942)"/>
<path d="M82.7961 69.4682C82.6438 70.6172 82.0536 71.6543 81.2143 72.4171C80.3099 73.2398 79.1185 73.7404 77.8796 73.7164C76.6469 73.6927 75.6093 73.1542 74.9431 72.3131C74.3286 71.538 74.0276 70.5051 74.1783 69.3754C74.492 67.0251 76.6514 65.1252 79.021 65.1309C81.4128 65.1366 83.1122 67.0781 82.7958 69.4685L82.7961 69.4682Z" fill="url(#paint24_linear_1246_18942)"/>
<path d="M80.4917 68.1632C80.355 69.1927 79.4048 70.0176 78.3732 70.0052C77.3457 69.9928 76.6262 69.1543 76.7622 68.1323C76.8983 67.1105 77.8389 66.2863 78.8668 66.291C79.899 66.2957 80.6281 67.1338 80.4914 68.1632H80.4917Z" fill="white"/>
<path d="M81.2143 72.4184C80.3099 73.2411 79.1186 73.7417 77.8797 73.7177C76.647 73.6939 75.6094 73.1555 74.9431 72.3144C75.7057 71.2521 76.9634 70.5455 78.2991 70.5628C79.6419 70.5804 80.7244 71.3244 81.2143 72.4184Z" fill="white"/>
<g style="mix-blend-mode:soft-light" opacity="0.4">
<path d="M93.4973 63.0412L88.388 101.985C88.3043 102.623 87.6723 103.097 87.0246 103.047L71.7794 101.877C71.0553 101.135 70.4588 100.245 70.0333 99.1774C69.8243 98.6538 69.6713 98.0888 69.5695 97.4946C69.2866 95.8502 69.3962 93.981 69.809 92.1462C70.1263 90.7337 70.624 89.3393 71.261 88.0812C71.7705 87.0752 72.3697 86.1555 73.0389 85.3825C73.5207 84.8262 74.0418 84.2858 74.5914 83.7557C75.2542 83.1159 75.9586 82.4916 76.6852 81.8729C78.3784 80.4302 80.1914 79.0198 81.87 77.5303C85.7431 74.0944 88.8854 70.2552 88.1293 64.7773C88.1051 64.6047 87.8691 63.2834 87.5676 61.9138L92.429 61.9004C93.0802 61.8987 93.5803 62.4094 93.4973 63.041V63.0412Z" fill="white"/>
</g>
<path d="M88.1367 56.2313C89.418 56.3306 90.4212 57.3338 90.5206 58.6151L90.6298 60.0852H90.7886L90.898 58.6151C90.9973 57.3338 92.0004 56.3306 93.2817 56.2313L94.7517 56.1221V55.9631L93.2817 55.8539C92.0004 55.7545 90.9973 54.7513 90.898 53.47L90.7886 52H90.6298L90.5206 53.47C90.4212 54.7513 89.418 55.7545 88.1367 55.8539L86.6667 55.9631V56.1221L88.1367 56.2313Z" fill="white"/>
<path d="M54.0286 104.702C54.6246 104.752 55.0914 105.219 55.141 105.815L55.1908 106.51H55.3199L55.3696 105.815C55.4193 105.219 55.8861 104.752 56.482 104.702L57.1773 104.653V104.523L56.482 104.474C55.8861 104.424 55.4193 103.957 55.3696 103.361L55.3199 102.666H55.1908L55.141 103.361C55.0914 103.957 54.6246 104.424 54.0286 104.474L53.3334 104.523V104.653L54.0286 104.702Z" fill="white"/>
<path d="M39.8863 103.523C40.9161 103.604 41.729 104.417 41.8103 105.447L41.8917 106.667H42.1084L42.1897 105.447C42.271 104.417 43.0839 103.604 44.1137 103.523L45.3333 103.442V103.225L44.1137 103.144C43.0839 103.062 42.271 102.249 42.1897 101.22L42.1084 100H41.8917L41.8103 101.22C41.729 102.249 40.9161 103.062 39.8863 103.144L38.6667 103.225V103.442L39.8863 103.523Z" fill="white"/>
<path d="M96.5913 40.5421C99.4419 40.3236 101.657 38.0986 101.876 35.2579L102.124 32H102.481L102.73 35.2579C102.948 38.1086 105.173 40.3236 108.014 40.5421L111.272 40.7904V41.148L108.014 41.3963C105.163 41.6148 102.948 43.8397 102.73 46.6804L102.481 49.9383H102.124L101.876 46.6804C101.657 43.8298 99.432 41.6148 96.5913 41.3963L93.3333 41.148V40.7904L96.5913 40.5421Z" fill="white"/>
<defs>
<linearGradient id="paint0_linear_1246_18942" x1="128.652" y1="53.5801" x2="35.3477" y2="113.089" gradientUnits="userSpaceOnUse">
<stop stop-color="#882AFF"/>
<stop offset="1" stop-color="#6255FF"/>
</linearGradient>
<linearGradient id="paint1_linear_1246_18942" x1="109.667" y1="35.4147" x2="54.3333" y2="131.255" gradientUnits="userSpaceOnUse">
<stop stop-color="#882AFF"/>
<stop offset="1" stop-color="#6255FF"/>
</linearGradient>
<linearGradient id="paint2_linear_1246_18942" x1="90.6672" y1="101.361" x2="107.764" y2="101.361" gradientUnits="userSpaceOnUse">
<stop stop-color="#F485C0"/>
<stop offset="0.31" stop-color="#EF82BB"/>
<stop offset="0.67" stop-color="#E47AAC"/>
<stop offset="1" stop-color="#D47099"/>
</linearGradient>
<linearGradient id="paint3_linear_1246_18942" x1="103.357" y1="103.904" x2="114.667" y2="103.904" gradientUnits="userSpaceOnUse">
<stop stop-color="#4771AF"/>
<stop offset="1" stop-color="#375788"/>
</linearGradient>
<linearGradient id="paint4_linear_1246_18942" x1="82.1036" y1="82.094" x2="92.4569" y2="83.2234" gradientUnits="userSpaceOnUse">
<stop stop-color="#444B8C"/>
<stop offset="1" stop-color="#26264F"/>
</linearGradient>
<linearGradient id="paint5_linear_1246_18942" x1="72.9814" y1="55.9942" x2="98.5821" y2="143.15" gradientUnits="userSpaceOnUse">
<stop stop-color="#444B8C"/>
<stop offset="1" stop-color="#26264F"/>
</linearGradient>
<linearGradient id="paint6_linear_1246_18942" x1="82.5745" y1="53.8513" x2="112.662" y2="135.339" gradientUnits="userSpaceOnUse">
<stop stop-color="#FFC444"/>
<stop offset="1" stop-color="#F36F56"/>
</linearGradient>
<linearGradient id="paint7_linear_1246_18942" x1="63.083" y1="79.5063" x2="59.8149" y2="82.8328" gradientUnits="userSpaceOnUse">
<stop stop-color="#FFC444"/>
<stop offset="1" stop-color="#F36F56"/>
</linearGradient>
<linearGradient id="paint8_linear_1246_18942" x1="54.9825" y1="111.104" x2="55.01" y2="103.725" gradientUnits="userSpaceOnUse">
<stop stop-color="#AA80F9"/>
<stop offset="1" stop-color="#6165D7"/>
</linearGradient>
<linearGradient id="paint9_linear_1246_18942" x1="54.2477" y1="113.479" x2="53.8965" y2="109.665" gradientUnits="userSpaceOnUse">
<stop stop-color="#FFC444"/>
<stop offset="1" stop-color="#F36F56"/>
</linearGradient>
<linearGradient id="paint10_linear_1246_18942" x1="50.6318" y1="111.09" x2="50.6592" y2="103.71" gradientUnits="userSpaceOnUse">
<stop stop-color="#AA80F9"/>
<stop offset="1" stop-color="#6165D7"/>
</linearGradient>
<linearGradient id="paint11_linear_1246_18942" x1="49.8385" y1="113.887" x2="49.4873" y2="110.073" gradientUnits="userSpaceOnUse">
<stop stop-color="#FFC444"/>
<stop offset="1" stop-color="#F36F56"/>
</linearGradient>
<linearGradient id="paint12_linear_1246_18942" x1="54.1182" y1="94.2614" x2="51.4131" y2="108.09" gradientUnits="userSpaceOnUse">
<stop stop-color="#311944"/>
<stop offset="1" stop-color="#893976"/>
</linearGradient>
<linearGradient id="paint13_linear_1246_18942" x1="55.4649" y1="101.028" x2="51.4011" y2="101.354" gradientUnits="userSpaceOnUse">
<stop stop-color="#311944"/>
<stop offset="1" stop-color="#893976"/>
</linearGradient>
<linearGradient id="paint14_linear_1246_18942" x1="53.2171" y1="101.791" x2="47.0478" y2="102.285" gradientUnits="userSpaceOnUse">
<stop stop-color="#311944"/>
<stop offset="1" stop-color="#893976"/>
</linearGradient>
<linearGradient id="paint15_linear_1246_18942" x1="45.1994" y1="89.0833" x2="47.769" y2="92.5546" gradientUnits="userSpaceOnUse">
<stop stop-color="#FFC444"/>
<stop offset="1" stop-color="#F36F56"/>
</linearGradient>
<linearGradient id="paint16_linear_1246_18942" x1="52.4867" y1="80.4302" x2="50.013" y2="77.3525" gradientUnits="userSpaceOnUse">
<stop stop-color="#FFC444"/>
<stop offset="1" stop-color="#F36F56"/>
</linearGradient>
<linearGradient id="paint17_linear_1246_18942" x1="50.6138" y1="79.3077" x2="51.9252" y2="74.9945" gradientUnits="userSpaceOnUse">
<stop stop-color="#444B8C"/>
<stop offset="1" stop-color="#3E4177"/>
</linearGradient>
<linearGradient id="paint18_linear_1246_18942" x1="53.9492" y1="77.7988" x2="50.2614" y2="76.1575" gradientUnits="userSpaceOnUse">
<stop stop-color="#FFC444"/>
<stop offset="1" stop-color="#F36F56"/>
</linearGradient>
<linearGradient id="paint19_linear_1246_18942" x1="60.7736" y1="82.887" x2="94.025" y2="82.887" gradientUnits="userSpaceOnUse">
<stop stop-color="#311944"/>
<stop offset="1" stop-color="#893976"/>
</linearGradient>
<linearGradient id="paint20_linear_1246_18942" x1="80.9894" y1="148.285" x2="77.0244" y2="79.6082" gradientUnits="userSpaceOnUse">
<stop stop-color="#F36F56"/>
<stop offset="1" stop-color="#FFC444"/>
</linearGradient>
<linearGradient id="paint21_linear_1246_18942" x1="65.2592" y1="79.2695" x2="89.183" y2="79.2695" gradientUnits="userSpaceOnUse">
<stop stop-color="#F36F56"/>
<stop offset="1" stop-color="#FFC444"/>
</linearGradient>
<linearGradient id="paint22_linear_1246_18942" x1="64.4135" y1="85.5437" x2="88.3188" y2="85.5437" gradientUnits="userSpaceOnUse">
<stop stop-color="#F36F56"/>
<stop offset="1" stop-color="#FFC444"/>
</linearGradient>
<linearGradient id="paint23_linear_1246_18942" x1="76.1634" y1="87.8611" x2="70.8196" y2="121.75" gradientUnits="userSpaceOnUse">
<stop stop-color="#F36F56"/>
<stop offset="1" stop-color="#FFC444"/>
</linearGradient>
<linearGradient id="paint24_linear_1246_18942" x1="77.9215" y1="52.5796" x2="79.0626" y2="86.5643" gradientUnits="userSpaceOnUse">
<stop stop-color="#F36F56"/>
<stop offset="1" stop-color="#FFC444"/>
</linearGradient>
</defs>
</svg>
