<svg width="387" height="142" viewBox="0 0 387 142" fill="none" xmlns="http://www.w3.org/2000/svg">
<path d="M1 8C1 3.58172 4.58172 0 9 0H378C382.418 0 386 3.58172 386 8V140H1V8Z" fill="#D7C8FE"/>
<g opacity="0.5">
<g style="mix-blend-mode:multiply">
<path d="M112.01 104.901C112.067 104.726 112.118 104.548 112.156 104.372C112.2 104.179 112.244 103.986 112.276 103.789C112.309 103.572 112.339 103.347 112.36 103.126C112.38 102.872 112.389 102.614 112.384 102.357C112.383 102.037 112.357 101.713 112.309 101.395C112.233 100.865 112.109 100.343 111.924 99.8247C111.806 99.5009 111.669 99.1766 111.508 98.8634C111.347 98.5501 111.162 98.2479 110.971 97.963L110.829 97.6891L110.79 97.7075L110.5 97.8573L110.168 98.0312L109.837 98.2051L109.505 98.379L109.174 98.553L108.842 98.7269L108.505 98.8987L108.174 99.0726L107.836 99.2445L107.505 99.4184L107.168 99.5902L106.836 99.7641L106.505 99.9381L106.173 100.112L105.836 100.284L105.505 100.458L105.173 100.632L104.836 100.803L104.505 100.977L104.167 101.149L103.836 101.323L103.504 101.497L103.173 101.671L102.836 101.843L102.504 102.017L102.167 102.189L101.836 102.362L101.504 102.536L101.173 102.71L100.835 102.882L100.504 103.056L100.173 103.23L99.8353 103.402L99.5038 103.576L99.1724 103.75L98.8351 103.922L98.5037 104.095L98.1722 104.269L97.8408 104.443L97.5093 104.617L97.1778 104.791L96.8879 104.941L96.8464 104.965L96.989 105.239C97.1069 105.563 97.2442 105.887 97.4051 106.2C97.5661 106.513 97.745 106.814 97.9416 107.101C98.2545 107.554 98.6094 107.964 98.9927 108.331C99.2261 108.553 99.4774 108.762 99.735 108.953C99.9411 109.107 100.157 109.25 100.377 109.382C100.565 109.496 100.763 109.6 100.962 109.699C101.139 109.789 101.326 109.87 101.508 109.943C101.68 110.011 101.855 110.068 102.023 110.129C102.187 110.182 102.353 110.229 102.521 110.271C102.678 110.308 102.834 110.345 102.993 110.376C103.146 110.406 103.301 110.429 103.45 110.451C103.6 110.472 103.745 110.486 103.893 110.494C104.038 110.507 104.18 110.513 104.324 110.513C104.46 110.516 104.604 110.516 104.744 110.508C104.877 110.504 105.017 110.496 105.154 110.48C105.288 110.47 105.419 110.452 105.55 110.434C105.681 110.416 105.806 110.396 105.939 110.373C106.066 110.347 106.193 110.321 106.316 110.287C106.438 110.26 106.561 110.226 106.687 110.186C106.81 110.153 106.93 110.111 107.05 110.07C107.17 110.028 107.284 109.985 107.405 109.937C107.519 109.894 107.636 109.844 107.754 109.789C107.864 109.738 107.982 109.682 108.095 109.625C108.207 109.568 108.314 109.508 108.422 109.443C108.531 109.378 108.638 109.319 108.743 109.246C108.852 109.181 108.957 109.108 109.054 109.038C109.159 108.965 109.258 108.89 109.359 108.809C109.461 108.728 109.562 108.647 109.658 108.564C109.753 108.481 109.851 108.393 109.943 108.302C110.041 108.213 110.135 108.116 110.221 108.024C110.315 107.927 110.403 107.828 110.491 107.729C110.582 107.625 110.666 107.518 110.751 107.412C110.837 107.299 110.918 107.185 110.999 107.07C111.082 106.95 111.159 106.828 111.234 106.711C111.313 106.583 111.387 106.453 111.455 106.321C111.53 106.185 111.6 106.047 111.664 105.906C111.73 105.76 111.798 105.609 111.859 105.461C111.917 105.299 111.976 105.137 112.035 104.976L112.01 104.901Z" fill="#A249FB"/>
</g>
<path d="M103.889 94.2438C108.268 94.0214 112.002 97.3946 112.219 101.767C112.442 106.142 109.065 109.871 104.687 110.088C100.308 110.31 96.5742 106.937 96.3572 102.565C96.1345 98.1901 99.5115 94.4605 103.889 94.2438Z" fill="url(#paint0_linear_786_14628)"/>
<path d="M110.233 99.1127C111.918 102.397 110.625 106.424 107.337 108.108C104.049 109.792 100.017 108.5 98.3318 105.215C96.6464 101.931 97.9398 97.9038 101.228 96.2202C104.515 94.5366 108.547 95.8286 110.233 99.1127Z" fill="url(#paint1_linear_786_14628)"/>
<path d="M106.796 101.657C106.529 101.436 106.269 101.29 106.015 101.23C105.758 101.163 105.32 101.109 104.687 101.069C103.941 101.014 103.484 100.96 103.308 100.902C103.127 100.843 102.962 100.666 102.808 100.368C102.716 100.191 102.679 100.04 102.69 99.9203C102.701 99.8001 102.766 99.7124 102.88 99.6493C103.024 99.5773 103.149 99.5767 103.244 99.657C103.339 99.7372 103.473 99.9429 103.645 100.28L103.71 100.408L103.614 100.458L103.806 100.593L105.704 99.6209C105.634 99.4519 105.579 99.3339 105.536 99.2531C105.25 98.6916 104.878 98.3281 104.421 98.1625C103.965 97.9969 103.425 98.0235 102.806 98.2501L102.495 97.6472L102.302 97.5119L102.399 97.6971L101.62 98.0944L101.931 98.6972C101.327 99.0991 100.947 99.5497 100.79 100.035C100.633 100.521 100.703 101.049 100.995 101.613C101.193 102.005 101.453 102.315 101.763 102.545C102.072 102.774 102.377 102.924 102.675 102.987C102.973 103.049 103.498 103.115 104.267 103.178C104.725 103.214 105.03 103.311 105.184 103.465C105.337 103.618 105.52 103.907 105.739 104.333C105.828 104.502 105.861 104.645 105.844 104.763C105.827 104.881 105.755 104.972 105.627 105.037C105.475 105.113 105.349 105.1 105.248 104.998C105.148 104.896 104.965 104.588 104.699 104.08L104.584 103.855L104.462 103.615L104.269 103.479L104.365 103.665L102.565 104.587L102.757 104.957C103.19 105.801 103.685 106.294 104.239 106.442C104.796 106.585 105.337 106.553 105.87 106.347L106.155 106.895L106.059 106.945L106.251 107.08L107.127 106.633L106.759 105.918C107.365 105.491 107.732 105.003 107.86 104.455C107.987 103.906 107.877 103.291 107.527 102.615C107.309 102.19 107.064 101.872 106.804 101.654L106.796 101.657Z" fill="#B061FE"/>
<path d="M105.511 99.4845L103.613 100.457L103.452 100.143C103.28 99.8065 103.146 99.6008 103.051 99.5206C102.955 99.4403 102.831 99.4409 102.687 99.5129C102.575 99.5702 102.508 99.6637 102.493 99.776C102.482 99.8962 102.521 100.041 102.612 100.224C102.765 100.522 102.93 100.699 103.111 100.758C103.285 100.821 103.75 100.872 104.49 100.925C105.121 100.971 105.567 101.021 105.819 101.086C106.075 101.153 106.333 101.292 106.599 101.513C106.866 101.734 107.108 102.057 107.323 102.475C107.672 103.15 107.783 103.766 107.655 104.314C107.526 104.868 107.159 105.356 106.554 105.778L106.923 106.493L106.047 106.94L105.668 106.201C105.133 106.412 104.591 106.445 104.037 106.296C103.482 106.147 102.987 105.654 102.555 104.811L102.362 104.441L104.259 103.468L104.496 103.933C104.757 104.44 104.939 104.748 105.046 104.851C105.146 104.953 105.272 104.966 105.424 104.891C105.552 104.826 105.625 104.735 105.641 104.617C105.658 104.498 105.625 104.356 105.536 104.186C105.318 103.761 105.129 103.47 104.975 103.316C104.822 103.163 104.515 103.071 104.059 103.03C103.29 102.967 102.765 102.9 102.467 102.838C102.169 102.776 101.871 102.622 101.554 102.396C101.245 102.166 100.987 101.851 100.787 101.464C100.495 100.901 100.425 100.372 100.582 99.8868C100.739 99.4012 101.116 98.9564 101.722 98.5488L101.411 97.9459L102.287 97.4987L102.598 98.1016C103.223 97.8771 103.762 97.8506 104.219 98.0162C104.676 98.1817 105.045 98.5511 105.334 99.1067C105.371 99.1854 105.432 99.3056 105.501 99.4745L105.511 99.4845Z" fill="white"/>
<g style="mix-blend-mode:screen" opacity="0.7">
<path style="mix-blend-mode:screen" d="M102.623 98.1049L102.629 98.107C103.169 97.9172 103.645 97.8676 104.059 97.9719C103.645 97.8676 103.165 97.9094 102.617 98.1029L102.623 98.1049Z" fill="url(#paint2_linear_786_14628)"/>
<path style="mix-blend-mode:screen" d="M102.945 99.471C102.98 99.4836 103.014 99.4962 103.043 99.5261C103.138 99.6063 103.273 99.812 103.445 100.149L103.606 100.462L103.61 100.451L103.464 100.149C103.292 99.8125 103.157 99.6068 103.062 99.5266C103.026 99.5004 102.988 99.4799 102.951 99.4731L102.945 99.471Z" fill="url(#paint3_linear_786_14628)"/>
<path style="mix-blend-mode:screen" d="M105.674 104.637C105.691 104.519 105.658 104.376 105.569 104.207C105.35 103.781 105.162 103.491 105.014 103.339C104.923 103.247 104.773 103.173 104.568 103.125C104.765 103.177 104.903 103.247 104.996 103.333C105.15 103.487 105.339 103.777 105.557 104.203C105.646 104.372 105.679 104.515 105.662 104.633C105.646 104.751 105.573 104.843 105.445 104.907C105.358 104.948 105.28 104.965 105.212 104.954C105.287 104.981 105.374 104.96 105.462 104.914C105.591 104.849 105.663 104.757 105.68 104.639L105.674 104.637Z" fill="url(#paint4_linear_786_14628)"/>
<path style="mix-blend-mode:screen" d="M105.825 101.089C105.568 101.022 105.129 100.968 104.496 100.928C103.84 100.88 103.399 100.831 103.189 100.781C103.397 100.837 103.838 100.885 104.513 100.934C105.133 100.976 105.571 101.03 105.83 101.091L105.825 101.089Z" fill="url(#paint5_linear_786_14628)"/>
<path style="mix-blend-mode:screen" d="M105.689 106.217L105.677 106.213L106.051 106.95L106.055 106.938L105.689 106.217Z" fill="url(#paint6_linear_786_14628)"/>
<path style="mix-blend-mode:screen" d="M104.061 106.319C103.507 106.17 103.012 105.677 102.579 104.834L102.387 104.463L104.271 103.493L104.265 103.491L102.369 104.457L102.562 104.828C102.995 105.671 103.49 106.164 104.044 106.313C104.062 106.319 104.079 106.325 104.096 106.331C104.085 106.327 104.073 106.323 104.061 106.319Z" fill="url(#paint7_linear_786_14628)"/>
<path style="mix-blend-mode:screen" d="M102.44 102.843C102.163 102.776 101.883 102.628 101.593 102.419C101.284 102.189 101.026 101.873 100.826 101.487C100.533 100.923 100.464 100.395 100.62 99.9093C100.777 99.4237 101.155 98.979 101.761 98.5713L101.45 97.9684L102.31 97.5286L102.304 97.5265L101.431 97.9679L101.741 98.5708C101.137 98.9727 100.758 99.4232 100.601 99.9088C100.444 100.394 100.514 100.923 100.806 101.486C101.004 101.878 101.264 102.188 101.573 102.418C101.867 102.636 102.155 102.779 102.438 102.849L102.44 102.843Z" fill="url(#paint8_linear_786_14628)"/>
</g>
</g>
<g style="mix-blend-mode:multiply">
<path d="M341.735 114.642C341.863 114.672 341.992 114.698 342.119 114.714C342.259 114.733 342.399 114.752 342.541 114.763C342.696 114.774 342.858 114.781 343.016 114.782C343.197 114.781 343.381 114.772 343.563 114.752C343.791 114.732 344.019 114.693 344.241 114.64C344.613 114.554 344.976 114.434 345.333 114.271C345.555 114.167 345.777 114.05 345.989 113.916C346.202 113.783 346.405 113.634 346.596 113.481L346.781 113.363L346.766 113.336L346.642 113.139L346.498 112.915L346.354 112.69L346.211 112.465L346.067 112.241L345.923 112.016L345.781 111.787L345.637 111.563L345.494 111.334L345.351 111.109L345.208 110.88L345.064 110.656L344.92 110.431L344.777 110.207L344.634 109.978L344.49 109.753L344.347 109.528L344.204 109.3L344.06 109.075L343.918 108.846L343.774 108.622L343.63 108.397L343.486 108.172L343.344 107.943L343.2 107.719L343.058 107.49L342.914 107.265L342.77 107.041L342.626 106.816L342.484 106.587L342.34 106.363L342.196 106.138L342.054 105.909L341.91 105.685L341.766 105.46L341.624 105.231L341.48 105.007L341.336 104.782L341.192 104.557L341.049 104.333L340.905 104.108L340.781 103.912L340.761 103.884L340.575 104.002C340.353 104.105 340.131 104.222 339.919 104.356C339.706 104.489 339.504 104.635 339.312 104.792C339.01 105.042 338.741 105.318 338.503 105.613C338.36 105.792 338.227 105.983 338.107 106.178C338.011 106.334 337.922 106.496 337.842 106.66C337.773 106.8 337.711 106.947 337.653 107.095C337.6 107.226 337.554 107.363 337.513 107.497C337.475 107.623 337.445 107.751 337.413 107.874C337.385 107.993 337.362 108.114 337.343 108.236C337.326 108.35 337.309 108.463 337.297 108.578C337.285 108.688 337.278 108.799 337.272 108.907C337.266 109.014 337.265 109.118 337.269 109.223C337.268 109.327 337.272 109.429 337.281 109.531C337.287 109.627 337.296 109.73 337.31 109.829C337.321 109.922 337.336 110.022 337.355 110.118C337.371 110.212 337.391 110.304 337.412 110.396C337.433 110.488 337.455 110.575 337.48 110.668C337.506 110.757 337.532 110.845 337.563 110.931C337.59 111.015 337.622 111.101 337.658 111.188C337.689 111.273 337.726 111.356 337.763 111.438C337.799 111.521 337.837 111.599 337.878 111.683C337.916 111.761 337.959 111.84 338.005 111.921C338.048 111.996 338.095 112.076 338.142 112.153C338.19 112.229 338.238 112.301 338.291 112.374C338.344 112.447 338.393 112.519 338.451 112.589C338.504 112.663 338.562 112.733 338.617 112.797C338.676 112.868 338.735 112.933 338.799 113C338.862 113.067 338.926 113.134 338.991 113.197C339.055 113.26 339.124 113.324 339.194 113.383C339.263 113.447 339.338 113.508 339.409 113.564C339.483 113.624 339.559 113.681 339.634 113.738C339.714 113.795 339.795 113.849 339.876 113.902C339.961 113.957 340.047 114.007 340.133 114.058C340.224 114.109 340.315 114.156 340.402 114.203C340.498 114.251 340.595 114.295 340.693 114.335C340.794 114.38 340.897 114.421 341 114.458C341.108 114.496 341.22 114.535 341.328 114.569C341.447 114.601 341.565 114.633 341.683 114.665L341.735 114.642Z" fill="#A249FB"/>
</g>
<path d="M348.801 108.224C349.227 111.319 347.062 114.176 343.971 114.597C340.88 115.023 338.026 112.855 337.604 109.761C337.178 106.666 339.344 103.809 342.434 103.388C345.526 102.962 348.38 105.131 348.801 108.224Z" fill="url(#paint9_linear_786_14628)"/>
<path d="M345.734 113.025C343.506 114.422 340.568 113.751 339.172 111.52C337.775 109.29 338.446 106.349 340.674 104.951C342.901 103.554 345.839 104.226 347.235 106.456C348.632 108.687 347.961 111.627 345.734 113.025Z" fill="url(#paint10_linear_786_14628)"/>
<path d="M343.718 110.742C343.858 110.539 343.947 110.345 343.973 110.162C344.005 109.975 344.017 109.661 344.006 109.209C344 108.677 344.01 108.348 344.04 108.22C344.071 108.088 344.187 107.96 344.389 107.833C344.509 107.757 344.614 107.721 344.7 107.722C344.786 107.722 344.852 107.762 344.903 107.84C344.963 107.938 344.971 108.026 344.92 108.098C344.869 108.171 344.731 108.279 344.503 108.422L344.416 108.476L344.375 108.41L344.29 108.555L345.097 109.842C345.212 109.783 345.293 109.736 345.347 109.701C345.728 109.463 345.964 109.177 346.053 108.843C346.143 108.509 346.091 108.127 345.892 107.702L346.301 107.444L346.385 107.299L346.26 107.379L345.93 106.85L345.521 107.108C345.199 106.704 344.856 106.462 344.502 106.38C344.147 106.298 343.776 106.38 343.394 106.622C343.128 106.787 342.924 106.99 342.78 107.224C342.636 107.457 342.548 107.683 342.522 107.899C342.496 108.114 342.481 108.491 342.484 109.04C342.487 109.368 342.436 109.59 342.336 109.709C342.237 109.827 342.043 109.975 341.754 110.156C341.64 110.229 341.54 110.261 341.455 110.257C341.371 110.252 341.301 110.206 341.248 110.119C341.185 110.016 341.186 109.926 341.252 109.848C341.318 109.771 341.526 109.622 341.87 109.402L342.023 109.307L342.186 109.205L342.27 109.06L342.144 109.14L341.38 107.918L341.128 108.077C340.556 108.436 340.237 108.818 340.165 109.22C340.098 109.624 340.154 110.007 340.332 110.372L339.961 110.608L339.92 110.542L339.835 110.688L340.206 111.282L340.691 110.977C341.032 111.381 341.4 111.612 341.798 111.669C342.195 111.725 342.625 111.61 343.083 111.32C343.371 111.139 343.582 110.946 343.721 110.747L343.718 110.742Z" fill="#B061FE"/>
<path d="M345.18 109.698L344.374 108.41L344.587 108.277C344.815 108.134 344.953 108.026 345.004 107.954C345.055 107.881 345.047 107.793 344.987 107.695C344.94 107.619 344.869 107.577 344.789 107.574C344.703 107.573 344.602 107.61 344.478 107.685C344.276 107.813 344.16 107.94 344.13 108.073C344.096 108.199 344.088 108.533 344.096 109.061C344.102 109.512 344.093 109.832 344.062 110.014C344.031 110.201 343.948 110.392 343.807 110.594C343.667 110.797 343.452 110.989 343.169 111.167C342.711 111.456 342.281 111.572 341.884 111.515C341.482 111.457 341.114 111.227 340.778 110.824L340.293 111.129L339.922 110.535L340.423 110.22C340.24 109.853 340.184 109.471 340.256 109.068C340.327 108.666 340.647 108.284 341.219 107.925L341.47 107.766L342.276 109.053L341.961 109.25C341.617 109.466 341.41 109.614 341.343 109.696C341.277 109.774 341.275 109.864 341.338 109.967C341.392 110.054 341.461 110.1 341.546 110.105C341.631 110.109 341.73 110.077 341.845 110.003C342.133 109.822 342.328 109.671 342.428 109.552C342.528 109.434 342.574 109.21 342.575 108.884C342.573 108.335 342.588 107.958 342.614 107.742C342.64 107.527 342.731 107.306 342.872 107.068C343.016 106.834 343.224 106.632 343.486 106.466C343.868 106.224 344.239 106.142 344.593 106.224C344.947 106.305 345.286 106.546 345.613 106.951L346.022 106.694L346.393 107.288L345.984 107.546C346.181 107.975 346.233 108.356 346.144 108.691C346.054 109.025 345.814 109.31 345.438 109.549C345.384 109.58 345.303 109.631 345.187 109.69L345.18 109.698Z" fill="white"/>
<g style="mix-blend-mode:screen" opacity="0.7">
<path style="mix-blend-mode:screen" d="M345.983 107.561L345.982 107.565C346.15 107.936 346.214 108.271 346.165 108.571C346.214 108.271 346.155 107.933 345.984 107.556L345.983 107.561Z" fill="url(#paint11_linear_786_14628)"/>
<path style="mix-blend-mode:screen" d="M345.034 107.873C345.027 107.898 345.021 107.923 345.001 107.945C344.95 108.018 344.812 108.126 344.584 108.269L344.371 108.402L344.38 108.404L344.585 108.283C344.813 108.14 344.951 108.032 345.002 107.959C345.018 107.932 345.031 107.903 345.033 107.877L345.034 107.873Z" fill="url(#paint12_linear_786_14628)"/>
<path style="mix-blend-mode:screen" d="M341.535 110.126C341.619 110.13 341.719 110.098 341.834 110.024C342.122 109.843 342.317 109.692 342.415 109.577C342.475 109.507 342.518 109.396 342.54 109.248C342.515 109.391 342.474 109.493 342.419 109.565C342.319 109.683 342.124 109.835 341.836 110.016C341.721 110.089 341.622 110.122 341.537 110.117C341.452 110.112 341.383 110.067 341.329 109.98C341.295 109.921 341.278 109.866 341.282 109.817C341.267 109.872 341.287 109.932 341.326 109.992C341.379 110.079 341.449 110.125 341.533 110.13L341.535 110.126Z" fill="url(#paint13_linear_786_14628)"/>
<path style="mix-blend-mode:screen" d="M344.061 110.016C344.093 109.829 344.105 109.515 344.094 109.063C344.089 108.594 344.096 108.278 344.119 108.126C344.092 108.277 344.084 108.593 344.091 109.075C344.099 109.518 344.088 109.832 344.06 110.02L344.061 110.016Z" fill="url(#paint14_linear_786_14628)"/>
<path style="mix-blend-mode:screen" d="M340.414 110.233L340.417 110.225L339.916 110.535L339.925 110.537L340.414 110.233Z" fill="url(#paint15_linear_786_14628)"/>
<path style="mix-blend-mode:screen" d="M340.241 109.084C340.313 108.682 340.633 108.3 341.205 107.941L341.456 107.782L342.26 109.06L342.261 109.055L341.459 107.769L341.208 107.929C340.636 108.287 340.316 108.669 340.245 109.071C340.241 109.084 340.238 109.097 340.234 109.11C340.237 109.101 340.239 109.093 340.241 109.084Z" fill="url(#paint16_linear_786_14628)"/>
<path style="mix-blend-mode:screen" d="M342.61 107.72C342.641 107.52 342.728 107.312 342.859 107.093C343.003 106.86 343.212 106.657 343.474 106.491C343.856 106.249 344.227 106.168 344.581 106.249C344.935 106.331 345.274 106.571 345.6 106.977L346.009 106.719L346.374 107.303L346.375 107.298L346.008 106.705L345.6 106.963C345.277 106.559 344.934 106.317 344.58 106.235C344.226 106.154 343.855 106.236 343.473 106.478C343.207 106.642 343.003 106.846 342.858 107.079C342.722 107.301 342.638 107.514 342.605 107.719L342.61 107.72Z" fill="url(#paint17_linear_786_14628)"/>
</g>
<path d="M1 130.999C1 130.999 84 41.3953 199.257 86.9494C293 124 386 69.5 386 69.5" stroke="#E6DCFF"/>
<path d="M1 137C1 137 84 23.8953 199.257 69.4494C293 106.5 386 52 386 52" stroke="#E6DCFF"/>
<path d="M1.5 141C1.5 141 81 10.8108 198 53.5C309 94 386.5 24 386.5 24" stroke="#E6DCFF"/>
<path d="M64.9996 82C77.7021 82 87.9998 71.7025 87.9998 58.9999C87.9998 46.2974 77.7021 36 64.9996 36C52.2971 36 42 46.2974 42 58.9999C42 71.7025 52.2971 82 64.9996 82Z" fill="url(#paint18_radial_786_14628)" style="mix-blend-mode:luminosity"/>
<path fill-rule="evenodd" clip-rule="evenodd" d="M386 53.3334V85.9999C384.923 86.2185 383.808 86.3333 382.666 86.3333C373.462 86.3333 366 78.8713 366 69.6666C366 60.4619 373.462 53 382.666 53C383.808 53 384.923 53.1148 386 53.3334Z" fill="url(#paint19_radial_786_14628)" style="mix-blend-mode:luminosity"/>
<g filter="url(#filter0_f_786_14628)">
<path d="M25.4568 41.9138C30.1274 41.9138 33.9138 38.1275 33.9138 33.4569C33.9138 28.7863 30.1274 25 25.4568 25C20.7861 25 17 28.7863 17 33.4569C17 38.1275 20.7861 41.9138 25.4568 41.9138Z" fill="url(#paint20_radial_786_14628)" style="mix-blend-mode:luminosity"/>
</g>
<g filter="url(#filter1_f_786_14628)">
<path d="M314.5 68C319.747 68 324 63.7467 324 58.5C324 53.2533 319.747 49 314.5 49C309.253 49 305 53.2533 305 58.5C305 63.7467 309.253 68 314.5 68Z" fill="url(#paint21_radial_786_14628)" style="mix-blend-mode:luminosity"/>
</g>
<path d="M151.5 87C157.299 87 162 82.299 162 76.5C162 70.701 157.299 66 151.5 66C145.701 66 141 70.701 141 76.5C141 82.299 145.701 87 151.5 87Z" fill="url(#paint22_radial_786_14628)" style="mix-blend-mode:luminosity"/>
<path d="M281.15 117.232C283.639 117.425 285.588 119.371 285.781 121.858L285.993 124.71H286.301L286.514 121.858C286.707 119.371 288.655 117.425 291.144 117.232L294 117.02V116.712L291.144 116.5C288.655 116.307 286.707 114.36 286.514 111.874L286.301 109.021H285.993L285.781 111.874C285.588 114.36 283.639 116.307 281.15 116.5L278.294 116.712V117.02L281.15 117.232Z" fill="white"/>
<path d="M262.708 20.0689C264.193 20.1846 265.351 21.341 265.467 22.825L265.602 24.5596H265.911L266.046 22.825C266.162 21.341 267.319 20.1846 268.805 20.0689L270.542 19.934V19.6256L268.805 19.4907C267.319 19.3751 266.162 18.2187 266.046 16.7346L265.911 15H265.602L265.467 16.7346C265.351 18.2187 264.193 19.3751 262.708 19.4907L260.971 19.6256V19.934L262.708 20.0689Z" fill="white"/>
<path d="M225.351 42.4687C226.508 42.565 227.415 43.4709 227.512 44.6273L227.608 45.9764H227.859L227.956 44.6273C228.052 43.4709 228.959 42.565 230.117 42.4687L231.467 42.3723V42.1217L230.117 42.0253C228.959 41.929 228.052 41.0231 227.956 39.8667L227.859 38.5176H227.608L227.512 39.8667C227.415 41.0231 226.508 41.929 225.351 42.0253L224 42.1217V42.3723L225.351 42.4687Z" fill="white"/>
<path d="M257.445 68.1423C258.178 68.2001 258.757 68.7783 258.815 69.5107L258.873 70.378H259.027L259.085 69.5107C259.143 68.7783 259.722 68.2001 260.455 68.1423L261.323 68.0845V67.9303L260.455 67.8725C259.722 67.8146 259.143 67.2364 259.085 66.504L259.027 65.6367H258.873L258.815 66.504C258.757 67.2364 258.178 67.8146 257.445 67.8725L256.577 67.9303V68.0845L257.445 68.1423Z" fill="white"/>
<defs>
<filter id="filter0_f_786_14628" x="13" y="21" width="24.9138" height="24.9141" filterUnits="userSpaceOnUse" color-interpolation-filters="sRGB">
<feFlood flood-opacity="0" result="BackgroundImageFix"/>
<feBlend mode="normal" in="SourceGraphic" in2="BackgroundImageFix" result="shape"/>
<feGaussianBlur stdDeviation="2" result="effect1_foregroundBlur_786_14628"/>
</filter>
<filter id="filter1_f_786_14628" x="301" y="45" width="27" height="27" filterUnits="userSpaceOnUse" color-interpolation-filters="sRGB">
<feFlood flood-opacity="0" result="BackgroundImageFix"/>
<feBlend mode="normal" in="SourceGraphic" in2="BackgroundImageFix" result="shape"/>
<feGaussianBlur stdDeviation="2" result="effect1_foregroundBlur_786_14628"/>
</filter>
<linearGradient id="paint0_linear_786_14628" x1="97.6432" y1="106.519" x2="110.983" y2="97.8902" gradientUnits="userSpaceOnUse">
<stop stop-color="#F0E0FF"/>
<stop offset="0.58" stop-color="#D5ADFF"/>
<stop offset="1" stop-color="#E2C6FF"/>
</linearGradient>
<linearGradient id="paint1_linear_786_14628" x1="107.453" y1="108.083" x2="101.35" y2="96.1858" gradientUnits="userSpaceOnUse">
<stop stop-color="#CD9BFE"/>
<stop offset="1" stop-color="#CF9FFF"/>
</linearGradient>
<linearGradient id="paint2_linear_786_14628" x1="103.582" y1="98.2524" x2="103.335" y2="97.7713" gradientUnits="userSpaceOnUse">
<stop offset="0.04" stop-color="#F8DA36"/>
<stop offset="0.11" stop-color="#F1CD21"/>
<stop offset="0.19" stop-color="#EBC412"/>
<stop offset="0.28" stop-color="#E8BE09"/>
<stop offset="0.42" stop-color="#E8BD07"/>
<stop offset="0.51" stop-color="#EFCB1B"/>
<stop offset="0.64" stop-color="#F8DB33"/>
<stop offset="0.77" stop-color="#FDE542"/>
<stop offset="0.87" stop-color="#FFE947"/>
<stop offset="1" stop-color="#FFEC63"/>
</linearGradient>
<linearGradient id="paint3_linear_786_14628" x1="103.671" y1="100.459" x2="103.13" y2="99.4036" gradientUnits="userSpaceOnUse">
<stop offset="0.04" stop-color="#F8DA36"/>
<stop offset="0.11" stop-color="#F1CD21"/>
<stop offset="0.19" stop-color="#EBC412"/>
<stop offset="0.28" stop-color="#E8BE09"/>
<stop offset="0.42" stop-color="#E8BD07"/>
<stop offset="0.51" stop-color="#EFCB1B"/>
<stop offset="0.64" stop-color="#F8DB33"/>
<stop offset="0.77" stop-color="#FDE542"/>
<stop offset="0.87" stop-color="#FFE947"/>
<stop offset="1" stop-color="#FFEC63"/>
</linearGradient>
<linearGradient id="paint4_linear_786_14628" x1="105.647" y1="104.84" x2="104.735" y2="103.063" gradientUnits="userSpaceOnUse">
<stop offset="0.04" stop-color="#F8DA36"/>
<stop offset="0.11" stop-color="#F1CD21"/>
<stop offset="0.19" stop-color="#EBC412"/>
<stop offset="0.28" stop-color="#E8BE09"/>
<stop offset="0.42" stop-color="#E8BD07"/>
<stop offset="0.51" stop-color="#EFCB1B"/>
<stop offset="0.64" stop-color="#F8DB33"/>
<stop offset="0.77" stop-color="#FDE542"/>
<stop offset="0.87" stop-color="#FFE947"/>
<stop offset="1" stop-color="#FFEC63"/>
</linearGradient>
<linearGradient id="paint5_linear_786_14628" x1="104.957" y1="101.56" x2="104.281" y2="100.242" gradientUnits="userSpaceOnUse">
<stop offset="0.04" stop-color="#F8DA36"/>
<stop offset="0.11" stop-color="#F1CD21"/>
<stop offset="0.19" stop-color="#EBC412"/>
<stop offset="0.28" stop-color="#E8BE09"/>
<stop offset="0.42" stop-color="#E8BD07"/>
<stop offset="0.51" stop-color="#EFCB1B"/>
<stop offset="0.64" stop-color="#F8DB33"/>
<stop offset="0.77" stop-color="#FDE542"/>
<stop offset="0.87" stop-color="#FFE947"/>
<stop offset="1" stop-color="#FFEC63"/>
</linearGradient>
<linearGradient id="paint6_linear_786_14628" x1="106.17" y1="106.919" x2="105.797" y2="106.192" gradientUnits="userSpaceOnUse">
<stop offset="0.04" stop-color="#F8DA36"/>
<stop offset="0.11" stop-color="#F1CD21"/>
<stop offset="0.19" stop-color="#EBC412"/>
<stop offset="0.28" stop-color="#E8BE09"/>
<stop offset="0.42" stop-color="#E8BD07"/>
<stop offset="0.51" stop-color="#EFCB1B"/>
<stop offset="0.64" stop-color="#F8DB33"/>
<stop offset="0.77" stop-color="#FDE542"/>
<stop offset="0.87" stop-color="#FFE947"/>
<stop offset="1" stop-color="#FFEC63"/>
</linearGradient>
<linearGradient id="paint7_linear_786_14628" x1="104.555" y1="106.117" x2="103.436" y2="103.935" gradientUnits="userSpaceOnUse">
<stop offset="0.04" stop-color="#F8DA36"/>
<stop offset="0.11" stop-color="#F1CD21"/>
<stop offset="0.19" stop-color="#EBC412"/>
<stop offset="0.28" stop-color="#E8BE09"/>
<stop offset="0.42" stop-color="#E8BD07"/>
<stop offset="0.51" stop-color="#EFCB1B"/>
<stop offset="0.64" stop-color="#F8DB33"/>
<stop offset="0.77" stop-color="#FDE542"/>
<stop offset="0.87" stop-color="#FFE947"/>
<stop offset="1" stop-color="#FFEC63"/>
</linearGradient>
<linearGradient id="paint8_linear_786_14628" x1="103.215" y1="102.475" x2="101.019" y2="98.1941" gradientUnits="userSpaceOnUse">
<stop offset="0.04" stop-color="#F8DA36"/>
<stop offset="0.11" stop-color="#F1CD21"/>
<stop offset="0.19" stop-color="#EBC412"/>
<stop offset="0.28" stop-color="#E8BE09"/>
<stop offset="0.42" stop-color="#E8BD07"/>
<stop offset="0.51" stop-color="#EFCB1B"/>
<stop offset="0.64" stop-color="#F8DB33"/>
<stop offset="0.77" stop-color="#FDE542"/>
<stop offset="0.87" stop-color="#FFE947"/>
<stop offset="1" stop-color="#FFEC63"/>
</linearGradient>
<linearGradient id="paint9_linear_786_14628" x1="339.706" y1="104.543" x2="346.648" y2="113.483" gradientUnits="userSpaceOnUse">
<stop stop-color="#F0E0FF"/>
<stop offset="0.58" stop-color="#D5ADFF"/>
<stop offset="1" stop-color="#E2C6FF"/>
</linearGradient>
<linearGradient id="paint10_linear_786_14628" x1="339.196" y1="111.601" x2="347.267" y2="106.541" gradientUnits="userSpaceOnUse">
<stop stop-color="#CD9BFE"/>
<stop offset="1" stop-color="#CF9FFF"/>
</linearGradient>
<linearGradient id="paint11_linear_786_14628" x1="345.937" y1="108.25" x2="346.264" y2="108.045" gradientUnits="userSpaceOnUse">
<stop offset="0.04" stop-color="#F8DA36"/>
<stop offset="0.11" stop-color="#F1CD21"/>
<stop offset="0.19" stop-color="#EBC412"/>
<stop offset="0.28" stop-color="#E8BE09"/>
<stop offset="0.42" stop-color="#E8BD07"/>
<stop offset="0.51" stop-color="#EFCB1B"/>
<stop offset="0.64" stop-color="#F8DB33"/>
<stop offset="0.77" stop-color="#FDE542"/>
<stop offset="0.87" stop-color="#FFE947"/>
<stop offset="1" stop-color="#FFEC63"/>
</linearGradient>
<linearGradient id="paint12_linear_786_14628" x1="344.378" y1="108.449" x2="345.093" y2="108" gradientUnits="userSpaceOnUse">
<stop offset="0.04" stop-color="#F8DA36"/>
<stop offset="0.11" stop-color="#F1CD21"/>
<stop offset="0.19" stop-color="#EBC412"/>
<stop offset="0.28" stop-color="#E8BE09"/>
<stop offset="0.42" stop-color="#E8BD07"/>
<stop offset="0.51" stop-color="#EFCB1B"/>
<stop offset="0.64" stop-color="#F8DB33"/>
<stop offset="0.77" stop-color="#FDE542"/>
<stop offset="0.87" stop-color="#FFE947"/>
<stop offset="1" stop-color="#FFEC63"/>
</linearGradient>
<linearGradient id="paint13_linear_786_14628" x1="341.389" y1="110.118" x2="342.595" y2="109.363" gradientUnits="userSpaceOnUse">
<stop offset="0.04" stop-color="#F8DA36"/>
<stop offset="0.11" stop-color="#F1CD21"/>
<stop offset="0.19" stop-color="#EBC412"/>
<stop offset="0.28" stop-color="#E8BE09"/>
<stop offset="0.42" stop-color="#E8BD07"/>
<stop offset="0.51" stop-color="#EFCB1B"/>
<stop offset="0.64" stop-color="#F8DB33"/>
<stop offset="0.77" stop-color="#FDE542"/>
<stop offset="0.87" stop-color="#FFE947"/>
<stop offset="1" stop-color="#FFEC63"/>
</linearGradient>
<linearGradient id="paint14_linear_786_14628" x1="343.674" y1="109.428" x2="344.568" y2="108.868" gradientUnits="userSpaceOnUse">
<stop offset="0.04" stop-color="#F8DA36"/>
<stop offset="0.11" stop-color="#F1CD21"/>
<stop offset="0.19" stop-color="#EBC412"/>
<stop offset="0.28" stop-color="#E8BE09"/>
<stop offset="0.42" stop-color="#E8BD07"/>
<stop offset="0.51" stop-color="#EFCB1B"/>
<stop offset="0.64" stop-color="#F8DB33"/>
<stop offset="0.77" stop-color="#FDE542"/>
<stop offset="0.87" stop-color="#FFE947"/>
<stop offset="1" stop-color="#FFEC63"/>
</linearGradient>
<linearGradient id="paint15_linear_786_14628" x1="339.945" y1="110.617" x2="340.439" y2="110.308" gradientUnits="userSpaceOnUse">
<stop offset="0.04" stop-color="#F8DA36"/>
<stop offset="0.11" stop-color="#F1CD21"/>
<stop offset="0.19" stop-color="#EBC412"/>
<stop offset="0.28" stop-color="#E8BE09"/>
<stop offset="0.42" stop-color="#E8BD07"/>
<stop offset="0.51" stop-color="#EFCB1B"/>
<stop offset="0.64" stop-color="#F8DB33"/>
<stop offset="0.77" stop-color="#FDE542"/>
<stop offset="0.87" stop-color="#FFE947"/>
<stop offset="1" stop-color="#FFEC63"/>
</linearGradient>
<linearGradient id="paint16_linear_786_14628" x1="340.415" y1="109.422" x2="341.895" y2="108.494" gradientUnits="userSpaceOnUse">
<stop offset="0.04" stop-color="#F8DA36"/>
<stop offset="0.11" stop-color="#F1CD21"/>
<stop offset="0.19" stop-color="#EBC412"/>
<stop offset="0.28" stop-color="#E8BE09"/>
<stop offset="0.42" stop-color="#E8BD07"/>
<stop offset="0.51" stop-color="#EFCB1B"/>
<stop offset="0.64" stop-color="#F8DB33"/>
<stop offset="0.77" stop-color="#FDE542"/>
<stop offset="0.87" stop-color="#FFE947"/>
<stop offset="1" stop-color="#FFEC63"/>
</linearGradient>
<linearGradient id="paint17_linear_786_14628" x1="342.918" y1="108.248" x2="345.823" y2="106.427" gradientUnits="userSpaceOnUse">
<stop offset="0.04" stop-color="#F8DA36"/>
<stop offset="0.11" stop-color="#F1CD21"/>
<stop offset="0.19" stop-color="#EBC412"/>
<stop offset="0.28" stop-color="#E8BE09"/>
<stop offset="0.42" stop-color="#E8BD07"/>
<stop offset="0.51" stop-color="#EFCB1B"/>
<stop offset="0.64" stop-color="#F8DB33"/>
<stop offset="0.77" stop-color="#FDE542"/>
<stop offset="0.87" stop-color="#FFE947"/>
<stop offset="1" stop-color="#FFEC63"/>
</linearGradient>
<radialGradient id="paint18_radial_786_14628" cx="0" cy="0" r="1" gradientUnits="userSpaceOnUse" gradientTransform="translate(65.1554 49.6233) rotate(50.4801) scale(32.5744 32.5744)">
<stop stop-color="#F0EBFF"/>
<stop offset="0.317708" stop-color="#D7C8FE"/>
<stop offset="0.83" stop-color="#C4B1F3"/>
<stop offset="1" stop-color="#AB98DB"/>
</radialGradient>
<radialGradient id="paint19_radial_786_14628" cx="0" cy="0" r="1" gradientUnits="userSpaceOnUse" gradientTransform="translate(377.446 62.8719) rotate(50.4801) scale(23.6046 23.6046)">
<stop stop-color="#F0EBFF"/>
<stop offset="0.317708" stop-color="#D7C8FE"/>
<stop offset="0.83" stop-color="#C4B1F3"/>
<stop offset="1" stop-color="#AB98DB"/>
</radialGradient>
<radialGradient id="paint20_radial_786_14628" cx="0" cy="0" r="1" gradientUnits="userSpaceOnUse" gradientTransform="translate(25.5141 30.0092) rotate(50.4801) scale(11.9773 11.9773)">
<stop stop-color="#F0EBFF"/>
<stop offset="0.317708" stop-color="#D7C8FE"/>
<stop offset="0.83" stop-color="#C4B1F3"/>
<stop offset="1" stop-color="#AB98DB"/>
</radialGradient>
<radialGradient id="paint21_radial_786_14628" cx="0" cy="0" r="1" gradientUnits="userSpaceOnUse" gradientTransform="translate(314.564 54.627) rotate(50.4801) scale(13.4546 13.4546)">
<stop stop-color="#F0EBFF"/>
<stop offset="0.317708" stop-color="#D7C8FE"/>
<stop offset="0.83" stop-color="#C4B1F3"/>
<stop offset="1" stop-color="#AB98DB"/>
</radialGradient>
<radialGradient id="paint22_radial_786_14628" cx="0" cy="0" r="1" gradientUnits="userSpaceOnUse" gradientTransform="translate(151.571 72.2193) rotate(50.4801) scale(14.8709 14.8709)">
<stop stop-color="#F0EBFF"/>
<stop offset="0.317708" stop-color="#D7C8FE"/>
<stop offset="0.83" stop-color="#C4B1F3"/>
<stop offset="1" stop-color="#AB98DB"/>
</radialGradient>
</defs>
</svg>
