<svg width="32" height="24" viewBox="0 0 32 24" fill="none" xmlns="http://www.w3.org/2000/svg">
<path d="M30.9733 6.18132C28.1748 2.51831 20.6808 1.86531 13.1745 4.88776C5.6681 7.91021 0.711494 13.5695 1.24011 18.153L1.02246 18.1405L1.39559 19.0423C3.31727 23.8123 11.6135 24.9628 19.9283 21.617C28.2432 18.2711 33.4236 11.6914 31.5019 6.92138L31.1288 6.01962L30.9795 6.18132H30.9733Z" fill="#D16A0D"/>
<path d="M30.5937 4.70072C30.7057 4.98058 30.7741 5.0863 30.8487 5.30396C30.8798 5.38481 31.1037 5.90721 31.1224 6.01915C31.8562 10.6461 26.7691 16.6039 19.1321 19.6824C11.3148 22.8354 3.52232 21.8901 1.02227 18.1463C1.02227 18.1463 0.605606 17.1077 0.493664 16.8216C-1.42802 12.0516 3.75243 5.47188 12.0673 2.12604C20.3821 -1.2198 28.6783 -0.0692801 30.5999 4.70072H30.5937Z" fill="#D16A0D"/>
<path d="M30.5068 4.48978C32.4284 9.25978 27.2479 15.8395 18.9331 19.1854C10.6182 22.5312 2.32208 21.3807 0.400402 16.6107C-1.52128 11.8407 3.65917 5.26094 11.974 1.9151C20.2889 -1.43074 28.5851 -0.280219 30.5068 4.48978Z" fill="url(#paint0_linear_289_9037)"/>
<g style="mix-blend-mode:screen" opacity="0.5">
<path d="M11.9989 1.96485C20.2951 -1.37477 28.5788 -0.236688 30.5191 4.51465C30.5191 4.50844 30.5192 4.496 30.5068 4.48978C28.5851 -0.280219 20.2889 -1.43074 11.974 1.9151C3.65917 5.26094 -1.52128 11.8407 0.400402 16.6107C0.400402 16.6169 0.406633 16.6293 0.412852 16.6356C-1.47773 11.8718 3.70272 5.30447 11.9989 1.96485Z" fill="#FEF0A0"/>
</g>
<path d="M28.1311 5.44747C29.7481 9.46497 25.3885 15.0061 18.3859 17.8233C11.3832 20.6406 4.39929 19.6704 2.78234 15.6529C1.16539 11.6354 5.53118 6.09425 12.5276 3.27703C19.5302 0.459808 26.5142 1.42998 28.1311 5.44747Z" fill="url(#paint1_linear_289_9037)"/>
<path d="M28.1311 5.44747C29.7481 9.46497 25.3885 15.0061 18.3859 17.8233C11.3832 20.6406 4.39929 19.6704 2.78234 15.6529C1.16539 11.6354 5.53118 6.09425 12.5276 3.27703C19.5302 0.459808 26.5142 1.42998 28.1311 5.44747Z" fill="url(#paint2_linear_289_9037)"/>
<g style="mix-blend-mode:multiply">
<path d="M12.5278 3.27675C19.5118 0.465747 26.4771 1.42348 28.1189 5.4161C28.1189 5.40366 28.1127 5.39744 28.1065 5.385C26.4895 1.36751 19.5056 0.397338 12.5029 3.22078C5.5003 6.038 1.14081 11.5792 2.75776 15.5967C2.75776 15.6091 2.76391 15.6153 2.77013 15.6278C1.1905 11.6103 5.55008 6.09397 12.5278 3.28297V3.27675Z" fill="#FEF0A0"/>
</g>
<g style="mix-blend-mode:screen" opacity="0.3">
<path d="M18.386 17.8232C11.402 20.6342 4.43053 19.6764 2.79492 15.6776C2.79492 15.6838 2.80115 15.6963 2.80737 15.7025C4.42432 19.72 11.4083 20.6901 18.4109 17.8729C25.4135 15.0557 29.7731 9.51454 28.1562 5.49704C28.1562 5.49083 28.1499 5.47839 28.1437 5.47217C29.7358 9.48966 25.37 15.0122 18.386 17.8232Z" fill="#FEF0A0"/>
</g>
<path opacity="0.4" d="M12.658 3.60078C19.5922 0.808434 26.4767 1.62935 28.1745 5.55356C28.1621 5.51624 28.1496 5.47893 28.131 5.44161C26.514 1.42412 19.5301 0.453948 12.5274 3.27117C5.52479 6.08839 1.16522 11.6296 2.78217 15.647C2.79461 15.6844 2.81331 15.7217 2.82575 15.7528C1.32696 11.7477 5.71756 6.38691 12.658 3.59456V3.60078Z" fill="#D16A0D"/>
<g style="mix-blend-mode:multiply" opacity="0.4">
<path d="M20.4507 9.24798C20.0589 9.01788 19.6422 8.88106 19.1944 8.84996C18.7467 8.81887 17.9382 8.83753 16.7752 8.90593C15.4008 8.98678 14.5675 9.00544 14.2628 8.96191C13.9518 8.92459 13.7279 8.72558 13.5848 8.37732C13.4978 8.16587 13.4978 7.98552 13.5786 7.83004C13.6595 7.67457 13.8274 7.55019 14.0699 7.44446C14.3747 7.32008 14.5985 7.30142 14.7416 7.38849C14.8846 7.47556 15.0339 7.71188 15.1956 8.1099L14.9531 8.32135L15.3449 8.48304L19.3872 6.85365C19.3375 6.65465 19.2939 6.50539 19.2566 6.4121C18.9892 5.74667 18.473 5.35487 17.6956 5.23049C16.9245 5.10611 15.8983 5.24914 14.611 5.6596L14.3249 4.94441L13.9331 4.78271L13.8398 5.1061L12.4655 5.69691L12.7515 6.4121C11.4206 7.05266 10.4878 7.69944 9.95917 8.35866C9.43055 9.01788 9.29995 9.67709 9.56737 10.3488C9.75394 10.8152 10.0835 11.1634 10.5562 11.3998C11.0288 11.6361 11.5264 11.7667 12.0488 11.7916C12.5774 11.8164 13.5413 11.7916 14.9468 11.7294C15.7926 11.6858 16.3212 11.748 16.5327 11.9159C16.7441 12.0839 16.9556 12.4197 17.1608 12.9234C17.2416 13.1224 17.2354 13.3028 17.1421 13.4583C17.0488 13.6137 16.8685 13.7443 16.5949 13.8563C16.2777 13.9869 16.0413 13.9931 15.8983 13.8812C15.7553 13.7692 15.5625 13.4085 15.32 12.8053L15.2142 12.5379L15.1023 12.258L14.7105 12.0963L14.4058 12.4632L11.0537 13.8874L11.2279 14.3289C11.6321 15.3302 12.3162 15.865 13.2863 15.9459C14.2565 16.0205 15.2951 15.8713 16.3959 15.4981L16.3586 16.2071L16.7504 16.3688L18.6099 15.6163L18.2678 14.7705C19.6111 14.105 20.5377 13.4023 21.0477 12.6684C21.5576 11.9346 21.651 11.1634 21.3276 10.3612C21.1286 9.85745 20.83 9.49674 20.4382 9.26042L20.4507 9.24798Z" fill="#AA7E03"/>
</g>
<path d="M19.0018 6.68535L14.9595 8.31474L14.8101 7.9416C14.6484 7.54358 14.4992 7.30104 14.3562 7.22019C14.2131 7.13312 13.9893 7.15178 13.6845 7.27616C13.4358 7.37567 13.274 7.50005 13.1932 7.65552C13.1123 7.811 13.1123 7.99135 13.1932 8.2028C13.3362 8.55728 13.5602 8.75007 13.8711 8.78739C14.1759 8.83092 15.0092 8.81226 16.3836 8.73142C17.5465 8.66301 18.355 8.64435 18.8028 8.67544C19.2505 8.70654 19.6672 8.84336 20.059 9.07346C20.4508 9.30357 20.7494 9.67049 20.9484 10.1742C21.2718 10.9765 21.1784 11.7414 20.6685 12.4753C20.1585 13.2091 19.2319 13.9119 17.8886 14.5773L18.2306 15.4231L16.3711 16.1756L16.0167 15.3049C14.9097 15.6781 13.8773 15.8273 12.9071 15.7527C11.937 15.6781 11.2528 15.137 10.8486 14.1358L10.6683 13.6942L14.7107 12.0648L14.9346 12.6183C15.1771 13.2216 15.3698 13.5823 15.5129 13.6942C15.6559 13.8061 15.886 13.7999 16.2094 13.6693C16.483 13.5574 16.6634 13.4268 16.7567 13.2713C16.85 13.1158 16.8562 12.9355 16.7754 12.7365C16.5701 12.2327 16.3649 11.8969 16.1472 11.729C15.9358 11.5611 15.4072 11.5051 14.5614 11.5424C13.1559 11.6108 12.192 11.6295 11.6633 11.6108C11.1409 11.586 10.6372 11.4554 10.1708 11.219C9.69811 10.9827 9.36852 10.6344 9.18195 10.168C8.90831 9.49636 9.04513 8.83092 9.57375 8.17792C10.1024 7.5187 11.0352 6.87192 12.3661 6.23136L12.0738 5.51617L13.9333 4.76367L14.2256 5.47886C15.5067 5.06219 16.539 4.91915 17.3102 5.04975C18.0814 5.17413 18.6038 5.57215 18.8712 6.23758C18.9085 6.33087 18.9521 6.47391 19.0018 6.67291V6.68535Z" fill="white"/>
<g style="mix-blend-mode:screen" opacity="0.7">
<path style="mix-blend-mode:screen" d="M14.2505 5.48515V5.49759C15.3699 5.13688 16.2903 4.98141 17.0179 5.03116C16.2903 4.97519 15.3637 5.13066 14.2505 5.48515Z" fill="url(#paint3_linear_289_9037)"/>
<path style="mix-blend-mode:screen" d="M14.1943 7.16992C14.2565 7.16992 14.3063 7.1948 14.3498 7.21968C14.4928 7.30052 14.6422 7.54306 14.8039 7.94108L14.9531 8.31422L14.9779 8.30179L14.8349 7.94108C14.6732 7.54306 14.524 7.30674 14.3809 7.21968C14.3312 7.18858 14.269 7.16992 14.1943 7.16992Z" fill="url(#paint4_linear_289_9037)"/>
<path style="mix-blend-mode:screen" d="M16.7878 13.2777C16.8811 13.1222 16.8873 12.9419 16.8065 12.7429C16.6012 12.2391 16.396 11.9033 16.1846 11.7354C16.054 11.6359 15.8114 11.5737 15.4507 11.5488C15.7927 11.5737 16.0291 11.6359 16.1534 11.7354C16.3711 11.9033 16.5763 12.2391 16.7816 12.7429C16.8624 12.9419 16.8562 13.1222 16.7629 13.2777C16.6696 13.4332 16.4892 13.5638 16.2156 13.6757C16.0353 13.7504 15.8798 13.7815 15.7554 13.7752C15.886 13.7877 16.0477 13.7566 16.2467 13.6757C16.5204 13.5638 16.7007 13.4332 16.794 13.2777H16.7878Z" fill="url(#paint5_linear_289_9037)"/>
<path style="mix-blend-mode:screen" d="M18.8088 8.68792C18.361 8.65682 17.5525 8.67548 16.3896 8.74389C15.1768 8.8123 14.3808 8.83717 14.0015 8.81229C14.3622 8.84339 15.1707 8.81851 16.4207 8.75011C17.565 8.6817 18.361 8.66304 18.815 8.69413L18.8088 8.68792Z" fill="url(#paint6_linear_289_9037)"/>
<path style="mix-blend-mode:screen" d="M16.0474 15.311C16.0474 15.311 16.0287 15.311 16.0225 15.3173L16.3707 16.1817L16.3956 16.1693L16.0474 15.311Z" fill="url(#paint7_linear_289_9037)"/>
<path style="mix-blend-mode:screen" d="M12.9381 15.7592C11.9679 15.6845 11.2838 15.1435 10.8795 14.1422L10.7054 13.7007L14.7229 12.0837V12.0713L10.6743 13.7007L10.8546 14.1422C11.2589 15.1435 11.943 15.6783 12.9132 15.7592C12.9442 15.7592 12.9754 15.7592 13.0065 15.7654C12.9878 15.7654 12.9629 15.7654 12.9381 15.7654V15.7592Z" fill="url(#paint8_linear_289_9037)"/>
<path style="mix-blend-mode:screen" d="M11.5823 11.6168C11.0972 11.5795 10.637 11.4551 10.2017 11.2312C9.72903 10.9949 9.39937 10.6466 9.2128 10.1802C8.93916 9.50856 9.06977 8.84313 9.6046 8.19013C10.1332 7.53091 11.0661 6.88413 12.397 6.24357L12.1109 5.52838L13.9456 4.78832V4.77588L12.0798 5.52838L12.3721 6.24357C11.0412 6.88413 10.1084 7.53091 9.57978 8.19013C9.05116 8.84934 8.92056 9.51478 9.18798 10.1802C9.37455 10.6404 9.70413 10.9949 10.1768 11.2312C10.6246 11.4551 11.0972 11.5857 11.5885 11.6168H11.5823Z" fill="url(#paint9_linear_289_9037)"/>
</g>
<defs>
<linearGradient id="paint0_linear_289_9037" x1="5.80696" y1="5.09463" x2="20.74" y2="20.2916" gradientUnits="userSpaceOnUse">
<stop stop-color="#FFD08D"/>
<stop offset="0.58" stop-color="#FFDC2A"/>
<stop offset="0.81" stop-color="#F3C237"/>
<stop offset="1" stop-color="#EBB140"/>
</linearGradient>
<linearGradient id="paint1_linear_289_9037" x1="18.4136" y1="17.8403" x2="12.5271" y2="3.21928" gradientUnits="userSpaceOnUse">
<stop stop-color="#F0C827"/>
<stop offset="0.08" stop-color="#E9BE25"/>
<stop offset="0.22" stop-color="#E2B424"/>
<stop offset="0.38" stop-color="#EECA46"/>
<stop offset="0.57" stop-color="#FAE168"/>
<stop offset="0.68" stop-color="#FFEA76"/>
<stop offset="0.74" stop-color="#FDE770"/>
<stop offset="0.82" stop-color="#FBE161"/>
<stop offset="0.91" stop-color="#F6D647"/>
<stop offset="1" stop-color="#F0C827"/>
</linearGradient>
<linearGradient id="paint2_linear_289_9037" x1="18.4136" y1="17.8403" x2="12.5271" y2="3.21928" gradientUnits="userSpaceOnUse">
<stop stop-color="#FFD08D"/>
<stop offset="0.58" stop-color="#FFAF2A"/>
<stop offset="0.71" stop-color="#F8A631"/>
<stop offset="1" stop-color="#EC9540"/>
</linearGradient>
<linearGradient id="paint3_linear_289_9037" x1="15.7568" y1="5.49622" x2="15.5277" y2="4.92717" gradientUnits="userSpaceOnUse">
<stop offset="0.04" stop-color="#F8DA36"/>
<stop offset="0.11" stop-color="#F1CD21"/>
<stop offset="0.19" stop-color="#EBC412"/>
<stop offset="0.28" stop-color="#E8BE09"/>
<stop offset="0.42" stop-color="#E8BD07"/>
<stop offset="0.51" stop-color="#EFCB1B"/>
<stop offset="0.64" stop-color="#F8DB33"/>
<stop offset="0.77" stop-color="#FDE542"/>
<stop offset="0.87" stop-color="#FFE947"/>
<stop offset="1" stop-color="#FFEC63"/>
</linearGradient>
<linearGradient id="paint4_linear_289_9037" x1="14.8517" y1="8.32658" x2="14.3466" y2="7.07216" gradientUnits="userSpaceOnUse">
<stop offset="0.04" stop-color="#F8DA36"/>
<stop offset="0.11" stop-color="#F1CD21"/>
<stop offset="0.19" stop-color="#EBC412"/>
<stop offset="0.28" stop-color="#E8BE09"/>
<stop offset="0.42" stop-color="#E8BD07"/>
<stop offset="0.51" stop-color="#EFCB1B"/>
<stop offset="0.64" stop-color="#F8DB33"/>
<stop offset="0.77" stop-color="#FDE542"/>
<stop offset="0.87" stop-color="#FFE947"/>
<stop offset="1" stop-color="#FFEC63"/>
</linearGradient>
<linearGradient id="paint5_linear_289_9037" x1="16.4388" y1="13.6014" x2="15.5876" y2="11.4871" gradientUnits="userSpaceOnUse">
<stop offset="0.04" stop-color="#F8DA36"/>
<stop offset="0.11" stop-color="#F1CD21"/>
<stop offset="0.19" stop-color="#EBC412"/>
<stop offset="0.28" stop-color="#E8BE09"/>
<stop offset="0.42" stop-color="#E8BD07"/>
<stop offset="0.51" stop-color="#EFCB1B"/>
<stop offset="0.64" stop-color="#F8DB33"/>
<stop offset="0.77" stop-color="#FDE542"/>
<stop offset="0.87" stop-color="#FFE947"/>
<stop offset="1" stop-color="#FFEC63"/>
</linearGradient>
<linearGradient id="paint6_linear_289_9037" x1="16.7337" y1="9.505" x2="16.0999" y2="7.93076" gradientUnits="userSpaceOnUse">
<stop offset="0.04" stop-color="#F8DA36"/>
<stop offset="0.11" stop-color="#F1CD21"/>
<stop offset="0.19" stop-color="#EBC412"/>
<stop offset="0.28" stop-color="#E8BE09"/>
<stop offset="0.42" stop-color="#E8BD07"/>
<stop offset="0.51" stop-color="#EFCB1B"/>
<stop offset="0.64" stop-color="#F8DB33"/>
<stop offset="0.77" stop-color="#FDE542"/>
<stop offset="0.87" stop-color="#FFE947"/>
<stop offset="1" stop-color="#FFEC63"/>
</linearGradient>
<linearGradient id="paint7_linear_289_9037" x1="16.4051" y1="16.1825" x2="16.0572" y2="15.3185" gradientUnits="userSpaceOnUse">
<stop offset="0.04" stop-color="#F8DA36"/>
<stop offset="0.11" stop-color="#F1CD21"/>
<stop offset="0.19" stop-color="#EBC412"/>
<stop offset="0.28" stop-color="#E8BE09"/>
<stop offset="0.42" stop-color="#E8BD07"/>
<stop offset="0.51" stop-color="#EFCB1B"/>
<stop offset="0.64" stop-color="#F8DB33"/>
<stop offset="0.77" stop-color="#FDE542"/>
<stop offset="0.87" stop-color="#FFE947"/>
<stop offset="1" stop-color="#FFEC63"/>
</linearGradient>
<linearGradient id="paint8_linear_289_9037" x1="13.7575" y1="15.4677" x2="12.7123" y2="12.8716" gradientUnits="userSpaceOnUse">
<stop offset="0.04" stop-color="#F8DA36"/>
<stop offset="0.11" stop-color="#F1CD21"/>
<stop offset="0.19" stop-color="#EBC412"/>
<stop offset="0.28" stop-color="#E8BE09"/>
<stop offset="0.42" stop-color="#E8BD07"/>
<stop offset="0.51" stop-color="#EFCB1B"/>
<stop offset="0.64" stop-color="#F8DB33"/>
<stop offset="0.77" stop-color="#FDE542"/>
<stop offset="0.87" stop-color="#FFE947"/>
<stop offset="1" stop-color="#FFEC63"/>
</linearGradient>
<linearGradient id="paint9_linear_289_9037" x1="13.0136" y1="11.0218" x2="10.9617" y2="5.9252" gradientUnits="userSpaceOnUse">
<stop offset="0.04" stop-color="#F8DA36"/>
<stop offset="0.11" stop-color="#F1CD21"/>
<stop offset="0.19" stop-color="#EBC412"/>
<stop offset="0.28" stop-color="#E8BE09"/>
<stop offset="0.42" stop-color="#E8BD07"/>
<stop offset="0.51" stop-color="#EFCB1B"/>
<stop offset="0.64" stop-color="#F8DB33"/>
<stop offset="0.77" stop-color="#FDE542"/>
<stop offset="0.87" stop-color="#FFE947"/>
<stop offset="1" stop-color="#FFEC63"/>
</linearGradient>
</defs>
</svg>
