<svg width="203" height="304" viewBox="0 0 203 304" fill="none" xmlns="http://www.w3.org/2000/svg">
<g filter="url(#filter0_d_701_7762)">
<g opacity="0.5">
<path d="M146.193 149.822C149.642 150.09 152.343 152.79 152.61 156.239L152.904 160.196H153.332L153.626 156.239C153.894 152.79 156.594 150.09 160.043 149.822L164 149.528V149.101L160.043 148.806C156.594 148.539 153.894 145.839 153.626 142.39L153.332 138.432H152.904L152.61 142.39C152.343 145.839 149.642 148.539 146.193 148.806L142.236 149.101V149.528L146.193 149.822Z" fill="white"/>
<path d="M120.638 15.0318C122.697 15.1923 124.301 16.7965 124.462 18.8553L124.649 21.2616H125.077L125.264 18.8553C125.424 16.7965 127.028 15.1923 129.087 15.0318L131.494 14.8447V14.4169L129.087 14.2297C127.028 14.0693 125.424 12.4651 125.264 10.4063L125.077 8H124.649L124.462 10.4063C124.301 12.4651 122.697 14.0693 120.638 14.2297L118.232 14.4169V14.8447L120.638 15.0318Z" fill="white"/>
<path d="M68.8715 46.1064C70.4757 46.2401 71.7323 47.4968 71.866 49.101L71.9998 50.9726H72.3474L72.4813 49.101C72.6149 47.4968 73.8716 46.2401 75.4758 46.1064L77.3473 45.9727V45.6251L75.4758 45.4914C73.8716 45.3578 72.6149 44.1011 72.4813 42.4969L72.3474 40.6253H71.9998L71.866 42.4969C71.7323 44.1011 70.4757 45.3578 68.8715 45.4914L67 45.6251V45.9727L68.8715 46.1064Z" fill="white"/>
<path d="M113.345 81.7192C114.361 81.7995 115.163 82.6016 115.243 83.6176L115.324 84.8208H115.537L115.618 83.6176C115.698 82.6016 116.5 81.7995 117.516 81.7192L118.719 81.639V81.4251L117.516 81.3449C116.5 81.2647 115.698 80.4626 115.618 79.4466L115.537 78.2434H115.324L115.243 79.4466C115.163 80.4626 114.361 81.2647 113.345 81.3449L112.142 81.4251V81.639L113.345 81.7192Z" fill="white"/>
</g>
<g style="mix-blend-mode:luminosity" filter="url(#filter1_f_701_7762)">
<g style="mix-blend-mode:multiply">
<path d="M70.0484 146.267C70.0232 145.512 69.9727 144.757 69.872 144.027C69.7713 143.221 69.6706 142.416 69.5196 141.61C69.3434 140.729 69.142 139.823 68.9155 138.942C68.6386 137.935 68.3113 136.929 67.9337 135.947C67.4807 134.713 66.9268 133.505 66.2975 132.347C65.2655 130.409 64.0574 128.572 62.6226 126.835C61.7164 125.752 60.7346 124.695 59.6774 123.713C58.6202 122.732 57.4876 121.826 56.3549 120.995L55.4236 120.139L55.2976 120.265L54.3914 121.247L53.3596 122.379L52.3275 123.512L51.2954 124.645L50.2633 125.778L49.2315 126.91L48.1741 128.043L47.142 129.176L46.085 130.308L45.0529 131.441L43.9956 132.574L42.9638 133.707L41.9317 134.839L40.8995 135.972L39.8425 137.105L38.8104 138.238L37.7783 139.37L36.721 140.503L35.6892 141.636L34.6318 142.768L33.5997 143.901L32.5679 145.034L31.5358 146.167L30.4785 147.299L29.4467 148.432L28.3894 149.565L27.3572 150.697L26.3251 151.83L25.2933 152.963L24.236 154.096L23.2039 155.228L22.1721 156.361L21.1147 157.494L20.0826 158.626L19.0508 159.759L17.9935 160.892L16.9614 162.025L15.9296 163.157L14.8974 164.29L13.8653 165.423L12.8332 166.555L11.9271 167.537L11.8014 167.688L12.7327 168.544C13.6389 169.626 14.6204 170.684 15.6776 171.665C16.7348 172.647 17.8425 173.553 19.0004 174.384C20.8379 175.693 22.7759 176.775 24.7645 177.656C25.9727 178.185 27.2316 178.638 28.4901 179.015C29.497 179.317 30.529 179.569 31.561 179.771C32.442 179.947 33.348 180.073 34.2542 180.173C35.0597 180.274 35.8906 180.324 36.6961 180.349C37.4512 180.375 38.2061 180.349 38.9361 180.349C39.6409 180.324 40.3459 180.274 41.0507 180.198C41.7052 180.123 42.3594 180.047 43.0139 179.947C43.6431 179.846 44.2727 179.72 44.8768 179.594C45.481 179.468 46.0598 179.317 46.6387 179.141C47.2177 178.99 47.7715 178.814 48.3253 178.613C48.8539 178.436 49.4074 178.235 49.936 178.009C50.4395 177.807 50.9683 177.581 51.4718 177.329C51.9752 177.102 52.4533 176.851 52.9316 176.599C53.4099 176.347 53.8628 176.095 54.3411 175.819C54.7941 175.542 55.2473 175.265 55.6752 174.963C56.1031 174.686 56.5311 174.384 56.959 174.057C57.3869 173.755 57.7896 173.427 58.1924 173.1C58.5951 172.773 58.9726 172.446 59.3754 172.093C59.7529 171.766 60.1307 171.414 60.5083 171.036C60.8607 170.684 61.2381 170.306 61.5905 169.928C61.9429 169.551 62.2702 169.173 62.5974 168.771C62.9246 168.368 63.2519 167.99 63.5539 167.562C63.8812 167.16 64.1832 166.732 64.4601 166.329C64.7621 165.901 65.0392 165.473 65.3161 165.02C65.593 164.567 65.8698 164.114 66.1215 163.661C66.3732 163.208 66.625 162.729 66.8515 162.251C67.1033 161.773 67.3298 161.269 67.5312 160.791C67.7578 160.288 67.9591 159.784 68.1605 159.281C68.3619 158.752 68.538 158.224 68.7142 157.695C68.8904 157.141 69.0413 156.588 69.1923 156.034C69.3434 155.455 69.4693 154.876 69.5952 154.322C69.721 153.718 69.8217 153.114 69.8972 152.51C69.9979 151.88 70.0733 151.251 70.1237 150.622C70.174 149.967 70.2245 149.288 70.2496 148.633C70.2496 147.929 70.2496 147.224 70.2496 146.519L70.0484 146.267Z" fill="#D16A0D"/>
</g>
<path d="M23.9085 116.565C40.4462 109.592 59.5263 117.37 66.4737 133.908C73.4462 150.446 65.6682 169.526 49.1305 176.473C32.5928 183.446 13.5127 175.668 6.56531 159.13C-0.407209 142.592 7.37083 123.512 23.9085 116.565Z" fill="url(#paint0_linear_701_7762)"/>
<g style="mix-blend-mode:screen" opacity="0.5">
<path d="M12.8324 124.544C25.0155 111.405 45.5557 110.624 58.6952 122.757C58.6952 122.757 58.6448 122.707 58.6196 122.681C45.4549 110.473 24.8898 111.228 12.6816 124.393C0.473369 137.558 1.22834 158.123 14.3931 170.331L14.4686 170.407C1.37945 158.173 0.649409 137.659 12.8324 124.544Z" fill="#FEF0A0"/>
</g>
<path d="M55.1213 126.457C66.1968 136.752 66.8511 154.07 56.556 165.146C46.2608 176.221 28.9428 176.876 17.8673 166.581C6.79185 156.285 6.13753 138.967 16.4327 127.892C26.7278 116.816 44.0459 116.162 55.1213 126.457Z" fill="url(#paint1_linear_701_7762)"/>
<path d="M45.4552 141.056C44.1211 140.578 42.9128 140.377 41.8556 140.503C40.7732 140.603 39.0112 141.006 36.5192 141.736C33.5741 142.567 31.7367 142.995 30.9816 143.02C30.2013 143.045 29.3201 142.592 28.3133 141.66C27.7091 141.107 27.3569 140.578 27.231 140.1C27.1052 139.622 27.2308 139.194 27.5832 138.791C28.0363 138.313 28.5147 138.136 28.9929 138.313C29.4712 138.489 30.2766 139.093 31.4093 140.15L31.8373 140.553L31.5353 140.88L32.4666 141.132L38.4071 134.738C37.9036 134.185 37.5262 133.807 37.2493 133.555C35.3614 131.793 33.4231 130.912 31.4345 130.912C29.4459 130.912 27.4073 131.768 25.3432 133.505L23.3041 131.617L22.3728 131.365L23.0021 131.944L20.5605 134.562L22.5993 136.45C20.8373 138.841 20.0066 141.107 20.0821 143.196C20.1576 145.285 21.1646 147.223 23.0777 148.985C24.3866 150.219 25.8212 151.049 27.3315 151.503C28.8418 151.956 30.2263 152.107 31.4597 151.93C32.6931 151.754 34.8076 151.276 37.8534 150.445C39.6657 149.942 40.9745 149.892 41.78 150.269C42.5855 150.647 43.6932 151.503 45.128 152.837C45.7069 153.365 46.0342 153.869 46.1349 154.347C46.2356 154.825 46.0844 155.278 45.6817 155.706C45.2034 156.21 44.7001 156.335 44.1714 156.084C43.6428 155.832 42.5102 154.901 40.7734 153.315L40.0181 152.61L39.2127 151.855L38.2811 151.603L38.9104 152.182L33.272 158.248L34.5306 159.406C37.3749 162.049 39.9678 163.258 42.3088 163.056C44.6497 162.83 46.6885 161.949 48.4505 160.413L50.3132 162.125L50.0111 162.452L50.9424 162.704L53.6864 159.759L51.2697 157.519C53.0065 155.027 53.7365 152.635 53.4596 150.345C53.1827 148.054 51.8989 145.839 49.6083 143.725C48.1735 142.39 46.7893 141.509 45.4804 141.031L45.4552 141.056Z" fill="#D16A0D"/>
<path d="M37.476 134.487L31.5356 140.88L30.4782 139.899C29.3455 138.841 28.5401 138.237 28.0619 138.061C27.5836 137.885 27.1052 138.061 26.6521 138.539C26.2997 138.917 26.1741 139.37 26.2748 139.823C26.4006 140.301 26.7529 140.805 27.357 141.384C28.3639 142.315 29.245 142.768 30.0253 142.743C30.7805 142.743 32.643 142.29 35.5629 141.459C38.0549 140.755 39.8421 140.327 40.8993 140.226C41.9817 140.125 43.1649 140.301 44.499 140.78C45.833 141.258 47.2175 142.164 48.6271 143.473C50.9177 145.587 52.2013 147.803 52.4781 150.093C52.755 152.409 52.0251 154.8 50.2882 157.267L52.7049 159.507L49.961 162.452L47.469 160.137C45.707 161.697 43.6683 162.578 41.3273 162.78C38.9864 162.981 36.3938 161.773 33.5494 159.13L32.2908 157.972L38.2313 151.578L39.7919 153.038C41.5036 154.624 42.6362 155.555 43.19 155.807C43.7186 156.059 44.222 155.933 44.7002 155.429C45.103 155.002 45.2541 154.548 45.1534 154.07C45.0528 153.592 44.7255 153.089 44.1465 152.56C42.7117 151.226 41.5791 150.37 40.7736 149.992C39.9681 149.615 38.6591 149.69 36.8467 150.169C33.801 150.999 31.6864 151.478 30.453 151.654C29.2196 151.83 27.8603 151.654 26.3249 151.226C24.8146 150.773 23.3799 149.917 22.071 148.709C20.158 146.947 19.1513 145.008 19.0758 142.919C19.0002 140.83 19.8309 138.59 21.5929 136.173L19.5539 134.285L22.2975 131.34L24.3365 133.228C26.4258 131.491 28.4645 130.635 30.453 130.635C32.4416 130.635 34.3799 131.542 36.2678 133.279C36.5195 133.53 36.9222 133.908 37.4256 134.462L37.476 134.487Z" fill="white"/>
<g style="mix-blend-mode:screen" opacity="0.7">
<path style="mix-blend-mode:screen" d="M24.4368 133.203H24.462C26.2743 131.718 28.0366 130.862 29.7734 130.686C28.0366 130.862 26.2494 131.693 24.4119 133.203H24.4368Z" fill="url(#paint2_linear_701_7762)"/>
<path style="mix-blend-mode:screen" d="M27.5833 138.011C27.7343 138.011 27.8855 138.011 28.0365 138.086C28.5148 138.263 29.3202 138.867 30.4529 139.924L31.5102 140.906V140.855L30.5285 139.899C29.3958 138.841 28.5904 138.237 28.1121 138.061C27.9359 138.011 27.7595 137.986 27.6085 138.011H27.5833Z" fill="url(#paint3_linear_701_7762)"/>
<path style="mix-blend-mode:screen" d="M45.3042 154.095C45.2035 153.617 44.8762 153.114 44.2973 152.585C42.8625 151.251 41.7299 150.395 40.9496 150.018C40.4713 149.791 39.7916 149.716 38.9357 149.816C39.7664 149.741 40.3957 149.816 40.874 150.018C41.6795 150.395 42.8124 151.251 44.2472 152.585C44.8261 153.114 45.1531 153.617 45.2538 154.095C45.3545 154.574 45.2036 155.027 44.8009 155.455C44.524 155.732 44.2469 155.908 43.97 155.958C44.2973 155.958 44.5996 155.757 44.8765 155.455C45.2792 155.027 45.4301 154.574 45.3294 154.095H45.3042Z" fill="url(#paint4_linear_701_7762)"/>
<path style="mix-blend-mode:screen" d="M40.9244 140.226C39.842 140.327 38.08 140.729 35.588 141.459C32.9954 142.189 31.2335 142.617 30.3525 142.718C31.2335 142.642 32.9955 142.215 35.6636 141.459C38.1053 140.755 39.8672 140.352 40.9496 140.226H40.9244Z" fill="url(#paint5_linear_701_7762)"/>
<path style="mix-blend-mode:screen" d="M47.5697 160.162H47.5193L49.986 162.478V162.427L47.5697 160.162Z" fill="url(#paint6_linear_701_7762)"/>
<path style="mix-blend-mode:screen" d="M41.4526 162.83C39.1116 163.031 36.5191 161.823 33.6747 159.18L32.4161 158.022L38.3062 151.654H38.281L32.3405 158.022L33.5991 159.18C36.4435 161.823 39.0364 163.031 41.3773 162.83C41.4528 162.83 41.5283 162.83 41.6038 162.83C41.5534 162.83 41.5029 162.83 41.4526 162.83Z" fill="url(#paint7_linear_701_7762)"/>
<path style="mix-blend-mode:screen" d="M30.3525 151.704C29.1946 151.83 27.9108 151.654 26.5012 151.251C24.9909 150.798 23.5559 149.942 22.247 148.734C20.334 146.972 19.3273 145.034 19.2518 142.945C19.1762 140.855 20.0069 138.615 21.7689 136.199L19.7299 134.311L22.4234 131.416H22.3982L19.6546 134.336L21.6933 136.224C19.9313 138.615 19.1007 140.88 19.1762 142.97C19.2517 145.059 20.2587 146.997 22.1717 148.759C23.4807 149.993 24.9153 150.823 26.4256 151.276C27.8604 151.704 29.1694 151.855 30.3525 151.729V151.704Z" fill="url(#paint8_linear_701_7762)"/>
</g>
</g>
<g style="mix-blend-mode:luminosity" filter="url(#filter2_f_701_7762)">
<path d="M83.8873 276.304C80.7138 272.144 72.2078 271.405 63.685 274.838C55.1621 278.271 49.5422 284.697 50.134 289.894L49.886 289.883L50.3088 290.903C52.4903 296.315 61.9093 297.628 71.3454 293.823C80.7814 290.024 86.6606 282.555 84.4848 277.138L84.0621 276.112L83.8929 276.298L83.8873 276.304Z" fill="#D16A0D"/>
<path d="M83.459 274.619C83.5886 274.934 83.6618 275.058 83.752 275.306C83.7858 275.402 84.0395 275.994 84.0621 276.118C84.8963 281.366 79.1242 288.13 70.4491 291.625C61.5712 295.199 52.727 294.133 49.8917 289.877C49.8917 289.877 49.4182 288.699 49.2942 288.378C47.1127 282.961 52.9976 275.492 62.4336 271.693C71.8696 267.894 81.2887 269.202 83.4645 274.613L83.459 274.619Z" fill="#D16A0D"/>
<path d="M83.3631 274.382C85.5445 279.793 79.6597 287.268 70.2236 291.067C60.7876 294.866 51.3685 293.558 49.1927 288.147C47.0113 282.736 52.8961 275.261 62.3321 271.462C71.7681 267.663 81.1873 268.97 83.3631 274.382Z" fill="url(#paint9_linear_701_7762)"/>
<g style="mix-blend-mode:screen" opacity="0.5">
<path d="M62.3547 271.518C71.7738 267.725 81.1704 269.021 83.3744 274.41C83.3744 274.399 83.3687 274.393 83.3631 274.382C81.1817 268.965 71.7681 267.657 62.3321 271.462C52.8961 275.261 47.0113 282.73 49.1927 288.147C49.1927 288.158 49.1984 288.164 49.204 288.175C47.0564 282.764 52.9356 275.317 62.3547 271.524V271.518Z" fill="#FEF0A0"/>
</g>
<path d="M80.6631 275.47C82.5007 280.03 77.5459 286.321 69.598 289.517C61.6501 292.718 53.7248 291.613 51.8872 287.053C50.0496 282.493 55.0043 276.202 62.9522 273.006C70.9002 269.805 78.8311 270.909 80.6631 275.47Z" fill="url(#paint10_linear_701_7762)"/>
<path d="M80.6631 275.47C82.5007 280.03 77.5459 286.321 69.598 289.517C61.6501 292.718 53.7248 291.613 51.8872 287.053C50.0496 282.493 55.0043 276.202 62.9522 273.006C70.9002 269.805 78.8311 270.909 80.6631 275.47Z" fill="url(#paint11_linear_701_7762)"/>
<g style="mix-blend-mode:multiply">
<path d="M62.9522 273.006C70.8776 269.816 78.786 270.904 80.6517 275.436C80.6517 275.425 80.6405 275.413 80.6405 275.402C78.8029 270.842 70.8719 269.743 62.9296 272.944C54.9817 276.146 50.0326 282.437 51.8645 286.991C51.8702 287.003 51.8758 287.014 51.8815 287.025C50.089 282.471 55.0324 276.202 62.9578 273.012L62.9522 273.006Z" fill="#FEF0A0"/>
</g>
<g style="mix-blend-mode:screen" opacity="0.3">
<path d="M69.6036 289.517C61.6726 292.707 53.7585 291.619 51.904 287.082C51.904 287.093 51.9096 287.098 51.9153 287.11C53.7529 291.67 61.6783 292.769 69.6262 289.573C77.5741 286.371 82.5289 280.081 80.6913 275.526C80.6913 275.515 80.6856 275.509 80.68 275.498C82.4838 280.052 77.5346 286.326 69.6036 289.517Z" fill="#FEF0A0"/>
</g>
<path opacity="0.4" d="M63.1044 273.378C70.979 270.205 78.786 271.141 80.7138 275.594C80.6969 275.554 80.6856 275.509 80.6631 275.47C78.8311 270.909 70.9002 269.81 62.9523 273.006C55.0043 276.208 50.0552 282.499 51.8872 287.053C51.9041 287.093 51.921 287.132 51.9379 287.177C50.2412 282.628 55.2241 276.546 63.0988 273.373L63.1044 273.378Z" fill="#D16A0D"/>
<g style="mix-blend-mode:multiply" opacity="0.4">
<path d="M71.9484 279.782C71.5031 279.517 71.0296 279.365 70.5167 279.331C70.0093 279.291 69.0905 279.314 67.7715 279.393C66.2158 279.483 65.2632 279.506 64.9193 279.455C64.5642 279.41 64.3106 279.19 64.1471 278.79C64.0513 278.547 64.0513 278.344 64.1415 278.164C64.2373 277.989 64.4233 277.843 64.6995 277.73C65.049 277.589 65.3026 277.567 65.4661 277.662C65.6296 277.758 65.7987 278.029 65.9791 278.48L65.7084 278.716L66.1538 278.902L70.7421 277.054C70.6858 276.828 70.635 276.659 70.5956 276.558C70.2912 275.802 69.705 275.357 68.8256 275.216C67.9519 275.069 66.7851 275.233 65.3252 275.706L64.9983 274.889L64.5529 274.709L64.4458 275.075L62.8845 275.746L63.2114 276.563C61.7007 277.29 60.641 278.023 60.0435 278.773C59.4403 279.517 59.2938 280.272 59.5981 281.033C59.8123 281.557 60.1844 281.958 60.7199 282.228C61.2554 282.499 61.8191 282.645 62.4166 282.668C63.0141 282.696 64.1076 282.668 65.7084 282.595C66.6667 282.55 67.2642 282.617 67.5123 282.803C67.7546 282.989 67.9914 283.372 68.2225 283.942C68.3127 284.167 68.307 284.37 68.1999 284.545C68.0928 284.72 67.8899 284.872 67.5743 284.996C67.2135 285.142 66.9486 285.154 66.7851 285.024C66.6216 284.894 66.4018 284.489 66.1256 283.801L66.0016 283.497L65.8719 283.175L65.4266 282.989L65.0828 283.406L61.2779 285.024L61.4808 285.526C61.9374 286.664 62.7153 287.273 63.8145 287.358C64.9137 287.448 66.0918 287.273 67.3488 286.85L67.3037 287.656L67.7434 287.842L69.8572 286.991L69.4682 286.033C70.9958 285.278 72.0442 284.483 72.6248 283.649C73.2054 282.814 73.3126 281.941 72.9462 281.033C72.7207 280.464 72.3825 280.047 71.9372 279.787L71.9484 279.782Z" fill="#AA7E03"/>
</g>
<path d="M70.2971 276.873L65.7087 278.722L65.5396 278.299C65.3593 277.848 65.1845 277.572 65.0267 277.482C64.8632 277.386 64.6096 277.409 64.2601 277.55C63.9782 277.662 63.7922 277.809 63.702 277.984C63.6118 278.158 63.6118 278.367 63.7077 278.609C63.8711 279.01 64.1248 279.229 64.4799 279.275C64.8238 279.32 65.7763 279.303 67.3321 279.213C68.6568 279.134 69.5699 279.111 70.0829 279.151C70.5902 279.184 71.0637 279.337 71.509 279.601C71.9543 279.866 72.2925 280.278 72.518 280.847C72.8844 281.755 72.7773 282.628 72.1967 283.463C71.6161 284.297 70.5677 285.092 69.0401 285.847L69.4291 286.805L67.3152 287.656L66.915 286.664C65.6636 287.093 64.4855 287.262 63.3807 287.172C62.2815 287.082 61.5037 286.473 61.0471 285.334L60.8441 284.838L65.4325 282.989L65.6862 283.615C65.9624 284.303 66.1822 284.708 66.34 284.838C66.5035 284.968 66.7628 284.956 67.1292 284.81C67.4392 284.686 67.6478 284.534 67.7492 284.359C67.8563 284.184 67.862 283.981 67.7718 283.75C67.5407 283.181 67.3039 282.798 67.0616 282.612C66.8192 282.426 66.2217 282.352 65.2634 282.403C63.6682 282.482 62.569 282.504 61.9715 282.476C61.374 282.448 60.8104 282.302 60.2749 282.031C59.7394 281.76 59.3673 281.366 59.1531 280.842C58.8487 280.081 58.9953 279.325 59.5984 278.581C60.2016 277.837 61.2556 277.099 62.7663 276.372L62.4394 275.56L64.5532 274.709L64.8801 275.52C66.3344 275.053 67.5013 274.889 68.3806 275.03C69.2543 275.171 69.8461 275.622 70.1505 276.377C70.1956 276.484 70.2407 276.648 70.2971 276.873Z" fill="white"/>
<g style="mix-blend-mode:screen" opacity="0.7">
<path style="mix-blend-mode:screen" d="M64.908 275.509V275.52C66.1763 275.114 67.2247 274.934 68.0533 274.99C67.2247 274.928 66.1763 275.103 64.908 275.509Z" fill="url(#paint12_linear_701_7762)"/>
<path style="mix-blend-mode:screen" d="M64.8461 277.426C64.9137 277.431 64.9757 277.448 65.0208 277.482C65.1843 277.578 65.3534 277.848 65.5338 278.299L65.7029 278.722L65.731 278.711L65.5676 278.299C65.3872 277.848 65.2181 277.578 65.049 277.482C64.9926 277.448 64.9194 277.431 64.8405 277.426H64.8461Z" fill="url(#paint13_linear_701_7762)"/>
<path style="mix-blend-mode:screen" d="M67.7887 284.359C67.8958 284.184 67.9015 283.981 67.8113 283.75C67.5802 283.181 67.3434 282.797 67.101 282.611C66.9545 282.499 66.6783 282.425 66.2668 282.403C66.6557 282.431 66.9206 282.504 67.0672 282.611C67.3096 282.803 67.5463 283.181 67.7774 283.75C67.8676 283.976 67.8619 284.179 67.7548 284.359C67.6534 284.534 67.4448 284.686 67.1348 284.81C66.9262 284.894 66.7515 284.934 66.6106 284.928C66.7572 284.945 66.9432 284.906 67.1687 284.815C67.4787 284.691 67.6872 284.539 67.7887 284.365V284.359Z" fill="url(#paint14_linear_701_7762)"/>
<path style="mix-blend-mode:screen" d="M70.0772 279.145C69.5698 279.105 68.651 279.128 67.3264 279.207C65.9454 279.286 65.0435 279.308 64.6151 279.28C65.0266 279.314 65.9398 279.286 67.3602 279.207C68.6567 279.128 69.5642 279.111 70.0772 279.145Z" fill="url(#paint15_linear_701_7762)"/>
<path style="mix-blend-mode:screen" d="M66.9487 286.67C66.9487 286.67 66.9318 286.676 66.9205 286.681L67.3152 287.662L67.3433 287.651L66.9487 286.676V286.67Z" fill="url(#paint16_linear_701_7762)"/>
<path style="mix-blend-mode:screen" d="M63.4143 287.177C62.3151 287.087 61.5372 286.478 61.075 285.34L60.8777 284.844L65.4379 283.006V282.989L60.8439 284.838L61.0469 285.334C61.5034 286.473 62.2813 287.082 63.3804 287.172C63.4143 287.172 63.4538 287.177 63.4876 287.177C63.465 287.177 63.4368 287.177 63.4143 287.177Z" fill="url(#paint17_linear_701_7762)"/>
<path style="mix-blend-mode:screen" d="M61.8814 282.471C61.3346 282.431 60.8103 282.285 60.3143 282.037C59.7788 281.766 59.4068 281.371 59.1926 280.842C58.8882 280.081 59.0348 279.325 59.6323 278.581C60.2354 277.837 61.2895 277.099 62.8002 276.372L62.4732 275.56L64.5588 274.72V274.709L62.4394 275.56L62.7663 276.372C61.2556 277.099 60.1959 277.832 59.5984 278.581C58.9953 279.325 58.8487 280.081 59.1531 280.842C59.3616 281.366 59.7394 281.766 60.2749 282.031C60.7822 282.285 61.3177 282.431 61.8814 282.471Z" fill="url(#paint18_linear_701_7762)"/>
</g>
</g>
<g style="mix-blend-mode:luminosity" filter="url(#filter3_f_701_7762)">
<g style="mix-blend-mode:multiply">
<path d="M104.248 43.2946C104.449 42.7459 104.632 42.1897 104.771 41.6371C104.933 41.0303 105.094 40.4236 105.22 39.8022C105.349 39.1194 105.467 38.4112 105.56 37.7138C105.654 36.9115 105.711 36.0946 105.725 35.2812C105.758 34.2654 105.711 33.2384 105.596 32.2256C105.418 30.5365 105.085 28.8685 104.56 27.207C104.224 26.168 103.827 25.1252 103.354 24.1146C102.88 23.1041 102.331 22.1258 101.76 21.2016L101.34 20.3178L101.213 20.3715L100.279 20.8126L99.2105 21.3255L98.1419 21.8383L97.0733 22.3511L96.0046 22.864L94.9362 23.3769L93.8496 23.8824L92.7809 24.3953L91.6945 24.9008L90.6258 25.4137L89.5391 25.9192L88.4708 26.4321L87.4021 26.9449L86.3335 27.4577L85.247 27.9634L84.1784 28.4762L83.1098 28.989L82.0231 29.4945L80.9547 30.0074L79.868 30.5129L78.7994 31.0258L77.731 31.5387L76.6624 32.0515L75.5757 32.557L74.5073 33.0699L73.4206 33.5755L72.352 34.0883L71.2834 34.6011L70.215 35.114L69.1283 35.6195L68.0597 36.1324L66.9913 36.6453L65.9046 37.1508L64.836 37.6636L63.7676 38.1765L62.6809 38.6821L61.6123 39.1949L60.5438 39.7078L59.4752 40.2206L58.4066 40.7334L57.338 41.2463L56.4035 41.6873L56.2696 41.7592L56.6891 42.643C57.025 43.6819 57.4221 44.7247 57.8954 45.7352C58.3687 46.7458 58.9001 47.7168 59.4894 48.6483C60.4273 50.1198 61.503 51.4581 62.6733 52.6666C63.3863 53.3961 64.1575 54.0861 64.9505 54.7219C65.5848 55.2305 66.2517 55.7104 66.9333 56.1541C67.5139 56.536 68.1271 56.889 68.7476 57.2241C69.296 57.5299 69.8772 57.807 70.4474 58.0587C70.9816 58.2957 71.5302 58.4967 72.0536 58.7084C72.5663 58.8948 73.0864 59.0632 73.6137 59.2135C74.1048 59.3492 74.5959 59.4848 75.0943 59.6024C75.5748 59.7127 76.0627 59.8051 76.5324 59.8901C77.002 59.9751 77.4609 60.0347 77.9271 60.0763C78.386 60.1359 78.8343 60.1702 79.2898 60.1864C79.7199 60.2134 80.1752 60.2296 80.62 60.2205C81.0393 60.2221 81.4843 60.2131 81.9183 60.1786C82.3449 60.1622 82.7608 60.1204 83.1768 60.0786C83.5927 60.0369 83.9905 59.9878 84.4137 59.928C84.8189 59.8608 85.2241 59.7938 85.6186 59.7013C86.0057 59.6269 86.4002 59.5344 86.802 59.4239C87.1964 59.3314 87.5801 59.2136 87.9638 59.0958C88.3475 58.9779 88.7131 58.8528 89.1041 58.7169C89.4697 58.5918 89.8428 58.4487 90.223 58.2875C90.5779 58.1371 90.9581 57.9758 91.3203 57.8073C91.6825 57.6388 92.0267 57.463 92.3781 57.2691C92.7296 57.0752 93.0738 56.8994 93.4145 56.6802C93.7659 56.4863 94.1066 56.2671 94.4219 56.0587C94.7627 55.8394 95.0855 55.6129 95.4154 55.3684C95.7454 55.1238 96.0753 54.8792 96.3872 54.6273C96.6991 54.3755 97.0184 54.1056 97.3195 53.8284C97.6388 53.5584 97.9472 53.2632 98.2304 52.9787C98.5388 52.6834 98.8292 52.3809 99.1197 52.0783C99.4174 51.7577 99.697 51.4297 99.9767 51.1018C100.264 50.7558 100.532 50.4025 100.801 50.0492C101.078 49.6779 101.336 49.2994 101.587 48.9388C101.852 48.5421 102.1 48.1381 102.329 47.7269C102.584 47.3049 102.82 46.8755 103.039 46.4389C103.265 45.9842 103.498 45.5116 103.706 45.0496C103.91 44.5442 104.115 44.0388 104.319 43.5335L104.248 43.2946Z" fill="#D16A0D"/>
</g>
<path d="M79.7799 8.61412C93.6605 8.41148 105.086 19.523 105.27 33.3962C105.473 47.2768 94.3613 58.7017 80.488 58.8863C66.6075 59.089 55.1824 47.9775 54.9979 34.1042C54.7952 20.2237 65.9067 8.79871 79.7799 8.61412Z" fill="url(#paint19_linear_701_7762)"/>
<g style="mix-blend-mode:screen" opacity="0.5">
<path d="M69.5233 11.1225C82.0702 5.23477 97.0246 10.6331 102.927 23.1439C102.927 23.1439 102.905 23.0932 102.895 23.0678C96.9961 10.4956 82.0311 5.07197 69.4589 10.9704C56.8866 16.8689 51.4629 31.8338 57.3614 44.4061L57.3937 44.4821C51.5566 31.9138 56.9837 16.9922 69.5233 11.1225Z" fill="#FEF0A0"/>
</g>
<path d="M99.291 24.7603C104.246 35.3549 99.6922 47.9623 89.0977 52.9176C78.5032 57.8729 65.8958 53.3189 60.9404 42.7244C55.9851 32.1299 60.5392 19.5225 71.1337 14.5672C81.7283 9.61186 94.3357 14.1658 99.291 24.7603Z" fill="url(#paint20_linear_701_7762)"/>
<path d="M88.1256 32.4249C87.3077 31.695 86.4997 31.2001 85.7051 30.9837C84.8998 30.7419 83.5196 30.5196 81.521 30.3202C79.1683 30.0616 77.7267 29.8354 77.178 29.6345C76.6111 29.4262 76.1108 28.8457 75.6589 27.8858C75.3864 27.3135 75.2872 26.8323 75.3356 26.4529C75.3841 26.0735 75.5983 25.8031 75.9678 25.6165C76.4314 25.405 76.8255 25.4174 77.1173 25.6825C77.4092 25.9476 77.8114 26.6143 78.317 27.7009L78.5071 28.1139L78.1956 28.2609L78.7904 28.7115L84.9044 25.8502C84.704 25.3071 84.5429 24.9269 84.4174 24.6661C83.5748 22.855 82.4405 21.6611 81.0146 21.0843C79.5887 20.5075 77.8787 20.5298 75.8949 21.1765L74.9804 19.2314L74.3856 18.7808L74.6689 19.3784L72.1589 20.5473L73.0732 22.4923C71.1161 23.6959 69.8634 25.0794 69.3115 26.5993C68.7597 28.1193 68.9196 29.8011 69.7802 31.6194C70.361 32.8835 71.1487 33.8952 72.1002 34.6582C73.0517 35.4211 74.0006 35.931 74.9361 36.1625C75.8716 36.3939 77.5266 36.6642 79.9514 36.9521C81.397 37.1168 82.35 37.4603 82.818 37.9647C83.2861 38.4691 83.8321 39.404 84.4739 40.7768C84.7357 41.3237 84.8244 41.7797 84.7579 42.1518C84.6913 42.5239 84.4515 42.805 84.0386 42.995C83.5497 43.2172 83.1522 43.1615 82.8462 42.8277C82.5402 42.4938 81.9982 41.4975 81.2128 39.8566L80.8757 39.1322L80.5172 38.3571L79.9222 37.9064L80.2055 38.504L74.403 41.2184L74.9696 42.4137C76.2425 45.1339 77.7512 46.7523 79.4882 47.2869C81.2324 47.8035 82.9498 47.7631 84.6586 47.1732L85.4977 48.9408L85.1862 49.0879L85.781 49.5385L88.6028 48.2227L87.5197 45.9154C89.4879 44.6323 90.7049 43.1294 91.1708 41.4066C91.6367 39.6839 91.3587 37.7232 90.3295 35.5427C89.6877 34.1699 88.9507 33.1367 88.1509 32.4141L88.1256 32.4249Z" fill="#D16A0D"/>
<path d="M84.3096 25.3997L78.1956 28.2611L77.7222 27.2505C77.2167 26.1639 76.8144 25.4971 76.5226 25.232C76.2308 24.967 75.8366 24.9546 75.373 25.1661C75.0108 25.3346 74.7893 25.623 74.7301 25.9771C74.6816 26.3566 74.7882 26.8197 75.0534 27.4101C75.5052 28.3699 76.0056 28.9503 76.5725 29.1586C77.1139 29.3777 78.5809 29.5931 80.9155 29.8444C82.9067 30.0619 84.3123 30.2734 85.0996 30.5078C85.9049 30.7496 86.7022 31.2191 87.52 31.949C88.3379 32.6789 89.0678 33.7303 89.6989 35.0777C90.728 37.2582 91.0058 39.2188 90.5399 40.9416C90.0668 42.6824 88.8497 44.1853 86.8888 45.4503L87.9719 47.7576L85.1502 49.0734L84.0351 46.6901C82.319 47.2981 80.6015 47.3384 78.8646 46.8038C77.1276 46.2692 75.6191 44.6508 74.3462 41.9307L73.7796 40.7354L79.8937 37.874L80.5892 39.3735C81.3566 41.0071 81.8986 42.0034 82.2226 42.3445C82.5287 42.6783 82.9261 42.7341 83.415 42.5119C83.8279 42.3218 84.0678 42.0408 84.1343 41.6687C84.2008 41.2965 84.1121 40.8407 83.8504 40.2937C83.2085 38.9209 82.6446 37.9787 82.1766 37.4744C81.7086 36.97 80.748 36.6444 79.3098 36.4617C76.8849 36.1738 75.23 35.9034 74.2945 35.672C73.359 35.4406 72.4354 34.92 71.4586 34.1678C70.5071 33.4048 69.7266 32.3751 69.1385 31.129C68.2779 29.3107 68.1183 27.6289 68.6701 26.109C69.222 24.589 70.4674 23.2236 72.4317 22.002L71.5173 20.0569L74.3388 18.741L75.2532 20.6861C77.2551 20.0467 78.9652 20.0244 80.391 20.6012C81.8169 21.178 82.9439 22.39 83.7938 24.183C83.9013 24.4365 84.0805 24.824 84.2808 25.3671L84.3096 25.3997Z" fill="white"/>
<g style="mix-blend-mode:screen" opacity="0.7">
<path style="mix-blend-mode:screen" d="M75.3324 20.6972L75.3505 20.7045C77.0808 20.1653 78.5926 20.0628 79.8891 20.4402C78.5926 20.0628 77.0702 20.14 75.3146 20.69L75.3324 20.6972Z" fill="url(#paint21_linear_701_7762)"/>
<path style="mix-blend-mode:screen" d="M76.194 25.0571C76.3023 25.1009 76.4107 25.1448 76.4971 25.2427C76.7889 25.5078 77.1912 26.1746 77.6968 27.2612L78.1701 28.2718L78.1847 28.2356L77.7582 27.2651C77.2527 26.1785 76.8504 25.5117 76.5586 25.2466C76.4469 25.1594 76.3277 25.0902 76.2121 25.0644L76.194 25.0571Z" fill="url(#paint22_linear_701_7762)"/>
<path style="mix-blend-mode:screen" d="M84.2351 41.7304C84.3016 41.3583 84.2129 40.9024 83.9511 40.3554C83.3093 38.9827 82.7454 38.0405 82.2954 37.5434C82.0182 37.2423 81.5527 36.9909 80.9099 36.8149C81.5274 37.0017 81.9567 37.2384 82.2412 37.5215C82.7093 38.0259 83.2734 38.9681 83.9152 40.3409C84.177 40.8879 84.2655 41.3437 84.1989 41.7158C84.1324 42.088 83.8928 42.3691 83.4799 42.5591C83.201 42.6773 82.9513 42.7233 82.7381 42.6791C82.9728 42.774 83.2479 42.7173 83.5341 42.581C83.947 42.391 84.1866 42.1099 84.2531 41.7377L84.2351 41.7304Z" fill="url(#paint23_linear_701_7762)"/>
<path style="mix-blend-mode:screen" d="M85.1175 30.5151C84.3122 30.2734 82.932 30.0511 80.9334 29.8517C78.8627 29.6231 77.4752 29.4189 76.8143 29.2355C77.4679 29.4369 78.8554 29.6412 80.9876 29.8736C82.9428 30.0765 84.323 30.2987 85.1356 30.5225L85.1175 30.5151Z" fill="url(#paint24_linear_701_7762)"/>
<path style="mix-blend-mode:screen" d="M84.0999 46.7373L84.0637 46.7227L85.1608 49.0987L85.1754 49.0625L84.0999 46.7373Z" fill="url(#paint25_linear_701_7762)"/>
<path style="mix-blend-mode:screen" d="M78.9399 46.8761C77.2029 46.3415 75.6944 44.7231 74.4215 42.0029L73.8549 40.8076L79.9255 37.9497L79.9075 37.9424L73.8007 40.7857L74.3673 41.981C75.6402 44.7012 77.149 46.3196 78.8859 46.8543C78.9401 46.8762 78.9941 46.8981 79.0483 46.92C79.0122 46.9054 78.976 46.8907 78.9399 46.8761Z" fill="url(#paint26_linear_701_7762)"/>
<path style="mix-blend-mode:screen" d="M74.2077 35.6789C73.3409 35.4333 72.4715 34.9346 71.5776 34.2369C70.626 33.474 69.8454 32.4441 69.2573 31.1981C68.3967 29.3798 68.237 27.698 68.7889 26.1781C69.3407 24.6581 70.5861 23.2927 72.5505 22.0711L71.636 20.126L74.407 18.8316L74.3889 18.8243L71.5747 20.1222L72.489 22.0672C70.532 23.2708 69.2792 24.6543 68.7274 26.1742C68.1755 27.6942 68.3354 29.376 69.196 31.1943C69.7768 32.4584 70.5645 33.4701 71.5161 34.2331C72.4207 34.9561 73.3156 35.4441 74.2004 35.697L74.2077 35.6789Z" fill="url(#paint27_linear_701_7762)"/>
</g>
</g>
<g filter="url(#filter4_f_701_7762)">
<path d="M90.9489 196.666C89.4998 225.171 111.434 249.455 139.94 250.904C168.445 252.353 192.729 230.419 194.178 201.913C195.627 173.407 173.693 149.125 145.187 147.676C116.681 146.227 92.3979 168.16 90.9489 196.666Z" fill="url(#paint28_radial_701_7762)" style="mix-blend-mode:luminosity"/>
<path fill-rule="evenodd" clip-rule="evenodd" d="M111.595 197.716C110.725 214.819 123.886 229.39 140.989 230.259C158.093 231.128 172.663 217.968 173.532 200.864C174.402 183.761 161.241 169.191 144.138 168.322C127.034 167.452 112.464 180.612 111.595 197.716ZM140.727 235.42C120.773 234.406 105.419 217.407 106.433 197.453C107.448 177.499 124.446 162.146 144.4 163.16C164.354 164.175 179.708 181.172 178.694 201.127C177.679 221.081 160.681 236.435 140.727 235.42Z" fill="#683EE6"/>
<path fill-rule="evenodd" clip-rule="evenodd" d="M93.2601 214.831C91.459 209.12 90.6273 202.997 90.9492 196.666C91.271 190.334 92.7193 184.327 95.0901 178.829C96.8911 184.539 97.7228 190.662 97.401 196.994C97.0791 203.325 95.6308 209.332 93.2601 214.831Z" fill="#9D7CFF"/>
<path fill-rule="evenodd" clip-rule="evenodd" d="M158.105 248.594C152.606 246.223 146.599 244.775 140.268 244.453C133.937 244.131 127.814 244.963 122.103 246.764C127.602 249.134 133.609 250.583 139.94 250.905C146.271 251.226 152.394 250.395 158.105 248.594Z" fill="#9D7CFF"/>
<path fill-rule="evenodd" clip-rule="evenodd" d="M127.022 149.987C132.521 152.358 138.528 153.806 144.859 154.128C151.191 154.45 157.314 153.618 163.025 151.817C157.526 149.446 151.519 147.998 145.187 147.676C138.856 147.354 132.733 148.186 127.022 149.987Z" fill="#9D7CFF"/>
<path fill-rule="evenodd" clip-rule="evenodd" d="M190.037 219.751C188.236 214.04 187.404 207.917 187.726 201.586C188.048 195.254 189.496 189.247 191.867 183.748C193.668 189.459 194.5 195.582 194.178 201.913C193.856 208.245 192.408 214.252 190.037 219.751Z" fill="#9D7CFF"/>
<path d="M129.417 196.324C129.494 194.973 129.787 193.68 130.296 192.445C130.804 191.219 131.584 190.135 132.635 189.194C133.686 188.252 135.052 187.533 136.733 187.035C138.413 186.546 140.454 186.363 142.858 186.485C145.064 186.605 147.023 186.958 148.734 187.542C150.453 188.136 151.897 188.929 153.064 189.924C154.231 190.926 155.097 192.098 155.664 193.439C156.239 194.78 156.485 196.263 156.402 197.889C156.313 199.642 155.892 201.173 155.14 202.481C154.396 203.789 153.421 204.82 152.217 205.574C151.012 206.336 149.682 206.766 148.228 206.863L148.506 201.385C149.433 201.217 150.174 200.805 150.73 200.147C151.287 199.489 151.591 198.656 151.642 197.647C151.729 195.936 151.051 194.598 149.608 193.633C148.165 192.676 146.164 192.124 143.608 191.977L143.599 192.157C144.357 192.59 144.993 193.154 145.506 193.849C146.028 194.553 146.413 195.34 146.66 196.21C146.915 197.089 147.019 198.008 146.97 198.966C146.891 200.522 146.453 201.889 145.655 203.066C144.867 204.244 143.817 205.151 142.507 205.788C141.197 206.424 139.721 206.701 138.078 206.617C136.299 206.527 134.738 206.032 133.394 205.132C132.051 204.24 131.023 203.034 130.311 201.515C129.607 200.004 129.309 198.274 129.417 196.324ZM133.781 196.52C133.737 197.375 133.904 198.151 134.28 198.848C134.656 199.544 135.185 200.103 135.867 200.524C136.549 200.944 137.326 201.177 138.198 201.221C139.071 201.265 139.863 201.113 140.576 200.763C141.288 200.422 141.866 199.928 142.31 199.282C142.755 198.635 142.999 197.885 143.042 197.029C143.075 196.388 142.985 195.787 142.774 195.228C142.562 194.677 142.252 194.185 141.845 193.753C141.438 193.329 140.958 192.987 140.405 192.727C139.861 192.468 139.272 192.323 138.639 192.29C137.793 192.247 137.009 192.4 136.288 192.75C135.566 193.108 134.979 193.609 134.526 194.255C134.073 194.91 133.824 195.665 133.781 196.52Z" fill="white"/>
</g>
<g filter="url(#filter5_f_701_7762)">
<path d="M118.498 109.708C126.752 117.962 140.134 117.962 148.388 109.708C156.642 101.454 156.642 88.0721 148.388 79.8183C140.134 71.5645 126.753 71.5647 118.499 79.8185C110.245 88.0723 110.245 101.454 118.498 109.708Z" fill="url(#paint29_radial_701_7762)" style="mix-blend-mode:luminosity"/>
<path d="M143.198 104.518C137.811 109.905 129.076 109.905 123.689 104.518C118.302 99.1304 118.302 90.3963 123.689 85.0091C129.076 79.622 137.81 79.6219 143.198 85.009C148.585 90.3962 148.585 99.1305 143.198 104.518Z" stroke="#683EE6" stroke-width="2"/>
<path fill-rule="evenodd" clip-rule="evenodd" d="M124.645 113.986C122.418 112.967 120.332 111.541 118.498 109.708C116.665 107.875 115.239 105.788 114.22 103.562C116.447 104.581 118.533 106.007 120.367 107.84C122.2 109.673 123.626 111.759 124.645 113.986Z" fill="#9D7CFF"/>
<path fill-rule="evenodd" clip-rule="evenodd" d="M142.242 113.986C143.261 111.759 144.687 109.673 146.52 107.84C148.354 106.007 150.44 104.581 152.666 103.562C151.647 105.789 150.221 107.875 148.388 109.708C146.555 111.541 144.469 112.967 142.242 113.986Z" fill="#9D7CFF"/>
<path fill-rule="evenodd" clip-rule="evenodd" d="M114.221 85.9649C116.447 84.946 118.534 83.52 120.367 81.6867C122.2 79.8535 123.626 77.7672 124.645 75.5404C122.418 76.5593 120.332 77.9853 118.499 79.8186C116.665 81.6518 115.239 83.7381 114.221 85.9649Z" fill="#9D7CFF"/>
<path fill-rule="evenodd" clip-rule="evenodd" d="M152.666 85.9647C150.439 84.9458 148.353 83.5197 146.52 81.6865C144.687 79.8532 143.261 77.767 142.242 75.5402C144.469 76.5591 146.555 77.9851 148.388 79.8183C150.221 81.6516 151.647 83.7378 152.666 85.9647Z" fill="#9D7CFF"/>
<path d="M128.853 97.8531C128.281 97.281 127.865 96.6792 127.605 96.0477C127.349 95.4161 127.258 94.8118 127.33 94.2348C127.401 93.6577 127.643 93.1636 128.054 92.7525C128.371 92.4355 128.734 92.2163 129.143 92.0949C129.556 91.9736 129.976 91.9501 130.402 92.0244C130.83 92.0962 131.224 92.2621 131.583 92.5222L131.635 92.4702C131.311 91.9823 131.178 91.456 131.238 90.8913C131.3 90.3241 131.539 89.8325 131.955 89.4164C132.349 89.0227 132.814 88.7874 133.352 88.7106C133.892 88.6313 134.45 88.7044 135.027 88.9298C135.609 89.1552 136.156 89.5242 136.669 90.0368C137.182 90.5495 137.55 91.0956 137.772 91.6751C137.998 92.2572 138.071 92.8181 137.992 93.358C137.915 93.8955 137.682 94.3611 137.293 94.7549C136.872 95.1709 136.378 95.4075 135.811 95.4644C135.244 95.5214 134.72 95.3914 134.24 95.0743L134.188 95.1264C134.443 95.4805 134.605 95.8706 134.674 96.2966C134.748 96.7226 134.725 97.1424 134.604 97.556C134.487 97.9696 134.272 98.3361 133.957 98.6556C133.544 99.0642 133.048 99.3045 132.471 99.3763C131.894 99.4481 131.289 99.3552 130.655 99.0977C130.026 98.8401 129.425 98.4253 128.853 97.8531ZM130.034 96.6718C130.289 96.9269 130.558 97.104 130.84 97.203C131.125 97.2996 131.403 97.3194 131.672 97.2625C131.947 97.2055 132.193 97.0693 132.408 96.8538C132.628 96.6334 132.767 96.3833 132.824 96.1034C132.884 95.8211 132.866 95.5362 132.772 95.249C132.68 94.9592 132.511 94.6905 132.263 94.4428C132.018 94.1976 131.749 94.028 131.457 93.9339C131.167 93.8373 130.881 93.8187 130.599 93.8781C130.321 93.9376 130.073 94.0775 129.852 94.2979C129.637 94.5134 129.499 94.7573 129.44 95.0298C129.383 95.2997 129.404 95.5783 129.503 95.8656C129.604 96.1505 129.782 96.4192 130.034 96.6718ZM133.433 93.2726C133.646 93.4856 133.879 93.6317 134.132 93.711C134.384 93.7902 134.635 93.8001 134.882 93.7407C135.13 93.6812 135.354 93.5512 135.555 93.3506C135.753 93.1525 135.879 92.932 135.934 92.6893C135.991 92.4441 135.979 92.1977 135.9 91.9501C135.823 91.6999 135.676 91.4659 135.458 91.2479C135.243 91.0325 135.009 90.8851 134.756 90.8058C134.506 90.7241 134.258 90.7117 134.013 90.7687C133.773 90.8257 133.553 90.9532 133.355 91.1513C133.155 91.3519 133.025 91.5761 132.965 91.8237C132.906 92.0714 132.916 92.3216 132.995 92.5742C133.074 92.8268 133.22 93.0596 133.433 93.2726Z" fill="white"/>
</g>
</g>
<defs>
<filter id="filter0_d_701_7762" x="0" y="8" width="198.246" height="296" filterUnits="userSpaceOnUse" color-interpolation-filters="sRGB">
<feFlood flood-opacity="0" result="BackgroundImageFix"/>
<feColorMatrix in="SourceAlpha" type="matrix" values="0 0 0 0 0 0 0 0 0 0 0 0 0 0 0 0 0 0 127 0" result="hardAlpha"/>
<feOffset dy="4"/>
<feGaussianBlur stdDeviation="2"/>
<feComposite in2="hardAlpha" operator="out"/>
<feColorMatrix type="matrix" values="0 0 0 0 0 0 0 0 0 0 0 0 0 0 0 0 0 0 0.25 0"/>
<feBlend mode="normal" in2="BackgroundImageFix" result="effect1_dropShadow_701_7762"/>
<feBlend mode="normal" in="SourceGraphic" in2="effect1_dropShadow_701_7762" result="shape"/>
</filter>
<filter id="filter1_f_701_7762" x="0" y="110" width="74.2496" height="74.3607" filterUnits="userSpaceOnUse" color-interpolation-filters="sRGB">
<feFlood flood-opacity="0" result="BackgroundImageFix"/>
<feBlend mode="normal" in="SourceGraphic" in2="BackgroundImageFix" result="shape"/>
<feGaussianBlur stdDeviation="2" result="effect1_foregroundBlur_701_7762"/>
</filter>
<filter id="filter2_f_701_7762" x="40.7384" y="261.283" width="52.199" height="42.7166" filterUnits="userSpaceOnUse" color-interpolation-filters="sRGB">
<feFlood flood-opacity="0" result="BackgroundImageFix"/>
<feBlend mode="normal" in="SourceGraphic" in2="BackgroundImageFix" result="shape"/>
<feGaussianBlur stdDeviation="4" result="effect1_foregroundBlur_701_7762"/>
</filter>
<filter id="filter3_f_701_7762" x="46.9771" y="0.58606" width="66.7585" height="67.637" filterUnits="userSpaceOnUse" color-interpolation-filters="sRGB">
<feFlood flood-opacity="0" result="BackgroundImageFix"/>
<feBlend mode="normal" in="SourceGraphic" in2="BackgroundImageFix" result="shape"/>
<feGaussianBlur stdDeviation="4" result="effect1_foregroundBlur_701_7762"/>
</filter>
<filter id="filter4_f_701_7762" x="83.881" y="140.608" width="117.365" height="117.364" filterUnits="userSpaceOnUse" color-interpolation-filters="sRGB">
<feFlood flood-opacity="0" result="BackgroundImageFix"/>
<feBlend mode="normal" in="SourceGraphic" in2="BackgroundImageFix" result="shape"/>
<feGaussianBlur stdDeviation="3.5" result="effect1_foregroundBlur_701_7762"/>
</filter>
<filter id="filter5_f_701_7762" x="104.308" y="65.6281" width="58.2703" height="58.2702" filterUnits="userSpaceOnUse" color-interpolation-filters="sRGB">
<feFlood flood-opacity="0" result="BackgroundImageFix"/>
<feBlend mode="normal" in="SourceGraphic" in2="BackgroundImageFix" result="shape"/>
<feGaussianBlur stdDeviation="4" result="effect1_foregroundBlur_701_7762"/>
</filter>
<linearGradient id="paint0_linear_701_7762" x1="17.0415" y1="172.565" x2="56.3529" y2="120.741" gradientUnits="userSpaceOnUse">
<stop stop-color="#FFD08D"/>
<stop offset="0.58" stop-color="#FFDC2A"/>
<stop offset="0.81" stop-color="#F3C237"/>
<stop offset="1" stop-color="#EBB140"/>
</linearGradient>
<linearGradient id="paint1_linear_701_7762" x1="56.9671" y1="164.888" x2="16.8237" y2="127.624" gradientUnits="userSpaceOnUse">
<stop stop-color="#FFAA3F"/>
<stop offset="0.58" stop-color="#FFAF2A"/>
<stop offset="0.71" stop-color="#F8A631"/>
<stop offset="1" stop-color="#EC9540"/>
</linearGradient>
<linearGradient id="paint2_linear_701_7762" x1="28.3305" y1="132.433" x2="26.707" y2="130.926" gradientUnits="userSpaceOnUse">
<stop offset="0.04" stop-color="#F8DA36"/>
<stop offset="0.11" stop-color="#F1CD21"/>
<stop offset="0.19" stop-color="#EBC412"/>
<stop offset="0.28" stop-color="#E8BE09"/>
<stop offset="0.42" stop-color="#E8BD07"/>
<stop offset="0.51" stop-color="#EFCB1B"/>
<stop offset="0.64" stop-color="#F8DB33"/>
<stop offset="0.77" stop-color="#FDE542"/>
<stop offset="0.87" stop-color="#FFE947"/>
<stop offset="1" stop-color="#FFEC63"/>
</linearGradient>
<linearGradient id="paint3_linear_701_7762" x1="31.7587" y1="140.801" x2="28.1982" y2="137.496" gradientUnits="userSpaceOnUse">
<stop offset="0.04" stop-color="#F8DA36"/>
<stop offset="0.11" stop-color="#F1CD21"/>
<stop offset="0.19" stop-color="#EBC412"/>
<stop offset="0.28" stop-color="#E8BE09"/>
<stop offset="0.42" stop-color="#E8BD07"/>
<stop offset="0.51" stop-color="#EFCB1B"/>
<stop offset="0.64" stop-color="#F8DB33"/>
<stop offset="0.77" stop-color="#FDE542"/>
<stop offset="0.87" stop-color="#FFE947"/>
<stop offset="1" stop-color="#FFEC63"/>
</linearGradient>
<linearGradient id="paint4_linear_701_7762" x1="45.4817" y1="154.914" x2="39.486" y2="149.348" gradientUnits="userSpaceOnUse">
<stop offset="0.04" stop-color="#F8DA36"/>
<stop offset="0.11" stop-color="#F1CD21"/>
<stop offset="0.19" stop-color="#EBC412"/>
<stop offset="0.28" stop-color="#E8BE09"/>
<stop offset="0.42" stop-color="#E8BD07"/>
<stop offset="0.51" stop-color="#EFCB1B"/>
<stop offset="0.64" stop-color="#F8DB33"/>
<stop offset="0.77" stop-color="#FDE542"/>
<stop offset="0.87" stop-color="#FFE947"/>
<stop offset="1" stop-color="#FFEC63"/>
</linearGradient>
<linearGradient id="paint5_linear_701_7762" x1="38.244" y1="143.249" x2="33.7979" y2="139.122" gradientUnits="userSpaceOnUse">
<stop offset="0.04" stop-color="#F8DA36"/>
<stop offset="0.11" stop-color="#F1CD21"/>
<stop offset="0.19" stop-color="#EBC412"/>
<stop offset="0.28" stop-color="#E8BE09"/>
<stop offset="0.42" stop-color="#E8BD07"/>
<stop offset="0.51" stop-color="#EFCB1B"/>
<stop offset="0.64" stop-color="#F8DB33"/>
<stop offset="0.77" stop-color="#FDE542"/>
<stop offset="0.87" stop-color="#FFE947"/>
<stop offset="1" stop-color="#FFEC63"/>
</linearGradient>
<linearGradient id="paint6_linear_701_7762" x1="50.4011" y1="162.194" x2="47.9475" y2="159.916" gradientUnits="userSpaceOnUse">
<stop offset="0.04" stop-color="#F8DA36"/>
<stop offset="0.11" stop-color="#F1CD21"/>
<stop offset="0.19" stop-color="#EBC412"/>
<stop offset="0.28" stop-color="#E8BE09"/>
<stop offset="0.42" stop-color="#E8BD07"/>
<stop offset="0.51" stop-color="#EFCB1B"/>
<stop offset="0.64" stop-color="#F8DB33"/>
<stop offset="0.77" stop-color="#FDE542"/>
<stop offset="0.87" stop-color="#FFE947"/>
<stop offset="1" stop-color="#FFEC63"/>
</linearGradient>
<linearGradient id="paint7_linear_701_7762" x1="43.0674" y1="161.362" x2="35.7066" y2="154.529" gradientUnits="userSpaceOnUse">
<stop offset="0.04" stop-color="#F8DA36"/>
<stop offset="0.11" stop-color="#F1CD21"/>
<stop offset="0.19" stop-color="#EBC412"/>
<stop offset="0.28" stop-color="#E8BE09"/>
<stop offset="0.42" stop-color="#E8BD07"/>
<stop offset="0.51" stop-color="#EFCB1B"/>
<stop offset="0.64" stop-color="#F8DB33"/>
<stop offset="0.77" stop-color="#FDE542"/>
<stop offset="0.87" stop-color="#FFE947"/>
<stop offset="1" stop-color="#FFEC63"/>
</linearGradient>
<linearGradient id="paint8_linear_701_7762" x1="32.8195" y1="149.204" x2="18.3745" y2="135.795" gradientUnits="userSpaceOnUse">
<stop offset="0.04" stop-color="#F8DA36"/>
<stop offset="0.11" stop-color="#F1CD21"/>
<stop offset="0.19" stop-color="#EBC412"/>
<stop offset="0.28" stop-color="#E8BE09"/>
<stop offset="0.42" stop-color="#E8BD07"/>
<stop offset="0.51" stop-color="#EFCB1B"/>
<stop offset="0.64" stop-color="#F8DB33"/>
<stop offset="0.77" stop-color="#FDE542"/>
<stop offset="0.87" stop-color="#FFE947"/>
<stop offset="1" stop-color="#FFEC63"/>
</linearGradient>
<linearGradient id="paint9_linear_701_7762" x1="55.702" y1="276.021" x2="72.6566" y2="293.27" gradientUnits="userSpaceOnUse">
<stop stop-color="#FFD08D"/>
<stop offset="0.58" stop-color="#FFDC2A"/>
<stop offset="0.81" stop-color="#F3C237"/>
<stop offset="1" stop-color="#EBB140"/>
</linearGradient>
<linearGradient id="paint10_linear_701_7762" x1="70.0172" y1="290.493" x2="63.3343" y2="273.893" gradientUnits="userSpaceOnUse">
<stop stop-color="#F0C827"/>
<stop offset="0.08" stop-color="#E9BE25"/>
<stop offset="0.22" stop-color="#E2B424"/>
<stop offset="0.38" stop-color="#EECA46"/>
<stop offset="0.57" stop-color="#FAE168"/>
<stop offset="0.68" stop-color="#FFEA76"/>
<stop offset="0.74" stop-color="#FDE770"/>
<stop offset="0.82" stop-color="#FBE161"/>
<stop offset="0.91" stop-color="#F6D647"/>
<stop offset="1" stop-color="#F0C827"/>
</linearGradient>
<linearGradient id="paint11_linear_701_7762" x1="70.0172" y1="290.493" x2="63.3343" y2="273.893" gradientUnits="userSpaceOnUse">
<stop stop-color="#FFD08D"/>
<stop offset="0.58" stop-color="#FFAF2A"/>
<stop offset="0.71" stop-color="#F8A631"/>
<stop offset="1" stop-color="#EC9540"/>
</linearGradient>
<linearGradient id="paint12_linear_701_7762" x1="66.9996" y1="276.478" x2="66.7389" y2="275.83" gradientUnits="userSpaceOnUse">
<stop offset="0.04" stop-color="#F8DA36"/>
<stop offset="0.11" stop-color="#F1CD21"/>
<stop offset="0.19" stop-color="#EBC412"/>
<stop offset="0.28" stop-color="#E8BE09"/>
<stop offset="0.42" stop-color="#E8BD07"/>
<stop offset="0.51" stop-color="#EFCB1B"/>
<stop offset="0.64" stop-color="#F8DB33"/>
<stop offset="0.77" stop-color="#FDE542"/>
<stop offset="0.87" stop-color="#FFE947"/>
<stop offset="1" stop-color="#FFEC63"/>
</linearGradient>
<linearGradient id="paint13_linear_701_7762" x1="65.9723" y1="279.691" x2="65.3993" y2="278.268" gradientUnits="userSpaceOnUse">
<stop offset="0.04" stop-color="#F8DA36"/>
<stop offset="0.11" stop-color="#F1CD21"/>
<stop offset="0.19" stop-color="#EBC412"/>
<stop offset="0.28" stop-color="#E8BE09"/>
<stop offset="0.42" stop-color="#E8BD07"/>
<stop offset="0.51" stop-color="#EFCB1B"/>
<stop offset="0.64" stop-color="#F8DB33"/>
<stop offset="0.77" stop-color="#FDE542"/>
<stop offset="0.87" stop-color="#FFE947"/>
<stop offset="1" stop-color="#FFEC63"/>
</linearGradient>
<linearGradient id="paint14_linear_701_7762" x1="67.7695" y1="285.679" x2="66.8025" y2="283.277" gradientUnits="userSpaceOnUse">
<stop offset="0.04" stop-color="#F8DA36"/>
<stop offset="0.11" stop-color="#F1CD21"/>
<stop offset="0.19" stop-color="#EBC412"/>
<stop offset="0.28" stop-color="#E8BE09"/>
<stop offset="0.42" stop-color="#E8BD07"/>
<stop offset="0.51" stop-color="#EFCB1B"/>
<stop offset="0.64" stop-color="#F8DB33"/>
<stop offset="0.77" stop-color="#FDE542"/>
<stop offset="0.87" stop-color="#FFE947"/>
<stop offset="1" stop-color="#FFEC63"/>
</linearGradient>
<linearGradient id="paint15_linear_701_7762" x1="68.1033" y1="281.03" x2="67.3849" y2="279.245" gradientUnits="userSpaceOnUse">
<stop offset="0.04" stop-color="#F8DA36"/>
<stop offset="0.11" stop-color="#F1CD21"/>
<stop offset="0.19" stop-color="#EBC412"/>
<stop offset="0.28" stop-color="#E8BE09"/>
<stop offset="0.42" stop-color="#E8BD07"/>
<stop offset="0.51" stop-color="#EFCB1B"/>
<stop offset="0.64" stop-color="#F8DB33"/>
<stop offset="0.77" stop-color="#FDE542"/>
<stop offset="0.87" stop-color="#FFE947"/>
<stop offset="1" stop-color="#FFEC63"/>
</linearGradient>
<linearGradient id="paint16_linear_701_7762" x1="67.7399" y1="288.609" x2="67.3427" y2="287.623" gradientUnits="userSpaceOnUse">
<stop offset="0.04" stop-color="#F8DA36"/>
<stop offset="0.11" stop-color="#F1CD21"/>
<stop offset="0.19" stop-color="#EBC412"/>
<stop offset="0.28" stop-color="#E8BE09"/>
<stop offset="0.42" stop-color="#E8BD07"/>
<stop offset="0.51" stop-color="#EFCB1B"/>
<stop offset="0.64" stop-color="#F8DB33"/>
<stop offset="0.77" stop-color="#FDE542"/>
<stop offset="0.87" stop-color="#FFE947"/>
<stop offset="1" stop-color="#FFEC63"/>
</linearGradient>
<linearGradient id="paint17_linear_701_7762" x1="64.7267" y1="287.797" x2="63.5399" y2="284.849" gradientUnits="userSpaceOnUse">
<stop offset="0.04" stop-color="#F8DA36"/>
<stop offset="0.11" stop-color="#F1CD21"/>
<stop offset="0.19" stop-color="#EBC412"/>
<stop offset="0.28" stop-color="#E8BE09"/>
<stop offset="0.42" stop-color="#E8BD07"/>
<stop offset="0.51" stop-color="#EFCB1B"/>
<stop offset="0.64" stop-color="#F8DB33"/>
<stop offset="0.77" stop-color="#FDE542"/>
<stop offset="0.87" stop-color="#FFE947"/>
<stop offset="1" stop-color="#FFEC63"/>
</linearGradient>
<linearGradient id="paint18_linear_701_7762" x1="63.8808" y1="282.752" x2="61.5511" y2="276.965" gradientUnits="userSpaceOnUse">
<stop offset="0.04" stop-color="#F8DA36"/>
<stop offset="0.11" stop-color="#F1CD21"/>
<stop offset="0.19" stop-color="#EBC412"/>
<stop offset="0.28" stop-color="#E8BE09"/>
<stop offset="0.42" stop-color="#E8BD07"/>
<stop offset="0.51" stop-color="#EFCB1B"/>
<stop offset="0.64" stop-color="#F8DB33"/>
<stop offset="0.77" stop-color="#FDE542"/>
<stop offset="0.87" stop-color="#FFE947"/>
<stop offset="1" stop-color="#FFEC63"/>
</linearGradient>
<linearGradient id="paint19_linear_701_7762" x1="58.6125" y1="46.7768" x2="101.832" y2="21.0194" gradientUnits="userSpaceOnUse">
<stop stop-color="#FFD08D"/>
<stop offset="0.58" stop-color="#FFDC2A"/>
<stop offset="0.81" stop-color="#F3C237"/>
<stop offset="1" stop-color="#EBB140"/>
</linearGradient>
<linearGradient id="paint20_linear_701_7762" x1="89.4672" y1="52.8522" x2="71.4918" y2="14.4885" gradientUnits="userSpaceOnUse">
<stop stop-color="#FFAA3F"/>
<stop offset="0.58" stop-color="#FFAF2A"/>
<stop offset="0.71" stop-color="#F8A631"/>
<stop offset="1" stop-color="#EC9540"/>
</linearGradient>
<linearGradient id="paint21_linear_701_7762" x1="78.3478" y1="21.2741" x2="77.6209" y2="19.7226" gradientUnits="userSpaceOnUse">
<stop offset="0.04" stop-color="#F8DA36"/>
<stop offset="0.11" stop-color="#F1CD21"/>
<stop offset="0.19" stop-color="#EBC412"/>
<stop offset="0.28" stop-color="#E8BE09"/>
<stop offset="0.42" stop-color="#E8BD07"/>
<stop offset="0.51" stop-color="#EFCB1B"/>
<stop offset="0.64" stop-color="#F8DB33"/>
<stop offset="0.77" stop-color="#FDE542"/>
<stop offset="0.87" stop-color="#FFE947"/>
<stop offset="1" stop-color="#FFEC63"/>
</linearGradient>
<linearGradient id="paint22_linear_701_7762" x1="78.3786" y1="28.2689" x2="76.7843" y2="24.8661" gradientUnits="userSpaceOnUse">
<stop offset="0.04" stop-color="#F8DA36"/>
<stop offset="0.11" stop-color="#F1CD21"/>
<stop offset="0.19" stop-color="#EBC412"/>
<stop offset="0.28" stop-color="#E8BE09"/>
<stop offset="0.42" stop-color="#E8BD07"/>
<stop offset="0.51" stop-color="#EFCB1B"/>
<stop offset="0.64" stop-color="#F8DB33"/>
<stop offset="0.77" stop-color="#FDE542"/>
<stop offset="0.87" stop-color="#FFE947"/>
<stop offset="1" stop-color="#FFEC63"/>
</linearGradient>
<linearGradient id="paint23_linear_701_7762" x1="84.125" y1="42.3686" x2="81.4403" y2="36.6387" gradientUnits="userSpaceOnUse">
<stop offset="0.04" stop-color="#F8DA36"/>
<stop offset="0.11" stop-color="#F1CD21"/>
<stop offset="0.19" stop-color="#EBC412"/>
<stop offset="0.28" stop-color="#E8BE09"/>
<stop offset="0.42" stop-color="#E8BD07"/>
<stop offset="0.51" stop-color="#EFCB1B"/>
<stop offset="0.64" stop-color="#F8DB33"/>
<stop offset="0.77" stop-color="#FDE542"/>
<stop offset="0.87" stop-color="#FFE947"/>
<stop offset="1" stop-color="#FFEC63"/>
</linearGradient>
<linearGradient id="paint24_linear_701_7762" x1="82.3186" y1="31.9056" x2="80.3277" y2="27.6567" gradientUnits="userSpaceOnUse">
<stop offset="0.04" stop-color="#F8DA36"/>
<stop offset="0.11" stop-color="#F1CD21"/>
<stop offset="0.19" stop-color="#EBC412"/>
<stop offset="0.28" stop-color="#E8BE09"/>
<stop offset="0.42" stop-color="#E8BD07"/>
<stop offset="0.51" stop-color="#EFCB1B"/>
<stop offset="0.64" stop-color="#F8DB33"/>
<stop offset="0.77" stop-color="#FDE542"/>
<stop offset="0.87" stop-color="#FFE947"/>
<stop offset="1" stop-color="#FFEC63"/>
</linearGradient>
<linearGradient id="paint25_linear_701_7762" x1="85.5407" y1="49.0155" x2="84.442" y2="46.6707" gradientUnits="userSpaceOnUse">
<stop offset="0.04" stop-color="#F8DA36"/>
<stop offset="0.11" stop-color="#F1CD21"/>
<stop offset="0.19" stop-color="#EBC412"/>
<stop offset="0.28" stop-color="#E8BE09"/>
<stop offset="0.42" stop-color="#E8BD07"/>
<stop offset="0.51" stop-color="#EFCB1B"/>
<stop offset="0.64" stop-color="#F8DB33"/>
<stop offset="0.77" stop-color="#FDE542"/>
<stop offset="0.87" stop-color="#FFE947"/>
<stop offset="1" stop-color="#FFEC63"/>
</linearGradient>
<linearGradient id="paint26_linear_701_7762" x1="80.5236" y1="46.292" x2="77.2275" y2="39.2574" gradientUnits="userSpaceOnUse">
<stop offset="0.04" stop-color="#F8DA36"/>
<stop offset="0.11" stop-color="#F1CD21"/>
<stop offset="0.19" stop-color="#EBC412"/>
<stop offset="0.28" stop-color="#E8BE09"/>
<stop offset="0.42" stop-color="#E8BD07"/>
<stop offset="0.51" stop-color="#EFCB1B"/>
<stop offset="0.64" stop-color="#F8DB33"/>
<stop offset="0.77" stop-color="#FDE542"/>
<stop offset="0.87" stop-color="#FFE947"/>
<stop offset="1" stop-color="#FFEC63"/>
</linearGradient>
<linearGradient id="paint27_linear_701_7762" x1="76.7017" y1="34.6019" x2="70.2336" y2="20.7971" gradientUnits="userSpaceOnUse">
<stop offset="0.04" stop-color="#F8DA36"/>
<stop offset="0.11" stop-color="#F1CD21"/>
<stop offset="0.19" stop-color="#EBC412"/>
<stop offset="0.28" stop-color="#E8BE09"/>
<stop offset="0.42" stop-color="#E8BD07"/>
<stop offset="0.51" stop-color="#EFCB1B"/>
<stop offset="0.64" stop-color="#F8DB33"/>
<stop offset="0.77" stop-color="#FDE542"/>
<stop offset="0.87" stop-color="#FFE947"/>
<stop offset="1" stop-color="#FFEC63"/>
</linearGradient>
<radialGradient id="paint28_radial_701_7762" cx="0" cy="0" r="1" gradientUnits="userSpaceOnUse" gradientTransform="translate(165.72 200.853) rotate(143.39) scale(80.617 80.617)">
<stop stop-color="#A381FF"/>
<stop offset="0.234375" stop-color="#8D62FF"/>
<stop offset="0.83" stop-color="#3C13C9"/>
<stop offset="1" stop-color="#7859FF"/>
</radialGradient>
<radialGradient id="paint29_radial_701_7762" cx="0" cy="0" r="1" gradientUnits="userSpaceOnUse" gradientTransform="translate(139.637 88.7716) rotate(95.4801) scale(29.9332 29.9332)">
<stop stop-color="#A381FF"/>
<stop offset="0.234375" stop-color="#8D62FF"/>
<stop offset="0.83" stop-color="#3C13C9"/>
<stop offset="1" stop-color="#7859FF"/>
</radialGradient>
</defs>
</svg>
