<svg width="54" height="42" viewBox="0 0 54 42" fill="none" xmlns="http://www.w3.org/2000/svg">
<path d="M2.21378 13.5061C6.20276 7.37215 17.9851 5.4377 30.2289 9.31897C42.4728 13.2002 50.9981 21.5615 50.7124 28.8793L51.0554 28.8335L50.5733 30.3055C48.1053 38.0862 35.113 40.9045 21.5506 36.6086C7.98832 32.3127 -1.00191 22.5216 1.46612 14.741L1.94827 13.2689L2.20393 13.5069L2.21378 13.5061Z" fill="#D16A0D"/>
<path d="M2.62573 11.1088C2.4822 11.5652 2.38673 11.7407 2.29478 12.0942C2.25528 12.2259 1.96368 13.0796 1.94761 13.259C1.34239 20.6705 10.1103 29.4885 22.5675 33.4426C35.3193 37.4932 47.5389 35.0602 51.0457 28.8342C51.0457 28.8342 51.5803 27.1403 51.723 26.6741C54.1911 18.8935 45.2008 9.1024 31.6385 4.8065C18.0762 0.510589 5.08391 3.32893 2.61588 11.1095L2.62573 11.1088Z" fill="#D16A0D"/>
<path d="M2.73892 10.7738C0.270893 18.5544 9.26112 28.3454 22.8234 32.6414C36.3858 36.9373 49.3781 34.1189 51.8461 26.3383C54.3141 18.5577 45.3239 8.76662 31.7616 4.47072C18.1992 0.17481 5.20695 2.99315 2.73892 10.7738V10.7738Z" fill="url(#paint0_linear_289_9058)"/>
<g style="mix-blend-mode:screen" opacity="0.5">
<path d="M31.7279 4.55222C18.1958 0.263912 5.22176 3.06107 2.72196 10.8144C2.72121 10.8045 2.71973 10.7849 2.73867 10.7735C5.2067 2.99291 18.199 0.174575 31.7613 4.47048C45.3236 8.76639 54.3139 18.5575 51.8458 26.3381C51.8466 26.3479 51.8382 26.3684 51.8291 26.379C54.2487 18.6119 45.2599 8.84053 31.7279 4.55222V4.55222Z" fill="#FEF0A0"/>
</g>
<path d="M6.61386 12.0037C4.53767 18.5566 12.1037 26.8026 23.5256 30.4196C34.9475 34.0366 45.8846 31.6615 47.9608 25.1085C50.037 18.5556 42.461 10.3103 31.049 6.69257C19.6271 3.07556 8.69005 5.45069 6.61386 12.0037Z" fill="url(#paint1_linear_289_9058)"/>
<path d="M6.61386 12.0037C4.53767 18.5566 12.1037 26.8026 23.5256 30.4196C34.9475 34.0366 45.8846 31.6615 47.9608 25.1085C50.037 18.5556 42.461 10.3103 31.049 6.69257C19.6271 3.07556 8.69005 5.45069 6.61386 12.0037Z" fill="url(#paint2_linear_289_9058)"/>
<g style="mix-blend-mode:multiply">
<path d="M31.0488 6.69254C19.6572 3.08313 8.74823 5.43633 6.62968 11.9529C6.62819 11.9332 6.63718 11.9226 6.64553 11.9022C8.72172 5.34924 19.6589 2.97411 31.0815 6.60096C42.5034 10.218 50.0694 18.464 47.9932 25.0169C47.9947 25.0366 47.9856 25.0472 47.9773 25.0676C49.9944 18.5192 42.4314 10.3125 31.0496 6.70238L31.0488 6.69254Z" fill="#FEF0A0"/>
</g>
<g style="mix-blend-mode:screen" opacity="0.3">
<path d="M23.5257 30.42C34.9174 34.0294 45.8363 31.6755 47.9443 25.1498C47.945 25.1596 47.9366 25.1801 47.9275 25.1907C45.8514 31.7436 34.9143 34.1188 23.4924 30.5018C12.0705 26.8847 4.50439 18.6388 6.58057 12.0858C6.57983 12.0759 6.58819 12.0555 6.59729 12.0449C4.56047 18.5949 12.1341 26.8106 23.5257 30.42Z" fill="#FEF0A0"/>
</g>
<path opacity="0.4" d="M30.8811 7.2198C19.5705 3.63393 8.77291 5.76088 6.55754 12.1759C6.57274 12.1154 6.58801 12.0548 6.61305 11.9935C8.68924 5.44054 19.6263 3.06541 31.0482 6.68242C42.4701 10.2994 50.0362 18.5454 47.96 25.0984C47.9448 25.1589 47.9197 25.2202 47.9038 25.271C49.7944 18.7519 42.2009 10.7951 30.8804 7.20995L30.8811 7.2198Z" fill="#D16A0D"/>
<g style="mix-blend-mode:multiply" opacity="0.4">
<path d="M34.558 23.3562C34.4236 22.6476 34.1518 22.0067 33.7212 21.4392C33.2906 20.8716 32.4237 19.9249 31.1271 18.6066C29.5946 17.0486 28.7018 16.0722 28.4355 15.6626C28.1552 15.252 28.1591 14.7765 28.4259 14.2417C28.5876 13.9168 28.8031 13.7284 29.0734 13.6626C29.3436 13.5968 29.6677 13.6675 30.0474 13.8469C30.5144 14.0811 30.7707 14.3293 30.816 14.5912C30.8614 14.853 30.7349 15.2783 30.4282 15.8873L29.9221 15.8183L30.1382 16.4555L36.3083 19.5841C36.4942 19.3167 36.627 19.1087 36.6995 18.9667C37.2154 17.9519 37.1444 16.9259 36.481 15.8669C35.824 14.8154 34.581 13.7385 32.7457 12.6289L33.3015 11.5399L33.0854 10.9028L32.6015 11.1291L30.4597 10.1039L29.9038 11.1929C27.748 10.2716 26.0006 9.83247 24.6605 9.88942C23.3205 9.94637 22.3963 10.479 21.873 11.5002C21.5105 12.2104 21.4386 12.9681 21.65 13.7798C21.8613 14.5915 22.225 15.3226 22.741 15.9728C23.2635 16.6305 24.3003 17.7565 25.8429 19.3712C26.7785 20.3365 27.2564 21.0331 27.2766 21.4612C27.2968 21.8893 27.1164 22.4928 26.7288 23.2643C26.5754 23.5688 26.3535 23.7499 26.0702 23.8008C25.787 23.8518 25.4425 23.7727 25.0228 23.5626C24.5354 23.32 24.2811 23.0441 24.2655 22.7562C24.2498 22.4683 24.4794 21.8611 24.947 20.941L25.1561 20.5353L25.3736 20.1092L25.1575 19.4721L24.4007 19.4912L19.197 16.9732L18.8512 17.6426C18.077 19.1716 18.1524 20.5478 19.0693 21.7917C19.9936 23.029 21.257 24.1143 22.8528 25.0399L21.9667 25.736L22.1827 26.3731L25.0246 27.8092L25.678 26.5168C27.8765 27.4269 29.6843 27.8001 31.094 27.6429C32.5038 27.4857 33.5228 26.7917 34.1437 25.5671C34.5378 24.803 34.657 24.0694 34.5301 23.3543L34.558 23.3562Z" fill="#AA7E03"/>
</g>
<path d="M36.4838 18.33C36.9996 17.3153 36.9222 16.2818 36.2727 15.2238C35.6157 14.1723 34.3727 13.0954 32.5374 11.9857L33.0867 10.8893L30.2449 9.45329L29.6955 10.5497C27.5397 9.62844 25.7923 9.18932 24.4522 9.24627C23.1122 9.30322 22.1806 9.84231 21.6647 10.857C21.3096 11.5608 21.2303 12.325 21.4417 13.1367C21.653 13.9484 22.0167 14.6794 22.5327 15.3297C23.0552 15.9874 24.092 17.1134 25.642 18.7215C26.5776 19.6868 27.0556 20.3835 27.0758 20.8116C27.1025 21.2472 26.9155 21.8432 26.5279 22.6147C26.3746 22.9192 26.1526 23.1002 25.8694 23.1512C25.5861 23.2021 25.2416 23.123 24.822 22.913C24.3346 22.6704 24.0803 22.3944 24.0646 22.1066C24.049 21.8187 24.2786 21.2114 24.7461 20.2914L25.1737 19.4456L19.0035 16.317L18.6643 16.9939C17.89 18.5229 17.9655 19.8991 18.8824 21.143C19.8067 22.3803 21.0701 23.4655 22.6659 24.3912L21.9958 25.7244L24.8376 27.1605L25.491 25.8681C27.6896 26.7782 29.4974 27.1514 30.9071 26.9942C32.3168 26.837 33.3359 26.1429 33.9494 24.9249C34.336 24.1673 34.47 23.4207 34.3357 22.7121C34.2014 22.0035 33.9296 21.3626 33.499 20.7951C33.0684 20.2275 32.2015 19.2808 30.9048 17.9625C29.3724 16.4045 28.4796 15.4281 28.2133 15.0185C27.933 14.6079 27.937 14.1325 28.2037 13.5977C28.3655 13.2728 28.581 13.0844 28.8577 13.026C29.128 12.9602 29.4529 13.0169 29.8243 13.2168C30.2913 13.451 30.554 13.7065 30.5929 13.961C30.6457 14.2164 30.5118 14.6481 30.205 15.2572L29.915 15.8253L36.0852 18.9539C36.271 18.6866 36.4039 18.4786 36.4689 18.343L36.4838 18.33Z" fill="white"/>
<g style="mix-blend-mode:screen" opacity="0.7">
<path style="mix-blend-mode:screen" d="M32.5702 12.023L32.5553 12.0359C34.1558 12.9969 35.3031 13.9344 36.0038 14.8559C35.3105 13.9279 34.1567 12.983 32.5702 12.023Z" fill="url(#paint3_linear_289_9058)"/>
<path style="mix-blend-mode:screen" d="M30.4974 13.717C30.5624 13.7913 30.5846 13.8767 30.6004 13.9547C30.6532 14.2101 30.5192 14.6419 30.2125 15.2509L29.9225 15.8191L29.9633 15.8357L30.2449 15.288C30.5517 14.679 30.6782 14.2537 30.6328 13.9919C30.618 13.8999 30.5753 13.8062 30.4974 13.717Z" fill="url(#paint4_linear_289_9058)"/>
<path style="mix-blend-mode:screen" d="M25.902 23.1882C26.1852 23.1373 26.4073 22.9563 26.5606 22.6518C26.9482 21.8803 27.1352 21.2842 27.1149 20.8561C27.0974 20.5961 26.9183 20.2412 26.5712 19.7842C26.8988 20.2189 27.0714 20.5663 27.0824 20.8189C27.1091 21.2544 26.9222 21.8505 26.5346 22.622C26.3813 22.9266 26.1593 23.1076 25.876 23.1585C25.5928 23.2095 25.2483 23.1304 24.8287 22.9203C24.5511 22.7828 24.3515 22.6295 24.229 22.4743C24.3506 22.6434 24.5566 22.8041 24.8611 22.9574C25.2807 23.1675 25.6252 23.2466 25.9085 23.1957L25.902 23.1882Z" fill="url(#paint5_linear_289_9058)"/>
<path style="mix-blend-mode:screen" d="M33.4981 20.8091C33.0674 20.2415 32.2005 19.2948 30.9039 17.9765C29.5552 16.5987 28.6939 15.6734 28.3274 15.1941C28.667 15.6576 29.5413 16.5978 30.929 18.0202C32.2061 19.3162 33.06 20.248 33.4971 20.823L33.4981 20.8091Z" fill="url(#paint6_linear_289_9058)"/>
<path style="mix-blend-mode:screen" d="M22.7051 24.4359C22.7051 24.4359 22.6856 24.4136 22.6716 24.4126L22.0024 25.7319L22.0432 25.7486L22.7051 24.4359V24.4359Z" fill="url(#paint7_linear_289_9058)"/>
<path style="mix-blend-mode:screen" d="M18.9148 21.1806C17.9904 19.9432 17.9223 18.5605 18.6966 17.0314L19.0424 16.3621L25.1717 19.4739L25.1865 19.4609L19.0099 16.3249L18.6706 17.0017C17.8964 18.5308 17.9719 19.907 18.8887 21.1508C18.9212 21.188 18.9537 21.2252 18.9788 21.2688C18.9593 21.2465 18.9333 21.2168 18.9073 21.1871L18.9148 21.1806Z" fill="url(#paint8_linear_289_9058)"/>
<path style="mix-blend-mode:screen" d="M22.4546 15.2408C21.9925 14.6221 21.6603 13.9423 21.4731 13.1881C21.2618 12.3764 21.3336 11.6187 21.6961 10.9085C22.2129 9.87983 23.1446 9.34074 24.4837 9.29772C25.8237 9.24077 27.5712 9.67989 29.727 10.6012L30.2827 9.51209L33.0838 10.9315L33.0986 10.9185L30.2503 9.47498L29.701 10.5714C27.5451 9.65014 25.7977 9.21102 24.4577 9.26797C23.1176 9.32491 22.186 9.864 21.6701 10.8787C21.3151 11.5825 21.2358 12.3467 21.4471 13.1584C21.6473 13.9274 21.985 14.6286 22.4611 15.2483L22.4546 15.2408Z" fill="url(#paint9_linear_289_9058)"/>
</g>
<defs>
<linearGradient id="paint0_linear_289_9058" x1="41.3101" y1="10.56" x2="19.5023" y2="36.4078" gradientUnits="userSpaceOnUse">
<stop stop-color="#FFD08D"/>
<stop offset="0.58" stop-color="#FFDC2A"/>
<stop offset="0.81" stop-color="#F3C237"/>
<stop offset="1" stop-color="#EBB140"/>
</linearGradient>
<linearGradient id="paint1_linear_289_9058" x1="22.8873" y1="32.2549" x2="30.4484" y2="8.39946" gradientUnits="userSpaceOnUse">
<stop stop-color="#F0C827"/>
<stop offset="0.08" stop-color="#E9BE25"/>
<stop offset="0.22" stop-color="#E2B424"/>
<stop offset="0.38" stop-color="#EECA46"/>
<stop offset="0.57" stop-color="#FAE168"/>
<stop offset="0.68" stop-color="#FFEA76"/>
<stop offset="0.74" stop-color="#FDE770"/>
<stop offset="0.82" stop-color="#FBE161"/>
<stop offset="0.91" stop-color="#F6D647"/>
<stop offset="1" stop-color="#F0C827"/>
</linearGradient>
<linearGradient id="paint2_linear_289_9058" x1="22.8873" y1="32.2549" x2="30.4484" y2="8.39946" gradientUnits="userSpaceOnUse">
<stop stop-color="#FFD08D"/>
<stop offset="0.58" stop-color="#FFAF2A"/>
<stop offset="0.71" stop-color="#F8A631"/>
<stop offset="1" stop-color="#EC9540"/>
</linearGradient>
<linearGradient id="paint3_linear_289_9058" x1="33.2942" y1="15.534" x2="33.7349" y2="14.6657" gradientUnits="userSpaceOnUse">
<stop offset="0.04" stop-color="#F8DA36"/>
<stop offset="0.11" stop-color="#F1CD21"/>
<stop offset="0.19" stop-color="#EBC412"/>
<stop offset="0.28" stop-color="#E8BE09"/>
<stop offset="0.42" stop-color="#E8BD07"/>
<stop offset="0.51" stop-color="#EFCB1B"/>
<stop offset="0.64" stop-color="#F8DB33"/>
<stop offset="0.77" stop-color="#FDE542"/>
<stop offset="0.87" stop-color="#FFE947"/>
<stop offset="1" stop-color="#FFEC63"/>
</linearGradient>
<linearGradient id="paint4_linear_289_9058" x1="28.9653" y1="17.4101" x2="29.9367" y2="15.4961" gradientUnits="userSpaceOnUse">
<stop offset="0.04" stop-color="#F8DA36"/>
<stop offset="0.11" stop-color="#F1CD21"/>
<stop offset="0.19" stop-color="#EBC412"/>
<stop offset="0.28" stop-color="#E8BE09"/>
<stop offset="0.42" stop-color="#E8BD07"/>
<stop offset="0.51" stop-color="#EFCB1B"/>
<stop offset="0.64" stop-color="#F8DB33"/>
<stop offset="0.77" stop-color="#FDE542"/>
<stop offset="0.87" stop-color="#FFE947"/>
<stop offset="1" stop-color="#FFEC63"/>
</linearGradient>
<linearGradient id="paint5_linear_289_9058" x1="24.3119" y1="24.8116" x2="25.9493" y2="21.5857" gradientUnits="userSpaceOnUse">
<stop offset="0.04" stop-color="#F8DA36"/>
<stop offset="0.11" stop-color="#F1CD21"/>
<stop offset="0.19" stop-color="#EBC412"/>
<stop offset="0.28" stop-color="#E8BE09"/>
<stop offset="0.42" stop-color="#E8BD07"/>
<stop offset="0.51" stop-color="#EFCB1B"/>
<stop offset="0.64" stop-color="#F8DB33"/>
<stop offset="0.77" stop-color="#FDE542"/>
<stop offset="0.87" stop-color="#FFE947"/>
<stop offset="1" stop-color="#FFEC63"/>
</linearGradient>
<linearGradient id="paint6_linear_289_9058" x1="29.5151" y1="20.8852" x2="30.731" y2="18.4895" gradientUnits="userSpaceOnUse">
<stop offset="0.04" stop-color="#F8DA36"/>
<stop offset="0.11" stop-color="#F1CD21"/>
<stop offset="0.19" stop-color="#EBC412"/>
<stop offset="0.28" stop-color="#E8BE09"/>
<stop offset="0.42" stop-color="#E8BD07"/>
<stop offset="0.51" stop-color="#EFCB1B"/>
<stop offset="0.64" stop-color="#F8DB33"/>
<stop offset="0.77" stop-color="#FDE542"/>
<stop offset="0.87" stop-color="#FFE947"/>
<stop offset="1" stop-color="#FFEC63"/>
</linearGradient>
<linearGradient id="paint7_linear_289_9058" x1="21.1977" y1="27.4794" x2="21.87" y2="26.1548" gradientUnits="userSpaceOnUse">
<stop offset="0.04" stop-color="#F8DA36"/>
<stop offset="0.11" stop-color="#F1CD21"/>
<stop offset="0.19" stop-color="#EBC412"/>
<stop offset="0.28" stop-color="#E8BE09"/>
<stop offset="0.42" stop-color="#E8BD07"/>
<stop offset="0.51" stop-color="#EFCB1B"/>
<stop offset="0.64" stop-color="#F8DB33"/>
<stop offset="0.77" stop-color="#FDE542"/>
<stop offset="0.87" stop-color="#FFE947"/>
<stop offset="1" stop-color="#FFEC63"/>
</linearGradient>
<linearGradient id="paint8_linear_289_9058" x1="19.2892" y1="23.5622" x2="21.2998" y2="19.6011" gradientUnits="userSpaceOnUse">
<stop offset="0.04" stop-color="#F8DA36"/>
<stop offset="0.11" stop-color="#F1CD21"/>
<stop offset="0.19" stop-color="#EBC412"/>
<stop offset="0.28" stop-color="#E8BE09"/>
<stop offset="0.42" stop-color="#E8BD07"/>
<stop offset="0.51" stop-color="#EFCB1B"/>
<stop offset="0.64" stop-color="#F8DB33"/>
<stop offset="0.77" stop-color="#FDE542"/>
<stop offset="0.87" stop-color="#FFE947"/>
<stop offset="1" stop-color="#FFEC63"/>
</linearGradient>
<linearGradient id="paint9_linear_289_9058" x1="23.8246" y1="18.0291" x2="27.7716" y2="10.2527" gradientUnits="userSpaceOnUse">
<stop offset="0.04" stop-color="#F8DA36"/>
<stop offset="0.11" stop-color="#F1CD21"/>
<stop offset="0.19" stop-color="#EBC412"/>
<stop offset="0.28" stop-color="#E8BE09"/>
<stop offset="0.42" stop-color="#E8BD07"/>
<stop offset="0.51" stop-color="#EFCB1B"/>
<stop offset="0.64" stop-color="#F8DB33"/>
<stop offset="0.77" stop-color="#FDE542"/>
<stop offset="0.87" stop-color="#FFE947"/>
<stop offset="1" stop-color="#FFEC63"/>
</linearGradient>
</defs>
</svg>
