<svg width="447" height="574" viewBox="0 0 447 574" fill="none" xmlns="http://www.w3.org/2000/svg">
<g opacity="0.5">
<path d="M109.193 336.822C112.642 337.09 115.343 339.79 115.61 343.239L115.904 347.196H116.332L116.626 343.239C116.894 339.79 119.594 337.09 123.043 336.822L127 336.528V336.101L123.043 335.806C119.594 335.539 116.894 332.839 116.626 329.39L116.332 325.432H115.904L115.61 329.39C115.343 332.839 112.642 335.539 109.193 335.806L105.236 336.101V336.528L109.193 336.822Z" fill="white"/>
<path d="M83.638 202.032C85.6968 202.192 87.3012 203.797 87.4616 205.855L87.6486 208.262H88.0765L88.2638 205.855C88.4242 203.797 90.0283 202.192 92.0871 202.032L94.4935 201.845V201.417L92.0871 201.23C90.0283 201.069 88.4242 199.465 88.2638 197.406L88.0765 195H87.6486L87.4616 197.406C87.3012 199.465 85.6968 201.069 83.638 201.23L81.2319 201.417V201.845L83.638 202.032Z" fill="white"/>
<path d="M31.8715 233.106C33.4757 233.24 34.7323 234.497 34.866 236.101L34.9998 237.973H35.3474L35.4813 236.101C35.6149 234.497 36.8716 233.24 38.4758 233.106L40.3473 232.973V232.625L38.4758 232.491C36.8716 232.358 35.6149 231.101 35.4813 229.497L35.3474 227.625H34.9998L34.866 229.497C34.7323 231.101 33.4757 232.358 31.8715 232.491L30 232.625V232.973L31.8715 233.106Z" fill="white"/>
<path d="M76.3452 268.719C77.3612 268.799 78.1632 269.602 78.2434 270.618L78.3237 271.821H78.5375L78.6178 270.618C78.698 269.602 79.5 268.799 80.516 268.719L81.7194 268.639V268.425L80.516 268.345C79.5 268.265 78.698 267.463 78.6178 266.447L78.5375 265.243H78.3237L78.2434 266.447C78.1632 267.463 77.3612 268.265 76.3452 268.345L75.1418 268.425V268.639L76.3452 268.719Z" fill="white"/>
</g>
<g style="mix-blend-mode:luminosity" filter="url(#filter0_f_701_7761)">
<g style="mix-blend-mode:multiply">
<path d="M110.136 313.428C110.347 312.852 110.539 312.268 110.686 311.687C110.855 311.05 111.025 310.412 111.157 309.76C111.292 309.042 111.417 308.299 111.515 307.566C111.613 306.723 111.673 305.865 111.688 305.011C111.722 303.944 111.673 302.865 111.552 301.801C111.365 300.027 111.015 298.274 110.464 296.529C110.111 295.438 109.694 294.342 109.196 293.281C108.699 292.219 108.122 291.192 107.522 290.221L107.081 289.292L106.948 289.349L105.967 289.812L104.844 290.351L103.722 290.89L102.599 291.428L101.477 291.967L100.354 292.506L99.2129 293.037L98.0904 293.575L96.9491 294.107L95.8266 294.645L94.685 295.176L93.5628 295.715L92.4402 296.254L91.3177 296.792L90.1764 297.324L89.0539 297.862L87.9313 298.401L86.7898 298.932L85.6675 299.471L84.526 300.002L83.4035 300.541L82.2812 301.079L81.1587 301.618L80.0172 302.149L78.8949 302.688L77.7533 303.219L76.6308 303.758L75.5083 304.296L74.386 304.835L73.2445 305.366L72.1219 305.905L70.9996 306.444L69.8581 306.975L68.7356 307.513L67.6133 308.052L66.4718 308.583L65.3493 309.122L64.2269 309.661L63.1044 310.199L61.9819 310.738L60.8593 311.277L59.8777 311.74L59.7371 311.815L60.1778 312.744C60.5305 313.835 60.9477 314.931 61.4449 315.992C61.942 317.054 62.5003 318.074 63.1193 319.052C64.1045 320.598 65.2345 322.004 66.4638 323.273C67.2128 324.039 68.0229 324.764 68.8559 325.432C69.5222 325.966 70.2228 326.47 70.9388 326.937C71.5487 327.338 72.1927 327.709 72.8446 328.061C73.4206 328.382 74.0311 328.673 74.6302 328.937C75.1913 329.186 75.7675 329.397 76.3174 329.62C76.8559 329.815 77.4023 329.992 77.9561 330.15C78.4721 330.293 78.9879 330.435 79.5115 330.559C80.0162 330.675 80.5287 330.772 81.0221 330.861C81.5154 330.95 81.9974 331.013 82.4872 331.057C82.9693 331.119 83.4402 331.155 83.9186 331.172C84.3705 331.201 84.8487 331.218 85.3159 331.208C85.7564 331.21 86.2238 331.2 86.6797 331.164C87.1279 331.147 87.5647 331.103 88.0017 331.059C88.4386 331.015 88.8564 330.964 89.301 330.901C89.7267 330.83 90.1524 330.76 90.5667 330.663C90.9734 330.585 91.3878 330.487 91.8098 330.371C92.2241 330.274 92.6272 330.15 93.0302 330.027C93.4333 329.903 93.8173 329.771 94.228 329.629C94.6121 329.497 95.004 329.347 95.4034 329.178C95.7763 329.02 96.1756 328.85 96.556 328.673C96.9365 328.496 97.2981 328.311 97.6673 328.108C98.0364 327.904 98.398 327.719 98.7559 327.489C99.1251 327.286 99.4829 327.055 99.8142 326.836C100.172 326.606 100.511 326.368 100.858 326.111C101.204 325.854 101.551 325.597 101.879 325.333C102.206 325.068 102.542 324.785 102.858 324.493C103.193 324.21 103.517 323.9 103.815 323.601C104.139 323.291 104.444 322.973 104.749 322.655C105.062 322.318 105.355 321.974 105.649 321.629C105.951 321.266 106.233 320.895 106.515 320.524C106.806 320.134 107.077 319.736 107.34 319.357C107.619 318.941 107.879 318.516 108.12 318.084C108.388 317.641 108.636 317.19 108.866 316.731C109.103 316.254 109.348 315.757 109.567 315.272C109.781 314.741 109.996 314.21 110.211 313.679L110.136 313.428Z" fill="#D16A0D"/>
</g>
<path d="M84.4335 276.998C99.0143 276.785 111.016 288.457 111.21 303.03C111.422 317.611 99.7504 329.612 85.1773 329.806C70.5965 330.019 58.5951 318.347 58.4012 303.774C58.1883 289.193 69.8603 277.192 84.4335 276.998Z" fill="url(#paint0_linear_701_7761)"/>
<g style="mix-blend-mode:screen" opacity="0.5">
<path d="M73.6594 279.633C86.8393 273.448 102.548 279.119 108.748 292.261C108.748 292.261 108.726 292.208 108.714 292.181C102.518 278.975 86.7983 273.277 73.5918 279.473C60.3853 285.669 54.6879 301.389 60.884 314.596L60.9179 314.676C54.7864 301.473 60.4872 285.799 73.6594 279.633Z" fill="#FEF0A0"/>
</g>
<path d="M104.929 293.959C110.134 305.088 105.35 318.332 94.2215 323.537C83.0924 328.742 69.849 323.958 64.6437 312.829C59.4384 301.7 64.2222 288.457 75.3512 283.252C86.4802 278.046 99.7237 282.83 104.929 293.959Z" fill="url(#paint1_linear_701_7761)"/>
<path d="M93.2002 302.01C92.3411 301.243 91.4923 300.724 90.6577 300.496C89.8117 300.242 88.3619 300.009 86.2625 299.799C83.7911 299.528 82.2768 299.29 81.7003 299.079C81.1049 298.86 80.5793 298.25 80.1047 297.242C79.8184 296.641 79.7142 296.136 79.7651 295.737C79.816 295.338 80.041 295.054 80.4291 294.858C80.9161 294.636 81.3301 294.649 81.6367 294.928C81.9432 295.206 82.3658 295.907 82.8969 297.048L83.0965 297.482L82.7693 297.636L83.3941 298.11L89.8166 295.104C89.6061 294.533 89.4368 294.134 89.305 293.86C88.4199 291.958 87.2283 290.703 85.7305 290.098C84.2328 289.492 82.4364 289.515 80.3525 290.194L79.3919 288.151L78.7671 287.678L79.0647 288.306L76.4281 289.533L77.3885 291.577C75.3327 292.841 74.0168 294.294 73.4371 295.891C72.8574 297.487 73.0253 299.254 73.9294 301.164C74.5395 302.492 75.3669 303.555 76.3665 304.356C77.366 305.158 78.3627 305.693 79.3454 305.936C80.3281 306.179 82.0665 306.463 84.6137 306.766C86.1322 306.939 87.1333 307.3 87.6249 307.83C88.1166 308.359 88.6902 309.341 89.3644 310.783C89.6394 311.358 89.7325 311.837 89.6627 312.228C89.5928 312.619 89.3409 312.914 88.9071 313.114C88.3935 313.347 87.976 313.288 87.6546 312.938C87.3331 312.587 86.7638 311.541 85.9387 309.817L85.5846 309.056L85.2081 308.242L84.5831 307.768L84.8807 308.396L78.7854 311.247L79.3806 312.503C80.7177 315.36 82.3025 317.06 84.1271 317.622C85.9594 318.165 87.7634 318.122 89.5584 317.503L90.4399 319.359L90.1127 319.514L90.7374 319.987L93.7015 318.605L92.5638 316.181C94.6313 314.833 95.9098 313.255 96.3991 311.445C96.8885 309.635 96.5965 307.576 95.5154 305.285C94.8412 303.843 94.0671 302.758 93.2269 301.999L93.2002 302.01Z" fill="#D16A0D"/>
<path d="M89.1918 294.631L82.7693 297.636L82.272 296.575C81.741 295.433 81.3184 294.733 81.0119 294.454C80.7053 294.176 80.2913 294.163 79.8043 294.385C79.4238 294.562 79.1912 294.865 79.129 295.237C79.078 295.636 79.1899 296.122 79.4686 296.742C79.9432 297.751 80.4688 298.36 81.0642 298.579C81.633 298.809 83.174 299.036 85.6264 299.3C87.7181 299.528 89.1946 299.75 90.0216 299.996C90.8675 300.25 91.705 300.744 92.5641 301.51C93.4233 302.277 94.19 303.381 94.8529 304.797C95.9339 307.087 96.2258 309.147 95.7364 310.957C95.2393 312.785 93.9609 314.364 91.9011 315.693L93.0388 318.116L90.0747 319.499L88.9033 316.995C87.1007 317.634 85.2966 317.676 83.472 317.115C81.6474 316.553 80.0628 314.853 78.7257 311.996L78.1305 310.74L84.553 307.734L85.2836 309.309C86.0897 311.025 86.6591 312.072 86.9995 312.43C87.3209 312.781 87.7384 312.84 88.252 312.606C88.6858 312.406 88.9377 312.111 89.0076 311.72C89.0775 311.329 88.9843 310.851 88.7093 310.276C88.0351 308.834 87.4428 307.844 86.9511 307.314C86.4595 306.785 85.4504 306.443 83.9396 306.251C81.3925 305.948 79.6541 305.664 78.6714 305.421C77.6887 305.178 76.7185 304.631 75.6924 303.841C74.6929 303.04 73.873 301.958 73.2553 300.649C72.3512 298.739 72.1835 296.972 72.7632 295.376C73.3429 293.779 74.6512 292.345 76.7146 291.062L75.754 289.018L78.7179 287.636L79.6785 289.679C81.7813 289.008 83.5777 288.984 85.0755 289.59C86.5733 290.196 87.7571 291.469 88.6499 293.352C88.7628 293.619 88.951 294.026 89.1615 294.596L89.1918 294.631Z" fill="white"/>
<g style="mix-blend-mode:screen" opacity="0.7">
<path style="mix-blend-mode:screen" d="M79.7618 289.691L79.7808 289.698C81.5984 289.132 83.1865 289.024 84.5484 289.421C83.1865 289.024 81.5873 289.106 79.7431 289.683L79.7618 289.691Z" fill="url(#paint2_linear_701_7761)"/>
<path style="mix-blend-mode:screen" d="M80.6669 294.271C80.7807 294.317 80.8945 294.363 80.9853 294.466C81.2918 294.744 81.7144 295.444 82.2454 296.586L82.7427 297.648L82.7581 297.61L82.31 296.59C81.779 295.449 81.3564 294.748 81.0499 294.47C80.9325 294.378 80.8073 294.305 80.6859 294.278L80.6669 294.271Z" fill="url(#paint3_linear_701_7761)"/>
<path style="mix-blend-mode:screen" d="M89.1134 311.785C89.1833 311.394 89.0902 310.915 88.8152 310.341C88.141 308.899 87.5486 307.909 87.0759 307.387C86.7847 307.071 86.2958 306.807 85.6205 306.622C86.2691 306.818 86.7201 307.067 87.019 307.364C87.5107 307.894 88.1032 308.884 88.7774 310.326C89.0525 310.9 89.1453 311.379 89.0755 311.77C89.0056 312.161 88.7539 312.456 88.3202 312.656C88.0272 312.78 87.7649 312.828 87.541 312.782C87.7874 312.881 88.0765 312.822 88.3771 312.679C88.8108 312.479 89.0625 312.184 89.1324 311.793L89.1134 311.785Z" fill="url(#paint4_linear_701_7761)"/>
<path style="mix-blend-mode:screen" d="M90.0405 300.004C89.1946 299.75 87.7447 299.517 85.6453 299.307C83.4701 299.067 82.0126 298.853 81.3183 298.66C82.0049 298.872 83.4624 299.086 85.7022 299.33C87.756 299.543 89.2059 299.777 90.0595 300.012L90.0405 300.004Z" fill="url(#paint5_linear_701_7761)"/>
<path style="mix-blend-mode:screen" d="M88.9715 317.045L88.9336 317.029L90.086 319.525L90.1013 319.487L88.9715 317.045Z" fill="url(#paint6_linear_701_7761)"/>
<path style="mix-blend-mode:screen" d="M83.5513 317.191C81.7267 316.629 80.1421 314.929 78.805 312.072L78.2098 310.816L84.5866 307.814L84.5677 307.806L78.1529 310.793L78.748 312.049C80.0852 314.906 81.67 316.606 83.4946 317.168C83.5515 317.191 83.6083 317.214 83.6651 317.237C83.6272 317.221 83.5892 317.206 83.5513 317.191Z" fill="url(#paint7_linear_701_7761)"/>
<path style="mix-blend-mode:screen" d="M78.5803 305.428C77.6698 305.17 76.7565 304.646 75.8175 303.914C74.818 303.112 73.998 302.03 73.3802 300.721C72.4762 298.811 72.3085 297.045 72.8881 295.448C73.4678 293.852 74.7761 292.417 76.8395 291.134L75.8789 289.091L78.7897 287.731L78.7707 287.723L75.8146 289.087L76.7749 291.13C74.7192 292.394 73.4032 293.848 72.8235 295.444C72.2438 297.041 72.4118 298.807 73.3158 300.718C73.9259 302.045 74.7534 303.108 75.7529 303.91C76.7032 304.669 77.6432 305.182 78.5727 305.447L78.5803 305.428Z" fill="url(#paint8_linear_701_7761)"/>
</g>
</g>
<g style="mix-blend-mode:luminosity" filter="url(#filter1_f_701_7761)">
<path d="M374.512 496.073C364.534 482.994 337.791 480.672 310.994 491.465C284.197 502.258 266.527 522.462 268.388 538.803L267.608 538.767L268.938 541.975C275.796 558.989 305.411 563.118 335.079 551.156C364.747 539.21 383.232 515.728 376.391 498.696L375.062 495.471L374.53 496.055L374.512 496.073Z" fill="#D16A0D"/>
<path d="M373.165 490.774C373.573 491.767 373.803 492.157 374.087 492.937C374.193 493.238 374.991 495.099 375.062 495.489C377.685 511.989 359.536 533.256 332.261 544.244C304.348 555.48 276.541 552.131 267.626 538.75C267.626 538.75 266.137 535.046 265.747 534.036C258.889 517.004 277.391 493.521 307.059 481.576C336.727 469.631 366.342 473.743 373.183 490.757L373.165 490.774Z" fill="#D16A0D"/>
<path d="M372.864 490.03C379.723 507.044 361.22 530.544 331.552 542.489C301.884 554.434 272.269 550.323 265.428 533.309C258.57 516.295 277.072 492.794 306.74 480.849C336.408 468.904 366.023 473.016 372.864 490.03Z" fill="url(#paint9_linear_701_7761)"/>
<g style="mix-blend-mode:screen" opacity="0.5">
<path d="M306.811 481.027C336.426 469.099 365.97 473.175 372.899 490.118C372.899 490.083 372.882 490.065 372.864 490.03C366.005 472.998 336.408 468.886 306.74 480.849C277.072 492.794 258.57 516.277 265.428 533.309C265.428 533.344 265.446 533.362 265.464 533.397C258.712 516.383 277.196 492.972 306.811 481.044V481.027Z" fill="#FEF0A0"/>
</g>
<path d="M364.375 493.45C370.152 507.788 354.574 527.567 329.585 537.615C304.596 547.682 279.678 544.208 273.9 529.871C268.122 515.533 283.701 495.754 308.69 485.705C333.679 475.639 358.615 479.113 364.375 493.45Z" fill="url(#paint10_linear_701_7761)"/>
<path d="M364.375 493.45C370.152 507.788 354.574 527.567 329.585 537.615C304.596 547.682 279.678 544.208 273.9 529.871C268.122 515.533 283.701 495.754 308.69 485.705C333.679 475.639 358.615 479.113 364.375 493.45Z" fill="url(#paint11_linear_701_7761)"/>
<g style="mix-blend-mode:multiply">
<path d="M308.69 485.705C333.608 475.674 358.473 479.095 364.339 493.344C364.339 493.309 364.304 493.273 364.304 493.238C358.526 478.9 333.59 475.444 308.619 485.511C283.629 495.577 268.069 515.356 273.829 529.676C273.847 529.711 273.864 529.747 273.882 529.782C268.246 515.462 283.789 495.754 308.707 485.723L308.69 485.705Z" fill="#FEF0A0"/>
</g>
<g style="mix-blend-mode:screen" opacity="0.3">
<path d="M329.602 537.616C304.666 547.647 279.784 544.226 273.953 529.959C273.953 529.995 273.971 530.013 273.988 530.048C279.766 544.386 304.684 547.842 329.673 537.793C354.663 527.726 370.241 507.948 364.463 493.628C364.463 493.592 364.445 493.575 364.428 493.539C370.099 507.859 354.538 527.585 329.602 537.616Z" fill="#FEF0A0"/>
</g>
<path opacity="0.4" d="M309.168 486.875C333.927 476.897 358.473 479.839 364.534 493.84C364.481 493.716 364.446 493.574 364.375 493.45C358.615 479.112 333.679 475.657 308.69 485.705C283.701 495.772 268.14 515.551 273.9 529.871C273.953 529.995 274.007 530.119 274.06 530.26C268.725 515.958 284.392 496.835 309.151 486.857L309.168 486.875Z" fill="#D16A0D"/>
<g style="mix-blend-mode:multiply" opacity="0.4">
<path d="M336.975 507.008C335.575 506.175 334.086 505.697 332.473 505.591C330.878 505.466 327.989 505.537 323.842 505.785C318.95 506.069 315.955 506.14 314.874 505.98C313.758 505.839 312.96 505.147 312.446 503.889C312.145 503.127 312.145 502.489 312.429 501.922C312.73 501.372 313.315 500.912 314.183 500.557C315.282 500.114 316.079 500.043 316.593 500.345C317.107 500.646 317.639 501.497 318.206 502.914L317.355 503.659L318.756 504.244L333.182 498.43C333.005 497.722 332.845 497.19 332.721 496.871C331.764 494.496 329.921 493.096 327.156 492.653C324.409 492.192 320.741 492.706 316.15 494.195L315.123 491.625L313.722 491.058L313.385 492.21L308.476 494.319L309.504 496.889C304.755 499.175 301.423 501.479 299.544 503.836C297.648 506.175 297.187 508.55 298.144 510.943C298.817 512.591 299.987 513.849 301.671 514.7C303.354 515.551 305.127 516.012 307.005 516.082C308.884 516.171 312.322 516.082 317.355 515.852C320.368 515.71 322.247 515.923 323.027 516.508C323.789 517.093 324.533 518.298 325.26 520.088C325.543 520.797 325.526 521.435 325.189 521.984C324.852 522.533 324.214 523.012 323.222 523.402C322.087 523.863 321.254 523.898 320.74 523.491C320.227 523.083 319.535 521.807 318.667 519.645L318.277 518.688L317.869 517.677L316.469 517.093L315.388 518.404L303.425 523.491L304.063 525.068C305.499 528.648 307.945 530.562 311.401 530.828C314.856 531.111 318.561 530.562 322.513 529.233L322.371 531.767L323.753 532.352L330.4 529.676L329.177 526.663C333.979 524.288 337.276 521.789 339.101 519.166C340.927 516.543 341.264 513.796 340.112 510.943C339.403 509.153 338.339 507.841 336.939 507.026L336.975 507.008Z" fill="#AA7E03"/>
</g>
<path d="M331.782 497.863L317.356 503.676L316.824 502.347C316.257 500.929 315.708 500.061 315.212 499.777C314.698 499.476 313.9 499.547 312.801 499.99C311.915 500.345 311.33 500.805 311.047 501.355C310.763 501.904 310.763 502.56 311.064 503.322C311.578 504.58 312.376 505.271 313.492 505.413C314.574 505.555 317.569 505.502 322.46 505.218C326.625 504.97 329.496 504.899 331.109 505.023C332.704 505.13 334.193 505.608 335.593 506.441C336.993 507.274 338.056 508.568 338.765 510.358C339.917 513.211 339.58 515.958 337.755 518.581C335.929 521.204 332.633 523.703 327.83 526.078L329.053 529.091L322.407 531.767L321.149 528.648C317.214 529.995 313.51 530.526 310.036 530.243C306.58 529.959 304.135 528.045 302.699 524.465L302.061 522.906L316.487 517.093L317.285 519.06C318.154 521.222 318.845 522.498 319.341 522.906C319.855 523.313 320.67 523.278 321.822 522.817C322.797 522.427 323.453 521.949 323.772 521.399C324.108 520.85 324.126 520.212 323.842 519.485C323.116 517.695 322.371 516.49 321.609 515.905C320.847 515.32 318.969 515.09 315.956 515.249C310.94 515.498 307.484 515.568 305.606 515.48C303.727 515.391 301.955 514.93 300.271 514.08C298.588 513.229 297.418 511.988 296.744 510.34C295.787 507.948 296.248 505.573 298.144 503.233C300.041 500.894 303.355 498.572 308.105 496.286L307.077 493.734L313.723 491.058L314.751 493.61C319.323 492.139 322.992 491.625 325.757 492.068C328.504 492.511 330.364 493.929 331.321 496.304C331.463 496.641 331.605 497.154 331.782 497.863Z" fill="white"/>
<g style="mix-blend-mode:screen" opacity="0.7">
<path style="mix-blend-mode:screen" d="M314.839 493.574V493.61C318.826 492.334 322.123 491.767 324.728 491.944C322.123 491.749 318.826 492.298 314.839 493.574Z" fill="url(#paint12_linear_701_7761)"/>
<path style="mix-blend-mode:screen" d="M314.644 499.6C314.857 499.618 315.052 499.671 315.193 499.777C315.707 500.079 316.239 500.929 316.806 502.347L317.338 503.676L317.427 503.641L316.913 502.347C316.345 500.929 315.814 500.079 315.282 499.777C315.105 499.671 314.875 499.618 314.626 499.6H314.644Z" fill="url(#paint13_linear_701_7761)"/>
<path style="mix-blend-mode:screen" d="M323.896 521.399C324.232 520.85 324.25 520.212 323.967 519.485C323.24 517.695 322.496 516.49 321.734 515.905C321.273 515.551 320.404 515.32 319.111 515.249C320.333 515.338 321.166 515.568 321.627 515.905C322.389 516.508 323.134 517.695 323.86 519.485C324.144 520.194 324.126 520.832 323.789 521.399C323.47 521.948 322.815 522.427 321.84 522.817C321.184 523.083 320.635 523.207 320.192 523.189C320.652 523.242 321.237 523.118 321.946 522.835C322.921 522.445 323.577 521.966 323.896 521.417V521.399Z" fill="url(#paint14_linear_701_7761)"/>
<path style="mix-blend-mode:screen" d="M331.091 505.006C329.496 504.882 326.607 504.953 322.442 505.201C318.1 505.449 315.265 505.52 313.918 505.431C315.211 505.537 318.083 505.449 322.549 505.201C326.625 504.953 329.478 504.899 331.091 505.006Z" fill="url(#paint15_linear_701_7761)"/>
<path style="mix-blend-mode:screen" d="M321.255 528.665C321.255 528.665 321.202 528.683 321.166 528.701L322.407 531.785L322.495 531.749L321.255 528.683V528.665Z" fill="url(#paint16_linear_701_7761)"/>
<path style="mix-blend-mode:screen" d="M310.142 530.261C306.687 529.977 304.241 528.063 302.787 524.483L302.167 522.923L316.505 517.146V517.092L302.061 522.906L302.699 524.465C304.135 528.045 306.58 529.959 310.036 530.243C310.142 530.243 310.267 530.261 310.373 530.261C310.302 530.261 310.213 530.261 310.142 530.261Z" fill="url(#paint17_linear_701_7761)"/>
<path style="mix-blend-mode:screen" d="M305.322 515.462C303.603 515.338 301.955 514.877 300.395 514.097C298.712 513.247 297.542 512.006 296.868 510.34C295.911 507.948 296.372 505.573 298.251 503.233C300.147 500.894 303.461 498.572 308.211 496.286L307.183 493.734L313.741 491.093V491.058L307.077 493.734L308.105 496.286C303.355 498.572 300.023 500.876 298.144 503.233C296.248 505.573 295.787 507.948 296.744 510.34C297.4 511.988 298.588 513.247 300.271 514.08C301.866 514.877 303.55 515.338 305.322 515.462Z" fill="url(#paint18_linear_701_7761)"/>
</g>
</g>
<g style="mix-blend-mode:luminosity" filter="url(#filter2_f_701_7761)">
<path d="M149.801 16.7434C144.041 9.19237 128.601 7.852 113.131 14.0831C97.6601 20.3143 87.4591 31.9784 88.5334 41.4121L88.0833 41.3917L88.8506 43.2436C92.8103 53.0661 109.908 55.4501 127.035 48.5436C144.163 41.6474 154.835 28.0904 150.886 18.2577L150.118 16.3955L149.811 16.7331L149.801 16.7434Z" fill="#D16A0D"/>
<path d="M149.023 13.684C149.259 14.257 149.392 14.4821 149.555 14.9323C149.617 15.1063 150.077 16.1806 150.118 16.4057C151.632 25.9314 141.155 38.2095 125.408 44.5532C109.293 51.0401 93.2399 49.1063 88.0934 41.3813C88.0934 41.3813 87.2338 39.2429 87.0087 38.6597C83.049 28.827 93.731 15.2699 110.859 8.37374C127.987 1.47755 145.084 3.85132 149.034 13.6738L149.023 13.684Z" fill="#D16A0D"/>
<path d="M148.849 13.2545C152.809 23.077 142.127 36.6443 124.999 43.5405C107.871 50.4367 90.7741 48.0629 86.8247 38.2405C82.865 28.418 93.5468 14.8507 110.675 7.9545C127.803 1.0583 144.9 3.43206 148.849 13.2545Z" fill="url(#paint19_linear_701_7761)"/>
<g style="mix-blend-mode:screen" opacity="0.5">
<path d="M110.716 8.05658C127.813 1.17062 144.869 3.52391 148.87 13.3055C148.87 13.285 148.86 13.2748 148.849 13.2543C144.89 3.4216 127.803 1.04784 110.675 7.95427C93.5468 14.8505 82.865 28.4075 86.8247 38.2402C86.8247 38.2607 86.8349 38.2709 86.8451 38.2914C82.9468 28.4689 93.6185 14.9528 110.716 8.06682V8.05658Z" fill="#FEF0A0"/>
</g>
<path d="M143.948 15.229C147.284 23.5065 138.29 34.9252 123.863 40.7266C109.437 46.5382 95.051 44.5328 91.7154 36.2553C88.3799 27.9778 97.3736 16.5592 111.8 10.7578C126.227 4.94614 140.623 6.95156 143.948 15.229Z" fill="url(#paint20_linear_701_7761)"/>
<path d="M143.948 15.229C147.284 23.5065 138.29 34.9252 123.863 40.7266C109.437 46.5382 95.051 44.5328 91.7154 36.2553C88.3799 27.9778 97.3736 16.5592 111.8 10.7578C126.227 4.94614 140.623 6.95156 143.948 15.229Z" fill="url(#paint21_linear_701_7761)"/>
<g style="mix-blend-mode:multiply">
<path d="M111.8 10.7579C126.186 4.9667 140.541 6.94143 143.928 15.1677C143.928 15.1473 143.907 15.1268 143.907 15.1064C140.572 6.82888 126.176 4.8337 111.759 10.6453C97.3326 16.457 88.3491 27.8756 91.6744 36.1428C91.6846 36.1633 91.6949 36.1837 91.7051 36.2042C88.4514 27.937 97.4246 16.5593 111.81 10.7681L111.8 10.7579Z" fill="#FEF0A0"/>
</g>
<g style="mix-blend-mode:screen" opacity="0.3">
<path d="M123.874 40.7266C109.478 46.5177 95.1123 44.543 91.7461 36.3064C91.7461 36.3269 91.7563 36.3371 91.7666 36.3576C95.1021 44.6351 109.488 46.6303 123.915 40.8289C138.342 35.0172 147.335 23.5986 144 15.3314C144 15.3109 143.989 15.3007 143.979 15.2802C147.253 23.5475 138.27 34.9354 123.874 40.7266Z" fill="#FEF0A0"/>
</g>
<path opacity="0.4" d="M112.077 11.4331C126.37 5.67259 140.541 7.37105 144.041 15.4541C144.01 15.3825 143.99 15.3006 143.949 15.229C140.623 6.95155 126.227 4.95636 111.801 10.7578C97.3738 16.5694 88.3903 27.988 91.7157 36.2553C91.7463 36.3269 91.777 36.3985 91.8077 36.4804C88.7279 28.2234 97.7727 17.1833 112.066 11.4228L112.077 11.4331Z" fill="#D16A0D"/>
<g style="mix-blend-mode:multiply" opacity="0.4">
<path d="M128.13 23.0563C127.322 22.5755 126.462 22.2992 125.531 22.2378C124.61 22.1662 122.943 22.2071 120.548 22.3504C117.724 22.5141 115.995 22.555 115.371 22.4629C114.727 22.381 114.266 21.982 113.969 21.2556C113.796 20.8156 113.796 20.4472 113.959 20.1198C114.133 19.8026 114.471 19.5366 114.972 19.332C115.607 19.0762 116.067 19.0353 116.364 19.2092C116.66 19.3831 116.967 19.8742 117.295 20.6928L116.804 21.1225L117.612 21.4602L125.941 18.1042C125.838 17.6949 125.746 17.388 125.675 17.2038C125.122 15.8327 124.058 15.0244 122.462 14.7686C120.876 14.5026 118.758 14.7993 116.108 15.6588L115.515 14.1752L114.706 13.8478L114.512 14.5128L111.678 15.7304L112.271 17.214C109.529 18.5339 107.605 19.864 106.521 21.2249C105.426 22.5754 105.16 23.9465 105.712 25.3278C106.101 26.2793 106.777 27.0058 107.749 27.4969C108.721 27.988 109.744 28.2541 110.828 28.295C111.913 28.3462 113.898 28.295 116.804 28.162C118.543 28.0801 119.628 28.2029 120.078 28.5405C120.518 28.8782 120.948 29.5739 121.367 30.6073C121.531 31.0166 121.52 31.385 121.326 31.7022C121.132 32.0193 120.763 32.2956 120.19 32.5207C119.536 32.7867 119.055 32.8072 118.758 32.5719C118.461 32.3365 118.062 31.5998 117.561 30.3516L117.336 29.7991L117.1 29.2158L116.292 28.8782L115.668 29.6354L108.761 32.5719L109.13 33.4825C109.959 35.5493 111.371 36.6543 113.366 36.8078C115.361 36.9715 117.499 36.6543 119.781 35.8869L119.699 37.3501L120.497 37.6877L124.334 36.1427L123.628 34.4033C126.401 33.0323 128.304 31.5896 129.358 30.0753C130.412 28.561 130.606 26.9751 129.941 25.3278C129.532 24.2944 128.918 23.5372 128.11 23.0666L128.13 23.0563Z" fill="#AA7E03"/>
</g>
<path d="M125.132 17.7768L116.804 21.1328L116.497 20.3655C116.169 19.5469 115.852 19.0455 115.566 18.8818C115.269 18.7079 114.808 18.7488 114.174 19.0046C113.662 19.2093 113.325 19.4753 113.161 19.7925C112.997 20.1097 112.997 20.4882 113.171 20.9282C113.468 21.6546 113.929 22.0537 114.573 22.1355C115.197 22.2174 116.926 22.1867 119.75 22.023C122.155 21.8797 123.812 21.8388 124.743 21.9104C125.664 21.9718 126.524 22.2481 127.332 22.729C128.14 23.2099 128.754 23.9568 129.164 24.9902C129.829 26.6375 129.634 28.2234 128.58 29.7377C127.526 31.252 125.623 32.6947 122.851 34.0657L123.557 35.8052L119.72 37.3501L118.993 35.5494C116.722 36.327 114.583 36.6339 112.578 36.4702C110.583 36.3065 109.171 35.2015 108.342 33.1347L107.974 32.2343L116.302 28.8782L116.763 30.014C117.264 31.2623 117.663 31.9989 117.95 32.2343C118.246 32.4696 118.717 32.4491 119.382 32.1831C119.945 31.958 120.323 31.6818 120.507 31.3646C120.702 31.0474 120.712 30.679 120.548 30.2595C120.129 29.2261 119.699 28.5304 119.259 28.1927C118.819 27.8551 117.735 27.7221 115.995 27.8142C113.1 27.9574 111.104 27.9983 110.02 27.9472C108.935 27.896 107.912 27.63 106.94 27.1389C105.968 26.6477 105.293 25.9315 104.904 24.98C104.352 23.5987 104.618 22.2276 105.712 20.877C106.807 19.5265 108.721 18.1861 111.463 16.8662L110.869 15.3928L114.706 13.8478L115.3 15.3212C117.939 14.4719 120.057 14.1752 121.654 14.431C123.239 14.6868 124.314 15.5054 124.866 16.8764C124.948 17.0708 125.03 17.3676 125.132 17.7768Z" fill="white"/>
<g style="mix-blend-mode:screen" opacity="0.7">
<path style="mix-blend-mode:screen" d="M115.351 15.3007V15.3211C117.653 14.5844 119.556 14.257 121.06 14.3594C119.556 14.2468 117.653 14.564 115.351 15.3007Z" fill="url(#paint22_linear_701_7761)"/>
<path style="mix-blend-mode:screen" d="M115.238 18.7795C115.361 18.7897 115.474 18.8204 115.555 18.8818C115.852 19.0557 116.159 19.5469 116.487 20.3654L116.794 21.1328L116.845 21.1123L116.548 20.3654C116.22 19.5469 115.914 19.0557 115.607 18.8818C115.504 18.8204 115.371 18.7897 115.228 18.7795H115.238Z" fill="url(#paint23_linear_701_7761)"/>
<path style="mix-blend-mode:screen" d="M120.579 31.3645C120.774 31.0473 120.784 30.679 120.62 30.2595C120.201 29.2261 119.771 28.5303 119.331 28.1927C119.065 27.988 118.564 27.855 117.817 27.8141C118.523 27.8652 119.003 27.9983 119.269 28.1927C119.709 28.5405 120.139 29.2261 120.559 30.2595C120.722 30.6687 120.712 31.0371 120.518 31.3645C120.334 31.6817 119.955 31.9579 119.392 32.183C119.014 32.3365 118.697 32.4081 118.441 32.3979C118.707 32.4286 119.044 32.357 119.454 32.1933C120.016 31.9682 120.395 31.6919 120.579 31.3747V31.3645Z" fill="url(#paint24_linear_701_7761)"/>
<path style="mix-blend-mode:screen" d="M124.733 21.9002C123.812 21.8286 122.145 21.8695 119.74 22.0127C117.233 22.156 115.596 22.1969 114.819 22.1457C115.566 22.2071 117.223 22.156 119.802 22.0127C122.155 21.8695 123.802 21.8388 124.733 21.9002Z" fill="url(#paint25_linear_701_7761)"/>
<path style="mix-blend-mode:screen" d="M119.055 35.5595C119.055 35.5595 119.024 35.5698 119.003 35.58L119.72 37.3603L119.771 37.3399L119.055 35.5698V35.5595Z" fill="url(#paint26_linear_701_7761)"/>
<path style="mix-blend-mode:screen" d="M112.639 36.4803C110.644 36.3166 109.232 35.2116 108.393 33.1448L108.035 32.2444L116.312 28.9088V28.8781L107.973 32.2341L108.342 33.1345C109.171 35.2013 110.582 36.3064 112.578 36.4701C112.639 36.4701 112.711 36.4803 112.772 36.4803C112.731 36.4803 112.68 36.4803 112.639 36.4803Z" fill="url(#paint27_linear_701_7761)"/>
<path style="mix-blend-mode:screen" d="M109.856 27.9369C108.864 27.8653 107.912 27.5993 107.012 27.1491C106.04 26.658 105.365 25.9417 104.976 24.98C104.423 23.5987 104.689 22.2276 105.774 20.877C106.869 19.5265 108.782 18.1861 111.524 16.8662L110.931 15.3928L114.716 13.8683V13.8478L110.869 15.3928L111.463 16.8662C108.721 18.1861 106.797 19.5162 105.712 20.877C104.618 22.2276 104.352 23.5987 104.904 24.98C105.283 25.9315 105.968 26.658 106.94 27.1389C107.861 27.5993 108.833 27.8653 109.856 27.9369Z" fill="url(#paint28_linear_701_7761)"/>
</g>
</g>
<g filter="url(#filter3_f_701_7761)">
<path d="M191.134 312.369C219.927 328.993 256.745 319.127 273.369 290.334C289.992 261.541 280.127 224.723 251.333 208.1C222.54 191.476 185.724 201.342 169.1 230.135C152.476 258.928 162.34 295.745 191.134 312.369Z" fill="url(#paint29_radial_701_7761)" style="mix-blend-mode:luminosity"/>
<path fill-rule="evenodd" clip-rule="evenodd" d="M203.174 291.515C220.45 301.489 242.541 295.57 252.516 278.294C262.49 261.019 256.57 238.928 239.294 228.954C222.018 218.979 199.928 224.899 189.954 242.174C179.98 259.45 185.899 281.541 203.174 291.515ZM257.729 281.304C246.093 301.46 220.32 308.365 200.164 296.728C180.009 285.092 173.104 259.32 184.741 239.165C196.377 219.009 222.149 212.103 242.304 223.74C262.46 235.377 269.366 261.149 257.729 281.304Z" fill="#683EE6"/>
<path fill-rule="evenodd" clip-rule="evenodd" d="M211.198 319.608C204.32 318.446 197.529 316.061 191.134 312.369C184.739 308.676 179.278 303.988 174.833 298.613C181.711 299.774 188.502 302.16 194.897 305.852C201.292 309.544 206.753 314.233 211.198 319.608Z" fill="#9D7CFF"/>
<path fill-rule="evenodd" clip-rule="evenodd" d="M280.608 270.271C275.233 274.716 270.545 280.177 266.853 286.572C263.161 292.967 260.775 299.758 259.613 306.635C264.989 302.19 269.677 296.729 273.369 290.334C277.061 283.939 279.447 277.148 280.608 270.271Z" fill="#9D7CFF"/>
<path fill-rule="evenodd" clip-rule="evenodd" d="M161.861 250.199C167.236 245.754 171.925 240.292 175.617 233.897C179.309 227.502 181.695 220.711 182.856 213.833C177.481 218.278 172.792 223.74 169.1 230.135C165.408 236.53 163.022 243.321 161.861 250.199Z" fill="#9D7CFF"/>
<path fill-rule="evenodd" clip-rule="evenodd" d="M267.636 221.856C260.758 220.694 253.967 218.309 247.572 214.617C241.177 210.924 235.715 206.236 231.27 200.86C238.148 202.022 244.939 204.407 251.334 208.1C257.729 211.792 263.191 216.48 267.636 221.856Z" fill="#9D7CFF"/>
<path d="M211.185 272.294C209.825 271.498 208.64 270.508 207.629 269.325C206.627 268.148 205.917 266.764 205.498 265.175C205.079 263.585 205.058 261.787 205.433 259.781C205.817 257.779 206.71 255.564 208.111 253.136C209.407 250.912 210.811 249.068 212.325 247.604C213.852 246.135 215.441 245.06 217.091 244.377C218.75 243.698 220.425 243.421 222.116 243.545C223.812 243.66 225.48 244.192 227.122 245.14C228.893 246.162 230.257 247.411 231.215 248.885C232.177 250.351 232.73 251.908 232.872 253.557C233.023 255.211 232.763 256.817 232.093 258.377L226.559 255.182C226.877 254.133 226.843 253.146 226.456 252.22C226.069 251.294 225.366 250.536 224.346 249.948C222.618 248.95 220.871 248.943 219.104 249.928C217.347 250.917 215.713 252.699 214.205 255.272L214.386 255.377C215.237 254.82 216.16 254.46 217.153 254.296C218.16 254.128 219.18 254.147 220.213 254.352C221.26 254.554 222.268 254.934 223.236 255.492C224.808 256.4 225.993 257.58 226.791 259.031C227.594 260.474 227.978 262.043 227.943 263.74C227.908 265.436 227.412 267.114 226.454 268.773C225.417 270.57 224.075 271.926 222.429 272.842C220.791 273.763 218.996 274.189 217.042 274.121C215.102 274.049 213.15 273.44 211.185 272.294ZM213.703 267.873C214.567 268.372 215.46 268.611 216.382 268.59C217.304 268.57 218.164 268.317 218.962 267.833C219.759 267.349 220.413 266.667 220.922 265.786C221.43 264.904 221.692 264.002 221.708 263.077C221.732 262.158 221.526 261.296 221.092 260.493C220.657 259.689 220.008 259.038 219.144 258.539C218.496 258.165 217.826 257.939 217.133 257.862C216.449 257.789 215.775 257.849 215.111 258.042C214.456 258.239 213.847 258.556 213.284 258.991C212.727 259.418 212.263 259.952 211.894 260.591C211.4 261.446 211.143 262.34 211.123 263.273C211.111 264.211 211.32 265.086 211.75 265.899C212.188 266.716 212.839 267.374 213.703 267.873Z" fill="white"/>
</g>
<g filter="url(#filter4_f_701_7761)">
<path d="M63.2042 187.603C79.4046 178.249 84.9555 157.534 75.6022 141.333C66.2489 125.133 45.5333 119.583 29.3329 128.936C13.1325 138.289 7.5823 159.004 16.9356 175.205C26.2889 191.405 47.0038 196.956 63.2042 187.603Z" fill="url(#paint30_radial_701_7761)" style="mix-blend-mode:luminosity"/>
<path d="M65.9363 146.914C72.2074 157.776 68.4857 171.665 57.6236 177.936C46.7616 184.208 32.8727 180.486 26.6016 169.624C20.3304 158.762 24.0517 144.873 34.9137 138.602C45.7758 132.33 59.6651 136.052 65.9363 146.914Z" stroke="#683EE6" stroke-width="2"/>
<path fill-rule="evenodd" clip-rule="evenodd" d="M60.7728 188.88C61.5144 188.357 62.2861 187.863 63.0875 187.4C63.8888 186.937 64.7026 186.516 65.5264 186.135C68.1411 184.333 70.4317 182.215 72.3765 179.863C68.5067 180.516 64.6857 181.858 61.0875 183.936C57.4892 186.013 54.4163 188.651 51.9154 191.676C54.9246 191.168 57.9044 190.243 60.7728 188.88Z" fill="#9D7CFF"/>
<path fill-rule="evenodd" clip-rule="evenodd" d="M67.8627 132.162C68.5163 136.031 69.8585 139.852 71.9359 143.45C74.0133 147.048 76.6511 150.121 79.6754 152.622C79.1671 149.612 78.2422 146.632 76.8788 143.763C76.356 143.022 75.8623 142.251 75.4 141.45C74.9377 140.649 74.5167 139.836 74.1363 139.013C72.3335 136.398 70.215 134.107 67.8627 132.162Z" fill="#9D7CFF"/>
<path fill-rule="evenodd" clip-rule="evenodd" d="M24.6754 184.377C24.0219 180.507 22.6797 176.686 20.6023 173.088C18.5248 169.489 15.8868 166.416 12.8622 163.916C13.3704 166.925 14.2951 169.904 15.6582 172.773C16.1814 173.515 16.6755 174.286 17.1382 175.088C17.6008 175.889 18.022 176.703 18.4026 177.526C20.2053 180.141 22.3235 182.432 24.6754 184.377Z" fill="#9D7CFF"/>
<path fill-rule="evenodd" clip-rule="evenodd" d="M31.7644 127.658C31.0228 128.182 30.2511 128.676 29.4498 129.138C28.6486 129.601 27.8348 130.022 27.011 130.403C24.3963 132.205 22.1057 134.324 20.1609 136.676C24.0306 136.022 27.8516 134.68 31.4498 132.602C35.0481 130.525 38.121 127.887 40.6219 124.862C37.6126 125.371 34.6328 126.295 31.7644 127.658Z" fill="#9D7CFF"/>
<path d="M49.1476 166.657C48.0247 167.305 46.9205 167.7 45.835 167.84C44.7516 167.973 43.7781 167.864 42.9146 167.514C42.0511 167.163 41.3864 166.585 40.9205 165.778C40.5613 165.155 40.3725 164.503 40.3541 163.82C40.3378 163.129 40.4755 162.47 40.7672 161.841C41.0561 161.208 41.4763 160.667 42.0278 160.219L41.9689 160.117C41.0791 160.417 40.2094 160.403 39.3599 160.077C38.5077 159.746 37.8458 159.172 37.3743 158.356C36.928 157.583 36.757 156.764 36.861 155.9C36.9623 155.032 37.307 154.198 37.8953 153.398C38.4856 152.59 39.2838 151.896 40.2901 151.315C41.2963 150.734 42.2943 150.391 43.2838 150.287C44.2783 150.179 45.1769 150.299 45.9798 150.645C46.7799 150.987 47.4041 151.541 47.8524 152.306C48.3219 153.13 48.4831 153.993 48.336 154.895C48.1889 155.796 47.7704 156.553 47.0804 157.166L47.1393 157.268C47.7934 157.02 48.4645 156.93 49.1527 157C49.8429 157.061 50.483 157.272 51.0729 157.631C51.6649 157.983 52.1429 158.469 52.507 159.088C52.968 159.898 53.1345 160.764 53.0063 161.687C52.8781 162.61 52.4832 163.509 51.8215 164.384C51.1618 165.251 50.2705 166.009 49.1476 166.657ZM47.8089 164.338C48.3096 164.049 48.6952 163.707 48.9656 163.311C49.2333 162.91 49.379 162.489 49.4028 162.047C49.4287 161.598 49.3195 161.162 49.0753 160.739C48.8255 160.306 48.4959 159.988 48.0863 159.784C47.6738 159.574 47.2258 159.483 46.742 159.51C46.2554 159.531 45.7691 159.682 45.283 159.963C44.8017 160.241 44.4277 160.587 44.1607 161C43.891 161.408 43.7436 161.844 43.7185 162.305C43.6955 162.759 43.8089 163.203 44.0586 163.635C44.3028 164.058 44.6234 164.372 45.0205 164.577C45.4148 164.777 45.8548 164.86 46.3406 164.826C46.8236 164.787 47.3131 164.624 47.8089 164.338ZM43.9569 157.666C44.3749 157.425 44.6977 157.125 44.9252 156.767C45.1526 156.409 45.2717 156.026 45.2824 155.618C45.2931 155.21 45.1848 154.809 44.9575 154.415C44.733 154.026 44.4442 153.739 44.091 153.554C43.7351 153.364 43.349 153.279 42.9328 153.299C42.5137 153.314 42.0903 153.445 41.6625 153.692C41.2396 153.936 40.9144 154.238 40.6869 154.596C40.4567 154.949 40.3348 155.327 40.3212 155.731C40.3098 156.126 40.4163 156.518 40.6408 156.907C40.8682 157.301 41.1612 157.595 41.5199 157.79C41.8786 157.985 42.27 158.073 42.6939 158.055C43.1178 158.037 43.5388 157.908 43.9569 157.666Z" fill="white"/>
</g>
<g filter="url(#filter5_f_701_7761)">
<path d="M117.349 473.049C135.768 491.467 165.63 491.468 184.049 473.049C202.467 454.631 202.467 424.768 184.048 406.35C165.63 387.931 135.768 387.932 117.35 406.35C98.9313 424.769 98.9306 454.63 117.349 473.049Z" fill="url(#paint31_radial_701_7761)" style="mix-blend-mode:luminosity"/>
<path fill-rule="evenodd" clip-rule="evenodd" d="M130.689 459.709C141.741 470.76 159.658 470.76 170.709 459.709C181.76 448.658 181.76 430.741 170.709 419.69C159.658 408.639 141.741 408.639 130.69 419.69C119.639 430.741 119.638 448.658 130.689 459.709ZM174.044 463.044C161.151 475.937 140.247 475.937 127.354 463.044C114.461 450.151 114.462 429.248 127.355 416.355C140.248 403.462 161.151 403.462 174.044 416.355C186.937 429.248 186.937 450.151 174.044 463.044Z" fill="#683EE6"/>
<path fill-rule="evenodd" clip-rule="evenodd" d="M131.065 482.595C126.096 480.322 121.44 477.14 117.349 473.049C113.258 468.958 110.076 464.302 107.803 459.333C112.772 461.607 117.427 464.789 121.518 468.88C125.609 472.971 128.791 477.626 131.065 482.595Z" fill="#9D7CFF"/>
<path fill-rule="evenodd" clip-rule="evenodd" d="M193.596 459.334C188.627 461.608 183.971 464.79 179.881 468.881C175.79 472.971 172.608 477.627 170.334 482.596C175.303 480.322 179.958 477.14 184.049 473.049C188.14 468.958 191.322 464.303 193.596 459.334Z" fill="#9D7CFF"/>
<path fill-rule="evenodd" clip-rule="evenodd" d="M107.803 420.065C112.772 417.792 117.428 414.609 121.519 410.518C125.61 406.427 128.792 401.772 131.065 396.803C126.096 399.076 121.441 402.259 117.35 406.35C113.259 410.441 110.077 415.096 107.803 420.065Z" fill="#9D7CFF"/>
<path fill-rule="evenodd" clip-rule="evenodd" d="M193.596 420.065C188.627 417.792 183.971 414.609 179.88 410.518C175.79 406.428 172.607 401.772 170.334 396.803C175.303 399.077 179.958 402.259 184.049 406.35C188.14 410.441 191.322 415.096 193.596 420.065Z" fill="#9D7CFF"/>
<path d="M136.634 442.309L157.6 435.42L157.716 435.304L149.517 427.106L152.452 424.171L164.364 436.084L161.388 439.06L140.34 446.015L136.634 442.309Z" fill="white"/>
</g>
<defs>
<filter id="filter0_f_701_7761" x="50.3794" y="268.969" width="69.3191" height="70.242" filterUnits="userSpaceOnUse" color-interpolation-filters="sRGB">
<feFlood flood-opacity="0" result="BackgroundImageFix"/>
<feBlend mode="normal" in="SourceGraphic" in2="BackgroundImageFix" result="shape"/>
<feGaussianBlur stdDeviation="4" result="effect1_foregroundBlur_701_7761"/>
</filter>
<filter id="filter1_f_701_7761" x="259" y="469" width="123.814" height="94" filterUnits="userSpaceOnUse" color-interpolation-filters="sRGB">
<feFlood flood-opacity="0" result="BackgroundImageFix"/>
<feBlend mode="normal" in="SourceGraphic" in2="BackgroundImageFix" result="shape"/>
<feGaussianBlur stdDeviation="2.5" result="effect1_foregroundBlur_701_7761"/>
</filter>
<filter id="filter2_f_701_7761" x="82" y="0" width="73.7073" height="56.4951" filterUnits="userSpaceOnUse" color-interpolation-filters="sRGB">
<feFlood flood-opacity="0" result="BackgroundImageFix"/>
<feBlend mode="normal" in="SourceGraphic" in2="BackgroundImageFix" result="shape"/>
<feGaussianBlur stdDeviation="2" result="effect1_foregroundBlur_701_7761"/>
</filter>
<filter id="filter3_f_701_7761" x="157.024" y="196.024" width="128.419" height="128.42" filterUnits="userSpaceOnUse" color-interpolation-filters="sRGB">
<feFlood flood-opacity="0" result="BackgroundImageFix"/>
<feBlend mode="normal" in="SourceGraphic" in2="BackgroundImageFix" result="shape"/>
<feGaussianBlur stdDeviation="2" result="effect1_foregroundBlur_701_7761"/>
</filter>
<filter id="filter4_f_701_7761" x="4.39185" y="116.392" width="83.7539" height="83.7539" filterUnits="userSpaceOnUse" color-interpolation-filters="sRGB">
<feFlood flood-opacity="0" result="BackgroundImageFix"/>
<feBlend mode="normal" in="SourceGraphic" in2="BackgroundImageFix" result="shape"/>
<feGaussianBlur stdDeviation="4" result="effect1_foregroundBlur_701_7761"/>
</filter>
<filter id="filter5_f_701_7761" x="95.5356" y="384.536" width="110.327" height="110.327" filterUnits="userSpaceOnUse" color-interpolation-filters="sRGB">
<feFlood flood-opacity="0" result="BackgroundImageFix"/>
<feBlend mode="normal" in="SourceGraphic" in2="BackgroundImageFix" result="shape"/>
<feGaussianBlur stdDeviation="4" result="effect1_foregroundBlur_701_7761"/>
</filter>
<linearGradient id="paint0_linear_701_7761" x1="62.1982" y1="317.086" x2="107.598" y2="290.029" gradientUnits="userSpaceOnUse">
<stop stop-color="#FFD08D"/>
<stop offset="0.58" stop-color="#FFDC2A"/>
<stop offset="0.81" stop-color="#F3C237"/>
<stop offset="1" stop-color="#EBB140"/>
</linearGradient>
<linearGradient id="paint1_linear_701_7761" x1="94.6095" y1="323.468" x2="75.7274" y2="283.169" gradientUnits="userSpaceOnUse">
<stop stop-color="#FFAA3F"/>
<stop offset="0.58" stop-color="#FFAF2A"/>
<stop offset="0.71" stop-color="#F8A631"/>
<stop offset="1" stop-color="#EC9540"/>
</linearGradient>
<linearGradient id="paint2_linear_701_7761" x1="82.9293" y1="290.297" x2="82.1657" y2="288.667" gradientUnits="userSpaceOnUse">
<stop offset="0.04" stop-color="#F8DA36"/>
<stop offset="0.11" stop-color="#F1CD21"/>
<stop offset="0.19" stop-color="#EBC412"/>
<stop offset="0.28" stop-color="#E8BE09"/>
<stop offset="0.42" stop-color="#E8BD07"/>
<stop offset="0.51" stop-color="#EFCB1B"/>
<stop offset="0.64" stop-color="#F8DB33"/>
<stop offset="0.77" stop-color="#FDE542"/>
<stop offset="0.87" stop-color="#FFE947"/>
<stop offset="1" stop-color="#FFEC63"/>
</linearGradient>
<linearGradient id="paint3_linear_701_7761" x1="82.9617" y1="297.644" x2="81.287" y2="294.07" gradientUnits="userSpaceOnUse">
<stop offset="0.04" stop-color="#F8DA36"/>
<stop offset="0.11" stop-color="#F1CD21"/>
<stop offset="0.19" stop-color="#EBC412"/>
<stop offset="0.28" stop-color="#E8BE09"/>
<stop offset="0.42" stop-color="#E8BD07"/>
<stop offset="0.51" stop-color="#EFCB1B"/>
<stop offset="0.64" stop-color="#F8DB33"/>
<stop offset="0.77" stop-color="#FDE542"/>
<stop offset="0.87" stop-color="#FFE947"/>
<stop offset="1" stop-color="#FFEC63"/>
</linearGradient>
<linearGradient id="paint4_linear_701_7761" x1="88.9978" y1="312.456" x2="86.1777" y2="306.437" gradientUnits="userSpaceOnUse">
<stop offset="0.04" stop-color="#F8DA36"/>
<stop offset="0.11" stop-color="#F1CD21"/>
<stop offset="0.19" stop-color="#EBC412"/>
<stop offset="0.28" stop-color="#E8BE09"/>
<stop offset="0.42" stop-color="#E8BD07"/>
<stop offset="0.51" stop-color="#EFCB1B"/>
<stop offset="0.64" stop-color="#F8DB33"/>
<stop offset="0.77" stop-color="#FDE542"/>
<stop offset="0.87" stop-color="#FFE947"/>
<stop offset="1" stop-color="#FFEC63"/>
</linearGradient>
<linearGradient id="paint5_linear_701_7761" x1="87.1004" y1="301.465" x2="85.0091" y2="297.001" gradientUnits="userSpaceOnUse">
<stop offset="0.04" stop-color="#F8DA36"/>
<stop offset="0.11" stop-color="#F1CD21"/>
<stop offset="0.19" stop-color="#EBC412"/>
<stop offset="0.28" stop-color="#E8BE09"/>
<stop offset="0.42" stop-color="#E8BD07"/>
<stop offset="0.51" stop-color="#EFCB1B"/>
<stop offset="0.64" stop-color="#F8DB33"/>
<stop offset="0.77" stop-color="#FDE542"/>
<stop offset="0.87" stop-color="#FFE947"/>
<stop offset="1" stop-color="#FFEC63"/>
</linearGradient>
<linearGradient id="paint6_linear_701_7761" x1="90.4851" y1="319.438" x2="89.331" y2="316.975" gradientUnits="userSpaceOnUse">
<stop offset="0.04" stop-color="#F8DA36"/>
<stop offset="0.11" stop-color="#F1CD21"/>
<stop offset="0.19" stop-color="#EBC412"/>
<stop offset="0.28" stop-color="#E8BE09"/>
<stop offset="0.42" stop-color="#E8BD07"/>
<stop offset="0.51" stop-color="#EFCB1B"/>
<stop offset="0.64" stop-color="#F8DB33"/>
<stop offset="0.77" stop-color="#FDE542"/>
<stop offset="0.87" stop-color="#FFE947"/>
<stop offset="1" stop-color="#FFEC63"/>
</linearGradient>
<linearGradient id="paint7_linear_701_7761" x1="85.2148" y1="316.577" x2="81.7526" y2="309.187" gradientUnits="userSpaceOnUse">
<stop offset="0.04" stop-color="#F8DA36"/>
<stop offset="0.11" stop-color="#F1CD21"/>
<stop offset="0.19" stop-color="#EBC412"/>
<stop offset="0.28" stop-color="#E8BE09"/>
<stop offset="0.42" stop-color="#E8BD07"/>
<stop offset="0.51" stop-color="#EFCB1B"/>
<stop offset="0.64" stop-color="#F8DB33"/>
<stop offset="0.77" stop-color="#FDE542"/>
<stop offset="0.87" stop-color="#FFE947"/>
<stop offset="1" stop-color="#FFEC63"/>
</linearGradient>
<linearGradient id="paint8_linear_701_7761" x1="81.2002" y1="304.297" x2="74.4058" y2="289.796" gradientUnits="userSpaceOnUse">
<stop offset="0.04" stop-color="#F8DA36"/>
<stop offset="0.11" stop-color="#F1CD21"/>
<stop offset="0.19" stop-color="#EBC412"/>
<stop offset="0.28" stop-color="#E8BE09"/>
<stop offset="0.42" stop-color="#E8BD07"/>
<stop offset="0.51" stop-color="#EFCB1B"/>
<stop offset="0.64" stop-color="#F8DB33"/>
<stop offset="0.77" stop-color="#FDE542"/>
<stop offset="0.87" stop-color="#FFE947"/>
<stop offset="1" stop-color="#FFEC63"/>
</linearGradient>
<linearGradient id="paint9_linear_701_7761" x1="285.894" y1="495.184" x2="339.201" y2="549.417" gradientUnits="userSpaceOnUse">
<stop stop-color="#FFD08D"/>
<stop offset="0.58" stop-color="#FFDC2A"/>
<stop offset="0.81" stop-color="#F3C237"/>
<stop offset="1" stop-color="#EBB140"/>
</linearGradient>
<linearGradient id="paint10_linear_701_7761" x1="330.903" y1="540.684" x2="309.891" y2="488.494" gradientUnits="userSpaceOnUse">
<stop stop-color="#F0C827"/>
<stop offset="0.08" stop-color="#E9BE25"/>
<stop offset="0.22" stop-color="#E2B424"/>
<stop offset="0.38" stop-color="#EECA46"/>
<stop offset="0.57" stop-color="#FAE168"/>
<stop offset="0.68" stop-color="#FFEA76"/>
<stop offset="0.74" stop-color="#FDE770"/>
<stop offset="0.82" stop-color="#FBE161"/>
<stop offset="0.91" stop-color="#F6D647"/>
<stop offset="1" stop-color="#F0C827"/>
</linearGradient>
<linearGradient id="paint11_linear_701_7761" x1="330.903" y1="540.684" x2="309.891" y2="488.494" gradientUnits="userSpaceOnUse">
<stop stop-color="#FFD08D"/>
<stop offset="0.58" stop-color="#FFAF2A"/>
<stop offset="0.71" stop-color="#F8A631"/>
<stop offset="1" stop-color="#EC9540"/>
</linearGradient>
<linearGradient id="paint12_linear_701_7761" x1="321.415" y1="496.619" x2="320.595" y2="494.583" gradientUnits="userSpaceOnUse">
<stop offset="0.04" stop-color="#F8DA36"/>
<stop offset="0.11" stop-color="#F1CD21"/>
<stop offset="0.19" stop-color="#EBC412"/>
<stop offset="0.28" stop-color="#E8BE09"/>
<stop offset="0.42" stop-color="#E8BD07"/>
<stop offset="0.51" stop-color="#EFCB1B"/>
<stop offset="0.64" stop-color="#F8DB33"/>
<stop offset="0.77" stop-color="#FDE542"/>
<stop offset="0.87" stop-color="#FFE947"/>
<stop offset="1" stop-color="#FFEC63"/>
</linearGradient>
<linearGradient id="paint13_linear_701_7761" x1="318.185" y1="506.724" x2="316.384" y2="502.249" gradientUnits="userSpaceOnUse">
<stop offset="0.04" stop-color="#F8DA36"/>
<stop offset="0.11" stop-color="#F1CD21"/>
<stop offset="0.19" stop-color="#EBC412"/>
<stop offset="0.28" stop-color="#E8BE09"/>
<stop offset="0.42" stop-color="#E8BD07"/>
<stop offset="0.51" stop-color="#EFCB1B"/>
<stop offset="0.64" stop-color="#F8DB33"/>
<stop offset="0.77" stop-color="#FDE542"/>
<stop offset="0.87" stop-color="#FFE947"/>
<stop offset="1" stop-color="#FFEC63"/>
</linearGradient>
<linearGradient id="paint14_linear_701_7761" x1="323.835" y1="525.55" x2="320.795" y2="517.998" gradientUnits="userSpaceOnUse">
<stop offset="0.04" stop-color="#F8DA36"/>
<stop offset="0.11" stop-color="#F1CD21"/>
<stop offset="0.19" stop-color="#EBC412"/>
<stop offset="0.28" stop-color="#E8BE09"/>
<stop offset="0.42" stop-color="#E8BD07"/>
<stop offset="0.51" stop-color="#EFCB1B"/>
<stop offset="0.64" stop-color="#F8DB33"/>
<stop offset="0.77" stop-color="#FDE542"/>
<stop offset="0.87" stop-color="#FFE947"/>
<stop offset="1" stop-color="#FFEC63"/>
</linearGradient>
<linearGradient id="paint15_linear_701_7761" x1="324.885" y1="510.932" x2="322.626" y2="505.321" gradientUnits="userSpaceOnUse">
<stop offset="0.04" stop-color="#F8DA36"/>
<stop offset="0.11" stop-color="#F1CD21"/>
<stop offset="0.19" stop-color="#EBC412"/>
<stop offset="0.28" stop-color="#E8BE09"/>
<stop offset="0.42" stop-color="#E8BD07"/>
<stop offset="0.51" stop-color="#EFCB1B"/>
<stop offset="0.64" stop-color="#F8DB33"/>
<stop offset="0.77" stop-color="#FDE542"/>
<stop offset="0.87" stop-color="#FFE947"/>
<stop offset="1" stop-color="#FFEC63"/>
</linearGradient>
<linearGradient id="paint16_linear_701_7761" x1="323.742" y1="534.763" x2="322.494" y2="531.661" gradientUnits="userSpaceOnUse">
<stop offset="0.04" stop-color="#F8DA36"/>
<stop offset="0.11" stop-color="#F1CD21"/>
<stop offset="0.19" stop-color="#EBC412"/>
<stop offset="0.28" stop-color="#E8BE09"/>
<stop offset="0.42" stop-color="#E8BD07"/>
<stop offset="0.51" stop-color="#EFCB1B"/>
<stop offset="0.64" stop-color="#F8DB33"/>
<stop offset="0.77" stop-color="#FDE542"/>
<stop offset="0.87" stop-color="#FFE947"/>
<stop offset="1" stop-color="#FFEC63"/>
</linearGradient>
<linearGradient id="paint17_linear_701_7761" x1="314.269" y1="532.208" x2="310.537" y2="522.939" gradientUnits="userSpaceOnUse">
<stop offset="0.04" stop-color="#F8DA36"/>
<stop offset="0.11" stop-color="#F1CD21"/>
<stop offset="0.19" stop-color="#EBC412"/>
<stop offset="0.28" stop-color="#E8BE09"/>
<stop offset="0.42" stop-color="#E8BD07"/>
<stop offset="0.51" stop-color="#EFCB1B"/>
<stop offset="0.64" stop-color="#F8DB33"/>
<stop offset="0.77" stop-color="#FDE542"/>
<stop offset="0.87" stop-color="#FFE947"/>
<stop offset="1" stop-color="#FFEC63"/>
</linearGradient>
<linearGradient id="paint18_linear_701_7761" x1="311.609" y1="516.346" x2="304.284" y2="498.152" gradientUnits="userSpaceOnUse">
<stop offset="0.04" stop-color="#F8DA36"/>
<stop offset="0.11" stop-color="#F1CD21"/>
<stop offset="0.19" stop-color="#EBC412"/>
<stop offset="0.28" stop-color="#E8BE09"/>
<stop offset="0.42" stop-color="#E8BD07"/>
<stop offset="0.51" stop-color="#EFCB1B"/>
<stop offset="0.64" stop-color="#F8DB33"/>
<stop offset="0.77" stop-color="#FDE542"/>
<stop offset="0.87" stop-color="#FFE947"/>
<stop offset="1" stop-color="#FFEC63"/>
</linearGradient>
<linearGradient id="paint19_linear_701_7761" x1="98.6401" y1="16.2302" x2="129.415" y2="47.54" gradientUnits="userSpaceOnUse">
<stop stop-color="#FFD08D"/>
<stop offset="0.58" stop-color="#FFDC2A"/>
<stop offset="0.81" stop-color="#F3C237"/>
<stop offset="1" stop-color="#EBB140"/>
</linearGradient>
<linearGradient id="paint20_linear_701_7761" x1="124.624" y1="42.498" x2="112.494" y2="12.3678" gradientUnits="userSpaceOnUse">
<stop stop-color="#F0C827"/>
<stop offset="0.08" stop-color="#E9BE25"/>
<stop offset="0.22" stop-color="#E2B424"/>
<stop offset="0.38" stop-color="#EECA46"/>
<stop offset="0.57" stop-color="#FAE168"/>
<stop offset="0.68" stop-color="#FFEA76"/>
<stop offset="0.74" stop-color="#FDE770"/>
<stop offset="0.82" stop-color="#FBE161"/>
<stop offset="0.91" stop-color="#F6D647"/>
<stop offset="1" stop-color="#F0C827"/>
</linearGradient>
<linearGradient id="paint21_linear_701_7761" x1="124.624" y1="42.498" x2="112.494" y2="12.3678" gradientUnits="userSpaceOnUse">
<stop stop-color="#FFD08D"/>
<stop offset="0.58" stop-color="#FFAF2A"/>
<stop offset="0.71" stop-color="#F8A631"/>
<stop offset="1" stop-color="#EC9540"/>
</linearGradient>
<linearGradient id="paint22_linear_701_7761" x1="119.147" y1="17.0587" x2="118.674" y2="15.8833" gradientUnits="userSpaceOnUse">
<stop offset="0.04" stop-color="#F8DA36"/>
<stop offset="0.11" stop-color="#F1CD21"/>
<stop offset="0.19" stop-color="#EBC412"/>
<stop offset="0.28" stop-color="#E8BE09"/>
<stop offset="0.42" stop-color="#E8BD07"/>
<stop offset="0.51" stop-color="#EFCB1B"/>
<stop offset="0.64" stop-color="#F8DB33"/>
<stop offset="0.77" stop-color="#FDE542"/>
<stop offset="0.87" stop-color="#FFE947"/>
<stop offset="1" stop-color="#FFEC63"/>
</linearGradient>
<linearGradient id="paint23_linear_701_7761" x1="117.282" y1="22.8922" x2="116.242" y2="20.309" gradientUnits="userSpaceOnUse">
<stop offset="0.04" stop-color="#F8DA36"/>
<stop offset="0.11" stop-color="#F1CD21"/>
<stop offset="0.19" stop-color="#EBC412"/>
<stop offset="0.28" stop-color="#E8BE09"/>
<stop offset="0.42" stop-color="#E8BD07"/>
<stop offset="0.51" stop-color="#EFCB1B"/>
<stop offset="0.64" stop-color="#F8DB33"/>
<stop offset="0.77" stop-color="#FDE542"/>
<stop offset="0.87" stop-color="#FFE947"/>
<stop offset="1" stop-color="#FFEC63"/>
</linearGradient>
<linearGradient id="paint24_linear_701_7761" x1="120.544" y1="33.7611" x2="118.789" y2="29.4011" gradientUnits="userSpaceOnUse">
<stop offset="0.04" stop-color="#F8DA36"/>
<stop offset="0.11" stop-color="#F1CD21"/>
<stop offset="0.19" stop-color="#EBC412"/>
<stop offset="0.28" stop-color="#E8BE09"/>
<stop offset="0.42" stop-color="#E8BD07"/>
<stop offset="0.51" stop-color="#EFCB1B"/>
<stop offset="0.64" stop-color="#F8DB33"/>
<stop offset="0.77" stop-color="#FDE542"/>
<stop offset="0.87" stop-color="#FFE947"/>
<stop offset="1" stop-color="#FFEC63"/>
</linearGradient>
<linearGradient id="paint25_linear_701_7761" x1="121.15" y1="25.3215" x2="119.846" y2="22.0823" gradientUnits="userSpaceOnUse">
<stop offset="0.04" stop-color="#F8DA36"/>
<stop offset="0.11" stop-color="#F1CD21"/>
<stop offset="0.19" stop-color="#EBC412"/>
<stop offset="0.28" stop-color="#E8BE09"/>
<stop offset="0.42" stop-color="#E8BD07"/>
<stop offset="0.51" stop-color="#EFCB1B"/>
<stop offset="0.64" stop-color="#F8DB33"/>
<stop offset="0.77" stop-color="#FDE542"/>
<stop offset="0.87" stop-color="#FFE947"/>
<stop offset="1" stop-color="#FFEC63"/>
</linearGradient>
<linearGradient id="paint26_linear_701_7761" x1="120.491" y1="39.0797" x2="119.77" y2="37.2892" gradientUnits="userSpaceOnUse">
<stop offset="0.04" stop-color="#F8DA36"/>
<stop offset="0.11" stop-color="#F1CD21"/>
<stop offset="0.19" stop-color="#EBC412"/>
<stop offset="0.28" stop-color="#E8BE09"/>
<stop offset="0.42" stop-color="#E8BD07"/>
<stop offset="0.51" stop-color="#EFCB1B"/>
<stop offset="0.64" stop-color="#F8DB33"/>
<stop offset="0.77" stop-color="#FDE542"/>
<stop offset="0.87" stop-color="#FFE947"/>
<stop offset="1" stop-color="#FFEC63"/>
</linearGradient>
<linearGradient id="paint27_linear_701_7761" x1="115.021" y1="37.6046" x2="112.867" y2="32.2537" gradientUnits="userSpaceOnUse">
<stop offset="0.04" stop-color="#F8DA36"/>
<stop offset="0.11" stop-color="#F1CD21"/>
<stop offset="0.19" stop-color="#EBC412"/>
<stop offset="0.28" stop-color="#E8BE09"/>
<stop offset="0.42" stop-color="#E8BD07"/>
<stop offset="0.51" stop-color="#EFCB1B"/>
<stop offset="0.64" stop-color="#F8DB33"/>
<stop offset="0.77" stop-color="#FDE542"/>
<stop offset="0.87" stop-color="#FFE947"/>
<stop offset="1" stop-color="#FFEC63"/>
</linearGradient>
<linearGradient id="paint28_linear_701_7761" x1="113.486" y1="28.4472" x2="109.257" y2="17.9436" gradientUnits="userSpaceOnUse">
<stop offset="0.04" stop-color="#F8DA36"/>
<stop offset="0.11" stop-color="#F1CD21"/>
<stop offset="0.19" stop-color="#EBC412"/>
<stop offset="0.28" stop-color="#E8BE09"/>
<stop offset="0.42" stop-color="#E8BD07"/>
<stop offset="0.51" stop-color="#EFCB1B"/>
<stop offset="0.64" stop-color="#F8DB33"/>
<stop offset="0.77" stop-color="#FDE542"/>
<stop offset="0.87" stop-color="#FFE947"/>
<stop offset="1" stop-color="#FFEC63"/>
</linearGradient>
<radialGradient id="paint29_radial_701_7761" cx="0" cy="0" r="1" gradientUnits="userSpaceOnUse" gradientTransform="translate(233.858 239.184) rotate(80.4801) scale(85.2597 85.2596)">
<stop stop-color="#A381FF"/>
<stop offset="0.234375" stop-color="#8D62FF"/>
<stop offset="0.83" stop-color="#3C13C9"/>
<stop offset="1" stop-color="#7859FF"/>
</radialGradient>
<radialGradient id="paint30_radial_701_7761" cx="0" cy="0" r="1" gradientUnits="userSpaceOnUse" gradientTransform="translate(39.5629 146.196) rotate(20.4801) scale(47.9712 47.9711)">
<stop stop-color="#A381FF"/>
<stop offset="0.234375" stop-color="#8D62FF"/>
<stop offset="0.83" stop-color="#3C13C9"/>
<stop offset="1" stop-color="#7859FF"/>
</radialGradient>
<radialGradient id="paint31_radial_701_7761" cx="0" cy="0" r="1" gradientUnits="userSpaceOnUse" gradientTransform="translate(178.342 412.958) rotate(95.48) scale(133.593 133.593)">
<stop stop-color="#A381FF"/>
<stop offset="0.234375" stop-color="#8D62FF"/>
<stop offset="0.83" stop-color="#3C13C9"/>
<stop offset="1" stop-color="#7859FF"/>
</radialGradient>
</defs>
</svg>
