<svg width="31" height="32" viewBox="0 0 31 32" fill="none" xmlns="http://www.w3.org/2000/svg">
<path fill-rule="evenodd" clip-rule="evenodd" d="M10.6321 11.2196L9.79554 18.5446C8.6707 18.3798 2.70473 16.3008 3.42183 10.0541L3.46843 9.66805L3.69308 9.32846C4.05257 8.78816 5.01339 8.15993 5.8265 8.1241C5.67166 10.1756 6.42773 10.6544 7.79279 10.7179L10.6729 10.852L10.6321 11.2196ZM5.02242 11.2124C5.56635 11.8318 6.38209 12.2027 7.4074 12.2496L9.32334 12.3359L8.85176 16.4534C6.41627 15.3037 5.18188 13.6479 5.02242 11.2124Z" fill="#BC7800"/>
<path fill-rule="evenodd" clip-rule="evenodd" d="M17.7938 11.5477L17.958 18.9169C19.0981 18.8581 25.2247 17.3349 25.0878 11.0451L25.0793 10.6567L24.8907 10.2923C24.5739 9.72479 23.6768 9.00325 22.8678 8.89833C22.8292 10.9512 22.0336 11.3631 20.6685 11.2996L17.7884 11.1655L17.7967 11.5385L17.7938 11.5477ZM23.3768 12.0539C22.7761 12.619 21.936 12.9152 20.9107 12.8683L18.9948 12.7819L19.0833 16.9252C21.6152 15.9997 22.9946 14.4695 23.3768 12.0539Z" fill="#BC7800"/>
<path fill-rule="evenodd" clip-rule="evenodd" d="M10.6317 11.2196L9.79507 18.5446C8.67023 18.3799 2.70426 16.3008 3.42136 10.0541L3.46796 9.66808C3.89932 9.23689 4.60591 8.80186 5.45882 8.76852C5.40161 10.1457 6.12951 11.0165 7.54966 11.0822L10.6409 11.2225L10.6317 11.2196ZM9.32287 12.336L7.40693 12.2496C6.02658 12.1863 5.02644 11.5335 4.55905 10.4817C4.42014 12.5789 5.15416 14.3243 6.72066 15.6696C7.3274 16.1872 8.03089 16.624 8.76346 16.9532L8.79111 16.962L9.32287 12.336Z" fill="url(#paint0_linear_184_12202)"/>
<path fill-rule="evenodd" clip-rule="evenodd" d="M10.632 11.2196L10.6728 10.852L7.79266 10.7179C6.4276 10.6544 5.67153 10.1756 5.82637 8.12411L5.44994 8.76558C5.39273 10.1428 6.12064 11.0135 7.54078 11.0793L10.632 11.2196Z" fill="url(#paint1_linear_184_12202)"/>
<path fill-rule="evenodd" clip-rule="evenodd" d="M5.02216 11.2125C4.83253 10.9949 4.67621 10.7524 4.55926 10.4818C4.42035 12.5789 5.15437 14.3243 6.72087 15.6697C7.34311 16.2024 8.04345 16.633 8.79131 16.9621L8.85149 16.4535C6.416 15.3038 5.18161 13.648 5.02216 11.2125Z" fill="url(#paint2_linear_184_12202)"/>
<path fill-rule="evenodd" clip-rule="evenodd" d="M3.45906 9.66522C3.89042 9.23403 4.59701 8.799 5.44992 8.76566L5.82634 8.12419C5.01009 8.15396 4.05242 8.78826 3.69293 9.32855L3.46828 9.66815L3.45906 9.66522Z" fill="url(#paint3_linear_184_12202)"/>
<path fill-rule="evenodd" clip-rule="evenodd" d="M17.7938 11.5477L17.958 18.9168C19.0981 18.858 25.2248 17.3348 25.0879 11.045L25.0794 10.6567C24.6844 10.1911 24.0228 9.68653 23.1801 9.57596C23.1137 10.9502 22.3052 11.7537 20.8851 11.688L17.7938 11.5477ZM18.9948 12.7819L20.9107 12.8682C22.2911 12.9315 23.3508 12.3753 23.9087 11.3704C23.8586 13.4755 22.9643 15.1397 21.2743 16.3378C20.6201 16.7997 19.885 17.1647 19.121 17.4293L19.0967 17.4419L18.9948 12.7819Z" fill="url(#paint4_linear_184_12202)"/>
<path fill-rule="evenodd" clip-rule="evenodd" d="M17.7937 11.5477L17.7854 11.1747L20.6655 11.3088C22.0306 11.3723 22.8262 10.9604 22.8648 8.90753L23.1831 9.5821C23.1167 10.9564 22.3082 11.7599 20.8881 11.6941L17.7968 11.5538L17.7937 11.5477Z" fill="url(#paint5_linear_184_12202)"/>
<path fill-rule="evenodd" clip-rule="evenodd" d="M23.3797 12.0598C23.5849 11.8612 23.7683 11.6354 23.9115 11.3764C23.8614 13.4815 22.9671 15.1457 21.2771 16.3439C20.6139 16.8181 19.8696 17.1802 19.0963 17.4418L19.0861 16.9312C21.618 16.0057 22.9975 14.4754 23.3797 12.0598Z" fill="url(#paint6_linear_184_12202)"/>
<path fill-rule="evenodd" clip-rule="evenodd" d="M18.2648 25.7426L18.1915 27.2821C18.1563 28.0473 16.0196 28.5757 13.4242 28.456C10.8287 28.3363 8.75404 27.6159 8.78922 26.8508L8.86251 25.3112L18.2587 25.7457L18.2648 25.7426Z" fill="url(#paint7_linear_184_12202)"/>
<path fill-rule="evenodd" clip-rule="evenodd" d="M18.2648 25.7425C18.2296 26.5077 16.0929 27.0361 13.4975 26.9164C10.902 26.7967 8.82735 26.0763 8.86253 25.3112C8.92832 23.891 10.1517 23.6659 11.4801 23.0785C12.082 22.8131 12.584 22.3993 12.6167 21.6739L12.6596 20.8047L13.7798 20.8563L14.9 20.9079L14.8571 21.7772C14.8244 22.5025 15.2866 22.9641 15.86 23.2833C17.127 23.9905 18.3277 24.3316 18.2588 25.7457L18.2648 25.7425Z" fill="url(#paint8_linear_184_12202)"/>
<path style="mix-blend-mode:multiply" fill-rule="evenodd" clip-rule="evenodd" d="M9.3579 25.3318C9.42369 23.9116 10.5216 23.6822 11.7093 23.0905C12.2469 22.82 12.6998 22.4007 12.7356 21.6814C12.7469 21.3907 12.7612 21.106 12.7785 20.8121L12.6592 20.8046L12.6163 21.6739C12.5836 22.3993 12.0816 22.8131 11.4797 23.0784C10.1513 23.6659 8.92789 23.891 8.86211 25.3112C8.85295 25.5315 9.02121 25.7525 9.32687 25.9562C9.33624 25.7511 9.34246 25.54 9.3579 25.3318Z" fill="url(#paint9_radial_184_12202)"/>
<path style="mix-blend-mode:multiply" fill-rule="evenodd" clip-rule="evenodd" d="M15.5258 23.2635C16.597 23.9643 17.6048 24.2897 17.539 25.7098C17.5271 25.9547 17.5184 26.2056 17.5065 26.4505C17.9748 26.2543 18.2497 26.0119 18.2643 25.7425C18.3301 24.3224 17.1325 23.9874 15.8655 23.2802C15.2922 22.9609 14.83 22.4994 14.8626 21.774L14.9055 20.9048L14.7311 20.895C14.7198 21.1857 14.7055 21.4703 14.6882 21.7642C14.6555 22.4896 15.0442 22.943 15.5258 23.2635Z" fill="url(#paint10_radial_184_12202)"/>
<path style="mix-blend-mode:screen" opacity="0.5" fill-rule="evenodd" clip-rule="evenodd" d="M16.9181 25.6849C16.9838 24.2648 16.1321 23.9433 15.2354 23.2524C14.8273 22.94 14.509 22.4887 14.5417 21.7633C14.5529 21.4726 14.5673 21.1879 14.5846 20.894L14.2633 20.8832C14.2521 21.174 14.2377 21.4586 14.2204 21.7525C14.1877 22.4779 14.3745 22.9279 14.6142 23.2274C15.1405 23.9021 15.6464 24.2101 15.5775 25.6242C15.5558 26.0435 15.5403 26.4597 15.5186 26.879C16.0257 26.8322 16.4865 26.7554 16.8735 26.6552C16.8904 26.3307 16.9012 26.0094 16.9181 25.6849Z" fill="url(#paint11_radial_184_12202)"/>
<path style="mix-blend-mode:screen" fill-rule="evenodd" clip-rule="evenodd" d="M12.6237 25.4819C12.6895 24.0618 12.9426 23.7921 13.2305 23.158C13.3611 22.8748 13.4743 22.4389 13.513 21.7104C13.5242 21.4196 13.5386 21.135 13.5559 20.8411L13.106 20.8199C13.0948 21.1106 13.0804 21.3953 13.0631 21.6891C13.0304 22.4145 12.7182 22.8379 12.3551 23.1183C11.547 23.7291 10.8072 23.981 10.7383 25.3951C10.7221 25.7654 10.7059 26.1358 10.6896 26.5061C11.2269 26.6515 11.8648 26.768 12.557 26.8409C12.5751 26.3849 12.5964 25.935 12.6205 25.4759L12.6237 25.4819Z" fill="url(#paint12_radial_184_12202)"/>
<path style="mix-blend-mode:multiply" opacity="0.5" fill-rule="evenodd" clip-rule="evenodd" d="M8.86209 25.3112L8.7888 26.8508C8.77964 27.0711 8.9479 27.292 9.25356 27.4958L9.32685 25.9562C9.02119 25.7525 8.84686 25.5347 8.86209 25.3112Z" fill="url(#paint13_linear_184_12202)"/>
<path style="mix-blend-mode:multiply" opacity="0.5" fill-rule="evenodd" clip-rule="evenodd" d="M17.5066 26.4505L17.4333 27.9901C17.9016 27.7939 18.1765 27.5515 18.1911 27.2821L18.2644 25.7426C18.253 26.018 17.9749 26.2544 17.5066 26.4505Z" fill="url(#paint14_linear_184_12202)"/>
<path style="mix-blend-mode:screen" opacity="0.75" fill-rule="evenodd" clip-rule="evenodd" d="M12.4868 28.3866L12.5601 26.847C11.8678 26.7741 11.2299 26.6576 10.6926 26.5122L10.6193 28.0517C11.1567 28.1972 11.7945 28.3137 12.4868 28.3866Z" fill="url(#paint15_linear_184_12202)"/>
<path style="mix-blend-mode:multiply" fill-rule="evenodd" clip-rule="evenodd" d="M17.7938 11.5477L17.958 18.9168C18.2515 18.9035 18.8648 18.794 19.6196 18.5265C20.0976 17.9326 20.5197 17.2752 20.8772 16.5972C20.3283 16.9353 19.7327 17.2128 19.1239 17.4201L19.0996 17.4327L18.9977 12.7726L20.9137 12.859C21.4279 12.8855 21.895 12.8208 22.309 12.6835C22.332 12.5792 22.349 12.478 22.3751 12.3798L22.6293 11.0855C22.2375 11.5039 21.6563 11.72 20.8911 11.6848L17.7999 11.5445L17.7938 11.5477Z" fill="url(#paint16_radial_184_12202)"/>
<path style="mix-blend-mode:screen" opacity="0.35" fill-rule="evenodd" clip-rule="evenodd" d="M15.5183 26.879L15.445 28.4186C15.9521 28.3717 16.4129 28.2949 16.8 28.1947L16.8733 26.6552C16.4862 26.7554 16.0254 26.8322 15.5183 26.879Z" fill="url(#paint17_linear_184_12202)"/>
<path style="mix-blend-mode:multiply" fill-rule="evenodd" clip-rule="evenodd" d="M14.8716 21.5384C14.865 21.7189 14.3583 21.7964 13.7423 21.7071C13.1262 21.6178 12.6337 21.3953 12.6373 21.2087L12.6631 20.6486L14.8975 20.9783L14.8716 21.5384Z" fill="url(#paint18_radial_184_12202)"/>
<path fill-rule="evenodd" clip-rule="evenodd" d="M7.22194 9.7043L14.2797 10.0247L21.3407 10.3511L21.0074 12.3256C20.3372 16.2378 18.0202 21.5954 13.7629 21.4041C9.51165 21.2096 7.69365 15.6591 7.38442 11.6994L7.22802 9.70116L7.22194 9.7043Z" fill="url(#paint19_linear_184_12202)"/>
<path style="mix-blend-mode:screen" opacity="0.75" fill-rule="evenodd" clip-rule="evenodd" d="M7.4879 9.71284L13.1899 9.97264L18.8918 10.2324L18.6437 11.9549C18.153 15.366 16.3404 20.0467 12.9063 19.8837C9.47535 19.7267 7.93656 14.8941 7.64067 11.4511L7.49398 9.7097L7.4879 9.71284Z" fill="url(#paint20_radial_184_12202)"/>
<path style="mix-blend-mode:screen" opacity="0.75" fill-rule="evenodd" clip-rule="evenodd" d="M7.92253 9.73437L12.2779 9.93652L16.6332 10.1387L16.4394 11.5943C16.0486 14.4841 14.648 18.4432 12.028 18.3208C9.4081 18.1984 8.25304 14.122 8.03794 11.207L7.93175 9.7373L7.92253 9.73437Z" fill="url(#paint21_radial_184_12202)"/>
<path style="mix-blend-mode:multiply" fill-rule="evenodd" clip-rule="evenodd" d="M13.7534 21.4012C9.95208 21.228 8.34836 15.6897 8.09422 11.7323C8.0513 11.0691 8.00839 10.406 7.96233 9.7368L7.22167 9.70433L7.37807 11.7025C7.68731 15.6623 9.50216 21.2067 13.7565 21.4072L13.7534 21.4012Z" fill="url(#paint22_radial_184_12202)"/>
<path style="mix-blend-mode:multiply" opacity="0.75" fill-rule="evenodd" clip-rule="evenodd" d="M20.0859 12.2865C19.48 16.204 17.4384 21.573 13.7534 21.4012C18.0046 21.5956 20.3308 16.241 20.9979 12.3227L21.3312 10.3482L20.3915 10.3033C20.2937 10.9622 20.1866 11.6183 20.0888 12.2773L20.0859 12.2865Z" fill="url(#paint23_radial_184_12202)"/>
<path style="mix-blend-mode:screen" opacity="0.6" fill-rule="evenodd" clip-rule="evenodd" d="M13.7534 21.4012C16.7895 21.5392 18.5219 16.1532 19.0513 12.2368C19.14 11.5748 19.2317 10.919 19.3204 10.2571L17.3003 10.163C17.233 10.8215 17.1689 11.4862 17.1017 12.1447C16.71 16.0745 15.5744 21.4828 13.7534 21.4012Z" fill="url(#paint24_radial_184_12202)"/>
<path style="mix-blend-mode:screen" fill-rule="evenodd" clip-rule="evenodd" d="M13.7533 21.4011C12.9024 21.3641 12.7402 15.8883 12.8198 11.9506C12.8319 11.2898 12.8502 10.6258 12.8623 9.96494L10.0373 9.83315C10.0558 10.4936 10.0773 11.1601 10.0896 11.8236C10.1999 15.7708 11.1916 21.2871 13.744 21.3982L13.7533 21.4011Z" fill="url(#paint25_radial_184_12202)"/>
<path fill-rule="evenodd" clip-rule="evenodd" d="M14.1731 12.259C10.8278 12.1039 8.04805 11.271 7.27256 10.2786C6.8646 9.75824 7.01184 8.25743 7.04159 7.54128L14.378 7.87916L21.7144 8.21704C21.6819 8.95769 21.6873 10.4411 21.2352 10.9215C20.3702 11.839 17.5245 12.411 14.1792 12.2559L14.1731 12.259Z" fill="url(#paint26_radial_184_12202)"/>
<path style="mix-blend-mode:screen" fill-rule="evenodd" clip-rule="evenodd" d="M13.3564 12.0196C10.5544 11.7835 8.21874 10.9903 7.57358 10.1307C7.23077 9.67667 7.354 8.427 7.37917 7.82103L13.5253 8.34378L19.6713 8.86652C19.6464 9.48779 19.6515 10.7326 19.2686 11.1233C18.5449 11.8675 16.1584 12.2557 13.3564 12.0196Z" fill="url(#paint27_radial_184_12202)"/>
<path style="mix-blend-mode:screen" fill-rule="evenodd" clip-rule="evenodd" d="M12.4397 11.6623C10.1968 11.3755 8.33324 10.6614 7.81546 9.9437C7.54411 9.56821 7.64018 8.56362 7.66099 8.08312L12.5698 8.71492L17.4787 9.34673C17.4581 9.84252 17.4598 10.8427 17.1551 11.1467C16.5789 11.7145 14.6735 11.9461 12.4305 11.6593L12.4397 11.6623Z" fill="url(#paint28_radial_184_12202)"/>
<path style="mix-blend-mode:multiply" opacity="0.75" fill-rule="evenodd" clip-rule="evenodd" d="M21.7051 8.21411C21.6812 8.68854 21.1945 9.10215 20.3733 9.4348L20.2998 10.3045L20.198 11.5508C20.6573 11.367 21.003 11.1572 21.226 10.9186L21.2382 10.9123C21.6808 10.4136 21.6695 8.9487 21.7051 8.21411Z" fill="url(#paint29_radial_184_12202)"/>
<path style="mix-blend-mode:multiply" opacity="0.75" fill-rule="evenodd" clip-rule="evenodd" d="M8.04829 9.73861L8.05304 8.76589C7.421 8.40768 7.0514 8.00604 7.03956 7.59635C7.00081 8.32485 6.87386 9.74586 7.26339 10.2604L7.26967 10.2725C7.35055 10.3693 7.44672 10.4658 7.5674 10.5651C7.69122 10.6704 7.84247 10.7692 8.00902 10.8678L8.03981 10.8827L8.05122 9.7294L8.04829 9.73861Z" fill="url(#paint30_radial_184_12202)"/>
<path style="mix-blend-mode:screen" opacity="0.65" fill-rule="evenodd" clip-rule="evenodd" d="M17.1901 10.1583L17.0993 12.1997C17.6523 12.1522 18.1682 12.0777 18.6379 11.9885C18.7996 11.9588 18.9521 11.926 19.0954 11.8904L19.1703 10.2499L19.1913 9.78468C18.5999 9.92141 17.9284 10.0226 17.1921 10.0879L17.1901 10.1583Z" fill="url(#paint31_radial_184_12202)"/>
<path style="mix-blend-mode:screen" fill-rule="evenodd" clip-rule="evenodd" d="M12.9189 10.0438C11.9173 9.93847 11.0004 9.77389 10.1931 9.56801L10.0972 11.6737C10.8984 11.8827 11.8245 12.0503 12.8261 12.1555L12.925 10.0406L12.9189 10.0438Z" fill="url(#paint32_radial_184_12202)"/>
<g style="mix-blend-mode:screen" opacity="0.75">
<path fill-rule="evenodd" clip-rule="evenodd" d="M14.4543 5.66057C18.4607 5.84313 21.6645 7.03405 21.6028 8.31344C21.5412 9.59283 18.2502 10.48 14.2438 10.2974C10.2375 10.1149 7.03369 8.92394 7.09532 7.64455C7.15696 6.36516 10.4479 5.47801 14.4574 5.66665L14.4543 5.66057Z" fill="#FFFCE4"/>
</g>
<path fill-rule="evenodd" clip-rule="evenodd" d="M14.4777 5.61747C18.5239 5.80254 21.761 6.96851 21.7081 8.22025C21.6492 9.47514 18.3212 10.3353 14.2719 10.1441C10.2257 9.95907 6.9886 8.79309 7.04145 7.54136C7.10037 6.28647 10.4284 5.42633 14.4777 5.61747Z" fill="url(#paint33_radial_184_12202)"/>
<path fill-rule="evenodd" clip-rule="evenodd" d="M14.4711 5.78264C18.2724 5.95584 21.3122 7.00834 21.2576 8.13776C21.2091 9.26403 18.0817 10.0357 14.2865 9.85939C10.4852 9.68619 7.44542 8.63368 7.49997 7.50427C7.54846 6.37799 10.6759 5.6063 14.4711 5.78264Z" fill="url(#paint34_radial_184_12202)"/>
<path style="mix-blend-mode:screen" fill-rule="evenodd" clip-rule="evenodd" d="M13.2955 5.92151C16.1052 6.05352 18.4637 6.95038 19.3792 8.10905C19.6532 8.46003 19.7991 8.83115 19.7831 9.21677C19.7835 9.24735 19.7779 9.28107 19.7752 9.30558C20.6489 9.01502 21.1911 8.63428 21.2553 8.19293C21.258 8.16843 21.2639 8.14999 21.2605 8.12863C21.309 7.00236 18.2753 5.94671 14.474 5.77351C11.2971 5.63135 8.59736 6.14319 7.76164 6.96849C8.99012 6.23252 11.0182 5.80654 13.2984 5.9123L13.2955 5.92151Z" fill="url(#paint35_radial_184_12202)"/>
<path style="mix-blend-mode:multiply" fill-rule="evenodd" clip-rule="evenodd" d="M17.2769 9.79009C17.0552 9.03463 16.076 8.34789 14.6719 7.89648C13.7563 7.60036 12.6585 7.39854 11.471 7.35091C10.2865 7.29406 9.17453 7.39219 8.23538 7.60108C7.99452 7.65644 7.76287 7.71474 7.54673 7.78811C7.96153 8.79779 10.8004 9.70018 14.2864 9.85943C15.3576 9.90562 16.3697 9.8823 17.28 9.79616L17.2769 9.79009Z" fill="url(#paint36_radial_184_12202)"/>
<path style="mix-blend-mode:screen" fill-rule="evenodd" clip-rule="evenodd" d="M11.4014 24.4744C12.1616 24.5892 12.7657 24.9233 12.7545 25.2141C12.7433 25.5048 12.1152 25.6451 11.355 25.5303C10.5948 25.4155 9.99067 25.0814 10.0019 24.7907C10.0131 24.5 10.6412 24.3597 11.4014 24.4744Z" fill="url(#paint37_radial_184_12202)"/>
<path style="mix-blend-mode:screen" opacity="0.5" fill-rule="evenodd" clip-rule="evenodd" d="M3.80651 10.0396C3.98359 9.57828 5.04314 9.23007 5.30421 9.52617C5.46575 9.70438 5.5727 10.1342 6.01203 10.492C5.60578 10.0939 5.41396 9.50017 5.44035 8.76266C4.59352 8.79285 3.89007 9.23396 3.44949 9.66222L3.40289 10.0483C3.1879 11.9538 3.58839 13.4714 4.28413 14.6668C3.52546 13.1266 3.48103 10.8241 3.79122 10.0398L3.80651 10.0396Z" fill="url(#paint38_radial_184_12202)"/>
<path style="mix-blend-mode:screen" opacity="0.5" fill-rule="evenodd" clip-rule="evenodd" d="M5.01051 8.64628C4.3598 8.92148 4.01719 9.13732 3.63399 9.51278C4.07228 9.13961 4.7037 8.79739 5.44957 8.76555L5.826 8.12408C5.63037 8.13293 5.41987 8.17258 5.21295 8.24888C5.30198 8.2721 5.39479 8.34727 5.32883 8.44301C5.26288 8.53876 5.06832 8.62406 5.01051 8.64628Z" fill="url(#paint39_radial_184_12202)"/>
<path style="mix-blend-mode:multiply" opacity="0.5" fill-rule="evenodd" clip-rule="evenodd" d="M8.08126 16.0513C8.15964 16.1878 8.20179 16.3585 7.9257 16.3012C6.44076 15.9763 5.00411 13.8553 4.79846 12.491C4.77853 12.3781 4.71031 11.8744 4.87829 11.8567C4.98218 11.8492 5.06956 11.9733 5.13536 12.0856C5.08564 11.811 5.051 11.5209 5.0285 11.2245C4.83888 11.007 4.68256 10.7645 4.5656 10.4939C4.4267 12.591 5.16071 14.3364 6.72722 15.6818C7.15755 16.052 7.63311 16.3756 8.14469 16.6499C8.28337 16.7244 8.43127 16.8019 8.57288 16.8672C8.48108 16.6452 8.3922 16.414 8.3094 16.1796C8.2323 16.1348 8.15835 16.0961 8.08126 16.0513Z" fill="url(#paint40_radial_184_12202)"/>
<path style="mix-blend-mode:multiply" opacity="0.5" fill-rule="evenodd" clip-rule="evenodd" d="M19.8893 16.5928C19.7932 16.7195 19.7436 16.8915 20.0244 16.8539C21.5298 16.6677 23.1598 14.6843 23.4898 13.3431C23.5157 13.2295 23.6341 12.7293 23.4747 12.704C23.3704 12.681 23.2712 12.8017 23.2023 12.9066C23.278 12.6364 23.3383 12.3511 23.3862 12.0568C23.5914 11.8582 23.7748 11.6323 23.918 11.3734C23.8679 13.4785 22.9736 15.1427 21.2836 16.3408C20.8233 16.6715 20.3133 16.9508 19.7843 17.1785C19.6383 17.2386 19.4863 17.3019 19.3371 17.356C19.4504 17.1434 19.5574 16.9186 19.6583 16.697C19.7372 16.6561 19.8164 16.6305 19.8953 16.5896L19.8893 16.5928Z" fill="url(#paint41_radial_184_12202)"/>
<path style="mix-blend-mode:multiply" fill-rule="evenodd" clip-rule="evenodd" d="M21.6037 11.2467C21.4665 11.2792 21.323 11.2995 21.1672 11.3109L21.0992 11.7003C21.7567 11.6911 22.2706 11.479 22.6201 11.0979C22.5297 11.1909 21.7525 11.6086 21.5754 11.4153C21.535 11.3669 21.5555 11.3024 21.5976 11.2498L21.6037 11.2467Z" fill="url(#paint42_linear_184_12202)"/>
<path style="mix-blend-mode:multiply" opacity="0.75" fill-rule="evenodd" clip-rule="evenodd" d="M6.86665 10.5656C6.99883 10.6127 7.14002 10.6474 7.29628 10.6667L7.32928 11.0577C6.67679 10.9873 6.18679 10.725 5.86914 10.3196C5.95002 10.4163 6.68494 10.9138 6.88115 10.7275C6.92638 10.681 6.91023 10.6201 6.87273 10.5625L6.86665 10.5656Z" fill="url(#paint43_linear_184_12202)"/>
<defs>
<linearGradient id="paint0_linear_184_12202" x1="2.23487" y1="9.63638" x2="11.5338" y2="16.2355" gradientUnits="userSpaceOnUse">
<stop stop-color="#FFCC00"/>
<stop offset="1" stop-color="#B36600"/>
</linearGradient>
<linearGradient id="paint1_linear_184_12202" x1="6.31117" y1="7.79617" x2="8.27103" y2="10.5858" gradientUnits="userSpaceOnUse">
<stop stop-color="#DB7D00"/>
<stop offset="1" stop-color="#914900"/>
</linearGradient>
<linearGradient id="paint2_linear_184_12202" x1="3.94798" y1="10.9522" x2="8.40884" y2="16.9521" gradientUnits="userSpaceOnUse">
<stop stop-color="#C77000"/>
<stop offset="0.4" stop-color="#CC8B00"/>
<stop offset="1" stop-color="#BA5E00"/>
</linearGradient>
<linearGradient id="paint3_linear_184_12202" x1="3.37104" y1="9.49517" x2="5.86721" y2="8.20315" gradientUnits="userSpaceOnUse">
<stop stop-color="#FFCC00"/>
<stop offset="1" stop-color="#B36600"/>
</linearGradient>
<linearGradient id="paint4_linear_184_12202" x1="16.997" y1="17.3428" x2="32.214" y2="2.46669" gradientUnits="userSpaceOnUse">
<stop stop-color="#B35100"/>
<stop offset="1" stop-color="#FFCC00"/>
</linearGradient>
<linearGradient id="paint5_linear_184_12202" x1="20.3638" y1="10.949" x2="22.3616" y2="8.57505" gradientUnits="userSpaceOnUse">
<stop stop-color="#8A4500"/>
<stop offset="1" stop-color="#B86800"/>
</linearGradient>
<linearGradient id="paint6_linear_184_12202" x1="19.5038" y1="17.7084" x2="24.247" y2="11.7419" gradientUnits="userSpaceOnUse">
<stop stop-color="#C75A00"/>
<stop offset="0.4" stop-color="#BF6D00"/>
<stop offset="1" stop-color="#914900"/>
</linearGradient>
<linearGradient id="paint7_linear_184_12202" x1="8.79737" y1="26.7773" x2="18.1936" y2="27.2117" gradientUnits="userSpaceOnUse">
<stop stop-color="#781916"/>
<stop offset="0.31" stop-color="#963333"/>
<stop offset="1" stop-color="#450E0E"/>
</linearGradient>
<linearGradient id="paint8_linear_184_12202" x1="8.93747" y1="23.6707" x2="18.3398" y2="24.102" gradientUnits="userSpaceOnUse">
<stop offset="0.05" stop-color="#ED9500"/>
<stop offset="0.4" stop-color="#FFCC00"/>
<stop offset="0.93" stop-color="#B36600"/>
</linearGradient>
<radialGradient id="paint9_radial_184_12202" cx="0" cy="0" r="1" gradientUnits="userSpaceOnUse" gradientTransform="translate(11.59 25.7165) rotate(-27.3661) scale(5.26584 5.26584)">
<stop stop-color="white"/>
<stop offset="1" stop-color="#E08F48"/>
</radialGradient>
<radialGradient id="paint10_radial_184_12202" cx="0" cy="0" r="1" gradientUnits="userSpaceOnUse" gradientTransform="translate(16.2007 26.4718) rotate(-27.3661) scale(5.49836 5.49835)">
<stop stop-color="white"/>
<stop offset="1" stop-color="#E08F48"/>
</radialGradient>
<radialGradient id="paint11_radial_184_12202" cx="0" cy="0" r="1" gradientUnits="userSpaceOnUse" gradientTransform="translate(13.7738 25.2487) rotate(-27.3661) scale(3.80234)">
<stop stop-color="#FFF369"/>
<stop offset="0.11" stop-color="#FAEE67"/>
<stop offset="0.23" stop-color="#ECE161"/>
<stop offset="0.36" stop-color="#D6CC58"/>
<stop offset="0.5" stop-color="#B6AE4B"/>
<stop offset="0.64" stop-color="#8E873A"/>
<stop offset="0.78" stop-color="#5C5826"/>
<stop offset="0.92" stop-color="#22210E"/>
<stop offset="1"/>
</radialGradient>
<radialGradient id="paint12_radial_184_12202" cx="0" cy="0" r="1" gradientUnits="userSpaceOnUse" gradientTransform="translate(10.7707 24.2079) rotate(-27.3661) scale(3.80234)">
<stop stop-color="#FFF369"/>
<stop offset="0.11" stop-color="#FAEE67"/>
<stop offset="0.23" stop-color="#ECE161"/>
<stop offset="0.36" stop-color="#D6CC58"/>
<stop offset="0.5" stop-color="#B6AE4B"/>
<stop offset="0.64" stop-color="#8E873A"/>
<stop offset="0.78" stop-color="#5C5826"/>
<stop offset="0.92" stop-color="#22210E"/>
<stop offset="1"/>
</radialGradient>
<linearGradient id="paint13_linear_184_12202" x1="8.81296" y1="26.3916" x2="9.30876" y2="26.4122" gradientUnits="userSpaceOnUse">
<stop stop-color="#616DBE"/>
<stop offset="0.6" stop-color="#C2C7E6"/>
<stop offset="1" stop-color="white"/>
</linearGradient>
<linearGradient id="paint14_linear_184_12202" x1="17.4847" y1="26.8546" x2="18.2101" y2="26.8873" gradientUnits="userSpaceOnUse">
<stop stop-color="white"/>
<stop offset="0.4" stop-color="#C2C7E6"/>
<stop offset="1" stop-color="#616DBE"/>
</linearGradient>
<linearGradient id="paint15_linear_184_12202" x1="10.6531" y1="27.4028" x2="12.5324" y2="27.4928" gradientUnits="userSpaceOnUse">
<stop stop-color="#AB665D"/>
<stop offset="1" stop-color="#2B2321"/>
</linearGradient>
<radialGradient id="paint16_radial_184_12202" cx="0" cy="0" r="1" gradientUnits="userSpaceOnUse" gradientTransform="translate(16.6048 12.4788) rotate(-27.3661) scale(7.48159)">
<stop stop-color="#E08F48"/>
<stop offset="1" stop-color="white"/>
</radialGradient>
<linearGradient id="paint17_linear_184_12202" x1="15.4873" y1="27.5034" x2="16.831" y2="27.5703" gradientUnits="userSpaceOnUse">
<stop stop-color="#AB665D"/>
<stop offset="1" stop-color="#2B2321"/>
</linearGradient>
<radialGradient id="paint18_radial_184_12202" cx="0" cy="0" r="1" gradientUnits="userSpaceOnUse" gradientTransform="translate(13.9704 20.303) rotate(-27.3661) scale(3.22105 3.22105)">
<stop stop-color="#FFA163"/>
<stop offset="1" stop-color="white"/>
</radialGradient>
<linearGradient id="paint19_linear_184_12202" x1="6.95879" y1="15.3849" x2="21.0715" y2="16.0348" gradientUnits="userSpaceOnUse">
<stop offset="0.05" stop-color="#ED9500"/>
<stop offset="0.4" stop-color="#FFCC00"/>
<stop offset="1" stop-color="#D96D00"/>
</linearGradient>
<radialGradient id="paint20_radial_184_12202" cx="0" cy="0" r="1" gradientUnits="userSpaceOnUse" gradientTransform="translate(8.73901 11.2522) rotate(-27.3661) scale(11.6737)">
<stop stop-color="#FFF369"/>
<stop offset="0.11" stop-color="#FAEE67"/>
<stop offset="0.23" stop-color="#ECE161"/>
<stop offset="0.36" stop-color="#D6CC58"/>
<stop offset="0.5" stop-color="#B6AE4B"/>
<stop offset="0.64" stop-color="#8E873A"/>
<stop offset="0.78" stop-color="#5C5826"/>
<stop offset="0.92" stop-color="#22210E"/>
<stop offset="1"/>
</radialGradient>
<radialGradient id="paint21_radial_184_12202" cx="0" cy="0" r="1" gradientUnits="userSpaceOnUse" gradientTransform="translate(8.95834 9.87588) rotate(-27.3661) scale(9.30754)">
<stop stop-color="#FFF369"/>
<stop offset="0.11" stop-color="#FAEE67"/>
<stop offset="0.23" stop-color="#ECE161"/>
<stop offset="0.36" stop-color="#D6CC58"/>
<stop offset="0.5" stop-color="#B6AE4B"/>
<stop offset="0.64" stop-color="#8E873A"/>
<stop offset="0.78" stop-color="#5C5826"/>
<stop offset="0.92" stop-color="#22210E"/>
<stop offset="1"/>
</radialGradient>
<radialGradient id="paint22_radial_184_12202" cx="0" cy="0" r="1" gradientUnits="userSpaceOnUse" gradientTransform="translate(13.2066 13.7988) rotate(-27.3661) scale(9.82045 9.82045)">
<stop stop-color="white"/>
<stop offset="1" stop-color="#E08F48"/>
</radialGradient>
<radialGradient id="paint23_radial_184_12202" cx="0" cy="0" r="1" gradientUnits="userSpaceOnUse" gradientTransform="translate(14.4903 14.1663) rotate(-27.3661) scale(8.49373)">
<stop stop-color="white"/>
<stop offset="1" stop-color="#E08F48"/>
</radialGradient>
<radialGradient id="paint24_radial_184_12202" cx="0" cy="0" r="1" gradientUnits="userSpaceOnUse" gradientTransform="translate(10.7201 10.7505) rotate(-27.3661) scale(11.1472)">
<stop stop-color="#FFF369"/>
<stop offset="0.11" stop-color="#FAEE67"/>
<stop offset="0.23" stop-color="#ECE161"/>
<stop offset="0.36" stop-color="#D6CC58"/>
<stop offset="0.5" stop-color="#B6AE4B"/>
<stop offset="0.64" stop-color="#8E873A"/>
<stop offset="0.78" stop-color="#5C5826"/>
<stop offset="0.92" stop-color="#22210E"/>
<stop offset="1"/>
</radialGradient>
<radialGradient id="paint25_radial_184_12202" cx="0" cy="0" r="1" gradientUnits="userSpaceOnUse" gradientTransform="translate(6.81563 11.955) rotate(-27.3661) scale(11.7558)">
<stop stop-color="#FFF369"/>
<stop offset="0.11" stop-color="#FAEE67"/>
<stop offset="0.23" stop-color="#ECE161"/>
<stop offset="0.36" stop-color="#D6CC58"/>
<stop offset="0.5" stop-color="#B6AE4B"/>
<stop offset="0.64" stop-color="#8E873A"/>
<stop offset="0.78" stop-color="#5C5826"/>
<stop offset="0.92" stop-color="#22210E"/>
<stop offset="1"/>
</radialGradient>
<radialGradient id="paint26_radial_184_12202" cx="0" cy="0" r="1" gradientUnits="userSpaceOnUse" gradientTransform="translate(9.90691 10.9942) rotate(-27.3661) scale(11.5575)">
<stop stop-color="#FFCC00"/>
<stop offset="1" stop-color="#ED9500"/>
</radialGradient>
<radialGradient id="paint27_radial_184_12202" cx="0" cy="0" r="1" gradientUnits="userSpaceOnUse" gradientTransform="translate(13.1857 2.21281) rotate(-27.3661) scale(11.2703)">
<stop stop-color="#FFF369"/>
<stop offset="0.11" stop-color="#FAEE67"/>
<stop offset="0.23" stop-color="#ECE161"/>
<stop offset="0.36" stop-color="#D6CC58"/>
<stop offset="0.5" stop-color="#B6AE4B"/>
<stop offset="0.64" stop-color="#8E873A"/>
<stop offset="0.78" stop-color="#5C5826"/>
<stop offset="0.92" stop-color="#22210E"/>
<stop offset="1"/>
</radialGradient>
<radialGradient id="paint28_radial_184_12202" cx="0" cy="0" r="1" gradientUnits="userSpaceOnUse" gradientTransform="translate(11.9155 5.01083) rotate(-27.3661) scale(7.98082)">
<stop stop-color="#FFF369"/>
<stop offset="0.11" stop-color="#FAEE67"/>
<stop offset="0.23" stop-color="#ECE161"/>
<stop offset="0.36" stop-color="#D6CC58"/>
<stop offset="0.5" stop-color="#B6AE4B"/>
<stop offset="0.64" stop-color="#8E873A"/>
<stop offset="0.78" stop-color="#5C5826"/>
<stop offset="0.92" stop-color="#22210E"/>
<stop offset="1"/>
</radialGradient>
<radialGradient id="paint29_radial_184_12202" cx="0" cy="0" r="1" gradientUnits="userSpaceOnUse" gradientTransform="translate(18.4082 9.55097) rotate(-27.3661) scale(4.80764 4.80764)">
<stop stop-color="white"/>
<stop offset="1" stop-color="#FFA163"/>
</radialGradient>
<radialGradient id="paint30_radial_184_12202" cx="0" cy="0" r="1" gradientUnits="userSpaceOnUse" gradientTransform="translate(9.8337 9.67695) rotate(-27.3661) scale(4.91022 4.91022)">
<stop stop-color="white"/>
<stop offset="1" stop-color="#FFA163"/>
</radialGradient>
<radialGradient id="paint31_radial_184_12202" cx="0" cy="0" r="1" gradientUnits="userSpaceOnUse" gradientTransform="translate(15.6544 9.70566) rotate(-27.3661) scale(4.55461 4.55461)">
<stop stop-color="#FFF369"/>
<stop offset="0.11" stop-color="#FAEE67"/>
<stop offset="0.23" stop-color="#ECE161"/>
<stop offset="0.36" stop-color="#D6CC58"/>
<stop offset="0.5" stop-color="#B6AE4B"/>
<stop offset="0.64" stop-color="#8E873A"/>
<stop offset="0.78" stop-color="#5C5826"/>
<stop offset="0.92" stop-color="#22210E"/>
<stop offset="1"/>
</radialGradient>
<radialGradient id="paint32_radial_184_12202" cx="0" cy="0" r="1" gradientUnits="userSpaceOnUse" gradientTransform="translate(8.61598 9.8684) rotate(-27.3661) scale(6.0181 6.0181)">
<stop stop-color="#FFF369"/>
<stop offset="0.11" stop-color="#FAEE67"/>
<stop offset="0.23" stop-color="#ECE161"/>
<stop offset="0.36" stop-color="#D6CC58"/>
<stop offset="0.5" stop-color="#B6AE4B"/>
<stop offset="0.64" stop-color="#8E873A"/>
<stop offset="0.78" stop-color="#5C5826"/>
<stop offset="0.92" stop-color="#22210E"/>
<stop offset="1"/>
</radialGradient>
<radialGradient id="paint33_radial_184_12202" cx="0" cy="0" r="1" gradientUnits="userSpaceOnUse" gradientTransform="translate(8.10005 9.75022) rotate(-27.3661) scale(16.7755 16.7755)">
<stop stop-color="#FCF80D"/>
<stop offset="1" stop-color="#FC9C0D"/>
</radialGradient>
<radialGradient id="paint34_radial_184_12202" cx="0" cy="0" r="1" gradientUnits="userSpaceOnUse" gradientTransform="translate(17.6301 2.67673) rotate(-27.3661) scale(8.72625)">
<stop stop-color="#FCF80D"/>
<stop offset="1" stop-color="#F78A0C"/>
</radialGradient>
<radialGradient id="paint35_radial_184_12202" cx="0" cy="0" r="1" gradientUnits="userSpaceOnUse" gradientTransform="translate(16.2703 10.8656) rotate(-27.3661) scale(11.1472)">
<stop/>
<stop offset="0.15" stop-color="#201F0D"/>
<stop offset="0.48" stop-color="#736E2F"/>
<stop offset="0.97" stop-color="#F6EB65"/>
<stop offset="1" stop-color="#FFF369"/>
</radialGradient>
<radialGradient id="paint36_radial_184_12202" cx="0" cy="0" r="1" gradientUnits="userSpaceOnUse" gradientTransform="translate(9.44292 14.3378) rotate(-27.3661) scale(9.91619)">
<stop stop-color="#E08F48"/>
<stop offset="1" stop-color="white"/>
</radialGradient>
<radialGradient id="paint37_radial_184_12202" cx="0" cy="0" r="1" gradientUnits="userSpaceOnUse" gradientTransform="translate(10.5048 24.0068) rotate(-27.3661) scale(3.30312 3.30311)">
<stop stop-color="#FFF369"/>
<stop offset="0.11" stop-color="#FAEE67"/>
<stop offset="0.23" stop-color="#ECE161"/>
<stop offset="0.36" stop-color="#D6CC58"/>
<stop offset="0.5" stop-color="#B6AE4B"/>
<stop offset="0.64" stop-color="#8E873A"/>
<stop offset="0.78" stop-color="#5C5826"/>
<stop offset="0.92" stop-color="#22210E"/>
<stop offset="1"/>
</radialGradient>
<radialGradient id="paint38_radial_184_12202" cx="0" cy="0" r="1" gradientUnits="userSpaceOnUse" gradientTransform="translate(1.99314 8.97602) rotate(-27.3661) scale(7.35166)">
<stop stop-color="#FFF369"/>
<stop offset="0.11" stop-color="#FAEE67"/>
<stop offset="0.23" stop-color="#ECE161"/>
<stop offset="0.36" stop-color="#D6CC58"/>
<stop offset="0.5" stop-color="#B6AE4B"/>
<stop offset="0.64" stop-color="#8E873A"/>
<stop offset="0.78" stop-color="#5C5826"/>
<stop offset="0.92" stop-color="#22210E"/>
<stop offset="1"/>
</radialGradient>
<radialGradient id="paint39_radial_184_12202" cx="0" cy="0" r="1" gradientUnits="userSpaceOnUse" gradientTransform="translate(4.5734 8.01007) rotate(-27.3661) scale(2.55769 2.55769)">
<stop/>
<stop offset="0.08" stop-color="#22210E"/>
<stop offset="0.22" stop-color="#5C5826"/>
<stop offset="0.36" stop-color="#8E873A"/>
<stop offset="0.5" stop-color="#B6AE4B"/>
<stop offset="0.64" stop-color="#D6CC58"/>
<stop offset="0.77" stop-color="#ECE161"/>
<stop offset="0.89" stop-color="#FAEE67"/>
<stop offset="1" stop-color="#FFF369"/>
</radialGradient>
<radialGradient id="paint40_radial_184_12202" cx="0" cy="0" r="1" gradientUnits="userSpaceOnUse" gradientTransform="translate(8.44121 12.7) rotate(-27.3661) scale(4.90338)">
<stop stop-color="white"/>
<stop offset="1" stop-color="#E08F48"/>
</radialGradient>
<radialGradient id="paint41_radial_184_12202" cx="0" cy="0" r="1" gradientUnits="userSpaceOnUse" gradientTransform="translate(18.6856 12.3183) rotate(-27.3661) scale(6.57888 6.57888)">
<stop stop-color="white"/>
<stop offset="1" stop-color="#E08F48"/>
</radialGradient>
<linearGradient id="paint42_linear_184_12202" x1="21.0927" y1="11.6728" x2="22.5382" y2="10.9247" gradientUnits="userSpaceOnUse">
<stop stop-color="#E08F48"/>
<stop offset="1" stop-color="white"/>
</linearGradient>
<linearGradient id="paint43_linear_184_12202" x1="7.50647" y1="11.043" x2="5.84042" y2="10.2343" gradientUnits="userSpaceOnUse">
<stop stop-color="#E08F48"/>
<stop offset="1" stop-color="white"/>
</linearGradient>
</defs>
</svg>
