<svg width="16" height="16" viewBox="0 0 16 16" fill="none" xmlns="http://www.w3.org/2000/svg">
<path d="M15.3707 4.89686C17.0864 8.96624 15.1725 13.6612 11.1031 15.3707C7.03376 17.0864 2.3388 15.1725 0.629285 11.1031C-1.08642 7.03376 0.827498 2.33878 4.89688 0.629269C8.96626 -1.08644 13.6612 0.827482 15.3707 4.89686Z" fill="url(#paint0_linear_81_2664)"/>
<path d="M12.9322 12.5792C10.3989 15.3045 6.1375 15.4655 3.41219 12.9322C0.686885 10.3989 0.525859 6.13753 3.05916 3.41223C5.59245 0.68692 9.85384 0.525912 12.5791 3.05921C15.3045 5.59251 15.4655 9.85389 12.9322 12.5792Z" fill="url(#paint1_linear_81_2664)"/>
<path d="M10.5053 8.60436C10.3564 8.28902 10.1811 8.04373 9.9753 7.88168C9.76945 7.71087 9.3928 7.47437 8.8322 7.16779C8.17523 6.79989 7.78108 6.55465 7.6453 6.42764C7.50515 6.29624 7.43068 6.06409 7.41754 5.72685C7.40878 5.52538 7.43946 5.37212 7.50078 5.26701C7.5621 5.1619 7.6584 5.1093 7.78979 5.10054C7.95184 5.09616 8.06574 5.14874 8.1183 5.26261C8.17085 5.37649 8.20588 5.62173 8.21902 6.00276L8.22342 6.14731L8.11393 6.1517L8.23217 6.35755L10.3782 6.2787C10.387 6.09475 10.387 5.96338 10.3826 5.8714C10.3607 5.23634 10.1768 4.74579 9.83076 4.39979C9.48476 4.05379 8.98113 3.84798 8.31979 3.79104L8.29348 3.10778L8.17523 2.90193L8.18399 3.11216L7.30369 3.14282L7.32994 3.82603C6.60728 3.93553 6.06856 4.18518 5.71818 4.56184C5.36781 4.9385 5.20579 5.45095 5.23207 6.09039C5.24521 6.53274 5.35029 6.92689 5.53424 7.26851C5.71819 7.61013 5.9328 7.87731 6.17806 8.06126C6.42333 8.2452 6.87447 8.52989 7.54895 8.91531C7.95189 9.14305 8.18835 9.36202 8.26281 9.56787C8.33726 9.77372 8.3811 10.1154 8.39862 10.5971C8.40738 10.7898 8.37673 10.9344 8.31103 11.0351C8.24534 11.1359 8.1402 11.1884 7.99566 11.1928C7.82485 11.1972 7.71537 11.1315 7.6672 10.9957C7.61902 10.8599 7.584 10.5008 7.55772 9.92267L7.54894 9.66862L7.54019 9.39711L7.42189 9.19121L7.43066 9.40143L5.39409 9.47589L5.4116 9.89635C5.44664 10.8511 5.68757 11.5125 6.12992 11.8848C6.57665 12.2527 7.08467 12.4541 7.65842 12.4935L7.68469 13.1155L7.5752 13.1198L7.69345 13.3257L8.68331 13.2907L8.65261 12.4804C9.38841 12.349 9.93149 12.0599 10.2819 11.6132C10.6323 11.1665 10.7943 10.5577 10.7636 9.79123C10.7461 9.30946 10.6586 8.91533 10.514 8.60436L10.5053 8.60436Z" fill="#D16A0D"/>
<path d="M10.26 6.07304L8.11394 6.15188L8.10077 5.79711C8.08763 5.41608 8.05261 5.17082 8.00006 5.05695C7.9475 4.94308 7.8336 4.8905 7.67155 4.89488C7.54454 4.89926 7.44384 4.95624 7.38253 5.05259C7.32121 5.15771 7.2949 5.30659 7.29928 5.51243C7.31242 5.84967 7.38691 6.08182 7.52707 6.21321C7.65846 6.3446 8.06136 6.58985 8.71394 6.95337C9.27017 7.26433 9.65559 7.50082 9.85706 7.66725C10.0629 7.83806 10.2381 8.07459 10.387 8.38994C10.5359 8.70528 10.6192 9.10384 10.6367 9.57685C10.6673 10.3433 10.5052 10.9521 10.1549 11.3988C9.80011 11.8499 9.25702 12.139 8.5256 12.266L8.55631 13.0763L7.56644 13.1113L7.53579 12.2747C6.95767 12.2397 6.44964 12.0383 6.00728 11.666C5.56493 11.2937 5.32407 10.6324 5.28903 9.67759L5.27151 9.25714L7.41757 9.1783L7.43508 9.70387C7.45698 10.2776 7.49202 10.6367 7.54457 10.7769C7.59275 10.9127 7.70223 10.9783 7.87304 10.974C8.01757 10.9696 8.12271 10.917 8.18841 10.8163C8.25411 10.7156 8.28474 10.571 8.27598 10.3783C8.25846 9.89657 8.21031 9.55057 8.13586 9.34473C8.0614 9.13888 7.82049 8.92425 7.42193 8.69212C6.74745 8.30671 6.29632 8.02201 6.05106 7.83806C5.80579 7.65411 5.59993 7.38695 5.40722 7.04533C5.22327 6.70371 5.12257 6.30518 5.10505 5.8672C5.07877 5.22776 5.24085 4.71535 5.59123 4.33869C5.94161 3.96204 6.47593 3.71678 7.20297 3.6029L7.17667 2.91964L8.16648 2.88458L8.19278 3.56784C8.8585 3.62916 9.36214 3.83498 9.70814 4.18098C10.0541 4.52698 10.2337 5.02192 10.26 5.6526C10.26 5.7402 10.2644 5.87595 10.2556 6.0599L10.26 6.07304Z" fill="white"/>
<g style="mix-blend-mode:screen" opacity="0.7">
<path style="mix-blend-mode:screen" d="M8.21455 3.58073L8.21893 3.58512C8.79268 3.64205 9.24822 3.79977 9.58108 4.07131C9.24822 3.79977 8.79272 3.63334 8.21022 3.5764L8.21455 3.58073Z" fill="url(#paint2_linear_81_2664)"/>
<path style="mix-blend-mode:screen" d="M7.92559 4.96473C7.95187 4.99101 7.97817 5.01731 7.99131 5.05673C8.04386 5.1706 8.07889 5.41584 8.09203 5.79688L8.10519 6.15166L8.11395 6.14289L8.10956 5.80566C8.09642 5.42462 8.0614 5.17937 8.00884 5.0655C7.98695 5.02608 7.96063 4.99101 7.92997 4.96912L7.92559 4.96473Z" fill="url(#paint3_linear_81_2664)"/>
<path style="mix-blend-mode:screen" d="M8.21034 10.8468C8.27604 10.7461 8.30669 10.6016 8.29793 10.4088C8.28041 9.92707 8.23225 9.5811 8.16217 9.37963C8.11838 9.257 8.01325 9.12558 7.84682 8.99418C8.00449 9.12558 8.10084 9.24822 8.14902 9.36648C8.22348 9.57233 8.2717 9.91836 8.28922 10.4001C8.29798 10.5928 8.26727 10.7373 8.20158 10.8381C8.13588 10.9388 8.03079 10.9914 7.88626 10.9958C7.78991 10.9958 7.71105 10.9782 7.65411 10.9388C7.71105 10.9957 7.79868 11.0133 7.89941 11.0089C8.04395 11.0045 8.14903 10.9519 8.21473 10.8512L8.21034 10.8468Z" fill="url(#paint4_linear_81_2664)"/>
<path style="mix-blend-mode:screen" d="M9.8615 7.67162C9.65565 7.50081 9.27899 7.26432 8.71838 6.95773C8.14026 6.63363 7.75924 6.40153 7.58843 6.26576C7.75486 6.40591 8.13589 6.63803 8.73153 6.97089C9.279 7.27309 9.65566 7.50957 9.86588 7.676L9.8615 7.67162Z" fill="url(#paint5_linear_81_2664)"/>
<path style="mix-blend-mode:screen" d="M7.54899 12.2965L7.54022 12.2877L7.56649 13.1199L7.57525 13.1111L7.54899 12.2965Z" fill="url(#paint6_linear_81_2664)"/>
<path style="mix-blend-mode:screen" d="M6.02038 11.6963C5.57802 11.324 5.33716 10.6627 5.30212 9.70793L5.2846 9.28748L7.41751 9.20425L7.41313 9.19987L5.27144 9.27433L5.28897 9.69478C5.324 10.6496 5.56492 11.3109 6.00728 11.6832C6.02042 11.6964 6.03354 11.7095 6.04668 11.7226C6.03792 11.7139 6.02913 11.7051 6.02038 11.6963Z" fill="url(#paint7_linear_81_2664)"/>
<path style="mix-blend-mode:screen" d="M6.02482 7.82927C5.80146 7.64971 5.60873 7.39567 5.43354 7.08033C5.24959 6.73871 5.14883 6.34013 5.13131 5.90215C5.10503 5.26271 5.2671 4.75032 5.61748 4.37366C5.96786 3.997 6.50219 3.75174 7.22922 3.63787L7.20292 2.9546L8.17526 2.91958L8.17088 2.9152L7.18545 2.94587L7.2117 3.62908C6.48904 3.73858 5.95033 3.98823 5.59995 4.36489C5.24957 4.74155 5.08755 5.254 5.11383 5.89344C5.12697 6.33579 5.23206 6.72994 5.41601 7.07156C5.5912 7.39566 5.79269 7.64971 6.02044 7.83366L6.02482 7.82927Z" fill="url(#paint8_linear_81_2664)"/>
</g>
<defs>
<linearGradient id="paint0_linear_81_2664" x1="1.59081" y1="3.20711" x2="14.3431" y2="12.8803" gradientUnits="userSpaceOnUse">
<stop stop-color="#FFD08D"/>
<stop offset="0.58" stop-color="#FFDC2A"/>
<stop offset="0.81" stop-color="#F3C237"/>
<stop offset="1" stop-color="#EBB140"/>
</linearGradient>
<linearGradient id="paint1_linear_81_2664" x1="3.47555" y1="13.0334" x2="12.6451" y2="3.15544" gradientUnits="userSpaceOnUse">
<stop stop-color="#FFAA3F"/>
<stop offset="0.58" stop-color="#FFAF2A"/>
<stop offset="0.71" stop-color="#F8A631"/>
<stop offset="1" stop-color="#EC9540"/>
</linearGradient>
<linearGradient id="paint2_linear_81_2664" x1="9.0261" y1="4.12415" x2="9.00585" y2="3.57947" gradientUnits="userSpaceOnUse">
<stop offset="0.04" stop-color="#F8DA36"/>
<stop offset="0.11" stop-color="#F1CD21"/>
<stop offset="0.19" stop-color="#EBC412"/>
<stop offset="0.28" stop-color="#E8BE09"/>
<stop offset="0.42" stop-color="#E8BD07"/>
<stop offset="0.51" stop-color="#EFCB1B"/>
<stop offset="0.64" stop-color="#F8DB33"/>
<stop offset="0.77" stop-color="#FDE542"/>
<stop offset="0.87" stop-color="#FFE947"/>
<stop offset="1" stop-color="#FFEC63"/>
</linearGradient>
<linearGradient id="paint3_linear_81_2664" x1="8.1666" y1="6.1767" x2="8.12219" y2="4.98209" gradientUnits="userSpaceOnUse">
<stop offset="0.04" stop-color="#F8DA36"/>
<stop offset="0.11" stop-color="#F1CD21"/>
<stop offset="0.19" stop-color="#EBC412"/>
<stop offset="0.28" stop-color="#E8BE09"/>
<stop offset="0.42" stop-color="#E8BD07"/>
<stop offset="0.51" stop-color="#EFCB1B"/>
<stop offset="0.64" stop-color="#F8DB33"/>
<stop offset="0.77" stop-color="#FDE542"/>
<stop offset="0.87" stop-color="#FFE947"/>
<stop offset="1" stop-color="#FFEC63"/>
</linearGradient>
<linearGradient id="paint4_linear_81_2664" x1="8.09886" y1="11.0201" x2="8.02406" y2="9.00844" gradientUnits="userSpaceOnUse">
<stop offset="0.04" stop-color="#F8DA36"/>
<stop offset="0.11" stop-color="#F1CD21"/>
<stop offset="0.19" stop-color="#EBC412"/>
<stop offset="0.28" stop-color="#E8BE09"/>
<stop offset="0.42" stop-color="#E8BD07"/>
<stop offset="0.51" stop-color="#EFCB1B"/>
<stop offset="0.64" stop-color="#F8DB33"/>
<stop offset="0.77" stop-color="#FDE542"/>
<stop offset="0.87" stop-color="#FFE947"/>
<stop offset="1" stop-color="#FFEC63"/>
</linearGradient>
<linearGradient id="paint5_linear_81_2664" x1="8.86906" y1="7.73132" x2="8.81356" y2="6.23962" gradientUnits="userSpaceOnUse">
<stop offset="0.04" stop-color="#F8DA36"/>
<stop offset="0.11" stop-color="#F1CD21"/>
<stop offset="0.19" stop-color="#EBC412"/>
<stop offset="0.28" stop-color="#E8BE09"/>
<stop offset="0.42" stop-color="#E8BD07"/>
<stop offset="0.51" stop-color="#EFCB1B"/>
<stop offset="0.64" stop-color="#F8DB33"/>
<stop offset="0.77" stop-color="#FDE542"/>
<stop offset="0.87" stop-color="#FFE947"/>
<stop offset="1" stop-color="#FFEC63"/>
</linearGradient>
<linearGradient id="paint6_linear_81_2664" x1="7.68811" y1="13.1427" x2="7.65747" y2="12.3195" gradientUnits="userSpaceOnUse">
<stop offset="0.04" stop-color="#F8DA36"/>
<stop offset="0.11" stop-color="#F1CD21"/>
<stop offset="0.19" stop-color="#EBC412"/>
<stop offset="0.28" stop-color="#E8BE09"/>
<stop offset="0.42" stop-color="#E8BD07"/>
<stop offset="0.51" stop-color="#EFCB1B"/>
<stop offset="0.64" stop-color="#F8DB33"/>
<stop offset="0.77" stop-color="#FDE542"/>
<stop offset="0.87" stop-color="#FFE947"/>
<stop offset="1" stop-color="#FFEC63"/>
</linearGradient>
<linearGradient id="paint7_linear_81_2664" x1="6.55675" y1="11.7219" x2="6.46492" y2="9.25222" gradientUnits="userSpaceOnUse">
<stop offset="0.04" stop-color="#F8DA36"/>
<stop offset="0.11" stop-color="#F1CD21"/>
<stop offset="0.19" stop-color="#EBC412"/>
<stop offset="0.28" stop-color="#E8BE09"/>
<stop offset="0.42" stop-color="#E8BD07"/>
<stop offset="0.51" stop-color="#EFCB1B"/>
<stop offset="0.64" stop-color="#F8DB33"/>
<stop offset="0.77" stop-color="#FDE542"/>
<stop offset="0.87" stop-color="#FFE947"/>
<stop offset="1" stop-color="#FFEC63"/>
</linearGradient>
<linearGradient id="paint8_linear_81_2664" x1="6.88905" y1="7.82353" x2="6.70883" y2="2.97703" gradientUnits="userSpaceOnUse">
<stop offset="0.04" stop-color="#F8DA36"/>
<stop offset="0.11" stop-color="#F1CD21"/>
<stop offset="0.19" stop-color="#EBC412"/>
<stop offset="0.28" stop-color="#E8BE09"/>
<stop offset="0.42" stop-color="#E8BD07"/>
<stop offset="0.51" stop-color="#EFCB1B"/>
<stop offset="0.64" stop-color="#F8DB33"/>
<stop offset="0.77" stop-color="#FDE542"/>
<stop offset="0.87" stop-color="#FFE947"/>
<stop offset="1" stop-color="#FFEC63"/>
</linearGradient>
</defs>
</svg>
