<svg width="41" height="24" viewBox="0 0 41 24" fill="none" xmlns="http://www.w3.org/2000/svg">
<path d="M18.0112 4.26667C18.0112 4.1421 18.0891 4.01753 18.2137 3.97081L29.1451 0L28.4288 2.95864C28.3976 3.05207 28.3353 3.1455 28.2263 3.17665L18.4161 6.71145C18.2137 6.78931 18.0112 6.63359 18.0112 6.41558V4.26667Z" fill="url(#paint0_linear_184_11597)"/>
<path d="M16.4849 6.4623C16.4849 6.33773 16.5627 6.21315 16.6873 6.16644L27.6187 2.18005L26.9024 5.1387C26.8713 5.23213 26.809 5.32556 26.7 5.3567L16.8897 8.8915C16.6873 8.96936 16.4849 8.81364 16.4849 8.59564V6.44673V6.4623Z" fill="url(#paint1_linear_184_11597)"/>
<path d="M21.9351 4.04867L10.7856 0L11.5487 3.11436L21.9351 6.85159V4.04867Z" fill="url(#paint2_linear_184_11597)"/>
<path d="M23.4614 6.24435L12.312 2.19568L13.075 5.31004L23.4614 9.04727V6.24435Z" fill="url(#paint3_linear_184_11597)"/>
<path d="M23.8039 8.34661L39.7339 2.53832C39.9675 2.46046 40.2011 2.6629 40.1388 2.89647L39.1733 6.85171C39.1422 6.94514 39.0799 7.03857 38.9709 7.06972L23.9908 12.4576C23.7884 12.5354 23.5859 12.3797 23.5859 12.1617V8.6269C23.5859 8.50232 23.6794 8.37775 23.7884 8.33103L23.8039 8.34661Z" fill="url(#paint4_linear_184_11597)"/>
<path d="M21.5149 11.6322L37.4605 5.82397C37.694 5.74611 37.9276 5.94854 37.8653 6.18212L36.8999 10.1374C36.8687 10.2308 36.8064 10.3242 36.6974 10.3554L21.7174 15.7432C21.5149 15.8211 21.3125 15.6653 21.3125 15.4473V11.9125C21.3125 11.788 21.4059 11.6634 21.5149 11.6167V11.6322Z" fill="url(#paint5_linear_184_11597)"/>
<path d="M19.2571 14.9489L35.2027 9.14062C35.4362 9.06276 35.6698 9.26519 35.6075 9.49877L34.6421 13.454C34.6109 13.5474 34.5486 13.6409 34.4396 13.672L19.4596 19.0599C19.2571 19.1377 19.0547 18.982 19.0547 18.764V15.2292C19.0547 15.1046 19.1481 14.98 19.2571 14.9333V14.9489Z" fill="url(#paint6_linear_184_11597)"/>
<path d="M16.937 18.437L32.8047 12.6599C33.0383 12.582 33.2719 12.7845 33.2096 13.0181L32.2441 16.9733C32.213 17.0667 32.1507 17.1602 32.0417 17.1913L18.0893 22.2054C17.9181 22.2677 17.7468 22.1743 17.6845 22.003L16.719 18.8108C16.6723 18.655 16.7502 18.4838 16.9059 18.437H16.937Z" fill="url(#paint7_linear_184_11597)"/>
<path d="M16.3606 8.34661L0.415077 2.53832C0.1815 2.46046 -0.0520768 2.6629 0.0102104 2.89647L0.975662 6.85171C1.00681 6.94514 1.06909 7.03857 1.16252 7.06972L16.1582 12.4576C16.3606 12.5354 16.563 12.3797 16.563 12.1617V8.6269C16.563 8.50232 16.4696 8.37775 16.3606 8.34661Z" fill="url(#paint8_linear_184_11597)"/>
<path d="M18.6497 11.6322L2.70414 5.82397C2.47056 5.74611 2.23699 5.94854 2.29927 6.18212L3.26472 10.1374C3.29587 10.2308 3.35816 10.3242 3.45159 10.3554L18.4472 15.7432C18.6497 15.8211 18.8521 15.6653 18.8521 15.4473V11.9125C18.8521 11.788 18.7587 11.6634 18.6497 11.6322Z" fill="url(#paint9_linear_184_11597)"/>
<path d="M20.9075 14.949L4.97758 9.15624C4.744 9.07838 4.51042 9.28082 4.57271 9.51439L5.53816 13.4696C5.56931 13.5631 5.63159 13.6565 5.72502 13.6876L20.7207 19.0755C20.9231 19.1533 21.1255 18.9976 21.1255 18.7796V15.2448C21.1255 15.1202 21.0321 14.9957 20.9231 14.9645L20.9075 14.949Z" fill="url(#paint10_linear_184_11597)"/>
<path d="M23.2432 18.437L7.37553 12.6599C7.14195 12.582 6.90837 12.7845 6.97066 13.0181L7.93611 16.9733C7.96726 17.0667 8.02954 17.1602 8.12297 17.1913L22.0753 22.2054C22.2466 22.2677 22.4179 22.1743 22.4802 22.003L23.4456 18.8108C23.4923 18.655 23.4145 18.4838 23.2588 18.437H23.2432Z" fill="url(#paint11_linear_184_11597)"/>
<path d="M9.98193 7.71853V17.4696C9.98193 18.0587 10.2956 18.6013 10.8132 18.9113L19.3607 23.7791C19.8782 24.0736 20.5213 24.0736 21.0388 23.7791L29.5864 18.9113C30.1039 18.6168 30.4176 18.0742 30.4176 17.4696V7.71853C30.4176 7.12943 30.1039 6.58685 29.5864 6.2768L21.0388 1.40902C20.5213 1.11447 19.8782 1.11447 19.3607 1.40902L10.8132 6.2923C10.2956 6.58685 9.98193 7.12943 9.98193 7.73403V7.71853Z" fill="url(#paint12_linear_184_11597)"/>
<path d="M12.1206 8.91802V16.2701C12.1206 16.8645 12.4353 17.412 12.9545 17.7248L19.3581 21.4008C19.8773 21.698 20.5224 21.698 21.0416 21.4008L27.4451 17.7248C27.9644 17.4276 28.279 16.8801 28.279 16.2701V8.91802C28.279 8.3236 27.9644 7.77611 27.4451 7.46326L21.0416 3.78724C20.5224 3.49003 19.8773 3.49003 19.3581 3.78724L12.9545 7.46326C12.4353 7.76047 12.1206 8.30796 12.1206 8.91802Z" fill="url(#paint13_linear_184_11597)"/>
<path d="M13.0708 9.32849V15.6218C13.0708 16.2153 13.3838 16.7618 13.9003 17.0742L19.3622 20.213C19.8787 20.5097 20.5203 20.5097 21.0368 20.213L26.4988 17.0742C27.0152 16.7775 27.3282 16.2309 27.3282 15.6218V9.32849C27.3282 8.73507 27.0152 8.1885 26.4988 7.87617L21.0368 4.7373C20.5203 4.44059 19.8787 4.44059 19.3622 4.7373L13.9003 7.87617C13.3838 8.17288 13.0708 8.71945 13.0708 9.32849Z" fill="#02D4EA"/>
<g filter="url(#filter0_d_184_11597)">
<path d="M21.6785 8V16.2424H19.9358V9.65412H19.8875L18 10.8374V9.2919L20.0405 8H21.6785Z" fill="white"/>
</g>
<defs>
<filter id="filter0_d_184_11597" x="18" y="7" width="5.67871" height="10.2424" filterUnits="userSpaceOnUse" color-interpolation-filters="sRGB">
<feFlood flood-opacity="0" result="BackgroundImageFix"/>
<feColorMatrix in="SourceAlpha" type="matrix" values="0 0 0 0 0 0 0 0 0 0 0 0 0 0 0 0 0 0 127 0" result="hardAlpha"/>
<feOffset dx="1"/>
<feGaussianBlur stdDeviation="0.5"/>
<feComposite in2="hardAlpha" operator="out"/>
<feColorMatrix type="matrix" values="0 0 0 0 0.0695834 0 0 0 0 0.635617 0 0 0 0 0.695833 0 0 0 1 0"/>
<feBlend mode="normal" in2="BackgroundImageFix" result="effect1_dropShadow_184_11597"/>
<feBlend mode="normal" in="SourceGraphic" in2="effect1_dropShadow_184_11597" result="shape"/>
</filter>
<linearGradient id="paint0_linear_184_11597" x1="23.5782" y1="0" x2="23.5782" y2="6.73179" gradientUnits="userSpaceOnUse">
<stop offset="0.15625" stop-color="#4CECFD"/>
<stop offset="0.604167" stop-color="#007480"/>
</linearGradient>
<linearGradient id="paint1_linear_184_11597" x1="22.0518" y1="2.18005" x2="22.0518" y2="8.91184" gradientUnits="userSpaceOnUse">
<stop offset="0.15625" stop-color="#4CECFD"/>
<stop offset="0.604167" stop-color="#007480"/>
</linearGradient>
<linearGradient id="paint2_linear_184_11597" x1="16.3604" y1="0" x2="16.3604" y2="6.85159" gradientUnits="userSpaceOnUse">
<stop offset="0.15625" stop-color="#4CECFD"/>
<stop offset="0.604167" stop-color="#007480"/>
</linearGradient>
<linearGradient id="paint3_linear_184_11597" x1="17.8867" y1="2.19568" x2="17.8867" y2="9.04727" gradientUnits="userSpaceOnUse">
<stop offset="0.15625" stop-color="#4CECFD"/>
<stop offset="0.604167" stop-color="#007480"/>
</linearGradient>
<linearGradient id="paint4_linear_184_11597" x1="31.8675" y1="2.52136" x2="31.8675" y2="12.4779" gradientUnits="userSpaceOnUse">
<stop stop-color="#4DEDFE"/>
<stop offset="1" stop-color="#007480"/>
</linearGradient>
<linearGradient id="paint5_linear_184_11597" x1="29.594" y1="5.80701" x2="29.594" y2="15.7635" gradientUnits="userSpaceOnUse">
<stop stop-color="#4DEDFE"/>
<stop offset="1" stop-color="#007480"/>
</linearGradient>
<linearGradient id="paint6_linear_184_11597" x1="27.3362" y1="9.12366" x2="27.3362" y2="19.0802" gradientUnits="userSpaceOnUse">
<stop stop-color="#4DEDFE"/>
<stop offset="1" stop-color="#007480"/>
</linearGradient>
<linearGradient id="paint7_linear_184_11597" x1="24.9627" y1="12.6429" x2="24.9627" y2="22.2248" gradientUnits="userSpaceOnUse">
<stop stop-color="#4DEDFE"/>
<stop offset="1" stop-color="#007480"/>
</linearGradient>
<linearGradient id="paint8_linear_184_11597" x1="8.28152" y1="2.52136" x2="8.28152" y2="12.4779" gradientUnits="userSpaceOnUse">
<stop stop-color="#4DEDFE"/>
<stop offset="1" stop-color="#007480"/>
</linearGradient>
<linearGradient id="paint9_linear_184_11597" x1="10.5706" y1="5.80701" x2="10.5706" y2="15.7635" gradientUnits="userSpaceOnUse">
<stop stop-color="#4DEDFE"/>
<stop offset="1" stop-color="#007480"/>
</linearGradient>
<linearGradient id="paint10_linear_184_11597" x1="12.844" y1="9.13928" x2="12.844" y2="19.0958" gradientUnits="userSpaceOnUse">
<stop stop-color="#4DEDFE"/>
<stop offset="1" stop-color="#007480"/>
</linearGradient>
<linearGradient id="paint11_linear_184_11597" x1="15.2098" y1="12.6429" x2="15.2098" y2="22.2248" gradientUnits="userSpaceOnUse">
<stop stop-color="#4DEDFE"/>
<stop offset="1" stop-color="#007480"/>
</linearGradient>
<linearGradient id="paint12_linear_184_11597" x1="20.1998" y1="1.18811" x2="20.1998" y2="24" gradientUnits="userSpaceOnUse">
<stop stop-color="#4FEEFF"/>
<stop offset="1" stop-color="#03B1C4"/>
</linearGradient>
<linearGradient id="paint13_linear_184_11597" x1="20.1998" y1="3.56433" x2="20.1998" y2="21.6237" gradientUnits="userSpaceOnUse">
<stop stop-color="white"/>
<stop offset="1" stop-color="#A5F6FF"/>
</linearGradient>
</defs>
</svg>
