<svg width="26" height="26" viewBox="0 0 26 26" fill="none" xmlns="http://www.w3.org/2000/svg">
<path d="M1 6.33333C1 3.38781 3.38781 1 6.33333 1H19.6667C22.6122 1 25 3.38781 25 6.33333V19.6667C25 22.6122 22.6122 25 19.6667 25H6.33333C3.38781 25 1 22.6122 1 19.6667V6.33333Z" fill="url(#paint0_linear_330_12717)" stroke="white" stroke-width="2"/>
<path d="M13 13C13 10.7909 14.7909 9 17 9H23.6667C24.403 9 25 9.59695 25 10.3333V15.6667C25 16.403 24.403 17 23.6667 17H17C14.7909 17 13 15.2091 13 13Z" stroke="white" stroke-width="2"/>
<path d="M17 13L17.1333 13" stroke="white" stroke-width="2" stroke-linecap="round"/>
<defs>
<linearGradient id="paint0_linear_330_12717" x1="13" y1="1" x2="13" y2="25" gradientUnits="userSpaceOnUse">
<stop stop-color="#D253FF"/>
<stop offset="1" stop-color="#3E31DC"/>
</linearGradient>
</defs>
</svg>
