<svg width="165" height="32" viewBox="0 0 165 32" fill="none" xmlns="http://www.w3.org/2000/svg">
<path d="M41.798 26.7428V19.8563H44.7626C50.2774 19.8563 53.5919 16.7769 53.5919 12.1747C53.5919 7.83844 50.2326 5.32178 45.4008 5.32178H38.2288V26.7428H41.798ZM45.2413 8.5075C48.0771 8.5075 50.0003 9.81482 50.0003 12.589C50.0003 15.1393 47.8643 16.6706 45.0593 16.6706H41.798V8.5075H45.2413ZM103.127 19.2516C103.127 14.8202 99.7821 11.4721 95.3506 11.4721C94.3346 11.4706 93.3283 11.6693 92.3891 12.0568C91.45 12.4443 90.5964 13.0131 89.877 13.7306C89.1577 14.4481 88.5868 15.3003 88.1969 16.2385C87.807 17.1766 87.6058 18.1824 87.6047 19.1984V19.316C87.6047 23.7783 90.824 27.0284 95.3506 27.0284C96.3577 27.0432 97.3577 26.8594 98.2937 26.4874C99.2297 26.1155 100.083 25.5628 100.805 24.8608C101.528 24.1589 102.104 23.3215 102.503 22.3965C102.901 21.4715 103.113 20.477 103.127 19.47C103.127 19.3944 103.127 19.3216 103.127 19.2488V19.2516ZM90.9835 19.2516C90.9835 16.7014 92.8647 14.6494 95.3506 14.725C98.0968 14.8062 99.8073 16.7182 99.7485 19.2516C99.6897 21.7851 97.8365 23.7783 95.3506 23.7783C92.8647 23.7783 90.9807 21.8019 90.9807 19.2516H90.9835ZM136.726 20.1558C136.805 19.6391 136.837 19.1163 136.821 18.5938C136.821 14.417 133.635 11.4833 129.587 11.4833C127.566 11.4586 125.618 12.2378 124.171 13.6494C122.724 15.0611 121.897 16.9896 121.872 19.0109V19.1984C121.872 23.7559 124.901 27.0368 129.489 27.0368C132.583 27.0368 135.164 25.5699 136.247 23.5319L133.602 22.065C132.902 23.2128 131.404 24.0246 129.713 24.0246C127.353 24.0246 125.696 22.5885 125.346 20.167L136.726 20.1558ZM125.528 17.572C125.976 15.5956 127.443 14.3862 129.481 14.3862C131.519 14.3862 133.12 15.6936 133.308 17.572H125.528ZM83.8758 11.7576L79.7299 22.4373L76.0319 11.7576H72.1771L77.7228 26.74L75.4272 32.0001H79.0945L87.5403 11.7576H83.8758ZM164.938 11.822C164.461 11.6881 163.967 11.623 163.471 11.6288C162.004 11.6288 160.347 12.4687 159.647 13.8936V11.7576H156.268V26.74H159.647V18.7561C159.647 15.9819 161.495 14.837 163.407 14.837C163.911 14.8269 164.414 14.8805 164.905 14.9965L164.938 11.8416V11.822ZM153.78 20.1558C153.859 19.6391 153.891 19.1163 153.875 18.5938C153.875 14.417 150.689 11.4833 146.641 11.4833C144.62 11.4586 142.672 12.2378 141.225 13.6494C139.778 15.0611 138.951 16.9896 138.926 19.0109V19.1984C138.926 23.7559 141.955 27.0368 146.543 27.0368C149.623 27.0368 152.218 25.5699 153.304 23.5319L150.656 22.065C149.956 23.2128 148.458 24.0246 146.767 24.0246C144.41 24.0246 142.75 22.5885 142.4 20.167L153.78 20.1558ZM142.582 17.572C143.03 15.5956 144.497 14.3862 146.535 14.3862C148.573 14.3862 150.174 15.6936 150.362 17.572H142.582ZM66.8219 19.218C66.8371 19.8284 66.7319 20.4358 66.5121 21.0055C66.2924 21.5752 65.9624 22.0959 65.5412 22.5379C65.12 22.98 64.6157 23.3346 64.0573 23.5815C63.4989 23.8285 62.8973 23.9628 62.2868 23.977H62.0713C59.4566 23.977 57.7042 21.9362 57.7042 19.218C57.715 17.9757 58.2113 16.7868 59.0869 15.9054C59.9626 15.024 61.1482 14.52 62.3904 14.501C65.0359 14.501 66.8219 16.5418 66.8219 19.218V19.218ZM119.577 18.1962C119.577 14.0195 117.536 11.4777 113.712 11.4777C111.702 11.4777 109.854 12.3399 108.835 13.7172V11.7576H105.423V26.74H108.835V18.6217C108.835 16.1023 110.652 14.5094 112.819 14.5094C114.986 14.5094 116.133 15.9763 116.133 18.4622V26.7512H119.577V18.1962ZM66.8219 11.7576V13.7172C65.8337 12.4099 64.238 11.4777 61.8473 11.4777C57.7042 11.4777 54.261 15.1449 54.261 19.4476C54.261 23.7503 57.2255 27.034 61.2091 27.034C63.7929 27.034 65.7357 26.1102 66.8079 24.5817V26.7484H70.1532V11.7576H66.8219Z" fill="#252526"/>
<path fill-rule="evenodd" clip-rule="evenodd" d="M15.6767 27.7141C22.3248 27.7141 27.7141 22.3248 27.7141 15.6767C27.7141 9.02857 22.3248 3.63923 15.6767 3.63923C9.02857 3.63923 3.63923 9.02857 3.63923 15.6767C3.63923 22.3248 9.02857 27.7141 15.6767 27.7141ZM15.6767 31.3533C24.3346 31.3533 31.3533 24.3346 31.3533 15.6767C31.3533 7.01868 24.3346 0 15.6767 0C7.01868 0 0 7.01868 0 15.6767C0 24.3346 7.01868 31.3533 15.6767 31.3533Z" fill="url(#paint0_angular_115_5556)"/>
<defs>
<radialGradient id="paint0_angular_115_5556" cx="0" cy="0" r="1" gradientUnits="userSpaceOnUse" gradientTransform="translate(15.6767 15.6767) rotate(180) scale(15.6767)">
<stop stop-color="#FF4700"/>
<stop offset="0.109375" stop-color="#FF4800"/>
<stop offset="0.192708" stop-color="#F66D00"/>
<stop offset="0.25" stop-color="#E9A600"/>
<stop offset="0.322917" stop-color="#E3D301"/>
<stop offset="0.416667" stop-color="#91DA30"/>
<stop offset="0.5" stop-color="#1DD58F"/>
<stop offset="0.598958" stop-color="#168BF0"/>
<stop offset="0.75" stop-color="#DD53C9"/>
<stop offset="0.890625" stop-color="#F9491D"/>
<stop offset="1" stop-color="#FF4700"/>
</radialGradient>
</defs>
</svg>
