<svg width="120" height="32" viewBox="0 0 120 32" fill="none" xmlns="http://www.w3.org/2000/svg">
<path d="M80.4355 0.00170898H71.1627C70.5296 0.00170898 69.99 0.466073 69.8911 1.09706L66.1413 25.0487C66.0667 25.5212 66.43 25.9473 66.9032 25.9473H71.6616C72.1035 25.9473 72.4818 25.6223 72.5509 25.1798L73.6151 18.3905C73.7127 17.7582 74.2536 17.2938 74.8868 17.2938H77.8204C83.9291 17.2938 87.4525 14.3164 88.3744 8.41625C88.7906 5.83494 88.3906 3.80676 87.1909 2.38635C85.8745 0.826637 83.5387 0.00170898 80.4355 0.00170898ZM81.5052 8.7495C80.9995 12.1011 78.4576 12.1011 75.9984 12.1011H74.6007L75.5836 5.84176C75.6419 5.46344 75.9645 5.18483 76.3455 5.18483H76.9867C78.6596 5.18483 80.2403 5.18483 81.0564 6.14633C81.5431 6.71996 81.6909 7.5722 81.5052 8.7495Z" fill="#179BD7"/>
<path d="M108.148 8.64136H103.711C103.33 8.64136 103.006 8.91998 102.949 9.2983L102.752 10.5493L102.441 10.0959C101.479 8.69053 99.3375 8.2207 97.1982 8.2207C92.292 8.2207 88.103 11.9643 87.2869 17.2157C86.8639 19.8353 87.4645 22.3401 88.9395 24.0869C90.2951 25.6931 92.2283 26.3623 94.5316 26.3623C98.4848 26.3623 100.677 23.8015 100.677 23.8015L100.479 25.0443C100.404 25.5196 100.768 25.9457 101.244 25.9457H105.241C105.875 25.9457 106.414 25.4814 106.513 24.849L108.914 9.54004C108.987 9.06885 108.624 8.64136 108.148 8.64136ZM101.959 17.3468C101.534 19.9022 99.5178 21.6176 96.9502 21.6176C95.6636 21.6176 94.6306 21.201 93.969 20.4116C93.3129 19.6277 93.0661 18.5118 93.2722 17.269C93.6748 14.7355 95.7192 12.964 98.2475 12.964C99.5083 12.964 100.533 13.3861 101.208 14.1823C101.888 14.9868 102.156 16.1094 101.959 17.3468Z" fill="#179BD7"/>
<path d="M113.383 0.658303L109.577 25.0483C109.503 25.5209 109.866 25.947 110.339 25.947H114.165C114.801 25.947 115.34 25.4826 115.438 24.8503L119.19 0.900046C119.265 0.427488 118.901 0 118.428 0H114.144C113.766 0.00136578 113.441 0.279984 113.383 0.658303Z" fill="#179BD7"/>
<path d="M14.304 0.0012207H5.03251C4.39806 0.0012207 3.85849 0.465584 3.75953 1.09657L0.00973326 25.0482C-0.0648289 25.5207 0.298491 25.9469 0.774333 25.9469H5.20061C5.83507 25.9469 6.37463 25.4825 6.4736 24.8501L7.48493 18.39C7.58254 17.7577 8.12345 17.2933 8.75655 17.2933H11.6916C17.7989 17.2933 21.3237 14.3159 22.2442 8.41576C22.659 5.83445 22.2618 3.80627 21.062 2.38586C19.7443 0.826149 17.4071 0.0012207 14.304 0.0012207ZM15.3736 8.74901C14.8666 12.1006 12.3247 12.1006 9.86685 12.1006H8.46779L9.4493 5.84128C9.5076 5.46296 9.83296 5.18434 10.2125 5.18434H10.8538C12.528 5.18434 14.1074 5.18434 14.9235 6.14584C15.4102 6.71947 15.5593 7.57171 15.3736 8.74901Z" fill="#253B80"/>
<path d="M42.0183 8.64112H37.5784C37.2002 8.64112 36.8735 8.91974 36.8152 9.29806L36.6186 10.5491L36.3082 10.0957C35.347 8.69029 33.2037 8.22046 31.0644 8.22046C26.1582 8.22046 21.9678 11.9641 21.1517 17.2155C20.7274 19.835 21.3307 22.3398 22.8056 24.0867C24.1586 25.6928 26.0945 26.3621 28.3978 26.3621C32.3509 26.3621 34.5431 23.8012 34.5431 23.8012L34.3451 25.0441C34.2706 25.5194 34.6339 25.9455 35.107 25.9455H39.1063C39.7421 25.9455 40.2789 25.4811 40.3793 24.8488L42.7788 9.5398C42.8547 9.06861 42.4928 8.64112 42.0183 8.64112ZM35.8296 17.3466C35.4012 19.9019 33.388 21.6174 30.8204 21.6174C29.5311 21.6174 28.5008 21.2008 27.8393 20.4114C27.1831 19.6274 26.9337 18.5116 27.1424 17.2687C27.5424 14.7352 29.5894 12.9638 32.1178 12.9638C33.3785 12.9638 34.4034 13.3858 35.0786 14.1821C35.755 14.9865 36.0235 16.1092 35.8296 17.3466Z" fill="#253B80"/>
<path d="M65.664 8.64111H61.2025C60.7768 8.64111 60.3769 8.85417 60.1356 9.21064L53.9821 18.3422L51.3738 9.56711C51.2098 9.01807 50.7068 8.64111 50.1374 8.64111H45.7532C45.2204 8.64111 44.8503 9.16557 45.0198 9.67091L49.9341 24.2L45.314 30.7708C44.9506 31.2884 45.3167 32 45.9443 32H50.4004C50.8234 32 51.2193 31.7924 51.4592 31.4427L66.2985 9.86348C66.6536 9.34722 66.289 8.64111 65.664 8.64111Z" fill="#253B80"/>
</svg>
