<svg width="353" height="290" viewBox="0 0 353 290" fill="none" xmlns="http://www.w3.org/2000/svg">
<path d="M341.914 156.609L341.914 153.609" stroke="#D2D8DF" stroke-width="2.921" stroke-linecap="round"/>
<path d="M348.652 154.984L346.2 152.461" stroke="#D2D8DF" stroke-width="2.921" stroke-linecap="round"/>
<path d="M351.519 148.268L348.053 148.268" stroke="#D2D8DF" stroke-width="2.921" stroke-linecap="round"/>
<path d="M348.933 141.43L346.482 143.953" stroke="#D2D8DF" stroke-width="2.921" stroke-linecap="round"/>
<path d="M341.914 140.609L341.914 143.609" stroke="#D2D8DF" stroke-width="2.921" stroke-linecap="round"/>
<path d="M336.914 142.609L338.914 144.609" stroke="#D2D8DF" stroke-width="2.921" stroke-linecap="round"/>
<path d="M332.914 147.609L335.914 147.609" stroke="#D2D8DF" stroke-width="2.921" stroke-linecap="round"/>
<path d="M334.914 154.609L336.914 152.609" stroke="#D2D8DF" stroke-width="2.921" stroke-linecap="round"/>
<path d="M180.914 287.609L180.914 285.609" stroke="#D2D8DF" stroke-width="2.921" stroke-linecap="round"/>
<path d="M186.914 281.609L184.914 281.609" stroke="#D2D8DF" stroke-width="2.921" stroke-linecap="round"/>
<path d="M180.914 275.609L180.914 277.609" stroke="#D2D8DF" stroke-width="2.921" stroke-linecap="round"/>
<path d="M175.914 281.609L177.914 281.609" stroke="#D2D8DF" stroke-width="2.921" stroke-linecap="round"/>
<path d="M296.914 203.609L296.914 200.609" stroke="#D2D8DF" stroke-width="2.921" stroke-linecap="round"/>
<path d="M305.914 194.609L302.914 194.609" stroke="#D2D8DF" stroke-width="2.921" stroke-linecap="round"/>
<path d="M296.914 186.609L296.914 189.609" stroke="#D2D8DF" stroke-width="2.921" stroke-linecap="round"/>
<path d="M288.914 194.609L291.914 194.609" stroke="#D2D8DF" stroke-width="2.921" stroke-linecap="round"/>
<path d="M81.6598 94.5684C79.27 94.5684 77.3318 92.6297 77.3318 90.2392C77.3318 87.8479 79.27 85.9101 81.6598 85.9101C84.0496 85.9101 85.9878 87.8479 85.9878 90.2392" stroke="#D2D8DF" stroke-width="2.921" stroke-linecap="round"/>
<path fill-rule="evenodd" clip-rule="evenodd" d="M61.853 133.844C59.2832 134.646 55.3441 137.788 54.4323 141.17C53.6054 138.181 50.1391 134.646 47.0115 134.378C50.5322 133.132 53.8983 129.428 54.4323 126.519C54.7956 129.484 59.4513 133.412 61.853 133.844Z" fill="#EBECEE"/>
<path fill-rule="evenodd" clip-rule="evenodd" d="M325.642 95.9039C324.357 96.3047 322.388 97.8757 321.932 99.5664C321.519 98.0727 319.786 96.3047 318.222 96.1705C319.982 95.5481 321.665 93.696 321.932 92.2414C322.114 93.724 324.442 95.6882 325.642 95.9039Z" fill="#EBECEE"/>
<path fill-rule="evenodd" clip-rule="evenodd" d="M301.79 235.01C301.79 233.156 303.292 231.654 305.146 231.654C307 231.654 308.501 233.156 308.501 235.01C308.501 236.864 307 238.367 305.146 238.367C303.292 238.367 301.79 236.864 301.79 235.01Z" fill="#D1D8DF"/>
<path fill-rule="evenodd" clip-rule="evenodd" d="M77.6946 225.997C77.6946 222.898 80.2067 220.386 83.3037 220.386C86.4024 220.386 88.9136 222.898 88.9136 225.997C88.9136 229.096 86.4024 231.607 83.3037 231.607C80.2067 231.607 77.6946 229.096 77.6946 225.997Z" fill="#EBECEE"/>
<path fill-rule="evenodd" clip-rule="evenodd" d="M1.75552e-05 241.198C1.77701e-05 238.74 1.99167 236.747 4.44856 236.747C6.90629 236.747 8.89795 238.74 8.89795 241.198C8.89795 243.656 6.90629 245.648 4.44856 245.648C1.99167 245.648 1.73403e-05 243.656 1.75552e-05 241.198Z" fill="#EBECEE"/>
<path fill-rule="evenodd" clip-rule="evenodd" d="M239.07 33.3408C239.07 31.791 240.326 30.5351 241.875 30.5351C243.424 30.5351 244.679 31.791 244.679 33.3408C244.679 34.8905 243.424 36.1465 241.875 36.1465C240.326 36.1465 239.07 34.8905 239.07 33.3408Z" stroke="#D2D8DF" stroke-width="2.921" stroke-linecap="round"/>
<path fill-rule="evenodd" clip-rule="evenodd" d="M240.739 256.577C240.739 254.722 242.241 253.22 244.095 253.22C245.948 253.22 247.451 254.722 247.451 256.577C247.451 258.431 245.948 259.934 244.095 259.934C242.241 259.934 240.739 258.431 240.739 256.577Z" stroke="#D2D8DF" stroke-width="2.921" stroke-linecap="round"/>
<path fill-rule="evenodd" clip-rule="evenodd" d="M155.136 2.27227C157.28 1.45621 159.68 2.53382 160.496 4.678C161.312 6.82303 160.236 9.22451 158.09 10.0397C155.947 10.8558 153.547 9.77902 152.731 7.63399C151.914 5.48896 152.992 3.08833 155.136 2.27227Z" stroke="#D2D8DF" stroke-width="2.921" stroke-linecap="round"/>
<g filter="url(#filter0_f_1280_20851)">
<rect x="114" y="221" width="124" height="12" fill="#1B3554"/>
</g>
<rect x="115" y="57" width="124" height="79" fill="#E0E5EC"/>
<path fill-rule="evenodd" clip-rule="evenodd" d="M115 57V177H95.0005V104.437L105.002 89.0864L115 57Z" fill="#CFD4DC"/>
<path fill-rule="evenodd" clip-rule="evenodd" d="M238 57V177H258V104.437L247.999 89.0864L238 57Z" fill="#CFD4DC"/>
<path d="M95.0005 104H258V240C258 242.761 255.762 245 253 245H100C97.2391 245 95.0005 242.761 95.0005 240V104Z" fill="white"/>
<path opacity="0.5" fill-rule="evenodd" clip-rule="evenodd" d="M144 159.548C144 158.848 144.36 158.197 144.982 157.876C146.365 157.161 149.009 156 151.578 156C154.147 156 156.715 157.16 158.053 157.875C158.656 158.197 159 158.835 159 159.519C159 161.129 157.146 162.185 155.631 161.639C154.414 161.201 152.983 160.846 151.54 160.846C150.069 160.846 148.598 161.215 147.351 161.665C145.839 162.211 144 161.155 144 159.548Z" fill="#1B3554"/>
<path opacity="0.5" fill-rule="evenodd" clip-rule="evenodd" d="M195 159.548C195 158.848 195.36 158.197 195.982 157.876C197.365 157.161 200.009 156 202.578 156C205.147 156 207.715 157.16 209.053 157.875C209.656 158.197 210 158.835 210 159.519C210 161.129 208.146 162.185 206.631 161.639C205.414 161.201 203.983 160.846 202.54 160.846C201.069 160.846 199.598 161.215 198.351 161.665C196.839 162.211 195 161.155 195 159.548Z" fill="#1B3554"/>
<ellipse opacity="0.5" cx="177" cy="180.003" rx="16" ry="7.00303" fill="#1B3554"/>
<circle opacity="0.149343" cx="140" cy="119" r="6" fill="#1B3554"/>
<circle opacity="0.149343" cx="213" cy="119" r="6" fill="#1B3554"/>
<path d="M140 118.693V81.5C140 61.3416 156.342 45 176.5 45C196.659 45 213 61.3416 213 81.5V118.693" stroke="#5E7085" stroke-width="5" stroke-linecap="round" stroke-linejoin="round"/>
<g filter="url(#filter1_d_1280_20851)">
<circle cx="257.6" cy="217.6" r="17.6" fill="#FF228C"/>
</g>
<path d="M256.931 221.405H259.008L259.29 212.904H256.632L256.931 221.405ZM259.518 224.08C259.518 223.271 258.885 222.637 258.022 222.637C257.125 222.637 256.491 223.271 256.491 224.08C256.491 224.89 257.125 225.524 258.022 225.524C258.885 225.524 259.518 224.89 259.518 224.08Z" fill="white"/>
<defs>
<filter id="filter0_f_1280_20851" x="89.8135" y="196.813" width="172.374" height="60.3739" filterUnits="userSpaceOnUse" color-interpolation-filters="sRGB">
<feFlood flood-opacity="0" result="BackgroundImageFix"/>
<feBlend mode="normal" in="SourceGraphic" in2="BackgroundImageFix" result="shape"/>
<feGaussianBlur stdDeviation="12.0935" result="effect1_foregroundBlur_1280_20851"/>
</filter>
<filter id="filter1_d_1280_20851" x="232" y="194" width="51.2" height="51.1992" filterUnits="userSpaceOnUse" color-interpolation-filters="sRGB">
<feFlood flood-opacity="0" result="BackgroundImageFix"/>
<feColorMatrix in="SourceAlpha" type="matrix" values="0 0 0 0 0 0 0 0 0 0 0 0 0 0 0 0 0 0 127 0" result="hardAlpha"/>
<feOffset dy="2"/>
<feGaussianBlur stdDeviation="4"/>
<feColorMatrix type="matrix" values="0 0 0 0 1 0 0 0 0 0.415686 0 0 0 0 0.596078 0 0 0 0.3 0"/>
<feBlend mode="normal" in2="BackgroundImageFix" result="effect1_dropShadow_1280_20851"/>
<feBlend mode="normal" in="SourceGraphic" in2="effect1_dropShadow_1280_20851" result="shape"/>
</filter>
</defs>
</svg>
