<svg width="40" height="40" viewBox="0 0 40 40" fill="none" xmlns="http://www.w3.org/2000/svg">
<path opacity="0.5" d="M35.6578 27.0099L22.6798 14.032C20.2881 11.6403 16.4108 11.6399 14.0195 14.0312C11.6282 16.4225 11.6285 20.2999 14.0202 22.6916L26.9982 35.6695C29.3899 38.0612 33.2672 38.0615 35.6585 35.6702C38.0498 33.279 38.0495 29.4016 35.6578 27.0099Z" fill="#13CCDF"/>
<path fill-rule="evenodd" clip-rule="evenodd" d="M21.5313 30.2026C20.5225 30.4704 19.4639 30.6173 18.3708 30.6173C11.6071 30.6173 6.12433 25.1346 6.12433 18.3708C6.12433 11.6071 11.6071 6.12433 18.3708 6.12433C25.1346 6.12433 30.6173 11.6071 30.6173 18.3708C30.6173 19.4704 30.4704 20.5354 30.1983 21.5507L34.9465 26.299C36.0958 23.8989 36.7417 21.2094 36.7417 18.3708C36.7417 8.2241 28.5176 0 18.3708 0C8.2241 0 0 8.2241 0 18.3708C0 28.5176 8.2241 36.7417 18.3708 36.7417C21.2029 36.7417 23.886 36.1001 26.2817 34.9551L21.5313 30.2047V30.2026Z" fill="url(#paint0_linear_1301_26758)"/>
<path d="M31.3216 37.461C34.7039 37.461 37.4459 34.7191 37.4459 31.3367C37.4459 27.9543 34.7039 25.2123 31.3216 25.2123C27.9392 25.2123 25.1972 27.9543 25.1972 31.3367C25.1972 34.7191 27.9392 37.461 31.3216 37.461Z" fill="#13CCDF"/>
<path d="M18.3687 24.4952C21.7511 24.4952 24.493 21.7532 24.493 18.3709C24.493 14.9885 21.7511 12.2465 18.3687 12.2465C14.9863 12.2465 12.2444 14.9885 12.2444 18.3709C12.2444 21.7532 14.9863 24.4952 18.3687 24.4952Z" fill="#13CCDF"/>
<defs>
<linearGradient id="paint0_linear_1301_26758" x1="4.30323" y1="8.60863" x2="34.1191" y2="29.2996" gradientUnits="userSpaceOnUse">
<stop stop-color="#13CCDF"/>
<stop offset="1" stop-color="#13CCDF" stop-opacity="0"/>
</linearGradient>
</defs>
</svg>
