<svg width="121" height="40" viewBox="0 0 121 40" fill="none" xmlns="http://www.w3.org/2000/svg">
<path d="M58.3003 14.493C57.5594 13.752 56.706 13.2033 55.803 12.7971C54.7121 12.3089 53.5455 12.041 52.3725 12.041C50.763 12.041 49.1514 12.5012 47.758 13.4193C47.2936 13.7261 46.8529 14.0825 46.4446 14.493C44.8611 16.0765 43.9883 18.1828 43.9883 20.423C43.9883 22.6632 44.8611 24.7674 46.4446 26.353C48.0281 27.9365 50.1344 28.8093 52.3746 28.8093C53.956 28.8093 55.4617 28.3535 56.773 27.5391L57.38 28.1461C57.6695 28.4356 58.0476 28.5803 58.4256 28.5803C58.8037 28.5803 59.1839 28.4356 59.4712 28.1461C60.0502 27.5671 60.0502 26.6317 59.4712 26.0528L58.9916 25.5732L58.9636 25.5451C60.1064 24.0804 60.7566 22.3089 60.7566 20.423C60.7566 18.1828 59.8838 16.0765 58.3003 14.493ZM48.5358 24.2575C47.5118 23.2336 46.9458 21.8704 46.9458 20.4208C46.9458 18.9713 47.5096 17.6103 48.5358 16.5841C49.065 16.0549 49.6764 15.6595 50.3288 15.3938C50.9812 15.1303 51.6768 14.9963 52.3703 14.9963C53.7594 14.9963 55.1485 15.5256 56.207 16.582C58.0713 18.4463 58.2874 21.3368 56.8681 23.4453L54.3859 20.9631C53.8069 20.3841 52.8715 20.3841 52.2925 20.9631C51.7136 21.542 51.7136 22.4775 52.2925 23.0564L54.5889 25.3528C52.5928 26.2472 50.1711 25.8907 48.5358 24.2554V24.2575Z" fill="#13CCDF"/>
<path d="M75.2868 12.4407C74.4703 12.4407 73.807 13.1039 73.807 13.9205V22.2333C73.807 24.0588 71.8692 25.5624 69.8774 25.5624C67.8856 25.5624 65.9673 24.007 65.9673 22.2333V13.9205C65.9673 13.1039 65.3041 12.4407 64.4875 12.4407C63.6709 12.4407 63.0077 13.1039 63.0077 13.9205V22.2333C63.0077 25.6423 66.1531 28.522 69.8774 28.522C73.6018 28.522 76.7688 25.6423 76.7688 22.2333V13.9205C76.7688 13.1039 76.1056 12.4407 75.289 12.4407H75.2868Z" fill="#13CCDF"/>
<path d="M88.4517 25.314H82.31V13.9183C82.31 13.1018 81.6468 12.4385 80.8302 12.4385C80.0136 12.4385 79.3504 13.1018 79.3504 13.9183V26.7938C79.3504 27.6104 80.0136 28.2736 80.8302 28.2736H88.4517C89.2683 28.2736 89.9315 27.6104 89.9315 26.7938C89.9315 25.9772 89.2683 25.314 88.4517 25.314Z" fill="#13CCDF"/>
<path d="M98.1256 12C93.5025 12 89.7414 15.7611 89.7414 20.3863C89.7414 25.0115 93.5025 28.7705 98.1256 28.7705C102.749 28.7705 106.512 25.0094 106.512 20.3863C106.512 15.7633 102.751 12.0022 98.1277 12.0022L98.1256 12ZM98.1256 25.8108C95.1335 25.8108 92.701 23.3762 92.701 20.3863C92.701 17.3964 95.1335 14.9618 98.1256 14.9618C101.118 14.9618 103.55 17.3964 103.55 20.3863C103.55 23.3762 101.115 25.8108 98.1256 25.8108Z" fill="#13CCDF"/>
<path d="M118.685 12.4385H107.882C107.065 12.4385 106.402 13.1018 106.402 13.9183C106.402 14.7349 107.065 15.3982 107.882 15.3982H111.802V26.7938C111.802 27.6104 112.466 28.2736 113.282 28.2736C114.099 28.2736 114.762 27.6104 114.762 26.7938V15.3982H118.683C119.5 15.3982 120.163 14.7349 120.163 13.9183C120.163 13.1018 119.5 12.4385 118.683 12.4385H118.685Z" fill="#13CCDF"/>
<path opacity="0.5" d="M35.6578 27.0099L22.6798 14.032C20.2881 11.6403 16.4108 11.6399 14.0195 14.0312C11.6282 16.4225 11.6285 20.2999 14.0202 22.6916L26.9982 35.6695C29.3899 38.0612 33.2672 38.0615 35.6585 35.6702C38.0498 33.279 38.0495 29.4016 35.6578 27.0099Z" fill="#13CCDF"/>
<path fill-rule="evenodd" clip-rule="evenodd" d="M21.5313 30.2026C20.5225 30.4704 19.4639 30.6173 18.3708 30.6173C11.6071 30.6173 6.12433 25.1346 6.12433 18.3708C6.12433 11.6071 11.6071 6.12433 18.3708 6.12433C25.1346 6.12433 30.6173 11.6071 30.6173 18.3708C30.6173 19.4704 30.4704 20.5354 30.1983 21.5507L34.9465 26.299C36.0958 23.8989 36.7417 21.2094 36.7417 18.3708C36.7417 8.2241 28.5176 0 18.3708 0C8.2241 0 0 8.2241 0 18.3708C0 28.5176 8.2241 36.7417 18.3708 36.7417C21.2029 36.7417 23.886 36.1001 26.2817 34.9551L21.5313 30.2047V30.2026Z" fill="url(#paint0_linear_1301_26751)"/>
<path d="M31.3216 37.461C34.7039 37.461 37.4459 34.7191 37.4459 31.3367C37.4459 27.9543 34.7039 25.2123 31.3216 25.2123C27.9392 25.2123 25.1972 27.9543 25.1972 31.3367C25.1972 34.7191 27.9392 37.461 31.3216 37.461Z" fill="#13CCDF"/>
<path d="M18.3687 24.4952C21.7511 24.4952 24.493 21.7532 24.493 18.3709C24.493 14.9885 21.7511 12.2465 18.3687 12.2465C14.9863 12.2465 12.2444 14.9885 12.2444 18.3709C12.2444 21.7532 14.9863 24.4952 18.3687 24.4952Z" fill="#13CCDF"/>
<defs>
<linearGradient id="paint0_linear_1301_26751" x1="4.30323" y1="8.60863" x2="34.1191" y2="29.2996" gradientUnits="userSpaceOnUse">
<stop stop-color="#13CCDF"/>
<stop offset="1" stop-color="#13CCDF" stop-opacity="0"/>
</linearGradient>
</defs>
</svg>
