<svg width="20" height="20" viewBox="0 0 20 20" fill="none" xmlns="http://www.w3.org/2000/svg">
<path fill-rule="evenodd" clip-rule="evenodd" d="M10 2.5C7.92893 2.5 6.05393 3.33947 4.6967 4.6967C3.33947 6.05393 2.5 7.92893 2.5 10C2.5 12.0711 3.33947 13.9461 4.6967 15.3033C6.05393 16.6605 7.92893 17.5 10 17.5C12.0711 17.5 13.9461 16.6605 15.3033 15.3033C16.6605 13.9461 17.5 12.0711 17.5 10C17.5 7.92893 16.6605 6.05393 15.3033 4.6967C13.9461 3.33947 12.0711 2.5 10 2.5Z" stroke="#1B2847" stroke-width="1.5" stroke-linecap="round" stroke-linejoin="round"/>
<path d="M10 6.66667L10 10" stroke="#1B2847" stroke-width="1.5" stroke-linecap="round" stroke-linejoin="round"/>
<path d="M10 10L11.6667 11.6667" stroke="#1B2847" stroke-width="1.5" stroke-linecap="round" stroke-linejoin="round"/>
</svg>
