<svg width="18" height="18" viewBox="0 0 18 18" fill="none" xmlns="http://www.w3.org/2000/svg">
<path d="M7.22217 9.88932C7.22217 8.41656 8.41608 7.22266 9.88883 7.22266H14.3333C15.806 7.22266 16.9999 8.41656 16.9999 9.88932V14.3338C16.9999 15.8065 15.806 17.0004 14.3333 17.0004H9.88883C8.41608 17.0004 7.22217 15.8065 7.22217 14.3338V9.88932Z" stroke="currentColor" stroke-width="1.5"/>
<path d="M10.0278 3.85185C10.0278 4.26607 10.3636 4.60185 10.7778 4.60185C11.192 4.60185 11.5278 4.26607 11.5278 3.85185H10.0278ZM3.85185 11.5278C4.26607 11.5278 4.60185 11.192 4.60185 10.7778C4.60185 10.3636 4.26607 10.0278 3.85185 10.0278V11.5278ZM3.66667 1.75H8.11111V0.25H3.66667V1.75ZM1.75 8.11111V3.66667H0.25V8.11111H1.75ZM10.0278 3.66667V3.85185H11.5278V3.66667H10.0278ZM3.85185 10.0278H3.66667V11.5278H3.85185V10.0278ZM0.25 8.11111C0.25 9.99808 1.77969 11.5278 3.66667 11.5278V10.0278C2.60812 10.0278 1.75 9.16966 1.75 8.11111H0.25ZM8.11111 1.75C9.16966 1.75 10.0278 2.60812 10.0278 3.66667H11.5278C11.5278 1.77969 9.99809 0.25 8.11111 0.25V1.75ZM3.66667 0.25C1.77969 0.25 0.25 1.77969 0.25 3.66667H1.75C1.75 2.60812 2.60812 1.75 3.66667 1.75V0.25Z" fill="currentColor"/>
</svg>
