<svg width="20" height="20" viewBox="0 0 20 20" fill="none" xmlns="http://www.w3.org/2000/svg">
<path d="M17.0833 16.6667H2.91663C2.22627 16.6667 1.66663 16.107 1.66663 15.4167C1.66663 14.7263 2.22627 14.1667 2.91663 14.1667H17.0833C17.7736 14.1667 18.3333 14.7263 18.3333 15.4167C18.3333 16.107 17.7736 16.6667 17.0833 16.6667ZM16.6666 6.83335V14.1667L3.33329 14.1667V6.83335C3.33329 5.89993 3.33329 5.43323 3.51495 5.07671C3.67474 4.7631 3.92952 4.50812 4.24312 4.34833C4.59964 4.16667 5.0667 4.16667 6.00012 4.16667H14.0001C14.9335 4.16667 15.3999 4.16667 15.7564 4.34833C16.0701 4.50812 16.3254 4.7631 16.4851 5.07671C16.6668 5.43323 16.6666 5.89993 16.6666 6.83335Z" stroke="#1B2847" stroke-width="1.5" stroke-linecap="round" stroke-linejoin="round"/>
</svg>
