<svg width="18" height="18" viewBox="0 0 18 18" fill="none" xmlns="http://www.w3.org/2000/svg">
<path d="M8.25 2.6C8.25 3.01421 8.58579 3.35 9 3.35C9.41421 3.35 9.75 3.01421 9.75 2.6H8.25ZM9.75 1C9.75 0.585786 9.41421 0.25 9 0.25C8.58579 0.25 8.25 0.585786 8.25 1H9.75ZM9.75 15.4C9.75 14.9858 9.41421 14.65 9 14.65C8.58579 14.65 8.25 14.9858 8.25 15.4H9.75ZM8.25 17C8.25 17.4142 8.58579 17.75 9 17.75C9.41421 17.75 9.75 17.4142 9.75 17H8.25ZM4.00104 5.0617C4.29393 5.35459 4.76881 5.35459 5.0617 5.0617C5.35459 4.76881 5.35459 4.29393 5.0617 4.00104L4.00104 5.0617ZM3.93033 2.86967C3.63744 2.57678 3.16256 2.57678 2.86967 2.86967C2.57678 3.16256 2.57678 3.63744 2.86967 3.93033L3.93033 2.86967ZM14.1128 13.052C13.8199 12.7591 13.345 12.7591 13.0521 13.052C12.7592 13.3449 12.7592 13.8198 13.0521 14.1127L14.1128 13.052ZM14.1835 15.244C14.4764 15.5369 14.9512 15.5369 15.2441 15.244C15.537 14.9511 15.537 14.4763 15.2441 14.1834L14.1835 15.244ZM2.6 9.75C3.01421 9.75 3.35 9.41421 3.35 9C3.35 8.58579 3.01421 8.25 2.6 8.25V9.75ZM1 8.25C0.585786 8.25 0.25 8.58579 0.25 9C0.25 9.41421 0.585786 9.75 1 9.75V8.25ZM15.4 8.25C14.9858 8.25 14.65 8.58579 14.65 9C14.65 9.41421 14.9858 9.75 15.4 9.75V8.25ZM17 9.75C17.4142 9.75 17.75 9.41421 17.75 9C17.75 8.58579 17.4142 8.25 17 8.25V9.75ZM13.0525 4.00104C12.7596 4.29393 12.7596 4.76881 13.0525 5.0617C13.3454 5.35459 13.8202 5.35459 14.1131 5.0617L13.0525 4.00104ZM15.2445 3.93033C15.5374 3.63744 15.5374 3.16256 15.2445 2.86967C14.9516 2.57678 14.4767 2.57678 14.1839 2.86967L15.2445 3.93033ZM5.06209 14.1127C5.35498 13.8198 5.35498 13.3449 5.06209 13.052C4.7692 12.7591 4.29432 12.7591 4.00143 13.052L5.06209 14.1127ZM2.87006 14.1834C2.57717 14.4763 2.57717 14.9511 2.87006 15.244C3.16295 15.5369 3.63783 15.5369 3.93072 15.244L2.87006 14.1834ZM9 12.25C7.20507 12.25 5.75 10.7949 5.75 9H4.25C4.25 11.6234 6.37665 13.75 9 13.75V12.25ZM5.75 9C5.75 7.20507 7.20507 5.75 9 5.75V4.25C6.37665 4.25 4.25 6.37665 4.25 9H5.75ZM9 5.75C10.7949 5.75 12.25 7.20507 12.25 9H13.75C13.75 6.37665 11.6234 4.25 9 4.25V5.75ZM12.25 9C12.25 10.7949 10.7949 12.25 9 12.25V13.75C11.6234 13.75 13.75 11.6234 13.75 9H12.25ZM9.75 2.6V1H8.25V2.6H9.75ZM8.25 15.4V17H9.75V15.4H8.25ZM5.0617 4.00104L3.93033 2.86967L2.86967 3.93033L4.00104 5.0617L5.0617 4.00104ZM13.0521 14.1127L14.1835 15.244L15.2441 14.1834L14.1128 13.052L13.0521 14.1127ZM2.6 8.25H1V9.75H2.6V8.25ZM15.4 9.75H17V8.25H15.4V9.75ZM14.1131 5.0617L15.2445 3.93033L14.1839 2.86967L13.0525 4.00104L14.1131 5.0617ZM4.00143 13.052L2.87006 14.1834L3.93072 15.244L5.06209 14.1127L4.00143 13.052Z" fill="currentColor"/>
</svg>
