<svg xmlns="http://www.w3.org/2000/svg" version="1.1" xmlns:xlink="http://www.w3.org/1999/xlink" xmlns:svgjs="http://svgjs.com/svgjs" width="512" height="512" x="0" y="0" viewBox="0 0 24 24" style="enable-background:new 0 0 512 512" xml:space="preserve" class=""><g><path d="m15.7 11.717a6 6 0 1 0 -7.392 0 10.008 10.008 0 0 0 -6.308 9.283v1a1 1 0 0 0 1 1h18a1 1 0 0 0 1-1v-1a10.008 10.008 0 0 0 -6.3-9.283zm-7.7-4.717a4 4 0 1 1 4 4 4 4 0 0 1 -4-4zm-4 14a8 8 0 0 1 16 0z" fill="currentColor" data-original="currentColor" class=""></path></g></svg>
