<svg width="41" height="24" viewBox="0 0 41 24" fill="none" xmlns="http://www.w3.org/2000/svg">
<path d="M23.2432 18.437L7.37553 12.6599C7.14195 12.582 6.90837 12.7845 6.97066 13.0181L7.93611 16.9733C7.96725 17.0667 8.02954 17.1601 8.12297 17.1913L22.0753 22.2054C22.2466 22.2677 22.4179 22.1743 22.4802 22.003L23.4456 18.8108C23.4923 18.655 23.4145 18.4837 23.2587 18.437H23.2432Z" fill="url(#paint0_linear_184_11618)"/>
<path d="M20.9075 14.9489L4.97758 9.15624C4.744 9.07838 4.51042 9.28082 4.57271 9.51439L5.53816 13.4696C5.5693 13.5631 5.63159 13.6565 5.72502 13.6876L20.7206 19.0755C20.9231 19.1533 21.1255 18.9976 21.1255 18.7796V15.2448C21.1255 15.1202 21.0321 14.9957 20.9231 14.9645L20.9075 14.9489Z" fill="url(#paint1_linear_184_11618)"/>
<path d="M18.6496 11.6322L2.70414 5.82397C2.47056 5.74611 2.23699 5.94854 2.29927 6.18212L3.26472 10.1373C3.29587 10.2308 3.35815 10.3242 3.45158 10.3554L18.4472 15.7432C18.6496 15.821 18.8521 15.6653 18.8521 15.4473V11.9125C18.8521 11.788 18.7586 11.6634 18.6496 11.6322Z" fill="url(#paint2_linear_184_11618)"/>
<path d="M16.3606 8.3466L0.415077 2.53832C0.1815 2.46046 -0.0520767 2.6629 0.0102104 2.89647L0.975661 6.8517C1.0068 6.94514 1.06909 7.03857 1.16252 7.06971L16.1581 12.4575C16.3606 12.5354 16.563 12.3797 16.563 12.1617V8.62689C16.563 8.50231 16.4696 8.37774 16.3606 8.3466Z" fill="url(#paint3_linear_184_11618)"/>
<path d="M18.0112 4.26667C18.0112 4.14209 18.0891 4.01752 18.2137 3.9708L29.1451 0L28.4288 2.95864C28.3976 3.05207 28.3353 3.1455 28.2263 3.17664L18.4161 6.71144C18.2137 6.7893 18.0112 6.63358 18.0112 6.41557V4.26667Z" fill="url(#paint4_linear_184_11618)"/>
<path d="M16.4849 6.46229C16.4849 6.33772 16.5627 6.21314 16.6873 6.16643L27.6187 2.18005L26.9024 5.13869C26.8712 5.23212 26.809 5.32555 26.7 5.3567L16.8897 8.89149C16.6873 8.96935 16.4849 8.81363 16.4849 8.59563V6.44672V6.46229Z" fill="url(#paint5_linear_184_11618)"/>
<path d="M21.935 4.04866L10.7856 0L11.5487 3.11436L21.935 6.85158V4.04866Z" fill="url(#paint6_linear_184_11618)"/>
<path d="M23.4614 6.24434L12.312 2.19568L13.075 5.31003L23.4614 9.04726V6.24434Z" fill="url(#paint7_linear_184_11618)"/>
<path d="M23.8039 8.3466L39.7339 2.53832C39.9674 2.46046 40.201 2.6629 40.1387 2.89647L39.1733 6.8517C39.1421 6.94514 39.0799 7.03857 38.9709 7.06971L23.9908 12.4575C23.7884 12.5354 23.5859 12.3797 23.5859 12.1617V8.62689C23.5859 8.50231 23.6794 8.37774 23.7884 8.33102L23.8039 8.3466Z" fill="url(#paint8_linear_184_11618)"/>
<path d="M21.5149 11.6322L37.4604 5.82397C37.694 5.74611 37.9276 5.94854 37.8653 6.18212L36.8999 10.1373C36.8687 10.2308 36.8064 10.3242 36.6974 10.3554L21.7174 15.7432C21.5149 15.821 21.3125 15.6653 21.3125 15.4473V11.9125C21.3125 11.788 21.4059 11.6634 21.5149 11.6167V11.6322Z" fill="url(#paint9_linear_184_11618)"/>
<path d="M19.2571 14.9489L35.2026 9.14062C35.4362 9.06276 35.6698 9.26519 35.6075 9.49877L34.642 13.454C34.6109 13.5474 34.5486 13.6409 34.4396 13.672L19.4596 19.0598C19.2571 19.1377 19.0547 18.982 19.0547 18.764V15.2292C19.0547 15.1046 19.1481 14.98 19.2571 14.9333V14.9489Z" fill="url(#paint10_linear_184_11618)"/>
<path d="M16.937 18.437L32.8047 12.6599C33.0383 12.582 33.2718 12.7845 33.2095 13.0181L32.2441 16.9733C32.213 17.0667 32.1507 17.1601 32.0417 17.1913L18.0893 22.2054C17.9181 22.2677 17.7468 22.1743 17.6845 22.003L16.719 18.8108C16.6723 18.655 16.7502 18.4837 16.9059 18.437H16.937Z" fill="url(#paint11_linear_184_11618)"/>
<path d="M9.98193 7.71852V17.4696C9.98193 18.0586 10.2956 18.6012 10.8132 18.9113L19.3607 23.7791C19.8782 24.0736 20.5213 24.0736 21.0388 23.7791L29.5863 18.9113C30.1039 18.6167 30.4175 18.0741 30.4175 17.4696V7.71852C30.4175 7.12942 30.1039 6.58684 29.5863 6.27679L21.0388 1.40902C20.5213 1.11447 19.8782 1.11447 19.3607 1.40902L10.8132 6.29229C10.2956 6.58684 9.98193 7.12942 9.98193 7.73402V7.71852Z" fill="url(#paint12_linear_184_11618)"/>
<path d="M12.1206 8.91801V16.27C12.1206 16.8645 12.4353 17.4119 12.9545 17.7248L19.3581 21.4008C19.8773 21.698 20.5223 21.698 21.0415 21.4008L27.4451 17.7248C27.9643 17.4276 28.279 16.8801 28.279 16.27V8.91801C28.279 8.32359 27.9643 7.7761 27.4451 7.46325L21.0415 3.78724C20.5223 3.49003 19.8773 3.49003 19.3581 3.78724L12.9545 7.46325C12.4353 7.76046 12.1206 8.30795 12.1206 8.91801Z" fill="url(#paint13_linear_184_11618)"/>
<path d="M13.0708 9.32848V15.6218C13.0708 16.2152 13.3838 16.7618 13.9003 17.0741L19.3622 20.213C19.8787 20.5097 20.5203 20.5097 21.0368 20.213L26.4987 17.0741C27.0152 16.7774 27.3282 16.2309 27.3282 15.6218V9.32848C27.3282 8.73506 27.0152 8.18849 26.4987 7.87617L21.0368 4.7373C20.5203 4.44059 19.8787 4.44059 19.3622 4.7373L13.9003 7.87617C13.3838 8.17288 13.0708 8.71945 13.0708 9.32848Z" fill="url(#paint14_linear_184_11618)"/>
<g filter="url(#filter0_d_184_11618)">
<path d="M17.3998 15.5473V14.5132L19.816 12.276C20.0215 12.0771 20.1938 11.8982 20.333 11.7391C20.4744 11.58 20.5816 11.4242 20.6545 11.2717C20.7274 11.1171 20.7639 10.9502 20.7639 10.7713C20.7639 10.5724 20.7186 10.4012 20.628 10.2575C20.5374 10.1117 20.4137 10.0001 20.2568 9.92278C20.0999 9.84323 19.922 9.80346 19.7232 9.80346C19.5155 9.80346 19.3343 9.84544 19.1796 9.92941C19.0249 10.0134 18.9056 10.1338 18.8217 10.2907C18.7377 10.4476 18.6957 10.6343 18.6957 10.8508H17.3335C17.3335 10.4067 17.434 10.0211 17.6351 9.69409C17.8362 9.36707 18.1179 9.11407 18.4803 8.93509C18.8426 8.75611 19.2603 8.66663 19.7331 8.66663C20.2192 8.66663 20.6424 8.7528 21.0025 8.92515C21.3649 9.09529 21.6466 9.33171 21.8477 9.63443C22.0488 9.93714 22.1493 10.284 22.1493 10.6751C22.1493 10.9315 22.0985 11.1845 21.9968 11.4341C21.8974 11.6838 21.7195 11.9611 21.4632 12.2661C21.2069 12.5688 20.8456 12.9322 20.3794 13.3565L19.3884 14.3276V14.374H22.2388V15.5473H17.3998Z" fill="white"/>
</g>
<defs>
<filter id="filter0_d_184_11618" x="17.3335" y="7.66663" width="6.90527" height="8.88062" filterUnits="userSpaceOnUse" color-interpolation-filters="sRGB">
<feFlood flood-opacity="0" result="BackgroundImageFix"/>
<feColorMatrix in="SourceAlpha" type="matrix" values="0 0 0 0 0 0 0 0 0 0 0 0 0 0 0 0 0 0 127 0" result="hardAlpha"/>
<feOffset dx="1"/>
<feGaussianBlur stdDeviation="0.5"/>
<feComposite in2="hardAlpha" operator="out"/>
<feColorMatrix type="matrix" values="0 0 0 0 0.658333 0 0 0 0 0.5135 0 0 0 0 0 0 0 0 1 0"/>
<feBlend mode="normal" in2="BackgroundImageFix" result="effect1_dropShadow_184_11618"/>
<feBlend mode="normal" in="SourceGraphic" in2="effect1_dropShadow_184_11618" result="shape"/>
</filter>
<linearGradient id="paint0_linear_184_11618" x1="15.2098" y1="12.8757" x2="15.2098" y2="20.3324" gradientUnits="userSpaceOnUse">
<stop stop-color="#FFDA85"/>
<stop offset="0.432292" stop-color="#FFC700"/>
<stop offset="1" stop-color="#994900"/>
</linearGradient>
<linearGradient id="paint1_linear_184_11618" x1="12.844" y1="9.38117" x2="12.844" y2="17.1294" gradientUnits="userSpaceOnUse">
<stop stop-color="#FFDA85"/>
<stop offset="0.432292" stop-color="#FFC700"/>
<stop offset="1" stop-color="#994900"/>
</linearGradient>
<linearGradient id="paint2_linear_184_11618" x1="10.5706" y1="6.04889" x2="10.5706" y2="13.7971" gradientUnits="userSpaceOnUse">
<stop stop-color="#FFDA85"/>
<stop offset="0.432292" stop-color="#FFC700"/>
<stop offset="1" stop-color="#994900"/>
</linearGradient>
<linearGradient id="paint3_linear_184_11618" x1="8.28151" y1="2.76325" x2="8.28151" y2="10.5115" gradientUnits="userSpaceOnUse">
<stop stop-color="#FFDA85"/>
<stop offset="0.432292" stop-color="#FFC700"/>
<stop offset="1" stop-color="#994900"/>
</linearGradient>
<linearGradient id="paint4_linear_184_11618" x1="23.5781" y1="0" x2="23.5781" y2="6.73178" gradientUnits="userSpaceOnUse">
<stop offset="0.307292" stop-color="#FFE34F"/>
<stop offset="0.604167" stop-color="#AE6300"/>
</linearGradient>
<linearGradient id="paint5_linear_184_11618" x1="22.0518" y1="2.18005" x2="22.0518" y2="8.91183" gradientUnits="userSpaceOnUse">
<stop offset="0.307292" stop-color="#FFE34F"/>
<stop offset="0.604167" stop-color="#AE6300"/>
</linearGradient>
<linearGradient id="paint6_linear_184_11618" x1="16.3603" y1="0" x2="16.3603" y2="6.85158" gradientUnits="userSpaceOnUse">
<stop offset="0.307292" stop-color="#FFE34F"/>
<stop offset="0.604167" stop-color="#AE6300"/>
</linearGradient>
<linearGradient id="paint7_linear_184_11618" x1="17.8867" y1="2.19568" x2="17.8867" y2="9.04726" gradientUnits="userSpaceOnUse">
<stop offset="0.307292" stop-color="#FFE34F"/>
<stop offset="0.604167" stop-color="#AE6300"/>
</linearGradient>
<linearGradient id="paint8_linear_184_11618" x1="31.8674" y1="2.52136" x2="31.8674" y2="10.8483" gradientUnits="userSpaceOnUse">
<stop stop-color="#FFDA85"/>
<stop offset="0.338542" stop-color="#FFC700"/>
<stop offset="1" stop-color="#994900"/>
</linearGradient>
<linearGradient id="paint9_linear_184_11618" x1="29.594" y1="5.80701" x2="29.594" y2="14.134" gradientUnits="userSpaceOnUse">
<stop stop-color="#FFDA85"/>
<stop offset="0.338542" stop-color="#FFC700"/>
<stop offset="1" stop-color="#994900"/>
</linearGradient>
<linearGradient id="paint10_linear_184_11618" x1="27.3362" y1="9.12366" x2="27.3362" y2="17.4506" gradientUnits="userSpaceOnUse">
<stop stop-color="#FFDA85"/>
<stop offset="0.338542" stop-color="#FFC700"/>
<stop offset="1" stop-color="#994900"/>
</linearGradient>
<linearGradient id="paint11_linear_184_11618" x1="24.9627" y1="12.6429" x2="24.9627" y2="20.6565" gradientUnits="userSpaceOnUse">
<stop stop-color="#FFDA85"/>
<stop offset="0.338542" stop-color="#FFC700"/>
<stop offset="1" stop-color="#994900"/>
</linearGradient>
<linearGradient id="paint12_linear_184_11618" x1="20.1997" y1="1.18811" x2="20.1997" y2="24" gradientUnits="userSpaceOnUse">
<stop stop-color="#FFC700"/>
<stop offset="0.463542" stop-color="#FFEF62"/>
<stop offset="1" stop-color="#DDAC00"/>
</linearGradient>
<linearGradient id="paint13_linear_184_11618" x1="20.1998" y1="3.56433" x2="20.1998" y2="21.6237" gradientUnits="userSpaceOnUse">
<stop offset="0.4375" stop-color="#FFF3C8"/>
<stop offset="1" stop-color="#FFF8DE"/>
</linearGradient>
<linearGradient id="paint14_linear_184_11618" x1="20.1995" y1="4.51477" x2="20.1995" y2="20.4355" gradientUnits="userSpaceOnUse">
<stop offset="0.046875" stop-color="#EA9B02"/>
<stop offset="0.541667" stop-color="#FFC200"/>
<stop offset="1" stop-color="#FFE927"/>
</linearGradient>
</defs>
</svg>
