<svg width="15" height="18" viewBox="0 0 15 18" fill="none" xmlns="http://www.w3.org/2000/svg">
<path d="M9.37153 11.8056C8.95731 11.8056 8.62153 12.1413 8.62153 12.5556C8.62153 12.9698 8.95731 13.3056 9.37153 13.3056V11.8056ZM13.816 12.5556H14.566C14.566 12.1413 14.2302 11.8056 13.816 11.8056V12.5556ZM13.066 17C13.066 17.4142 13.4018 17.75 13.816 17.75C14.2302 17.75 14.566 17.4142 14.566 17H13.066ZM5.81597 6.19444C6.23019 6.19444 6.56597 5.85866 6.56597 5.44444C6.56597 5.03023 6.23019 4.69444 5.81597 4.69444V6.19444ZM1.37153 5.44444H0.621528C0.621528 5.85866 0.957314 6.19444 1.37153 6.19444V5.44444ZM2.12153 1C2.12153 0.585786 1.78574 0.25 1.37153 0.25C0.957314 0.25 0.621528 0.585786 0.621528 1H2.12153ZM13.4917 6.6171C13.6469 7.00115 14.084 7.1867 14.4681 7.03153C14.8521 6.87636 15.0377 6.43924 14.8825 6.05519L13.4917 6.6171ZM11.7786 3.25065L11.3373 3.85703L11.7786 3.25065ZM4.2717 2.71255L3.92133 2.04942L4.2717 2.71255ZM0.799711 5.04573C0.591353 5.40372 0.712657 5.86284 1.07065 6.0712C1.42865 6.27956 1.88776 6.15825 2.09612 5.80026L0.799711 5.04573ZM1.69539 11.3829C1.54022 10.9988 1.1031 10.8133 0.719045 10.9685C0.334993 11.1236 0.149445 11.5607 0.304612 11.9448L1.69539 11.3829ZM14.3871 12.9543C14.5954 12.5963 14.4741 12.1372 14.1161 11.9288C13.7581 11.7205 13.299 11.8418 13.0907 12.1998L14.3871 12.9543ZM9.37153 13.3056H13.816V11.8056H9.37153V13.3056ZM13.066 12.5556V17H14.566V12.5556H13.066ZM5.81597 4.69444H1.37153V6.19444H5.81597V4.69444ZM2.12153 5.44444V1H0.621528V5.44444H2.12153ZM14.8825 6.05519C14.3316 4.69154 13.4091 3.50979 12.22 2.64427L11.3373 3.85703C12.2995 4.5574 13.0459 5.51365 13.4917 6.6171L14.8825 6.05519ZM12.22 2.64427C11.0309 1.77876 9.62305 1.26419 8.15605 1.15904L8.04881 2.6552C9.23585 2.74029 10.3751 3.15665 11.3373 3.85703L12.22 2.64427ZM8.15605 1.15904C6.68911 1.05389 5.22176 1.36233 3.92133 2.04942L4.62207 3.37568C5.6743 2.81972 6.86171 2.57011 8.04881 2.6552L8.15605 1.15904ZM3.92133 2.04942C2.6209 2.73651 1.5395 3.77464 0.799711 5.04573L2.09612 5.80026C2.69479 4.77164 3.56985 3.93162 4.62207 3.37568L3.92133 2.04942ZM0.304612 11.9448C0.855563 13.3085 1.77801 14.4902 2.96711 15.3557L3.84985 14.143C2.88764 13.4426 2.14121 12.4863 1.69539 11.3829L0.304612 11.9448ZM2.96711 15.3557C4.15625 16.2213 5.5647 16.7358 7.03163 16.841L7.13888 15.3448C5.95177 15.2597 4.81202 14.8433 3.84985 14.143L2.96711 15.3557ZM7.03163 16.841C8.49863 16.9461 9.9655 16.6376 11.2659 15.9506L10.5651 14.6243C9.51286 15.1803 8.32592 15.4299 7.13888 15.3448L7.03163 16.841ZM11.2659 15.9506C12.5664 15.2634 13.6473 14.2253 14.3871 12.9543L13.0907 12.1998C12.4919 13.2285 11.6173 14.0684 10.5651 14.6243L11.2659 15.9506Z" fill="currentColor"/>
</svg>
