<svg width="20" height="20" viewBox="0 0 20 20" fill="none" xmlns="http://www.w3.org/2000/svg">
<g clip-path="url(#clip0_1_2)">
<path d="M0.183511 12.9417L1.85351 14.6114C1.97072 14.7286 2.12966 14.7944 2.29539 14.7944C2.46111 14.7944 2.62006 14.7286 2.73726 14.6114C2.91093 14.4368 3.11752 14.2983 3.34507 14.2041C3.57261 14.1098 3.8166 14.0617 4.06289 14.0624C5.09695 14.0624 5.93789 14.9033 5.93789 15.9374C5.93849 16.1837 5.89025 16.4277 5.79595 16.6553C5.70165 16.8829 5.56317 17.0896 5.38851 17.2633C5.27134 17.3805 5.20552 17.5395 5.20552 17.7052C5.20552 17.8709 5.27134 18.0298 5.38851 18.1471L7.05851 19.8167C7.1807 19.9389 7.34039 19.9999 7.50039 19.9999C7.66039 19.9999 7.82039 19.9389 7.94226 19.8167L19.8173 7.94174C19.8754 7.88379 19.9216 7.81493 19.9531 7.7391C19.9846 7.66327 20.0008 7.58197 20.0008 7.49987C20.0008 7.41776 19.9846 7.33646 19.9531 7.26063C19.9216 7.18481 19.8754 7.11594 19.8173 7.05799L18.1473 5.3883C18.0301 5.27113 17.8711 5.20531 17.7054 5.20531C17.5397 5.20531 17.3807 5.27113 17.2635 5.3883C17.0898 5.56294 16.8832 5.70139 16.6557 5.79564C16.4282 5.88988 16.1842 5.93806 15.9379 5.93737C14.9038 5.93737 14.0629 5.09643 14.0629 4.06237C14.0629 3.56143 14.2582 3.0908 14.6123 2.73643C14.7294 2.61922 14.7953 2.46028 14.7953 2.29455C14.7953 2.12883 14.7294 1.96988 14.6123 1.85268L12.9423 0.182992C12.8251 0.0658221 12.6661 0 12.5004 0C12.3347 0 12.1757 0.0658221 12.0585 0.182992L0.183511 12.058C0.125345 12.1159 0.0791929 12.1848 0.0477017 12.2606C0.0162105 12.3365 0 12.4178 0 12.4999C0 12.582 0.0162105 12.6633 0.0477017 12.7391C0.0791929 12.8149 0.125345 12.8838 0.183511 12.9417ZM8.12539 5.88362L8.62101 6.37924C8.74289 6.50143 8.90289 6.56237 9.06289 6.56237C9.22289 6.56237 9.38289 6.50143 9.50476 6.37924C9.62193 6.26204 9.68775 6.10309 9.68775 5.93737C9.68775 5.77164 9.62193 5.6127 9.50476 5.49549L9.00914 4.99987L12.5004 1.50862L13.3304 2.3383C12.9914 2.84928 12.8113 3.44918 12.8129 4.06237C12.8129 5.78549 14.2148 7.18737 15.9379 7.18737C16.5509 7.18907 17.1508 7.0091 17.6616 6.67018L18.4913 7.49987L15.0004 10.9911L14.5048 10.4955C14.4471 10.4358 14.3781 10.3882 14.3019 10.3554C14.2256 10.3227 14.1436 10.3054 14.0606 10.3047C13.9776 10.304 13.8954 10.3198 13.8185 10.3512C13.7417 10.3827 13.6719 10.4291 13.6133 10.4877C13.5546 10.5464 13.5082 10.6162 13.4767 10.693C13.4453 10.7698 13.4295 10.8521 13.4302 10.9351C13.431 11.0181 13.4482 11.1001 13.4809 11.1764C13.5137 11.2526 13.5613 11.3216 13.621 11.3792L14.1166 11.8749L7.50039 18.4911L6.67039 17.6614C7.00935 17.1505 7.18942 16.5505 7.18789 15.9374C7.18789 14.2142 5.78601 12.8124 4.06289 12.8124C3.44982 12.8107 2.85 12.9906 2.33914 13.3296L1.50945 12.4999L8.12539 5.88362Z" fill="white"/>
</g>
<defs>
<clipPath id="clip0_1_2">
<rect width="20.0008" height="19.9999" fill="white"/>
</clipPath>
</defs>
</svg>
