<svg width="90" height="90" viewBox="0 0 90 90" fill="none" xmlns="http://www.w3.org/2000/svg">
<circle cx="45" cy="45" r="45" fill="#027BEA"/>
<path d="M64.5255 46.9287C64.5255 57.7123 55.7836 66.4542 45 66.4542C34.2164 66.4542 25.4746 57.7123 25.4746 46.9287C25.4746 36.1452 34.2164 27.4033 45 27.4033C55.7836 27.4033 64.5255 36.1452 64.5255 46.9287Z" fill="url(#paint0_linear_186_13479)"/>
<path fill-rule="evenodd" clip-rule="evenodd" d="M45.0001 28.4492C34.7942 28.4492 26.5207 36.7227 26.5207 46.9286C26.5207 57.1345 34.7942 65.408 45.0001 65.408C55.206 65.408 63.4796 57.1345 63.4796 46.9286C63.4796 36.7227 55.206 28.4492 45.0001 28.4492ZM24.4287 46.9286C24.4287 35.5673 33.6389 26.3572 45.0001 26.3572C56.3614 26.3572 65.5716 35.5673 65.5716 46.9286C65.5716 58.2899 56.3614 67.5 45.0001 67.5C33.6389 67.5 24.4287 58.2899 24.4287 46.9286Z" fill="url(#paint1_linear_186_13479)"/>
<path fill-rule="evenodd" clip-rule="evenodd" d="M41.5583 33.4421C40.464 36.8465 39.7702 41.6148 39.7702 46.9286C39.7702 52.2424 40.464 57.0107 41.5583 60.4151C42.1073 62.1232 42.7388 63.4296 43.3902 64.2867C44.054 65.1603 44.6083 65.408 45.0003 65.408C45.3923 65.408 45.9465 65.1603 46.6104 64.2867C47.2618 63.4296 47.8932 62.1232 48.4423 60.4151C49.5365 57.0107 50.2303 52.2424 50.2303 46.9286C50.2303 41.6148 49.5365 36.8465 48.4423 33.4421C47.8932 31.734 47.2618 30.4277 46.6104 29.5705C45.9465 28.6969 45.3923 28.4492 45.0003 28.4492C44.6083 28.4492 44.054 28.6969 43.3902 29.5705C42.7388 30.4277 42.1073 31.734 41.5583 33.4421ZM41.7245 28.3047C42.5624 27.2022 43.6592 26.3572 45.0003 26.3572C46.3413 26.3572 47.4381 27.2022 48.276 28.3047C49.1263 29.4236 49.8472 30.9766 50.4339 32.802C51.6111 36.4644 52.3223 41.4588 52.3223 46.9286C52.3223 52.3984 51.6111 57.3928 50.4339 61.0553C49.8472 62.8806 49.1263 64.4336 48.276 65.5525C47.4381 66.655 46.3413 67.5 45.0003 67.5C43.6592 67.5 42.5624 66.655 41.7245 65.5525C40.8742 64.4336 40.1533 62.8806 39.5666 61.0553C38.3894 57.3928 37.6782 52.3984 37.6782 46.9286C37.6782 41.4588 38.3894 36.4644 39.5666 32.802C40.1533 30.9766 40.8742 29.4236 41.7245 28.3047Z" fill="url(#paint2_linear_186_13479)"/>
<path fill-rule="evenodd" clip-rule="evenodd" d="M27.642 45.3184C26.7684 45.9822 26.5207 46.5365 26.5207 46.9285C26.5207 47.3205 26.7684 47.8747 27.642 48.5386C28.4992 49.19 29.8056 49.8214 31.5137 50.3705C34.918 51.4647 39.6864 52.1585 45.0001 52.1585C50.3139 52.1585 55.0823 51.4647 58.4866 50.3705C60.1947 49.8214 61.5011 49.19 62.3583 48.5386C63.2318 47.8747 63.4796 47.3205 63.4796 46.9285C63.4796 46.5365 63.2318 45.9823 62.3583 45.3184C61.5011 44.667 60.1947 44.0355 58.4866 43.4865C55.0823 42.3922 50.3139 41.6985 45.0001 41.6985C39.6864 41.6985 34.918 42.3922 31.5137 43.4865C29.8056 44.0355 28.4992 44.667 27.642 45.3184ZM30.8735 41.4948C34.5359 40.3176 39.5303 39.6064 45.0001 39.6064C50.47 39.6064 55.4643 40.3176 59.1268 41.4948C60.9521 42.0815 62.5051 42.8025 63.624 43.6528C64.7265 44.4906 65.5716 45.5874 65.5716 46.9285C65.5716 48.2696 64.7265 49.3664 63.624 50.2042C62.5051 51.0545 60.9521 51.7754 59.1268 52.3621C55.4643 53.5393 50.47 54.2505 45.0001 54.2505C39.5303 54.2505 34.5359 53.5393 30.8735 52.3621C29.0482 51.7754 27.4951 51.0545 26.3762 50.2042C25.2737 49.3664 24.4287 48.2696 24.4287 46.9285C24.4287 45.5874 25.2737 44.4906 26.3762 43.6528C27.4951 42.8024 29.0482 42.0815 30.8735 41.4948Z" fill="url(#paint3_linear_186_13479)"/>
<circle cx="51.4286" cy="40.4999" r="3.21429" fill="url(#paint4_linear_186_13479)"/>
<circle cx="39.2143" cy="52.0715" r="3.21429" fill="url(#paint5_linear_186_13479)"/>
<path d="M59.6169 17.62C58.0293 17.5027 56.7937 16.2592 56.6685 14.6716L56.5278 12.8572H56.3323L56.1915 14.6716C56.0742 16.2592 54.8307 17.4948 53.2431 17.62L51.4287 17.7607V17.9563L53.2431 18.097C54.8307 18.2143 56.0663 19.4578 56.1915 21.0454L56.3323 22.8598H56.5278L56.6685 21.0454C56.7858 19.4578 58.0293 18.2222 59.6169 18.097L61.4313 17.9563V17.7607L59.6169 17.62Z" fill="white"/>
<path d="M25.7799 25.3684C24.771 25.2902 23.9811 24.5003 23.9029 23.4914L23.8169 22.334H23.6917L23.6057 23.4914C23.5275 24.5003 22.7376 25.2902 21.7287 25.3684L20.5713 25.4544V25.5796L21.7287 25.6656C22.7376 25.7438 23.5275 26.5337 23.6057 27.5426L23.6917 28.7H23.8169L23.9029 27.5426C23.9811 26.5337 24.771 25.7438 25.7799 25.6656L26.9373 25.5796V25.4544L25.7799 25.3684Z" fill="white"/>
<path d="M50.7717 34.3403C50.4745 34.3168 50.2399 34.0822 50.2164 33.785L50.1929 33.4331H50.1303L50.1069 33.785C50.0835 34.0822 49.8488 34.3168 49.5516 34.3403L49.1997 34.3638V34.4263L49.5516 34.4498C49.8488 34.4733 50.0835 34.7079 50.1069 35.0051L50.1303 35.357H50.1929L50.2164 35.0051C50.2399 34.7079 50.4745 34.4733 50.7717 34.4498L51.1236 34.4263V34.3638L50.7717 34.3403Z" fill="white"/>
<path d="M32.9157 18.5356C32.6185 18.5122 32.3839 18.2775 32.3605 17.9803L32.337 17.6284H32.2745L32.251 17.9803C32.2275 18.2775 31.9928 18.5122 31.6956 18.5356L31.3438 18.5591V18.6216L31.6956 18.6451C31.9928 18.6686 32.2275 18.9032 32.251 19.2004L32.2745 19.5523H32.337L32.3605 19.2004C32.3839 18.9032 32.6185 18.6686 32.9157 18.6451L33.2676 18.6216V18.5591L32.9157 18.5356Z" fill="white"/>
<defs>
<linearGradient id="paint0_linear_186_13479" x1="45" y1="27.4033" x2="45" y2="66.4542" gradientUnits="userSpaceOnUse">
<stop stop-color="#2ACCFF"/>
<stop offset="1" stop-color="#3322FF"/>
</linearGradient>
<linearGradient id="paint1_linear_186_13479" x1="45.0001" y1="26.3572" x2="45.0001" y2="67.5" gradientUnits="userSpaceOnUse">
<stop stop-color="white"/>
<stop offset="1" stop-color="#799FFF"/>
</linearGradient>
<linearGradient id="paint2_linear_186_13479" x1="45.0003" y1="26.3572" x2="45.0003" y2="67.5" gradientUnits="userSpaceOnUse">
<stop stop-color="white"/>
<stop offset="1" stop-color="#799FFF"/>
</linearGradient>
<linearGradient id="paint3_linear_186_13479" x1="45.0001" y1="39.6064" x2="45.0001" y2="54.2505" gradientUnits="userSpaceOnUse">
<stop stop-color="white"/>
<stop offset="1" stop-color="#799FFF"/>
</linearGradient>
<linearGradient id="paint4_linear_186_13479" x1="51.4286" y1="37.2856" x2="51.4286" y2="43.7142" gradientUnits="userSpaceOnUse">
<stop stop-color="#F3F6FF"/>
<stop offset="1" stop-color="#85A7FF"/>
</linearGradient>
<linearGradient id="paint5_linear_186_13479" x1="39.2143" y1="48.8572" x2="39.2143" y2="55.2857" gradientUnits="userSpaceOnUse">
<stop stop-color="#F3F6FF"/>
<stop offset="1" stop-color="#85A7FF"/>
</linearGradient>
</defs>
</svg>
