<svg width="90" height="90" viewBox="0 0 90 90" fill="none" xmlns="http://www.w3.org/2000/svg">
<circle cx="45" cy="45" r="45" fill="#02D4EA"/>
<g clip-path="url(#clip0_186_13483)">
<path opacity="0.2" d="M49.1758 68.8278L23.7971 54.178C22.796 53.5993 22.9208 52.5893 24.0785 51.9221L38.4818 43.6088C39.6395 42.9416 41.3897 42.8689 42.3907 43.4477L67.7695 58.0975C68.7705 58.6762 68.6457 59.6861 67.488 60.3534L53.0848 68.6667C51.927 69.3339 50.1769 69.4065 49.1758 68.8278Z" fill="#92B4D1"/>
<path d="M49.1758 67.8542L23.7971 53.2044C23.3499 52.9457 23.1274 52.603 23.1206 52.2422C23.1206 52.2308 23.1206 50.9962 23.1206 50.9848C23.1297 50.5468 23.452 51.3071 24.0786 50.9462L38.4818 42.633C39.6395 41.9657 41.3897 41.8931 42.3907 42.4718L67.7695 57.1216C68.1032 57.3145 68.3461 56.4952 68.4323 56.7562C68.4618 56.8425 68.4437 57.9931 68.4437 58.0839C68.4528 58.5333 68.1281 59.0099 67.4857 59.3798L53.0825 67.6931C51.9248 68.3603 50.1746 68.433 49.1735 67.8542H49.1758Z" fill="#2672AB"/>
<path d="M49.1758 66.6217L23.7971 51.9719C22.796 51.3932 22.9208 50.3833 24.0785 49.716L38.4818 41.4027C39.6395 40.7355 41.3897 40.6629 42.3907 41.2416L67.7695 55.8914C68.7705 56.4701 68.6457 57.4801 67.488 58.1473L53.0848 66.4606C51.927 67.1278 50.1769 67.2005 49.1758 66.6217Z" fill="#D1EBFF"/>
<path opacity="0.5" d="M49.1758 67.8543C50.1769 68.433 51.9293 68.3604 53.0847 67.6931V66.4585C51.927 67.1257 50.1769 67.1984 49.1758 66.6196V67.8543Z" fill="#3F92D1"/>
<path d="M49.1758 66.6219L23.7971 51.9721C23.3136 51.6929 23.0934 51.3116 23.1251 50.9167C23.1229 50.9349 23.1206 50.9576 23.1206 50.9848C23.1206 50.9962 23.1206 52.2308 23.1206 52.2422C23.1274 52.603 23.3499 52.9457 23.7971 53.2044L49.1758 67.8542V66.6196V66.6219Z" fill="#3F92D1"/>
<path d="M67.49 57.9363L53.0868 66.2496C51.9291 66.9168 50.1789 66.9895 49.1778 66.4107L23.7968 51.7609C23.3814 51.5204 23.1612 51.2072 23.1272 50.8735C23.075 51.2821 23.2929 51.6815 23.7968 51.972L49.1756 66.6218C50.1789 67.2005 51.9291 67.1279 53.0845 66.4607L67.4878 58.1474C68.1642 57.757 68.4866 57.2486 68.4366 56.7788C68.3844 57.1874 68.0644 57.605 67.4878 57.9386L67.49 57.9363Z" fill="white"/>
<path opacity="0.3" d="M43.3983 61.5041L34.3659 56.291C34.1843 56.1866 34.207 56.005 34.4158 55.8847L37.8072 53.9284C38.0161 53.8081 38.3316 53.7945 38.5132 53.8989L47.5456 59.112C47.7272 59.2164 47.7045 59.398 47.4956 59.5182L44.1042 61.4746C43.8954 61.5949 43.5799 61.6085 43.3983 61.5041Z" fill="white"/>
<path d="M34.4161 56.0957L37.8075 54.1394C38.0163 54.0191 38.3319 54.0055 38.5135 54.1099L47.5458 59.323C47.5822 59.3434 47.6094 59.3706 47.6298 59.3956C47.6979 59.2935 47.673 59.1823 47.5458 59.1074L38.5135 53.8943C38.3319 53.7899 38.0163 53.8035 37.8075 53.9238L34.4161 55.8801C34.2504 55.9754 34.2027 56.1093 34.2822 56.2137C34.3117 56.1706 34.3548 56.1297 34.4161 56.0934V56.0957Z" fill="#A8CFF0"/>
<path d="M40.7378 43.1208L42.295 44.0196C42.4925 44.1331 42.8125 44.1353 43.01 44.0196C43.2075 43.9061 43.2053 43.7223 43.01 43.6065L41.4528 42.7078C41.2553 42.5943 40.9352 42.592 40.7378 42.7078C40.5403 42.8213 40.5425 43.0051 40.7378 43.1208ZM43.4028 44.6596L44.1405 45.0863C44.338 45.1997 44.6581 45.202 44.8556 45.0863C45.0531 44.9728 45.0508 44.7889 44.8556 44.6732L44.1178 44.2465C43.9203 44.1331 43.6002 44.1308 43.4028 44.2465C43.2053 44.36 43.2075 44.5438 43.4028 44.6596ZM45.2483 45.724L45.986 46.1507C46.1835 46.2641 46.5036 46.2664 46.7011 46.1507C46.8986 46.0372 46.8963 45.8534 46.7011 45.7376L45.9633 45.3109C45.7658 45.1975 45.4458 45.1952 45.2483 45.3109C45.0508 45.4244 45.0531 45.6082 45.2483 45.724ZM47.0938 46.7884L47.8315 47.2151C48.029 47.3285 48.3491 47.3308 48.5466 47.2151C48.7441 47.1016 48.7418 46.9178 48.5466 46.802L47.8088 46.3753C47.6114 46.2619 47.2913 46.2596 47.0938 46.3753C46.8963 46.4888 46.8986 46.6727 47.0938 46.7884ZM48.9393 47.8528L49.6771 48.2795C49.8746 48.393 50.1946 48.3952 50.3921 48.2795C50.5896 48.166 50.5873 47.9822 50.3921 47.8664L49.6544 47.4398C49.4569 47.3263 49.1368 47.324 48.9393 47.4398C48.7418 47.5555 48.7441 47.7371 48.9393 47.8528ZM50.7848 48.9172L51.5226 49.3439C51.7201 49.4574 52.0402 49.4596 52.2376 49.3439C52.4351 49.2304 52.4329 49.0466 52.2376 48.9308L51.4999 48.5042C51.3024 48.3907 50.9823 48.3884 50.7848 48.5042C50.5873 48.6199 50.5896 48.8015 50.7848 48.9172ZM52.6304 49.9816L53.3681 50.4083C53.5656 50.5218 53.8857 50.524 54.0832 50.4083C54.2807 50.2948 54.2784 50.111 54.0832 49.9952L53.3454 49.5686C53.1479 49.4551 52.8278 49.4528 52.6304 49.5686C52.4329 49.682 52.4351 49.8659 52.6304 49.9816ZM54.4759 51.046L55.2136 51.4727C55.4111 51.5862 55.7312 51.5885 55.9287 51.4727C56.1262 51.3592 56.1239 51.1754 55.9287 51.0597L55.1909 50.633C54.9934 50.5195 54.6734 50.5172 54.4759 50.633C54.2784 50.7465 54.2807 50.9303 54.4759 51.046ZM56.3214 52.1104L57.0591 52.5371C57.2566 52.6506 57.5767 52.6529 57.7742 52.5371C57.9717 52.4236 57.9694 52.2398 57.7742 52.1241L57.0364 51.6974C56.839 51.5839 56.5189 51.5816 56.3214 51.6974C56.1239 51.8109 56.1262 51.9947 56.3214 52.1104ZM58.1669 53.1749L58.9047 53.6015C59.1022 53.715 59.4222 53.7173 59.6197 53.6015C59.8172 53.488 59.8149 53.3042 59.6197 53.1885L58.882 52.7618C58.6845 52.6483 58.3644 52.6461 58.1669 52.7618C57.9694 52.8753 57.9717 53.0591 58.1669 53.1749ZM60.0124 54.2393L60.7502 54.6659C60.9477 54.7794 61.2678 54.7817 61.4652 54.6659C61.6627 54.5525 61.6605 54.3686 61.4652 54.2529L60.7275 53.8262C60.53 53.7127 60.2099 53.7105 60.0124 53.8262C59.8149 53.9397 59.8172 54.1235 60.0124 54.2393ZM61.858 55.3037L62.5957 55.7303C62.7932 55.8438 63.1133 55.8461 63.3108 55.7303C63.5083 55.6169 63.506 55.433 63.3108 55.3173L62.573 54.8906C62.3755 54.7771 62.0554 54.7749 61.858 54.8906C61.6605 55.0041 61.6627 55.1879 61.858 55.3037ZM63.7421 56.3908L64.4798 56.8174C64.6773 56.9309 64.9974 56.9332 65.1949 56.8174C65.3924 56.704 65.3901 56.5201 65.1949 56.4044L64.4571 55.9777C64.2596 55.8642 63.9396 55.862 63.7421 55.9777C63.5446 56.0912 63.5468 56.275 63.7421 56.3908ZM39.0738 44.124L39.7117 44.4916C39.9364 44.621 40.3019 44.6233 40.5244 44.4916L41.1577 44.1262C41.3824 43.9969 41.3802 43.7858 41.1554 43.6564L40.5176 43.2888C40.2928 43.1594 39.9274 43.1572 39.7049 43.2888L39.0716 43.6542C38.8468 43.7835 38.8491 43.9946 39.0738 44.124ZM42.3722 45.5583L43.0055 45.1929C43.2302 45.0636 43.228 44.8525 43.0032 44.7231L42.3654 44.3555C42.1406 44.2261 41.7752 44.2238 41.5527 44.3555L40.9194 44.7209C40.6946 44.8502 40.6969 45.0613 40.9216 45.1907L41.5595 45.5583C41.7842 45.6877 42.1497 45.6899 42.3722 45.5583ZM42.7671 46.2528L43.405 46.6205C43.6298 46.7498 43.9952 46.7521 44.2177 46.6205L44.851 46.2551C45.0758 46.1257 45.0735 45.9146 44.8488 45.7853L44.2109 45.4176C43.9861 45.2882 43.6207 45.286 43.3982 45.4176L42.7649 45.783C42.5401 45.9124 42.5424 46.1234 42.7671 46.2528ZM44.6127 47.3172L45.2505 47.6849C45.4753 47.8142 45.8407 47.8165 46.0632 47.6849L46.6965 47.3195C46.9213 47.1901 46.919 46.979 46.6943 46.8497L46.0564 46.482C45.8317 46.3527 45.4662 46.3504 45.2437 46.482L44.6104 46.8474C44.3857 46.9768 44.3879 47.1878 44.6127 47.3172ZM48.5421 47.9164L47.9042 47.5487C47.6795 47.4193 47.314 47.4171 47.0915 47.5487L46.4582 47.9141C46.2335 48.0434 46.2357 48.2545 46.4605 48.3839L47.0983 48.7515C47.3231 48.8809 47.6885 48.8832 47.911 48.7515L48.5443 48.3861C48.7691 48.2568 48.7668 48.0457 48.5421 47.9164ZM50.3876 48.9808L49.7497 48.6131C49.525 48.4837 49.1595 48.4815 48.937 48.6131L48.3037 48.9785C48.079 49.1079 48.0812 49.3189 48.306 49.4483L48.9439 49.816C49.1686 49.9453 49.5341 49.9476 49.7565 49.816L50.3899 49.4506C50.6146 49.3212 50.6123 49.1101 50.3876 48.9808ZM52.2331 50.0452L51.5952 49.6775C51.3705 49.5481 51.005 49.5459 50.7826 49.6775L50.1492 50.0429C49.9245 50.1723 49.9268 50.3833 50.1515 50.5127L50.7894 50.8804C51.0141 51.0097 51.3796 51.012 51.602 50.8804L52.2354 50.515C52.4601 50.3856 52.4578 50.1745 52.2331 50.0452ZM54.0786 51.1096L53.4407 50.7419C53.216 50.6126 52.8505 50.6103 52.6281 50.7419L51.9947 51.1073C51.77 51.2367 51.7723 51.4477 51.997 51.5771L52.6349 51.9448C52.8596 52.0741 53.2251 52.0764 53.4476 51.9448L54.0809 51.5794C54.3056 51.45 54.3034 51.2389 54.0786 51.1096ZM55.9241 52.174L55.2863 51.8063C55.0615 51.677 54.6961 51.6747 54.4736 51.8063L53.8403 52.1717C53.6155 52.3011 53.6178 52.5121 53.8425 52.6415L54.4804 53.0092C54.7051 53.1385 55.0706 53.1408 55.2931 53.0092L55.9264 52.6438C56.1511 52.5144 56.1489 52.3034 55.9241 52.174ZM57.7697 53.2384L57.1318 52.8707C56.9071 52.7414 56.5416 52.7391 56.3191 52.8707L55.6858 53.2361C55.4611 53.3655 55.4633 53.5766 55.6881 53.7059L56.3259 54.0736C56.5507 54.2029 56.9161 54.2052 57.1386 54.0736L57.7719 53.7082C57.9967 53.5788 57.9944 53.3678 57.7697 53.2384ZM57.5313 54.7703L58.1692 55.138C58.3939 55.2674 58.7594 55.2696 58.9818 55.138L59.6152 54.7726C59.8399 54.6432 59.8376 54.4322 59.6129 54.3028L58.975 53.9351C58.7503 53.8058 58.3848 53.8035 58.1624 53.9351L57.529 54.3005C57.3043 54.4299 57.3066 54.641 57.5313 54.7703ZM61.4607 55.3695L60.8228 55.0018C60.5981 54.8725 60.2326 54.8702 60.0102 55.0018L59.3768 55.3672C59.1521 55.4966 59.1544 55.7076 59.3791 55.837L60.017 56.2047C60.2417 56.334 60.6072 56.3363 60.8296 56.2047L61.463 55.8393C61.6877 55.7099 61.6854 55.4988 61.4607 55.3695ZM64.1643 56.9309L62.7069 56.0889C62.4822 55.9596 62.1167 55.9573 61.8943 56.0889L61.2609 56.4543C61.0362 56.5837 61.0385 56.7947 61.2632 56.9241L62.7206 57.7661C62.9453 57.8955 63.3108 57.8977 63.5332 57.7661L64.1666 57.4007C64.3913 57.2714 64.389 57.0603 64.1643 56.9309ZM37.3622 45.1021L38.8196 45.9441C39.0443 46.0735 39.4098 46.0758 39.6323 45.9441L40.2656 45.5787C40.4903 45.4494 40.4881 45.2383 40.2633 45.1089L38.806 44.267C38.5812 44.1376 38.2158 44.1353 37.9933 44.267L37.36 44.6323C37.1352 44.7617 37.1375 44.9728 37.3622 45.1021ZM40.0272 46.6409L40.6651 47.0085C40.8898 47.1379 41.2553 47.1402 41.4778 47.0085L42.1111 46.6431C42.3358 46.5138 42.3336 46.3027 42.1088 46.1734L41.471 45.8057C41.2462 45.6763 40.8808 45.6741 40.6583 45.8057L40.025 46.1711C39.8002 46.3005 39.8025 46.5115 40.0272 46.6409ZM42.5106 48.0752C42.7354 48.2046 43.1008 48.2069 43.3233 48.0752L43.9566 47.7098C44.1814 47.5805 44.1791 47.3694 43.9544 47.24L43.3165 46.8724C43.0918 46.743 42.7263 46.7407 42.5038 46.8724L41.8705 47.2378C41.6458 47.3671 41.648 47.5782 41.8728 47.7076L42.5106 48.0752ZM44.3562 49.1396C44.5809 49.269 44.9464 49.2713 45.1688 49.1396L45.8022 48.7742C46.0269 48.6449 46.0246 48.4338 45.7999 48.3044L45.162 47.9368C44.9373 47.8074 44.5718 47.8051 44.3493 47.9368L43.716 48.3022C43.4913 48.4315 43.4936 48.6426 43.7183 48.772L44.3562 49.1396ZM46.1949 49.0012L45.5615 49.3666C45.3368 49.4959 45.3391 49.707 45.5638 49.8364L46.2017 50.204C46.4264 50.3334 46.7919 50.3357 47.0143 50.204L47.6477 49.8386C47.8724 49.7093 47.8701 49.4982 47.6454 49.3689L47.0075 49.0012C46.7828 48.8718 46.4173 48.8696 46.1949 49.0012ZM48.079 50.0452L47.3662 50.456C47.1642 50.5717 47.1642 50.7623 47.3685 50.8804L48.0858 51.2934C48.2901 51.4114 48.6192 51.4114 48.8213 51.2934L49.5341 50.8826C49.7361 50.7669 49.7361 50.5762 49.5318 50.4582L48.8145 50.0452C48.6102 49.9272 48.281 49.9272 48.079 50.0452ZM49.9245 51.1096L49.2117 51.5204C49.0097 51.6361 49.0097 51.8268 49.214 51.9448L49.9313 52.3578C50.1356 52.4758 50.4648 52.4758 50.6668 52.3578L51.3796 51.947C51.5816 51.8313 51.5816 51.6406 51.3773 51.5226L50.66 51.1096C50.4557 50.9916 50.1265 50.9916 49.9245 51.1096ZM51.77 52.174L51.0572 52.5848C50.8552 52.7005 50.8552 52.8912 51.0595 53.0092L51.7768 53.4222C51.9811 53.5402 52.3103 53.5402 52.5123 53.4222L53.2251 53.0114C53.4271 52.8957 53.4271 52.7051 53.2228 52.587L52.5055 52.174C52.3012 52.056 51.972 52.056 51.77 52.174ZM53.6155 53.2384L52.9028 53.6492C52.7007 53.7649 52.7007 53.9556 52.905 54.0736L53.6223 54.4866C53.8266 54.6047 54.1558 54.6047 54.3578 54.4866L55.0706 54.0759C55.2726 53.9601 55.2726 53.7695 55.0683 53.6515L54.351 53.2384C54.1467 53.1204 53.8176 53.1204 53.6155 53.2384ZM55.4611 54.3028L54.7483 54.7136C54.5462 54.8293 54.5462 55.02 54.7505 55.138L55.4679 55.551C55.6722 55.6691 56.0013 55.6691 56.2034 55.551L56.9161 55.1403C57.1182 55.0245 57.1182 54.8339 56.9139 54.7159L56.1965 54.3028C55.9922 54.1848 55.6631 54.1848 55.4611 54.3028ZM58.0489 56.62L58.7617 56.2092C58.9637 56.0935 58.9637 55.9028 58.7594 55.7848L58.0421 55.3718C57.8378 55.2537 57.5086 55.2537 57.3066 55.3718L56.5938 55.7825C56.3918 55.8983 56.3918 56.0889 56.5961 56.2069L57.3134 56.62C57.5177 56.738 57.8468 56.738 58.0489 56.62ZM59.8944 57.6844L60.6072 57.2736C60.8092 57.1579 60.8092 56.9672 60.6049 56.8492L59.8876 56.4362C59.6833 56.3181 59.3541 56.3181 59.1521 56.4362L58.4393 56.8469C58.2373 56.9627 58.2373 57.1533 58.4416 57.2713L59.1589 57.6844C59.3632 57.8024 59.6924 57.8024 59.8944 57.6844ZM62.489 57.9363L61.7717 57.5233C61.5674 57.4053 61.2382 57.4053 61.0362 57.5233L60.3234 57.9341C60.1214 58.0498 60.1214 58.2404 60.3257 58.3585L61.043 58.7715C61.2473 58.8895 61.5765 58.8895 61.7785 58.7715L62.4913 58.3607C62.6933 58.245 62.6933 58.0543 62.489 57.9363ZM35.6075 46.0622L37.9229 47.3989C38.1272 47.5169 38.4564 47.5169 38.6584 47.3989L39.3712 46.9881C39.5732 46.8724 39.5732 46.6817 39.3689 46.5637L37.0535 45.227C36.8492 45.1089 36.5201 45.1089 36.318 45.227L35.6053 45.6377C35.4032 45.7535 35.4032 45.9441 35.6075 46.0622ZM39.0511 48.0503L39.7685 48.4633C39.9728 48.5813 40.3019 48.5813 40.5039 48.4633L41.2167 48.0525C41.4188 47.9368 41.4188 47.7461 41.2145 47.6281L40.4971 47.2151C40.2928 47.0971 39.9637 47.0971 39.7617 47.2151L39.0489 47.6259C38.8468 47.7416 38.8468 47.9322 39.0511 48.0503ZM40.8967 49.1147L41.614 49.5277C41.8183 49.6457 42.1474 49.6457 42.3495 49.5277L43.0623 49.1169C43.2643 49.0012 43.2643 48.8106 43.06 48.6925L42.3427 48.2795C42.1384 48.1615 41.8092 48.1615 41.6072 48.2795L40.8944 48.6903C40.6924 48.806 40.6924 48.9966 40.8967 49.1147ZM42.7422 50.1791L43.4595 50.5921C43.6638 50.7101 43.993 50.7101 44.195 50.5921L44.9078 50.1813C45.1098 50.0656 45.1098 49.875 44.9055 49.7569L44.1882 49.3439C43.9839 49.2259 43.6547 49.2259 43.4527 49.3439L42.7399 49.7547C42.5379 49.8704 42.5379 50.0611 42.7422 50.1791ZM46.0405 51.6588L46.7533 51.248C46.9553 51.1323 46.9553 50.9416 46.751 50.8236L46.0337 50.4106C45.8294 50.2926 45.5002 50.2926 45.2982 50.4106L44.5854 50.8214C44.3834 50.9371 44.3834 51.1277 44.5877 51.2458L45.305 51.6588C45.5093 51.7768 45.8385 51.7768 46.0405 51.6588ZM47.886 52.7232L48.5988 52.3124C48.8008 52.1967 48.8008 52.006 48.5965 51.888L47.8792 51.475C47.6749 51.357 47.3458 51.357 47.1437 51.475L46.4309 51.8858C46.2289 52.0015 46.2289 52.1921 46.4332 52.3102L47.1505 52.7232C47.3548 52.8412 47.684 52.8412 47.886 52.7232ZM49.7315 53.7876L50.4443 53.3768C50.6464 53.2611 50.6464 53.0705 50.4421 52.9524L49.7247 52.5394C49.5204 52.4214 49.1913 52.4214 48.9893 52.5394L48.2765 52.9502C48.0744 53.0659 48.0744 53.2566 48.2787 53.3746L48.9961 53.7876C49.2004 53.9056 49.5295 53.9056 49.7315 53.7876ZM51.5771 54.852L52.2899 54.4412C52.4919 54.3255 52.4919 54.1349 52.2876 54.0168L51.5703 53.6038C51.366 53.4858 51.0368 53.4858 50.8348 53.6038L50.122 54.0146C49.92 54.1303 49.92 54.321 50.1243 54.439L50.8416 54.852C51.0459 54.97 51.375 54.97 51.5771 54.852ZM53.4226 55.9164L54.1354 55.5057C54.3374 55.3899 54.3374 55.1993 54.1331 55.0813L53.4158 54.6682C53.2115 54.5502 52.8823 54.5502 52.6803 54.6682L51.9675 55.079C51.7655 55.1947 51.7655 55.3854 51.9698 55.5034L52.6871 55.9164C52.8914 56.0345 53.2206 56.0345 53.4226 55.9164ZM55.2681 56.9809L55.9809 56.5701C56.1829 56.4543 56.1829 56.2637 55.9786 56.1457L55.2613 55.7326C55.057 55.6146 54.7278 55.6146 54.5258 55.7326L53.813 56.1434C53.611 56.2591 53.611 56.4498 53.8153 56.5678L54.5326 56.9809C54.7369 57.0989 55.0661 57.0989 55.2681 56.9809ZM55.6631 57.6322L56.3804 58.0453C56.5847 58.1633 56.9139 58.1633 57.1159 58.0453L57.8287 57.6345C58.0307 57.5187 58.0307 57.3281 57.8264 57.2101L57.1091 56.797C56.9048 56.679 56.5756 56.679 56.3736 56.797L55.6608 57.2078C55.4588 57.3235 55.4588 57.5142 55.6631 57.6322ZM60.7774 58.9168L58.9546 57.8637C58.7503 57.7457 58.4212 57.7457 58.2191 57.8637L57.5063 58.2745C57.3043 58.3902 57.3043 58.5809 57.5086 58.6989L59.3314 59.7519C59.5357 59.87 59.8649 59.87 60.0669 59.7519L60.7797 59.3412C60.9817 59.2254 60.9817 59.0348 60.7774 58.9168ZM33.905 47.0948L37.1897 48.9898C37.419 49.1237 37.7913 49.1237 38.0206 48.9898L38.638 48.6335C38.8673 48.5019 38.865 48.2863 38.6357 48.1547L35.351 46.2596C35.1217 46.1257 34.7495 46.1257 34.5202 46.2596L33.9027 46.6159C33.6735 46.7475 33.6757 46.9632 33.905 47.0948ZM38.4133 49.6979L39.0352 50.0565C39.2645 50.1882 39.6368 50.1904 39.8661 50.0565L40.4835 49.7002C40.7128 49.5686 40.7105 49.353 40.4812 49.2213L39.8593 48.8628C39.63 48.7288 39.2577 48.7288 39.0284 48.8628L38.411 49.2191C38.1817 49.3507 38.184 49.5663 38.4133 49.6979ZM40.2588 50.7623L40.8808 51.1209C41.11 51.2526 41.4823 51.2548 41.7116 51.1209L42.329 50.7646C42.5583 50.633 42.556 50.4174 42.3268 50.2857L41.7048 49.9272C41.4755 49.7933 41.1032 49.7933 40.874 49.9272L40.2565 50.2835C40.0272 50.4151 40.0295 50.6307 40.2588 50.7623ZM42.1043 51.8268L42.7263 52.1853C42.9556 52.3192 43.3278 52.3192 43.5571 52.1853L44.1746 51.829C44.4038 51.6974 44.4016 51.4818 44.1723 51.3502L43.5503 50.9916C43.321 50.8599 42.9487 50.8577 42.7195 50.9916L42.102 51.3479C41.8728 51.4795 41.875 51.6951 42.1043 51.8268ZM43.9498 52.8912L44.5718 53.2497C44.8011 53.3836 45.1734 53.3836 45.4026 53.2497L46.0201 52.8934C46.2493 52.7618 46.2471 52.5462 46.0178 52.4146L45.3958 52.056C45.1666 51.9243 44.7943 51.9221 44.565 52.056L43.9476 52.4123C43.7183 52.5439 43.7206 52.7595 43.9498 52.8912ZM45.7953 53.9556L46.4173 54.3142C46.6466 54.4458 47.0189 54.4481 47.2482 54.3142L47.8656 53.9578C48.0949 53.8262 48.0926 53.6106 47.8633 53.479L47.2413 53.1204C47.0121 52.9865 46.6398 52.9865 46.4105 53.1204L45.7931 53.4767C45.5638 53.6083 45.5661 53.8239 45.7953 53.9556ZM47.6409 55.02L48.2628 55.3786C48.4921 55.5125 48.8644 55.5125 49.0937 55.3786L49.7111 55.0222C49.9404 54.8906 49.9381 54.675 49.7088 54.5434L49.0869 54.1848C48.8576 54.0509 48.4853 54.0509 48.256 54.1848L47.6386 54.5411C47.4093 54.6727 47.4116 54.8883 47.6409 55.02ZM49.4864 56.0844L50.1084 56.443C50.3376 56.5769 50.7099 56.5769 50.9392 56.443L51.5566 56.0867C51.7859 55.955 51.7836 55.7394 51.5544 55.6078L50.9324 55.2492C50.7031 55.1176 50.3308 55.1153 50.1016 55.2492L49.4841 55.6055C49.2548 55.7371 49.2571 55.9528 49.4864 56.0844ZM51.3319 57.1488L51.9539 57.5074C52.1832 57.639 52.5554 57.6413 52.7847 57.5074L53.4022 57.1511C53.6314 57.0194 53.6292 56.8038 53.3999 56.6722L52.7779 56.3136C52.5486 56.1797 52.1764 56.1797 51.9471 56.3136L51.3296 56.6699C51.1004 56.8016 51.1026 57.0172 51.3319 57.1488ZM53.1774 58.2132L53.7994 58.5718C54.0287 58.7034 54.401 58.7057 54.6302 58.5718L55.2477 58.2155C55.4769 58.0838 55.4747 57.8682 55.2454 57.7366L54.6234 57.378C54.3942 57.2441 54.0219 57.2441 53.7926 57.378L53.1752 57.7343C52.9459 57.866 52.9482 58.0816 53.1774 58.2132ZM55.0229 59.2776L55.6449 59.6362C55.8742 59.7701 56.2465 59.7701 56.4758 59.6362L57.0932 59.2799C57.3225 59.1483 57.3202 58.9326 57.0909 58.801L56.4689 58.4424C56.2397 58.3108 55.8674 58.3085 55.6381 58.4424L55.0207 58.7987C54.7914 58.9304 54.7937 59.146 55.0229 59.2776ZM58.9773 59.8904L58.3553 59.5318C58.1261 59.4002 57.7538 59.3979 57.5245 59.5318L56.9071 59.8881C56.6778 60.0197 56.6801 60.2354 56.9093 60.367L57.5313 60.7256C57.7606 60.8595 58.1329 60.8595 58.3621 60.7256L58.9796 60.3693C59.2089 60.2376 59.2066 60.022 58.9773 59.8904ZM35.0786 48.0684L33.6372 47.2378C33.4079 47.1061 33.0356 47.1039 32.8063 47.2378L32.1889 47.5941C31.9596 47.7257 31.9619 47.9413 32.1912 48.073L33.6326 48.9036C33.8619 49.0352 34.2342 49.0375 34.4634 48.9036L35.0809 48.5473C35.3102 48.4156 35.3079 48.2 35.0786 48.0684ZM36.9241 49.1328L36.3022 48.7742C36.0729 48.6403 35.7006 48.6403 35.4713 48.7742L34.8539 49.1306C34.6246 49.2622 34.6269 49.4778 34.8562 49.6094L35.4781 49.968C35.7074 50.1019 36.0797 50.1019 36.309 49.968L36.9264 49.6117C37.1557 49.4801 37.1534 49.2645 36.9241 49.1328ZM38.7697 50.1972L38.1477 49.8386C37.9184 49.7047 37.5461 49.7047 37.3168 49.8386L36.6994 50.195C36.4701 50.3266 36.4724 50.5422 36.7017 50.6738L37.3237 51.0324C37.5529 51.1663 37.9252 51.1663 38.1545 51.0324L38.7719 50.6761C39.0012 50.5445 38.9989 50.3289 38.7697 50.1972ZM51.6906 57.6549L39.9932 50.9031C39.7639 50.7692 39.3916 50.7692 39.1624 50.9031L38.5449 51.2594C38.3157 51.391 38.3179 51.6066 38.5472 51.7382L50.2446 58.4901C50.4738 58.624 50.8461 58.624 51.0754 58.4901L51.6928 58.1338C51.9221 58.0021 51.9198 57.7865 51.6906 57.6549ZM53.5361 58.7193L52.9141 58.3607C52.6848 58.2268 52.3126 58.2268 52.0833 58.3607L51.4658 58.717C51.2366 58.8487 51.2388 59.0643 51.4681 59.1959L52.0901 59.5545C52.3194 59.6861 52.6916 59.6884 52.9209 59.5545L53.5384 59.1982C53.7676 59.0665 53.7654 58.8509 53.5361 58.7193ZM55.3816 59.7837L54.7596 59.4251C54.5304 59.2912 54.1581 59.2912 53.9288 59.4251L53.3114 59.7814C53.0821 59.9131 53.0844 60.1287 53.3136 60.2603L53.9356 60.6189C54.1649 60.7505 54.5372 60.7528 54.7664 60.6189L55.3839 60.2626C55.6132 60.131 55.6109 59.9154 55.3816 59.7837ZM57.2657 60.8708L56.6437 60.5122C56.4145 60.3806 56.0422 60.3783 55.8129 60.5122L55.1955 60.8686C54.9662 61.0002 54.9685 61.2158 55.1977 61.3474L55.8197 61.706C56.049 61.8399 56.4213 61.8399 56.6505 61.706L57.268 61.3497C57.4973 61.2181 57.495 61.0025 57.2657 60.8708Z" fill="#72B5E8"/>
<path d="M40.7378 42.9485L42.295 43.8472C42.4925 43.9607 42.8125 43.963 43.01 43.8472C43.2075 43.7337 43.2053 43.5499 43.01 43.4342L41.4528 42.5354C41.2553 42.4219 40.9352 42.4197 40.7378 42.5354C40.5403 42.6489 40.5425 42.8327 40.7378 42.9485ZM43.4028 44.4872L44.1405 44.9139C44.338 45.0274 44.6581 45.0296 44.8556 44.9139C45.0531 44.8004 45.0508 44.6166 44.8556 44.5008L44.1178 44.0742C43.9203 43.9607 43.6002 43.9584 43.4028 44.0742C43.2053 44.1876 43.2075 44.3715 43.4028 44.4872ZM45.2483 45.5516L45.986 45.9783C46.1835 46.0918 46.5036 46.094 46.7011 45.9783C46.8986 45.8626 46.8963 45.681 46.7011 45.5652L45.9633 45.1386C45.7658 45.0251 45.4458 45.0228 45.2483 45.1386C45.0508 45.2543 45.0531 45.4359 45.2483 45.5516ZM47.0938 46.616L47.8315 47.0427C48.029 47.1562 48.3491 47.1585 48.5466 47.0427C48.7441 46.927 48.7418 46.7454 48.5466 46.6297L47.8088 46.203C47.6114 46.0895 47.2913 46.0872 47.0938 46.203C46.8963 46.3187 46.8986 46.5003 47.0938 46.616ZM48.9393 47.6804L49.6771 48.1071C49.8746 48.2206 50.1946 48.2229 50.3921 48.1071C50.5896 47.9936 50.5873 47.8098 50.3921 47.6941L49.6544 47.2674C49.4569 47.1539 49.1368 47.1516 48.9393 47.2674C48.7418 47.3809 48.7441 47.5647 48.9393 47.6804ZM50.7848 48.7449L51.5226 49.1715C51.7201 49.285 52.0402 49.2873 52.2376 49.1715C52.4351 49.058 52.4329 48.8742 52.2376 48.7585L51.4999 48.3318C51.3024 48.2183 50.9823 48.2161 50.7848 48.3318C50.5873 48.4453 50.5896 48.6291 50.7848 48.7449ZM52.6304 49.8093L53.3681 50.2359C53.5656 50.3494 53.8857 50.3517 54.0832 50.2359C54.2807 50.1225 54.2784 49.9386 54.0832 49.8229L53.3454 49.3962C53.1479 49.2827 52.8278 49.2805 52.6304 49.3962C52.4329 49.5097 52.4351 49.6935 52.6304 49.8093ZM54.4759 50.8737L55.2136 51.3003C55.4111 51.4138 55.7312 51.4161 55.9287 51.3003C56.1262 51.1869 56.1239 51.003 55.9287 50.8873L55.1909 50.4606C54.9934 50.3471 54.6734 50.3449 54.4759 50.4606C54.2784 50.5741 54.2807 50.7579 54.4759 50.8737ZM56.3214 51.9381L57.0591 52.3647C57.2566 52.4782 57.5767 52.4805 57.7742 52.3647C57.9717 52.2513 57.9694 52.0674 57.7742 51.9517L57.0364 51.525C56.839 51.4115 56.5189 51.4093 56.3214 51.525C56.1239 51.6385 56.1262 51.8223 56.3214 51.9381ZM58.1669 53.0025L58.9047 53.4292C59.1022 53.5426 59.4222 53.5449 59.6197 53.4292C59.8172 53.3157 59.8149 53.1318 59.6197 53.0161L58.882 52.5894C58.6845 52.476 58.3644 52.4737 58.1669 52.5894C57.9694 52.7029 57.9717 52.8867 58.1669 53.0025ZM60.0124 54.0669L60.7502 54.4936C60.9477 54.607 61.2678 54.6093 61.4652 54.4936C61.6627 54.3801 61.6605 54.1963 61.4652 54.0805L60.7275 53.6538C60.53 53.5404 60.2099 53.5381 60.0124 53.6538C59.8149 53.7673 59.8172 53.9511 60.0124 54.0669ZM61.858 55.1313L62.5957 55.558C62.7932 55.6715 63.1133 55.6737 63.3108 55.558C63.5083 55.4445 63.506 55.2607 63.3108 55.1449L62.573 54.7182C62.3755 54.6048 62.0554 54.6025 61.858 54.7182C61.6605 54.834 61.6627 55.0156 61.858 55.1313ZM63.7421 56.2184L64.4798 56.6451C64.6773 56.7586 64.9974 56.7608 65.1949 56.6451C65.3924 56.5316 65.3901 56.3478 65.1949 56.232L64.4571 55.8054C64.2596 55.6919 63.9396 55.6896 63.7421 55.8054C63.5446 55.9188 63.5468 56.1027 63.7421 56.2184ZM39.0738 43.9516L39.7117 44.3193C39.9364 44.4486 40.3019 44.4509 40.5244 44.3193L41.1577 43.9539C41.3824 43.8245 41.3802 43.6134 41.1554 43.4841L40.5176 43.1164C40.2928 42.9871 39.9274 42.9848 39.7049 43.1164L39.0716 43.4818C38.8468 43.6112 38.8491 43.8222 39.0738 43.9516ZM42.3722 45.386L43.0055 45.0206C43.2302 44.8912 43.228 44.6801 43.0032 44.5508L42.3654 44.1831C42.1406 44.0537 41.7752 44.0515 41.5527 44.1831L40.9194 44.5485C40.6946 44.6779 40.6969 44.8889 40.9216 45.0183L41.5595 45.386C41.7842 45.5153 42.1497 45.5176 42.3722 45.386ZM42.7671 46.0804L43.405 46.4481C43.6298 46.5775 43.9952 46.5797 44.2177 46.4481L44.851 46.0827C45.0758 45.9533 45.0735 45.7423 44.8488 45.6129L44.2109 45.2452C43.9861 45.1159 43.6207 45.1136 43.3982 45.2452L42.7649 45.6106C42.5401 45.74 42.5424 45.9511 42.7671 46.0804ZM44.6127 47.1448L45.2505 47.5125C45.4753 47.6419 45.8407 47.6441 46.0632 47.5125L46.6965 47.1471C46.9213 47.0177 46.919 46.8067 46.6943 46.6773L46.0564 46.3096C45.8317 46.1803 45.4662 46.178 45.2437 46.3096L44.6104 46.675C44.3857 46.8044 44.3879 47.0155 44.6127 47.1448ZM48.5421 47.744L47.9042 47.3763C47.6795 47.247 47.314 47.2447 47.0915 47.3763L46.4582 47.7417C46.2335 47.8711 46.2357 48.0821 46.4605 48.2115L47.0983 48.5792C47.3231 48.7085 47.6885 48.7108 47.911 48.5792L48.5443 48.2138C48.7691 48.0844 48.7668 47.8734 48.5421 47.744ZM50.3876 48.8084L49.7497 48.4407C49.525 48.3114 49.1595 48.3091 48.937 48.4407L48.3037 48.8061C48.079 48.9355 48.0812 49.1466 48.306 49.2759L48.9439 49.6436C49.1686 49.7729 49.5341 49.7752 49.7565 49.6436L50.3899 49.2782C50.6146 49.1488 50.6123 48.9378 50.3876 48.8084ZM52.2331 49.8728L51.5952 49.5051C51.3705 49.3758 51.005 49.3735 50.7826 49.5051L50.1492 49.8705C49.9245 49.9999 49.9268 50.211 50.1515 50.3403L50.7894 50.708C51.0141 50.8374 51.3796 50.8396 51.602 50.708L52.2354 50.3426C52.4601 50.2132 52.4578 50.0022 52.2331 49.8728ZM54.0786 50.9372L53.4407 50.5696C53.216 50.4402 52.8505 50.4379 52.6281 50.5696L51.9947 50.9349C51.77 51.0643 51.7723 51.2754 51.997 51.4047L52.6349 51.7724C52.8596 51.9018 53.2251 51.904 53.4476 51.7724L54.0809 51.407C54.3056 51.2776 54.3034 51.0666 54.0786 50.9372ZM55.9241 52.0016L55.2863 51.634C55.0615 51.5046 54.6961 51.5023 54.4736 51.634L53.8403 51.9994C53.6155 52.1287 53.6178 52.3398 53.8425 52.4691L54.4804 52.8368C54.7051 52.9662 55.0706 52.9684 55.2931 52.8368L55.9264 52.4714C56.1511 52.3421 56.1489 52.131 55.9241 52.0016ZM57.7697 53.066L57.1318 52.6984C56.9071 52.569 56.5416 52.5667 56.3191 52.6984L55.6858 53.0638C55.4611 53.1931 55.4633 53.4042 55.6881 53.5336L56.3259 53.9012C56.5507 54.0306 56.9161 54.0329 57.1386 53.9012L57.7719 53.5358C57.9967 53.4065 57.9944 53.1954 57.7697 53.066ZM57.5313 54.598L58.1692 54.9656C58.3939 55.095 58.7594 55.0973 58.9818 54.9656L59.6152 54.6002C59.8399 54.4709 59.8376 54.2598 59.6129 54.1304L58.975 53.7628C58.7503 53.6334 58.3848 53.6311 58.1624 53.7628L57.529 54.1282C57.3043 54.2575 57.3066 54.4686 57.5313 54.598ZM61.4607 55.1971L60.8228 54.8295C60.5981 54.7001 60.2326 54.6978 60.0102 54.8295L59.3768 55.1949C59.1521 55.3242 59.1544 55.5353 59.3791 55.6646L60.017 56.0323C60.2417 56.1617 60.6072 56.1639 60.8296 56.0323L61.463 55.6669C61.6877 55.5376 61.6854 55.3265 61.4607 55.1971ZM64.1643 56.7586L62.7069 55.9166C62.4822 55.7872 62.1167 55.7849 61.8943 55.9166L61.2609 56.282C61.0362 56.4113 61.0385 56.6224 61.2632 56.7517L62.7206 57.5937C62.9453 57.7231 63.3108 57.7254 63.5332 57.5937L64.1666 57.2283C64.3913 57.099 64.389 56.8879 64.1643 56.7586ZM37.3622 44.9298L38.8196 45.7718C39.0443 45.9011 39.4098 45.9034 39.6323 45.7718L40.2656 45.4064C40.4903 45.277 40.4881 45.0659 40.2633 44.9366L38.806 44.0946C38.5812 43.9652 38.2158 43.963 37.9933 44.0946L37.36 44.46C37.1352 44.5893 37.1375 44.8004 37.3622 44.9298ZM40.0272 46.4685L40.6651 46.8362C40.8898 46.9655 41.2553 46.9678 41.4778 46.8362L42.1111 46.4708C42.3358 46.3414 42.3336 46.1304 42.1088 46.001L41.471 45.6333C41.2462 45.504 40.8808 45.5017 40.6583 45.6333L40.025 45.9987C39.8002 46.1281 39.8025 46.3392 40.0272 46.4685ZM42.5106 47.9029C42.7354 48.0322 43.1008 48.0345 43.3233 47.9029L43.9566 47.5375C44.1814 47.4081 44.1791 47.197 43.9544 47.0677L43.3165 46.7C43.0918 46.5706 42.7263 46.5684 42.5038 46.7L41.8705 47.0654C41.6458 47.1948 41.648 47.4058 41.8728 47.5352L42.5106 47.9029ZM44.3562 48.9673C44.5809 49.0966 44.9464 49.0989 45.1688 48.9673L45.8022 48.6019C46.0269 48.4725 46.0246 48.2614 45.7999 48.1321L45.162 47.7644C44.9373 47.6351 44.5718 47.6328 44.3493 47.7644L43.716 48.1298C43.4913 48.2592 43.4936 48.4702 43.7183 48.5996L44.3562 48.9673ZM46.1949 48.8288L45.5615 49.1942C45.3368 49.3236 45.3391 49.5346 45.5638 49.664L46.2017 50.0317C46.4264 50.161 46.7919 50.1633 47.0143 50.0317L47.6477 49.6663C47.8724 49.5369 47.8701 49.3259 47.6454 49.1965L47.0075 48.8288C46.7828 48.6995 46.4173 48.6972 46.1949 48.8288ZM48.079 49.8728L47.3662 50.2836C47.1642 50.3993 47.1642 50.59 47.3685 50.708L48.0858 51.121C48.2901 51.2391 48.6192 51.2391 48.8213 51.121L49.5341 50.7103C49.7361 50.5945 49.7361 50.4039 49.5318 50.2859L48.8145 49.8728C48.6102 49.7548 48.281 49.7548 48.079 49.8728ZM49.9245 50.9372L49.2117 51.348C49.0097 51.4637 49.0097 51.6544 49.214 51.7724L49.9313 52.1855C50.1356 52.3035 50.4648 52.3035 50.6668 52.1855L51.3796 51.7747C51.5816 51.6589 51.5816 51.4683 51.3773 51.3503L50.66 50.9372C50.4557 50.8192 50.1265 50.8192 49.9245 50.9372ZM51.77 52.0016L51.0572 52.4124C50.8552 52.5282 50.8552 52.7188 51.0595 52.8368L51.7768 53.2499C51.9811 53.3679 52.3103 53.3679 52.5123 53.2499L53.2251 52.8391C53.4271 52.7233 53.4271 52.5327 53.2228 52.4147L52.5055 52.0016C52.3012 51.8836 51.972 51.8836 51.77 52.0016ZM53.6155 53.066L52.9028 53.4768C52.7007 53.5926 52.7007 53.7832 52.905 53.9012L53.6223 54.3143C53.8266 54.4323 54.1558 54.4323 54.3578 54.3143L55.0706 53.9035C55.2726 53.7877 55.2726 53.5971 55.0683 53.4791L54.351 53.066C54.1467 52.948 53.8176 52.948 53.6155 53.066ZM55.4611 54.1304L54.7483 54.5412C54.5462 54.657 54.5462 54.8476 54.7505 54.9656L55.4679 55.3787C55.6722 55.4967 56.0013 55.4967 56.2034 55.3787L56.9161 54.9679C57.1182 54.8522 57.1182 54.6615 56.9139 54.5435L56.1965 54.1304C55.9922 54.0124 55.6631 54.0124 55.4611 54.1304ZM58.0489 56.4476L58.7617 56.0368C58.9637 55.9211 58.9637 55.7305 58.7594 55.6124L58.0421 55.1994C57.8378 55.0814 57.5086 55.0814 57.3066 55.1994L56.5938 55.6102C56.3918 55.7259 56.3918 55.9166 56.5961 56.0346L57.3134 56.4476C57.5177 56.5656 57.8468 56.5656 58.0489 56.4476ZM59.8944 57.512L60.6072 57.1013C60.8092 56.9855 60.8092 56.7949 60.6049 56.6769L59.8876 56.2638C59.6833 56.1458 59.3541 56.1458 59.1521 56.2638L58.4393 56.6746C58.2373 56.7903 58.2373 56.981 58.4416 57.099L59.1589 57.512C59.3632 57.6301 59.6924 57.6301 59.8944 57.512ZM62.489 57.764L61.7717 57.3509C61.5674 57.2329 61.2382 57.2329 61.0362 57.3509L60.3234 57.7617C60.1214 57.8774 60.1214 58.0681 60.3257 58.1861L61.043 58.5991C61.2473 58.7172 61.5765 58.7172 61.7785 58.5991L62.4913 58.1884C62.6933 58.0726 62.6933 57.882 62.489 57.764ZM35.6075 45.8898L37.9229 47.2265C38.1272 47.3446 38.4564 47.3446 38.6584 47.2265L39.3712 46.8158C39.5732 46.7 39.5732 46.5094 39.3689 46.3914L37.0535 45.0546C36.8492 44.9366 36.5201 44.9366 36.318 45.0546L35.6053 45.4654C35.4032 45.5811 35.4032 45.7718 35.6075 45.8898ZM39.0511 47.8779L39.7685 48.2909C39.9728 48.409 40.3019 48.409 40.5039 48.2909L41.2167 47.8802C41.4188 47.7644 41.4188 47.5738 41.2145 47.4558L40.4971 47.0427C40.2928 46.9247 39.9637 46.9247 39.7617 47.0427L39.0489 47.4535C38.8468 47.5692 38.8468 47.7599 39.0511 47.8779ZM40.8967 48.9423L41.614 49.3554C41.8183 49.4734 42.1474 49.4734 42.3495 49.3554L43.0623 48.9446C43.2643 48.8288 43.2643 48.6382 43.06 48.5202L42.3427 48.1071C42.1384 47.9891 41.8092 47.9891 41.6072 48.1071L40.8944 48.5179C40.6924 48.6336 40.6924 48.8243 40.8967 48.9423ZM42.7422 50.0067L43.4595 50.4198C43.6638 50.5378 43.993 50.5378 44.195 50.4198L44.9078 50.009C45.1098 49.8932 45.1098 49.7026 44.9055 49.5846L44.1882 49.1715C43.9839 49.0535 43.6547 49.0535 43.4527 49.1715L42.7399 49.5823C42.5379 49.6981 42.5379 49.8887 42.7422 50.0067ZM46.0405 51.4864L46.7533 51.0757C46.9553 50.9599 46.9553 50.7693 46.751 50.6513L46.0337 50.2382C45.8294 50.1202 45.5002 50.1202 45.2982 50.2382L44.5854 50.649C44.3834 50.7647 44.3834 50.9554 44.5877 51.0734L45.305 51.4864C45.5093 51.6045 45.8385 51.6045 46.0405 51.4864ZM47.886 52.5509L48.5988 52.1401C48.8008 52.0243 48.8008 51.8337 48.5965 51.7157L47.8792 51.3026C47.6749 51.1846 47.3458 51.1846 47.1437 51.3026L46.4309 51.7134C46.2289 51.8291 46.2289 52.0198 46.4332 52.1378L47.1505 52.5509C47.3548 52.6689 47.684 52.6689 47.886 52.5509ZM49.7315 53.6153L50.4443 53.2045C50.6464 53.0887 50.6464 52.8981 50.4421 52.7801L49.7247 52.367C49.5204 52.249 49.1913 52.249 48.9893 52.367L48.2765 52.7778C48.0744 52.8936 48.0744 53.0842 48.2787 53.2022L48.9961 53.6153C49.2004 53.7333 49.5295 53.7333 49.7315 53.6153ZM51.5771 54.6797L52.2899 54.2689C52.4919 54.1531 52.4919 53.9625 52.2876 53.8445L51.5703 53.4314C51.366 53.3134 51.0368 53.3134 50.8348 53.4314L50.122 53.8422C49.92 53.958 49.92 54.1486 50.1243 54.2666L50.8416 54.6797C51.0459 54.7977 51.375 54.7977 51.5771 54.6797ZM53.4226 55.7441L54.1354 55.3333C54.3374 55.2175 54.3374 55.0269 54.1331 54.9089L53.4158 54.4958C53.2115 54.3778 52.8823 54.3778 52.6803 54.4958L51.9675 54.9066C51.7655 55.0224 51.7655 55.213 51.9698 55.331L52.6871 55.7441C52.8914 55.8621 53.2206 55.8621 53.4226 55.7441ZM55.2681 56.8085L55.9809 56.3977C56.1829 56.282 56.1829 56.0913 55.9786 55.9733L55.2613 55.5602C55.057 55.4422 54.7278 55.4422 54.5258 55.5602L53.813 55.971C53.611 56.0868 53.611 56.2774 53.8153 56.3954L54.5326 56.8085C54.7369 56.9265 55.0661 56.9265 55.2681 56.8085ZM55.6631 57.4598L56.3804 57.8729C56.5847 57.9909 56.9139 57.9909 57.1159 57.8729L57.8287 57.4621C58.0307 57.3464 58.0307 57.1557 57.8264 57.0377L57.1091 56.6247C56.9048 56.5066 56.5756 56.5066 56.3736 56.6247L55.6608 57.0354C55.4588 57.1512 55.4588 57.3418 55.6631 57.4598ZM60.7774 58.7444L58.9546 57.6913C58.7503 57.5733 58.4212 57.5733 58.2191 57.6913L57.5063 58.1021C57.3043 58.2179 57.3043 58.4085 57.5086 58.5265L59.3314 59.5796C59.5357 59.6976 59.8649 59.6976 60.0669 59.5796L60.7797 59.1688C60.9817 59.053 60.9817 58.8624 60.7774 58.7444ZM33.905 46.9224L37.1897 48.8175C37.419 48.9514 37.7913 48.9514 38.0206 48.8175L38.638 48.4612C38.8673 48.3295 38.865 48.1139 38.6357 47.9823L35.351 46.0872C35.1217 45.9533 34.7495 45.9533 34.5202 46.0872L33.9027 46.4436C33.6735 46.5752 33.6757 46.7908 33.905 46.9224ZM38.4133 49.5256L39.0352 49.8842C39.2645 50.0181 39.6368 50.0181 39.8661 49.8842L40.4835 49.5278C40.7128 49.3962 40.7105 49.1806 40.4812 49.049L39.8593 48.6904C39.63 48.5565 39.2577 48.5565 39.0284 48.6904L38.411 49.0467C38.1817 49.1783 38.184 49.3939 38.4133 49.5256ZM40.2588 50.59L40.8808 50.9486C41.11 51.0802 41.4823 51.0825 41.7116 50.9486L42.329 50.5922C42.5583 50.4606 42.556 50.245 42.3268 50.1134L41.7048 49.7548C41.4755 49.6209 41.1032 49.6209 40.874 49.7548L40.2565 50.1111C40.0272 50.2427 40.0295 50.4583 40.2588 50.59ZM42.1043 51.6544L42.7263 52.013C42.9556 52.1469 43.3278 52.1469 43.5571 52.013L44.1746 51.6567C44.4038 51.525 44.4016 51.3094 44.1723 51.1778L43.5503 50.8192C43.321 50.6853 42.9487 50.6853 42.7195 50.8192L42.102 51.1755C41.8728 51.3071 41.875 51.5228 42.1043 51.6544ZM43.9498 52.7188L44.5718 53.0774C44.8011 53.2113 45.1734 53.2113 45.4026 53.0774L46.0201 52.7211C46.2493 52.5894 46.2471 52.3738 46.0178 52.2422L45.3958 51.8836C45.1666 51.752 44.7943 51.7497 44.565 51.8836L43.9476 52.2399C43.7183 52.3716 43.7206 52.5872 43.9498 52.7188ZM45.7953 53.7832L46.4173 54.1418C46.6466 54.2734 47.0189 54.2757 47.2482 54.1418L47.8656 53.7855C48.0949 53.6538 48.0926 53.4382 47.8633 53.3066L47.2413 52.948C47.0121 52.8141 46.6398 52.8141 46.4105 52.948L45.7931 53.3043C45.5638 53.436 45.5661 53.6516 45.7953 53.7832ZM47.6409 54.8476L48.2628 55.2062C48.4921 55.3378 48.8644 55.3401 49.0937 55.2062L49.7111 54.8499C49.9404 54.7183 49.9381 54.5026 49.7088 54.371L49.0869 54.0124C48.8576 53.8808 48.4853 53.8785 48.256 54.0124L47.6386 54.3687C47.4093 54.5004 47.4116 54.716 47.6409 54.8476ZM49.4864 55.912L50.1084 56.2706C50.3376 56.4045 50.7099 56.4045 50.9392 56.2706L51.5566 55.9143C51.7859 55.7827 51.7836 55.5671 51.5544 55.4354L50.9324 55.0768C50.7031 54.9452 50.3308 54.9429 50.1016 55.0768L49.4841 55.4332C49.2548 55.5648 49.2571 55.7804 49.4864 55.912ZM51.3319 56.9764L51.9539 57.335C52.1832 57.4689 52.5554 57.4689 52.7847 57.335L53.4022 56.9787C53.6314 56.8471 53.6292 56.6315 53.3999 56.4998L52.7779 56.1412C52.5486 56.0096 52.1764 56.0073 51.9471 56.1412L51.3296 56.4976C51.1004 56.6292 51.1026 56.8448 51.3319 56.9764ZM53.1774 58.0408L53.7994 58.3994C54.0287 58.5311 54.401 58.5333 54.6302 58.3994L55.2477 58.0431C55.4769 57.9115 55.4747 57.6959 55.2454 57.5642L54.6234 57.2057C54.3942 57.0718 54.0219 57.0718 53.7926 57.2057L53.1752 57.562C52.9459 57.6936 52.9482 57.9092 53.1774 58.0408ZM55.0229 59.1052L55.6449 59.4638C55.8742 59.5955 56.2465 59.5977 56.4758 59.4638L57.0932 59.1075C57.3225 58.9759 57.3202 58.7603 57.0909 58.6287L56.4689 58.2701C56.2397 58.1362 55.8674 58.1362 55.6381 58.2701L55.0207 58.6264C54.7914 58.758 54.7937 58.9736 55.0229 59.1052ZM58.9773 59.718L58.3553 59.3594C58.1261 59.2278 57.7538 59.2255 57.5245 59.3594L56.9071 59.7158C56.6778 59.8474 56.6801 60.063 56.9093 60.1946L57.5313 60.5532C57.7606 60.6871 58.1329 60.6871 58.3621 60.5532L58.9796 60.1969C59.2089 60.0653 59.2066 59.8497 58.9773 59.718ZM35.0786 47.896L33.6372 47.0654C33.4079 46.9338 33.0356 46.9315 32.8063 47.0654L32.1889 47.4217C31.9596 47.5534 31.9619 47.769 32.1912 47.9006L33.6326 48.7312C33.8619 48.8629 34.2342 48.8651 34.4634 48.7312L35.0809 48.3749C35.3102 48.2433 35.3079 48.0277 35.0786 47.896ZM36.9241 48.9605L36.3022 48.6019C36.0729 48.4702 35.7006 48.468 35.4713 48.6019L34.8539 48.9582C34.6246 49.0898 34.6269 49.3054 34.8562 49.4371L35.4781 49.7956C35.7074 49.9273 36.0797 49.9295 36.309 49.7956L36.9264 49.4393C37.1557 49.3077 37.1534 49.0921 36.9241 48.9605ZM38.7697 50.0249L38.1477 49.6663C37.9184 49.5346 37.5461 49.5324 37.3168 49.6663L36.6994 50.0226C36.4701 50.1542 36.4724 50.3698 36.7017 50.5015L37.3237 50.8601C37.5529 50.994 37.9252 50.994 38.1545 50.8601L38.7719 50.5037C39.0012 50.3721 38.9989 50.1565 38.7697 50.0249ZM51.6906 57.4825L39.9932 50.7307C39.7639 50.5968 39.3916 50.5968 39.1624 50.7307L38.5449 51.087C38.3157 51.2186 38.3179 51.4342 38.5472 51.5659L50.2446 58.3177C50.4738 58.4516 50.8461 58.4516 51.0754 58.3177L51.6928 57.9614C51.9221 57.8298 51.9198 57.6142 51.6906 57.4825ZM53.5361 58.5469L52.9141 58.1884C52.6848 58.0545 52.3126 58.0545 52.0833 58.1884L51.4658 58.5447C51.2366 58.6763 51.2388 58.8919 51.4681 59.0235L52.0901 59.3821C52.3194 59.516 52.6916 59.516 52.9209 59.3821L53.5384 59.0258C53.7676 58.8942 53.7654 58.6786 53.5361 58.5469ZM55.3816 59.6114L54.7596 59.2528C54.5304 59.1189 54.1581 59.1189 53.9288 59.2528L53.3114 59.6091C53.0821 59.7407 53.0844 59.9563 53.3136 60.088L53.9356 60.4465C54.1649 60.5782 54.5372 60.5804 54.7664 60.4465L55.3839 60.0902C55.6132 59.9586 55.6109 59.743 55.3816 59.6114ZM57.2657 60.6985L56.6437 60.3399C56.4145 60.2082 56.0422 60.206 55.8129 60.3399L55.1955 60.6962C54.9662 60.8278 54.9685 61.0434 55.1977 61.1751L55.8197 61.5336C56.049 61.6675 56.4213 61.6675 56.6505 61.5336L57.268 61.1773C57.4973 61.0457 57.495 60.8301 57.2657 60.6985Z" fill="#A8CFF0"/>
<path d="M67.3676 55.6939L42.915 41.5707C41.9684 41.0237 41.2012 39.5576 41.2012 38.2957V19.116C41.2012 17.8541 41.9684 17.2731 42.915 17.8201L67.3676 31.9433C68.3142 32.4903 69.0815 33.9564 69.0815 35.2183V54.398C69.0815 55.6599 68.3142 56.2409 67.3676 55.6939Z" fill="#A8CFF0"/>
<path d="M67.5877 54.7069L43.3962 40.7357C42.6335 40.2523 42.1636 39.2854 42.1636 38.2937V19.0231C42.1636 18.7893 42.4178 18.6418 42.6221 18.7621C42.6448 18.7757 42.6652 18.7871 42.6766 18.7939L66.8886 32.7787C67.7966 33.3007 68.1212 34.2312 68.1212 35.2207V54.4482C68.1212 54.7001 67.8488 54.8567 67.6308 54.7318C67.6127 54.7228 67.5991 54.7137 67.59 54.7092L67.5877 54.7069Z" fill="#03336E"/>
<path d="M66.8866 32.7787L42.6746 18.7939C42.6633 18.7871 42.6451 18.7757 42.6202 18.7621C42.4181 18.6441 42.1616 18.7894 42.1616 19.0231V38.2959C42.1616 39.2855 42.6338 40.2523 43.3942 40.738L67.5858 54.7092C67.5858 54.7092 67.6085 54.7228 67.6266 54.7319C67.8445 54.8567 68.1169 54.6978 68.1169 54.4482V35.2185C68.1169 34.229 67.7901 33.3007 66.8843 32.7765L66.8866 32.7787ZM67.9263 54.4459C67.9263 54.5299 67.8559 54.5821 67.7901 54.5821C67.7674 54.5821 67.7447 54.5753 67.7242 54.5639L43.4941 40.57C42.8063 40.132 42.3568 39.2378 42.3568 38.2959V19.0231C42.3568 18.955 42.4159 18.9119 42.4681 18.9119C42.4862 18.9119 42.5067 18.9164 42.5248 18.9278L66.7913 32.9444C67.731 33.4868 67.9285 34.4809 67.9285 35.2185V54.4459H67.9263Z" fill="#022652"/>
<path d="M67.8536 31.687L43.401 17.5637C43.0265 17.3481 42.6791 17.3072 42.3977 17.4162C42.3613 17.4298 41.8846 17.684 41.8506 17.7021C42.1434 17.5614 42.5134 17.5887 42.9175 17.8202L67.3701 31.9434C68.3167 32.4904 69.0839 33.9565 69.0839 35.2184V54.3981C69.0839 55.1857 68.7843 55.7077 68.3303 55.8552C68.3666 55.8552 68.4143 55.8438 68.4801 55.803C68.5028 55.7894 69.0204 55.4989 69.0408 55.483C69.3654 55.256 69.5697 54.7862 69.5697 54.1371V34.9596C69.5697 33.6978 68.8024 32.2317 67.8558 31.6847L67.8536 31.687Z" fill="#3F92D1"/>
<path d="M67.8536 31.687L43.401 17.5637C43.0265 17.3481 42.6791 17.3072 42.3977 17.4162C42.3613 17.4298 41.8846 17.684 41.8506 17.7021C42.1434 17.5614 42.5134 17.5887 42.9175 17.8202L67.3701 31.9434L67.8558 31.6847L67.8536 31.687Z" fill="#4F9FDB"/>
<g style="mix-blend-mode:screen">
<path d="M67.4493 31.9026L42.9967 17.7793C42.6085 17.5546 42.2522 17.5228 41.9639 17.6477C42.209 17.6091 42.4905 17.6681 42.7902 17.8406L67.2427 31.9639C68.1893 32.5108 68.9566 33.9769 68.9566 35.2388V54.4186C68.9566 55.163 68.6887 55.6668 68.2756 55.8461C68.8045 55.7621 69.1632 55.2197 69.1632 54.3573V35.1775C69.1632 33.9156 68.3959 32.4495 67.4493 31.9026Z" fill="white"/>
</g>
<path opacity="0.1" d="M65.3085 32.8876L44.8671 21.2744C44.8148 23.9956 44.8625 32.5199 44.8466 35.3046C44.8217 39.8142 44.1475 43.3683 38.9401 47.4421C37.2829 48.738 29.9712 52.721 24.0397 55.8371C21.6335 57.1012 21.4496 57.6345 20.2329 58.6649C19.0525 59.6635 17.2433 60.5917 16.7144 60.9004L37.0196 72.6407C37.3987 72.416 39.3736 71.4242 40.6721 70.3257C41.8888 69.2954 42.0727 68.1946 44.4789 66.9305C50.4104 63.8145 60.5755 57.5733 62.3802 56.4907C64.6956 55.1017 65.2881 54.228 65.2881 50.5763C65.2881 47.7757 65.2563 35.5543 65.3085 32.8853V32.8876Z" fill="#001A46"/>
<path d="M65.3083 32.9691L44.8669 21.356C44.8147 22.6564 44.8623 33.448 44.8464 36.235C44.8215 40.7445 44.1473 42.0314 38.9399 46.1074C37.2828 47.4033 29.971 51.3864 24.0395 54.5024C21.6333 55.7666 21.2451 57.3802 20.0261 58.4106C18.8457 59.4091 17.5382 59.6815 17.0093 59.9901L37.3145 71.7304C37.6936 71.5057 39.1691 71.1698 40.4653 70.0714C41.682 69.041 42.0702 67.4274 44.4787 66.1633C50.4102 63.0472 57.722 59.0642 59.3791 57.7683C64.5865 53.6922 65.2629 52.4076 65.2856 47.8958C65.3015 45.0952 65.2539 34.2219 65.3061 32.9691H65.3083Z" fill="white"/>
<path d="M46.6943 25.4299L47.2913 25.7749C47.4934 25.8906 47.6432 26.0404 47.7453 26.222C47.8452 26.4036 47.8974 26.6146 47.8974 26.8552V27.1457C47.8974 27.3863 47.8475 27.5383 47.7453 27.6041C47.6455 27.67 47.4934 27.645 47.2913 27.5292L47.1007 27.418V28.6232L46.6943 28.3894V25.4299ZM47.2913 27.1048C47.3572 27.1434 47.4071 27.1502 47.4412 27.1275C47.4752 27.1048 47.4911 27.0413 47.4911 26.9414V26.5897C47.4911 26.4875 47.4752 26.4058 47.4412 26.3446C47.4071 26.2833 47.3572 26.2333 47.2913 26.1948L47.1007 26.0836V26.9914L47.2913 27.1026V27.1048Z" fill="#084C94"/>
<path d="M48.1156 26.2493L48.7171 26.5965C48.9259 26.7168 49.078 26.8598 49.1734 27.0277C49.2687 27.1934 49.3164 27.3931 49.3164 27.6246V27.8062C49.3164 28.1126 49.2279 28.2578 49.0508 28.2374V28.2465C49.1484 28.3372 49.2188 28.4462 49.2596 28.5733C49.3005 28.7004 49.3209 28.8524 49.3209 29.0272V29.5469C49.3209 29.6309 49.3232 29.7012 49.3277 29.7557C49.3323 29.8102 49.3459 29.8692 49.3641 29.9304L48.9509 29.6921C48.9373 29.6354 48.9259 29.5855 48.9214 29.5401C48.9169 29.4947 48.9146 29.4175 48.9146 29.3086V28.7684C48.9146 28.6323 48.8964 28.5279 48.8578 28.453C48.8193 28.3781 48.7534 28.3123 48.6604 28.2578L48.5196 28.1761V29.4448L48.1133 29.211V26.2515L48.1156 26.2493ZM48.6672 27.8357C48.7489 27.8833 48.8102 27.8947 48.8488 27.8697C48.8896 27.8447 48.9101 27.7767 48.9101 27.6632V27.434C48.9101 27.3273 48.8942 27.2388 48.8601 27.173C48.8261 27.1049 48.7739 27.0527 48.7035 27.0118L48.5196 26.9052V27.7494L48.6672 27.8334V27.8357Z" fill="#084C94"/>
<path d="M49.6021 27.1072L50.0084 27.3409V30.3004L49.6021 30.0666V27.1072Z" fill="#084C94"/>
<path d="M50.2017 27.4543L50.6103 27.6904L50.8759 30.1392L50.8827 30.1437L51.1483 28.0013L51.5205 28.2169L51.1301 30.9494L50.5921 30.6385L50.2017 27.4543Z" fill="#084C94"/>
<path d="M51.9268 28.4483L52.4761 28.766L52.8961 31.9661L52.4898 31.7323L52.4171 31.1014V31.1105L51.9563 30.8449L51.8837 31.3805L51.5068 31.1627L51.9268 28.446V28.4483ZM52.3694 30.6815L52.1878 29.1156L52.181 29.111L52.004 30.4705L52.3694 30.6815Z" fill="#084C94"/>
<path d="M53.2092 32.0001C53.1071 31.814 53.0571 31.6052 53.0571 31.376V29.7873C53.0571 29.5559 53.1071 29.4061 53.2092 29.338C53.3114 29.2699 53.4589 29.2926 53.6541 29.4038C53.8471 29.515 53.9969 29.6648 54.0991 29.8509C54.2012 30.037 54.2512 30.2458 54.2512 30.475V30.7882L53.8675 30.5681V30.2254C53.8675 30.0415 53.7994 29.9122 53.6655 29.8327C53.5316 29.7556 53.4635 29.8078 53.4635 29.9916V31.6438C53.4635 31.8231 53.5316 31.9525 53.6655 32.0319C53.8017 32.1091 53.8675 32.0591 53.8675 31.8776V31.4259L54.2512 31.6461V32.0637C54.2512 32.2952 54.2012 32.445 54.0991 32.513C53.9969 32.5811 53.8494 32.5584 53.6541 32.4472C53.4612 32.336 53.3114 32.1862 53.2092 32.0001Z" fill="#084C94"/>
<path d="M54.8321 31.8255L54.3418 29.8442L54.7731 30.0939L55.05 31.3399L55.0569 31.3444L55.3338 30.4184L55.7288 30.6454L55.2385 32.0616V33.3212L54.8321 33.0874V31.8278V31.8255Z" fill="#084C94"/>
<path d="M56.501 31.0901L57.098 31.4351C57.3 31.5508 57.4498 31.7006 57.552 31.8822C57.6541 32.0637 57.7041 32.2748 57.7041 32.5154V32.8059C57.7041 33.0464 57.6541 33.1985 57.552 33.2643C57.4521 33.3301 57.3 33.3051 57.098 33.1894L56.9073 33.0782V34.2833L56.501 34.0496V31.0901ZM57.098 32.765C57.1638 32.8036 57.2138 32.8104 57.2478 32.7877C57.2819 32.765 57.2977 32.7015 57.2977 32.6016V32.2498C57.2977 32.1477 57.2819 32.066 57.2478 32.0047C57.2138 31.9434 57.1638 31.8935 57.098 31.8549L56.9073 31.7437V32.6515L57.098 32.7627V32.765Z" fill="#084C94"/>
<path d="M58.0534 34.7918C57.9467 34.6012 57.8945 34.3879 57.8945 34.1518V32.5972C57.8945 32.3612 57.9467 32.2069 58.0534 32.1388C58.1579 32.0707 58.3122 32.0934 58.5097 32.2091C58.7095 32.3249 58.8616 32.4769 58.966 32.6676C59.0727 32.8582 59.1249 33.0715 59.1249 33.3076V34.8622C59.1249 35.0982 59.0727 35.2526 58.966 35.3206C58.8593 35.3887 58.7072 35.366 58.5097 35.2503C58.3099 35.1345 58.1579 34.9825 58.0534 34.7918ZM58.7208 34.6579V33.0443C58.7208 32.8491 58.6504 32.713 58.5097 32.6313C58.369 32.5496 58.3009 32.6063 58.3009 32.8015V34.4151C58.3009 34.6103 58.3712 34.7465 58.5097 34.8282C58.6504 34.9099 58.7208 34.8531 58.7208 34.6579Z" fill="#084C94"/>
<path d="M59.3975 32.7628L59.8038 32.9965V35.5316L60.4712 35.9174V36.3395L59.3997 35.72V32.7605L59.3975 32.7628Z" fill="#084C94"/>
<path d="M60.6641 33.4937L61.0704 33.7274V36.6869L60.6641 36.4531V33.4937Z" fill="#084C94"/>
<path d="M61.4993 36.7868C61.3971 36.6007 61.3472 36.3919 61.3472 36.1626V34.574C61.3472 34.3425 61.3971 34.1927 61.4993 34.1246C61.6014 34.0565 61.749 34.0792 61.9442 34.1904C62.1371 34.3016 62.287 34.4514 62.3891 34.6375C62.4913 34.8236 62.5412 35.0324 62.5412 35.2616V35.5748L62.1576 35.3547V35.012C62.1576 34.8282 62.0895 34.6988 61.9555 34.6194C61.8216 34.5422 61.7535 34.5944 61.7535 34.7782V36.4304C61.7535 36.6097 61.8216 36.7391 61.9555 36.8185C62.0917 36.8957 62.1576 36.8458 62.1576 36.6642V36.2126L62.5412 36.4327V36.8503C62.5412 37.0818 62.4913 37.2316 62.3891 37.2997C62.287 37.3678 62.1394 37.3451 61.9442 37.2339C61.7512 37.1226 61.6014 36.9729 61.4993 36.7868Z" fill="#084C94"/>
<path d="M63.1226 36.6119L62.6323 34.6306L63.0636 34.8803L63.3406 36.1262L63.3474 36.1308L63.6243 35.2048L64.0193 35.4318L63.529 36.8479V38.1075L63.1226 37.8738V36.6142V36.6119Z" fill="#084C94"/>
<path d="M31.8122 55.1289C31.5988 55.2447 31.3877 55.3559 31.1812 55.4671L45.5639 63.794C45.7796 63.6805 45.993 63.567 46.2064 63.4535L31.8122 55.1289Z" fill="#A8CFF0"/>
<path d="M33.1473 54.4072C32.9362 54.5207 32.7251 54.6364 32.5186 54.7477L46.915 63.0746C47.1306 62.9588 47.344 62.8453 47.5551 62.7319L33.1473 54.4072Z" fill="#A8CFF0"/>
<path d="M35.801 52.957C35.5944 53.0728 35.3856 53.1863 35.1768 53.302L49.605 61.6289C49.8206 61.5132 50.0317 61.3974 50.2406 61.2839L35.801 52.957Z" fill="#A8CFF0"/>
<path d="M34.4776 53.6833C34.2688 53.7968 34.0599 53.9126 33.8511 54.0261L48.2634 62.3529C48.479 62.2372 48.6901 62.1237 48.9013 62.0103L34.4776 53.6856V53.6833Z" fill="#A8CFF0"/>
<path d="M37.1173 52.2241C36.913 52.3399 36.7064 52.4556 36.4976 52.5714L50.9416 60.9005C51.1573 60.7825 51.3661 60.6668 51.575 60.5533L37.1173 52.2264V52.2241Z" fill="#A8CFF0"/>
<path d="M26.687 54.9316C26.4645 55.0497 25.9719 55.2789 25.7744 55.3833L36.9701 61.8219C37.1563 61.6994 37.6352 61.4611 37.8463 61.3431L26.6847 54.9339L26.687 54.9316Z" fill="#02D4EA"/>
<path d="M25.0613 55.7576C24.9614 55.8098 24.866 55.8597 24.7775 55.9074C24.6572 55.9709 24.5437 56.0345 24.437 56.1003L41.8003 66.1089C41.9547 65.9682 42.1181 65.8275 42.2975 65.6868L25.0635 55.7576H25.0613Z" fill="#A8CFF0"/>
<path d="M36.0008 49.8228C35.7987 49.9385 35.2948 50.2063 35.0859 50.3243L46.7856 57.0285C46.999 56.9105 47.5097 56.6427 47.7163 56.5269L36.003 49.8228H36.0008Z" fill="#02D4EA"/>
<path d="M22.09 58.5083C21.9674 58.6672 21.8357 58.826 21.6973 58.9849L39.1627 69.0752C39.2558 69.0071 39.3489 68.9345 39.4397 68.8596C39.5146 68.7961 39.585 68.728 39.6576 68.6531L22.09 58.5083Z" fill="#A8CFF0"/>
<path d="M46.438 31.5781L57.0231 37.4993C57.0231 37.1975 57.0231 36.6755 57.0231 36.385L46.438 30.3594C46.438 30.3934 46.438 30.6567 46.438 30.6907C46.438 30.9903 46.438 31.2853 46.438 31.5781Z" fill="#02D4EA"/>
<path d="M46.438 33.0556L63.6992 42.7715C63.6992 42.6308 63.6992 42.4878 63.6992 42.3448C63.6992 42.2495 63.6992 42.1564 63.6992 42.0611L46.438 32.3589C46.438 32.5972 46.438 32.8287 46.438 33.0556Z" fill="#A8CFF0"/>
<path d="M23.8151 56.5293C23.6403 56.6677 23.4837 56.8107 23.3384 56.956L40.8901 67.0826C41.0172 66.9283 41.1534 66.7694 41.301 66.6105L23.8151 56.5293Z" fill="#A8CFF0"/>
<path d="M22.8775 57.4756C22.7481 57.6345 22.6255 57.7979 22.5029 57.9613L40.0978 68.1197C40.1659 68.0289 40.2363 67.9358 40.3066 67.8405C40.3588 67.7702 40.4133 67.6975 40.4678 67.6249L22.8775 57.4756Z" fill="#A8CFF0"/>
<path d="M45.2621 42.0566C45.1622 42.2291 45.0533 42.4016 44.9375 42.5741L62.6232 52.6145C62.748 52.4397 62.857 52.265 62.9546 52.0902L45.2621 42.0589V42.0566Z" fill="#A8CFF0"/>
<path d="M45.8137 40.8855C45.7433 41.0784 45.6639 41.2668 45.5776 41.4529L63.2474 51.4729C63.3246 51.2777 63.3882 51.078 63.4404 50.8714L45.8114 40.8878L45.8137 40.8855Z" fill="#A8CFF0"/>
<path d="M46.1679 39.2219C46.1248 39.433 46.0794 40.0231 46.0249 40.2228L60.3146 48.2796C60.3441 48.0663 60.3691 47.4603 60.385 47.2266L46.1679 39.2219Z" fill="#02D4EA"/>
<path d="M46.4404 33.8386C46.4404 34.0815 46.4404 34.313 46.4404 34.5354L63.7016 44.2648C63.7016 44.0333 63.7016 43.795 63.7016 43.5545L46.4404 33.8386Z" fill="#A8CFF0"/>
<path d="M46.4404 35.3159C46.4404 35.5746 46.4404 35.8107 46.4404 36.0127L63.7061 45.7557C63.7061 45.5288 63.7061 45.2905 63.7061 45.0454L46.4427 35.3159H46.4404Z" fill="#A8CFF0"/>
<path d="M46.4289 36.7891C46.4244 37.0251 46.4153 37.252 46.4062 37.4745L63.7015 47.247C63.7015 47.0314 63.7015 46.7931 63.7015 46.5367L46.4289 36.7891Z" fill="#A8CFF0"/>
<path d="M40.5929 46.8247C40.4249 46.9586 40.2547 47.0948 40.0776 47.2332L57.4659 57.1556C57.6907 57.0126 57.8813 56.8878 58.0471 56.7743L40.5952 46.8247H40.5929Z" fill="#A8CFF0"/>
<path d="M39.4806 47.6758C39.3126 47.7915 39.1219 47.9186 38.9131 48.0525L56.1992 57.9272C56.4149 57.8001 56.6169 57.6776 56.8053 57.5618L39.4806 47.6758Z" fill="#A8CFF0"/>
<path d="M38.2593 48.4634C38.0709 48.5792 37.8711 48.6995 37.6646 48.8243L54.903 58.6809C55.1164 58.5583 55.323 58.438 55.5205 58.3223L38.257 48.4612L38.2593 48.4634Z" fill="#A8CFF0"/>
<path d="M44.5337 43.1278C44.4088 43.2866 44.2794 43.4455 44.1387 43.6044L61.7721 53.6243C61.9265 53.4632 62.0695 53.3089 62.2012 53.1545L44.5359 43.1255L44.5337 43.1278Z" fill="#A8CFF0"/>
<path d="M42.9221 44.8049C42.7677 44.9456 42.3818 45.3337 42.2139 45.479L54.6967 52.5803C54.8737 52.4351 55.2687 52.0493 55.4321 51.9108L42.9198 44.8049H42.9221Z" fill="#02D4EA"/>
<path d="M41.6643 45.9487C41.5031 46.0849 41.3351 46.2233 41.1626 46.3641L58.6394 56.3273C58.8188 56.1866 58.9935 56.0481 59.1615 55.9142L41.6643 45.9487Z" fill="#A8CFF0"/>
<path d="M36.5095 52.1923C36.2961 52.3171 35.9465 52.3148 35.7309 52.1923C35.5152 52.0675 35.5152 51.8677 35.7286 51.7429C35.942 51.6181 36.2916 51.6204 36.5072 51.7429C36.7229 51.8677 36.7229 52.0675 36.5095 52.1923Z" fill="#02D4EA"/>
<path d="M35.2131 52.9071C34.9997 53.0319 34.6501 53.0297 34.4345 52.9071C34.2188 52.7823 34.2188 52.5826 34.4322 52.4578C34.6456 52.3329 34.9952 52.3352 35.2108 52.4578C35.4265 52.5826 35.4265 52.7823 35.2131 52.9071Z" fill="#02D4EA"/>
<path d="M33.9167 53.622C33.7033 53.7468 33.3537 53.7445 33.1381 53.622C32.9224 53.4971 32.9224 53.2974 33.1358 53.1726C33.3492 53.0478 33.6988 53.05 33.9144 53.1726C34.1301 53.2974 34.1301 53.4971 33.9167 53.622Z" fill="#02D4EA"/>
<path d="M32.6233 54.3346C32.4099 54.4594 32.0603 54.4572 31.8446 54.3346C31.629 54.2098 31.629 54.0101 31.8424 53.8852C32.0558 53.7604 32.4053 53.7627 32.621 53.8852C32.8366 54.0101 32.8366 54.2098 32.6233 54.3346Z" fill="#02D4EA"/>
<path d="M31.3269 55.0497C31.1135 55.1745 30.7639 55.1723 30.5483 55.0497C30.3326 54.9249 30.3326 54.7252 30.546 54.6003C30.7594 54.4755 31.1089 54.4778 31.3246 54.6003C31.5402 54.7252 31.5402 54.9249 31.3269 55.0497Z" fill="#02D4EA"/>
<path style="mix-blend-mode:multiply" opacity="0.1" d="M39.3965 47.8641C39.3965 47.8641 47.2621 47.6371 50.2131 46.1619C53.1641 44.6867 54.6396 40.3746 54.6396 38.2186C54.6396 36.0625 54.9801 30.8426 54.9801 30.8426C54.9801 30.8426 51.2346 29.7078 47.4891 26.5305C45.3053 24.6786 41.2465 18.5872 41.2465 18.5872V37.9916C41.2465 42.0768 39.3965 47.8641 39.3965 47.8641Z" fill="url(#paint0_linear_186_13483)"/>
<path style="mix-blend-mode:multiply" opacity="0.14" d="M39.3965 47.864C39.3965 47.864 47.0873 47.5917 49.9747 46.1324C52.9212 44.6299 54.3491 40.3859 54.3491 38.2707C54.3491 36.1555 54.6827 30.8516 54.6827 30.8516C54.6827 30.8516 51.0076 29.8689 47.3347 26.7506C45.1918 24.9327 41.2102 18.957 41.2102 18.957V38.1777C41.2102 42.1857 39.3965 47.864 39.3965 47.864Z" fill="url(#paint1_linear_186_13483)"/>
<path style="mix-blend-mode:multiply" opacity="0.19" d="M39.3963 47.864C39.3963 47.864 46.9169 47.5553 49.7362 46.1028C52.685 44.5845 54.0606 40.3972 54.0606 38.3229C54.0606 36.2485 54.3875 30.8629 54.3875 30.8629C54.3875 30.8629 50.785 30.0323 47.1802 26.9752C45.0782 25.1937 41.1737 19.3337 41.1737 19.3337V38.366C41.1737 42.2968 39.394 47.864 39.394 47.864H39.3963Z" fill="url(#paint2_linear_186_13483)"/>
<path style="mix-blend-mode:multiply" opacity="0.23" d="M39.3963 47.8642C39.3963 47.8642 46.7443 47.5147 49.4979 46.0735C52.4443 44.5325 53.77 40.4088 53.77 38.3753C53.77 36.3418 54.0901 30.8722 54.0901 30.8722C54.0901 30.8722 50.558 30.1913 47.0258 27.1956C44.9647 25.448 41.1374 19.7039 41.1374 19.7039V38.5523C41.1374 42.406 39.394 47.8642 39.394 47.8642H39.3963Z" fill="url(#paint3_linear_186_13483)"/>
<path style="mix-blend-mode:multiply" opacity="0.27" d="M39.3965 47.864C39.3965 47.864 46.572 47.4737 49.262 46.0461C52.2062 44.4824 53.4842 40.4222 53.4842 38.4296C53.4842 36.437 53.7997 30.8834 53.7997 30.8834C53.7997 30.8834 50.3379 30.3546 46.8762 27.4179C44.8581 25.7044 41.1081 20.0759 41.1081 20.0759V38.7405C41.1081 42.5148 39.3988 47.864 39.3988 47.864H39.3965Z" fill="url(#paint4_linear_186_13483)"/>
<path style="mix-blend-mode:multiply" opacity="0.31" d="M39.3965 47.864C39.3965 47.864 46.3995 47.4328 49.0236 46.0166C51.9655 44.4302 53.1936 40.4336 53.1936 38.4818C53.1936 36.53 53.5023 30.8947 53.5023 30.8947C53.5023 30.8947 50.1109 30.518 46.7218 27.6425C44.7446 25.9653 41.0718 20.4526 41.0718 20.4526V38.9266C41.0718 42.6237 39.3965 47.864 39.3965 47.864Z" fill="url(#paint5_linear_186_13483)"/>
<path style="mix-blend-mode:multiply" opacity="0.36" d="M39.3965 47.8642C39.3965 47.8642 46.227 47.3899 48.7853 45.9873C51.7249 44.3759 52.9053 40.4451 52.9053 38.5342C52.9053 36.6232 53.2072 30.904 53.2072 30.904C53.2072 30.904 49.8885 30.6793 46.5675 27.8628C44.6311 26.2197 41.0354 20.8228 41.0354 20.8228V39.1152C41.0354 42.7351 39.3965 47.8642 39.3965 47.8642Z" fill="url(#paint6_linear_186_13483)"/>
<path style="mix-blend-mode:multiply" opacity="0.4" d="M39.3963 47.864C39.3963 47.864 46.052 47.3465 48.5467 45.9598C51.4841 44.3258 52.6146 40.4585 52.6146 38.5884C52.6146 36.7183 52.9097 30.9151 52.9097 30.9151C52.9097 30.9151 49.6613 30.8402 46.4129 28.085C44.5175 26.4782 40.9989 21.197 40.9989 21.197V39.3011C40.9989 42.8438 39.394 47.864 39.394 47.864H39.3963Z" fill="url(#paint7_linear_186_13483)"/>
<path style="mix-blend-mode:multiply" opacity="0.44" d="M39.3965 47.8641C39.3965 47.8641 45.8796 47.3035 48.3108 45.9305C51.246 44.2714 52.3287 40.47 52.3287 38.6407C52.3287 36.8115 52.617 30.9243 52.617 30.9243C52.617 30.9243 49.439 31.0015 46.2633 28.3076C44.4109 26.7348 40.9673 21.5693 40.9673 21.5693V39.4895C40.9673 42.9551 39.3988 47.8664 39.3988 47.8664L39.3965 47.8641Z" fill="url(#paint8_linear_186_13483)"/>
<path style="mix-blend-mode:multiply" opacity="0.49" d="M39.3963 47.864C39.3963 47.864 45.7047 47.2603 48.0723 45.9008C51.0052 44.2168 52.038 40.4812 52.038 38.6928C52.038 36.9044 52.3195 30.9355 52.3195 30.9355C52.3195 30.9355 49.2141 31.1648 46.1065 28.5298C44.295 26.9934 40.9286 21.9414 40.9286 21.9414V39.6755C40.9286 43.0639 39.394 47.864 39.394 47.864H39.3963Z" fill="url(#paint9_linear_186_13483)"/>
<path style="mix-blend-mode:multiply" opacity="0.53" d="M39.3965 47.864C39.3965 47.864 45.5323 47.2172 47.8341 45.8736C50.7647 44.1647 51.7476 40.4948 51.7476 38.7473C51.7476 36.9998 52.0246 30.9469 52.0246 30.9469C52.0246 30.9469 48.9896 31.3282 45.9546 28.7523C44.1839 27.2499 40.8947 22.3159 40.8947 22.3159V39.8639C40.8947 43.1752 39.3965 47.8663 39.3965 47.8663V47.864Z" fill="url(#paint10_linear_186_13483)"/>
<path style="mix-blend-mode:multiply" opacity="0.57" d="M39.3965 47.8642C39.3965 47.8642 45.3575 47.172 47.5958 45.8443C50.5218 44.1081 51.4593 40.5064 51.4593 38.7997C51.4593 37.093 51.7295 30.9562 51.7295 30.9562C51.7295 30.9562 48.7648 31.4873 45.8002 28.9726C44.0704 27.5065 40.8606 22.686 40.8606 22.686V40.0502C40.8606 43.2843 39.3965 47.8642 39.3965 47.8642Z" fill="url(#paint11_linear_186_13483)"/>
<path style="mix-blend-mode:multiply" opacity="0.61" d="M39.3965 47.864C39.3965 47.864 45.1827 47.1264 47.3597 45.8146C50.2835 44.0534 51.171 40.5175 51.171 38.8517C51.171 37.1858 51.4344 30.9673 51.4344 30.9673C51.4344 30.9673 48.5401 31.6505 45.6481 29.1971C43.9615 27.765 40.8266 23.0603 40.8266 23.0603V40.2384C40.8266 43.393 39.3988 47.8662 39.3988 47.8662L39.3965 47.864Z" fill="url(#paint12_linear_186_13483)"/>
<path style="mix-blend-mode:multiply" opacity="0.66" d="M39.3965 47.864C39.3965 47.864 45.008 47.081 47.1213 45.7874C50.0406 43.999 50.8828 40.5312 50.8828 38.9062C50.8828 37.2812 51.1393 30.9787 51.1393 30.9787C51.1393 30.9787 48.3176 31.8139 45.4937 29.4196C43.848 28.0238 40.7903 23.4348 40.7903 23.4348V40.4245C40.7903 43.502 39.3965 47.864 39.3965 47.864Z" fill="url(#paint13_linear_186_13483)"/>
<path style="mix-blend-mode:multiply" opacity="0.7" d="M39.3965 47.864C39.3965 47.864 44.8332 47.0356 46.883 45.7578C49.7977 43.9399 50.5922 40.5425 50.5922 38.9583C50.5922 37.3742 50.8419 30.9877 50.8419 30.9877C50.8419 30.9877 48.0906 31.975 45.3394 29.6396C43.7345 28.2779 40.754 23.8047 40.754 23.8047V40.6128C40.754 43.6131 39.3965 47.8662 39.3965 47.8662V47.864Z" fill="url(#paint14_linear_186_13483)"/>
<path style="mix-blend-mode:multiply" opacity="0.74" d="M39.3965 47.864C39.3965 47.864 44.6561 46.9902 46.6446 45.7284C49.5548 43.8832 50.3039 40.5538 50.3039 39.0106C50.3039 37.4673 50.5468 30.9991 50.5468 30.9991C50.5468 30.9991 47.8659 32.1384 45.1873 29.8644C43.6232 28.539 40.7199 24.1792 40.7199 24.1792V40.799C40.7199 43.7221 39.3965 47.864 39.3965 47.864Z" fill="url(#paint15_linear_186_13483)"/>
<path style="mix-blend-mode:multiply" opacity="0.79" d="M39.3963 47.8641C39.3963 47.8641 44.4811 46.9427 46.4084 45.699C49.314 43.8243 50.0154 40.5653 50.0154 39.0629C50.0154 37.5604 50.2515 31.0083 50.2515 31.0083C50.2515 31.0083 47.6433 32.2974 45.0328 30.0846C43.5118 28.7933 40.6834 24.5515 40.6834 24.5515V40.9852C40.6834 43.8312 39.394 47.8641 39.394 47.8641H39.3963Z" fill="url(#paint16_linear_186_13483)"/>
<path style="mix-blend-mode:multiply" opacity="0.83" d="M39.3965 47.864C39.3965 47.864 44.3065 46.8949 46.1702 45.6716C49.069 43.7675 49.7273 40.5788 49.7273 39.1172C49.7273 37.6556 49.9589 31.0195 49.9589 31.0195C49.9589 31.0195 47.421 32.4607 44.8831 30.3069C43.4031 29.0519 40.6518 24.9236 40.6518 24.9236V41.1734C40.6518 43.9422 39.3988 47.864 39.3988 47.864H39.3965Z" fill="url(#paint17_linear_186_13483)"/>
<path style="mix-blend-mode:multiply" opacity="0.87" d="M39.3965 47.8642C39.3965 47.8642 44.1295 46.8474 45.9319 45.6423C48.8238 43.7064 49.4367 40.5904 49.4367 39.1696C49.4367 37.7489 49.6615 31.0311 49.6615 31.0311C49.6615 31.0311 47.194 32.6243 44.7265 30.5318C43.2873 29.3108 40.6155 25.3005 40.6155 25.3005V41.3597C40.6155 44.0514 39.3965 47.8642 39.3965 47.8642Z" fill="url(#paint18_linear_186_13483)"/>
<path style="mix-blend-mode:multiply" opacity="0.91" d="M39.3965 47.8641C39.3965 47.8641 43.9524 46.7997 45.6935 45.6128C48.5787 43.6451 49.1462 40.6016 49.1462 39.2218C49.1462 37.8419 49.3641 31.0401 49.3641 31.0401C49.3641 31.0401 46.967 32.7854 44.5721 30.7519C43.1738 29.5672 40.5792 25.6704 40.5792 25.6704V41.548C40.5792 44.1625 39.3965 47.8641 39.3965 47.8641Z" fill="url(#paint19_linear_186_13483)"/>
<path style="mix-blend-mode:multiply" opacity="0.96" d="M39.3965 47.864C39.3965 47.864 43.7753 46.7519 45.4574 45.5854C48.3358 43.5859 48.8602 40.6151 48.8602 39.2761C48.8602 37.9371 49.0713 31.0513 49.0713 31.0513C49.0713 31.0513 46.7468 32.9464 44.42 30.9742C43.0648 29.8235 40.5451 26.0425 40.5451 26.0425V41.734C40.5451 44.2691 39.3965 47.864 39.3965 47.864Z" fill="url(#paint20_linear_186_13483)"/>
<path style="mix-blend-mode:multiply" d="M39.3965 47.864C39.3965 47.864 43.5983 46.7042 45.2191 45.5559C48.0884 43.5224 48.5696 40.6264 48.5696 39.3283C48.5696 38.0301 48.7739 31.0626 48.7739 31.0626C48.7739 31.0626 46.5198 33.1098 44.2657 31.1988C42.9513 30.0845 40.5088 26.4192 40.5088 26.4192V41.9223C40.5088 44.3802 39.3965 47.864 39.3965 47.864Z" fill="url(#paint21_linear_186_13483)"/>
<path d="M47.4868 32.2156C44.6198 30.5929 41.8163 27.8286 39.4668 24.304L39.4351 24.2858C37.0856 25.0983 34.2821 24.6285 31.4151 22.94L31.3062 22.8765L31.4605 28.2326C32.0053 36.5345 34.836 40.1476 39.3942 47.8662L39.5054 47.9298C44.0636 45.4742 46.8966 45.1292 47.4391 37.4559L47.5935 32.2791L47.4845 32.2178L47.4868 32.2156Z" fill="#A8CFF0"/>
<path d="M49.1028 30.9834C46.2358 29.3607 43.4323 26.5964 41.0829 23.0718L41.0511 23.0537C38.7016 23.8662 35.8982 23.3964 33.0311 21.7078L32.9222 21.6443L31.3354 22.8948L31.4149 22.9402C34.2819 24.6287 37.0854 25.0985 39.4349 24.286L39.4666 24.3042C41.8161 27.8288 44.6196 30.5953 47.4866 32.2158L47.5955 32.277L47.4412 37.4538C47.0871 42.4627 45.7568 44.3487 43.6071 45.7376C46.2903 44.1535 48.6579 41.8522 49.0574 36.2237L49.2118 31.0469L49.1028 30.9857V30.9834Z" fill="#D1EBFF"/>
<path d="M49.212 31.0469L49.103 30.9856C46.236 29.3629 43.4326 26.5986 41.0831 23.0741L41.0513 23.0559L39.4351 24.2883L39.4668 24.3064C41.8163 27.831 44.6198 30.5976 47.4868 32.218L47.5958 32.2793L49.212 31.0469Z" fill="#D1EBFF"/>
<path d="M47.5953 32.277L47.441 37.4538C47.0869 42.4626 45.7566 44.3486 43.6069 45.7375C46.2901 44.1534 48.6577 41.8521 49.0572 36.2237L49.2116 31.0469L47.5953 32.2792V32.277Z" fill="#72B5E8"/>
<path d="M38.8834 44.3509C35.3444 38.4819 33.5647 35.5315 33.1357 29.0906L33.0381 25.709C35.3104 26.7348 37.4873 27.0639 39.4509 26.6735C41.4122 29.3289 43.5914 31.5167 45.8637 33.1122L45.766 36.3803C45.337 42.3265 43.5573 43.2229 40.0184 45.0068C39.8322 45.0998 39.6438 45.1952 39.4531 45.2927C39.2602 44.9727 39.0718 44.6595 38.8856 44.3509H38.8834Z" fill="#084C94"/>
<path style="mix-blend-mode:multiply" d="M43.4778 42.5868C45.8156 41.2205 45.7914 36.8303 43.4238 32.7811C41.0562 28.7319 37.2417 26.5571 34.9039 27.9234C32.5661 29.2898 32.5902 33.68 34.9578 37.7292C37.3254 41.7784 41.1399 43.9532 43.4778 42.5868Z" fill="url(#paint22_radial_186_13483)"/>
<path d="M40.3067 44.7503C40.1205 44.8434 39.9321 44.9387 39.7414 45.0363C39.5485 44.7163 39.3601 44.4031 39.1739 44.0944C35.635 38.2254 33.8553 35.275 33.4263 28.8341L33.34 25.8406C33.2401 25.7975 33.1402 25.7544 33.0381 25.709L33.1357 29.0906C33.5647 35.5315 35.3444 38.4842 38.8834 44.3509C39.0695 44.6573 39.2579 44.9727 39.4509 45.2927C39.6438 45.1952 39.8322 45.0998 40.0161 45.0068C41.4598 44.2783 42.6107 43.6995 43.496 42.8621C42.6539 43.5656 41.596 44.099 40.3044 44.7503H40.3067Z" fill="#001A46"/>
<path d="M47.5887 32.1135C44.7217 30.4907 41.9182 27.7265 39.5688 24.2019L39.537 24.1837C37.1875 24.9962 34.384 24.5264 31.517 22.8379L31.4126 22.9491C34.2751 24.6308 37.0717 25.0961 39.4167 24.2858L39.4484 24.304C41.7979 27.8286 44.6014 30.5951 47.4684 32.2156L47.5774 32.2769L47.423 37.4537C47.1279 41.6092 46.1631 43.6154 44.615 44.9726C46.2335 43.6154 47.2414 41.6137 47.5433 37.3515L47.6977 32.1747L47.5887 32.1135Z" fill="white"/>
<path d="M28.5456 32.1999C28.4821 32.1999 28.4321 32.15 28.4321 32.0864C28.4321 31.9298 28.4367 31.7778 28.4435 31.628C28.4457 31.5644 28.5002 31.5168 28.5615 31.519C28.6251 31.5213 28.6728 31.5758 28.6705 31.637C28.6637 31.7846 28.6614 31.9321 28.6614 32.0864C28.6614 32.15 28.6115 32.1999 28.5479 32.1999H28.5456ZM28.6137 31.0674C28.6137 31.0674 28.6047 31.0674 28.6001 31.0674C28.5388 31.0606 28.4934 31.0038 28.5025 30.9403C28.5207 30.7837 28.5456 30.6339 28.5729 30.4841C28.5842 30.4228 28.6432 30.382 28.7045 30.3933C28.7658 30.4047 28.8067 30.4637 28.7953 30.525C28.7681 30.668 28.7454 30.8155 28.7272 30.9675C28.7204 31.0243 28.6705 31.0674 28.6137 31.0674ZM28.8385 29.9576C28.8385 29.9576 28.818 29.9576 28.8067 29.9531C28.7454 29.9349 28.7113 29.8736 28.7295 29.8123C28.7726 29.6626 28.8226 29.515 28.8748 29.3743C28.8975 29.3153 28.9633 29.2858 29.0201 29.3085C29.0791 29.3312 29.1086 29.3947 29.0859 29.4538C29.036 29.5899 28.9883 29.7329 28.9452 29.8759C28.9315 29.9258 28.8861 29.9576 28.8362 29.9576H28.8385ZM29.2607 28.9068C29.2425 28.9068 29.2244 28.9023 29.2062 28.8932C29.1517 28.8637 29.129 28.7956 29.1585 28.7389C29.2312 28.6027 29.3106 28.4665 29.3969 28.3394C29.4309 28.2872 29.5036 28.2736 29.5535 28.3076C29.6057 28.3417 29.6193 28.412 29.5853 28.4642C29.5036 28.5868 29.4287 28.7139 29.3583 28.8433C29.3379 28.8818 29.2993 28.9045 29.2584 28.9045L29.2607 28.9068ZM29.9144 27.9831C29.8872 27.9831 29.8577 27.974 29.8373 27.9536C29.7919 27.9105 29.7896 27.8379 29.8327 27.7925C29.9394 27.679 30.0529 27.57 30.171 27.4702C30.2186 27.4293 30.2913 27.4361 30.3299 27.4838C30.3707 27.5315 30.3639 27.6041 30.3162 27.6427C30.205 27.7357 30.0983 27.8379 29.9962 27.9445C29.9735 27.9672 29.944 27.9808 29.9122 27.9808L29.9144 27.9831ZM30.802 27.2841C30.7634 27.2841 30.7248 27.2637 30.7021 27.2273C30.6704 27.1729 30.6908 27.1025 30.7453 27.073C30.8792 26.9981 31.0222 26.93 31.1652 26.8688C31.222 26.8461 31.2901 26.8733 31.3128 26.93C31.3355 26.9868 31.3082 27.0549 31.2515 27.0776C31.1153 27.1343 30.9814 27.1978 30.8565 27.2682C30.8383 27.2773 30.8202 27.2818 30.7998 27.2818L30.802 27.2841ZM31.8598 26.8869C31.8076 26.8869 31.76 26.8506 31.7486 26.7961C31.735 26.7349 31.7759 26.6736 31.8371 26.6622C31.987 26.6305 32.1413 26.6055 32.298 26.5919C32.3547 26.5873 32.416 26.6305 32.4228 26.694C32.4296 26.7553 32.3842 26.812 32.3207 26.8188C32.1731 26.8347 32.0256 26.8574 31.8848 26.8869C31.8757 26.8869 31.8689 26.8892 31.8621 26.8892L31.8598 26.8869Z" fill="#A8CFF0"/>
<path d="M33.081 42.8279C33.0515 42.8279 33.0197 42.8166 32.997 42.7916C32.8949 42.6804 32.7927 42.5669 32.6928 42.4512C32.652 42.4035 32.6565 42.3331 32.7042 42.29C32.7519 42.2492 32.8222 42.2537 32.8654 42.3014C32.9652 42.4148 33.0651 42.5283 33.165 42.6373C33.2081 42.6826 33.2036 42.7553 33.1582 42.7984C33.1355 42.8188 33.1082 42.8279 33.081 42.8279ZM32.3433 41.9677C32.3092 41.9677 32.2774 41.9541 32.2547 41.9246C32.1594 41.8066 32.0663 41.6863 31.9732 41.5638C31.9346 41.5138 31.9437 41.4435 31.9937 41.4049C32.0436 41.3663 32.114 41.3754 32.1526 41.4253C32.2434 41.5456 32.3364 41.6636 32.4295 41.7816C32.4681 41.8316 32.4613 41.9019 32.4114 41.9405C32.3909 41.9564 32.366 41.9655 32.341 41.9655L32.3433 41.9677ZM31.6622 41.0599C31.6259 41.0599 31.5919 41.044 31.5692 41.0123C31.4829 40.8875 31.3967 40.7626 31.3104 40.6355C31.2763 40.5833 31.29 40.513 31.3422 40.4789C31.3944 40.4449 31.4648 40.4585 31.4988 40.5107C31.5828 40.6355 31.6668 40.7604 31.753 40.8829C31.7894 40.9351 31.7757 41.0055 31.7258 41.0418C31.7054 41.0554 31.6827 41.0622 31.66 41.0622L31.6622 41.0599ZM31.038 40.1113C30.9994 40.1113 30.9631 40.0931 30.9404 40.0568C30.8609 39.9274 30.7815 39.7958 30.7066 39.6642C30.6748 39.6097 30.693 39.5394 30.7474 39.5098C30.8019 39.4781 30.87 39.4962 30.9018 39.5507C30.9767 39.6801 31.0539 39.8094 31.1333 39.9365C31.1651 39.9887 31.1492 40.0591 31.097 40.0931C31.0789 40.1045 31.0584 40.109 31.038 40.109V40.1113ZM30.4728 39.1286C30.4319 39.1286 30.3933 39.1059 30.3729 39.0696C30.3002 38.9357 30.2321 38.7995 30.1618 38.6633C30.1345 38.6066 30.155 38.5385 30.2117 38.5113C30.2662 38.484 30.3366 38.5044 30.3638 38.5612C30.4319 38.6951 30.5 38.829 30.5726 38.9606C30.6022 39.0151 30.5817 39.0854 30.525 39.115C30.5068 39.124 30.4887 39.1286 30.4705 39.1286H30.4728ZM29.9688 38.1118C29.9257 38.1118 29.8848 38.0869 29.8667 38.046C29.8031 37.9076 29.7418 37.7668 29.6805 37.6284C29.6556 37.5717 29.6805 37.5036 29.7395 37.4786C29.7986 37.4537 29.8644 37.4786 29.8894 37.5376C29.9484 37.6761 30.0097 37.8122 30.071 37.9507C30.0982 38.0074 30.071 38.0755 30.0142 38.1005C29.9983 38.1073 29.9824 38.1118 29.9665 38.1118H29.9688Z" fill="#A8CFF0"/>
<path d="M36.1185 43.1184C32.9405 41.2846 30.355 36.825 30.355 33.1779C30.355 31.394 30.9633 30.0618 32.0711 29.4218C33.188 28.7772 34.6657 28.9202 36.232 29.8258C36.7564 30.1276 37.274 30.5089 37.7734 30.9537L37.6213 31.1239C37.1332 30.6882 36.627 30.3182 36.1163 30.0232C34.6226 29.1608 33.2243 29.0178 32.1823 29.6192C31.1495 30.2161 30.5797 31.4802 30.5797 33.1779C30.5797 36.7524 33.1153 41.1235 36.2298 42.9209L36.1163 43.1184H36.1185Z" fill="#F76195"/>
<path d="M36.5588 43.2207C36.5498 43.4068 36.4226 43.4885 36.2728 43.4022C36.123 43.316 36.0095 43.0958 36.0186 42.9075C36.0277 42.7191 36.1548 42.6397 36.3046 42.7259C36.4544 42.8121 36.5679 43.0323 36.5588 43.2207Z" fill="#EB4680"/>
<path d="M38.0001 31.2806L37.1216 31.0604C37.0603 31.0445 37.024 30.9833 37.0399 30.922C37.0558 30.8607 37.117 30.8244 37.1783 30.8403L37.6391 30.956L37.4757 30.5135C37.453 30.4545 37.4848 30.3887 37.5415 30.3682C37.6006 30.3455 37.6664 30.3773 37.6868 30.434L38.0001 31.2806Z" fill="#F76195"/>
<path d="M33.0038 34.2764C33.0651 32.0023 34.72 31.0991 36.7471 32.2701C37.7913 32.8738 38.7356 33.911 39.4166 35.098L40.1657 34.9096C39.3145 33.364 38.0977 32.0001 36.7471 31.2216C34.1956 29.7487 32.1163 30.913 32.0845 33.8157L32.6838 34.3581L33.0038 34.2787V34.2764Z" fill="#F4A93D"/>
<path d="M38.629 41.3708C38.0751 41.4208 37.435 41.2664 36.7494 40.8715C34.829 39.7617 33.2423 37.179 33.0266 34.9163L32.1118 34.4556C32.1118 34.4715 31.8054 34.535 31.8076 34.5509C32.0732 37.3674 34.3591 40.5402 36.7494 41.92C37.6189 42.4216 38.2068 42.6849 38.9037 42.61C38.9332 42.6077 39.1874 42.5351 39.217 42.5306L38.6313 41.3686L38.629 41.3708Z" fill="#F4A93D"/>
<path d="M39.7708 35.7833C40.2248 36.7569 40.4972 37.7873 40.4972 38.7359C40.4972 40.0954 39.9433 40.9873 39.083 41.2801L39.6619 42.4284C40.7265 42.0631 41.412 40.951 41.412 39.2647C41.412 38.0891 41.0783 36.8068 40.5154 35.5972L39.7708 35.7833Z" fill="#F4A93D"/>
<path d="M38.0367 37.6694C37.7847 37.4561 37.5577 37.1837 37.3784 36.8819C37.2694 36.7003 37.274 36.5029 37.3784 36.4416C37.5146 36.3622 37.6349 36.2351 37.7144 36.0671C37.8301 36.0989 37.9732 36.0558 37.9732 35.8992C37.9732 35.7426 37.9028 35.5633 37.8074 35.4748C37.7802 34.7848 37.5441 34.0767 36.7496 33.6183C36.4727 33.4572 36.2638 33.4072 36.1072 33.4367C36.0709 33.4435 35.7553 33.5275 35.7258 33.5411C35.5102 33.6478 35.7077 33.8793 35.6918 34.2538C35.5964 34.2333 35.5261 34.3264 35.5261 34.4875C35.5261 34.6487 35.6691 34.8529 35.7849 34.9551C35.8643 35.2138 35.9846 35.4793 36.1208 35.7176C36.2275 35.9014 36.2298 36.1034 36.1208 36.1602C35.9415 36.2532 35.7145 36.2646 35.4625 36.1874C35.3626 36.1579 35.2696 36.1534 35.1878 36.1761C35.1651 36.1829 34.8814 36.2555 34.861 36.2668C34.7134 36.3395 34.8814 36.4484 34.8814 36.6981V37.4084C34.8814 37.5469 34.979 37.7148 35.0993 37.7829L38.1479 39.8005C38.2002 39.83 38.4998 39.7256 38.5384 39.7097C38.5861 39.6916 38.6178 39.6394 38.6178 39.5622V38.8518C38.6178 38.441 38.3704 37.9554 38.0367 37.6717V37.6694Z" fill="#F4A93D"/>
<path d="M32.7997 34.3355C32.861 32.0614 34.5159 31.1581 36.543 32.3292C37.5872 32.9329 38.5315 33.9701 39.2125 35.157L39.9616 34.9687C39.1104 33.4231 37.8936 32.0591 36.543 31.2807C33.9915 29.8078 31.9122 30.972 31.8804 33.8748L32.7997 34.3377V34.3355Z" fill="#F4A93D"/>
<path d="M38.4225 41.4299C37.8686 41.4798 37.2285 41.3255 36.5429 40.9306C34.6225 39.8208 33.0357 37.2381 32.8201 34.9754L31.9053 34.5146C32.1504 37.3425 34.1367 40.5902 36.5429 41.9791C37.4486 42.5011 38.2931 42.6918 39.0104 42.5896L38.4247 41.4276L38.4225 41.4299Z" fill="#F4A93D"/>
<path d="M39.5667 35.8424C40.0207 36.816 40.2931 37.8463 40.2931 38.795C40.2931 40.1545 39.7392 41.0464 38.8789 41.3391L39.4578 42.4875C40.5224 42.1221 41.2079 41.0101 41.2079 39.3238C41.2079 38.1482 40.8742 36.8659 40.3113 35.6562L39.5667 35.8424Z" fill="#F4A93D"/>
<path d="M37.8301 37.7262C37.5781 37.5129 37.3511 37.2405 37.1718 36.9387C37.0629 36.7571 37.0674 36.5596 37.1718 36.4984C37.308 36.4189 37.4283 36.2918 37.5078 36.1239C37.6235 36.1557 37.7666 36.1126 37.7666 35.956C37.7666 35.7994 37.6962 35.6201 37.6009 35.5316C37.5736 34.8416 37.3375 34.1335 36.543 33.6751C35.7485 33.2166 35.5147 33.6547 35.4852 34.3105C35.3899 34.2901 35.3195 34.3832 35.3195 34.5443C35.3195 34.7054 35.4625 34.9097 35.5783 35.0118C35.6577 35.2706 35.778 35.5361 35.9142 35.7744C36.0209 35.9582 36.0232 36.1602 35.9142 36.217C35.7349 36.31 35.5079 36.3214 35.2559 36.2442C34.9222 36.1443 34.6748 36.344 34.6748 36.7548V37.4652C34.6748 37.6036 34.7724 37.7716 34.8927 37.8397L38.1933 39.7438C38.3136 39.8142 38.4112 39.7574 38.4112 39.619V38.9086C38.4112 38.4978 38.1638 38.0121 37.8301 37.7285V37.7262Z" fill="#F4A93D"/>
<path d="M32.6816 34.365C32.7429 32.091 34.3977 31.1877 36.4248 32.3588C37.469 32.9624 38.4133 33.9996 39.0943 35.1866L39.8435 34.9982C38.9922 33.4527 37.7755 32.0887 36.4248 31.3102C33.8733 29.8373 31.794 31.0016 31.7622 33.9043L32.6816 34.3673V34.365Z" fill="#F4A93D"/>
<path d="M38.3068 41.4594C37.7529 41.5094 37.1127 41.355 36.4272 40.9601C34.5068 39.8503 32.92 37.2676 32.7044 35.0049L31.7896 34.5442C32.0347 37.372 34.021 40.6197 36.4272 42.0087C37.3329 42.5307 38.1774 42.7213 38.8947 42.6192L38.309 41.4572L38.3068 41.4594Z" fill="#F4A93D"/>
<path d="M39.4505 35.8719C39.9045 36.8455 40.1769 37.8759 40.1769 38.8245C40.1769 40.184 39.623 41.0759 38.7627 41.3687L39.3415 42.5171C40.4062 42.1517 41.0917 41.0396 41.0917 39.3533C41.0917 38.1777 40.758 36.8954 40.1951 35.6858L39.4505 35.8719Z" fill="#F4A93D"/>
<path d="M37.7144 37.7555C37.4624 37.5421 37.2354 37.2698 37.0561 36.968C36.9471 36.7864 36.9517 36.5889 37.0561 36.5277C37.1923 36.4482 37.3126 36.3211 37.3921 36.1532C37.5078 36.185 37.6508 36.1419 37.6508 35.9853C37.6508 35.8287 37.5805 35.6494 37.4851 35.5609C37.4579 34.8709 37.2218 34.1628 36.4273 33.7044C35.6328 33.2459 35.399 33.684 35.3695 34.3398C35.2741 34.3194 35.2038 34.4125 35.2038 34.5736C35.2038 34.7347 35.3468 34.939 35.4625 35.0411C35.542 35.2999 35.6623 35.5654 35.7985 35.8037C35.9052 35.9875 35.9075 36.1895 35.7985 36.2462C35.6192 36.3393 35.3922 36.3506 35.1402 36.2735C34.8065 36.1736 34.5591 36.3733 34.5591 36.7841V37.4945C34.5591 37.6329 34.6567 37.8009 34.777 37.869L38.0776 39.7731C38.1979 39.8435 38.2955 39.7867 38.2955 39.6483V38.9379C38.2955 38.5271 38.0481 38.0414 37.7144 37.7578V37.7555Z" fill="#F4A93D"/>
<path d="M69.81 49.2214L60.9864 44.1218C60.4825 43.8313 60.0762 43.0528 60.0762 42.3833V40.2931C60.0762 39.6236 60.4848 39.3149 60.9864 39.6054L69.81 44.705C70.3139 44.9955 70.7203 45.774 70.7203 46.4435V48.5337C70.7203 49.2032 70.3117 49.5119 69.81 49.2214Z" fill="#02D4EA"/>
<path d="M69.9256 48.3475L61.2405 43.3273C60.8364 43.0708 60.5845 42.5556 60.5845 42.0314V40.5335C60.5845 40.4087 60.7207 40.3315 60.8274 40.3951C60.841 40.4019 60.8501 40.4087 60.8569 40.4109L69.551 45.4379C70.0323 45.7148 70.2071 46.2096 70.2071 46.7338V48.209C70.2071 48.3429 70.0618 48.4269 69.946 48.3611L69.9256 48.3497V48.3475Z" fill="#084C94"/>
<path d="M70.0936 48.2409L70.0731 48.2296L61.3881 43.2094C60.984 42.9529 60.732 42.4378 60.732 41.9135V40.4156C60.732 40.402 60.732 40.3884 60.7366 40.3748C60.6571 40.3793 60.5845 40.4451 60.5845 40.5359V42.0338C60.5845 42.5603 60.8342 43.0732 61.2405 43.3297L69.9256 48.3499L69.946 48.3612C70.0459 48.418 70.1662 48.3635 70.198 48.2636C70.1639 48.2682 70.1253 48.2636 70.0913 48.2432L70.0936 48.2409Z" fill="#001A46"/>
<path d="M70.2392 44.4848L61.4157 39.3851C61.2159 39.2694 61.032 39.249 60.8822 39.308C60.864 39.3148 60.4395 39.5327 60.4214 39.5417C60.5757 39.4668 60.7732 39.4805 60.9889 39.6053L69.8124 44.7049C70.3164 44.9954 70.7227 45.7739 70.7227 46.4434V48.5336C70.7227 48.9512 70.5638 49.2281 70.3232 49.3075C70.3436 49.3075 70.3663 49.3007 70.4026 49.2803C70.414 49.2735 70.8612 49.0375 70.8725 49.0284C71.045 48.9081 71.154 48.6584 71.154 48.3135V46.2232C71.154 45.5537 70.7454 44.773 70.2437 44.4848H70.2392Z" fill="#02D4EA"/>
<path d="M70.2392 44.4848L61.4157 39.3851C61.2159 39.2694 61.032 39.249 60.8822 39.308C60.864 39.3148 60.4395 39.5327 60.4214 39.5417C60.5757 39.4668 60.7732 39.4805 60.9889 39.6053L69.8124 44.7049L70.2415 44.487L70.2392 44.4848Z" fill="#02D4EA"/>
<path opacity="0.7" d="M69.8533 44.6821L61.0298 39.5825C60.8232 39.4645 60.6348 39.4463 60.4805 39.5121C60.6099 39.4917 60.7597 39.5235 60.9186 39.6143L69.7421 44.7139C70.2461 45.0044 70.6524 45.7829 70.6524 46.4524V48.5426C70.6524 48.9375 70.5094 49.2053 70.2892 49.3006C70.5707 49.2552 70.7614 48.967 70.7614 48.5086V46.4183C70.7614 45.7488 70.3528 44.9681 69.8511 44.6799L69.8533 44.6821Z" fill="white"/>
<path d="M67.769 45.6151C67.769 45.9623 68.0142 46.3867 68.3184 46.5615C68.6226 46.7363 68.8677 46.5955 68.8677 46.2483C68.8677 45.9011 68.6226 45.4767 68.3184 45.3019C68.0142 45.1272 67.769 45.2679 67.769 45.6151Z" fill="#001A46"/>
<path d="M66.355 44.7936C66.355 45.1408 66.6001 45.5652 66.9043 45.74C67.2085 45.9147 67.4537 45.774 67.4537 45.4268C67.4537 45.0795 67.2085 44.6551 66.9043 44.4804C66.6001 44.3056 66.355 44.4463 66.355 44.7936Z" fill="#001A46"/>
<path d="M64.9385 43.972C64.9385 44.3193 65.1836 44.7437 65.4878 44.9184C65.792 45.0932 66.0372 44.9525 66.0372 44.6052C66.0372 44.258 65.792 43.8336 65.4878 43.6588C65.1836 43.4841 64.9385 43.6248 64.9385 43.972Z" fill="#001A46"/>
<path d="M63.522 43.1481C63.522 43.4953 63.7671 43.9197 64.0713 44.0945C64.3755 44.2692 64.6207 44.1285 64.6207 43.7813C64.6207 43.434 64.3755 43.0096 64.0713 42.8349C63.7671 42.6601 63.522 42.8008 63.522 43.1481Z" fill="#001A46"/>
<path d="M62.1055 42.3265C62.1055 42.6738 62.3506 43.0982 62.6548 43.2729C62.959 43.4477 63.2042 43.307 63.2042 42.9597C63.2042 42.6125 62.959 42.1881 62.6548 42.0133C62.3506 41.8386 62.1055 41.9793 62.1055 42.3265Z" fill="#001A46"/>
<path d="M67.6016 45.6263C67.6016 45.9736 67.8467 46.398 68.1509 46.5727C68.4551 46.7475 68.7002 46.6068 68.7002 46.2595C68.7002 45.9123 68.4551 45.4879 68.1509 45.3131C67.8467 45.1384 67.6016 45.2791 67.6016 45.6263Z" fill="white"/>
<path d="M66.1851 44.8048C66.1851 45.152 66.4302 45.5764 66.7344 45.7512C67.0386 45.9259 67.2837 45.7852 67.2837 45.438C67.2837 45.0908 67.0386 44.6664 66.7344 44.4916C66.4302 44.3169 66.1851 44.4576 66.1851 44.8048Z" fill="white"/>
<path d="M64.7686 43.9833C64.7686 44.3305 65.0137 44.7549 65.3179 44.9297C65.6221 45.1044 65.8672 44.9637 65.8672 44.6165C65.8672 44.2692 65.6221 43.8448 65.3179 43.6701C65.0137 43.4953 64.7686 43.636 64.7686 43.9833Z" fill="white"/>
<path d="M63.3521 43.1593C63.3521 43.5065 63.5972 43.9309 63.9014 44.1057C64.2056 44.2804 64.4507 44.1397 64.4507 43.7925C64.4507 43.4453 64.2056 43.0209 63.9014 42.8461C63.5972 42.6713 63.3521 42.8121 63.3521 43.1593Z" fill="white"/>
<path d="M61.9355 42.3378C61.9355 42.685 62.1807 43.1094 62.4849 43.2842C62.7891 43.4589 63.0342 43.3182 63.0342 42.971C63.0342 42.6237 62.7891 42.1993 62.4849 42.0246C62.1807 41.8498 61.9355 41.9905 61.9355 42.3378Z" fill="white"/>
<path opacity="0.2" d="M68.4296 68.4149L61.4606 64.4047C60.7365 63.9871 60.8273 63.254 61.6627 62.7706C62.5003 62.2872 65.2697 62.2849 65.9961 62.7025L72.1751 66.268C73.2874 66.9239 72.1864 67.8271 71.258 68.2969C70.4204 68.7803 69.1537 68.8325 68.4296 68.4149Z" fill="#92B4D1"/>
<path d="M71.1443 59.9926L61.0677 56.2366V63.7079C61.036 63.9507 61.1631 64.1867 61.4605 64.3592L68.275 68.3037C68.8652 68.6441 69.8958 68.601 70.5768 68.2083C70.9378 67.9995 71.1284 67.7363 71.1398 67.4821H71.1421V59.9926H71.1443Z" fill="#72B5E8"/>
<path d="M68.2752 60.7959L61.4606 56.8515C60.8704 56.5111 60.9453 55.9164 61.6263 55.5215C62.3073 55.1289 63.3379 55.0858 63.9281 55.4262L70.7427 59.3707C71.3329 59.7111 71.258 60.3057 70.577 60.7006C69.896 61.0932 68.8654 61.1363 68.2752 60.7959Z" fill="#A8CFF0"/>
<path d="M70.5794 60.6054C69.8984 60.998 68.8678 61.0411 68.2776 60.7007L61.463 56.7563C61.2156 56.6133 61.0885 56.4272 61.068 56.2297C61.0408 56.468 61.1679 56.7018 61.463 56.872L68.2776 60.8165C68.8678 61.1569 69.8984 61.1138 70.5794 60.7211C70.9767 60.4919 71.1651 60.1946 71.1401 59.9177C71.1106 60.1583 70.9222 60.4079 70.5794 60.6054Z" fill="white"/>
<path d="M66.777 50.8419C64.8747 49.7457 62.498 51.1188 62.498 53.3157V56.4113V56.4158C62.498 56.7199 62.918 56.9628 63.4356 56.9628C63.9531 56.9628 64.3731 56.7177 64.3731 56.4181C64.3731 56.4136 64.3731 56.4113 64.3731 56.4068H64.3822V53.7151C64.3822 52.7846 65.3878 52.2036 66.1936 52.6666C67.1289 53.2044 67.7077 54.2008 67.7077 55.2811V59.4071H67.7168C67.7259 59.7021 68.1413 59.9404 68.6521 59.9404C69.1628 59.9404 69.5828 59.6998 69.5896 59.4003V55.7055C69.5896 53.6969 68.5181 51.8427 66.777 50.8396V50.8419Z" fill="#2672AB"/>
<path d="M66.7226 52.2694C66.6659 52.2354 66.6069 52.2081 66.5479 52.1809C67.449 52.7869 67.9984 53.8082 67.9984 54.9021V59.7452C68.0983 59.8065 68.2231 59.8519 68.3639 59.8791V55.1086C68.3639 53.9398 67.7351 52.8504 66.7226 52.2672V52.2694Z" fill="#3F92D1"/>
<path d="M64.82 51.7747C63.9756 51.7747 63.2855 52.4623 63.2855 53.3089V56.5407L63.2764 56.8766C63.2696 56.9038 63.8008 56.8607 63.8144 56.813L63.8235 56.4771V53.2453C63.8235 52.5554 64.2798 51.9721 64.9063 51.7792C64.8768 51.7792 64.8473 51.7769 64.8178 51.7769L64.82 51.7747Z" fill="#084C94"/>
<path d="M65.7397 51.1119C66.2255 51.1119 66.6931 51.23 67.1335 51.4615C66.9701 51.3389 66.7975 51.2254 66.6182 51.121C66.2232 50.8941 65.801 50.7783 65.3584 50.7783C64.1394 50.7783 62.8228 51.7474 62.8228 53.3134V53.3202C63.1996 51.9358 64.5116 51.1097 65.742 51.1097L65.7397 51.1119Z" fill="#3F92D1"/>
<path d="M68.8675 56.2729V59.8951C69.0514 59.8701 69.2148 59.8111 69.3351 59.7317C69.3556 59.6908 69.3669 59.6477 69.3669 59.6046V55.9098C69.3669 54.312 68.8652 54.6434 68.8652 56.2729H68.8675Z" fill="#084C94"/>
<path d="M66.1754 62.1193C66.1754 61.5337 65.7623 60.8211 65.2515 60.5261C64.7408 60.231 64.3276 60.467 64.3276 61.0526C64.3276 61.4475 64.516 61.8991 64.7953 62.2418V64.096L65.7078 64.6226V62.7683C65.987 62.7479 66.1754 62.5119 66.1754 62.117V62.1193Z" fill="#084C94"/>
<path d="M64.9542 64.0278V62.1736C64.6749 61.8309 64.4865 61.377 64.4865 60.9843C64.4865 60.7097 64.5796 60.5123 64.7294 60.4102C64.4865 60.4624 64.3276 60.6893 64.3276 61.0524C64.3276 61.4473 64.516 61.899 64.7953 62.2417V64.0959L65.7078 64.6224V64.4613L64.9542 64.0255V64.0278Z" fill="#001A46"/>
</g>
<defs>
<linearGradient id="paint0_linear_186_13483" x1="40.7471" y1="33.8293" x2="58.7841" y2="28.798" gradientUnits="userSpaceOnUse">
<stop offset="0.06" stop-color="#92A3B0"/>
<stop offset="1" stop-color="white"/>
</linearGradient>
<linearGradient id="paint1_linear_186_13483" x1="40.7108" y1="33.9768" x2="58.1894" y2="29.1022" gradientUnits="userSpaceOnUse">
<stop offset="0.06" stop-color="#92A3B0"/>
<stop offset="1" stop-color="white"/>
</linearGradient>
<linearGradient id="paint2_linear_186_13483" x1="40.6743" y1="34.1243" x2="57.6058" y2="29.404" gradientUnits="userSpaceOnUse">
<stop offset="0.06" stop-color="#92A3B0"/>
<stop offset="1" stop-color="white"/>
</linearGradient>
<linearGradient id="paint3_linear_186_13483" x1="40.638" y1="34.2742" x2="57.0293" y2="29.7016" gradientUnits="userSpaceOnUse">
<stop offset="0.06" stop-color="#92A3B0"/>
<stop offset="1" stop-color="white"/>
</linearGradient>
<linearGradient id="paint4_linear_186_13483" x1="40.6041" y1="34.4216" x2="56.4642" y2="29.9988" gradientUnits="userSpaceOnUse">
<stop offset="0.06" stop-color="#92A3B0"/>
<stop offset="1" stop-color="white"/>
</linearGradient>
<linearGradient id="paint5_linear_186_13483" x1="40.5678" y1="34.5714" x2="55.9058" y2="30.2939" gradientUnits="userSpaceOnUse">
<stop offset="0.06" stop-color="#92A3B0"/>
<stop offset="1" stop-color="white"/>
</linearGradient>
<linearGradient id="paint6_linear_186_13483" x1="40.5315" y1="34.7213" x2="55.3565" y2="30.5869" gradientUnits="userSpaceOnUse">
<stop offset="0.06" stop-color="#92A3B0"/>
<stop offset="1" stop-color="white"/>
</linearGradient>
<linearGradient id="paint7_linear_186_13483" x1="40.495" y1="34.8709" x2="54.8161" y2="30.875" gradientUnits="userSpaceOnUse">
<stop offset="0.06" stop-color="#92A3B0"/>
<stop offset="1" stop-color="white"/>
</linearGradient>
<linearGradient id="paint8_linear_186_13483" x1="40.4611" y1="35.0208" x2="54.2851" y2="31.1656" gradientUnits="userSpaceOnUse">
<stop offset="0.06" stop-color="#92A3B0"/>
<stop offset="1" stop-color="white"/>
</linearGradient>
<linearGradient id="paint9_linear_186_13483" x1="40.4246" y1="35.1705" x2="53.7605" y2="31.4515" gradientUnits="userSpaceOnUse">
<stop offset="0.06" stop-color="#92A3B0"/>
<stop offset="1" stop-color="white"/>
</linearGradient>
<linearGradient id="paint10_linear_186_13483" x1="40.3907" y1="35.3226" x2="53.2477" y2="31.7353" gradientUnits="userSpaceOnUse">
<stop offset="0.06" stop-color="#92A3B0"/>
<stop offset="1" stop-color="white"/>
</linearGradient>
<linearGradient id="paint11_linear_186_13483" x1="40.3544" y1="35.4748" x2="52.7415" y2="32.0192" gradientUnits="userSpaceOnUse">
<stop offset="0.06" stop-color="#92A3B0"/>
<stop offset="1" stop-color="white"/>
</linearGradient>
<linearGradient id="paint12_linear_186_13483" x1="40.3204" y1="35.6267" x2="52.2467" y2="32.3005" gradientUnits="userSpaceOnUse">
<stop offset="0.06" stop-color="#92A3B0"/>
<stop offset="1" stop-color="white"/>
</linearGradient>
<linearGradient id="paint13_linear_186_13483" x1="40.2863" y1="35.781" x2="51.7586" y2="32.5797" gradientUnits="userSpaceOnUse">
<stop offset="0.06" stop-color="#92A3B0"/>
<stop offset="1" stop-color="white"/>
</linearGradient>
<linearGradient id="paint14_linear_186_13483" x1="40.2523" y1="35.9353" x2="51.2819" y2="32.8589" gradientUnits="userSpaceOnUse">
<stop offset="0.06" stop-color="#92A3B0"/>
<stop offset="1" stop-color="white"/>
</linearGradient>
<linearGradient id="paint15_linear_186_13483" x1="40.2182" y1="36.092" x2="50.8121" y2="33.1381" gradientUnits="userSpaceOnUse">
<stop offset="0.06" stop-color="#92A3B0"/>
<stop offset="1" stop-color="white"/>
</linearGradient>
<linearGradient id="paint16_linear_186_13483" x1="40.1863" y1="36.2532" x2="50.3534" y2="33.4174" gradientUnits="userSpaceOnUse">
<stop offset="0.06" stop-color="#92A3B0"/>
<stop offset="1" stop-color="white"/>
</linearGradient>
<linearGradient id="paint17_linear_186_13483" x1="40.1547" y1="36.4142" x2="49.9041" y2="33.6942" gradientUnits="userSpaceOnUse">
<stop offset="0.06" stop-color="#92A3B0"/>
<stop offset="1" stop-color="white"/>
</linearGradient>
<linearGradient id="paint18_linear_186_13483" x1="40.1229" y1="36.5801" x2="49.4637" y2="33.9759" gradientUnits="userSpaceOnUse">
<stop offset="0.06" stop-color="#92A3B0"/>
<stop offset="1" stop-color="white"/>
</linearGradient>
<linearGradient id="paint19_linear_186_13483" x1="40.0934" y1="36.7525" x2="49.0347" y2="34.2596" gradientUnits="userSpaceOnUse">
<stop offset="0.06" stop-color="#92A3B0"/>
<stop offset="1" stop-color="white"/>
</linearGradient>
<linearGradient id="paint20_linear_186_13483" x1="40.0661" y1="36.9294" x2="48.6147" y2="34.5455" gradientUnits="userSpaceOnUse">
<stop offset="0.06" stop-color="#92A3B0"/>
<stop offset="1" stop-color="white"/>
</linearGradient>
<linearGradient id="paint21_linear_186_13483" x1="40.0412" y1="37.1155" x2="48.2062" y2="34.8382" gradientUnits="userSpaceOnUse">
<stop offset="0.06" stop-color="#92A3B0"/>
<stop offset="1" stop-color="white"/>
</linearGradient>
<radialGradient id="paint22_radial_186_13483" cx="0" cy="0" r="1" gradientUnits="userSpaceOnUse" gradientTransform="translate(-150.618 -74.5976) rotate(-150.005) scale(5.27296 4.53426)">
<stop offset="0.06" stop-color="#92A3B0"/>
<stop offset="1" stop-color="white"/>
</radialGradient>
<clipPath id="clip0_186_13483">
<rect width="55.9286" height="55.2857" fill="white" transform="translate(16.7144 17.3572)"/>
</clipPath>
</defs>
</svg>
