<svg width="103" height="90" viewBox="0 0 103 90" fill="none" xmlns="http://www.w3.org/2000/svg">
<circle cx="51.75" cy="45" r="45" fill="#0F3785"/>
<g clip-path="url(#clip0_184_12462)">
<g opacity="0.5">
<path style="mix-blend-mode:lighten" opacity="0.4" d="M85.7142 78.75L94.0947 73.8844L77.4254 64.3279L69.0449 69.1935L85.7142 78.75Z" fill="url(#paint0_linear_184_12462)"/>
</g>
<g opacity="0.5">
<path style="mix-blend-mode:lighten" opacity="0.4" d="M51.5013 78.75L59.8799 73.8844L43.2125 64.3279L34.832 69.1935L51.5013 78.75Z" fill="url(#paint1_linear_184_12462)"/>
</g>
<g opacity="0.5">
<path style="mix-blend-mode:lighten" opacity="0.4" d="M18.1149 78.75L9.73633 73.8844L26.4037 64.3279L34.7842 69.1935L18.1149 78.75Z" fill="url(#paint2_linear_184_12462)"/>
</g>
<path d="M34.7842 69.3114L26.23 64.4002L34.7842 59.491L43.3384 64.4002L34.7842 69.3114Z" fill="url(#paint3_linear_184_12462)"/>
<path d="M34.7842 67.8988L26.23 62.9876L34.7842 58.0784L43.3384 62.9876L34.7842 67.8988Z" fill="url(#paint4_linear_184_12462)"/>
<g opacity="0.9">
<path d="M34.7844 59.1757L28.1797 55.3846L34.7844 51.5935L41.3891 55.3846L34.7844 59.1757Z" fill="url(#paint5_linear_184_12462)"/>
<path d="M41.3889 55.3845V62.9876L34.7842 66.7787V59.1756L41.3889 55.3845Z" fill="url(#paint6_linear_184_12462)"/>
<path d="M28.1797 55.3845V62.9876L34.7844 66.7787V59.1756L28.1797 55.3845Z" fill="url(#paint7_linear_184_12462)"/>
</g>
<path style="mix-blend-mode:lighten" opacity="0.7" d="M34.7844 66.7787L28.1797 62.9876L34.7844 59.1965L41.3891 62.9876L34.7844 66.7787Z" fill="url(#paint8_linear_184_12462)"/>
<path d="M43.3384 62.9878V64.4002L34.7842 69.3113V67.8989L43.3384 62.9878Z" fill="#421EA5"/>
<path d="M26.23 62.9878V64.4002L34.7842 69.3113V67.8989L26.23 62.9878Z" fill="url(#paint9_linear_184_12462)"/>
<g style="mix-blend-mode:lighten" opacity="0.7">
<path d="M26.23 62.9878V64.4002L34.7842 69.3113V67.8989L26.23 62.9878Z" fill="#8858FA"/>
</g>
<path d="M34.7842 57.5013L26.23 52.5921L34.7842 47.6809L43.3384 52.5921L34.7842 57.5013Z" fill="url(#paint10_linear_184_12462)"/>
<path d="M34.7842 56.089L26.23 51.1797L34.7842 46.2686L43.3384 51.1797L34.7842 56.089Z" fill="url(#paint11_linear_184_12462)"/>
<path style="mix-blend-mode:lighten" opacity="0.7" d="M34.7842 56.089L26.23 51.1797L34.7842 46.2686L43.3384 51.1797L34.7842 56.089Z" fill="url(#paint12_linear_184_12462)"/>
<path opacity="0.3" d="M34.7844 52.9984L31.6167 51.1797L34.7844 49.3611L37.9522 51.1797L34.7844 52.9984Z" fill="#42E8E0"/>
<path opacity="0.3" d="M34.7844 50.595L36.8772 51.7967L37.9522 51.1797L34.7844 49.3611L31.6167 51.1797L32.6917 51.7967L34.7844 50.595Z" fill="#42E8E0"/>
<path d="M34.7844 50.595L36.8772 51.7967L37.9522 51.1797L34.7844 49.3611L31.6167 51.1797L32.6917 51.7967L34.7844 50.595Z" fill="#42E8E0"/>
<path d="M43.3384 51.1797V52.5921L34.7842 57.5013V56.0889L43.3384 51.1797Z" fill="#421EA5"/>
<path d="M26.23 51.1797V52.5921L34.7842 57.5013V56.0889L26.23 51.1797Z" fill="url(#paint13_linear_184_12462)"/>
<g style="mix-blend-mode:lighten" opacity="0.7">
<path d="M26.23 51.1797V52.5921L34.7842 57.5013V56.0889L26.23 51.1797Z" fill="#8858FA"/>
</g>
<path opacity="0.3" d="M34.7842 57.5013V67.8988L26.23 62.9877V52.592L34.7842 57.5013Z" fill="#42E8E0"/>
<path opacity="0.3" d="M28.1797 53.7102V62.9877L34.7844 66.7788L41.3891 62.9877V53.7102L34.7844 57.5013L28.1797 53.7102Z" fill="#42E8E0"/>
<path opacity="0.3" d="M34.7844 57.5013V66.7788L28.1797 62.9877V53.7102L34.7844 57.5013Z" fill="#42E8E0"/>
<path opacity="0.5" d="M26.23 52.592V62.9877L34.7842 67.8988L43.3384 62.9877V52.592L34.7842 57.5013L26.23 52.592Z" fill="#5CFFF3"/>
<path style="mix-blend-mode:lighten" d="M26.4324 51.1797L34.8854 46.3274L34.7842 46.2686L26.23 51.1797L34.7842 56.089L34.8854 56.032L26.4324 51.1797Z" fill="url(#paint14_linear_184_12462)"/>
<path opacity="0.5" d="M26.23 52.592V62.9877L26.3484 63.056V52.6585L26.23 52.592Z" fill="#42E8E0"/>
<path opacity="0.5" d="M43.3386 52.592V62.9877L43.2202 63.056V52.6585L43.3386 52.592Z" fill="#42E8E0"/>
<path opacity="0.5" d="M34.7844 57.5013L34.582 57.3855V67.783L34.7844 67.8988L34.9868 67.783V57.3855L34.7844 57.5013Z" fill="#42E8E0"/>
<g style="mix-blend-mode:lighten" opacity="0.7">
<path d="M38.25 51.8859V24.75H31.5203L31.5 51.8859L34.875 53.25L38.25 51.8859Z" fill="url(#paint15_linear_184_12462)"/>
</g>
<path opacity="0.9" d="M35.4527 48.6964C35.4527 48.8236 35.3477 48.9281 35.2198 48.9281C35.0918 48.9281 34.9868 48.8236 34.9868 48.6964C34.9868 48.5693 35.0918 48.4648 35.2198 48.4648C35.3477 48.4648 35.4527 48.5693 35.4527 48.6964Z" fill="#42E8E0"/>
<path opacity="0.3" d="M32.2848 47.003C32.3639 47.003 32.428 46.9393 32.428 46.8606C32.428 46.782 32.3639 46.7183 32.2848 46.7183C32.2057 46.7183 32.1416 46.782 32.1416 46.8606C32.1416 46.9393 32.2057 47.003 32.2848 47.003Z" fill="#42E8E0"/>
<path opacity="0.2" d="M33.2872 45.3895C33.3684 45.3895 33.4342 45.3241 33.4342 45.2433C33.4342 45.1626 33.3684 45.0972 33.2872 45.0972C33.206 45.0972 33.1401 45.1626 33.1401 45.2433C33.1401 45.3241 33.206 45.3895 33.2872 45.3895Z" fill="#42E8E0"/>
<path opacity="0.2" d="M37.6788 44.7117C37.6788 44.7629 37.6368 44.8047 37.5853 44.8047C37.5337 44.8047 37.4917 44.7629 37.4917 44.7117C37.4917 44.6604 37.5337 44.6187 37.5853 44.6187C37.6368 44.6187 37.6788 44.6604 37.6788 44.7117Z" fill="#42E8E0"/>
<path opacity="0.2" d="M37.2455 44.4251C37.3531 44.4251 37.4403 44.3384 37.4403 44.2315C37.4403 44.1245 37.3531 44.0378 37.2455 44.0378C37.138 44.0378 37.0508 44.1245 37.0508 44.2315C37.0508 44.3384 37.138 44.4251 37.2455 44.4251Z" fill="#42E8E0"/>
<path opacity="0.2" d="M32.888 45.044C32.9397 45.044 32.9816 45.0023 32.9816 44.9509C32.9816 44.8996 32.9397 44.8579 32.888 44.8579C32.8363 44.8579 32.7944 44.8996 32.7944 44.9509C32.7944 45.0023 32.8363 45.044 32.888 45.044Z" fill="#42E8E0"/>
<path opacity="0.3" d="M32.8689 49.4749C32.8689 49.5546 32.804 49.6173 32.7257 49.6173C32.6474 49.6173 32.5825 49.5527 32.5825 49.4749C32.5825 49.3971 32.6474 49.3325 32.7257 49.3325C32.804 49.3325 32.8689 49.3971 32.8689 49.4749Z" fill="#42E8E0"/>
<path opacity="0.2" d="M33.7286 48.0016C33.8098 48.0016 33.8756 47.9361 33.8756 47.8554C33.8756 47.7747 33.8098 47.7092 33.7286 47.7092C33.6474 47.7092 33.5815 47.7747 33.5815 47.8554C33.5815 47.9361 33.6474 48.0016 33.7286 48.0016Z" fill="#42E8E0"/>
<path opacity="0.2" d="M33.3294 47.658C33.3811 47.658 33.423 47.6163 33.423 47.5649C33.423 47.5136 33.3811 47.4719 33.3294 47.4719C33.2777 47.4719 33.2358 47.5136 33.2358 47.5649C33.2358 47.6163 33.2777 47.658 33.3294 47.658Z" fill="#42E8E0"/>
<path opacity="0.9" d="M34.6888 46.39C34.7174 46.5001 34.8301 46.5665 34.9408 46.5381C35.0516 46.5096 35.1184 46.3976 35.0897 46.2875C35.0611 46.1774 34.9484 46.1109 34.8377 46.1394C34.7269 46.1679 34.6601 46.2799 34.6888 46.39Z" fill="#42E8E0"/>
<path opacity="0.3" d="M36.8847 44.1498C36.9019 44.2181 36.9725 44.258 37.0394 44.2409C37.1062 44.2238 37.1482 44.1536 37.131 44.0871C37.1138 44.0207 37.0432 43.9789 36.9764 43.996C36.9095 44.0131 36.8675 44.0833 36.8847 44.1498Z" fill="#42E8E0"/>
<path opacity="0.2" d="M35.6622 42.9785C35.6794 43.0469 35.75 43.0886 35.8207 43.0716C35.8894 43.0545 35.9333 42.9842 35.9142 42.914C35.8971 42.8456 35.8264 42.8039 35.7558 42.821C35.687 42.838 35.6431 42.9083 35.6622 42.9785Z" fill="#42E8E0"/>
<path opacity="0.2" d="M31.8913 43.4493C31.9028 43.4929 31.9467 43.5195 31.9906 43.5081C32.0345 43.4967 32.0613 43.4531 32.0498 43.4094C32.0384 43.3657 31.9944 43.3391 31.9505 43.3505C31.9066 43.3619 31.8799 43.4056 31.8913 43.4493Z" fill="#42E8E0"/>
<path opacity="0.2" d="M31.9926 42.9824C32.0155 43.0735 32.111 43.1305 32.2027 43.1058C32.2943 43.0811 32.3516 42.9881 32.3268 42.897C32.3039 42.8059 32.2084 42.7489 32.1167 42.7736C32.0251 42.7964 31.9678 42.8913 31.9926 42.9824Z" fill="#42E8E0"/>
<path opacity="0.2" d="M35.985 42.6293C35.9964 42.6729 36.0422 42.7014 36.0862 42.69C36.1301 42.6786 36.1587 42.6331 36.1473 42.5894C36.1358 42.5457 36.09 42.5173 36.0461 42.5286C36.0021 42.54 35.9735 42.5856 35.985 42.6293Z" fill="#42E8E0"/>
<path opacity="0.2" d="M36.9876 49.5623C36.9494 49.5946 36.8902 49.5908 36.8577 49.5509C36.8253 49.5129 36.8291 49.4541 36.8692 49.4218C36.9074 49.3895 36.9666 49.3933 36.999 49.4332C37.0315 49.4712 37.0277 49.53 36.9876 49.5623Z" fill="#42E8E0"/>
<path opacity="0.2" d="M37.2016 49.0705C37.1195 49.1388 36.9973 49.1293 36.9286 49.0477C36.8598 48.9661 36.8694 48.8446 36.9515 48.7762C37.0336 48.7079 37.1558 48.7174 37.2245 48.799C37.2933 48.8806 37.2837 49.0021 37.2016 49.0705Z" fill="#42E8E0"/>
<path opacity="0.3" d="M36.9035 48.5978C36.8634 48.6547 36.8767 48.7344 36.934 48.7743C36.9913 48.8142 37.0715 48.8009 37.1116 48.7439C37.1517 48.687 37.1383 48.6073 37.081 48.5674C37.0237 48.5275 36.9436 48.5408 36.9035 48.5978Z" fill="#42E8E0"/>
<path opacity="0.2" d="M37.0122 46.9121C36.9702 46.971 36.9836 47.0507 37.0428 47.0925C37.102 47.1342 37.1822 47.1209 37.2242 47.0621C37.2662 47.0032 37.2528 46.9235 37.1936 46.8817C37.1344 46.84 37.0542 46.8533 37.0122 46.9121Z" fill="#42E8E0"/>
<path opacity="0.2" d="M37.4899 46.9309C37.4632 46.9689 37.4727 47.0201 37.509 47.0467C37.5472 47.0733 37.5987 47.0638 37.6255 47.0277C37.6522 46.9898 37.6427 46.9385 37.6064 46.9119C37.5682 46.8854 37.5166 46.8948 37.4899 46.9309Z" fill="#42E8E0"/>
<g opacity="0.9">
<path d="M34.1272 51.0431C34.1559 51.1532 34.2685 51.2196 34.3793 51.1911C34.49 51.1627 34.5569 51.0507 34.5282 50.9406C34.4996 50.8305 34.3869 50.764 34.2762 50.7925C34.1654 50.821 34.0986 50.933 34.1272 51.0431Z" fill="#42E8E0"/>
<path d="M34.7247 49.9305C34.7438 50.0083 34.824 50.0558 34.9023 50.0349C34.9805 50.0159 35.0283 49.9362 35.0073 49.8584C34.9882 49.7805 34.908 49.7331 34.8297 49.754C34.7514 49.7729 34.7037 49.8527 34.7247 49.9305Z" fill="#42E8E0"/>
</g>
<path opacity="0.9" d="M35.4527 46.0673C35.4527 46.1945 35.3477 46.2989 35.2198 46.2989C35.0918 46.2989 34.9868 46.1945 34.9868 46.0673C34.9868 45.9401 35.0918 45.8357 35.2198 45.8357C35.3477 45.8357 35.4527 45.9401 35.4527 46.0673Z" fill="#42E8E0"/>
<path opacity="0.3" d="M32.2848 44.3739C32.3639 44.3739 32.428 44.3101 32.428 44.2315C32.428 44.1529 32.3639 44.0891 32.2848 44.0891C32.2057 44.0891 32.1416 44.1529 32.1416 44.2315C32.1416 44.3101 32.2057 44.3739 32.2848 44.3739Z" fill="#42E8E0"/>
<path opacity="0.2" d="M33.2872 42.7584C33.3684 42.7584 33.4342 42.693 33.4342 42.6122C33.4342 42.5315 33.3684 42.4661 33.2872 42.4661C33.206 42.4661 33.1401 42.5315 33.1401 42.6122C33.1401 42.693 33.206 42.7584 33.2872 42.7584Z" fill="#42E8E0"/>
<path opacity="0.2" d="M37.6788 42.0825C37.6788 42.1338 37.6368 42.1755 37.5853 42.1755C37.5337 42.1755 37.4917 42.1338 37.4917 42.0825C37.4917 42.0313 37.5337 41.9895 37.5853 41.9895C37.6368 41.9895 37.6788 42.0313 37.6788 42.0825Z" fill="#42E8E0"/>
<path opacity="0.2" d="M37.2455 41.794C37.3531 41.794 37.4403 41.7073 37.4403 41.6004C37.4403 41.4934 37.3531 41.4067 37.2455 41.4067C37.138 41.4067 37.0508 41.4934 37.0508 41.6004C37.0508 41.7073 37.138 41.794 37.2455 41.794Z" fill="#42E8E0"/>
<path opacity="0.2" d="M32.9835 42.3218C32.9835 42.373 32.9415 42.4148 32.8899 42.4148C32.8384 42.4148 32.7964 42.373 32.7964 42.3218C32.7964 42.2705 32.8384 42.2288 32.8899 42.2288C32.9415 42.2288 32.9835 42.2705 32.9835 42.3218Z" fill="#42E8E0"/>
<path opacity="0.3" d="M32.7238 46.9862C32.8029 46.9862 32.867 46.9224 32.867 46.8438C32.867 46.7652 32.8029 46.7014 32.7238 46.7014C32.6447 46.7014 32.5806 46.7652 32.5806 46.8438C32.5806 46.9224 32.6447 46.9862 32.7238 46.9862Z" fill="#42E8E0"/>
<path opacity="0.2" d="M33.7286 45.3724C33.8098 45.3724 33.8756 45.307 33.8756 45.2263C33.8756 45.1455 33.8098 45.0801 33.7286 45.0801C33.6474 45.0801 33.5815 45.1455 33.5815 45.2263C33.5815 45.307 33.6474 45.3724 33.7286 45.3724Z" fill="#42E8E0"/>
<path opacity="0.2" d="M33.3294 45.0269C33.3811 45.0269 33.423 44.9852 33.423 44.9338C33.423 44.8825 33.3811 44.8408 33.3294 44.8408C33.2777 44.8408 33.2358 44.8825 33.2358 44.9338C33.2358 44.9852 33.2777 45.0269 33.3294 45.0269Z" fill="#42E8E0"/>
<path opacity="0.9" d="M34.6888 43.7608C34.7174 43.8709 34.8301 43.9374 34.9408 43.9089C35.0516 43.8804 35.1184 43.7684 35.0897 43.6583C35.0611 43.5482 34.9484 43.4818 34.8377 43.5103C34.7269 43.5387 34.6601 43.6507 34.6888 43.7608Z" fill="#42E8E0"/>
<path opacity="0.3" d="M36.8847 41.5206C36.9019 41.589 36.9725 41.6288 37.0394 41.6118C37.1081 41.5947 37.1482 41.5244 37.131 41.458C37.1138 41.3915 37.0432 41.3498 36.9764 41.3669C36.9095 41.384 36.8675 41.4542 36.8847 41.5206Z" fill="#42E8E0"/>
<path opacity="0.2" d="M35.6622 40.3475C35.6794 40.4159 35.75 40.4576 35.8207 40.4406C35.8894 40.4235 35.9333 40.3532 35.9142 40.283C35.8951 40.2128 35.8264 40.1729 35.7558 40.19C35.687 40.2071 35.6431 40.2773 35.6622 40.3475Z" fill="#42E8E0"/>
<path opacity="0.2" d="M31.8913 40.8201C31.9028 40.8638 31.9467 40.8903 31.9906 40.879C32.0345 40.8676 32.0613 40.8239 32.0498 40.7802C32.0384 40.7366 31.9944 40.71 31.9505 40.7214C31.9066 40.7328 31.8799 40.7764 31.8913 40.8201Z" fill="#42E8E0"/>
<path opacity="0.2" d="M31.9926 40.3533C32.0155 40.4444 32.111 40.5013 32.2027 40.4767C32.2943 40.452 32.3516 40.359 32.3268 40.2678C32.3039 40.1767 32.2084 40.1198 32.1167 40.1444C32.0251 40.1672 31.9678 40.2621 31.9926 40.3533Z" fill="#42E8E0"/>
<path opacity="0.2" d="M35.985 39.9982C35.9964 40.0418 36.0422 40.0703 36.0862 40.0589C36.1301 40.0475 36.1587 40.002 36.1473 39.9583C36.1358 39.9146 36.09 39.8861 36.0461 39.8975C36.0021 39.9089 35.9735 39.9545 35.985 39.9982Z" fill="#42E8E0"/>
<path opacity="0.2" d="M36.9876 46.9329C36.9494 46.9652 36.8902 46.9614 36.8577 46.9215C36.8253 46.8835 36.8291 46.8247 36.8692 46.7924C36.9093 46.7601 36.9666 46.7639 36.999 46.8038C37.0315 46.8418 37.0277 46.9006 36.9876 46.9329Z" fill="#42E8E0"/>
<path opacity="0.2" d="M37.2016 46.4394C37.1195 46.5077 36.9973 46.4982 36.9286 46.4166C36.8598 46.335 36.8694 46.2135 36.9515 46.1451C37.0336 46.0768 37.1558 46.0863 37.2245 46.1679C37.2933 46.2495 37.2837 46.371 37.2016 46.4394Z" fill="#42E8E0"/>
<path opacity="0.3" d="M36.9035 45.9667C36.8634 46.0236 36.8767 46.1033 36.934 46.1432C36.9913 46.1831 37.0715 46.1698 37.1116 46.1128C37.1517 46.0559 37.1383 45.9761 37.081 45.9363C37.0237 45.8964 36.9436 45.9097 36.9035 45.9667Z" fill="#42E8E0"/>
<path opacity="0.2" d="M37.0122 44.281C36.9702 44.3399 36.9836 44.4196 37.0428 44.4613C37.102 44.5031 37.1822 44.4898 37.2242 44.431C37.2662 44.3721 37.2528 44.2924 37.1936 44.2506C37.1344 44.2089 37.0542 44.2222 37.0122 44.281Z" fill="#42E8E0"/>
<path opacity="0.2" d="M37.4899 44.2998C37.4632 44.3378 37.4727 44.389 37.509 44.4156C37.5472 44.4422 37.5987 44.4327 37.6255 44.3966C37.6522 44.3587 37.6427 44.3074 37.6064 44.2808C37.5682 44.2542 37.5166 44.2637 37.4899 44.2998Z" fill="#42E8E0"/>
<g opacity="0.9">
<path d="M34.1272 48.412C34.1559 48.5221 34.2685 48.5885 34.3793 48.56C34.49 48.5316 34.5569 48.4196 34.5282 48.3095C34.4996 48.1993 34.3869 48.1329 34.2762 48.1614C34.1654 48.1899 34.0986 48.3019 34.1272 48.412Z" fill="#42E8E0"/>
<path d="M34.7247 47.3014C34.7438 47.3792 34.824 47.4266 34.9023 47.4058C34.9805 47.3849 35.0283 47.307 35.0073 47.2292C34.9882 47.1514 34.908 47.1039 34.8297 47.1248C34.7514 47.1438 34.7037 47.2235 34.7247 47.3014Z" fill="#42E8E0"/>
</g>
<path opacity="0.9" d="M35.4527 43.4359C35.4527 43.5631 35.3477 43.6676 35.2198 43.6676C35.0918 43.6676 34.9868 43.5631 34.9868 43.4359C34.9868 43.3088 35.0918 43.2043 35.2198 43.2043C35.3477 43.2043 35.4527 43.3088 35.4527 43.4359Z" fill="#42E8E0"/>
<path opacity="0.3" d="M32.2848 41.7425C32.3639 41.7425 32.428 41.6788 32.428 41.6001C32.428 41.5215 32.3639 41.4578 32.2848 41.4578C32.2057 41.4578 32.1416 41.5215 32.1416 41.6001C32.1416 41.6788 32.2057 41.7425 32.2848 41.7425Z" fill="#42E8E0"/>
<path opacity="0.2" d="M33.2872 40.129C33.3684 40.129 33.4342 40.0636 33.4342 39.9828C33.4342 39.9021 33.3684 39.8367 33.2872 39.8367C33.206 39.8367 33.1401 39.9021 33.1401 39.9828C33.1401 40.0636 33.206 40.129 33.2872 40.129Z" fill="#42E8E0"/>
<path opacity="0.2" d="M37.6788 39.4512C37.6788 39.5024 37.6368 39.5442 37.5853 39.5442C37.5337 39.5442 37.4917 39.5024 37.4917 39.4512C37.4917 39.3999 37.5337 39.3582 37.5853 39.3582C37.6368 39.3582 37.6788 39.3999 37.6788 39.4512Z" fill="#42E8E0"/>
<path opacity="0.2" d="M37.2455 39.1646C37.3531 39.1646 37.4403 39.0779 37.4403 38.971C37.4403 38.864 37.3531 38.7773 37.2455 38.7773C37.138 38.7773 37.0508 38.864 37.0508 38.971C37.0508 39.0779 37.138 39.1646 37.2455 39.1646Z" fill="#42E8E0"/>
<path opacity="0.2" d="M32.9835 39.6904C32.9835 39.7417 32.9415 39.7835 32.8899 39.7835C32.8384 39.7835 32.7964 39.7417 32.7964 39.6904C32.7964 39.6392 32.8384 39.5974 32.8899 39.5974C32.9415 39.5974 32.9835 39.6392 32.9835 39.6904Z" fill="#42E8E0"/>
<path opacity="0.3" d="M32.7238 44.3568C32.8029 44.3568 32.867 44.293 32.867 44.2144C32.867 44.1358 32.8029 44.072 32.7238 44.072C32.6447 44.072 32.5806 44.1358 32.5806 44.2144C32.5806 44.293 32.6447 44.3568 32.7238 44.3568Z" fill="#42E8E0"/>
<path opacity="0.2" d="M33.7286 42.7411C33.8098 42.7411 33.8756 42.6756 33.8756 42.5949C33.8756 42.5142 33.8098 42.4487 33.7286 42.4487C33.6474 42.4487 33.5815 42.5142 33.5815 42.5949C33.5815 42.6756 33.6474 42.7411 33.7286 42.7411Z" fill="#42E8E0"/>
<path opacity="0.2" d="M33.423 42.3044C33.423 42.3557 33.381 42.3975 33.3294 42.3975C33.2778 42.3975 33.2358 42.3557 33.2358 42.3044C33.2358 42.2532 33.2778 42.2114 33.3294 42.2114C33.381 42.2114 33.423 42.2532 33.423 42.3044Z" fill="#42E8E0"/>
<path opacity="0.9" d="M34.6888 41.1314C34.7174 41.2416 34.8301 41.308 34.9408 41.2795C35.0516 41.251 35.1184 41.139 35.0897 41.0289C35.0611 40.9188 34.9484 40.8524 34.8377 40.8809C34.7269 40.9093 34.6601 41.0213 34.6888 41.1314Z" fill="#42E8E0"/>
<path opacity="0.3" d="M36.8847 38.8912C36.9019 38.9596 36.9725 38.9995 37.0394 38.9824C37.1081 38.9653 37.1482 38.895 37.131 38.8286C37.1138 38.7622 37.0432 38.7204 36.9764 38.7375C36.9095 38.7546 36.8675 38.8248 36.8847 38.8912Z" fill="#42E8E0"/>
<path opacity="0.2" d="M35.6623 37.7181C35.6795 37.7864 35.7502 37.8301 35.8208 37.8111C35.8895 37.794 35.9335 37.7238 35.9144 37.6535C35.8953 37.5833 35.8265 37.5415 35.7559 37.5605C35.6852 37.5795 35.6432 37.6478 35.6623 37.7181Z" fill="#42E8E0"/>
<path opacity="0.2" d="M31.8913 38.1888C31.9028 38.2324 31.9467 38.259 31.9906 38.2476C32.0345 38.2362 32.0613 38.1926 32.0498 38.1489C32.0384 38.1052 31.9944 38.0786 31.9505 38.09C31.9066 38.1014 31.8799 38.1451 31.8913 38.1888Z" fill="#42E8E0"/>
<path opacity="0.2" d="M31.9926 37.7219C32.0155 37.813 32.111 37.87 32.2027 37.8453C32.2943 37.8225 32.3516 37.7276 32.3268 37.6365C32.3039 37.5454 32.2084 37.4884 32.1167 37.5131C32.0251 37.5359 31.9678 37.6308 31.9926 37.7219Z" fill="#42E8E0"/>
<path opacity="0.2" d="M35.985 37.3688C35.9964 37.4124 36.0422 37.4409 36.0862 37.4295C36.1301 37.4181 36.1587 37.3726 36.1473 37.3289C36.1358 37.2852 36.09 37.2568 36.0461 37.2681C36.0021 37.2795 35.9735 37.3251 35.985 37.3688Z" fill="#42E8E0"/>
<path opacity="0.2" d="M36.9876 44.3035C36.9494 44.3358 36.8902 44.332 36.8577 44.2921C36.8253 44.2541 36.8291 44.1953 36.8692 44.163C36.9093 44.1307 36.9666 44.1345 36.999 44.1744C37.0315 44.2124 37.0277 44.2712 36.9876 44.3035Z" fill="#42E8E0"/>
<path opacity="0.2" d="M37.2016 43.81C37.1195 43.8783 36.9973 43.8688 36.9286 43.7872C36.8598 43.7056 36.8694 43.5841 36.9515 43.5157C37.0336 43.4474 37.1558 43.4569 37.2245 43.5385C37.2933 43.6201 37.2837 43.7416 37.2016 43.81Z" fill="#42E8E0"/>
<path opacity="0.3" d="M36.9035 43.3373C36.8634 43.3942 36.8767 43.4739 36.934 43.5138C36.9913 43.5537 37.0715 43.5404 37.1116 43.4834C37.1517 43.4265 37.1383 43.3468 37.081 43.3069C37.0237 43.267 36.9436 43.2803 36.9035 43.3373Z" fill="#42E8E0"/>
<path opacity="0.2" d="M37.0122 41.6516C36.9702 41.7105 36.9836 41.7902 37.0428 41.832C37.102 41.8737 37.1822 41.8604 37.2242 41.8016C37.2662 41.7427 37.2528 41.663 37.1936 41.6212C37.1344 41.5795 37.0542 41.5928 37.0122 41.6516Z" fill="#42E8E0"/>
<path opacity="0.2" d="M37.4899 41.6704C37.4632 41.7084 37.4727 41.7596 37.509 41.7862C37.5472 41.8128 37.5987 41.8033 37.6255 41.7672C37.6522 41.7293 37.6427 41.678 37.6064 41.6514C37.5682 41.6249 37.5166 41.6343 37.4899 41.6704Z" fill="#42E8E0"/>
<g opacity="0.9">
<path d="M34.1272 45.7826C34.1559 45.8927 34.2685 45.9591 34.3793 45.9306C34.49 45.9022 34.5569 45.7902 34.5282 45.6801C34.4996 45.5699 34.3869 45.5035 34.2762 45.532C34.1654 45.5605 34.0986 45.6725 34.1272 45.7826Z" fill="#42E8E0"/>
<path d="M34.7247 44.67C34.7438 44.7478 34.824 44.7953 34.9023 44.7744C34.9805 44.7535 35.0283 44.6757 35.0073 44.5979C34.9882 44.52 34.908 44.4726 34.8297 44.4935C34.7514 44.5124 34.7037 44.5922 34.7247 44.67Z" fill="#42E8E0"/>
</g>
<path opacity="0.9" d="M35.4527 37.8984C35.4527 38.0255 35.3477 38.13 35.2198 38.13C35.0918 38.13 34.9868 38.0255 34.9868 37.8984C34.9868 37.7712 35.0918 37.6667 35.2198 37.6667C35.3477 37.6667 35.4527 37.7712 35.4527 37.8984Z" fill="#42E8E0"/>
<path opacity="0.3" d="M32.2848 36.2049C32.3639 36.2049 32.428 36.1412 32.428 36.0625C32.428 35.9839 32.3639 35.9202 32.2848 35.9202C32.2057 35.9202 32.1416 35.9839 32.1416 36.0625C32.1416 36.1412 32.2057 36.2049 32.2848 36.2049Z" fill="#42E8E0"/>
<path opacity="0.2" d="M33.2872 34.5914C33.3684 34.5914 33.4342 34.526 33.4342 34.4452C33.4342 34.3645 33.3684 34.2991 33.2872 34.2991C33.206 34.2991 33.1401 34.3645 33.1401 34.4452C33.1401 34.526 33.206 34.5914 33.2872 34.5914Z" fill="#42E8E0"/>
<path opacity="0.2" d="M37.6788 33.9136C37.6788 33.9648 37.6368 34.0066 37.5853 34.0066C37.5337 34.0066 37.4917 33.9648 37.4917 33.9136C37.4917 33.8623 37.5337 33.8206 37.5853 33.8206C37.6368 33.8206 37.6788 33.8623 37.6788 33.9136Z" fill="#42E8E0"/>
<path opacity="0.2" d="M37.2455 33.627C37.3531 33.627 37.4403 33.5403 37.4403 33.4334C37.4403 33.3264 37.3531 33.2397 37.2455 33.2397C37.138 33.2397 37.0508 33.3264 37.0508 33.4334C37.0508 33.5403 37.138 33.627 37.2455 33.627Z" fill="#42E8E0"/>
<path opacity="0.2" d="M32.9835 34.1528C32.9835 34.2041 32.9415 34.2459 32.8899 34.2459C32.8384 34.2459 32.7964 34.2041 32.7964 34.1528C32.7964 34.1016 32.8384 34.0598 32.8899 34.0598C32.9415 34.0598 32.9835 34.1016 32.9835 34.1528Z" fill="#42E8E0"/>
<path opacity="0.3" d="M32.7238 38.8172C32.8029 38.8172 32.867 38.7535 32.867 38.6749C32.867 38.5962 32.8029 38.5325 32.7238 38.5325C32.6447 38.5325 32.5806 38.5962 32.5806 38.6749C32.5806 38.7535 32.6447 38.8172 32.7238 38.8172Z" fill="#42E8E0"/>
<path opacity="0.2" d="M33.7286 37.2035C33.8098 37.2035 33.8756 37.138 33.8756 37.0573C33.8756 36.9766 33.8098 36.9111 33.7286 36.9111C33.6474 36.9111 33.5815 36.9766 33.5815 37.0573C33.5815 37.138 33.6474 37.2035 33.7286 37.2035Z" fill="#42E8E0"/>
<path opacity="0.2" d="M33.423 36.7651C33.423 36.8164 33.381 36.8582 33.3294 36.8582C33.2778 36.8582 33.2358 36.8164 33.2358 36.7651C33.2358 36.7139 33.2778 36.6721 33.3294 36.6721C33.381 36.6721 33.423 36.7139 33.423 36.7651Z" fill="#42E8E0"/>
<path opacity="0.9" d="M34.6888 35.5919C34.7174 35.702 34.8301 35.7684 34.9408 35.74C35.0516 35.7115 35.1184 35.5995 35.0897 35.4894C35.0611 35.3793 34.9484 35.3128 34.8377 35.3413C34.7269 35.3698 34.6601 35.4818 34.6888 35.5919Z" fill="#42E8E0"/>
<path opacity="0.3" d="M36.8847 33.3517C36.9019 33.42 36.9725 33.4599 37.0394 33.4428C37.1062 33.4257 37.1482 33.3555 37.131 33.289C37.1138 33.2226 37.0432 33.1808 36.9764 33.1979C36.9095 33.215 36.8675 33.2852 36.8847 33.3517Z" fill="#42E8E0"/>
<path opacity="0.2" d="M35.6623 32.1805C35.6795 32.2489 35.7502 32.2926 35.8208 32.2736C35.8895 32.2565 35.9335 32.1862 35.9144 32.116C35.8953 32.0458 35.8265 32.0059 35.7559 32.023C35.6852 32.0401 35.6432 32.1103 35.6623 32.1805Z" fill="#42E8E0"/>
<path opacity="0.2" d="M31.8913 32.6512C31.9028 32.6948 31.9467 32.7214 31.9906 32.71C32.0345 32.6986 32.0613 32.655 32.0498 32.6113C32.0384 32.5676 31.9944 32.5411 31.9505 32.5524C31.9066 32.5638 31.8799 32.6075 31.8913 32.6512Z" fill="#42E8E0"/>
<path opacity="0.2" d="M31.9926 32.1843C32.0155 32.2754 32.111 32.3324 32.2027 32.3077C32.2943 32.2849 32.3516 32.19 32.3268 32.0989C32.3039 32.0078 32.2084 31.9508 32.1167 31.9755C32.0251 31.9983 31.9678 32.0932 31.9926 32.1843Z" fill="#42E8E0"/>
<path opacity="0.2" d="M35.985 31.8312C35.9964 31.8748 36.0422 31.9033 36.0862 31.8919C36.1301 31.8805 36.1587 31.835 36.1473 31.7913C36.1358 31.7476 36.09 31.7192 36.0461 31.7305C36.0021 31.7419 35.9735 31.7875 35.985 31.8312Z" fill="#42E8E0"/>
<path opacity="0.2" d="M36.9876 38.7642C36.9494 38.7965 36.8902 38.7927 36.8577 38.7528C36.8253 38.7148 36.8291 38.656 36.8692 38.6237C36.9093 38.5914 36.9666 38.5952 36.999 38.6351C37.0315 38.6731 37.0277 38.7319 36.9876 38.7642Z" fill="#42E8E0"/>
<path opacity="0.2" d="M37.2016 38.2704C37.1195 38.3388 36.9973 38.3293 36.9286 38.2476C36.8598 38.166 36.8694 38.0445 36.9515 37.9762C37.0336 37.9078 37.1558 37.9173 37.2245 37.9989C37.2933 38.0806 37.2837 38.2021 37.2016 38.2704Z" fill="#42E8E0"/>
<path opacity="0.3" d="M36.9035 37.7997C36.8634 37.8566 36.8767 37.9363 36.934 37.9762C36.9913 38.0161 37.0715 38.0028 37.1116 37.9458C37.1517 37.8889 37.1383 37.8092 37.081 37.7693C37.0237 37.7294 36.9436 37.7427 36.9035 37.7997Z" fill="#42E8E0"/>
<path opacity="0.2" d="M37.0122 36.1121C36.9702 36.1709 36.9836 36.2506 37.0428 36.2924C37.102 36.3342 37.1822 36.3209 37.2242 36.262C37.2662 36.2032 37.2528 36.1234 37.1936 36.0817C37.1344 36.0399 37.0542 36.0532 37.0122 36.1121Z" fill="#42E8E0"/>
<path opacity="0.2" d="M37.4899 36.1328C37.4632 36.1708 37.4727 36.222 37.509 36.2486C37.5472 36.2752 37.5987 36.2657 37.6255 36.2296C37.6522 36.1917 37.6427 36.1404 37.6064 36.1138C37.5701 36.0873 37.5166 36.0967 37.4899 36.1328Z" fill="#42E8E0"/>
<g opacity="0.9">
<path d="M34.1272 40.245C34.1559 40.3551 34.2685 40.4215 34.3793 40.393C34.49 40.3646 34.5569 40.2526 34.5282 40.1425C34.4996 40.0324 34.3869 39.9659 34.2762 39.9944C34.1654 40.0229 34.0986 40.1349 34.1272 40.245Z" fill="#42E8E0"/>
<path d="M34.7247 39.1324C34.7438 39.2102 34.824 39.2577 34.9023 39.2368C34.9805 39.2159 35.0283 39.1381 35.0073 39.0603C34.9882 38.9824 34.908 38.935 34.8297 38.9559C34.7514 38.9748 34.7037 39.0546 34.7247 39.1324Z" fill="#42E8E0"/>
</g>
<path d="M51.8907 69.3114L43.3364 64.4002L51.8907 59.491L60.4449 64.4002L51.8907 69.3114Z" fill="url(#paint16_linear_184_12462)"/>
<path d="M51.8907 67.8988L43.3364 62.9876L51.8907 58.0784L60.4449 62.9876L51.8907 67.8988Z" fill="url(#paint17_linear_184_12462)"/>
<g opacity="0.9">
<path d="M51.8908 59.1757L45.2861 55.3846L51.8908 51.5935L58.4955 55.3846L51.8908 59.1757Z" fill="url(#paint18_linear_184_12462)"/>
<path d="M58.4953 55.3845V62.9876L51.8906 66.7787V59.1756L58.4953 55.3845Z" fill="url(#paint19_linear_184_12462)"/>
<path d="M45.2861 55.3845V62.9876L51.8908 66.7787V59.1756L45.2861 55.3845Z" fill="url(#paint20_linear_184_12462)"/>
</g>
<path style="mix-blend-mode:lighten" opacity="0.7" d="M51.8908 66.7787L45.2861 62.9876L51.8908 59.1965L58.4955 62.9876L51.8908 66.7787Z" fill="url(#paint21_linear_184_12462)"/>
<path d="M60.4448 62.9878V64.4002L51.8906 69.3113V67.8989L60.4448 62.9878Z" fill="#421EA5"/>
<path d="M43.3364 62.9878V64.4002L51.8907 69.3113V67.8989L43.3364 62.9878Z" fill="url(#paint22_linear_184_12462)"/>
<path style="mix-blend-mode:lighten" opacity="0.7" d="M43.3364 62.9878V64.4002L51.8907 69.3113V67.8989L43.3364 62.9878Z" fill="url(#paint23_linear_184_12462)"/>
<path d="M51.8907 57.5013L43.3364 52.5921L51.8907 47.6809L60.4449 52.5921L51.8907 57.5013Z" fill="url(#paint24_linear_184_12462)"/>
<path d="M51.8907 56.089L43.3364 51.1797L51.8907 46.2686L60.4449 51.1797L51.8907 56.089Z" fill="url(#paint25_linear_184_12462)"/>
<path style="mix-blend-mode:lighten" opacity="0.7" d="M51.8907 56.089L43.3364 51.1797L51.8907 46.2686L60.4449 51.1797L51.8907 56.089Z" fill="url(#paint26_linear_184_12462)"/>
<path opacity="0.3" d="M51.8909 52.9984L48.7231 51.1797L51.8909 49.3611L55.0586 51.1797L51.8909 52.9984Z" fill="#42E8E0"/>
<path opacity="0.3" d="M51.8909 50.595L53.9836 51.7967L55.0586 51.1797L51.8909 49.3611L48.7231 51.1797L49.7981 51.7967L51.8909 50.595Z" fill="#42E8E0"/>
<path d="M51.8909 50.595L53.9836 51.7967L55.0586 51.1797L51.8909 49.3611L48.7231 51.1797L49.7981 51.7967L51.8909 50.595Z" fill="#42E8E0"/>
<path d="M60.4448 51.1797V52.5921L51.8906 57.5013V56.0889L60.4448 51.1797Z" fill="#421EA5"/>
<path d="M43.3364 51.1797V52.5921L51.8907 57.5013V56.0889L43.3364 51.1797Z" fill="url(#paint27_linear_184_12462)"/>
<path style="mix-blend-mode:lighten" opacity="0.7" d="M43.3364 51.1797V52.5921L51.8907 57.5013V56.0889L43.3364 51.1797Z" fill="url(#paint28_linear_184_12462)"/>
<path opacity="0.3" d="M51.8907 57.5013V67.8988L43.3364 62.9877V52.592L51.8907 57.5013Z" fill="#42E8E0"/>
<path opacity="0.3" d="M45.2861 53.7102V62.9877L51.8908 66.7788L58.4955 62.9877V53.7102L51.8908 57.5013L45.2861 53.7102Z" fill="#42E8E0"/>
<path opacity="0.3" d="M51.8908 57.5013V66.7788L45.2861 62.9877V53.7102L51.8908 57.5013Z" fill="#42E8E0"/>
<path opacity="0.5" d="M43.3364 52.592V62.9877L51.8907 67.8988L60.4449 62.9877V52.592L51.8907 57.5013L43.3364 52.592Z" fill="#5CFFF3"/>
<path style="mix-blend-mode:lighten" d="M43.5388 51.1797L51.9919 46.3274L51.8907 46.2686L43.3364 51.1797L51.8907 56.089L51.9919 56.032L43.5388 51.1797Z" fill="url(#paint29_linear_184_12462)"/>
<path opacity="0.5" d="M43.3364 52.592V62.9877L43.4548 63.056V52.6585L43.3364 52.592Z" fill="#42E8E0"/>
<path opacity="0.5" d="M60.445 52.592V62.9877L60.3267 63.056V52.6585L60.445 52.592Z" fill="#42E8E0"/>
<path opacity="0.5" d="M51.8909 57.5013L51.6885 57.3855V67.783L51.8909 67.8988L52.0933 67.783V57.3855L51.8909 57.5013Z" fill="#42E8E0"/>
<g style="mix-blend-mode:lighten" opacity="0.7">
<path d="M54.75 51.8859V24.75H48.7663L48.75 51.8859L51.75 53.25L54.75 51.8859Z" fill="url(#paint30_linear_184_12462)"/>
</g>
<path opacity="0.9" d="M52.5592 48.6964C52.5592 48.8236 52.4541 48.9281 52.3262 48.9281C52.1983 48.9281 52.0933 48.8236 52.0933 48.6964C52.0933 48.5693 52.1983 48.4648 52.3262 48.4648C52.4541 48.4648 52.5592 48.5693 52.5592 48.6964Z" fill="#42E8E0"/>
<path opacity="0.3" d="M49.3893 47.003C49.4684 47.003 49.5325 46.9393 49.5325 46.8606C49.5325 46.782 49.4684 46.7183 49.3893 46.7183C49.3102 46.7183 49.2461 46.782 49.2461 46.8606C49.2461 46.9393 49.3102 47.003 49.3893 47.003Z" fill="#42E8E0"/>
<path opacity="0.2" d="M50.3936 45.3895C50.4748 45.3895 50.5406 45.3241 50.5406 45.2433C50.5406 45.1626 50.4748 45.0972 50.3936 45.0972C50.3124 45.0972 50.2466 45.1626 50.2466 45.2433C50.2466 45.3241 50.3124 45.3895 50.3936 45.3895Z" fill="#42E8E0"/>
<path opacity="0.2" d="M54.7853 44.7117C54.7853 44.7629 54.7433 44.8047 54.6917 44.8047C54.6402 44.8047 54.5981 44.7629 54.5981 44.7117C54.5981 44.6604 54.6402 44.6187 54.6917 44.6187C54.7433 44.6187 54.7853 44.6604 54.7853 44.7117Z" fill="#42E8E0"/>
<path opacity="0.2" d="M54.352 44.4251C54.4595 44.4251 54.5468 44.3384 54.5468 44.2315C54.5468 44.1245 54.4595 44.0378 54.352 44.0378C54.2444 44.0378 54.1572 44.1245 54.1572 44.2315C54.1572 44.3384 54.2444 44.4251 54.352 44.4251Z" fill="#42E8E0"/>
<path opacity="0.2" d="M49.9944 45.044C50.0461 45.044 50.088 45.0023 50.088 44.9509C50.088 44.8996 50.0461 44.8579 49.9944 44.8579C49.9428 44.8579 49.9009 44.8996 49.9009 44.9509C49.9009 45.0023 49.9428 45.044 49.9944 45.044Z" fill="#42E8E0"/>
<path opacity="0.3" d="M49.9734 49.4749C49.9734 49.5546 49.9085 49.6173 49.8302 49.6173C49.7519 49.6173 49.687 49.5527 49.687 49.4749C49.687 49.3971 49.7519 49.3325 49.8302 49.3325C49.9085 49.3325 49.9734 49.3971 49.9734 49.4749Z" fill="#42E8E0"/>
<path opacity="0.2" d="M50.8345 48.0016C50.9157 48.0016 50.9816 47.9361 50.9816 47.8554C50.9816 47.7747 50.9157 47.7092 50.8345 47.7092C50.7533 47.7092 50.6875 47.7747 50.6875 47.8554C50.6875 47.9361 50.7533 48.0016 50.8345 48.0016Z" fill="#42E8E0"/>
<path opacity="0.2" d="M50.4359 47.658C50.4875 47.658 50.5294 47.6163 50.5294 47.5649C50.5294 47.5136 50.4875 47.4719 50.4359 47.4719C50.3842 47.4719 50.3423 47.5136 50.3423 47.5649C50.3423 47.6163 50.3842 47.658 50.4359 47.658Z" fill="#42E8E0"/>
<path opacity="0.9" d="M51.7952 46.39C51.8238 46.5001 51.9365 46.5665 52.0472 46.5381C52.158 46.5096 52.2248 46.3976 52.1962 46.2875C52.1675 46.1774 52.0549 46.1109 51.9441 46.1394C51.8334 46.1679 51.7666 46.2799 51.7952 46.39Z" fill="#42E8E0"/>
<path opacity="0.3" d="M53.9912 44.1498C54.0083 44.2181 54.079 44.258 54.1458 44.2409C54.2127 44.2238 54.2547 44.1536 54.2375 44.0871C54.2203 44.0207 54.1496 43.9789 54.0828 43.996C54.016 44.0131 53.974 44.0833 53.9912 44.1498Z" fill="#42E8E0"/>
<path opacity="0.2" d="M52.767 42.9785C52.7842 43.0469 52.8549 43.0886 52.9255 43.0716C52.9943 43.0545 53.0363 42.9842 53.0191 42.914C53.0019 42.8456 52.9312 42.8039 52.8606 42.821C52.7919 42.838 52.7498 42.9083 52.767 42.9785Z" fill="#42E8E0"/>
<path opacity="0.2" d="M48.9978 43.4493C49.0092 43.4929 49.0531 43.5195 49.0971 43.5081C49.141 43.4967 49.1677 43.4531 49.1563 43.4094C49.1448 43.3657 49.1009 43.3391 49.057 43.3505C49.0131 43.3619 48.9863 43.4056 48.9978 43.4493Z" fill="#42E8E0"/>
<path opacity="0.2" d="M49.0971 42.9824C49.12 43.0735 49.2155 43.1305 49.3072 43.1058C49.3988 43.0811 49.4561 42.9881 49.4313 42.897C49.4084 42.8059 49.3129 42.7489 49.2212 42.7736C49.1296 42.7964 49.0723 42.8913 49.0971 42.9824Z" fill="#42E8E0"/>
<path opacity="0.2" d="M53.0914 42.6293C53.1029 42.6729 53.1487 42.7014 53.1926 42.69C53.2365 42.6786 53.2652 42.6331 53.2537 42.5894C53.2422 42.5457 53.1964 42.5173 53.1525 42.5286C53.1086 42.54 53.0799 42.5856 53.0914 42.6293Z" fill="#42E8E0"/>
<path opacity="0.2" d="M54.094 49.5623C54.0558 49.5946 53.9966 49.5908 53.9642 49.5509C53.9317 49.5129 53.9355 49.4541 53.9756 49.4218C54.0138 49.3895 54.073 49.3933 54.1055 49.4332C54.1379 49.4712 54.1341 49.53 54.094 49.5623Z" fill="#42E8E0"/>
<path opacity="0.2" d="M54.3081 49.0705C54.226 49.1388 54.1038 49.1293 54.035 49.0477C53.9663 48.9661 53.9758 48.8446 54.0579 48.7762C54.14 48.7079 54.2622 48.7174 54.331 48.799C54.3997 48.8806 54.3902 49.0021 54.3081 49.0705Z" fill="#42E8E0"/>
<path opacity="0.3" d="M54.0099 48.5978C53.9698 48.6547 53.9832 48.7344 54.0405 48.7743C54.0977 48.8142 54.1779 48.8009 54.218 48.7439C54.2581 48.687 54.2448 48.6073 54.1875 48.5674C54.1302 48.5275 54.05 48.5408 54.0099 48.5978Z" fill="#42E8E0"/>
<path opacity="0.2" d="M54.1187 46.9121C54.0767 46.971 54.09 47.0507 54.1492 47.0925C54.2084 47.1342 54.2886 47.1209 54.3306 47.0621C54.3726 47.0032 54.3593 46.9235 54.3001 46.8817C54.2409 46.84 54.1607 46.8533 54.1187 46.9121Z" fill="#42E8E0"/>
<path opacity="0.2" d="M54.5963 46.9309C54.5696 46.9689 54.5792 47.0201 54.6154 47.0467C54.6536 47.0733 54.7052 47.0638 54.7319 47.0277C54.7586 46.9917 54.7491 46.9385 54.7128 46.9119C54.6746 46.8854 54.6231 46.8948 54.5963 46.9309Z" fill="#42E8E0"/>
<g opacity="0.9">
<path d="M51.2317 51.0431C51.2604 51.1532 51.373 51.2196 51.4838 51.1911C51.5945 51.1627 51.6613 51.0507 51.6327 50.9406C51.6041 50.8305 51.4914 50.764 51.3807 50.7925C51.2699 50.821 51.2031 50.933 51.2317 51.0431Z" fill="#42E8E0"/>
<path d="M51.8292 49.9305C51.8483 50.0083 51.9285 50.0558 52.0068 50.0349C52.085 50.0159 52.1328 49.9362 52.1118 49.8584C52.0927 49.7805 52.0125 49.7331 51.9342 49.754C51.8559 49.7729 51.8082 49.8527 51.8292 49.9305Z" fill="#42E8E0"/>
</g>
<path opacity="0.9" d="M52.5592 46.0673C52.5592 46.1945 52.4541 46.2989 52.3262 46.2989C52.1983 46.2989 52.0933 46.1945 52.0933 46.0673C52.0933 45.9401 52.1983 45.8357 52.3262 45.8357C52.4541 45.8357 52.5592 45.9401 52.5592 46.0673Z" fill="#42E8E0"/>
<path opacity="0.3" d="M49.3893 44.3739C49.4684 44.3739 49.5325 44.3101 49.5325 44.2315C49.5325 44.1529 49.4684 44.0891 49.3893 44.0891C49.3102 44.0891 49.2461 44.1529 49.2461 44.2315C49.2461 44.3101 49.3102 44.3739 49.3893 44.3739Z" fill="#42E8E0"/>
<path opacity="0.2" d="M50.3936 42.7584C50.4748 42.7584 50.5406 42.693 50.5406 42.6122C50.5406 42.5315 50.4748 42.4661 50.3936 42.4661C50.3124 42.4661 50.2466 42.5315 50.2466 42.6122C50.2466 42.693 50.3124 42.7584 50.3936 42.7584Z" fill="#42E8E0"/>
<path opacity="0.2" d="M54.7853 42.0825C54.7853 42.1338 54.7433 42.1755 54.6917 42.1755C54.6402 42.1755 54.5981 42.1338 54.5981 42.0825C54.5981 42.0313 54.6402 41.9895 54.6917 41.9895C54.7433 41.9895 54.7853 42.0313 54.7853 42.0825Z" fill="#42E8E0"/>
<path opacity="0.2" d="M54.352 41.794C54.4595 41.794 54.5468 41.7073 54.5468 41.6004C54.5468 41.4934 54.4595 41.4067 54.352 41.4067C54.2444 41.4067 54.1572 41.4934 54.1572 41.6004C54.1572 41.7073 54.2444 41.794 54.352 41.794Z" fill="#42E8E0"/>
<path opacity="0.2" d="M50.088 42.3218C50.088 42.373 50.046 42.4148 49.9944 42.4148C49.9429 42.4148 49.9009 42.373 49.9009 42.3218C49.9009 42.2705 49.9429 42.2288 49.9944 42.2288C50.046 42.2288 50.088 42.2705 50.088 42.3218Z" fill="#42E8E0"/>
<path opacity="0.3" d="M49.8302 46.9862C49.9093 46.9862 49.9734 46.9224 49.9734 46.8438C49.9734 46.7652 49.9093 46.7014 49.8302 46.7014C49.7511 46.7014 49.687 46.7652 49.687 46.8438C49.687 46.9224 49.7511 46.9862 49.8302 46.9862Z" fill="#42E8E0"/>
<path opacity="0.2" d="M50.8345 45.3724C50.9157 45.3724 50.9816 45.307 50.9816 45.2263C50.9816 45.1455 50.9157 45.0801 50.8345 45.0801C50.7533 45.0801 50.6875 45.1455 50.6875 45.2263C50.6875 45.307 50.7533 45.3724 50.8345 45.3724Z" fill="#42E8E0"/>
<path opacity="0.2" d="M50.4359 45.0269C50.4875 45.0269 50.5294 44.9852 50.5294 44.9338C50.5294 44.8825 50.4875 44.8408 50.4359 44.8408C50.3842 44.8408 50.3423 44.8825 50.3423 44.9338C50.3423 44.9852 50.3842 45.0269 50.4359 45.0269Z" fill="#42E8E0"/>
<path opacity="0.9" d="M51.7952 43.7608C51.8238 43.8709 51.9365 43.9374 52.0472 43.9089C52.158 43.8804 52.2248 43.7684 52.1962 43.6583C52.1675 43.5482 52.0549 43.4818 51.9441 43.5103C51.8334 43.5387 51.7666 43.6507 51.7952 43.7608Z" fill="#42E8E0"/>
<path opacity="0.3" d="M53.9912 41.5206C54.0083 41.589 54.079 41.6288 54.1458 41.6118C54.2146 41.5947 54.2547 41.5244 54.2375 41.458C54.2203 41.3915 54.1496 41.3498 54.0828 41.3669C54.016 41.384 53.974 41.4542 53.9912 41.5206Z" fill="#42E8E0"/>
<path opacity="0.2" d="M52.767 40.3475C52.7842 40.4159 52.8549 40.4576 52.9255 40.4406C52.9943 40.4235 53.0363 40.3532 53.0191 40.283C53.0019 40.2128 52.9312 40.1729 52.8606 40.19C52.7919 40.2071 52.7498 40.2773 52.767 40.3475Z" fill="#42E8E0"/>
<path opacity="0.2" d="M48.9978 40.8201C49.0092 40.8638 49.0531 40.8903 49.0971 40.879C49.141 40.8676 49.1677 40.8239 49.1563 40.7802C49.1448 40.7366 49.1009 40.71 49.057 40.7214C49.0131 40.7328 48.9863 40.7764 48.9978 40.8201Z" fill="#42E8E0"/>
<path opacity="0.2" d="M49.0971 40.3533C49.12 40.4444 49.2155 40.5013 49.3072 40.4767C49.3988 40.452 49.4561 40.359 49.4313 40.2678C49.4084 40.1767 49.3129 40.1198 49.2212 40.1444C49.1296 40.1672 49.0723 40.2621 49.0971 40.3533Z" fill="#42E8E0"/>
<path opacity="0.2" d="M53.0914 39.9982C53.1029 40.0418 53.1487 40.0703 53.1926 40.0589C53.2365 40.0475 53.2652 40.002 53.2537 39.9583C53.2422 39.9146 53.1964 39.8861 53.1525 39.8975C53.1086 39.9089 53.0799 39.9545 53.0914 39.9982Z" fill="#42E8E0"/>
<path opacity="0.2" d="M54.094 46.9329C54.0558 46.9652 53.9966 46.9614 53.9642 46.9215C53.9317 46.8835 53.9355 46.8247 53.9756 46.7924C54.0157 46.7601 54.073 46.7639 54.1055 46.8038C54.1379 46.8418 54.1341 46.9006 54.094 46.9329Z" fill="#42E8E0"/>
<path opacity="0.2" d="M54.3081 46.4394C54.226 46.5077 54.1038 46.4982 54.035 46.4166C53.9663 46.335 53.9758 46.2135 54.0579 46.1451C54.14 46.0768 54.2622 46.0863 54.331 46.1679C54.3997 46.2495 54.3902 46.371 54.3081 46.4394Z" fill="#42E8E0"/>
<path opacity="0.3" d="M54.0099 45.9667C53.9698 46.0236 53.9832 46.1033 54.0405 46.1432C54.0977 46.1831 54.1779 46.1698 54.218 46.1128C54.2581 46.0559 54.2448 45.9761 54.1875 45.9363C54.1302 45.8964 54.05 45.9097 54.0099 45.9667Z" fill="#42E8E0"/>
<path opacity="0.2" d="M54.1187 44.281C54.0767 44.3399 54.09 44.4196 54.1492 44.4613C54.2084 44.5031 54.2886 44.4898 54.3306 44.431C54.3726 44.3721 54.3593 44.2924 54.3001 44.2506C54.2409 44.2089 54.1607 44.2222 54.1187 44.281Z" fill="#42E8E0"/>
<path opacity="0.2" d="M54.5963 44.2998C54.5696 44.3378 54.5792 44.389 54.6154 44.4156C54.6536 44.4422 54.7052 44.4327 54.7319 44.3966C54.7586 44.3606 54.7491 44.3074 54.7128 44.2808C54.6746 44.2542 54.6231 44.2637 54.5963 44.2998Z" fill="#42E8E0"/>
<g opacity="0.9">
<path d="M51.2317 48.412C51.2604 48.5221 51.373 48.5885 51.4838 48.56C51.5945 48.5316 51.6613 48.4196 51.6327 48.3095C51.6041 48.1993 51.4914 48.1329 51.3807 48.1614C51.2699 48.1899 51.2031 48.3019 51.2317 48.412Z" fill="#42E8E0"/>
<path d="M51.8292 47.3014C51.8483 47.3792 51.9285 47.4266 52.0068 47.4058C52.085 47.3849 52.1328 47.307 52.1118 47.2292C52.0927 47.1514 52.0125 47.1039 51.9342 47.1248C51.8559 47.1438 51.8082 47.2235 51.8292 47.3014Z" fill="#42E8E0"/>
</g>
<path opacity="0.9" d="M52.5592 43.4359C52.5592 43.5631 52.4541 43.6676 52.3262 43.6676C52.1983 43.6676 52.0933 43.5631 52.0933 43.4359C52.0933 43.3088 52.1983 43.2043 52.3262 43.2043C52.4541 43.2043 52.5592 43.3088 52.5592 43.4359Z" fill="#42E8E0"/>
<path opacity="0.3" d="M49.3893 41.7425C49.4684 41.7425 49.5325 41.6788 49.5325 41.6001C49.5325 41.5215 49.4684 41.4578 49.3893 41.4578C49.3102 41.4578 49.2461 41.5215 49.2461 41.6001C49.2461 41.6788 49.3102 41.7425 49.3893 41.7425Z" fill="#42E8E0"/>
<path opacity="0.2" d="M50.3936 40.129C50.4748 40.129 50.5406 40.0636 50.5406 39.9828C50.5406 39.9021 50.4748 39.8367 50.3936 39.8367C50.3124 39.8367 50.2466 39.9021 50.2466 39.9828C50.2466 40.0636 50.3124 40.129 50.3936 40.129Z" fill="#42E8E0"/>
<path opacity="0.2" d="M54.7853 39.4512C54.7853 39.5024 54.7433 39.5442 54.6917 39.5442C54.6402 39.5442 54.5981 39.5024 54.5981 39.4512C54.5981 39.3999 54.6402 39.3582 54.6917 39.3582C54.7433 39.3582 54.7853 39.3999 54.7853 39.4512Z" fill="#42E8E0"/>
<path opacity="0.2" d="M54.352 39.1646C54.4595 39.1646 54.5468 39.0779 54.5468 38.971C54.5468 38.864 54.4595 38.7773 54.352 38.7773C54.2444 38.7773 54.1572 38.864 54.1572 38.971C54.1572 39.0779 54.2444 39.1646 54.352 39.1646Z" fill="#42E8E0"/>
<path opacity="0.2" d="M50.088 39.6904C50.088 39.7417 50.046 39.7835 49.9944 39.7835C49.9429 39.7835 49.9009 39.7417 49.9009 39.6904C49.9009 39.6392 49.9429 39.5974 49.9944 39.5974C50.046 39.5974 50.088 39.6392 50.088 39.6904Z" fill="#42E8E0"/>
<path opacity="0.3" d="M49.8302 44.3568C49.9093 44.3568 49.9734 44.293 49.9734 44.2144C49.9734 44.1358 49.9093 44.072 49.8302 44.072C49.7511 44.072 49.687 44.1358 49.687 44.2144C49.687 44.293 49.7511 44.3568 49.8302 44.3568Z" fill="#42E8E0"/>
<path opacity="0.2" d="M50.8345 42.7411C50.9157 42.7411 50.9816 42.6756 50.9816 42.5949C50.9816 42.5142 50.9157 42.4487 50.8345 42.4487C50.7533 42.4487 50.6875 42.5142 50.6875 42.5949C50.6875 42.6756 50.7533 42.7411 50.8345 42.7411Z" fill="#42E8E0"/>
<path opacity="0.2" d="M50.5294 42.3044C50.5294 42.3557 50.4874 42.3975 50.4359 42.3975C50.3843 42.3975 50.3423 42.3557 50.3423 42.3044C50.3423 42.2532 50.3843 42.2114 50.4359 42.2114C50.4874 42.2114 50.5294 42.2532 50.5294 42.3044Z" fill="#42E8E0"/>
<path opacity="0.9" d="M51.7952 41.1314C51.8238 41.2416 51.9365 41.308 52.0472 41.2795C52.158 41.251 52.2248 41.139 52.1962 41.0289C52.1675 40.9188 52.0549 40.8524 51.9441 40.8809C51.8334 40.9093 51.7666 41.0213 51.7952 41.1314Z" fill="#42E8E0"/>
<path opacity="0.3" d="M53.9912 38.8912C54.0083 38.9596 54.079 38.9995 54.1458 38.9824C54.2146 38.9653 54.2547 38.895 54.2375 38.8286C54.2203 38.7622 54.1496 38.7204 54.0828 38.7375C54.016 38.7546 53.974 38.8248 53.9912 38.8912Z" fill="#42E8E0"/>
<path opacity="0.2" d="M52.7671 37.7181C52.7843 37.7864 52.855 37.8301 52.9256 37.8111C52.9944 37.794 53.0364 37.7238 53.0192 37.6535C53.002 37.5833 52.9314 37.5415 52.8607 37.5605C52.7901 37.5795 52.75 37.6478 52.7671 37.7181Z" fill="#42E8E0"/>
<path opacity="0.2" d="M48.9978 38.1888C49.0092 38.2324 49.0531 38.259 49.0971 38.2476C49.141 38.2362 49.1677 38.1926 49.1563 38.1489C49.1448 38.1052 49.1009 38.0786 49.057 38.09C49.0131 38.1014 48.9863 38.1451 48.9978 38.1888Z" fill="#42E8E0"/>
<path opacity="0.2" d="M49.0971 37.7219C49.12 37.813 49.2155 37.87 49.3072 37.8453C49.3988 37.8225 49.4561 37.7276 49.4313 37.6365C49.4084 37.5454 49.3129 37.4884 49.2212 37.5131C49.1296 37.5359 49.0723 37.6308 49.0971 37.7219Z" fill="#42E8E0"/>
<path opacity="0.2" d="M53.0914 37.3688C53.1029 37.4124 53.1487 37.4409 53.1926 37.4295C53.2365 37.4181 53.2652 37.3726 53.2537 37.3289C53.2422 37.2852 53.1964 37.2568 53.1525 37.2681C53.1086 37.2795 53.0799 37.3251 53.0914 37.3688Z" fill="#42E8E0"/>
<path opacity="0.2" d="M54.094 44.3035C54.0558 44.3358 53.9966 44.332 53.9642 44.2921C53.9317 44.2541 53.9355 44.1953 53.9756 44.163C54.0157 44.1307 54.073 44.1345 54.1055 44.1744C54.1379 44.2124 54.1341 44.2712 54.094 44.3035Z" fill="#42E8E0"/>
<path opacity="0.2" d="M54.3081 43.81C54.226 43.8783 54.1038 43.8688 54.035 43.7872C53.9663 43.7056 53.9758 43.5841 54.0579 43.5157C54.14 43.4474 54.2622 43.4569 54.331 43.5385C54.3997 43.6201 54.3902 43.7416 54.3081 43.81Z" fill="#42E8E0"/>
<path opacity="0.3" d="M54.0099 43.3373C53.9698 43.3942 53.9832 43.4739 54.0405 43.5138C54.0977 43.5537 54.1779 43.5404 54.218 43.4834C54.2581 43.4265 54.2448 43.3468 54.1875 43.3069C54.1302 43.267 54.05 43.2803 54.0099 43.3373Z" fill="#42E8E0"/>
<path opacity="0.2" d="M54.1187 41.6516C54.0767 41.7105 54.09 41.7902 54.1492 41.832C54.2084 41.8737 54.2886 41.8604 54.3306 41.8016C54.3726 41.7427 54.3593 41.663 54.3001 41.6212C54.2409 41.5795 54.1607 41.5928 54.1187 41.6516Z" fill="#42E8E0"/>
<path opacity="0.2" d="M54.5963 41.6704C54.5696 41.7084 54.5792 41.7596 54.6154 41.7862C54.6536 41.8128 54.7052 41.8033 54.7319 41.7672C54.7586 41.7293 54.7491 41.678 54.7128 41.6514C54.6746 41.6249 54.6231 41.6343 54.5963 41.6704Z" fill="#42E8E0"/>
<g opacity="0.9">
<path d="M51.2317 45.7826C51.2604 45.8927 51.373 45.9591 51.4838 45.9306C51.5945 45.9022 51.6613 45.7902 51.6327 45.6801C51.6041 45.5699 51.4914 45.5035 51.3807 45.532C51.2699 45.5605 51.2031 45.6725 51.2317 45.7826Z" fill="#42E8E0"/>
<path d="M51.8292 44.67C51.8483 44.7478 51.9285 44.7953 52.0068 44.7744C52.085 44.7535 52.1328 44.6757 52.1118 44.5979C52.0927 44.52 52.0125 44.4726 51.9342 44.4935C51.8559 44.5124 51.8082 44.5922 51.8292 44.67Z" fill="#42E8E0"/>
</g>
<path opacity="0.9" d="M52.5592 37.8984C52.5592 38.0255 52.4541 38.13 52.3262 38.13C52.1983 38.13 52.0933 38.0255 52.0933 37.8984C52.0933 37.7712 52.1983 37.6667 52.3262 37.6667C52.4541 37.6667 52.5592 37.7712 52.5592 37.8984Z" fill="#42E8E0"/>
<path opacity="0.3" d="M49.3893 36.2049C49.4684 36.2049 49.5325 36.1412 49.5325 36.0625C49.5325 35.9839 49.4684 35.9202 49.3893 35.9202C49.3102 35.9202 49.2461 35.9839 49.2461 36.0625C49.2461 36.1412 49.3102 36.2049 49.3893 36.2049Z" fill="#42E8E0"/>
<path opacity="0.2" d="M50.3936 34.5914C50.4748 34.5914 50.5406 34.526 50.5406 34.4452C50.5406 34.3645 50.4748 34.2991 50.3936 34.2991C50.3124 34.2991 50.2466 34.3645 50.2466 34.4452C50.2466 34.526 50.3124 34.5914 50.3936 34.5914Z" fill="#42E8E0"/>
<path opacity="0.2" d="M54.7853 33.9136C54.7853 33.9648 54.7433 34.0066 54.6917 34.0066C54.6402 34.0066 54.5981 33.9648 54.5981 33.9136C54.5981 33.8623 54.6402 33.8206 54.6917 33.8206C54.7433 33.8206 54.7853 33.8623 54.7853 33.9136Z" fill="#42E8E0"/>
<path opacity="0.2" d="M54.352 33.627C54.4595 33.627 54.5468 33.5403 54.5468 33.4334C54.5468 33.3264 54.4595 33.2397 54.352 33.2397C54.2444 33.2397 54.1572 33.3264 54.1572 33.4334C54.1572 33.5403 54.2444 33.627 54.352 33.627Z" fill="#42E8E0"/>
<path opacity="0.2" d="M50.088 34.1528C50.088 34.2041 50.046 34.2459 49.9944 34.2459C49.9429 34.2459 49.9009 34.2041 49.9009 34.1528C49.9009 34.1016 49.9429 34.0598 49.9944 34.0598C50.046 34.0598 50.088 34.1016 50.088 34.1528Z" fill="#42E8E0"/>
<path opacity="0.3" d="M49.8302 38.8172C49.9093 38.8172 49.9734 38.7535 49.9734 38.6749C49.9734 38.5962 49.9093 38.5325 49.8302 38.5325C49.7511 38.5325 49.687 38.5962 49.687 38.6749C49.687 38.7535 49.7511 38.8172 49.8302 38.8172Z" fill="#42E8E0"/>
<path opacity="0.2" d="M50.8345 37.2035C50.9157 37.2035 50.9816 37.138 50.9816 37.0573C50.9816 36.9766 50.9157 36.9111 50.8345 36.9111C50.7533 36.9111 50.6875 36.9766 50.6875 37.0573C50.6875 37.138 50.7533 37.2035 50.8345 37.2035Z" fill="#42E8E0"/>
<path opacity="0.2" d="M50.5294 36.7651C50.5294 36.8164 50.4874 36.8582 50.4359 36.8582C50.3843 36.8582 50.3423 36.8164 50.3423 36.7651C50.3423 36.7139 50.3843 36.6721 50.4359 36.6721C50.4874 36.6721 50.5294 36.7139 50.5294 36.7651Z" fill="#42E8E0"/>
<path opacity="0.9" d="M51.7952 35.5919C51.8238 35.702 51.9365 35.7684 52.0472 35.74C52.158 35.7115 52.2248 35.5995 52.1962 35.4894C52.1675 35.3793 52.0549 35.3128 51.9441 35.3413C51.8334 35.3698 51.7666 35.4818 51.7952 35.5919Z" fill="#42E8E0"/>
<path opacity="0.3" d="M53.9912 33.3517C54.0083 33.42 54.079 33.4599 54.1458 33.4428C54.2127 33.4257 54.2547 33.3555 54.2375 33.289C54.2203 33.2226 54.1496 33.1808 54.0828 33.1979C54.016 33.215 53.974 33.2852 53.9912 33.3517Z" fill="#42E8E0"/>
<path opacity="0.2" d="M52.7671 32.1805C52.7843 32.2489 52.855 32.2926 52.9256 32.2736C52.9944 32.2565 53.0364 32.1862 53.0192 32.116C53.002 32.0458 52.9314 32.0059 52.8607 32.023C52.7901 32.0401 52.75 32.1103 52.7671 32.1805Z" fill="#42E8E0"/>
<path opacity="0.2" d="M48.9978 32.6512C49.0092 32.6948 49.0531 32.7214 49.0971 32.71C49.141 32.6986 49.1677 32.655 49.1563 32.6113C49.1448 32.5676 49.1009 32.5411 49.057 32.5524C49.0131 32.5638 48.9863 32.6075 48.9978 32.6512Z" fill="#42E8E0"/>
<path opacity="0.2" d="M49.0971 32.1843C49.12 32.2754 49.2155 32.3324 49.3072 32.3077C49.3988 32.2849 49.4561 32.19 49.4313 32.0989C49.4084 32.0078 49.3129 31.9508 49.2212 31.9755C49.1296 31.9983 49.0723 32.0932 49.0971 32.1843Z" fill="#42E8E0"/>
<path opacity="0.2" d="M53.0914 31.8312C53.1029 31.8748 53.1487 31.9033 53.1926 31.8919C53.2365 31.8805 53.2652 31.835 53.2537 31.7913C53.2422 31.7476 53.1964 31.7192 53.1525 31.7305C53.1086 31.7419 53.0799 31.7875 53.0914 31.8312Z" fill="#42E8E0"/>
<path opacity="0.2" d="M54.094 38.7642C54.0558 38.7965 53.9966 38.7927 53.9642 38.7528C53.9317 38.7148 53.9355 38.656 53.9756 38.6237C54.0157 38.5914 54.073 38.5952 54.1055 38.6351C54.1379 38.6731 54.1341 38.7319 54.094 38.7642Z" fill="#42E8E0"/>
<path opacity="0.2" d="M54.3081 38.2704C54.226 38.3388 54.1038 38.3293 54.035 38.2476C53.9663 38.166 53.9758 38.0445 54.0579 37.9762C54.14 37.9078 54.2622 37.9173 54.331 37.9989C54.3997 38.0806 54.3902 38.2021 54.3081 38.2704Z" fill="#42E8E0"/>
<path opacity="0.3" d="M54.0099 37.7997C53.9698 37.8566 53.9832 37.9363 54.0405 37.9762C54.0977 38.0161 54.1779 38.0028 54.218 37.9458C54.2581 37.8889 54.2448 37.8092 54.1875 37.7693C54.1302 37.7294 54.05 37.7427 54.0099 37.7997Z" fill="#42E8E0"/>
<path opacity="0.2" d="M54.1187 36.1121C54.0767 36.1709 54.09 36.2506 54.1492 36.2924C54.2084 36.3342 54.2886 36.3209 54.3306 36.262C54.3726 36.2032 54.3593 36.1234 54.3001 36.0817C54.2409 36.0399 54.1607 36.0532 54.1187 36.1121Z" fill="#42E8E0"/>
<path opacity="0.2" d="M54.5963 36.1328C54.5696 36.1708 54.5792 36.222 54.6154 36.2486C54.6536 36.2752 54.7052 36.2657 54.7319 36.2296C54.7586 36.1936 54.7491 36.1404 54.7128 36.1138C54.6765 36.0873 54.6231 36.0967 54.5963 36.1328Z" fill="#42E8E0"/>
<g opacity="0.9">
<path d="M51.2317 40.245C51.2604 40.3551 51.373 40.4215 51.4838 40.393C51.5945 40.3646 51.6613 40.2526 51.6327 40.1425C51.6041 40.0324 51.4914 39.9659 51.3807 39.9944C51.2699 40.0229 51.2031 40.1349 51.2317 40.245Z" fill="#42E8E0"/>
<path d="M51.8292 39.1324C51.8483 39.2102 51.9285 39.2577 52.0068 39.2368C52.085 39.2159 52.1328 39.1381 52.1118 39.0603C52.0927 38.9824 52.0125 38.935 51.9342 38.9559C51.8559 38.9748 51.8082 39.0546 51.8292 39.1324Z" fill="#42E8E0"/>
</g>
<g opacity="0.5">
<path style="mix-blend-mode:lighten" opacity="0.4" d="M52.3278 78.75L43.9492 73.8844L60.6185 64.3279L68.9971 69.1935L52.3278 78.75Z" fill="url(#paint31_linear_184_12462)"/>
</g>
<path d="M68.9971 69.3114L60.4429 64.4002L68.9971 59.491L77.5513 64.4002L68.9971 69.3114Z" fill="url(#paint32_linear_184_12462)"/>
<path d="M68.9971 67.8988L60.4429 62.9876L68.9971 58.0784L77.5513 62.9876L68.9971 67.8988Z" fill="url(#paint33_linear_184_12462)"/>
<g opacity="0.9">
<path d="M68.9973 59.1757L62.3945 55.3846L68.9973 51.5935L75.602 55.3846L68.9973 59.1757Z" fill="url(#paint34_linear_184_12462)"/>
<path d="M75.6023 55.3845V62.9876L68.9976 66.7787V59.1756L75.6023 55.3845Z" fill="url(#paint35_linear_184_12462)"/>
<path d="M62.3945 55.3845V62.9876L68.9973 66.7787V59.1756L62.3945 55.3845Z" fill="url(#paint36_linear_184_12462)"/>
</g>
<path style="mix-blend-mode:lighten" opacity="0.7" d="M68.9973 66.7787L62.3945 62.9876L68.9973 59.1965L75.602 62.9876L68.9973 66.7787Z" fill="url(#paint37_linear_184_12462)"/>
<path d="M77.5513 62.9878V64.4002L68.9971 69.3113V67.8989L77.5513 62.9878Z" fill="#421EA5"/>
<path d="M60.4429 62.9878V64.4002L68.9971 69.3113V67.8989L60.4429 62.9878Z" fill="url(#paint38_linear_184_12462)"/>
<path style="mix-blend-mode:lighten" opacity="0.7" d="M60.4429 62.9878V64.4002L68.9971 69.3113V67.8989L60.4429 62.9878Z" fill="url(#paint39_linear_184_12462)"/>
<path d="M68.9971 57.5013L60.4429 52.5921L68.9971 47.6809L77.5513 52.5921L68.9971 57.5013Z" fill="url(#paint40_linear_184_12462)"/>
<path d="M68.9971 56.089L60.4429 51.1797L68.9971 46.2686L77.5513 51.1797L68.9971 56.089Z" fill="url(#paint41_linear_184_12462)"/>
<path style="mix-blend-mode:lighten" opacity="0.7" d="M68.9971 56.089L60.4429 51.1797L68.9971 46.2686L77.5513 51.1797L68.9971 56.089Z" fill="url(#paint42_linear_184_12462)"/>
<path opacity="0.3" d="M68.9969 52.9984L65.8311 51.1797L68.9969 49.3611L72.1646 51.1797L68.9969 52.9984Z" fill="#42E8E0"/>
<path opacity="0.3" d="M68.9969 50.595L71.0896 51.7967L72.1646 51.1797L68.9969 49.3611L65.8311 51.1797L66.9061 51.7967L68.9969 50.595Z" fill="#42E8E0"/>
<path d="M68.9969 50.595L71.0896 51.7967L72.1646 51.1797L68.9969 49.3611L65.8311 51.1797L66.9061 51.7967L68.9969 50.595Z" fill="#42E8E0"/>
<path d="M77.5513 51.1797V52.5921L68.9971 57.5013V56.0889L77.5513 51.1797Z" fill="#421EA5"/>
<path d="M60.4429 51.1797V52.5921L68.9971 57.5013V56.0889L60.4429 51.1797Z" fill="url(#paint43_linear_184_12462)"/>
<path style="mix-blend-mode:lighten" opacity="0.7" d="M60.4429 51.1797V52.5921L68.9971 57.5013V56.0889L60.4429 51.1797Z" fill="url(#paint44_linear_184_12462)"/>
<path opacity="0.3" d="M68.9971 57.5013V67.8988L60.4429 62.9877V52.592L68.9971 57.5013Z" fill="#42E8E0"/>
<path opacity="0.3" d="M62.3945 53.7102V62.9877L68.9973 66.7788L75.602 62.9877V53.7102L68.9973 57.5013L62.3945 53.7102Z" fill="#42E8E0"/>
<path opacity="0.3" d="M68.9973 57.5013V66.7788L62.3945 62.9877V53.7102L68.9973 57.5013Z" fill="#42E8E0"/>
<path opacity="0.5" d="M60.4429 52.592V62.9877L68.9971 67.8988L77.5513 62.9877V52.592L68.9971 57.5013L60.4429 52.592Z" fill="#5CFFF3"/>
<path style="mix-blend-mode:lighten" d="M60.6453 51.1797L69.0983 46.3274L68.9971 46.2686L60.4429 51.1797L68.9971 56.089L69.0983 56.032L60.6453 51.1797Z" fill="url(#paint45_linear_184_12462)"/>
<path opacity="0.5" d="M60.4429 52.592V62.9877L60.5613 63.056V52.6585L60.4429 52.592Z" fill="#42E8E0"/>
<path opacity="0.5" d="M77.5515 52.592V62.9877L77.4351 63.056V52.6585L77.5515 52.592Z" fill="#42E8E0"/>
<path opacity="0.5" d="M68.9969 57.5013L68.7964 57.3855V67.783L68.9969 67.8988L69.1993 67.783V57.3855L68.9969 57.5013Z" fill="#42E8E0"/>
<g style="mix-blend-mode:lighten" opacity="0.7">
<path d="M72 51.8859V24.75H66.0163L66 51.8859L68.9991 53.25L72 51.8859Z" fill="url(#paint46_linear_184_12462)"/>
</g>
<path opacity="0.9" d="M69.6656 48.6964C69.6656 48.8236 69.5606 48.9281 69.4327 48.9281C69.3047 48.9281 69.1997 48.8236 69.1997 48.6964C69.1997 48.5693 69.3047 48.4648 69.4327 48.4648C69.5606 48.4648 69.6656 48.5693 69.6656 48.6964Z" fill="#42E8E0"/>
<path opacity="0.3" d="M66.4977 47.003C66.5768 47.003 66.6409 46.9393 66.6409 46.8606C66.6409 46.782 66.5768 46.7183 66.4977 46.7183C66.4186 46.7183 66.3545 46.782 66.3545 46.8606C66.3545 46.9393 66.4186 47.003 66.4977 47.003Z" fill="#42E8E0"/>
<path opacity="0.2" d="M67.5001 45.3895C67.5813 45.3895 67.6471 45.3241 67.6471 45.2433C67.6471 45.1626 67.5813 45.0972 67.5001 45.0972C67.4189 45.0972 67.353 45.1626 67.353 45.2433C67.353 45.3241 67.4189 45.3895 67.5001 45.3895Z" fill="#42E8E0"/>
<path opacity="0.2" d="M71.8937 44.7117C71.8937 44.7629 71.8517 44.8047 71.8001 44.8047C71.7485 44.8047 71.7065 44.7629 71.7065 44.7117C71.7065 44.6604 71.7485 44.6187 71.8001 44.6187C71.8517 44.6187 71.8937 44.6604 71.8937 44.7117Z" fill="#42E8E0"/>
<path opacity="0.2" d="M71.4584 44.4251C71.566 44.4251 71.6532 44.3384 71.6532 44.2315C71.6532 44.1245 71.566 44.0378 71.4584 44.0378C71.3509 44.0378 71.2637 44.1245 71.2637 44.2315C71.2637 44.3384 71.3509 44.4251 71.4584 44.4251Z" fill="#42E8E0"/>
<path opacity="0.2" d="M67.1028 45.044C67.1545 45.044 67.1964 45.0023 67.1964 44.9509C67.1964 44.8996 67.1545 44.8579 67.1028 44.8579C67.0512 44.8579 67.0093 44.8996 67.0093 44.9509C67.0093 45.0023 67.0512 45.044 67.1028 45.044Z" fill="#42E8E0"/>
<path opacity="0.3" d="M67.0818 49.4749C67.0818 49.5546 67.0169 49.6173 66.9386 49.6173C66.8603 49.6173 66.7954 49.5527 66.7954 49.4749C66.7954 49.3971 66.8603 49.3325 66.9386 49.3325C67.0169 49.3325 67.0818 49.3971 67.0818 49.4749Z" fill="#42E8E0"/>
<path opacity="0.2" d="M68.0885 47.8554C68.0885 47.9351 68.0236 48.0016 67.9415 48.0016C67.8594 48.0016 67.7944 47.937 67.7944 47.8554C67.7944 47.7738 67.8594 47.7092 67.9415 47.7092C68.0236 47.7092 68.0885 47.7738 68.0885 47.8554Z" fill="#42E8E0"/>
<path opacity="0.2" d="M67.5423 47.658C67.594 47.658 67.6359 47.6163 67.6359 47.5649C67.6359 47.5136 67.594 47.4719 67.5423 47.4719C67.4906 47.4719 67.4487 47.5136 67.4487 47.5649C67.4487 47.6163 67.4906 47.658 67.5423 47.658Z" fill="#42E8E0"/>
<path opacity="0.9" d="M68.9016 46.39C68.9303 46.5001 69.0429 46.5665 69.1537 46.5381C69.2644 46.5096 69.3313 46.3976 69.3026 46.2875C69.274 46.1774 69.1613 46.1109 69.0506 46.1394C68.9398 46.1679 68.873 46.2799 68.9016 46.39Z" fill="#42E8E0"/>
<path opacity="0.3" d="M71.0991 44.1499C71.1163 44.2182 71.1869 44.2581 71.2537 44.241C71.3225 44.2239 71.3626 44.1537 71.3454 44.0873C71.3282 44.0189 71.2576 43.979 71.1907 43.9961C71.1239 44.0132 71.0819 44.0835 71.0991 44.1499Z" fill="#42E8E0"/>
<path opacity="0.2" d="M69.8751 42.9785C69.8923 43.0469 69.9629 43.0886 70.0336 43.0716C70.1023 43.0545 70.1443 42.9842 70.1271 42.914C70.1099 42.8456 70.0393 42.8039 69.9686 42.821C69.8999 42.838 69.856 42.9083 69.8751 42.9785Z" fill="#42E8E0"/>
<path opacity="0.2" d="M66.1042 43.4493C66.1157 43.4929 66.1596 43.5195 66.2035 43.5081C66.2474 43.4967 66.2742 43.4531 66.2627 43.4094C66.2512 43.3657 66.2073 43.3391 66.1634 43.3505C66.1195 43.3619 66.0928 43.4056 66.1042 43.4493Z" fill="#42E8E0"/>
<path opacity="0.2" d="M66.2055 42.9824C66.2284 43.0735 66.3239 43.1305 66.4155 43.1058C66.5072 43.0811 66.5645 42.9881 66.5397 42.897C66.5148 42.8059 66.4213 42.7489 66.3296 42.7736C66.238 42.7983 66.1807 42.8913 66.2055 42.9824Z" fill="#42E8E0"/>
<path opacity="0.2" d="M70.1978 42.6293C70.2093 42.6729 70.2551 42.7014 70.299 42.69C70.343 42.6786 70.3716 42.6331 70.3601 42.5894C70.3487 42.5457 70.3029 42.5173 70.2589 42.5286C70.215 42.54 70.1864 42.5856 70.1978 42.6293Z" fill="#42E8E0"/>
<path opacity="0.2" d="M71.2005 49.5623C71.1623 49.5946 71.1031 49.5908 71.0706 49.5509C71.0382 49.5129 71.042 49.4541 71.0821 49.4218C71.1203 49.3895 71.1795 49.3933 71.2119 49.4332C71.2444 49.4712 71.2406 49.53 71.2005 49.5623Z" fill="#42E8E0"/>
<path opacity="0.2" d="M71.4145 49.0705C71.3324 49.1388 71.2102 49.1293 71.1415 49.0477C71.0727 48.9661 71.0823 48.8446 71.1644 48.7762C71.2465 48.7079 71.3687 48.7174 71.4374 48.799C71.5062 48.8806 71.4966 49.0021 71.4145 49.0705Z" fill="#42E8E0"/>
<path opacity="0.3" d="M71.1183 48.5978C71.0782 48.6547 71.0916 48.7344 71.1489 48.7743C71.2061 48.8142 71.2863 48.8009 71.3264 48.7439C71.3665 48.687 71.3532 48.6073 71.2959 48.5674C71.2386 48.5275 71.1584 48.5408 71.1183 48.5978Z" fill="#42E8E0"/>
<path opacity="0.2" d="M71.2251 46.9121C71.1831 46.971 71.1965 47.0507 71.2557 47.0925C71.3149 47.1342 71.3951 47.1209 71.4371 47.0621C71.4791 47.0032 71.4657 46.9235 71.4065 46.8817C71.3473 46.84 71.2671 46.8533 71.2251 46.9121Z" fill="#42E8E0"/>
<path opacity="0.2" d="M71.7028 46.9309C71.6761 46.9689 71.6856 47.0201 71.7219 47.0467C71.7601 47.0733 71.8116 47.0638 71.8384 47.0277C71.8651 46.9898 71.8555 46.9385 71.8193 46.9119C71.7811 46.8854 71.7295 46.8948 71.7028 46.9309Z" fill="#42E8E0"/>
<g opacity="0.9">
<path d="M68.3401 51.0431C68.3688 51.1532 68.4814 51.2196 68.5922 51.1911C68.7029 51.1627 68.7697 51.0507 68.7411 50.9406C68.7125 50.8305 68.5998 50.764 68.4891 50.7925C68.3783 50.821 68.3115 50.933 68.3401 51.0431Z" fill="#42E8E0"/>
<path d="M68.9376 49.9305C68.9567 50.0083 69.0369 50.0558 69.1152 50.0349C69.1934 50.0159 69.2412 49.9362 69.2202 49.8584C69.2011 49.7805 69.1209 49.7331 69.0426 49.754C68.9643 49.7729 68.9166 49.8527 68.9376 49.9305Z" fill="#42E8E0"/>
</g>
<path opacity="0.9" d="M69.6656 46.0673C69.6656 46.1945 69.5606 46.2989 69.4327 46.2989C69.3047 46.2989 69.1997 46.1945 69.1997 46.0673C69.1997 45.9401 69.3047 45.8357 69.4327 45.8357C69.5606 45.8357 69.6656 45.9401 69.6656 46.0673Z" fill="#42E8E0"/>
<path opacity="0.3" d="M66.4977 44.3739C66.5768 44.3739 66.6409 44.3101 66.6409 44.2315C66.6409 44.1529 66.5768 44.0891 66.4977 44.0891C66.4186 44.0891 66.3545 44.1529 66.3545 44.2315C66.3545 44.3101 66.4186 44.3739 66.4977 44.3739Z" fill="#42E8E0"/>
<path opacity="0.2" d="M67.5001 42.7584C67.5813 42.7584 67.6471 42.693 67.6471 42.6122C67.6471 42.5315 67.5813 42.4661 67.5001 42.4661C67.4189 42.4661 67.353 42.5315 67.353 42.6122C67.353 42.693 67.4189 42.7584 67.5001 42.7584Z" fill="#42E8E0"/>
<path opacity="0.2" d="M71.8937 42.0825C71.8937 42.1338 71.8517 42.1755 71.8001 42.1755C71.7485 42.1755 71.7065 42.1338 71.7065 42.0825C71.7065 42.0313 71.7485 41.9895 71.8001 41.9895C71.8517 41.9895 71.8937 42.0313 71.8937 42.0825Z" fill="#42E8E0"/>
<path opacity="0.2" d="M71.4584 41.794C71.566 41.794 71.6532 41.7073 71.6532 41.6004C71.6532 41.4934 71.566 41.4067 71.4584 41.4067C71.3509 41.4067 71.2637 41.4934 71.2637 41.6004C71.2637 41.7073 71.3509 41.794 71.4584 41.794Z" fill="#42E8E0"/>
<path opacity="0.2" d="M67.1964 42.3218C67.1964 42.373 67.1544 42.4148 67.1028 42.4148C67.0513 42.4148 67.0093 42.373 67.0093 42.3218C67.0093 42.2705 67.0513 42.2288 67.1028 42.2288C67.1544 42.2288 67.1964 42.2705 67.1964 42.3218Z" fill="#42E8E0"/>
<path opacity="0.3" d="M66.9386 46.9862C67.0177 46.9862 67.0818 46.9224 67.0818 46.8438C67.0818 46.7652 67.0177 46.7014 66.9386 46.7014C66.8595 46.7014 66.7954 46.7652 66.7954 46.8438C66.7954 46.9224 66.8595 46.9862 66.9386 46.9862Z" fill="#42E8E0"/>
<path opacity="0.2" d="M68.0885 45.2263C68.0885 45.306 68.0236 45.3724 67.9415 45.3724C67.8594 45.3724 67.7944 45.3079 67.7944 45.2263C67.7944 45.1446 67.8594 45.0801 67.9415 45.0801C68.0236 45.0801 68.0885 45.1446 68.0885 45.2263Z" fill="#42E8E0"/>
<path opacity="0.2" d="M67.5423 45.0269C67.594 45.0269 67.6359 44.9852 67.6359 44.9338C67.6359 44.8825 67.594 44.8408 67.5423 44.8408C67.4906 44.8408 67.4487 44.8825 67.4487 44.9338C67.4487 44.9852 67.4906 45.0269 67.5423 45.0269Z" fill="#42E8E0"/>
<path opacity="0.9" d="M68.9016 43.7608C68.9303 43.8709 69.0429 43.9374 69.1537 43.9089C69.2644 43.8804 69.3313 43.7684 69.3026 43.6583C69.274 43.5482 69.1613 43.4818 69.0506 43.5103C68.9398 43.5387 68.873 43.6507 68.9016 43.7608Z" fill="#42E8E0"/>
<path opacity="0.3" d="M71.0991 41.5208C71.1163 41.5891 71.1869 41.629 71.2537 41.6119C71.3225 41.5948 71.3626 41.5245 71.3454 41.4581C71.3282 41.3898 71.2576 41.3499 71.1907 41.367C71.1239 41.3841 71.0819 41.4543 71.0991 41.5208Z" fill="#42E8E0"/>
<path opacity="0.2" d="M69.8751 40.3475C69.8923 40.4159 69.9629 40.4576 70.0336 40.4406C70.1023 40.4235 70.1443 40.3532 70.1271 40.283C70.1099 40.2128 70.0393 40.1729 69.9686 40.19C69.8999 40.2071 69.856 40.2773 69.8751 40.3475Z" fill="#42E8E0"/>
<path opacity="0.2" d="M66.1042 40.8201C66.1157 40.8638 66.1596 40.8903 66.2035 40.879C66.2474 40.8676 66.2742 40.8239 66.2627 40.7802C66.2512 40.7366 66.2073 40.71 66.1634 40.7214C66.1195 40.7328 66.0928 40.7764 66.1042 40.8201Z" fill="#42E8E0"/>
<path opacity="0.2" d="M66.2055 40.3533C66.2284 40.4444 66.3239 40.5013 66.4155 40.4767C66.5072 40.452 66.5645 40.359 66.5397 40.2678C66.5148 40.1767 66.4213 40.1198 66.3296 40.1444C66.238 40.1672 66.1807 40.2621 66.2055 40.3533Z" fill="#42E8E0"/>
<path opacity="0.2" d="M70.1978 39.9982C70.2093 40.0418 70.2551 40.0703 70.299 40.0589C70.343 40.0475 70.3716 40.002 70.3601 39.9583C70.3487 39.9146 70.3029 39.8861 70.2589 39.8975C70.215 39.9089 70.1864 39.9545 70.1978 39.9982Z" fill="#42E8E0"/>
<path opacity="0.2" d="M71.2005 46.9329C71.1623 46.9652 71.1031 46.9614 71.0706 46.9215C71.0382 46.8835 71.042 46.8247 71.0821 46.7924C71.1203 46.7601 71.1795 46.7639 71.2119 46.8038C71.2444 46.8418 71.2406 46.9006 71.2005 46.9329Z" fill="#42E8E0"/>
<path opacity="0.2" d="M71.4145 46.4394C71.3324 46.5077 71.2102 46.4982 71.1415 46.4166C71.0727 46.335 71.0823 46.2135 71.1644 46.1451C71.2465 46.0768 71.3687 46.0863 71.4374 46.1679C71.5062 46.2495 71.4966 46.371 71.4145 46.4394Z" fill="#42E8E0"/>
<path opacity="0.3" d="M71.1183 45.9667C71.0782 46.0236 71.0916 46.1033 71.1489 46.1432C71.2061 46.1831 71.2863 46.1698 71.3264 46.1128C71.3665 46.0559 71.3532 45.9761 71.2959 45.9363C71.2386 45.8964 71.1584 45.9097 71.1183 45.9667Z" fill="#42E8E0"/>
<path opacity="0.2" d="M71.2251 44.281C71.1831 44.3399 71.1965 44.4196 71.2557 44.4613C71.3149 44.5031 71.3951 44.4898 71.4371 44.431C71.4791 44.3721 71.4657 44.2924 71.4065 44.2506C71.3473 44.2089 71.2671 44.2222 71.2251 44.281Z" fill="#42E8E0"/>
<path opacity="0.2" d="M71.7028 44.2998C71.6761 44.3378 71.6856 44.389 71.7219 44.4156C71.7601 44.4422 71.8116 44.4327 71.8384 44.3966C71.8651 44.3587 71.8555 44.3074 71.8193 44.2808C71.7811 44.2542 71.7295 44.2637 71.7028 44.2998Z" fill="#42E8E0"/>
<g opacity="0.9">
<path d="M68.3401 48.412C68.3688 48.5221 68.4814 48.5885 68.5922 48.56C68.7029 48.5316 68.7697 48.4196 68.7411 48.3095C68.7125 48.1993 68.5998 48.1329 68.4891 48.1614C68.3783 48.1899 68.3115 48.3019 68.3401 48.412Z" fill="#42E8E0"/>
<path d="M68.9376 47.3014C68.9567 47.3792 69.0369 47.4266 69.1152 47.4058C69.1934 47.3849 69.2412 47.307 69.2202 47.2292C69.2011 47.1514 69.1209 47.1039 69.0426 47.1248C68.9643 47.1438 68.9166 47.2235 68.9376 47.3014Z" fill="#42E8E0"/>
</g>
<path opacity="0.9" d="M69.6656 43.4359C69.6656 43.5631 69.5606 43.6676 69.4327 43.6676C69.3047 43.6676 69.1997 43.5631 69.1997 43.4359C69.1997 43.3088 69.3047 43.2043 69.4327 43.2043C69.5606 43.2043 69.6656 43.3088 69.6656 43.4359Z" fill="#42E8E0"/>
<path opacity="0.3" d="M66.4977 41.7425C66.5768 41.7425 66.6409 41.6788 66.6409 41.6001C66.6409 41.5215 66.5768 41.4578 66.4977 41.4578C66.4186 41.4578 66.3545 41.5215 66.3545 41.6001C66.3545 41.6788 66.4186 41.7425 66.4977 41.7425Z" fill="#42E8E0"/>
<path opacity="0.2" d="M67.5001 40.129C67.5813 40.129 67.6471 40.0636 67.6471 39.9828C67.6471 39.9021 67.5813 39.8367 67.5001 39.8367C67.4189 39.8367 67.353 39.9021 67.353 39.9828C67.353 40.0636 67.4189 40.129 67.5001 40.129Z" fill="#42E8E0"/>
<path opacity="0.2" d="M71.8937 39.4512C71.8937 39.5024 71.8517 39.5442 71.8001 39.5442C71.7485 39.5442 71.7065 39.5024 71.7065 39.4512C71.7065 39.3999 71.7485 39.3582 71.8001 39.3582C71.8517 39.3582 71.8937 39.3999 71.8937 39.4512Z" fill="#42E8E0"/>
<path opacity="0.2" d="M71.4584 39.1646C71.566 39.1646 71.6532 39.0779 71.6532 38.971C71.6532 38.864 71.566 38.7773 71.4584 38.7773C71.3509 38.7773 71.2637 38.864 71.2637 38.971C71.2637 39.0779 71.3509 39.1646 71.4584 39.1646Z" fill="#42E8E0"/>
<path opacity="0.2" d="M67.1964 39.6904C67.1964 39.7417 67.1544 39.7835 67.1028 39.7835C67.0513 39.7835 67.0093 39.7417 67.0093 39.6904C67.0093 39.6392 67.0513 39.5974 67.1028 39.5974C67.1544 39.5974 67.1964 39.6392 67.1964 39.6904Z" fill="#42E8E0"/>
<path opacity="0.3" d="M66.9386 44.3568C67.0177 44.3568 67.0818 44.293 67.0818 44.2144C67.0818 44.1358 67.0177 44.072 66.9386 44.072C66.8595 44.072 66.7954 44.1358 66.7954 44.2144C66.7954 44.293 66.8595 44.3568 66.9386 44.3568Z" fill="#42E8E0"/>
<path opacity="0.2" d="M68.0885 42.5949C68.0885 42.6746 68.0236 42.7411 67.9415 42.7411C67.8594 42.7411 67.7944 42.6765 67.7944 42.5949C67.7944 42.5133 67.8594 42.4487 67.9415 42.4487C68.0236 42.4487 68.0885 42.5133 68.0885 42.5949Z" fill="#42E8E0"/>
<path opacity="0.2" d="M67.6378 42.3044C67.6378 42.3557 67.5958 42.3975 67.5442 42.3975C67.4927 42.3975 67.4507 42.3557 67.4507 42.3044C67.4507 42.2532 67.4927 42.2114 67.5442 42.2114C67.5958 42.2114 67.6378 42.2532 67.6378 42.3044Z" fill="#42E8E0"/>
<path opacity="0.9" d="M68.9016 41.1314C68.9303 41.2416 69.0429 41.308 69.1537 41.2795C69.2644 41.251 69.3313 41.139 69.3026 41.0289C69.274 40.9188 69.1613 40.8524 69.0506 40.8809C68.9398 40.9093 68.873 41.0213 68.9016 41.1314Z" fill="#42E8E0"/>
<path opacity="0.3" d="M71.0991 38.8914C71.1163 38.9597 71.1869 38.9996 71.2537 38.9825C71.3225 38.9654 71.3626 38.8952 71.3454 38.8287C71.3282 38.7604 71.2576 38.7205 71.1907 38.7376C71.1239 38.7547 71.0819 38.8249 71.0991 38.8914Z" fill="#42E8E0"/>
<path opacity="0.2" d="M69.8752 37.7181C69.8924 37.7864 69.963 37.8301 70.0337 37.8111C70.1024 37.794 70.1444 37.7238 70.1273 37.6535C70.1101 37.5833 70.0394 37.5415 69.9688 37.5605C69.8981 37.5795 69.8561 37.6478 69.8752 37.7181Z" fill="#42E8E0"/>
<path opacity="0.2" d="M66.1042 38.1888C66.1157 38.2324 66.1596 38.259 66.2035 38.2476C66.2474 38.2362 66.2742 38.1926 66.2627 38.1489C66.2512 38.1052 66.2073 38.0786 66.1634 38.09C66.1195 38.1014 66.0928 38.1451 66.1042 38.1888Z" fill="#42E8E0"/>
<path opacity="0.2" d="M66.2055 37.7219C66.2284 37.813 66.3239 37.87 66.4155 37.8453C66.5072 37.8225 66.5645 37.7276 66.5397 37.6365C66.5148 37.5454 66.4213 37.4884 66.3296 37.5131C66.238 37.5359 66.1807 37.6308 66.2055 37.7219Z" fill="#42E8E0"/>
<path opacity="0.2" d="M70.1978 37.3688C70.2093 37.4124 70.2551 37.4409 70.299 37.4295C70.343 37.4181 70.3716 37.3726 70.3601 37.3289C70.3487 37.2852 70.3029 37.2568 70.2589 37.2681C70.215 37.2795 70.1864 37.3251 70.1978 37.3688Z" fill="#42E8E0"/>
<path opacity="0.2" d="M71.2005 44.3035C71.1623 44.3358 71.1031 44.332 71.0706 44.2921C71.0382 44.2541 71.042 44.1953 71.0821 44.163C71.1203 44.1307 71.1795 44.1345 71.2119 44.1744C71.2444 44.2124 71.2406 44.2712 71.2005 44.3035Z" fill="#42E8E0"/>
<path opacity="0.2" d="M71.4145 43.81C71.3324 43.8783 71.2102 43.8688 71.1415 43.7872C71.0727 43.7056 71.0823 43.5841 71.1644 43.5157C71.2465 43.4474 71.3687 43.4569 71.4374 43.5385C71.5062 43.6201 71.4966 43.7416 71.4145 43.81Z" fill="#42E8E0"/>
<path opacity="0.3" d="M71.1183 43.3373C71.0782 43.3942 71.0916 43.4739 71.1489 43.5138C71.2061 43.5537 71.2863 43.5404 71.3264 43.4834C71.3665 43.4265 71.3532 43.3468 71.2959 43.3069C71.2386 43.267 71.1584 43.2803 71.1183 43.3373Z" fill="#42E8E0"/>
<path opacity="0.2" d="M71.2251 41.6516C71.1831 41.7105 71.1965 41.7902 71.2557 41.832C71.3149 41.8737 71.3951 41.8604 71.4371 41.8016C71.4791 41.7427 71.4657 41.663 71.4065 41.6212C71.3473 41.5795 71.2671 41.5928 71.2251 41.6516Z" fill="#42E8E0"/>
<path opacity="0.2" d="M71.7028 41.6704C71.6761 41.7084 71.6856 41.7596 71.7219 41.7862C71.7601 41.8128 71.8116 41.8033 71.8384 41.7672C71.8651 41.7293 71.8555 41.678 71.8193 41.6514C71.7811 41.6249 71.7295 41.6343 71.7028 41.6704Z" fill="#42E8E0"/>
<g opacity="0.9">
<path d="M68.3401 45.7826C68.3688 45.8927 68.4814 45.9591 68.5922 45.9306C68.7029 45.9022 68.7697 45.7902 68.7411 45.6801C68.7125 45.5699 68.5998 45.5035 68.4891 45.532C68.3783 45.5605 68.3115 45.6725 68.3401 45.7826Z" fill="#42E8E0"/>
<path d="M68.9376 44.67C68.9567 44.7478 69.0369 44.7953 69.1152 44.7744C69.1934 44.7535 69.2412 44.6757 69.2202 44.5979C69.2011 44.52 69.1209 44.4726 69.0426 44.4935C68.9643 44.5124 68.9166 44.5922 68.9376 44.67Z" fill="#42E8E0"/>
</g>
<path opacity="0.9" d="M69.6656 37.8984C69.6656 38.0255 69.5606 38.13 69.4327 38.13C69.3047 38.13 69.1997 38.0255 69.1997 37.8984C69.1997 37.7712 69.3047 37.6667 69.4327 37.6667C69.5606 37.6667 69.6656 37.7712 69.6656 37.8984Z" fill="#42E8E0"/>
<path opacity="0.3" d="M66.4977 36.2049C66.5768 36.2049 66.6409 36.1412 66.6409 36.0625C66.6409 35.9839 66.5768 35.9202 66.4977 35.9202C66.4186 35.9202 66.3545 35.9839 66.3545 36.0625C66.3545 36.1412 66.4186 36.2049 66.4977 36.2049Z" fill="#42E8E0"/>
<path opacity="0.2" d="M67.5001 34.5914C67.5813 34.5914 67.6471 34.526 67.6471 34.4452C67.6471 34.3645 67.5813 34.2991 67.5001 34.2991C67.4189 34.2991 67.353 34.3645 67.353 34.4452C67.353 34.526 67.4189 34.5914 67.5001 34.5914Z" fill="#42E8E0"/>
<path opacity="0.2" d="M71.8937 33.9136C71.8937 33.9648 71.8517 34.0066 71.8001 34.0066C71.7485 34.0066 71.7065 33.9648 71.7065 33.9136C71.7065 33.8623 71.7485 33.8206 71.8001 33.8206C71.8517 33.8206 71.8937 33.8623 71.8937 33.9136Z" fill="#42E8E0"/>
<path opacity="0.2" d="M71.4584 33.627C71.566 33.627 71.6532 33.5403 71.6532 33.4334C71.6532 33.3264 71.566 33.2397 71.4584 33.2397C71.3509 33.2397 71.2637 33.3264 71.2637 33.4334C71.2637 33.5403 71.3509 33.627 71.4584 33.627Z" fill="#42E8E0"/>
<path opacity="0.2" d="M67.1964 34.1528C67.1964 34.2041 67.1544 34.2459 67.1028 34.2459C67.0513 34.2459 67.0093 34.2041 67.0093 34.1528C67.0093 34.1016 67.0513 34.0598 67.1028 34.0598C67.1544 34.0598 67.1964 34.1016 67.1964 34.1528Z" fill="#42E8E0"/>
<path opacity="0.3" d="M66.9386 38.8172C67.0177 38.8172 67.0818 38.7535 67.0818 38.6749C67.0818 38.5962 67.0177 38.5325 66.9386 38.5325C66.8595 38.5325 66.7954 38.5962 66.7954 38.6749C66.7954 38.7535 66.8595 38.8172 66.9386 38.8172Z" fill="#42E8E0"/>
<path opacity="0.2" d="M68.0885 37.0573C68.0885 37.137 68.0236 37.2035 67.9415 37.2035C67.8594 37.2035 67.7944 37.1389 67.7944 37.0573C67.7944 36.9757 67.8594 36.9111 67.9415 36.9111C68.0236 36.9111 68.0885 36.9757 68.0885 37.0573Z" fill="#42E8E0"/>
<path opacity="0.2" d="M67.6378 36.7651C67.6378 36.8164 67.5958 36.8582 67.5442 36.8582C67.4927 36.8582 67.4507 36.8164 67.4507 36.7651C67.4507 36.7139 67.4927 36.6721 67.5442 36.6721C67.5958 36.6721 67.6378 36.7139 67.6378 36.7651Z" fill="#42E8E0"/>
<path opacity="0.9" d="M68.9016 35.5919C68.9303 35.702 69.0429 35.7684 69.1537 35.74C69.2644 35.7115 69.3313 35.5995 69.3026 35.4894C69.274 35.3793 69.1613 35.3128 69.0506 35.3413C68.9398 35.3698 68.873 35.4818 68.9016 35.5919Z" fill="#42E8E0"/>
<path opacity="0.3" d="M71.0991 33.3518C71.1163 33.4201 71.1869 33.46 71.2537 33.4429C71.3225 33.4258 71.3626 33.3556 71.3454 33.2892C71.3282 33.2208 71.2576 33.181 71.1907 33.198C71.1239 33.2151 71.0819 33.2854 71.0991 33.3518Z" fill="#42E8E0"/>
<path opacity="0.2" d="M69.8752 32.1805C69.8924 32.2489 69.963 32.2926 70.0337 32.2736C70.1024 32.2565 70.1444 32.1862 70.1273 32.116C70.1101 32.0458 70.0394 32.0059 69.9688 32.023C69.8981 32.0401 69.8561 32.1103 69.8752 32.1805Z" fill="#42E8E0"/>
<path opacity="0.2" d="M66.1042 32.6512C66.1157 32.6948 66.1596 32.7214 66.2035 32.71C66.2474 32.6986 66.2742 32.655 66.2627 32.6113C66.2512 32.5676 66.2073 32.5411 66.1634 32.5524C66.1195 32.5638 66.0928 32.6075 66.1042 32.6512Z" fill="#42E8E0"/>
<path opacity="0.2" d="M66.2055 32.1843C66.2284 32.2754 66.3239 32.3324 66.4155 32.3077C66.5072 32.2849 66.5645 32.19 66.5397 32.0989C66.5148 32.0078 66.4213 31.9508 66.3296 31.9755C66.238 31.9983 66.1807 32.0932 66.2055 32.1843Z" fill="#42E8E0"/>
<path opacity="0.2" d="M70.1978 31.8312C70.2093 31.8748 70.2551 31.9033 70.299 31.8919C70.343 31.8805 70.3716 31.835 70.3601 31.7913C70.3487 31.7476 70.3029 31.7192 70.2589 31.7305C70.215 31.7419 70.1864 31.7875 70.1978 31.8312Z" fill="#42E8E0"/>
<path opacity="0.2" d="M71.2005 38.7642C71.1623 38.7965 71.1031 38.7927 71.0706 38.7528C71.0382 38.7148 71.042 38.656 71.0821 38.6237C71.1203 38.5914 71.1795 38.5952 71.2119 38.6351C71.2444 38.6731 71.2406 38.7319 71.2005 38.7642Z" fill="#42E8E0"/>
<path opacity="0.2" d="M71.4145 38.2704C71.3324 38.3388 71.2102 38.3293 71.1415 38.2476C71.0727 38.166 71.0823 38.0445 71.1644 37.9762C71.2465 37.9078 71.3687 37.9173 71.4374 37.9989C71.5062 38.0806 71.4966 38.2021 71.4145 38.2704Z" fill="#42E8E0"/>
<path opacity="0.3" d="M71.1183 37.7997C71.0782 37.8566 71.0916 37.9363 71.1489 37.9762C71.2061 38.0161 71.2863 38.0028 71.3264 37.9458C71.3665 37.8889 71.3532 37.8092 71.2959 37.7693C71.2386 37.7294 71.1584 37.7427 71.1183 37.7997Z" fill="#42E8E0"/>
<path opacity="0.2" d="M71.2251 36.1121C71.1831 36.1709 71.1965 36.2506 71.2557 36.2924C71.3149 36.3342 71.3951 36.3209 71.4371 36.262C71.4791 36.2032 71.4657 36.1234 71.4065 36.0817C71.3473 36.0399 71.2671 36.0532 71.2251 36.1121Z" fill="#42E8E0"/>
<path opacity="0.2" d="M71.7028 36.1328C71.6761 36.1708 71.6856 36.222 71.7219 36.2486C71.7601 36.2752 71.8116 36.2657 71.8384 36.2296C71.8651 36.1917 71.8555 36.1404 71.8193 36.1138C71.7811 36.0873 71.7295 36.0967 71.7028 36.1328Z" fill="#42E8E0"/>
<g opacity="0.9">
<path d="M68.3401 40.245C68.3688 40.3551 68.4814 40.4215 68.5922 40.393C68.7029 40.3646 68.7697 40.2526 68.7411 40.1425C68.7125 40.0324 68.5998 39.9659 68.4891 39.9944C68.3783 40.0229 68.3115 40.1349 68.3401 40.245Z" fill="#42E8E0"/>
<path d="M68.9376 39.1324C68.9567 39.2102 69.0369 39.2577 69.1152 39.2368C69.1934 39.2159 69.2412 39.1381 69.2202 39.0603C69.2011 38.9824 69.1209 38.935 69.0426 38.9559C68.9643 38.9748 68.9166 39.0546 68.9376 39.1324Z" fill="#42E8E0"/>
</g>
</g>
<path d="M51.7422 40.5582V44.3549L71.2899 32.9027V29.1008L51.7422 40.5582Z" fill="#421EA5"/>
<path d="M51.7525 40.5578V44.3546L32.21 32.9851V29.1987L51.7525 40.5578Z" fill="#8858FA"/>
<path d="M32.21 29.1989L51.7525 40.558L71.2899 29.1007L51.7266 17.7312L32.21 29.1989Z" fill="url(#paint47_linear_184_12462)"/>
<path d="M35.2886 29.1889L51.7321 19.5264L68.2067 29.1061L51.7477 38.7582L35.2886 29.1889Z" fill="url(#paint48_linear_184_12462)"/>
<path d="M51.7321 20.3023L67.5434 29.494L68.2067 29.1061L51.7321 19.5264L35.2886 29.1889L35.9519 29.5768L51.7321 20.3023Z" fill="#421EA5"/>
<path d="M51.7319 20.3023L67.5432 29.494L68.2066 29.1061L51.7319 19.5264V20.3023Z" fill="#421EA5"/>
<path style="mix-blend-mode:screen" d="M51.7525 40.248L32.4794 29.0441L32.21 29.1993L51.7525 40.5584L71.2899 29.101L71.0204 28.9458L51.7525 40.248Z" fill="url(#paint49_radial_184_12462)"/>
<path d="M61.8268 30.1045C59.7953 28.9561 58.4375 27.4716 57.9296 25.8577L57.9089 25.8474C55.1156 25.5577 52.54 24.7715 50.5448 23.6025L50.4671 23.5559L49.3736 24.3111C45.5335 26.9647 44.8961 29.6234 45.4091 33.0167L45.4869 33.0632C51.374 33.3581 55.9915 32.9908 60.5934 30.7769L61.9045 30.1458L61.8268 30.1045Z" fill="#43E8E1"/>
<path style="mix-blend-mode:color-dodge" d="M57.935 28.7698L57.9143 28.7595C55.121 28.4698 52.5454 27.6836 50.5502 26.5146L50.4725 26.468L49.379 27.2232C46.8396 28.9767 45.7047 30.7406 45.373 32.7114C45.3886 32.8148 45.399 32.9131 45.4145 33.0166L45.4922 33.0631C50.9181 33.3373 55.2609 33.0373 59.5104 31.2631C58.7538 30.4923 58.2097 29.6492 57.935 28.7698Z" fill="url(#paint50_radial_184_12462)"/>
<path style="mix-blend-mode:screen" d="M45.2334 6.75V33.0425L45.4096 33.0115L45.4873 33.0632C51.3745 33.358 55.9919 32.9908 60.5938 30.7769L61.905 30.1458V6.75H45.2334Z" fill="url(#paint51_linear_184_12462)"/>
<defs>
<linearGradient id="paint0_linear_184_12462" x1="-11.0501" y1="130.961" x2="-18.0252" y2="118.65" gradientUnits="userSpaceOnUse">
<stop stop-color="#180D5B"/>
<stop offset="0.09" stop-color="#191560"/>
<stop offset="0.25" stop-color="#1E2C6E"/>
<stop offset="0.44" stop-color="#255285"/>
<stop offset="0.66" stop-color="#2F87A5"/>
<stop offset="0.9" stop-color="#3CC9CD"/>
<stop offset="1" stop-color="#42E8E0"/>
</linearGradient>
<linearGradient id="paint1_linear_184_12462" x1="-36.7098" y1="126.051" x2="-43.6866" y2="113.741" gradientUnits="userSpaceOnUse">
<stop stop-color="#180D5B"/>
<stop offset="0.09" stop-color="#191560"/>
<stop offset="0.25" stop-color="#1E2C6E"/>
<stop offset="0.44" stop-color="#255285"/>
<stop offset="0.66" stop-color="#2F87A5"/>
<stop offset="0.9" stop-color="#3CC9CD"/>
<stop offset="1" stop-color="#42E8E0"/>
</linearGradient>
<linearGradient id="paint2_linear_184_12462" x1="49.6087" y1="93.4979" x2="56.5854" y2="81.1875" gradientUnits="userSpaceOnUse">
<stop stop-color="#180D5B"/>
<stop offset="0.09" stop-color="#191560"/>
<stop offset="0.25" stop-color="#1E2C6E"/>
<stop offset="0.44" stop-color="#255285"/>
<stop offset="0.66" stop-color="#2F87A5"/>
<stop offset="0.9" stop-color="#3CC9CD"/>
<stop offset="1" stop-color="#42E8E0"/>
</linearGradient>
<linearGradient id="paint3_linear_184_12462" x1="34.7842" y1="59.491" x2="34.7842" y2="69.3114" gradientUnits="userSpaceOnUse">
<stop stop-color="#882AFF"/>
<stop offset="1" stop-color="#6255FF"/>
</linearGradient>
<linearGradient id="paint4_linear_184_12462" x1="34.7842" y1="58.0784" x2="34.7842" y2="67.8988" gradientUnits="userSpaceOnUse">
<stop stop-color="#882AFF"/>
<stop offset="1" stop-color="#6255FF"/>
</linearGradient>
<linearGradient id="paint5_linear_184_12462" x1="51.6121" y1="58.8245" x2="27.0208" y2="53.7375" gradientUnits="userSpaceOnUse">
<stop stop-color="#180D5B"/>
<stop offset="0.09" stop-color="#191560"/>
<stop offset="0.25" stop-color="#1E2C6E"/>
<stop offset="0.44" stop-color="#255285"/>
<stop offset="0.66" stop-color="#2F87A5"/>
<stop offset="0.9" stop-color="#3CC9CD"/>
<stop offset="1" stop-color="#42E8E0"/>
</linearGradient>
<linearGradient id="paint6_linear_184_12462" x1="44.1232" y1="64.979" x2="27.4676" y2="54.0985" gradientUnits="userSpaceOnUse">
<stop stop-color="#180D5B"/>
<stop offset="0.09" stop-color="#191560"/>
<stop offset="0.25" stop-color="#1E2C6E"/>
<stop offset="0.44" stop-color="#255285"/>
<stop offset="0.66" stop-color="#2F87A5"/>
<stop offset="0.9" stop-color="#3CC9CD"/>
<stop offset="1" stop-color="#42E8E0"/>
</linearGradient>
<linearGradient id="paint7_linear_184_12462" x1="39.4415" y1="65.3017" x2="25.9595" y2="58.0685" gradientUnits="userSpaceOnUse">
<stop stop-color="#180D5B"/>
<stop offset="0.09" stop-color="#191560"/>
<stop offset="0.25" stop-color="#1E2C6E"/>
<stop offset="0.44" stop-color="#255285"/>
<stop offset="0.66" stop-color="#2F87A5"/>
<stop offset="0.9" stop-color="#3CC9CD"/>
<stop offset="1" stop-color="#42E8E0"/>
</linearGradient>
<linearGradient id="paint8_linear_184_12462" x1="46.1073" y1="69.1612" x2="28.5725" y2="59.4887" gradientUnits="userSpaceOnUse">
<stop stop-color="#180D5B"/>
<stop offset="0.09" stop-color="#191560"/>
<stop offset="0.25" stop-color="#1E2C6E"/>
<stop offset="0.44" stop-color="#255285"/>
<stop offset="0.66" stop-color="#2F87A5"/>
<stop offset="0.9" stop-color="#3CC9CD"/>
<stop offset="1" stop-color="#42E8E0"/>
</linearGradient>
<linearGradient id="paint9_linear_184_12462" x1="30.5071" y1="62.9878" x2="30.5071" y2="69.3113" gradientUnits="userSpaceOnUse">
<stop stop-color="#882AFF"/>
<stop offset="1" stop-color="#6255FF"/>
</linearGradient>
<linearGradient id="paint10_linear_184_12462" x1="34.7842" y1="47.6809" x2="34.7842" y2="57.5013" gradientUnits="userSpaceOnUse">
<stop stop-color="#882AFF"/>
<stop offset="1" stop-color="#6255FF"/>
</linearGradient>
<linearGradient id="paint11_linear_184_12462" x1="34.7842" y1="46.2686" x2="34.7842" y2="56.089" gradientUnits="userSpaceOnUse">
<stop stop-color="#882AFF"/>
<stop offset="1" stop-color="#6255FF"/>
</linearGradient>
<linearGradient id="paint12_linear_184_12462" x1="40.4877" y1="54.8626" x2="26.1897" y2="45.5227" gradientUnits="userSpaceOnUse">
<stop stop-color="#180D5B"/>
<stop offset="0.09" stop-color="#191560"/>
<stop offset="0.25" stop-color="#1E2C6E"/>
<stop offset="0.44" stop-color="#255285"/>
<stop offset="0.66" stop-color="#2F87A5"/>
<stop offset="0.9" stop-color="#3CC9CD"/>
<stop offset="1" stop-color="#42E8E0"/>
</linearGradient>
<linearGradient id="paint13_linear_184_12462" x1="30.5071" y1="51.1797" x2="30.5071" y2="57.5013" gradientUnits="userSpaceOnUse">
<stop stop-color="#882AFF"/>
<stop offset="1" stop-color="#6255FF"/>
</linearGradient>
<linearGradient id="paint14_linear_184_12462" x1="37.635" y1="51.8195" x2="26.1067" y2="49.2014" gradientUnits="userSpaceOnUse">
<stop stop-color="#180D5B"/>
<stop offset="0.09" stop-color="#191560"/>
<stop offset="0.25" stop-color="#1E2C6E"/>
<stop offset="0.44" stop-color="#255285"/>
<stop offset="0.66" stop-color="#2F87A5"/>
<stop offset="0.9" stop-color="#3CC9CD"/>
<stop offset="1" stop-color="#42E8E0"/>
</linearGradient>
<linearGradient id="paint15_linear_184_12462" x1="34.875" y1="24.75" x2="34.875" y2="53.25" gradientUnits="userSpaceOnUse">
<stop offset="0.390625" stop-color="#4CE4DF" stop-opacity="0"/>
<stop offset="1" stop-color="#4CE4DF"/>
</linearGradient>
<linearGradient id="paint16_linear_184_12462" x1="51.8907" y1="59.491" x2="51.8907" y2="69.3114" gradientUnits="userSpaceOnUse">
<stop stop-color="#882AFF"/>
<stop offset="1" stop-color="#6255FF"/>
</linearGradient>
<linearGradient id="paint17_linear_184_12462" x1="51.8907" y1="58.0784" x2="51.8907" y2="67.8988" gradientUnits="userSpaceOnUse">
<stop stop-color="#882AFF"/>
<stop offset="1" stop-color="#6255FF"/>
</linearGradient>
<linearGradient id="paint18_linear_184_12462" x1="68.7186" y1="58.8245" x2="44.1273" y2="53.7375" gradientUnits="userSpaceOnUse">
<stop stop-color="#180D5B"/>
<stop offset="0.09" stop-color="#191560"/>
<stop offset="0.25" stop-color="#1E2C6E"/>
<stop offset="0.44" stop-color="#255285"/>
<stop offset="0.66" stop-color="#2F87A5"/>
<stop offset="0.9" stop-color="#3CC9CD"/>
<stop offset="1" stop-color="#42E8E0"/>
</linearGradient>
<linearGradient id="paint19_linear_184_12462" x1="61.2296" y1="64.979" x2="44.574" y2="54.0985" gradientUnits="userSpaceOnUse">
<stop stop-color="#180D5B"/>
<stop offset="0.09" stop-color="#191560"/>
<stop offset="0.25" stop-color="#1E2C6E"/>
<stop offset="0.44" stop-color="#255285"/>
<stop offset="0.66" stop-color="#2F87A5"/>
<stop offset="0.9" stop-color="#3CC9CD"/>
<stop offset="1" stop-color="#42E8E0"/>
</linearGradient>
<linearGradient id="paint20_linear_184_12462" x1="56.5479" y1="65.3017" x2="43.064" y2="58.0685" gradientUnits="userSpaceOnUse">
<stop stop-color="#180D5B"/>
<stop offset="0.09" stop-color="#191560"/>
<stop offset="0.25" stop-color="#1E2C6E"/>
<stop offset="0.44" stop-color="#255285"/>
<stop offset="0.66" stop-color="#2F87A5"/>
<stop offset="0.9" stop-color="#3CC9CD"/>
<stop offset="1" stop-color="#42E8E0"/>
</linearGradient>
<linearGradient id="paint21_linear_184_12462" x1="63.2137" y1="69.1612" x2="45.679" y2="59.4886" gradientUnits="userSpaceOnUse">
<stop stop-color="#180D5B"/>
<stop offset="0.09" stop-color="#191560"/>
<stop offset="0.25" stop-color="#1E2C6E"/>
<stop offset="0.44" stop-color="#255285"/>
<stop offset="0.66" stop-color="#2F87A5"/>
<stop offset="0.9" stop-color="#3CC9CD"/>
<stop offset="1" stop-color="#42E8E0"/>
</linearGradient>
<linearGradient id="paint22_linear_184_12462" x1="47.6135" y1="62.9878" x2="47.6135" y2="69.3113" gradientUnits="userSpaceOnUse">
<stop stop-color="#882AFF"/>
<stop offset="1" stop-color="#6255FF"/>
</linearGradient>
<linearGradient id="paint23_linear_184_12462" x1="52.7862" y1="15.0002" x2="41.6485" y2="15.0002" gradientUnits="userSpaceOnUse">
<stop stop-color="#180D5B"/>
<stop offset="0.1" stop-color="#191560"/>
<stop offset="0.25" stop-color="#1D2C6E"/>
<stop offset="0.28" stop-color="#1F3372"/>
<stop offset="0.38" stop-color="#22447C"/>
<stop offset="0.57" stop-color="#2A7097"/>
<stop offset="0.83" stop-color="#38B7C2"/>
<stop offset="1" stop-color="#42E8E0"/>
</linearGradient>
<linearGradient id="paint24_linear_184_12462" x1="51.8907" y1="47.6809" x2="51.8907" y2="57.5013" gradientUnits="userSpaceOnUse">
<stop stop-color="#882AFF"/>
<stop offset="1" stop-color="#6255FF"/>
</linearGradient>
<linearGradient id="paint25_linear_184_12462" x1="51.8907" y1="46.2686" x2="51.8907" y2="56.089" gradientUnits="userSpaceOnUse">
<stop stop-color="#882AFF"/>
<stop offset="1" stop-color="#6255FF"/>
</linearGradient>
<linearGradient id="paint26_linear_184_12462" x1="57.5941" y1="54.8626" x2="43.2961" y2="45.5227" gradientUnits="userSpaceOnUse">
<stop stop-color="#180D5B"/>
<stop offset="0.09" stop-color="#191560"/>
<stop offset="0.25" stop-color="#1E2C6E"/>
<stop offset="0.44" stop-color="#255285"/>
<stop offset="0.66" stop-color="#2F87A5"/>
<stop offset="0.9" stop-color="#3CC9CD"/>
<stop offset="1" stop-color="#42E8E0"/>
</linearGradient>
<linearGradient id="paint27_linear_184_12462" x1="47.6135" y1="51.1797" x2="47.6135" y2="57.5013" gradientUnits="userSpaceOnUse">
<stop stop-color="#882AFF"/>
<stop offset="1" stop-color="#6255FF"/>
</linearGradient>
<linearGradient id="paint28_linear_184_12462" x1="51.3598" y1="56.442" x2="41.3654" y2="50.7732" gradientUnits="userSpaceOnUse">
<stop stop-color="#180D5B"/>
<stop offset="0.1" stop-color="#191560"/>
<stop offset="0.25" stop-color="#1D2C6E"/>
<stop offset="0.28" stop-color="#1F3372"/>
<stop offset="0.38" stop-color="#22447C"/>
<stop offset="0.57" stop-color="#2A7097"/>
<stop offset="0.83" stop-color="#38B7C2"/>
<stop offset="1" stop-color="#42E8E0"/>
</linearGradient>
<linearGradient id="paint29_linear_184_12462" x1="54.7414" y1="51.8195" x2="43.2131" y2="49.2014" gradientUnits="userSpaceOnUse">
<stop stop-color="#180D5B"/>
<stop offset="0.09" stop-color="#191560"/>
<stop offset="0.25" stop-color="#1E2C6E"/>
<stop offset="0.44" stop-color="#255285"/>
<stop offset="0.66" stop-color="#2F87A5"/>
<stop offset="0.9" stop-color="#3CC9CD"/>
<stop offset="1" stop-color="#42E8E0"/>
</linearGradient>
<linearGradient id="paint30_linear_184_12462" x1="51.75" y1="24.75" x2="51.75" y2="53.25" gradientUnits="userSpaceOnUse">
<stop offset="0.390625" stop-color="#4CE4DF" stop-opacity="0"/>
<stop offset="1" stop-color="#4CE4DF"/>
</linearGradient>
<linearGradient id="paint31_linear_184_12462" x1="75.27" y1="88.5892" x2="82.2468" y2="76.2787" gradientUnits="userSpaceOnUse">
<stop stop-color="#180D5B"/>
<stop offset="0.09" stop-color="#191560"/>
<stop offset="0.25" stop-color="#1E2C6E"/>
<stop offset="0.44" stop-color="#255285"/>
<stop offset="0.66" stop-color="#2F87A5"/>
<stop offset="0.9" stop-color="#3CC9CD"/>
<stop offset="1" stop-color="#42E8E0"/>
</linearGradient>
<linearGradient id="paint32_linear_184_12462" x1="68.9971" y1="59.491" x2="68.9971" y2="69.3114" gradientUnits="userSpaceOnUse">
<stop stop-color="#882AFF"/>
<stop offset="1" stop-color="#6255FF"/>
</linearGradient>
<linearGradient id="paint33_linear_184_12462" x1="68.9971" y1="58.0784" x2="68.9971" y2="67.8988" gradientUnits="userSpaceOnUse">
<stop stop-color="#882AFF"/>
<stop offset="1" stop-color="#6255FF"/>
</linearGradient>
<linearGradient id="paint34_linear_184_12462" x1="85.8251" y1="58.8245" x2="61.2338" y2="53.7375" gradientUnits="userSpaceOnUse">
<stop stop-color="#180D5B"/>
<stop offset="0.09" stop-color="#191560"/>
<stop offset="0.25" stop-color="#1E2C6E"/>
<stop offset="0.44" stop-color="#255285"/>
<stop offset="0.66" stop-color="#2F87A5"/>
<stop offset="0.9" stop-color="#3CC9CD"/>
<stop offset="1" stop-color="#42E8E0"/>
</linearGradient>
<linearGradient id="paint35_linear_184_12462" x1="78.3366" y1="64.979" x2="61.6809" y2="54.0985" gradientUnits="userSpaceOnUse">
<stop stop-color="#180D5B"/>
<stop offset="0.09" stop-color="#191560"/>
<stop offset="0.25" stop-color="#1E2C6E"/>
<stop offset="0.44" stop-color="#255285"/>
<stop offset="0.66" stop-color="#2F87A5"/>
<stop offset="0.9" stop-color="#3CC9CD"/>
<stop offset="1" stop-color="#42E8E0"/>
</linearGradient>
<linearGradient id="paint36_linear_184_12462" x1="73.6544" y1="65.3017" x2="60.1724" y2="58.0685" gradientUnits="userSpaceOnUse">
<stop stop-color="#180D5B"/>
<stop offset="0.09" stop-color="#191560"/>
<stop offset="0.25" stop-color="#1E2C6E"/>
<stop offset="0.44" stop-color="#255285"/>
<stop offset="0.66" stop-color="#2F87A5"/>
<stop offset="0.9" stop-color="#3CC9CD"/>
<stop offset="1" stop-color="#42E8E0"/>
</linearGradient>
<linearGradient id="paint37_linear_184_12462" x1="80.3221" y1="69.1612" x2="62.7855" y2="59.4886" gradientUnits="userSpaceOnUse">
<stop stop-color="#180D5B"/>
<stop offset="0.09" stop-color="#191560"/>
<stop offset="0.25" stop-color="#1E2C6E"/>
<stop offset="0.44" stop-color="#255285"/>
<stop offset="0.66" stop-color="#2F87A5"/>
<stop offset="0.9" stop-color="#3CC9CD"/>
<stop offset="1" stop-color="#42E8E0"/>
</linearGradient>
<linearGradient id="paint38_linear_184_12462" x1="64.72" y1="62.9878" x2="64.72" y2="69.3113" gradientUnits="userSpaceOnUse">
<stop stop-color="#882AFF"/>
<stop offset="1" stop-color="#6255FF"/>
</linearGradient>
<linearGradient id="paint39_linear_184_12462" x1="69.8926" y1="15.0002" x2="58.7549" y2="15.0002" gradientUnits="userSpaceOnUse">
<stop stop-color="#180D5B"/>
<stop offset="0.1" stop-color="#191560"/>
<stop offset="0.25" stop-color="#1D2C6E"/>
<stop offset="0.28" stop-color="#1F3372"/>
<stop offset="0.38" stop-color="#22447C"/>
<stop offset="0.57" stop-color="#2A7097"/>
<stop offset="0.83" stop-color="#38B7C2"/>
<stop offset="1" stop-color="#42E8E0"/>
</linearGradient>
<linearGradient id="paint40_linear_184_12462" x1="68.9971" y1="47.6809" x2="68.9971" y2="57.5013" gradientUnits="userSpaceOnUse">
<stop stop-color="#882AFF"/>
<stop offset="1" stop-color="#6255FF"/>
</linearGradient>
<linearGradient id="paint41_linear_184_12462" x1="68.9971" y1="46.2686" x2="68.9971" y2="56.089" gradientUnits="userSpaceOnUse">
<stop stop-color="#882AFF"/>
<stop offset="1" stop-color="#6255FF"/>
</linearGradient>
<linearGradient id="paint42_linear_184_12462" x1="74.7006" y1="54.8626" x2="60.4026" y2="45.5227" gradientUnits="userSpaceOnUse">
<stop stop-color="#180D5B"/>
<stop offset="0.09" stop-color="#191560"/>
<stop offset="0.25" stop-color="#1E2C6E"/>
<stop offset="0.44" stop-color="#255285"/>
<stop offset="0.66" stop-color="#2F87A5"/>
<stop offset="0.9" stop-color="#3CC9CD"/>
<stop offset="1" stop-color="#42E8E0"/>
</linearGradient>
<linearGradient id="paint43_linear_184_12462" x1="64.72" y1="51.1797" x2="64.72" y2="57.5013" gradientUnits="userSpaceOnUse">
<stop stop-color="#882AFF"/>
<stop offset="1" stop-color="#6255FF"/>
</linearGradient>
<linearGradient id="paint44_linear_184_12462" x1="68.4682" y1="56.442" x2="58.4737" y2="50.7732" gradientUnits="userSpaceOnUse">
<stop stop-color="#180D5B"/>
<stop offset="0.1" stop-color="#191560"/>
<stop offset="0.25" stop-color="#1D2C6E"/>
<stop offset="0.28" stop-color="#1F3372"/>
<stop offset="0.38" stop-color="#22447C"/>
<stop offset="0.57" stop-color="#2A7097"/>
<stop offset="0.83" stop-color="#38B7C2"/>
<stop offset="1" stop-color="#42E8E0"/>
</linearGradient>
<linearGradient id="paint45_linear_184_12462" x1="71.8479" y1="51.8195" x2="60.3215" y2="49.2014" gradientUnits="userSpaceOnUse">
<stop stop-color="#180D5B"/>
<stop offset="0.09" stop-color="#191560"/>
<stop offset="0.25" stop-color="#1E2C6E"/>
<stop offset="0.44" stop-color="#255285"/>
<stop offset="0.66" stop-color="#2F87A5"/>
<stop offset="0.9" stop-color="#3CC9CD"/>
<stop offset="1" stop-color="#42E8E0"/>
</linearGradient>
<linearGradient id="paint46_linear_184_12462" x1="69" y1="24.75" x2="69" y2="53.25" gradientUnits="userSpaceOnUse">
<stop offset="0.390625" stop-color="#4CE4DF" stop-opacity="0"/>
<stop offset="1" stop-color="#4CE4DF"/>
</linearGradient>
<linearGradient id="paint47_linear_184_12462" x1="51.7499" y1="17.7312" x2="51.7499" y2="40.558" gradientUnits="userSpaceOnUse">
<stop stop-color="#882AFF"/>
<stop offset="1" stop-color="#6255FF"/>
</linearGradient>
<linearGradient id="paint48_linear_184_12462" x1="51.7477" y1="19.5264" x2="51.7477" y2="38.7582" gradientUnits="userSpaceOnUse">
<stop stop-color="#882AFF"/>
<stop offset="1" stop-color="#6255FF"/>
</linearGradient>
<radialGradient id="paint49_radial_184_12462" cx="0" cy="0" r="1" gradientUnits="userSpaceOnUse" gradientTransform="translate(-39.5031 34.7495) scale(0.259116 0.258632)">
<stop offset="0.1" stop-color="#FFE4A7"/>
<stop offset="0.42" stop-color="#F4BE4C"/>
<stop offset="0.67" stop-color="#ECA30A"/>
<stop offset="1"/>
</radialGradient>
<radialGradient id="paint50_radial_184_12462" cx="0" cy="0" r="1" gradientUnits="userSpaceOnUse" gradientTransform="translate(52.8408 34.2735) scale(9.03798 9.02108)">
<stop stop-color="white"/>
<stop offset="1"/>
</radialGradient>
<linearGradient id="paint51_linear_184_12462" x1="53.5718" y1="30.4407" x2="53.5718" y2="7.46382" gradientUnits="userSpaceOnUse">
<stop stop-color="#1BB0D4"/>
<stop offset="0.05" stop-color="#189CBC"/>
<stop offset="0.18" stop-color="#11738B"/>
<stop offset="0.31" stop-color="#0C5060"/>
<stop offset="0.45" stop-color="#07333D"/>
<stop offset="0.58" stop-color="#041C22"/>
<stop offset="0.72" stop-color="#010C0F"/>
<stop offset="0.85" stop-color="#000303"/>
<stop offset="1"/>
</linearGradient>
<clipPath id="clip0_184_12462">
<rect width="102.75" height="63.75" fill="white" transform="translate(0 15)"/>
</clipPath>
</defs>
</svg>
