<svg width="90" height="90" viewBox="0 0 90 90" fill="none" xmlns="http://www.w3.org/2000/svg">
<circle cx="45" cy="45" r="45" fill="#F3F3F3"/>
<path opacity="0.5" d="M67.3589 27.4836C70.4654 29.1302 72.4789 32.2872 72.662 35.7984L73.1773 45.6799L73.5354 55.5684C73.6627 59.082 71.9354 62.4044 68.9862 64.3185L60.6861 69.7055L52.3015 74.9599C49.3222 76.8269 45.5814 76.9922 42.4491 75.3952L33.6337 70.9006L24.891 66.2665C21.7845 64.6199 19.7709 61.4629 19.5878 57.9517L19.0726 48.0701L18.7145 38.1816C18.5872 34.668 20.3145 31.3457 23.2637 29.4316L31.5638 24.0446L39.9484 18.7902C42.9277 16.9232 46.6685 16.7579 49.8008 18.3549L58.6161 22.8494L67.3589 27.4836Z" fill="url(#paint0_linear_184_12260)"/>
<path d="M56.0196 19.8749C59.5354 19.9028 62.7783 21.7751 64.5604 24.8059L69.5758 33.3356L74.4551 41.944C76.1888 45.0027 76.1888 48.7472 74.4551 51.806L69.5758 60.4143L64.5604 68.9441C62.7783 71.9749 59.5354 73.8471 56.0196 73.8751L46.125 73.9537L36.2303 73.8751C32.7145 73.8471 29.4716 71.9749 27.6895 68.9441L22.6741 60.4143L17.7949 51.806C16.0612 48.7472 16.0612 45.0027 17.7949 41.944L22.6741 33.3356L27.6895 24.8059C29.4716 21.7751 32.7145 19.9028 36.2303 19.8749L46.125 19.7962L56.0196 19.8749Z" fill="url(#paint1_linear_184_12260)"/>
<path d="M53.0166 53.7392C57.0127 52.0454 58.8791 47.4329 57.1853 43.4368C55.4916 39.4408 50.879 37.5744 46.883 39.2681C42.8869 40.9619 41.0205 45.5744 42.7143 49.5705C44.408 53.5665 49.0206 55.4329 53.0166 53.7392Z" fill="url(#paint2_linear_184_12260)"/>
<path d="M52.2708 51.989C55.3004 50.7062 56.7164 47.2103 55.4335 44.1807C54.1506 41.1511 50.6547 39.7351 47.6252 41.018C44.5956 42.3009 43.1796 45.7968 44.4625 48.8263C45.7453 51.8559 49.2412 53.2719 52.2708 51.989Z" fill="#EBEBEB"/>
<path d="M54.1483 47.177C54.5211 44.8576 52.943 42.6752 50.6237 42.3025C48.3043 41.9297 46.1219 43.5078 45.7491 45.8271C45.3764 48.1465 46.9544 50.3289 49.2738 50.7017C51.5932 51.0744 53.7756 49.4964 54.1483 47.177Z" fill="url(#paint3_linear_184_12260)"/>
<path d="M52.8784 46.5033C52.8784 48.12 51.5682 49.4303 49.9514 49.4303C48.3346 49.4303 47.0244 48.12 47.0244 46.5033C47.0244 44.8865 48.3346 43.5763 49.9514 43.5763C51.5682 43.5763 52.8784 44.8865 52.8784 46.5033Z" fill="#EBEBEB"/>
<path d="M51.2995 46.5034C51.2995 47.2494 50.6946 47.8543 49.9486 47.8543C49.2026 47.8543 48.5977 47.2494 48.5977 46.5034C48.5977 45.7574 49.2026 45.1525 49.9486 45.1525C50.6946 45.1525 51.2995 45.7574 51.2995 46.5034Z" fill="#EE4730"/>
<path d="M60.0179 41.3084C59.8958 41.1728 59.5323 40.6981 58.7185 41.4332C57.9454 42.1331 57.0068 43.1313 57.0068 43.1313C57.0068 43.1313 58.3333 42.7868 59.318 42.445C60.3516 42.0842 60.1156 41.4658 60.0179 41.3084Z" fill="#F5523F"/>
<path d="M58.8707 41.623L57.5063 42.1439C57.0966 42.3012 56.7006 42.4938 56.3235 42.7217L49.9487 46.5845L56.3642 43.9478C57.0885 43.6494 57.7585 43.2398 58.3526 42.7298L59.0823 42.1032C58.9792 41.9621 58.906 41.7967 58.8707 41.623Z" fill="#1B2847"/>
<path d="M56.8198 43.1313C56.8198 43.1313 57.0043 41.1131 58.1056 40.2613C59.207 39.4095 58.9737 41.897 58.9737 41.897L56.8225 43.1313H56.8198Z" fill="#D92402"/>
<path d="M56.8198 43.1205C56.8198 43.1205 58.659 43.9723 59.9475 43.4433C61.2361 42.9143 58.9656 41.8754 58.9656 41.8754L56.8198 43.1205Z" fill="#EE4831"/>
<path d="M39.5725 37.394C39.5725 37.394 37.1691 37.9935 35.3679 39.3282C33.5667 40.6628 31.6976 44.7996 31.3314 47.7022C30.9652 50.6048 30.2301 52.8753 31.3314 54.3591C32.4328 55.843 36.0027 56.1441 39.0734 56.4452C42.1442 56.7463 46.3787 56.0111 47.2304 54.9423C48.0822 53.8735 48.0144 45.7925 46.4139 42.7434C44.8134 39.6944 41.9082 37.3235 39.5725 37.3913V37.394Z" fill="url(#paint4_linear_184_12260)"/>
<path d="M39.2387 37.9936C39.2387 37.9936 36.6617 37.3669 36.3117 35.4165C35.9591 33.4634 36.9845 32.7879 37.7739 33.2382C38.5633 33.6886 38.6881 33.4471 39.2387 33.1053C39.7894 32.7635 40.5896 33.3142 40.9911 33.8893C41.3926 34.4644 41.4658 33.7889 42.418 33.713C43.3701 33.637 43.6929 34.5132 43.1938 35.6661C42.692 36.8163 42.2173 38.0424 39.2387 37.9936Z" fill="url(#paint5_linear_184_12260)"/>
<path d="M37.3617 37.0658L37.1284 38.2946C37.1284 38.2946 37.7876 38.9294 39.5807 38.9294C41.3738 38.9294 42.3422 38.2946 42.3422 38.2946L42.2255 37.1852C42.2255 37.1852 39.7733 37.8064 37.3617 37.0658Z" fill="#7CF3FF"/>
<path d="M51.0015 52.0985C51.9905 54.4443 50.8873 57.1507 48.5415 58.1361C46.1957 59.1251 43.4893 58.0219 42.5039 55.6761C41.5149 53.3303 42.6181 50.6239 44.9639 49.6385C47.3097 48.6495 50.0161 49.7528 51.0015 52.0985Z" fill="url(#paint6_linear_184_12260)"/>
<path d="M49.5961 56.5269C48.1358 58.0979 45.6793 58.1907 44.1083 56.7304C42.5373 55.2701 42.4445 52.8137 43.9048 51.2427C45.3651 49.6717 47.8216 49.5789 49.3926 51.0392C50.9636 52.4995 51.0564 54.9559 49.5961 56.5269Z" fill="url(#paint7_linear_184_12260)"/>
<path d="M48.1969 54.2358C48.111 54.054 48.01 53.9126 47.8914 53.8192C47.7727 53.7207 47.5556 53.5844 47.2324 53.4077C46.8537 53.1956 46.6265 53.0542 46.5483 52.981C46.4675 52.9053 46.4245 52.7715 46.417 52.5771C46.4119 52.4609 46.4296 52.3726 46.4649 52.312C46.5003 52.2514 46.5558 52.2211 46.6315 52.216C46.725 52.2135 46.7906 52.2438 46.8209 52.3094C46.8512 52.3751 46.8714 52.5165 46.879 52.7361L46.8815 52.8194L46.8184 52.822L46.8866 52.9406L48.1236 52.8952C48.1287 52.7891 48.1287 52.7134 48.1262 52.6604C48.1136 52.2943 48.0075 52.0115 47.808 51.8121C47.6086 51.6126 47.3183 51.494 46.9371 51.4612L46.9219 51.0673L46.8537 50.9486L46.8588 51.0698L46.3513 51.0875L46.3665 51.4813C45.9499 51.5445 45.6393 51.6884 45.4374 51.9055C45.2354 52.1226 45.142 52.418 45.1572 52.7866C45.1647 53.0416 45.2253 53.2688 45.3313 53.4657C45.4374 53.6627 45.5611 53.8167 45.7025 53.9227C45.8439 54.0287 46.1039 54.1929 46.4927 54.415C46.725 54.5463 46.8613 54.6725 46.9042 54.7912C46.9471 54.9099 46.9724 55.1068 46.9825 55.3845C46.9875 55.4956 46.9699 55.5789 46.932 55.637C46.8941 55.6951 46.8335 55.7253 46.7502 55.7279C46.6518 55.7304 46.5886 55.6925 46.5609 55.6143C46.5331 55.536 46.5129 55.329 46.4978 54.9957L46.4927 54.8493L46.4877 54.6928L46.4195 54.5741L46.4245 54.6952L45.2506 54.7382L45.2606 54.9805C45.2808 55.5309 45.4197 55.9122 45.6747 56.1268C45.9322 56.3388 46.2251 56.455 46.5558 56.4777L46.571 56.8362L46.5078 56.8387L46.576 56.9574L47.1466 56.9372L47.1289 56.4701C47.5531 56.3944 47.8661 56.2277 48.0681 55.9702C48.2701 55.7127 48.3635 55.3618 48.3458 54.9199C48.3357 54.6422 48.2852 54.415 48.2019 54.2358H48.1969Z" fill="#D16A0D"/>
<path d="M48.0554 52.7765L46.8183 52.8219L46.8107 52.6174C46.8032 52.3978 46.783 52.2564 46.7527 52.1907C46.7224 52.1251 46.6567 52.0948 46.5633 52.0973C46.4901 52.0998 46.4321 52.1327 46.3967 52.1882C46.3614 52.2488 46.3462 52.3346 46.3487 52.4533C46.3563 52.6477 46.3992 52.7815 46.48 52.8573C46.5558 52.933 46.788 53.0744 47.1642 53.2839C47.4848 53.4632 47.707 53.5995 47.8231 53.6954C47.9418 53.7939 48.0428 53.9302 48.1286 54.112C48.2145 54.2938 48.2625 54.5236 48.2726 54.7962C48.2902 55.238 48.1968 55.5889 47.9948 55.8465C47.7903 56.1065 47.4773 56.2731 47.0556 56.3463L47.0733 56.8134L46.5027 56.8336L46.4851 56.3514C46.1518 56.3312 45.859 56.2151 45.604 56.0005C45.349 55.7859 45.2101 55.4047 45.1899 54.8543L45.1798 54.6119L46.4169 54.5665L46.427 54.8694C46.4396 55.2002 46.4598 55.4072 46.4901 55.488C46.5179 55.5662 46.581 55.6041 46.6795 55.6016C46.7628 55.599 46.8234 55.5688 46.8613 55.5107C46.8991 55.4526 46.9168 55.3693 46.9117 55.2582C46.9016 54.9805 46.8739 54.7811 46.831 54.6624C46.788 54.5437 46.6492 54.42 46.4194 54.2862C46.0306 54.064 45.7706 53.8999 45.6292 53.7939C45.4878 53.6879 45.3691 53.5339 45.2581 53.3369C45.152 53.14 45.094 52.9103 45.0839 52.6578C45.0687 52.2892 45.1622 51.9938 45.3641 51.7767C45.5661 51.5596 45.8741 51.4182 46.2932 51.3526L46.278 50.9587L46.8486 50.9385L46.8638 51.3324C47.2475 51.3677 47.5379 51.4863 47.7373 51.6858C47.9368 51.8852 48.0403 52.1705 48.0554 52.5341C48.0554 52.5846 48.0579 52.6628 48.0529 52.7689L48.0554 52.7765Z" fill="white"/>
<g style="mix-blend-mode:screen" opacity="0.7">
<path style="mix-blend-mode:screen" d="M46.8765 51.3397L46.879 51.3422C47.2098 51.375 47.4723 51.4659 47.6642 51.6225C47.4723 51.4659 47.2098 51.37 46.874 51.3372L46.8765 51.3397Z" fill="url(#paint8_linear_184_12260)"/>
<path style="mix-blend-mode:screen" d="M46.7104 52.1375C46.7256 52.1526 46.7407 52.1678 46.7483 52.1905C46.7786 52.2561 46.7988 52.3975 46.8064 52.6172L46.814 52.8217L46.819 52.8166L46.8165 52.6222C46.8089 52.4026 46.7887 52.2612 46.7584 52.1956C46.7458 52.1728 46.7306 52.1526 46.713 52.14L46.7104 52.1375Z" fill="url(#paint9_linear_184_12260)"/>
<path style="mix-blend-mode:screen" d="M46.8741 55.528C46.912 55.47 46.9296 55.3866 46.9246 55.2755C46.9145 54.9978 46.8867 54.7984 46.8463 54.6823C46.8211 54.6116 46.7605 54.5358 46.6646 54.4601C46.7554 54.5358 46.811 54.6065 46.8388 54.6747C46.8817 54.7933 46.9095 54.9928 46.9196 55.2705C46.9246 55.3816 46.9069 55.4649 46.8691 55.523C46.8312 55.581 46.7706 55.6114 46.6873 55.6139C46.6318 55.6139 46.5863 55.6038 46.5535 55.581C46.5863 55.6139 46.6368 55.624 46.6949 55.6215C46.7782 55.6189 46.8388 55.5886 46.8766 55.5306L46.8741 55.528Z" fill="url(#paint10_linear_184_12260)"/>
<path style="mix-blend-mode:screen" d="M47.826 53.6978C47.7073 53.5993 47.4902 53.463 47.167 53.2863C46.8338 53.0995 46.6141 52.9657 46.5157 52.8874C46.6116 52.9682 46.8313 53.102 47.1746 53.2939C47.4902 53.4681 47.7073 53.6044 47.8285 53.7003L47.826 53.6978Z" fill="url(#paint11_linear_184_12260)"/>
<path style="mix-blend-mode:screen" d="M46.4928 56.3637L46.4878 56.3586L46.5029 56.8383L46.508 56.8333L46.4928 56.3637Z" fill="url(#paint12_linear_184_12260)"/>
<path style="mix-blend-mode:screen" d="M45.6118 56.0179C45.3568 55.8033 45.218 55.4221 45.1978 54.8717L45.1877 54.6294L46.4172 54.5814L46.4147 54.5789L45.1801 54.6218L45.1902 54.8641C45.2104 55.4145 45.3493 55.7958 45.6043 56.0104C45.6118 56.0179 45.6194 56.0255 45.627 56.0331C45.6219 56.028 45.6169 56.023 45.6118 56.0179Z" fill="url(#paint13_linear_184_12260)"/>
<path style="mix-blend-mode:screen" d="M45.6144 53.7887C45.4856 53.6851 45.3745 53.5387 45.2735 53.3569C45.1675 53.16 45.1094 52.9302 45.0993 52.6778C45.0842 52.3092 45.1776 52.0138 45.3796 51.7967C45.5816 51.5796 45.8896 51.4382 46.3087 51.3725L46.2935 50.9787L46.854 50.9585L46.8515 50.956L46.2834 50.9736L46.2986 51.3675C45.882 51.4306 45.5714 51.5745 45.3695 51.7916C45.1675 52.0088 45.0741 52.3042 45.0893 52.6728C45.0968 52.9277 45.1574 53.155 45.2634 53.3519C45.3644 53.5387 45.4806 53.6851 45.6119 53.7912L45.6144 53.7887Z" fill="url(#paint14_linear_184_12260)"/>
</g>
<path d="M41.5338 45.4321L39.7655 45.497L39.7546 45.2047C39.7438 44.8907 39.715 44.6887 39.6717 44.5948C39.6284 44.501 39.5345 44.4577 39.401 44.4613C39.2963 44.4649 39.2134 44.5118 39.1628 44.5912C39.1123 44.6778 39.0906 44.8005 39.0942 44.9701C39.1051 45.248 39.1664 45.4393 39.2819 45.5476C39.3902 45.6558 39.7222 45.8579 40.2599 46.1574C40.7182 46.4137 41.0358 46.6085 41.2018 46.7457C41.3714 46.8864 41.5158 47.0813 41.6385 47.3411C41.7612 47.601 41.8298 47.9294 41.8442 48.3191C41.8695 48.9507 41.7359 49.4523 41.4472 49.8204C41.1549 50.1921 40.7074 50.4303 40.1047 50.5349L40.13 51.2026L39.3144 51.2314L39.2891 50.5421C38.8128 50.5133 38.3941 50.3473 38.0297 50.0405C37.6652 49.7338 37.4667 49.1889 37.4378 48.4021L37.4234 48.0557L39.1917 47.9907L39.2061 48.4238C39.2242 48.8965 39.2531 49.1925 39.2964 49.3079C39.3361 49.4198 39.4263 49.4739 39.567 49.4703C39.6861 49.4667 39.7727 49.4234 39.8269 49.3404C39.881 49.2574 39.9062 49.1383 39.899 48.9795C39.8846 48.5826 39.8449 48.2975 39.7836 48.1279C39.7222 47.9583 39.5237 47.7814 39.1953 47.5901C38.6395 47.2726 38.2678 47.038 38.0657 46.8864C37.8636 46.7348 37.694 46.5147 37.5352 46.2332C37.3836 45.9517 37.3007 45.6233 37.2862 45.2625C37.2646 44.7356 37.3981 44.3134 37.6868 44.003C37.9755 43.6926 38.4158 43.4905 39.0149 43.3967L38.9932 42.8337L39.8088 42.8048L39.8305 43.3678C40.379 43.4183 40.794 43.5879 41.0791 43.873C41.3642 44.1581 41.5122 44.566 41.5338 45.0856C41.5338 45.1578 41.5374 45.2697 41.5302 45.4212L41.5338 45.4321Z" fill="white"/>
<g filter="url(#filter0_d_184_12260)">
<path d="M29.9913 65.6957C29.1118 64.5428 26.7545 64.3382 24.3925 65.2896C22.0305 66.2409 20.4731 68.0218 20.6371 69.4621L20.5684 69.459L20.6855 69.7417C21.2901 71.2414 23.9004 71.6054 26.5155 70.5509C29.1306 69.498 30.7599 67.4282 30.1569 65.9269L30.0398 65.6426L29.9929 65.6942L29.9913 65.6957Z" fill="#D16A0D"/>
<path d="M29.8725 65.2286C29.9085 65.3161 29.9287 65.3504 29.9537 65.4192C29.9631 65.4457 30.0334 65.6097 30.0397 65.6441C30.2709 67.0985 28.6712 68.9731 26.267 69.9416C23.8066 70.932 21.3556 70.6368 20.5698 69.4573C20.5698 69.4573 20.4386 69.1309 20.4042 69.0418C19.7997 67.5406 21.4306 65.4707 24.0456 64.4178C26.6607 63.3649 29.2711 63.7273 29.8741 65.227L29.8725 65.2286Z" fill="#D16A0D"/>
<path d="M29.8458 65.1629C30.4503 66.6626 28.8194 68.734 26.2043 69.7869C23.5893 70.8398 20.9789 70.4774 20.3759 68.9777C19.7713 67.478 21.4022 65.4066 24.0173 64.3537C26.6324 63.3008 29.2428 63.6632 29.8458 65.1629Z" fill="url(#paint15_linear_184_12260)"/>
<g style="mix-blend-mode:screen" opacity="0.5">
<path d="M24.0236 64.3694C26.6339 63.318 29.2381 63.6773 29.8489 65.1707C29.8489 65.1676 29.8473 65.1661 29.8458 65.1629C29.2412 63.6617 26.6324 63.2993 24.0173 64.3537C21.4022 65.4066 19.7713 67.4765 20.3759 68.9777C20.3759 68.9809 20.3775 68.9824 20.379 68.9855C19.7838 67.4859 21.4132 65.4223 24.0236 64.3709V64.3694Z" fill="#FEF0A0"/>
</g>
<path d="M29.0975 65.4644C29.6068 66.7282 28.2337 68.4716 26.031 69.3573C23.8284 70.2447 21.632 69.9385 21.1227 68.6747C20.6134 67.4109 21.9866 65.6675 24.1892 64.7818C26.3919 63.8945 28.5898 64.2006 29.0975 65.4644Z" fill="url(#paint16_linear_184_12260)"/>
<path d="M29.0975 65.4644C29.6068 66.7282 28.2337 68.4716 26.031 69.3573C23.8284 70.2447 21.632 69.9385 21.1227 68.6747C20.6134 67.4109 21.9866 65.6675 24.1892 64.7818C26.3919 63.8945 28.5898 64.2006 29.0975 65.4644Z" fill="url(#paint17_linear_184_12260)"/>
<g style="mix-blend-mode:multiply">
<path d="M24.1891 64.7818C26.3855 63.8976 28.5772 64.1991 29.0943 65.4551C29.0943 65.4519 29.0912 65.4488 29.0912 65.4457C28.5819 64.1819 26.384 63.8773 24.1829 64.7646C21.9802 65.6519 20.6087 67.3953 21.1164 68.6575C21.1179 68.6606 21.1195 68.6637 21.121 68.6669C20.6243 67.4046 21.9943 65.6675 24.1907 64.7833L24.1891 64.7818Z" fill="#FEF0A0"/>
</g>
<g style="mix-blend-mode:screen" opacity="0.3">
<path d="M26.0326 69.3574C23.8347 70.2416 21.6414 69.9401 21.1274 68.6825C21.1274 68.6857 21.129 68.6872 21.1306 68.6904C21.6398 69.9541 23.8362 70.2588 26.0389 69.373C28.2416 68.4857 29.6147 66.7423 29.1054 65.4801C29.1054 65.477 29.1039 65.4754 29.1023 65.4723C29.6022 66.7345 28.2306 68.4732 26.0326 69.3574Z" fill="#FEF0A0"/>
</g>
<path opacity="0.4" d="M24.2314 64.8849C26.4137 64.0054 28.5773 64.2647 29.1116 65.4988C29.1069 65.4879 29.1038 65.4754 29.0975 65.4645C28.5898 64.2007 26.3919 63.8961 24.1892 64.7818C21.9866 65.6691 20.615 67.4125 21.1227 68.6747C21.1274 68.6857 21.1321 68.6966 21.1368 68.7091C20.6665 67.4484 22.0475 65.7629 24.2298 64.8834L24.2314 64.8849Z" fill="#D16A0D"/>
<g style="mix-blend-mode:multiply" opacity="0.4">
<path d="M26.6822 66.6594C26.5587 66.5859 26.4275 66.5438 26.2854 66.5344C26.1448 66.5235 25.8901 66.5297 25.5246 66.5516C25.0934 66.5766 24.8294 66.5828 24.7341 66.5688C24.6357 66.5563 24.5654 66.4953 24.5201 66.3844C24.4936 66.3173 24.4936 66.261 24.5186 66.211C24.5451 66.1626 24.5967 66.122 24.6732 66.0907C24.7701 66.0517 24.8404 66.0454 24.8857 66.072C24.931 66.0985 24.9778 66.1735 25.0278 66.2985L24.9528 66.3641L25.0762 66.4157L26.3478 65.9033C26.3322 65.8408 26.3182 65.7939 26.3072 65.7658C26.2229 65.5565 26.0604 65.4331 25.8167 65.394C25.5746 65.3534 25.2512 65.3987 24.8466 65.5299L24.756 65.3034L24.6326 65.2534L24.6029 65.355L24.1702 65.5409L24.2608 65.7674C23.8421 65.9689 23.5484 66.172 23.3829 66.3797C23.2157 66.5859 23.1751 66.7953 23.2594 67.0062C23.3188 67.1514 23.4219 67.2624 23.5703 67.3373C23.7187 67.4123 23.8749 67.4529 24.0405 67.4592C24.2061 67.467 24.5092 67.4592 24.9528 67.4389C25.2184 67.4264 25.384 67.4451 25.4527 67.4967C25.5199 67.5482 25.5855 67.6545 25.6496 67.8122C25.6746 67.8747 25.673 67.931 25.6433 67.9794C25.6136 68.0278 25.5574 68.07 25.4699 68.1044C25.3699 68.145 25.2965 68.1481 25.2512 68.1122C25.2059 68.0762 25.145 67.9638 25.0684 67.7732L25.0341 67.6888L24.9981 67.5998L24.8747 67.5482L24.7794 67.6638L23.725 68.1122L23.7812 68.2512C23.9077 68.5668 24.1233 68.7355 24.4279 68.7589C24.7326 68.7839 25.0591 68.7355 25.4074 68.6183L25.3949 68.8417L25.5168 68.8933L26.1026 68.6574L25.9948 68.3918C26.4181 68.1825 26.7087 67.9622 26.8696 67.731C27.0305 67.4998 27.0602 67.2577 26.9587 67.0062C26.8962 66.8484 26.8024 66.7328 26.679 66.6609L26.6822 66.6594Z" fill="#AA7E03"/>
</g>
<path d="M26.2248 65.8534L24.9532 66.3658L24.9063 66.2486C24.8564 66.1237 24.8079 66.0471 24.7642 66.0221C24.7189 65.9956 24.6486 66.0018 24.5517 66.0409C24.4736 66.0721 24.4221 66.1127 24.3971 66.1612C24.3721 66.2096 24.3721 66.2674 24.3986 66.3346C24.4439 66.4455 24.5142 66.5064 24.6127 66.5189C24.7079 66.5314 24.9719 66.5267 25.4031 66.5017C25.7702 66.4798 26.0233 66.4736 26.1654 66.4845C26.306 66.4939 26.4373 66.5361 26.5607 66.6095C26.6841 66.6829 26.7778 66.797 26.8403 66.9547C26.9418 67.2062 26.9121 67.4484 26.7512 67.6796C26.5903 67.9108 26.2998 68.131 25.8764 68.3404L25.9842 68.6059L25.3984 68.8418L25.2875 68.5669C24.9407 68.6856 24.6142 68.7325 24.308 68.7075C24.0034 68.6825 23.7878 68.5138 23.6613 68.1982L23.605 68.0607L24.8766 67.5484L24.947 67.7218C25.0235 67.9123 25.0844 68.0248 25.1282 68.0607C25.1735 68.0967 25.2453 68.0936 25.3469 68.0529C25.4328 68.0186 25.4906 67.9764 25.5187 67.928C25.5484 67.8795 25.5499 67.8233 25.525 67.7592C25.4609 67.6015 25.3953 67.4952 25.3281 67.4437C25.2609 67.3921 25.0954 67.3718 24.8298 67.3859C24.3877 67.4078 24.0831 67.414 23.9175 67.4062C23.7519 67.3984 23.5957 67.3578 23.4473 67.2828C23.2989 67.2078 23.1958 67.0985 23.1364 66.9532C23.052 66.7423 23.0927 66.533 23.2598 66.3267C23.427 66.1205 23.7191 65.9159 24.1377 65.7144L24.0471 65.4894L24.633 65.2535L24.7236 65.4785C25.1266 65.3488 25.45 65.3035 25.6937 65.3426C25.9358 65.3816 26.0998 65.5066 26.1842 65.7159C26.1967 65.7456 26.2092 65.7909 26.2248 65.8534Z" fill="white"/>
<g style="mix-blend-mode:screen" opacity="0.7">
<path style="mix-blend-mode:screen" d="M24.7314 65.4753V65.4785C25.0829 65.366 25.3735 65.316 25.6031 65.3316C25.3735 65.3144 25.0829 65.3629 24.7314 65.4753Z" fill="url(#paint18_linear_184_12260)"/>
<path style="mix-blend-mode:screen" d="M24.7145 66.0065C24.7332 66.008 24.7504 66.0127 24.7629 66.0221C24.8082 66.0486 24.855 66.1236 24.905 66.2486L24.9519 66.3658L24.9597 66.3626L24.9144 66.2486C24.8644 66.1236 24.8176 66.0486 24.7707 66.0221C24.7551 66.0127 24.7348 66.008 24.7129 66.0065H24.7145Z" fill="url(#paint19_linear_184_12260)"/>
<path style="mix-blend-mode:screen" d="M25.5297 67.9279C25.5594 67.8795 25.5609 67.8233 25.5359 67.7592C25.4719 67.6014 25.4063 67.4952 25.3391 67.4437C25.2985 67.4124 25.2219 67.3921 25.1079 67.3859C25.2157 67.3937 25.2891 67.414 25.3297 67.4437C25.3969 67.4968 25.4625 67.6014 25.5266 67.7592C25.5516 67.8217 25.55 67.8779 25.5203 67.9279C25.4922 67.9764 25.4344 68.0185 25.3485 68.0529C25.2907 68.0763 25.2423 68.0873 25.2032 68.0857C25.2438 68.0904 25.2954 68.0795 25.3579 68.0545C25.4438 68.0201 25.5016 67.9779 25.5297 67.9295V67.9279Z" fill="url(#paint20_linear_184_12260)"/>
<path style="mix-blend-mode:screen" d="M26.1636 66.4829C26.023 66.472 25.7684 66.4782 25.4013 66.5001C25.0186 66.522 24.7686 66.5282 24.6499 66.5204C24.7639 66.5298 25.017 66.522 25.4107 66.5001C25.77 66.4782 26.0215 66.4736 26.1636 66.4829Z" fill="url(#paint21_linear_184_12260)"/>
<path style="mix-blend-mode:screen" d="M25.2969 68.5684C25.2969 68.5684 25.2922 68.5699 25.2891 68.5715L25.3984 68.8433L25.4062 68.8402L25.2969 68.5699V68.5684Z" fill="url(#paint22_linear_184_12260)"/>
<path style="mix-blend-mode:screen" d="M24.3173 68.7089C24.0127 68.6839 23.7971 68.5152 23.669 68.1996L23.6144 68.0622L24.8781 67.5529V67.5482L23.605 68.0606L23.6612 68.1981C23.7878 68.5136 24.0033 68.6824 24.308 68.7073C24.3173 68.7073 24.3283 68.7089 24.3376 68.7089C24.3314 68.7089 24.3236 68.7089 24.3173 68.7089Z" fill="url(#paint23_linear_184_12260)"/>
<path style="mix-blend-mode:screen" d="M23.8925 67.4046C23.741 67.3937 23.5957 67.3531 23.4582 67.2844C23.3098 67.2094 23.2067 67.1 23.1473 66.9532C23.063 66.7423 23.1036 66.533 23.2692 66.3267C23.4363 66.1205 23.7285 65.9159 24.1471 65.7144L24.0565 65.4894L24.6345 65.2567V65.2535L24.0471 65.4894L24.1377 65.7144C23.7191 65.9159 23.4254 66.119 23.2598 66.3267C23.0927 66.533 23.052 66.7423 23.1364 66.9532C23.1942 67.0985 23.2989 67.2094 23.4473 67.2828C23.5879 67.3531 23.7363 67.3937 23.8925 67.4046Z" fill="url(#paint24_linear_184_12260)"/>
</g>
</g>
<g filter="url(#filter1_d_184_12260)">
<path d="M80.496 50.422C81.0259 49.7354 80.7792 48.3419 79.864 47.1247C78.9488 45.9074 77.6789 45.2833 76.8722 45.601L76.8633 45.5608L76.7181 45.6723C75.9453 46.2537 76.1391 47.818 77.1531 49.1655C78.1662 50.5133 79.6141 51.1342 80.3881 50.5534L80.5342 50.4417L80.4972 50.4226L80.496 50.422Z" fill="#D16A0D"/>
<path d="M80.7477 50.281C80.7027 50.3153 80.686 50.3324 80.6502 50.3575C80.6363 50.367 80.5524 50.433 80.5335 50.4419C79.7291 50.8006 78.3986 50.1667 77.4669 48.9277C76.5138 47.6596 76.305 46.1979 76.8647 45.5614C76.8647 45.5614 77.033 45.4351 77.0792 45.4014C77.8528 44.8198 79.3011 45.4416 80.3141 46.7893C81.3272 48.1371 81.5219 49.7012 80.7489 50.2817L80.7477 50.281Z" fill="#D16A0D"/>
<path d="M80.7811 50.2557C80.0083 50.8371 78.5592 50.2155 77.5461 48.8678C76.5331 47.5201 76.3384 45.9559 77.1114 45.3754C77.8842 44.794 79.3333 45.4156 80.3464 46.7633C81.3594 48.1111 81.5541 49.6752 80.7811 50.2557Z" fill="url(#paint25_linear_184_12260)"/>
<g style="mix-blend-mode:screen" opacity="0.5">
<path d="M80.3386 46.7693C81.3501 48.1146 81.5456 49.6746 80.7774 50.2586C80.7792 50.2581 80.7799 50.257 80.7814 50.2556C81.5551 49.674 81.3607 48.1107 80.3467 46.7632C79.3336 45.4155 77.8854 44.7937 77.1117 45.3754C77.1099 45.3759 77.1093 45.377 77.1077 45.3784C77.8819 44.8024 79.3263 45.4242 80.3377 46.7695L80.3386 46.7693Z" fill="#FEF0A0"/>
</g>
<path d="M80.4915 49.87C79.8402 50.3598 78.6205 49.8364 77.7679 48.701C76.9143 47.5659 76.7512 46.2496 77.4025 45.7598C78.0537 45.27 79.2734 45.7934 80.1261 46.9287C80.9797 48.0639 81.143 49.381 80.4915 49.87Z" fill="url(#paint26_linear_184_12260)"/>
<path d="M80.4915 49.87C79.8402 50.3598 78.6205 49.8364 77.7679 48.701C76.9143 47.5659 76.7512 46.2496 77.4025 45.7598C78.0537 45.27 79.2734 45.7934 80.1261 46.9287C80.9797 48.0639 81.143 49.381 80.4915 49.87Z" fill="url(#paint27_linear_184_12260)"/>
<g style="mix-blend-mode:multiply">
<path d="M80.126 46.9287C80.9768 48.0607 81.1419 49.3735 80.4964 49.8667C80.4982 49.8662 80.4995 49.8639 80.5013 49.8634C81.1526 49.3736 80.9883 48.0567 80.135 46.9224C79.2814 45.7873 78.062 45.2648 77.4114 45.7535C77.4098 45.7549 77.4082 45.7563 77.4067 45.7577C78.059 45.2753 79.2746 45.7978 80.1254 46.9298L80.126 46.9287Z" fill="#FEF0A0"/>
</g>
<g style="mix-blend-mode:screen" opacity="0.3">
<path d="M77.7678 48.7019C76.9168 47.569 76.7514 46.2552 77.3984 45.7637C77.3966 45.7641 77.3959 45.7653 77.3943 45.7667C76.7431 46.2565 76.9071 47.5725 77.7597 48.7079C78.6133 49.843 79.833 50.3664 80.4834 49.8768C80.4852 49.8764 80.4858 49.8752 80.4874 49.8738C79.8356 50.358 78.6188 49.8348 77.7678 48.7019Z" fill="#FEF0A0"/>
</g>
<path opacity="0.4" d="M80.0729 46.969C80.9188 48.0936 81.1039 49.3837 80.4736 49.8834C80.4792 49.879 80.486 49.8752 80.4913 49.8699C81.1428 49.381 80.9786 48.0641 80.1259 46.9287C79.2724 45.7936 78.0529 45.2711 77.4023 45.7598C77.3967 45.7642 77.3911 45.7686 77.3846 45.7732C78.0401 45.3064 79.2276 45.8433 80.0735 46.9679L80.0729 46.969Z" fill="#D16A0D"/>
<g style="mix-blend-mode:multiply" opacity="0.4">
<path d="M79.4268 48.6596C79.4501 48.577 79.4542 48.4946 79.4376 48.4111C79.4222 48.3281 79.3791 48.182 79.3099 47.9742C79.2287 47.729 79.1843 47.5775 79.1776 47.5202C79.1696 47.4615 79.1939 47.4114 79.251 47.3681C79.2857 47.3423 79.3182 47.3336 79.3509 47.3403C79.383 47.3482 79.4145 47.3717 79.4444 47.411C79.4819 47.461 79.4964 47.5006 79.4881 47.5309C79.4797 47.5612 79.4437 47.5998 79.3792 47.6481L79.3297 47.6149L79.319 47.6942L79.8119 48.3495C79.8456 48.3308 79.8705 48.3154 79.885 48.3047C79.9929 48.2236 80.039 48.1106 80.0239 47.9638C80.0099 47.8176 79.9336 47.6378 79.7952 47.4244L79.912 47.337L79.9218 47.258L79.8585 47.2565L79.6842 47.0353L79.5673 47.1227C79.3861 46.9121 79.2233 46.7738 79.0777 46.7103C78.9327 46.6457 78.8054 46.6546 78.6967 46.736C78.6219 46.7928 78.5738 46.8695 78.5535 46.9669C78.5331 47.0642 78.5338 47.1607 78.5559 47.2574C78.577 47.3542 78.6284 47.5281 78.7088 47.7813C78.7571 47.9328 78.7719 48.0313 78.7528 48.079C78.7334 48.1258 78.6822 48.1801 78.601 48.2416C78.5687 48.2657 78.536 48.2735 78.5034 48.2638C78.4709 48.2542 78.4378 48.2282 78.4044 48.183C78.3655 48.1315 78.3523 48.0896 78.366 48.0579C78.3798 48.0261 78.4353 47.9735 78.5336 47.8998L78.577 47.8669L78.6229 47.8324L78.6336 47.7531L78.552 47.7159L78.1298 47.1762L78.0582 47.2302C77.8955 47.3521 77.8314 47.5028 77.865 47.6824C77.8977 47.8622 77.9762 48.0433 78.0978 48.2265L77.9668 48.2538L77.9559 48.3322L78.1829 48.6341L78.3196 48.5307C78.5061 48.7429 78.6783 48.8767 78.8368 48.9338C78.9952 48.991 79.1397 48.9707 79.2693 48.8731C79.3508 48.8125 79.403 48.7405 79.4255 48.6581L79.4268 48.6596Z" fill="#AA7E03"/>
</g>
<path d="M79.8222 48.2704L79.3294 47.6152L79.3898 47.5699C79.4543 47.5217 79.491 47.4819 79.4986 47.4528C79.507 47.4225 79.4925 47.3828 79.4549 47.3329C79.4248 47.2926 79.3933 47.2691 79.3615 47.2622C79.3297 47.2553 79.2963 47.2642 79.2616 47.2899C79.2045 47.3333 79.1802 47.3833 79.1882 47.4421C79.1957 47.4991 79.2393 47.6509 79.3205 47.8961C79.3899 48.1048 79.4327 48.25 79.4484 48.3338C79.4648 48.4165 79.4607 48.4989 79.4374 48.5815C79.4141 48.6642 79.3627 48.736 79.2812 48.7965C79.1517 48.8941 79.0072 48.9144 78.8487 48.8573C78.6902 48.8001 78.518 48.6663 78.3316 48.4542L78.1948 48.5576L77.9679 48.2556L78.1095 48.149C77.9873 47.967 77.9096 47.7857 77.8767 47.6049C77.844 47.4251 77.9081 47.2744 78.0708 47.1525L78.1415 47.0987L78.6343 47.754L78.5451 47.8214C78.4468 47.8952 78.3913 47.9478 78.3773 47.9786C78.3635 48.0103 78.3765 48.0514 78.4156 48.1037C78.4488 48.1481 78.4821 48.1749 78.5144 48.1837C78.547 48.1933 78.5797 48.1855 78.6129 48.1612C78.6941 48.0997 78.7453 48.0454 78.7647 47.9986C78.7841 47.9518 78.7702 47.853 78.7209 47.7018C78.6399 47.4498 78.5891 47.2747 78.568 47.1779C78.5469 47.081 78.5462 46.9845 78.5665 46.8871C78.5869 46.7898 78.6341 46.7133 78.7088 46.6565C78.8176 46.5751 78.9448 46.5662 79.0898 46.6308C79.2348 46.6955 79.3982 46.8326 79.5795 47.0432L79.6954 46.9561L79.9223 47.258L79.8064 47.3451C79.9437 47.5579 80.0199 47.7377 80.0351 47.8845C80.05 48.0305 80.0032 48.1446 79.8953 48.2257C79.8801 48.2375 79.8559 48.2517 79.8222 48.2704Z" fill="white"/>
<g style="mix-blend-mode:screen" opacity="0.7">
<path style="mix-blend-mode:screen" d="M79.8091 47.3492L79.8073 47.3497C79.9266 47.5353 80.0005 47.6954 80.027 47.8305C80.0014 47.6952 79.9285 47.5348 79.8091 47.3492Z" fill="url(#paint28_linear_184_12260)"/>
<path style="mix-blend-mode:screen" d="M79.4998 47.4214C79.5018 47.4325 79.5017 47.4432 79.4982 47.4518C79.4899 47.4821 79.4538 47.5208 79.3894 47.569L79.3289 47.6142L79.332 47.6183L79.3908 47.5744C79.4553 47.5262 79.4913 47.4875 79.4994 47.4563C79.5024 47.4459 79.502 47.4334 79.4995 47.4205L79.4998 47.4214Z" fill="url(#paint29_linear_184_12260)"/>
<path style="mix-blend-mode:screen" d="M78.5163 48.19C78.5489 48.1996 78.5816 48.1918 78.6147 48.1675C78.696 48.1061 78.7472 48.0517 78.7666 48.0049C78.7783 47.9766 78.7782 47.9293 78.7642 47.8624C78.7763 47.9259 78.776 47.9715 78.7651 47.9995C78.7448 48.0465 78.6945 48.1007 78.6133 48.1621C78.581 48.1862 78.5483 48.194 78.5148 48.1846C78.4825 48.1758 78.4492 48.149 78.416 48.1047C78.3936 48.0749 78.3798 48.0486 78.3746 48.0258C78.3782 48.05 78.3925 48.0781 78.4166 48.1103C78.4497 48.1546 78.4831 48.1815 78.5154 48.1902L78.5163 48.19Z" fill="url(#paint30_linear_184_12260)"/>
<path style="mix-blend-mode:screen" d="M79.449 48.3327C79.4336 48.2498 79.3906 48.1036 79.3211 47.895C79.2492 47.6772 79.2069 47.5338 79.1931 47.464C79.2053 47.5313 79.249 47.6763 79.3226 47.9004C79.3908 48.1046 79.4325 48.2491 79.449 48.3327Z" fill="url(#paint31_linear_184_12260)"/>
<path style="mix-blend-mode:screen" d="M78.1101 48.1547C78.1101 48.1547 78.1085 48.1522 78.1071 48.1506L77.967 48.2559L77.97 48.2599L78.1092 48.1549L78.1101 48.1547Z" fill="url(#paint32_linear_184_12260)"/>
<path style="mix-blend-mode:screen" d="M77.8772 47.6106C77.8445 47.4308 77.9086 47.2801 78.0711 47.1573L78.142 47.1044L78.6319 47.7556L78.6346 47.7549L78.1415 47.0987L78.0708 47.1525C77.9081 47.2744 77.844 47.4251 77.8767 47.6049C77.8781 47.6104 77.8789 47.6169 77.8804 47.6223C77.8794 47.6187 77.8782 47.6142 77.8772 47.6106Z" fill="url(#paint33_linear_184_12260)"/>
<path style="mix-blend-mode:screen" d="M78.565 47.1632C78.5479 47.074 78.5489 46.9837 78.5673 46.8937C78.5876 46.7963 78.6349 46.7199 78.7105 46.6628C78.8193 46.5814 78.9465 46.5725 79.0912 46.6363C79.2362 46.7009 79.3997 46.838 79.5809 47.0486L79.6968 46.9615L79.9208 47.2594L79.9226 47.2589L79.6954 46.9561L79.5795 47.0432C79.3982 46.8326 79.2355 46.6943 79.0898 46.6308C78.9448 46.5662 78.8176 46.5751 78.7088 46.6565C78.6338 46.7124 78.5859 46.79 78.5665 46.8871C78.5477 46.9792 78.5472 47.0713 78.565 47.1632Z" fill="url(#paint34_linear_184_12260)"/>
</g>
</g>
<g style="mix-blend-mode:multiply">
<path d="M29.9862 38.1917C29.9845 38.1404 29.9811 38.0892 29.9742 38.0396C29.9674 37.9849 29.9606 37.9301 29.9503 37.8754C29.9383 37.8156 29.9246 37.754 29.9093 37.6942C29.8905 37.6258 29.8682 37.5574 29.8426 37.4907C29.8118 37.407 29.7742 37.3249 29.7314 37.2462C29.6613 37.1146 29.5793 36.9898 29.4818 36.8718C29.4203 36.7983 29.3536 36.7265 29.2818 36.6598C29.21 36.5931 29.133 36.5315 29.0561 36.4751L28.9928 36.417L28.9843 36.4255L28.9227 36.4922L28.8526 36.5692L28.7825 36.6461L28.7124 36.723L28.6423 36.8L28.5722 36.8769L28.5004 36.9539L28.4303 37.0308L28.3585 37.1077L28.2884 37.1847L28.2166 37.2616L28.1465 37.3386L28.0764 37.4155L28.0063 37.4924L27.9345 37.5694L27.8644 37.6463L27.7943 37.7233L27.7224 37.8002L27.6524 37.8771L27.5805 37.9541L27.5104 38.031L27.4404 38.108L27.3702 38.1849L27.2984 38.2618L27.2283 38.3388L27.1565 38.4157L27.0864 38.4927L27.0163 38.5696L26.9462 38.6465L26.8744 38.7235L26.8043 38.8004L26.7342 38.8774L26.6624 38.9543L26.5923 39.0312L26.5222 39.1082L26.4504 39.1851L26.3803 39.2621L26.3102 39.339L26.2401 39.4159L26.17 39.4929L26.0999 39.5698L26.0383 39.6365L26.0298 39.6468L26.093 39.7049C26.1546 39.7784 26.2213 39.8502 26.2931 39.9169C26.3649 39.9836 26.4401 40.0451 26.5188 40.1016C26.6436 40.1905 26.7752 40.264 26.9103 40.3238C26.9924 40.3597 27.0779 40.3905 27.1634 40.4162C27.2318 40.4367 27.3019 40.4538 27.372 40.4675C27.4318 40.4794 27.4933 40.488 27.5549 40.4948C27.6096 40.5016 27.666 40.5051 27.7208 40.5068C27.7721 40.5085 27.8233 40.5068 27.8729 40.5068C27.9208 40.5051 27.9687 40.5016 28.0165 40.4965C28.061 40.4914 28.1054 40.4863 28.1499 40.4794C28.1926 40.4726 28.2354 40.464 28.2764 40.4555C28.3175 40.4469 28.3568 40.4367 28.3961 40.4247C28.4354 40.4145 28.4731 40.4025 28.5107 40.3888C28.5466 40.3768 28.5842 40.3632 28.6201 40.3478C28.6543 40.3341 28.6902 40.3187 28.7244 40.3016C28.7586 40.2862 28.7911 40.2691 28.8236 40.252C28.856 40.2349 28.8868 40.2178 28.9193 40.199C28.9501 40.1802 28.9808 40.1614 29.0099 40.1409C29.039 40.1221 29.068 40.1016 29.0971 40.0793C29.1262 40.0588 29.1535 40.0366 29.1809 40.0144C29.2082 39.9921 29.2339 39.9699 29.2612 39.946C29.2869 39.9237 29.3126 39.8998 29.3382 39.8742C29.3621 39.8502 29.3878 39.8246 29.4117 39.7989C29.4356 39.7733 29.4579 39.7476 29.4801 39.7203C29.5023 39.6929 29.5246 39.6673 29.5451 39.6382C29.5673 39.6109 29.5878 39.5818 29.6066 39.5544C29.6271 39.5254 29.646 39.4963 29.6648 39.4655C29.6836 39.4347 29.7024 39.404 29.7195 39.3732C29.7366 39.3424 29.7537 39.3099 29.7691 39.2774C29.7862 39.245 29.8016 39.2108 29.8152 39.1783C29.8306 39.1441 29.8443 39.1099 29.858 39.0757C29.8717 39.0398 29.8836 39.0039 29.8956 38.968C29.9076 38.9304 29.9178 38.8927 29.9281 38.8551C29.9383 38.8158 29.9469 38.7765 29.9554 38.7389C29.964 38.6978 29.9708 38.6568 29.9759 38.6158C29.9828 38.573 29.9879 38.5303 29.9913 38.4875C29.9947 38.4431 29.9982 38.3969 29.9999 38.3525C29.9999 38.3046 29.9999 38.2567 29.9999 38.2088L29.9862 38.1917Z" fill="#D16A0D"/>
</g>
<path d="M26.8522 36.1742C27.9756 35.7006 29.2716 36.2289 29.7435 37.3522C30.2171 38.4756 29.6888 39.7716 28.5654 40.2435C27.4421 40.7171 26.1461 40.1888 25.6742 39.0654C25.2006 37.9421 25.7289 36.6461 26.8522 36.1742Z" fill="url(#paint35_linear_184_12260)"/>
<g style="mix-blend-mode:screen" opacity="0.5">
<path d="M26.0999 36.7162C26.9275 35.8237 28.3227 35.7707 29.2152 36.5948C29.2152 36.5948 29.2117 36.5914 29.21 36.5897C28.3158 35.7604 26.9189 35.8117 26.0897 36.706C25.2605 37.6002 25.3117 38.9971 26.2059 39.8263L26.2111 39.8314C25.322 39.0005 25.2724 37.607 26.0999 36.7162Z" fill="#FEF0A0"/>
</g>
<path d="M28.9725 36.846C29.7248 37.5453 29.7693 38.7217 29.07 39.474C28.3707 40.2263 27.1943 40.2707 26.442 39.5714C25.6897 38.8721 25.6453 37.6958 26.3446 36.9435C27.0439 36.1912 28.2202 36.1467 28.9725 36.846Z" fill="url(#paint36_linear_184_12260)"/>
<path d="M28.3156 37.8377C28.225 37.8052 28.1429 37.7916 28.0711 37.8001C27.9976 37.8069 27.8779 37.8343 27.7086 37.8839C27.5086 37.9403 27.3838 37.9694 27.3325 37.9711C27.2795 37.9728 27.2196 37.942 27.1512 37.8788C27.1102 37.8411 27.0863 37.8052 27.0777 37.7727C27.0692 37.7403 27.0777 37.7112 27.1016 37.6838C27.1324 37.6514 27.1649 37.6394 27.1974 37.6514C27.2299 37.6633 27.2846 37.7044 27.3615 37.7762L27.3906 37.8035L27.3701 37.8258L27.4333 37.8429L27.8368 37.4086C27.8026 37.371 27.777 37.3453 27.7582 37.3282C27.63 37.2085 27.4983 37.1487 27.3632 37.1487C27.2282 37.1487 27.0897 37.2068 26.9495 37.3248L26.811 37.1966L26.7477 37.1795L26.7905 37.2188L26.6246 37.3966L26.7631 37.5248C26.6434 37.6873 26.587 37.8411 26.5921 37.9831C26.5972 38.125 26.6656 38.2566 26.7956 38.3763C26.8845 38.4601 26.9819 38.5165 27.0845 38.5473C27.1871 38.5781 27.2812 38.5883 27.3649 38.5763C27.4487 38.5644 27.5923 38.5319 27.7992 38.4755C27.9223 38.4413 28.0112 38.4379 28.0659 38.4635C28.1207 38.4891 28.1959 38.5473 28.2934 38.6379C28.3327 38.6738 28.3549 38.708 28.3618 38.7405C28.3686 38.773 28.3583 38.8037 28.331 38.8328C28.2985 38.867 28.2643 38.8756 28.2284 38.8585C28.1925 38.8414 28.1155 38.7781 27.9976 38.6704L27.9463 38.6225L27.8916 38.5712L27.8283 38.5541L27.871 38.5934L27.488 39.0055L27.5735 39.0842C27.7667 39.2637 27.9429 39.3457 28.1019 39.3321C28.2609 39.3167 28.3994 39.2568 28.519 39.1525L28.6456 39.2688L28.625 39.291L28.6883 39.3081L28.8747 39.1081L28.7105 38.9559C28.8285 38.7866 28.8781 38.6242 28.8593 38.4686C28.8405 38.313 28.7533 38.1626 28.5977 38.019C28.5002 37.9283 28.4062 37.8685 28.3173 37.836L28.3156 37.8377Z" fill="#D16A0D"/>
<path d="M27.7736 37.3916L27.3701 37.8259L27.2983 37.7592C27.2213 37.6874 27.1666 37.6464 27.1341 37.6344C27.1017 37.6224 27.0692 37.6344 27.0384 37.6669C27.0144 37.6925 27.0059 37.7233 27.0128 37.7541C27.0213 37.7866 27.0452 37.8208 27.0863 37.8601C27.1547 37.9233 27.2145 37.9541 27.2675 37.9524C27.3188 37.9524 27.4453 37.9216 27.6436 37.8652C27.8129 37.8173 27.9343 37.7883 28.0061 37.7814C28.0796 37.7746 28.16 37.7866 28.2506 37.819C28.3412 37.8515 28.4353 37.9131 28.531 38.002C28.6866 38.1456 28.7738 38.2961 28.7926 38.4517C28.8114 38.609 28.7618 38.7714 28.6439 38.939L28.808 39.0911L28.6216 39.2912L28.4524 39.1339C28.3327 39.2399 28.1942 39.2997 28.0352 39.3134C27.8762 39.3271 27.7001 39.245 27.5069 39.0655L27.4214 38.9868L27.8249 38.5525L27.9309 38.6517C28.0472 38.7594 28.1241 38.8227 28.1617 38.8398C28.1976 38.8569 28.2318 38.8483 28.2643 38.8141C28.2917 38.7851 28.3019 38.7543 28.2951 38.7218C28.2882 38.6893 28.266 38.6551 28.2267 38.6192C28.1292 38.5286 28.0523 38.4705 27.9976 38.4448C27.9429 38.4192 27.854 38.4243 27.7308 38.4568C27.524 38.5132 27.3803 38.5457 27.2966 38.5577C27.2128 38.5696 27.1204 38.5577 27.0162 38.5286C26.9136 38.4978 26.8161 38.4397 26.7272 38.3576C26.5973 38.2379 26.5289 38.1063 26.5238 37.9644C26.5186 37.8225 26.5751 37.6703 26.6947 37.5062L26.5562 37.3779L26.7426 37.1779L26.8811 37.3061C27.023 37.1881 27.1615 37.13 27.2966 37.13C27.4316 37.13 27.5633 37.1916 27.6915 37.3095C27.7086 37.3266 27.736 37.3523 27.7702 37.3899L27.7736 37.3916Z" fill="white"/>
<g style="mix-blend-mode:screen" opacity="0.7">
<path style="mix-blend-mode:screen" d="M26.8884 37.3044H26.8901C27.0132 37.2035 27.1329 37.1454 27.2509 37.1334C27.1329 37.1454 27.0115 37.2018 26.8867 37.3044H26.8884Z" fill="url(#paint37_linear_184_12260)"/>
<path style="mix-blend-mode:screen" d="M27.1021 37.6309C27.1123 37.6309 27.1226 37.6309 27.1328 37.636C27.1653 37.648 27.22 37.689 27.297 37.7609L27.3688 37.8275V37.8241L27.3021 37.7592C27.2252 37.6873 27.1705 37.6463 27.138 37.6343C27.126 37.6309 27.114 37.6292 27.1038 37.6309H27.1021Z" fill="url(#paint38_linear_184_12260)"/>
<path style="mix-blend-mode:screen" d="M28.3056 38.7236C28.2988 38.6911 28.2766 38.6569 28.2372 38.621C28.1398 38.5304 28.0628 38.4722 28.0098 38.4466C27.9774 38.4312 27.9312 38.4261 27.873 38.4329C27.9295 38.4278 27.9722 38.4329 28.0047 38.4466C28.0594 38.4722 28.1364 38.5304 28.2338 38.621C28.2732 38.6569 28.2954 38.6911 28.3022 38.7236C28.309 38.7561 28.2988 38.7868 28.2714 38.8159C28.2526 38.8347 28.2338 38.8467 28.215 38.8501C28.2372 38.8501 28.2578 38.8364 28.2766 38.8159C28.3039 38.7868 28.3142 38.7561 28.3073 38.7236H28.3056Z" fill="url(#paint39_linear_184_12260)"/>
<path style="mix-blend-mode:screen" d="M28.0081 37.7815C27.9346 37.7883 27.8149 37.8157 27.6457 37.8653C27.4696 37.9149 27.3499 37.9439 27.29 37.9508C27.3499 37.9456 27.4696 37.9166 27.6508 37.8653C27.8166 37.8174 27.9363 37.79 28.0098 37.7815H28.0081Z" fill="url(#paint40_linear_184_12260)"/>
<path style="mix-blend-mode:screen" d="M28.4595 39.1356H28.4561L28.6236 39.2929V39.2895L28.4595 39.1356Z" fill="url(#paint41_linear_184_12260)"/>
<path style="mix-blend-mode:screen" d="M28.0442 39.3169C27.8852 39.3306 27.7091 39.2485 27.5159 39.069L27.4304 38.9903L27.8305 38.5577H27.8288L27.4253 38.9903L27.5108 39.069C27.704 39.2485 27.8801 39.3306 28.0391 39.3169C28.0442 39.3169 28.0494 39.3169 28.0545 39.3169C28.0511 39.3169 28.0477 39.3169 28.0442 39.3169Z" fill="url(#paint42_linear_184_12260)"/>
<path style="mix-blend-mode:screen" d="M27.2902 38.5612C27.2116 38.5697 27.1244 38.5578 27.0286 38.5304C26.926 38.4996 26.8286 38.4415 26.7397 38.3594C26.6097 38.2397 26.5413 38.1081 26.5362 37.9662C26.5311 37.8243 26.5875 37.6721 26.7072 37.508L26.5687 37.3797L26.7517 37.1831H26.7499L26.5636 37.3814L26.7021 37.5097C26.5824 37.6721 26.526 37.826 26.5311 37.9679C26.5362 38.1098 26.6046 38.2415 26.7346 38.3611C26.8235 38.4449 26.9209 38.5013 27.0235 38.5321C27.121 38.5612 27.2099 38.5714 27.2902 38.5629V38.5612Z" fill="url(#paint43_linear_184_12260)"/>
</g>
<path d="M20.0696 27.6758C23.0487 28.3199 21.1032 25.8582 21.8771 25.3796C18.2393 23.7415 17.8147 22.4821 16.9213 20.4622L14.1394 24.3082C16.0297 26.0638 18.5706 27.3517 20.0696 27.6758Z" fill="url(#paint44_linear_184_12260)"/>
<path d="M49.5769 31.6301C50.2976 31.686 50.8619 32.2503 50.9178 32.971L50.9793 33.7979H51.0686L51.1301 32.971C51.186 32.2503 51.7502 31.686 52.471 31.6301L53.2978 31.5687V31.4793L52.471 31.4178C51.7502 31.3619 51.186 30.7976 51.1301 30.0769L51.0686 29.25H50.9793L50.9178 30.0769C50.8619 30.7976 50.2976 31.3619 49.5769 31.4178L48.75 31.4793V31.5687L49.5769 31.6301Z" fill="white"/>
<path d="M30.3911 58.8954C30.7263 58.9233 30.9889 59.1859 31.0168 59.5211L31.0448 59.9122H31.1174L31.1454 59.5211C31.1733 59.1859 31.4359 58.9233 31.7711 58.8954L32.1622 58.8674V58.7948L31.7711 58.7668C31.4359 58.7389 31.1733 58.4763 31.1454 58.1411L31.1174 57.75H31.0448L31.0168 58.1411C30.9889 58.4763 30.7263 58.7389 30.3911 58.7668L30 58.7948V58.8674L30.3911 58.8954Z" fill="white"/>
<path d="M22.4361 58.2317C23.0153 58.2774 23.4726 58.7348 23.5183 59.314L23.5641 60H23.6859L23.7317 59.314C23.7774 58.7348 24.2347 58.2774 24.8139 58.2317L25.5 58.186V58.064L24.8139 58.0183C24.2347 57.9726 23.7774 57.5152 23.7317 56.936L23.6859 56.25H23.5641L23.5183 56.936C23.4726 57.5152 23.0153 57.9726 22.4361 58.0183L21.75 58.064V58.186L22.4361 58.2317Z" fill="white"/>
<path d="M54.3326 22.8049C55.9361 22.682 57.1821 21.4305 57.305 19.8326L57.4446 18H57.6458L57.7855 19.8326C57.9084 21.4361 59.1599 22.682 60.7578 22.8049L62.5904 22.9446V23.1457L60.7578 23.2854C59.1543 23.4083 57.9084 24.6598 57.7855 26.2577L57.6458 28.0903H57.4446L57.305 26.2577C57.1821 24.6542 55.9305 23.4083 54.3326 23.2854L52.5 23.1457V22.9446L54.3326 22.8049Z" fill="white"/>
<path d="M68.4141 37.0896C67.9088 34.8157 65.8876 32.2892 66.6456 30.268C66.0392 29.8638 65.1296 32.2892 66.1402 34.8157C66.2244 35.1526 67.9088 36.5843 68.4141 37.0896Z" fill="#D9D9D9"/>
<path d="M66.1399 31.2784C65.6165 32.7179 65.8873 34.0576 66.1399 34.8156C61.1115 25.6095 68.6667 24.7095 71.6982 24.053C71.6982 24.053 71.6983 25.9728 71.951 26.7307C72.4563 27.7413 74.7301 28.4993 74.7301 28.4993C74.4778 29.2572 67.1504 28.4993 66.1399 31.2784Z" fill="url(#paint45_linear_184_12260)"/>
<defs>
<filter id="filter0_d_184_12260" x="16.25" y="63.75" width="18.0322" height="15.4042" filterUnits="userSpaceOnUse" color-interpolation-filters="sRGB">
<feFlood flood-opacity="0" result="BackgroundImageFix"/>
<feColorMatrix in="SourceAlpha" type="matrix" values="0 0 0 0 0 0 0 0 0 0 0 0 0 0 0 0 0 0 127 0" result="hardAlpha"/>
<feOffset dy="4"/>
<feGaussianBlur stdDeviation="2"/>
<feComposite in2="hardAlpha" operator="out"/>
<feColorMatrix type="matrix" values="0 0 0 0 0 0 0 0 0 0 0 0 0 0 0 0 0 0 0.25 0"/>
<feBlend mode="normal" in2="BackgroundImageFix" result="effect1_dropShadow_184_12260"/>
<feBlend mode="normal" in="SourceGraphic" in2="effect1_dropShadow_184_12260" result="shape"/>
</filter>
<filter id="filter1_d_184_12260" x="72.2451" y="45.1572" width="13.0098" height="13.6139" filterUnits="userSpaceOnUse" color-interpolation-filters="sRGB">
<feFlood flood-opacity="0" result="BackgroundImageFix"/>
<feColorMatrix in="SourceAlpha" type="matrix" values="0 0 0 0 0 0 0 0 0 0 0 0 0 0 0 0 0 0 127 0" result="hardAlpha"/>
<feOffset dy="4"/>
<feGaussianBlur stdDeviation="2"/>
<feComposite in2="hardAlpha" operator="out"/>
<feColorMatrix type="matrix" values="0 0 0 0 0 0 0 0 0 0 0 0 0 0 0 0 0 0 0.25 0"/>
<feBlend mode="normal" in2="BackgroundImageFix" result="effect1_dropShadow_184_12260"/>
<feBlend mode="normal" in="SourceGraphic" in2="effect1_dropShadow_184_12260" result="shape"/>
</filter>
<linearGradient id="paint0_linear_184_12260" x1="72.3669" y1="30.138" x2="19.883" y2="63.612" gradientUnits="userSpaceOnUse">
<stop stop-color="#882AFF"/>
<stop offset="1" stop-color="#6255FF"/>
</linearGradient>
<linearGradient id="paint1_linear_184_12260" x1="61.6875" y1="19.9199" x2="30.5625" y2="73.83" gradientUnits="userSpaceOnUse">
<stop stop-color="#882AFF"/>
<stop offset="1" stop-color="#6255FF"/>
</linearGradient>
<linearGradient id="paint2_linear_184_12260" x1="46.883" y1="39.2681" x2="53.0166" y2="53.7392" gradientUnits="userSpaceOnUse">
<stop stop-color="#F45762"/>
<stop offset="0.0001" stop-color="#F85644"/>
<stop offset="1" stop-color="#D82300"/>
</linearGradient>
<linearGradient id="paint3_linear_184_12260" x1="45.7491" y1="45.8271" x2="54.1483" y2="47.177" gradientUnits="userSpaceOnUse">
<stop stop-color="#F75643"/>
<stop offset="1" stop-color="#D82401"/>
</linearGradient>
<linearGradient id="paint4_linear_184_12260" x1="39.2611" y1="37.3899" x2="39.2611" y2="56.5131" gradientUnits="userSpaceOnUse">
<stop stop-color="#4AEAFB"/>
<stop offset="1" stop-color="#02ABBD"/>
</linearGradient>
<linearGradient id="paint5_linear_184_12260" x1="39.8335" y1="33" x2="39.8335" y2="37.995" gradientUnits="userSpaceOnUse">
<stop stop-color="#43E4F5"/>
<stop offset="1" stop-color="#05AEC0"/>
</linearGradient>
<linearGradient id="paint6_linear_184_12260" x1="43.0582" y1="51.1245" x2="50.4092" y2="56.7006" gradientUnits="userSpaceOnUse">
<stop stop-color="#FFD08D"/>
<stop offset="0.58" stop-color="#FFDC2A"/>
<stop offset="0.81" stop-color="#F3C237"/>
<stop offset="1" stop-color="#EBB140"/>
</linearGradient>
<linearGradient id="paint7_linear_184_12260" x1="44.1449" y1="56.7887" x2="49.4306" y2="51.0946" gradientUnits="userSpaceOnUse">
<stop stop-color="#FFAA3F"/>
<stop offset="0.58" stop-color="#FFAF2A"/>
<stop offset="0.71" stop-color="#F8A631"/>
<stop offset="1" stop-color="#EC9540"/>
</linearGradient>
<linearGradient id="paint8_linear_184_12260" x1="47.3443" y1="51.6529" x2="47.3326" y2="51.339" gradientUnits="userSpaceOnUse">
<stop offset="0.04" stop-color="#F8DA36"/>
<stop offset="0.11" stop-color="#F1CD21"/>
<stop offset="0.19" stop-color="#EBC412"/>
<stop offset="0.28" stop-color="#E8BE09"/>
<stop offset="0.42" stop-color="#E8BD07"/>
<stop offset="0.51" stop-color="#EFCB1B"/>
<stop offset="0.64" stop-color="#F8DB33"/>
<stop offset="0.77" stop-color="#FDE542"/>
<stop offset="0.87" stop-color="#FFE947"/>
<stop offset="1" stop-color="#FFEC63"/>
</linearGradient>
<linearGradient id="paint9_linear_184_12260" x1="46.8494" y1="52.8361" x2="46.8238" y2="52.1475" gradientUnits="userSpaceOnUse">
<stop offset="0.04" stop-color="#F8DA36"/>
<stop offset="0.11" stop-color="#F1CD21"/>
<stop offset="0.19" stop-color="#EBC412"/>
<stop offset="0.28" stop-color="#E8BE09"/>
<stop offset="0.42" stop-color="#E8BD07"/>
<stop offset="0.51" stop-color="#EFCB1B"/>
<stop offset="0.64" stop-color="#F8DB33"/>
<stop offset="0.77" stop-color="#FDE542"/>
<stop offset="0.87" stop-color="#FFE947"/>
<stop offset="1" stop-color="#FFEC63"/>
</linearGradient>
<linearGradient id="paint10_linear_184_12260" x1="46.8098" y1="55.6279" x2="46.7667" y2="54.4683" gradientUnits="userSpaceOnUse">
<stop offset="0.04" stop-color="#F8DA36"/>
<stop offset="0.11" stop-color="#F1CD21"/>
<stop offset="0.19" stop-color="#EBC412"/>
<stop offset="0.28" stop-color="#E8BE09"/>
<stop offset="0.42" stop-color="#E8BD07"/>
<stop offset="0.51" stop-color="#EFCB1B"/>
<stop offset="0.64" stop-color="#F8DB33"/>
<stop offset="0.77" stop-color="#FDE542"/>
<stop offset="0.87" stop-color="#FFE947"/>
<stop offset="1" stop-color="#FFEC63"/>
</linearGradient>
<linearGradient id="paint11_linear_184_12260" x1="47.2539" y1="53.7322" x2="47.2219" y2="52.8723" gradientUnits="userSpaceOnUse">
<stop offset="0.04" stop-color="#F8DA36"/>
<stop offset="0.11" stop-color="#F1CD21"/>
<stop offset="0.19" stop-color="#EBC412"/>
<stop offset="0.28" stop-color="#E8BE09"/>
<stop offset="0.42" stop-color="#E8BD07"/>
<stop offset="0.51" stop-color="#EFCB1B"/>
<stop offset="0.64" stop-color="#F8DB33"/>
<stop offset="0.77" stop-color="#FDE542"/>
<stop offset="0.87" stop-color="#FFE947"/>
<stop offset="1" stop-color="#FFEC63"/>
</linearGradient>
<linearGradient id="paint12_linear_184_12260" x1="46.573" y1="56.8515" x2="46.5554" y2="56.3769" gradientUnits="userSpaceOnUse">
<stop offset="0.04" stop-color="#F8DA36"/>
<stop offset="0.11" stop-color="#F1CD21"/>
<stop offset="0.19" stop-color="#EBC412"/>
<stop offset="0.28" stop-color="#E8BE09"/>
<stop offset="0.42" stop-color="#E8BD07"/>
<stop offset="0.51" stop-color="#EFCB1B"/>
<stop offset="0.64" stop-color="#F8DB33"/>
<stop offset="0.77" stop-color="#FDE542"/>
<stop offset="0.87" stop-color="#FFE947"/>
<stop offset="1" stop-color="#FFEC63"/>
</linearGradient>
<linearGradient id="paint13_linear_184_12260" x1="45.921" y1="56.0327" x2="45.8681" y2="54.609" gradientUnits="userSpaceOnUse">
<stop offset="0.04" stop-color="#F8DA36"/>
<stop offset="0.11" stop-color="#F1CD21"/>
<stop offset="0.19" stop-color="#EBC412"/>
<stop offset="0.28" stop-color="#E8BE09"/>
<stop offset="0.42" stop-color="#E8BD07"/>
<stop offset="0.51" stop-color="#EFCB1B"/>
<stop offset="0.64" stop-color="#F8DB33"/>
<stop offset="0.77" stop-color="#FDE542"/>
<stop offset="0.87" stop-color="#FFE947"/>
<stop offset="1" stop-color="#FFEC63"/>
</linearGradient>
<linearGradient id="paint14_linear_184_12260" x1="46.1126" y1="53.7853" x2="46.0087" y2="50.9916" gradientUnits="userSpaceOnUse">
<stop offset="0.04" stop-color="#F8DA36"/>
<stop offset="0.11" stop-color="#F1CD21"/>
<stop offset="0.19" stop-color="#EBC412"/>
<stop offset="0.28" stop-color="#E8BE09"/>
<stop offset="0.42" stop-color="#E8BD07"/>
<stop offset="0.51" stop-color="#EFCB1B"/>
<stop offset="0.64" stop-color="#F8DB33"/>
<stop offset="0.77" stop-color="#FDE542"/>
<stop offset="0.87" stop-color="#FFE947"/>
<stop offset="1" stop-color="#FFEC63"/>
</linearGradient>
<linearGradient id="paint15_linear_184_12260" x1="22.1799" y1="65.6172" x2="26.8786" y2="70.3976" gradientUnits="userSpaceOnUse">
<stop stop-color="#FFD08D"/>
<stop offset="0.58" stop-color="#FFDC2A"/>
<stop offset="0.81" stop-color="#F3C237"/>
<stop offset="1" stop-color="#EBB140"/>
</linearGradient>
<linearGradient id="paint16_linear_184_12260" x1="26.1472" y1="69.6278" x2="24.2951" y2="65.0276" gradientUnits="userSpaceOnUse">
<stop stop-color="#F0C827"/>
<stop offset="0.08" stop-color="#E9BE25"/>
<stop offset="0.22" stop-color="#E2B424"/>
<stop offset="0.38" stop-color="#EECA46"/>
<stop offset="0.57" stop-color="#FAE168"/>
<stop offset="0.68" stop-color="#FFEA76"/>
<stop offset="0.74" stop-color="#FDE770"/>
<stop offset="0.82" stop-color="#FBE161"/>
<stop offset="0.91" stop-color="#F6D647"/>
<stop offset="1" stop-color="#F0C827"/>
</linearGradient>
<linearGradient id="paint17_linear_184_12260" x1="26.1472" y1="69.6278" x2="24.2951" y2="65.0276" gradientUnits="userSpaceOnUse">
<stop stop-color="#FFD08D"/>
<stop offset="0.58" stop-color="#FFAF2A"/>
<stop offset="0.71" stop-color="#F8A631"/>
<stop offset="1" stop-color="#EC9540"/>
</linearGradient>
<linearGradient id="paint18_linear_184_12260" x1="25.3111" y1="65.7438" x2="25.2388" y2="65.5643" gradientUnits="userSpaceOnUse">
<stop offset="0.04" stop-color="#F8DA36"/>
<stop offset="0.11" stop-color="#F1CD21"/>
<stop offset="0.19" stop-color="#EBC412"/>
<stop offset="0.28" stop-color="#E8BE09"/>
<stop offset="0.42" stop-color="#E8BD07"/>
<stop offset="0.51" stop-color="#EFCB1B"/>
<stop offset="0.64" stop-color="#F8DB33"/>
<stop offset="0.77" stop-color="#FDE542"/>
<stop offset="0.87" stop-color="#FFE947"/>
<stop offset="1" stop-color="#FFEC63"/>
</linearGradient>
<linearGradient id="paint19_linear_184_12260" x1="25.0266" y1="66.6344" x2="24.8678" y2="66.24" gradientUnits="userSpaceOnUse">
<stop offset="0.04" stop-color="#F8DA36"/>
<stop offset="0.11" stop-color="#F1CD21"/>
<stop offset="0.19" stop-color="#EBC412"/>
<stop offset="0.28" stop-color="#E8BE09"/>
<stop offset="0.42" stop-color="#E8BD07"/>
<stop offset="0.51" stop-color="#EFCB1B"/>
<stop offset="0.64" stop-color="#F8DB33"/>
<stop offset="0.77" stop-color="#FDE542"/>
<stop offset="0.87" stop-color="#FFE947"/>
<stop offset="1" stop-color="#FFEC63"/>
</linearGradient>
<linearGradient id="paint20_linear_184_12260" x1="25.5244" y1="68.2938" x2="25.2564" y2="67.6282" gradientUnits="userSpaceOnUse">
<stop offset="0.04" stop-color="#F8DA36"/>
<stop offset="0.11" stop-color="#F1CD21"/>
<stop offset="0.19" stop-color="#EBC412"/>
<stop offset="0.28" stop-color="#E8BE09"/>
<stop offset="0.42" stop-color="#E8BD07"/>
<stop offset="0.51" stop-color="#EFCB1B"/>
<stop offset="0.64" stop-color="#F8DB33"/>
<stop offset="0.77" stop-color="#FDE542"/>
<stop offset="0.87" stop-color="#FFE947"/>
<stop offset="1" stop-color="#FFEC63"/>
</linearGradient>
<linearGradient id="paint21_linear_184_12260" x1="25.6166" y1="67.0053" x2="25.4175" y2="66.5107" gradientUnits="userSpaceOnUse">
<stop offset="0.04" stop-color="#F8DA36"/>
<stop offset="0.11" stop-color="#F1CD21"/>
<stop offset="0.19" stop-color="#EBC412"/>
<stop offset="0.28" stop-color="#E8BE09"/>
<stop offset="0.42" stop-color="#E8BD07"/>
<stop offset="0.51" stop-color="#EFCB1B"/>
<stop offset="0.64" stop-color="#F8DB33"/>
<stop offset="0.77" stop-color="#FDE542"/>
<stop offset="0.87" stop-color="#FFE947"/>
<stop offset="1" stop-color="#FFEC63"/>
</linearGradient>
<linearGradient id="paint22_linear_184_12260" x1="25.5161" y1="69.1058" x2="25.4061" y2="68.8324" gradientUnits="userSpaceOnUse">
<stop offset="0.04" stop-color="#F8DA36"/>
<stop offset="0.11" stop-color="#F1CD21"/>
<stop offset="0.19" stop-color="#EBC412"/>
<stop offset="0.28" stop-color="#E8BE09"/>
<stop offset="0.42" stop-color="#E8BD07"/>
<stop offset="0.51" stop-color="#EFCB1B"/>
<stop offset="0.64" stop-color="#F8DB33"/>
<stop offset="0.77" stop-color="#FDE542"/>
<stop offset="0.87" stop-color="#FFE947"/>
<stop offset="1" stop-color="#FFEC63"/>
</linearGradient>
<linearGradient id="paint23_linear_184_12260" x1="24.6811" y1="68.8806" x2="24.3521" y2="68.0636" gradientUnits="userSpaceOnUse">
<stop offset="0.04" stop-color="#F8DA36"/>
<stop offset="0.11" stop-color="#F1CD21"/>
<stop offset="0.19" stop-color="#EBC412"/>
<stop offset="0.28" stop-color="#E8BE09"/>
<stop offset="0.42" stop-color="#E8BD07"/>
<stop offset="0.51" stop-color="#EFCB1B"/>
<stop offset="0.64" stop-color="#F8DB33"/>
<stop offset="0.77" stop-color="#FDE542"/>
<stop offset="0.87" stop-color="#FFE947"/>
<stop offset="1" stop-color="#FFEC63"/>
</linearGradient>
<linearGradient id="paint24_linear_184_12260" x1="24.4466" y1="67.4825" x2="23.801" y2="65.8789" gradientUnits="userSpaceOnUse">
<stop offset="0.04" stop-color="#F8DA36"/>
<stop offset="0.11" stop-color="#F1CD21"/>
<stop offset="0.19" stop-color="#EBC412"/>
<stop offset="0.28" stop-color="#E8BE09"/>
<stop offset="0.42" stop-color="#E8BD07"/>
<stop offset="0.51" stop-color="#EFCB1B"/>
<stop offset="0.64" stop-color="#F8DB33"/>
<stop offset="0.77" stop-color="#FDE542"/>
<stop offset="0.87" stop-color="#FFE947"/>
<stop offset="1" stop-color="#FFEC63"/>
</linearGradient>
<linearGradient id="paint25_linear_184_12260" x1="79.332" y1="45.8974" x2="77.2977" y2="49.3518" gradientUnits="userSpaceOnUse">
<stop stop-color="#FFD08D"/>
<stop offset="0.58" stop-color="#FFDC2A"/>
<stop offset="0.81" stop-color="#F3C237"/>
<stop offset="1" stop-color="#EBB140"/>
</linearGradient>
<linearGradient id="paint26_linear_184_12260" x1="77.6296" y1="48.81" x2="80.0005" y2="47.028" gradientUnits="userSpaceOnUse">
<stop stop-color="#F0C827"/>
<stop offset="0.08" stop-color="#E9BE25"/>
<stop offset="0.22" stop-color="#E2B424"/>
<stop offset="0.38" stop-color="#EECA46"/>
<stop offset="0.57" stop-color="#FAE168"/>
<stop offset="0.68" stop-color="#FFEA76"/>
<stop offset="0.74" stop-color="#FDE770"/>
<stop offset="0.82" stop-color="#FBE161"/>
<stop offset="0.91" stop-color="#F6D647"/>
<stop offset="1" stop-color="#F0C827"/>
</linearGradient>
<linearGradient id="paint27_linear_184_12260" x1="77.6296" y1="48.81" x2="80.0005" y2="47.028" gradientUnits="userSpaceOnUse">
<stop stop-color="#FFD08D"/>
<stop offset="0.58" stop-color="#FFAF2A"/>
<stop offset="0.71" stop-color="#F8A631"/>
<stop offset="1" stop-color="#EC9540"/>
</linearGradient>
<linearGradient id="paint28_linear_184_12260" x1="79.7437" y1="47.7256" x2="79.8362" y2="47.6561" gradientUnits="userSpaceOnUse">
<stop offset="0.04" stop-color="#F8DA36"/>
<stop offset="0.11" stop-color="#F1CD21"/>
<stop offset="0.19" stop-color="#EBC412"/>
<stop offset="0.28" stop-color="#E8BE09"/>
<stop offset="0.42" stop-color="#E8BD07"/>
<stop offset="0.51" stop-color="#EFCB1B"/>
<stop offset="0.64" stop-color="#F8DB33"/>
<stop offset="0.77" stop-color="#FDE542"/>
<stop offset="0.87" stop-color="#FFE947"/>
<stop offset="1" stop-color="#FFEC63"/>
</linearGradient>
<linearGradient id="paint29_linear_184_12260" x1="79.1853" y1="47.6989" x2="79.3886" y2="47.5462" gradientUnits="userSpaceOnUse">
<stop offset="0.04" stop-color="#F8DA36"/>
<stop offset="0.11" stop-color="#F1CD21"/>
<stop offset="0.19" stop-color="#EBC412"/>
<stop offset="0.28" stop-color="#E8BE09"/>
<stop offset="0.42" stop-color="#E8BD07"/>
<stop offset="0.51" stop-color="#EFCB1B"/>
<stop offset="0.64" stop-color="#F8DB33"/>
<stop offset="0.77" stop-color="#FDE542"/>
<stop offset="0.87" stop-color="#FFE947"/>
<stop offset="1" stop-color="#FFEC63"/>
</linearGradient>
<linearGradient id="paint30_linear_184_12260" x1="78.3041" y1="48.2436" x2="78.6472" y2="47.9857" gradientUnits="userSpaceOnUse">
<stop offset="0.04" stop-color="#F8DA36"/>
<stop offset="0.11" stop-color="#F1CD21"/>
<stop offset="0.19" stop-color="#EBC412"/>
<stop offset="0.28" stop-color="#E8BE09"/>
<stop offset="0.42" stop-color="#E8BD07"/>
<stop offset="0.51" stop-color="#EFCB1B"/>
<stop offset="0.64" stop-color="#F8DB33"/>
<stop offset="0.77" stop-color="#FDE542"/>
<stop offset="0.87" stop-color="#FFE947"/>
<stop offset="1" stop-color="#FFEC63"/>
</linearGradient>
<linearGradient id="paint31_linear_184_12260" x1="79.0626" y1="48.0975" x2="79.3175" y2="47.906" gradientUnits="userSpaceOnUse">
<stop offset="0.04" stop-color="#F8DA36"/>
<stop offset="0.11" stop-color="#F1CD21"/>
<stop offset="0.19" stop-color="#EBC412"/>
<stop offset="0.28" stop-color="#E8BE09"/>
<stop offset="0.42" stop-color="#E8BD07"/>
<stop offset="0.51" stop-color="#EFCB1B"/>
<stop offset="0.64" stop-color="#F8DB33"/>
<stop offset="0.77" stop-color="#FDE542"/>
<stop offset="0.87" stop-color="#FFE947"/>
<stop offset="1" stop-color="#FFEC63"/>
</linearGradient>
<linearGradient id="paint32_linear_184_12260" x1="77.8335" y1="48.3645" x2="77.9744" y2="48.2586" gradientUnits="userSpaceOnUse">
<stop offset="0.04" stop-color="#F8DA36"/>
<stop offset="0.11" stop-color="#F1CD21"/>
<stop offset="0.19" stop-color="#EBC412"/>
<stop offset="0.28" stop-color="#E8BE09"/>
<stop offset="0.42" stop-color="#E8BD07"/>
<stop offset="0.51" stop-color="#EFCB1B"/>
<stop offset="0.64" stop-color="#F8DB33"/>
<stop offset="0.77" stop-color="#FDE542"/>
<stop offset="0.87" stop-color="#FFE947"/>
<stop offset="1" stop-color="#FFEC63"/>
</linearGradient>
<linearGradient id="paint33_linear_184_12260" x1="77.8344" y1="47.8473" x2="78.2554" y2="47.5308" gradientUnits="userSpaceOnUse">
<stop offset="0.04" stop-color="#F8DA36"/>
<stop offset="0.11" stop-color="#F1CD21"/>
<stop offset="0.19" stop-color="#EBC412"/>
<stop offset="0.28" stop-color="#E8BE09"/>
<stop offset="0.42" stop-color="#E8BD07"/>
<stop offset="0.51" stop-color="#EFCB1B"/>
<stop offset="0.64" stop-color="#F8DB33"/>
<stop offset="0.77" stop-color="#FDE542"/>
<stop offset="0.87" stop-color="#FFE947"/>
<stop offset="1" stop-color="#FFEC63"/>
</linearGradient>
<linearGradient id="paint34_linear_184_12260" x1="78.6058" y1="47.4954" x2="79.4323" y2="46.8741" gradientUnits="userSpaceOnUse">
<stop offset="0.04" stop-color="#F8DA36"/>
<stop offset="0.11" stop-color="#F1CD21"/>
<stop offset="0.19" stop-color="#EBC412"/>
<stop offset="0.28" stop-color="#E8BE09"/>
<stop offset="0.42" stop-color="#E8BD07"/>
<stop offset="0.51" stop-color="#EFCB1B"/>
<stop offset="0.64" stop-color="#F8DB33"/>
<stop offset="0.77" stop-color="#FDE542"/>
<stop offset="0.87" stop-color="#FFE947"/>
<stop offset="1" stop-color="#FFEC63"/>
</linearGradient>
<linearGradient id="paint35_linear_184_12260" x1="26.3858" y1="39.978" x2="29.056" y2="36.4579" gradientUnits="userSpaceOnUse">
<stop stop-color="#FFD08D"/>
<stop offset="0.58" stop-color="#FFDC2A"/>
<stop offset="0.81" stop-color="#F3C237"/>
<stop offset="1" stop-color="#EBB140"/>
</linearGradient>
<linearGradient id="paint36_linear_184_12260" x1="29.0979" y1="39.4565" x2="26.3711" y2="36.9253" gradientUnits="userSpaceOnUse">
<stop stop-color="#FFAA3F"/>
<stop offset="0.58" stop-color="#FFAF2A"/>
<stop offset="0.71" stop-color="#F8A631"/>
<stop offset="1" stop-color="#EC9540"/>
</linearGradient>
<linearGradient id="paint37_linear_184_12260" x1="27.1529" y1="37.2521" x2="27.0426" y2="37.1497" gradientUnits="userSpaceOnUse">
<stop offset="0.04" stop-color="#F8DA36"/>
<stop offset="0.11" stop-color="#F1CD21"/>
<stop offset="0.19" stop-color="#EBC412"/>
<stop offset="0.28" stop-color="#E8BE09"/>
<stop offset="0.42" stop-color="#E8BD07"/>
<stop offset="0.51" stop-color="#EFCB1B"/>
<stop offset="0.64" stop-color="#F8DB33"/>
<stop offset="0.77" stop-color="#FDE542"/>
<stop offset="0.87" stop-color="#FFE947"/>
<stop offset="1" stop-color="#FFEC63"/>
</linearGradient>
<linearGradient id="paint38_linear_184_12260" x1="27.3857" y1="37.8204" x2="27.1438" y2="37.5959" gradientUnits="userSpaceOnUse">
<stop offset="0.04" stop-color="#F8DA36"/>
<stop offset="0.11" stop-color="#F1CD21"/>
<stop offset="0.19" stop-color="#EBC412"/>
<stop offset="0.28" stop-color="#E8BE09"/>
<stop offset="0.42" stop-color="#E8BD07"/>
<stop offset="0.51" stop-color="#EFCB1B"/>
<stop offset="0.64" stop-color="#F8DB33"/>
<stop offset="0.77" stop-color="#FDE542"/>
<stop offset="0.87" stop-color="#FFE947"/>
<stop offset="1" stop-color="#FFEC63"/>
</linearGradient>
<linearGradient id="paint39_linear_184_12260" x1="28.3177" y1="38.7791" x2="27.9104" y2="38.4011" gradientUnits="userSpaceOnUse">
<stop offset="0.04" stop-color="#F8DA36"/>
<stop offset="0.11" stop-color="#F1CD21"/>
<stop offset="0.19" stop-color="#EBC412"/>
<stop offset="0.28" stop-color="#E8BE09"/>
<stop offset="0.42" stop-color="#E8BD07"/>
<stop offset="0.51" stop-color="#EFCB1B"/>
<stop offset="0.64" stop-color="#F8DB33"/>
<stop offset="0.77" stop-color="#FDE542"/>
<stop offset="0.87" stop-color="#FFE947"/>
<stop offset="1" stop-color="#FFEC63"/>
</linearGradient>
<linearGradient id="paint40_linear_184_12260" x1="27.8261" y1="37.9869" x2="27.5241" y2="37.7065" gradientUnits="userSpaceOnUse">
<stop offset="0.04" stop-color="#F8DA36"/>
<stop offset="0.11" stop-color="#F1CD21"/>
<stop offset="0.19" stop-color="#EBC412"/>
<stop offset="0.28" stop-color="#E8BE09"/>
<stop offset="0.42" stop-color="#E8BD07"/>
<stop offset="0.51" stop-color="#EFCB1B"/>
<stop offset="0.64" stop-color="#F8DB33"/>
<stop offset="0.77" stop-color="#FDE542"/>
<stop offset="0.87" stop-color="#FFE947"/>
<stop offset="1" stop-color="#FFEC63"/>
</linearGradient>
<linearGradient id="paint41_linear_184_12260" x1="28.6518" y1="39.2736" x2="28.4851" y2="39.1189" gradientUnits="userSpaceOnUse">
<stop offset="0.04" stop-color="#F8DA36"/>
<stop offset="0.11" stop-color="#F1CD21"/>
<stop offset="0.19" stop-color="#EBC412"/>
<stop offset="0.28" stop-color="#E8BE09"/>
<stop offset="0.42" stop-color="#E8BD07"/>
<stop offset="0.51" stop-color="#EFCB1B"/>
<stop offset="0.64" stop-color="#F8DB33"/>
<stop offset="0.77" stop-color="#FDE542"/>
<stop offset="0.87" stop-color="#FFE947"/>
<stop offset="1" stop-color="#FFEC63"/>
</linearGradient>
<linearGradient id="paint42_linear_184_12260" x1="28.1539" y1="39.2172" x2="27.6539" y2="38.753" gradientUnits="userSpaceOnUse">
<stop offset="0.04" stop-color="#F8DA36"/>
<stop offset="0.11" stop-color="#F1CD21"/>
<stop offset="0.19" stop-color="#EBC412"/>
<stop offset="0.28" stop-color="#E8BE09"/>
<stop offset="0.42" stop-color="#E8BD07"/>
<stop offset="0.51" stop-color="#EFCB1B"/>
<stop offset="0.64" stop-color="#F8DB33"/>
<stop offset="0.77" stop-color="#FDE542"/>
<stop offset="0.87" stop-color="#FFE947"/>
<stop offset="1" stop-color="#FFEC63"/>
</linearGradient>
<linearGradient id="paint43_linear_184_12260" x1="27.4578" y1="38.3914" x2="26.4766" y2="37.4806" gradientUnits="userSpaceOnUse">
<stop offset="0.04" stop-color="#F8DA36"/>
<stop offset="0.11" stop-color="#F1CD21"/>
<stop offset="0.19" stop-color="#EBC412"/>
<stop offset="0.28" stop-color="#E8BE09"/>
<stop offset="0.42" stop-color="#E8BD07"/>
<stop offset="0.51" stop-color="#EFCB1B"/>
<stop offset="0.64" stop-color="#F8DB33"/>
<stop offset="0.77" stop-color="#FDE542"/>
<stop offset="0.87" stop-color="#FFE947"/>
<stop offset="1" stop-color="#FFEC63"/>
</linearGradient>
<linearGradient id="paint44_linear_184_12260" x1="14.7791" y1="24.2693" x2="21.3989" y2="26.5153" gradientUnits="userSpaceOnUse">
<stop stop-color="#FA6045"/>
<stop offset="1" stop-color="#C9290C"/>
</linearGradient>
<linearGradient id="paint45_linear_184_12260" x1="73.5063" y1="27.7951" x2="65.5923" y2="30.6749" gradientUnits="userSpaceOnUse">
<stop stop-color="#FFCA7D"/>
<stop offset="1" stop-color="#FFA422"/>
</linearGradient>
</defs>
</svg>
