<svg width="264" height="398" viewBox="0 0 264 398" fill="none" xmlns="http://www.w3.org/2000/svg">
<g filter="url(#filter0_df_673_8097)">
<path d="M254.539 334.505C248.18 318.7 222.099 309.008 192.344 312.391C162.589 315.774 139.356 331.067 136.704 347.889L135.935 347.639L136.378 351.207C138.534 370.08 166.985 382.368 199.932 378.609C232.873 374.868 257.826 356.527 255.692 337.641L255.254 334.056L254.562 334.493L254.539 334.505Z" fill="#A249FB"/>
<path d="M254.656 328.845C254.789 329.948 254.912 330.4 254.98 331.257C255.003 331.587 255.286 333.664 255.249 334.073C253.315 351.265 229.311 367.487 199.024 370.933C168.031 374.45 141.171 363.439 135.958 347.626C135.958 347.626 135.492 343.518 135.382 342.403C133.23 323.512 158.201 305.177 191.142 301.435C224.084 297.694 252.54 309.964 254.679 328.832L254.656 328.845Z" fill="#A249FB"/>
<path d="M254.56 328.019C256.716 346.892 231.741 365.245 198.799 368.986C165.857 372.728 137.402 360.458 135.263 341.59C133.106 322.717 158.082 304.364 191.023 300.622C223.965 296.881 252.421 309.151 254.56 328.019Z" fill="#E0C4FF"/>
<path d="M245.134 329.092C246.949 344.995 225.923 360.441 198.18 363.579C170.432 366.736 146.493 356.397 144.678 340.494C142.863 324.59 163.889 309.145 191.632 306.006C219.38 302.85 243.337 313.193 245.134 329.092Z" fill="url(#paint0_linear_673_8097)"/>
<path d="M245.134 329.092C246.949 344.995 225.923 360.441 198.18 363.579C170.432 366.736 146.493 356.397 144.678 340.494C142.863 324.59 163.889 309.145 191.632 306.006C219.38 302.85 243.337 313.193 245.134 329.092Z" fill="url(#paint1_linear_673_8097)"/>
<g style="mix-blend-mode:screen" opacity="0.3">
<path d="M198.197 363.584C170.512 366.72 146.593 356.445 144.706 340.597C144.696 340.633 144.709 340.655 144.717 340.695C146.532 356.599 170.476 366.92 198.219 363.781C225.967 360.624 246.993 345.179 245.173 329.293C245.183 329.258 245.17 329.235 245.162 329.195C246.876 345.052 225.882 360.449 198.197 363.584Z" fill="#FEF0A0"/>
</g>
<path opacity="0.4" d="M191.787 307.306C219.28 304.174 242.994 313.879 245.185 329.525C245.166 329.386 245.17 329.235 245.134 329.092C243.336 313.193 219.375 302.868 191.632 306.006C163.883 309.163 142.875 324.613 144.677 340.494C144.696 340.632 144.715 340.771 144.729 340.927C143.347 325.181 164.28 310.415 191.774 307.283L191.787 307.306Z" fill="#D16A0D"/>
<g style="mix-blend-mode:multiply" opacity="0.4">
<path d="M214.013 335.068C212.844 333.851 211.489 332.963 209.907 332.412C208.347 331.848 205.441 331.122 201.229 330.226C196.263 329.16 193.251 328.405 192.215 327.948C191.138 327.499 190.532 326.589 190.366 325.191C190.275 324.347 190.451 323.711 190.891 323.223C191.344 322.757 192.056 322.459 193.021 322.345C194.241 322.205 195.058 322.354 195.488 322.797C195.919 323.239 196.215 324.235 196.39 325.807L195.335 326.315L196.572 327.285L212.592 325.461C212.61 324.704 212.598 324.13 212.562 323.777C212.261 321.143 210.806 319.237 208.166 318.033C205.548 316.815 201.741 316.317 196.743 316.537L196.426 313.688L195.183 312.736L194.529 313.793L189.041 314.544L189.359 317.393C183.982 318.365 180.017 319.746 177.489 321.58C174.948 323.392 173.832 325.635 174.128 328.287C174.346 330.118 175.167 331.697 176.615 333.01C178.062 334.323 179.706 335.272 181.563 335.861C183.416 336.467 186.876 337.327 191.969 338.485C195.018 339.174 196.837 339.904 197.454 340.703C198.054 341.497 198.466 342.905 198.697 344.892C198.785 345.678 198.591 346.31 198.103 346.765C197.615 347.221 196.845 347.523 195.746 347.638C194.485 347.785 193.643 347.591 193.242 347.042C192.841 346.494 192.503 345.029 192.232 342.632L192.107 341.569L191.978 340.449L190.741 339.479L189.298 340.49L175.941 342.268L176.143 344.018C176.589 347.987 178.505 350.572 181.884 351.79C185.259 353.026 189.112 353.499 193.428 353.262L192.587 355.753L193.807 356.718L201.186 355.879L200.796 352.535C206.25 351.489 210.234 349.904 212.782 347.789C215.33 345.675 216.425 343.026 216.062 339.86C215.848 337.878 215.147 336.276 213.973 335.076L214.013 335.068Z" fill="#B061FE"/>
</g>
<path d="M211.349 324.509L195.329 326.333L195.165 324.86C194.99 323.288 194.681 322.27 194.263 321.85C193.833 321.407 193.016 321.258 191.796 321.397C190.813 321.507 190.101 321.806 189.666 322.276C189.231 322.746 189.05 323.4 189.141 324.244C189.307 325.642 189.913 326.552 190.99 327.001C192.031 327.441 195.038 328.213 200.004 329.279C204.234 330.18 207.122 330.901 208.699 331.47C210.264 332.015 211.619 332.904 212.788 334.121C213.957 335.339 214.663 336.923 214.877 338.905C215.24 342.071 214.145 344.72 211.597 346.834C209.049 348.949 205.066 350.534 199.611 351.58L200.001 354.924L192.622 355.763L192.225 352.302C187.922 352.562 184.074 352.071 180.682 350.83C177.307 349.594 175.392 347.009 174.946 343.04L174.738 341.308L190.758 339.484L191.012 341.667C191.283 344.065 191.621 345.529 192.004 346.073C192.405 346.621 193.23 346.811 194.508 346.668C195.59 346.548 196.377 346.251 196.847 345.791C197.335 345.335 197.529 344.703 197.447 343.9C197.215 341.913 196.804 340.505 196.204 339.711C195.604 338.917 193.79 338.169 190.736 337.498C185.656 336.362 182.183 335.48 180.33 334.873C178.478 334.267 176.834 333.318 175.387 332.005C173.939 330.692 173.113 329.131 172.895 327.3C172.599 324.648 173.715 322.405 176.256 320.593C178.796 318.781 182.749 317.378 188.126 316.405L187.803 313.575L195.183 312.736L195.505 315.567C200.48 315.36 204.288 315.858 206.928 317.063C209.551 318.263 211.018 320.191 211.319 322.825C211.368 323.2 211.368 323.753 211.349 324.509V324.509Z" fill="white"/>
<g style="mix-blend-mode:screen" opacity="0.7">
<path style="mix-blend-mode:screen" d="M195.602 315.556L195.592 315.591C199.928 315.417 203.379 315.76 205.933 316.656C203.384 315.743 199.938 315.382 195.602 315.556Z" fill="url(#paint2_linear_673_8097)"/>
<path style="mix-blend-mode:screen" d="M193.744 321.517C193.951 321.593 194.131 321.7 194.244 321.845C194.674 322.287 194.971 323.283 195.146 324.855L195.31 326.328L195.408 326.317L195.252 324.884C195.077 323.312 194.78 322.317 194.332 321.869C194.185 321.714 193.969 321.598 193.726 321.512L193.744 321.517Z" fill="url(#paint3_linear_673_8097)"/>
<path style="mix-blend-mode:screen" d="M196.971 345.825C197.46 345.37 197.653 344.738 197.571 343.934C197.339 341.947 196.928 340.539 196.328 339.745C195.965 339.265 195.161 338.795 193.888 338.368C195.085 338.793 195.854 339.253 196.221 339.716C196.817 340.528 197.232 341.918 197.464 343.905C197.552 344.691 197.358 345.323 196.865 345.796C196.395 346.256 195.607 346.553 194.526 346.673C193.797 346.758 193.214 346.73 192.776 346.59C193.222 346.771 193.841 346.808 194.627 346.721C195.709 346.6 196.496 346.303 196.967 345.843L196.971 345.825Z" fill="url(#paint4_linear_673_8097)"/>
<path style="mix-blend-mode:screen" d="M208.686 331.447C207.127 330.884 204.221 330.158 199.991 329.257C195.584 328.307 192.731 327.596 191.41 327.136C192.673 327.599 195.566 328.302 200.097 329.286C204.239 330.163 207.104 330.896 208.686 331.447V331.447Z" fill="url(#paint5_linear_673_8097)"/>
<path style="mix-blend-mode:screen" d="M192.326 352.35C192.326 352.35 192.268 352.353 192.227 352.361L192.616 355.781L192.714 355.77L192.321 352.368L192.326 352.35Z" fill="url(#paint6_linear_673_8097)"/>
<path style="mix-blend-mode:screen" d="M180.783 350.877C177.408 349.641 175.493 347.056 175.029 343.083L174.84 341.355L190.761 339.542L190.776 339.489L174.738 341.308L174.945 343.04C175.392 347.009 177.307 349.594 180.682 350.83C180.788 350.86 180.907 350.912 181.013 350.941C180.942 350.921 180.854 350.897 180.783 350.877V350.877Z" fill="url(#paint7_linear_673_8097)"/>
<path style="mix-blend-mode:screen" d="M180.052 334.778C178.368 334.18 176.849 333.265 175.506 332.057C174.058 330.744 173.232 329.183 173.019 327.334C172.723 324.682 173.839 322.439 176.362 320.622C178.903 318.81 182.855 317.407 188.232 316.435L187.909 313.604L195.191 312.777L195.2 312.741L187.803 313.575L188.126 316.405C182.749 317.378 178.783 318.758 176.256 320.593C173.715 322.405 172.599 324.648 172.895 327.3C173.095 329.126 173.934 330.709 175.387 332.005C176.76 333.241 178.315 334.165 180.052 334.778Z" fill="url(#paint8_linear_673_8097)"/>
</g>
</g>
<g filter="url(#filter1_f_673_8097)">
<g style="mix-blend-mode:multiply">
<path d="M70.1137 148.26C70.0885 147.505 70.038 146.75 69.9372 146.02C69.8364 145.214 69.7355 144.409 69.5843 143.603C69.4079 142.722 69.2064 141.816 68.9796 140.935C68.7024 139.928 68.3748 138.921 67.9968 137.94C67.5432 136.706 66.9887 135.498 66.3587 134.34C65.3256 132.402 64.1161 130.564 62.6797 128.827C61.7725 127.745 60.7897 126.688 59.7313 125.706C58.6729 124.724 57.5391 123.818 56.4051 122.988L55.4727 122.132L55.3466 122.258L54.4395 123.239L53.4065 124.372L52.3733 125.505L51.34 126.637L50.3067 127.77L49.2738 128.903L48.2153 130.036L47.182 131.168L46.1238 132.301L45.0906 133.434L44.0321 134.567L42.9991 135.699L41.9659 136.832L40.9326 137.965L39.8744 139.097L38.8412 140.23L37.8079 141.363L36.7494 142.496L35.7165 143.628L34.658 144.761L33.6247 145.894L32.5918 147.026L31.5585 148.159L30.5 149.292L29.4671 150.425L28.4086 151.557L27.3753 152.69L26.3421 153.823L25.3091 154.955L24.2506 156.088L23.2173 157.221L22.1844 158.354L21.1259 159.486L20.0926 160.619L19.0597 161.752L18.0012 162.885L16.9679 164.017L15.935 165.15L14.9017 166.283L13.8685 167.415L12.8352 168.548L11.9281 169.53L11.8022 169.681L12.7346 170.537C13.6418 171.619 14.6244 172.676 15.6827 173.658C16.7411 174.64 17.8501 175.546 19.0092 176.376C20.8488 177.685 22.7889 178.768 24.7797 179.649C25.9893 180.177 27.2495 180.63 28.5095 181.008C29.5175 181.31 30.5506 181.562 31.5837 181.763C32.4657 181.939 33.3728 182.065 34.2799 182.166C35.0863 182.267 35.9181 182.317 36.7245 182.342C37.4805 182.367 38.2362 182.342 38.967 182.342C39.6726 182.317 40.3784 182.267 41.084 182.191C41.7391 182.116 42.3941 182.04 43.0493 181.939C43.6793 181.839 44.3095 181.713 44.9143 181.587C45.5191 181.461 46.0986 181.31 46.6782 181.134C47.2577 180.983 47.8122 180.807 48.3666 180.605C48.8958 180.429 49.4499 180.228 49.9791 180.001C50.4831 179.8 51.0126 179.573 51.5166 179.322C52.0205 179.095 52.4992 178.843 52.978 178.592C53.4568 178.34 53.9102 178.088 54.389 177.811C54.8426 177.534 55.2963 177.257 55.7247 176.955C56.1531 176.679 56.5815 176.376 57.0099 176.049C57.4382 175.747 57.8414 175.42 58.2446 175.093C58.6478 174.765 59.0257 174.438 59.4289 174.086C59.8069 173.759 60.1851 173.406 60.5631 173.029C60.9159 172.676 61.2937 172.299 61.6465 171.921C61.9993 171.544 62.3269 171.166 62.6545 170.763C62.9821 170.36 63.3097 169.983 63.6121 169.555C63.9397 169.152 64.242 168.724 64.5192 168.322C64.8216 167.894 65.099 167.466 65.3762 167.013C65.6534 166.56 65.9305 166.106 66.1825 165.653C66.4345 165.2 66.6866 164.722 66.9134 164.244C67.1654 163.765 67.3922 163.262 67.5938 162.784C67.8206 162.28 68.0222 161.777 68.2238 161.273C68.4254 160.745 68.6017 160.216 68.7781 159.688C68.9545 159.134 69.1055 158.58 69.2567 158.026C69.4079 157.447 69.534 156.868 69.66 156.315C69.786 155.711 69.8868 155.106 69.9624 154.502C70.0632 153.873 70.1387 153.244 70.1891 152.614C70.2395 151.96 70.29 151.28 70.3152 150.626C70.3152 149.921 70.3152 149.216 70.3152 148.512L70.1137 148.26Z" fill="#A249FB"/>
</g>
<path d="M23.9226 118.557C40.4786 111.585 59.5798 119.363 66.5349 135.901C73.5151 152.438 65.7285 171.518 49.1724 178.466C32.6164 185.438 13.5152 177.66 6.56014 161.122C-0.420095 144.585 7.36656 125.505 23.9226 118.557Z" fill="url(#paint9_linear_673_8097)"/>
<path d="M55.1702 128.45C66.2579 138.745 66.9129 156.063 56.6064 167.138C46.2998 178.214 28.9626 178.868 17.8749 168.573C6.78714 158.278 6.13209 140.96 16.4387 129.885C26.7452 118.809 44.0824 118.155 55.1702 128.45Z" fill="url(#paint10_linear_673_8097)"/>
<path d="M45.4928 143.049C44.1573 142.571 42.9476 142.369 41.8892 142.495C40.8056 142.596 39.0417 142.999 36.5469 143.729C33.5986 144.559 31.7592 144.987 31.0032 145.012C30.222 145.037 29.3399 144.584 28.3319 143.653C27.7271 143.099 27.3745 142.571 27.2485 142.092C27.1225 141.614 27.2482 141.186 27.601 140.783C28.0546 140.305 28.5335 140.129 29.0123 140.305C29.4911 140.481 30.2974 141.085 31.4314 142.143L31.8599 142.545L31.5575 142.873L32.4899 143.124L38.4369 136.731C37.9329 136.177 37.555 135.799 37.2778 135.548C35.3879 133.786 33.4474 132.905 31.4566 132.905C29.4658 132.905 27.4249 133.761 25.3585 135.497L23.3172 133.61L22.3849 133.358L23.0149 133.937L20.5706 136.555L22.6116 138.442C20.8476 140.834 20.016 143.099 20.0916 145.189C20.1672 147.278 21.1754 149.216 23.0905 150.978C24.4009 152.211 25.8371 153.042 27.3491 153.495C28.861 153.948 30.2471 154.099 31.4818 153.923C32.7166 153.747 34.8334 153.269 37.8826 152.438C39.6969 151.934 41.0071 151.884 41.8135 152.262C42.6199 152.639 43.7289 153.495 45.1652 154.829C45.7448 155.358 46.0725 155.861 46.1733 156.339C46.2741 156.818 46.1227 157.271 45.7196 157.699C45.2408 158.202 44.7368 158.328 44.2077 158.076C43.6785 157.825 42.5446 156.893 40.8058 155.307L40.0497 154.603L39.2434 153.848L38.3108 153.596L38.9408 154.175L33.2961 160.241L34.5561 161.399C37.4036 164.042 39.9994 165.25 42.3429 165.049C44.6865 164.822 46.7275 163.941 48.4914 162.406L50.3562 164.117L50.0538 164.445L50.9862 164.696L53.7331 161.751L51.3138 159.511C53.0525 157.019 53.7833 154.628 53.5061 152.337C53.2289 150.047 51.9437 147.831 49.6505 145.717C48.2141 144.383 46.8284 143.502 45.5181 143.024L45.4928 143.049Z" fill="#B061FE"/>
<path d="M37.5049 136.479L31.5579 142.873L30.4994 141.891C29.3654 140.834 28.5592 140.23 28.0804 140.054C27.6016 139.878 27.1226 140.054 26.6691 140.532C26.3163 140.91 26.1905 141.363 26.2913 141.816C26.4173 142.294 26.7699 142.797 27.3747 143.376C28.3827 144.308 29.2648 144.761 30.046 144.736C30.802 144.736 32.6666 144.283 35.5897 143.452C38.0845 142.747 39.8736 142.319 40.932 142.218C42.0156 142.118 43.2001 142.294 44.5357 142.772C45.8712 143.25 47.2572 144.157 48.6684 145.466C50.9616 147.58 52.2465 149.795 52.5237 152.086C52.8009 154.402 52.0701 156.793 50.3313 159.26L52.7507 161.5L50.0037 164.445L47.509 162.129C45.7451 163.69 43.7041 164.571 41.3605 164.772C39.017 164.974 36.4215 163.765 33.574 161.122L32.314 159.964L38.261 153.571L39.8234 155.031C41.5369 156.617 42.6709 157.548 43.2252 157.8C43.7544 158.051 44.2584 157.926 44.7371 157.422C45.1403 156.994 45.2917 156.541 45.1909 156.063C45.0901 155.585 44.7624 155.081 44.1828 154.553C42.7465 153.218 41.6126 152.363 40.8062 151.985C39.9998 151.607 38.6893 151.683 36.8749 152.161C33.8258 152.992 31.709 153.47 30.4742 153.646C29.2394 153.823 27.8786 153.646 26.3414 153.218C24.8295 152.765 23.3933 151.91 22.0829 150.701C20.1677 148.939 19.1599 147.001 19.0843 144.912C19.0087 142.823 19.8403 140.582 21.6043 138.166L19.563 136.278L22.3096 133.333L24.3509 135.221C26.4425 133.484 28.4834 132.628 30.4742 132.628C32.4649 132.628 34.4054 133.534 36.2954 135.271C36.5474 135.523 36.9505 135.9 37.4545 136.454L37.5049 136.479Z" fill="white"/>
<g style="mix-blend-mode:screen" opacity="0.7">
<path style="mix-blend-mode:screen" d="M24.4512 135.196H24.4764C26.2908 133.711 28.055 132.855 29.7938 132.679C28.055 132.855 26.2658 133.685 24.4263 135.196H24.4512Z" fill="url(#paint11_linear_673_8097)"/>
<path style="mix-blend-mode:screen" d="M27.6016 140.003C27.7528 140.003 27.9041 140.003 28.0553 140.079C28.5341 140.255 29.3404 140.859 30.4743 141.916L31.5328 142.898V142.848L30.55 141.891C29.416 140.834 28.6097 140.23 28.131 140.054C27.9546 140.003 27.778 139.978 27.6268 140.003H27.6016Z" fill="url(#paint12_linear_673_8097)"/>
<path style="mix-blend-mode:screen" d="M45.3418 156.088C45.241 155.61 44.9134 155.106 44.3338 154.578C42.8974 153.244 41.7636 152.388 40.9824 152.01C40.5036 151.784 39.8231 151.708 38.9663 151.809C39.7979 151.733 40.4279 151.809 40.9067 152.01C41.7131 152.388 42.8473 153.244 44.2837 154.578C44.8632 155.106 45.1906 155.61 45.2914 156.088C45.3922 156.566 45.2412 157.019 44.838 157.447C44.5608 157.724 44.2834 157.9 44.0062 157.951C44.3338 157.951 44.6364 157.749 44.9136 157.447C45.3168 157.019 45.4679 156.566 45.3671 156.088H45.3418Z" fill="url(#paint13_linear_673_8097)"/>
<path style="mix-blend-mode:screen" d="M40.9572 142.219C39.8736 142.319 38.1096 142.722 35.6149 143.452C33.0194 144.182 31.2555 144.61 30.3735 144.711C31.2555 144.635 33.0194 144.207 35.6906 143.452C38.1349 142.747 39.8988 142.344 40.9824 142.219H40.9572Z" fill="url(#paint14_linear_673_8097)"/>
<path style="mix-blend-mode:screen" d="M47.6098 162.154H47.5593L50.0288 164.47V164.42L47.6098 162.154V162.154Z" fill="url(#paint15_linear_673_8097)"/>
<path style="mix-blend-mode:screen" d="M41.4859 164.822C39.1424 165.024 36.5469 163.815 33.6994 161.172L32.4394 160.015L38.336 153.646H38.3108L32.3638 160.015L33.6237 161.172C36.4713 163.815 39.067 165.024 41.4106 164.822C41.4862 164.822 41.5617 164.822 41.6373 164.822C41.5869 164.822 41.5363 164.822 41.4859 164.822Z" fill="url(#paint16_linear_673_8097)"/>
<path style="mix-blend-mode:screen" d="M30.3736 153.697C29.2144 153.823 27.9292 153.646 26.518 153.244C25.0061 152.791 23.5695 151.935 22.2592 150.726C20.344 148.964 19.3362 147.026 19.2606 144.937C19.185 142.848 20.0166 140.608 21.7805 138.191L19.7392 136.303L22.4357 133.408H22.4105L19.6638 136.328L21.7048 138.216C19.9409 140.608 19.1093 142.873 19.1849 144.962C19.2605 147.051 20.2686 148.99 22.1838 150.752C23.4942 151.985 24.9304 152.816 26.4423 153.269C27.8787 153.697 29.1892 153.848 30.3736 153.722V153.697Z" fill="url(#paint17_linear_673_8097)"/>
</g>
</g>
<g style="mix-blend-mode:multiply">
<path d="M104.491 41.1464C104.673 40.5871 104.837 40.0211 104.957 39.4602C105.098 38.8441 105.238 38.2279 105.342 37.5984C105.447 36.9069 105.54 36.1904 105.609 35.4855C105.673 34.6752 105.701 33.8515 105.686 33.0329C105.682 32.01 105.597 30.9788 105.444 29.9644C105.204 28.272 104.807 26.6066 104.218 24.9546C103.842 23.9219 103.404 22.8874 102.891 21.8883C102.377 20.8892 101.788 19.9253 101.179 19.0166L100.725 18.143L100.599 18.2016L99.6742 18.6793L98.6172 19.2341L97.5599 19.7888L96.5026 20.3435L95.4454 20.8982L94.3883 21.4531L93.3126 22.0011L92.2553 22.5558L91.1798 23.1039L90.1225 23.6586L89.0468 24.2067L87.9898 24.7615L86.9325 25.3162L85.8752 25.8709L84.7997 26.419L83.7425 26.9738L82.6852 27.5285L81.6095 28.0765L80.5524 28.6313L79.4767 29.1793L78.4194 29.7341L77.3624 30.2888L76.3051 30.8436L75.2294 31.3916L74.1724 31.9464L73.0966 32.4945L72.0394 33.0492L70.9821 33.6039L69.9251 34.1587L68.8493 34.7067L67.792 35.2615L66.735 35.8162L65.6593 36.3643L64.602 36.919L63.545 37.4738L62.4692 38.0219L61.412 38.5765L60.3549 39.1314L59.2977 39.6861L58.2404 40.2408L57.1831 40.7955L56.2583 41.2732L56.1261 41.3503L56.5808 42.2239C56.9568 43.2566 57.3947 44.291 57.9081 45.2901C58.4215 46.2892 58.992 47.2465 59.6194 48.1619C60.6174 49.6077 61.7493 50.9145 62.9718 52.0873C63.7163 52.7951 64.518 53.4609 65.3396 54.0715C65.9968 54.5599 66.6859 55.0183 67.3883 55.4397C67.9869 55.8027 68.6171 56.1354 69.2542 56.4498C69.8174 56.7374 70.4127 56.9949 70.9961 57.2272C71.5426 57.4462 72.1023 57.6283 72.637 57.8222C73.16 57.991 73.6899 58.1414 74.2263 58.2733C74.7258 58.3919 75.2251 58.5104 75.7313 58.6105C76.2191 58.704 76.7137 58.7792 77.1897 58.8475C77.6657 58.9159 78.1299 58.9591 78.6009 58.9839C79.0651 59.0272 79.5177 59.0453 79.977 59.0451C80.411 59.0565 80.87 59.0562 81.3175 59.0308C81.7398 59.0172 82.1875 58.9919 82.6232 58.9415C83.0522 58.9094 83.4695 58.8522 83.8867 58.795C84.304 58.7379 84.7027 58.674 85.1267 58.5984C85.5322 58.5161 85.9378 58.4339 86.3316 58.3265C86.7187 58.2376 87.1125 58.1302 87.513 58.0044C87.9068 57.897 88.2888 57.7645 88.6709 57.632C89.0529 57.4996 89.4164 57.3604 89.8052 57.2095C90.1688 57.0703 90.5392 56.9128 90.9162 56.7368C91.268 56.5726 91.6449 56.3965 92.0035 56.2138C92.362 56.0311 92.7021 55.8418 93.049 55.634C93.3958 55.4262 93.7359 55.2368 94.0709 55.0039C94.4177 54.7961 94.7528 54.5632 95.0627 54.3421C95.3977 54.1092 95.7145 53.8696 96.0378 53.6116C96.3611 53.3536 96.6844 53.0956 96.9892 52.8309C97.2941 52.5662 97.6057 52.2831 97.8989 51.9933C98.2104 51.7102 98.5103 51.4021 98.7849 51.1056C99.0848 50.7974 99.3661 50.4825 99.6475 50.1676C99.9356 49.8343 100.205 49.4942 100.475 49.1542C100.751 48.7958 101.009 48.4307 101.267 48.0656C101.531 47.682 101.778 47.2919 102.017 46.9201C102.27 46.5114 102.504 46.0961 102.72 45.6741C102.961 45.2404 103.184 44.7999 103.388 44.3528C103.599 43.8873 103.817 43.4034 104.009 42.9312C104.196 42.4155 104.384 41.8997 104.571 41.384L104.491 41.1464Z" fill="#A249FB"/>
</g>
<path d="M78.5886 7.15695C92.5573 6.44736 104.466 17.2066 105.158 31.1532C105.869 45.1064 95.0975 57.0022 81.1355 57.6934C67.1668 58.403 55.2578 47.6437 54.5658 33.6971C53.8554 19.7439 64.6266 7.84813 78.5886 7.15695Z" fill="url(#paint18_linear_673_8097)"/>
<path d="M98.8233 22.6858C104.199 33.1609 100.074 46.007 89.5869 51.3769C79.1003 56.7469 66.2399 52.626 60.864 42.1509C55.4881 31.6758 59.6136 18.8298 70.1003 13.4598C80.587 8.08987 93.4474 12.2107 98.8233 22.6858Z" fill="url(#paint19_linear_673_8097)"/>
<path d="M87.8605 30.8013C87.0104 30.097 86.1788 29.6287 85.3709 29.44C84.5512 29.2262 83.1533 29.0528 81.1337 28.9251C78.7555 28.7507 77.2957 28.5758 76.7358 28.3937C76.1575 28.2049 75.6325 27.6393 75.1425 26.6903C74.8472 26.1247 74.7298 25.6443 74.7647 25.2609C74.7997 24.8775 75.0055 24.5978 75.3707 24.3967C75.8298 24.1671 76.2271 24.1652 76.5306 24.4211C76.8341 24.6771 77.2635 25.333 77.8121 26.4075L78.0186 26.8159L77.7103 26.9751L78.3256 27.4067L84.3774 24.3061C84.1558 23.7671 83.9797 23.3906 83.8438 23.1328C82.9294 21.3421 81.7437 20.1826 80.287 19.6544C78.8302 19.1263 77.1092 19.211 75.1354 19.9337L74.1436 18.0107L73.5283 17.5791L73.8354 18.1699L71.3507 19.437L72.3422 21.3599C70.4156 22.6417 69.2047 24.0789 68.7045 25.6277C68.2043 27.1765 68.4267 28.8622 69.3595 30.6597C69.9904 31.9099 70.8205 32.8988 71.8064 33.6314C72.7923 34.3641 73.7663 34.8424 74.7167 35.041C75.6671 35.2397 77.3432 35.4513 79.7953 35.6525C81.2568 35.7654 82.2289 36.0763 82.7186 36.5665C83.2082 37.0567 83.7922 37.9772 84.4885 39.3345C84.772 39.875 84.8779 40.3303 84.8245 40.707C84.7711 41.0838 84.5399 41.3752 84.1311 41.5813C83.6469 41.8227 83.2446 41.7811 82.9243 41.4565C82.6041 41.1319 82.022 40.1495 81.1713 38.5278L80.8054 37.8115L80.4163 37.045L79.8007 36.6134L80.1078 37.2041L74.3643 40.1455L74.9784 41.3271C76.3593 44.0166 77.9375 45.5894 79.7059 46.0638C81.481 46.5198 83.2087 46.4166 84.9078 45.7611L85.8171 47.5083L85.5089 47.6675L86.1242 48.0991L88.9173 46.6728L87.7427 44.3917C89.6776 43.0295 90.8482 41.4736 91.2544 39.7239C91.6607 37.9742 91.3092 36.0123 90.1934 33.8568C89.4971 32.4995 88.7174 31.4871 87.8857 30.7895L87.8605 30.8013Z" fill="#B061FE"/>
<path d="M83.762 23.8747L77.7103 26.9753L77.1968 25.9762C76.6481 24.9017 76.2187 24.2458 75.9152 23.9898C75.6117 23.7338 75.2144 23.7357 74.7554 23.9653C74.3968 24.148 74.1843 24.4462 74.1376 24.8045C74.1026 25.1879 74.2268 25.6498 74.5154 26.2339C75.0053 27.1828 75.5304 27.7484 76.1087 27.9372C76.6619 28.1378 78.1467 28.301 80.5066 28.4687C82.5195 28.6148 83.9425 28.7764 84.7437 28.9835C85.5634 29.1973 86.3833 29.6405 87.2334 30.3448C88.0835 31.0491 88.8568 32.0799 89.5413 33.4121C90.6571 35.5677 91.0084 37.5295 90.6021 39.2792C90.1892 41.0473 89.0186 42.6032 87.0904 43.9469L88.265 46.2281L85.4719 47.6543L84.2622 45.2979C82.5564 45.9719 80.8287 46.0751 79.0603 45.6007C77.2919 45.1263 75.7139 43.5535 74.333 40.864L73.7189 39.6825L79.7707 36.5818L80.5257 38.0647C81.3579 39.6797 81.94 40.662 82.2788 40.9933C82.5991 41.3179 83.0013 41.3595 83.4855 41.1181C83.8943 40.912 84.1255 40.6206 84.1789 40.2439C84.2323 39.8672 84.1264 39.4119 83.8429 38.8713C83.1465 37.514 82.5444 36.5869 82.0547 36.0967C81.5651 35.6065 80.586 35.314 79.1312 35.1826C76.6792 34.9815 75.003 34.7698 74.0526 34.5712C73.1023 34.3725 72.1533 33.8826 71.1423 33.1616C70.1564 32.4289 69.3331 31.4216 68.6955 30.1899C67.7626 28.3924 67.5405 26.7067 68.0407 25.1579C68.5409 23.6091 69.7451 22.1904 71.6784 20.8902L70.6867 18.9672L73.4796 17.5408L74.4713 19.4638C76.4636 18.7478 78.1846 18.6631 79.6414 19.1913C81.0981 19.7194 82.2771 20.8974 83.1982 22.6697C83.3157 22.9208 83.5102 23.304 83.7318 23.8429L83.762 23.8747Z" fill="white"/>
<g style="mix-blend-mode:screen" opacity="0.7">
<path style="mix-blend-mode:screen" d="M74.5513 19.4722L74.5698 19.4789C76.2923 18.8735 77.8108 18.7153 79.13 19.0477C77.8108 18.7153 76.2807 18.8485 74.5331 19.4656L74.5513 19.4722Z" fill="url(#paint20_linear_673_8097)"/>
<path style="mix-blend-mode:screen" d="M75.5782 23.8258C75.6888 23.8659 75.7996 23.9061 75.8901 24.0015C76.1936 24.2574 76.623 24.9134 77.1716 25.9878L77.6851 26.987L77.6985 26.9501L77.2337 25.9895C76.685 24.9151 76.2557 24.2591 75.9522 24.0031C75.8365 23.9195 75.714 23.8542 75.5966 23.8325L75.5782 23.8258Z" fill="url(#paint21_linear_673_8097)"/>
<path style="mix-blend-mode:screen" d="M84.2826 40.3024C84.336 39.9257 84.2301 39.4704 83.9466 38.9298C83.2503 37.5725 82.6481 36.6455 82.1769 36.1619C81.8868 35.8691 81.4089 35.6333 80.7552 35.4796C81.3838 35.645 81.8247 35.8675 82.1215 36.1418C82.6112 36.6321 83.2136 37.5592 83.9099 38.9165C84.1934 39.4571 84.2991 39.9123 84.2457 40.289C84.1923 40.6657 83.9613 40.9572 83.5525 41.1634C83.276 41.2924 83.0262 41.3477 82.81 41.311C83.0497 41.3979 83.3247 41.3309 83.6079 41.1834C84.0167 40.9773 84.2477 40.6858 84.3011 40.3091L84.2826 40.3024Z" fill="url(#paint22_linear_673_8097)"/>
<path style="mix-blend-mode:screen" d="M84.7623 28.9903C83.9426 28.7765 82.5448 28.6032 80.5252 28.4755C78.4318 28.321 77.0273 28.1662 76.3552 28.0058C77.0207 28.1846 78.4252 28.3394 80.5805 28.4955C82.5566 28.6283 83.9544 28.8016 84.7808 28.997L84.7623 28.9903Z" fill="url(#paint23_linear_673_8097)"/>
<path style="mix-blend-mode:screen" d="M84.3294 45.343L84.2925 45.3297L85.4837 47.6794L85.4971 47.6425L84.3294 45.343V45.343Z" fill="url(#paint24_linear_673_8097)"/>
<path style="mix-blend-mode:screen" d="M79.1389 45.6707C77.3705 45.1963 75.7926 43.6236 74.4117 40.9341L73.7976 39.7525L79.8057 36.6569L79.7872 36.6503L73.7422 39.7325L74.3563 40.914C75.7372 43.6035 77.3153 45.1763 79.0837 45.6507C79.1391 45.6708 79.1943 45.6908 79.2496 45.7109C79.2128 45.6975 79.1758 45.6841 79.1389 45.6707Z" fill="url(#paint25_linear_673_8097)"/>
<path style="mix-blend-mode:screen" d="M73.9658 34.5813C73.0841 34.3658 72.1905 33.8959 71.2649 33.2268C70.279 32.4941 69.4554 31.4868 68.8179 30.255C67.885 28.4576 67.6629 26.7719 68.1631 25.2231C68.6633 23.6742 69.8675 22.2556 71.8008 20.9554L70.809 19.0324L73.5519 17.6295L73.5334 17.6228L70.7472 19.0307L71.7387 20.9537C69.8121 22.2355 68.6012 23.6726 68.101 25.2214C67.6008 26.7703 67.8231 28.456 68.756 30.2534C69.3869 31.5036 70.217 32.4925 71.2029 33.2252C72.1401 33.9194 73.0589 34.3776 73.9591 34.5997L73.9658 34.5813Z" fill="url(#paint26_linear_673_8097)"/>
</g>
<g filter="url(#filter2_f_673_8097)">
<path d="M80.1137 277.577C77.1769 273.731 69.3053 273.049 61.418 276.222C53.5308 279.395 48.33 285.336 48.8777 290.14L48.6482 290.129L49.0394 291.072C51.0582 296.075 59.7748 297.289 68.5072 293.772C77.2395 290.26 82.6803 283.355 80.6667 278.348L80.2755 277.4L80.119 277.572L80.1137 277.577Z" fill="#A249FB"/>
<path d="M79.717 276.019C79.837 276.311 79.9048 276.425 79.9882 276.655C80.0195 276.743 80.2543 277.29 80.2752 277.405C81.0472 282.256 75.7056 288.509 67.6774 291.74C59.4615 295.043 51.277 294.058 48.6531 290.124C48.6531 290.124 48.2149 289.035 48.1001 288.738C46.0814 283.731 51.5274 276.827 60.2597 273.315C68.992 269.803 77.7086 271.011 79.7222 276.014L79.717 276.019Z" fill="#A249FB"/>
<path d="M79.6285 275.8C81.6472 280.802 76.2012 287.711 67.4689 291.223C58.7366 294.735 50.0199 293.527 48.0064 288.524C45.9876 283.522 51.4335 276.613 60.1659 273.101C68.8982 269.589 77.6149 270.798 79.6285 275.8Z" fill="#E0C4FF"/>
<path d="M77.1299 276.806C78.8305 281.021 74.2453 286.836 66.8901 289.791C59.5349 292.75 52.2006 291.729 50.5 287.514C48.7995 283.298 53.3847 277.483 60.7399 274.529C68.0951 271.569 75.4346 272.59 77.1299 276.806Z" fill="url(#paint27_linear_673_8097)"/>
<path d="M77.1299 276.806C78.8305 281.021 74.2453 286.836 66.8901 289.791C59.5349 292.75 52.2006 291.729 50.5 287.514C48.7995 283.298 53.3847 277.483 60.7399 274.529C68.0951 271.569 75.4346 272.59 77.1299 276.806Z" fill="url(#paint28_linear_673_8097)"/>
<g style="mix-blend-mode:screen" opacity="0.3">
<path d="M66.895 289.791C59.5555 292.74 52.2316 291.734 50.5154 287.54C50.5154 287.55 50.5206 287.555 50.5258 287.566C52.2264 291.781 59.5607 292.797 66.9159 289.843C74.2711 286.883 78.8564 281.068 77.1558 276.858C77.1558 276.847 77.1506 276.842 77.1454 276.832C78.8146 281.042 74.2346 286.841 66.895 289.791Z" fill="#FEF0A0"/>
</g>
<path opacity="0.4" d="M60.8808 274.873C68.1682 271.939 75.3929 272.804 77.177 276.92C77.1613 276.884 77.1509 276.842 77.13 276.806C75.4347 272.59 68.0952 271.574 60.74 274.529C53.3848 277.488 48.8048 283.303 50.5001 287.514C50.5158 287.55 50.5314 287.587 50.5471 287.628C48.9769 283.423 53.5882 277.801 60.8756 274.867L60.8808 274.873Z" fill="#D16A0D"/>
<g style="mix-blend-mode:multiply" opacity="0.4">
<path d="M69.0648 280.792C68.6527 280.547 68.2145 280.406 67.7398 280.375C67.2703 280.339 66.4201 280.359 65.1994 280.432C63.7597 280.516 62.8781 280.537 62.5599 280.49C62.2313 280.448 61.9965 280.245 61.8453 279.875C61.7566 279.651 61.7566 279.463 61.84 279.296C61.9287 279.135 62.1009 278.999 62.3565 278.895C62.6799 278.765 62.9146 278.744 63.0659 278.833C63.2172 278.921 63.3737 279.171 63.5406 279.588L63.2902 279.807L63.7023 279.979L67.9485 278.27C67.8963 278.061 67.8494 277.905 67.8129 277.811C67.5312 277.113 66.9886 276.702 66.1749 276.571C65.3663 276.436 64.2865 276.587 62.9355 277.025L62.633 276.269L62.2208 276.102L62.1217 276.441L60.6768 277.061L60.9793 277.817C59.5813 278.489 58.6006 279.166 58.0477 279.859C57.4895 280.547 57.3539 281.245 57.6356 281.949C57.8338 282.433 58.1781 282.803 58.6736 283.053C59.1692 283.303 59.6908 283.439 60.2438 283.46C60.7967 283.486 61.8087 283.46 63.2902 283.392C64.177 283.35 64.7299 283.413 64.9595 283.585C65.1838 283.757 65.4029 284.111 65.6167 284.637C65.7002 284.846 65.695 285.033 65.5959 285.195C65.4967 285.356 65.309 285.497 65.0168 285.612C64.683 285.747 64.4378 285.758 64.2865 285.638C64.1353 285.518 63.9319 285.143 63.6762 284.507L63.5614 284.226L63.4415 283.929L63.0293 283.757L62.7112 284.142L59.1901 285.638L59.3778 286.102C59.8004 287.154 60.5202 287.717 61.5375 287.795C62.5547 287.878 63.6449 287.717 64.8082 287.326L64.7665 288.071L65.1734 288.243L67.1295 287.456L66.7696 286.571C68.1832 285.872 69.1535 285.138 69.6908 284.366C70.2281 283.595 70.3272 282.788 69.9881 281.949C69.7795 281.422 69.4665 281.037 69.0544 280.797L69.0648 280.792Z" fill="#B061FE"/>
</g>
<path d="M67.5366 278.103L63.2904 279.812L63.134 279.421C62.967 279.005 62.8053 278.749 62.6593 278.666C62.508 278.577 62.2732 278.598 61.9498 278.728C61.689 278.833 61.5169 278.968 61.4334 279.13C61.3499 279.291 61.3499 279.484 61.4386 279.708C61.5899 280.078 61.8246 280.281 62.1533 280.323C62.4715 280.365 63.353 280.349 64.7928 280.266C66.0186 280.193 66.8637 280.172 67.3384 280.208C67.8079 280.24 68.2461 280.38 68.6582 280.625C69.0703 280.87 69.3833 281.25 69.5919 281.777C69.931 282.616 69.8318 283.423 69.2946 284.194C68.7573 284.966 67.787 285.7 66.3734 286.399L66.7333 287.284L64.7772 288.071L64.4068 287.154C63.2487 287.55 62.1585 287.706 61.136 287.623C60.1188 287.54 59.399 286.977 58.9765 285.924L58.7886 285.466L63.0348 283.757L63.2696 284.335C63.5252 284.971 63.7286 285.346 63.8747 285.466C64.0259 285.586 64.2659 285.575 64.605 285.44C64.8919 285.325 65.0849 285.184 65.1788 285.023C65.2779 284.861 65.2831 284.674 65.1997 284.46C64.9858 283.934 64.7667 283.58 64.5424 283.408C64.3181 283.236 63.7652 283.168 62.8784 283.215C61.4021 283.288 60.3849 283.309 59.8319 283.283C59.279 283.257 58.7574 283.121 58.2618 282.871C57.7663 282.621 57.4219 282.256 57.2237 281.771C56.942 281.068 57.0777 280.37 57.6358 279.682C58.194 278.994 59.1694 278.312 60.5675 277.639L60.2649 276.889L62.2211 276.102L62.5236 276.853C63.8695 276.42 64.9493 276.269 65.7631 276.399C66.5716 276.53 67.1193 276.946 67.401 277.645C67.4427 277.744 67.4845 277.895 67.5366 278.103V278.103Z" fill="white"/>
<g style="mix-blend-mode:screen" opacity="0.7">
<path style="mix-blend-mode:screen" d="M62.5496 276.842V276.853C63.7233 276.477 64.6935 276.311 65.4603 276.363C64.6935 276.305 63.7233 276.467 62.5496 276.842Z" fill="url(#paint29_linear_673_8097)"/>
<path style="mix-blend-mode:screen" d="M62.492 278.614C62.5546 278.619 62.6118 278.635 62.6535 278.666C62.8046 278.754 62.961 279.005 63.1277 279.421L63.2841 279.812L63.3101 279.802L63.1589 279.421C62.9922 279.005 62.8359 278.754 62.6796 278.666C62.6275 278.635 62.5598 278.619 62.4868 278.614H62.492Z" fill="url(#paint30_linear_673_8097)"/>
<path style="mix-blend-mode:screen" d="M65.2151 285.023C65.3142 284.861 65.3194 284.674 65.2359 284.46C65.0221 283.934 64.803 283.58 64.5787 283.408C64.443 283.303 64.1874 283.236 63.8066 283.215C64.1666 283.241 64.4117 283.309 64.5473 283.408C64.7716 283.585 64.9907 283.934 65.2046 284.46C65.2881 284.669 65.2828 284.856 65.1837 285.023C65.0898 285.184 64.8968 285.325 64.6099 285.44C64.4169 285.518 64.2552 285.554 64.1248 285.549C64.2605 285.565 64.4326 285.528 64.6413 285.445C64.9282 285.33 65.1212 285.19 65.2151 285.028V285.023Z" fill="url(#paint31_linear_673_8097)"/>
<path style="mix-blend-mode:screen" d="M67.333 280.203C66.8635 280.167 66.0133 280.187 64.7874 280.26C63.5094 280.333 62.6748 280.354 62.2783 280.328C62.6591 280.359 63.5042 280.333 64.8187 280.26C66.0185 280.187 66.8583 280.172 67.333 280.203V280.203Z" fill="url(#paint32_linear_673_8097)"/>
<path style="mix-blend-mode:screen" d="M64.4379 287.159C64.4379 287.159 64.4223 287.164 64.4119 287.17L64.7767 288.076L64.8027 288.066L64.4379 287.164V287.159Z" fill="url(#paint33_linear_673_8097)"/>
<path style="mix-blend-mode:screen" d="M61.1671 287.628C60.1499 287.545 59.43 286.982 59.0022 285.929L58.8197 285.471L63.0397 283.772V283.757L58.7883 285.466L58.9762 285.924C59.3987 286.977 60.1185 287.54 61.1357 287.623C61.167 287.623 61.2036 287.628 61.2349 287.628C61.214 287.628 61.1879 287.628 61.1671 287.628V287.628Z" fill="url(#paint34_linear_673_8097)"/>
<path style="mix-blend-mode:screen" d="M59.7485 283.277C59.2425 283.241 58.7574 283.105 58.2983 282.876C57.8028 282.626 57.4585 282.261 57.2602 281.771C56.9786 281.068 57.1142 280.37 57.6671 279.682C58.2253 278.994 59.2008 278.312 60.5988 277.639L60.2962 276.889L62.2263 276.113V276.102L60.2649 276.889L60.5675 277.639C59.1694 278.312 58.1888 278.989 57.6358 279.682C57.0777 280.37 56.942 281.068 57.2237 281.771C57.4167 282.256 57.7663 282.626 58.2618 282.871C58.7313 283.105 59.2269 283.241 59.7485 283.277Z" fill="url(#paint35_linear_673_8097)"/>
</g>
</g>
<g opacity="0.5">
<path d="M150.355 149.822C153.808 150.09 156.512 152.79 156.779 156.239L157.074 160.196H157.502L157.796 156.239C158.064 152.79 160.767 150.09 164.22 149.822L168.182 149.528V149.101L164.22 148.806C160.767 148.539 158.064 145.839 157.796 142.39L157.502 138.432H157.074L156.779 142.39C156.512 145.839 153.808 148.539 150.355 148.806L146.394 149.101V149.528L150.355 149.822Z" fill="white"/>
<path d="M124.772 15.0318C126.833 15.1923 128.439 16.7965 128.599 18.8553L128.787 21.2616H129.215L129.402 18.8553C129.563 16.7965 131.169 15.1923 133.23 15.0318L135.639 14.8447V14.4169L133.23 14.2297C131.169 14.0693 129.563 12.4651 129.402 10.4063L129.215 8H128.787L128.599 10.4063C128.439 12.4651 126.833 14.0693 124.772 14.2297L122.363 14.4169V14.8447L124.772 15.0318Z" fill="white"/>
<path d="M72.9478 46.1064C74.5538 46.2401 75.8118 47.4968 75.9456 49.101L76.0796 50.9726H76.4276L76.5615 49.101C76.6954 47.4968 77.9534 46.2401 79.5594 46.1064L81.433 45.9727V45.6251L79.5594 45.4914C77.9534 45.3578 76.6954 44.1011 76.5615 42.4969L76.4276 40.6253H76.0796L75.9456 42.4969C75.8118 44.1011 74.5538 45.3578 72.9478 45.4914L71.0742 45.6251V45.9727L72.9478 46.1064Z" fill="white"/>
<path d="M117.471 81.7192C118.488 81.7995 119.291 82.6016 119.371 83.6176L119.452 84.8208H119.666L119.746 83.6176C119.826 82.6016 120.629 81.7995 121.646 81.7192L122.851 81.639V81.4251L121.646 81.3449C120.629 81.2647 119.826 80.4626 119.746 79.4466L119.666 78.2434H119.452L119.371 79.4466C119.291 80.4626 118.488 81.2647 117.471 81.3449L116.266 81.4251V81.639L117.471 81.7192Z" fill="white"/>
</g>
<g filter="url(#filter3_f_673_8097)">
<path d="M95.0496 196.666C93.5989 225.171 115.557 249.455 144.095 250.904C172.632 252.353 196.942 230.419 198.393 201.913C199.843 173.407 177.885 149.125 149.348 147.676C120.811 146.227 96.5003 168.16 95.0496 196.666Z" fill="url(#paint36_radial_673_8097)" style="mix-blend-mode:luminosity"/>
<path fill-rule="evenodd" clip-rule="evenodd" d="M115.718 197.716C114.848 214.819 128.023 229.39 145.145 230.259C162.268 231.128 176.854 217.968 177.724 200.864C178.595 183.761 165.42 169.191 148.297 168.322C131.175 167.452 116.589 180.612 115.718 197.716ZM144.883 235.42C124.907 234.406 109.536 217.407 110.551 197.453C111.567 177.499 128.584 162.146 148.56 163.16C168.536 164.175 183.907 181.172 182.891 201.126C181.876 221.081 164.859 236.435 144.883 235.42Z" fill="#683EE6"/>
<path fill-rule="evenodd" clip-rule="evenodd" d="M97.3632 214.831C95.5602 209.12 94.7276 202.997 95.0498 196.666C95.372 190.334 96.8219 184.327 99.1953 178.829C100.998 184.539 101.831 190.662 101.509 196.994C101.187 203.325 99.7366 209.332 97.3632 214.831Z" fill="#9D7CFF"/>
<path fill-rule="evenodd" clip-rule="evenodd" d="M162.28 248.594C156.775 246.223 150.761 244.775 144.423 244.453C138.085 244.131 131.955 244.963 126.238 246.764C131.743 249.134 137.757 250.583 144.095 250.904C150.433 251.226 156.563 250.395 162.28 248.594Z" fill="#9D7CFF"/>
<path fill-rule="evenodd" clip-rule="evenodd" d="M131.163 149.987C136.668 152.358 142.681 153.806 149.02 154.128C155.358 154.45 161.488 153.618 167.205 151.817C161.7 149.446 155.687 147.998 149.348 147.676C143.01 147.354 136.88 148.186 131.163 149.987Z" fill="#9D7CFF"/>
<path fill-rule="evenodd" clip-rule="evenodd" d="M194.247 219.751C192.444 214.04 191.612 207.917 191.934 201.586C192.256 195.254 193.706 189.247 196.08 183.748C197.883 189.459 198.715 195.582 198.393 201.913C198.071 208.245 196.621 214.252 194.247 219.751Z" fill="#9D7CFF"/>
<path d="M133.56 196.324C133.638 194.973 133.931 193.68 134.44 192.445C134.949 191.219 135.73 190.135 136.782 189.194C137.835 188.252 139.202 187.533 140.884 187.035C142.566 186.546 144.61 186.363 147.016 186.485C149.225 186.605 151.186 186.958 152.899 187.542C154.62 188.136 156.065 188.929 157.233 189.924C158.401 190.926 159.269 192.098 159.836 193.439C160.412 194.78 160.658 196.263 160.575 197.888C160.486 199.642 160.065 201.173 159.312 202.481C158.567 203.789 157.591 204.82 156.385 205.574C155.179 206.336 153.848 206.766 152.392 206.863L152.671 201.385C153.598 201.217 154.34 200.805 154.897 200.147C155.455 199.489 155.759 198.656 155.81 197.647C155.897 195.936 155.218 194.598 153.774 193.633C152.329 192.676 150.326 192.124 147.767 191.977L147.758 192.157C148.517 192.59 149.154 193.154 149.668 193.849C150.19 194.553 150.575 195.34 150.822 196.21C151.078 197.089 151.182 198.007 151.133 198.965C151.054 200.522 150.615 201.889 149.817 203.066C149.027 204.244 147.976 205.151 146.665 205.788C145.353 206.424 143.875 206.701 142.231 206.617C140.45 206.527 138.887 206.032 137.542 205.132C136.197 204.24 135.168 203.034 134.455 201.515C133.751 200.004 133.453 198.274 133.56 196.324ZM137.929 196.52C137.885 197.375 138.052 198.151 138.429 198.848C138.805 199.544 139.335 200.103 140.017 200.524C140.7 200.944 141.478 201.177 142.351 201.221C143.225 201.265 144.018 201.113 144.731 200.763C145.444 200.422 146.023 199.928 146.468 199.282C146.913 198.635 147.157 197.885 147.201 197.029C147.233 196.388 147.144 195.787 146.932 195.228C146.719 194.677 146.41 194.185 146.002 193.753C145.595 193.329 145.114 192.987 144.561 192.727C144.016 192.468 143.427 192.323 142.793 192.29C141.945 192.247 141.161 192.4 140.439 192.75C139.717 193.107 139.129 193.609 138.675 194.255C138.221 194.91 137.972 195.665 137.929 196.52Z" fill="white"/>
</g>
<g filter="url(#filter4_f_673_8097)">
<path d="M122.629 109.708C130.892 117.962 144.289 117.962 152.552 109.708C160.815 101.454 160.815 88.0721 152.552 79.8183C144.289 71.5645 130.892 71.5647 122.63 79.8185C114.367 88.0723 114.366 101.454 122.629 109.708Z" fill="url(#paint37_radial_673_8097)" style="mix-blend-mode:luminosity"/>
<path d="M147.356 104.518C141.963 109.905 133.219 109.905 127.825 104.518C122.432 99.1306 122.432 90.3961 127.825 85.0087C133.219 79.6214 141.963 79.6213 147.356 85.0086C152.749 90.396 152.75 99.1307 147.356 104.518Z" stroke="#683EE6" stroke-width="2"/>
<path fill-rule="evenodd" clip-rule="evenodd" d="M128.782 113.986C126.553 112.967 124.465 111.541 122.629 109.708C120.794 107.875 119.366 105.788 118.346 103.562C120.576 104.581 122.664 106.007 124.499 107.84C126.335 109.673 127.762 111.759 128.782 113.986Z" fill="#9D7CFF"/>
<path fill-rule="evenodd" clip-rule="evenodd" d="M156.835 103.562C154.606 104.581 152.517 106.007 150.682 107.84C148.847 109.673 147.419 111.759 146.399 113.986C148.628 112.967 150.717 111.541 152.552 109.708C154.387 107.875 155.815 105.789 156.835 103.562Z" fill="#9D7CFF"/>
<path fill-rule="evenodd" clip-rule="evenodd" d="M118.346 85.9649C120.576 84.946 122.664 83.5199 124.5 81.6867C126.335 79.8535 127.762 77.7672 128.782 75.5404C126.553 76.5593 124.465 77.9853 122.629 79.8186C120.794 81.6518 119.366 83.738 118.346 85.9649Z" fill="#9D7CFF"/>
<path fill-rule="evenodd" clip-rule="evenodd" d="M156.835 85.9646C154.606 84.9457 152.517 83.5196 150.682 81.6864C148.847 79.8532 147.419 77.767 146.399 75.5402C148.628 76.559 150.717 77.9851 152.552 79.8183C154.387 81.6515 155.815 83.7378 156.835 85.9646Z" fill="#9D7CFF"/>
<path d="M132.995 97.8531C132.422 97.281 132.006 96.6792 131.745 96.0477C131.49 95.4161 131.398 94.8118 131.47 94.2348C131.542 93.6577 131.784 93.1636 132.195 92.7525C132.513 92.4355 132.876 92.2163 133.285 92.0949C133.699 91.9736 134.119 91.9501 134.546 92.0244C134.975 92.0962 135.369 92.2621 135.728 92.5222L135.781 92.4702C135.456 91.9823 135.323 91.456 135.383 90.8913C135.445 90.3241 135.684 89.8325 136.1 89.4164C136.495 89.0227 136.961 88.7874 137.499 88.7106C138.039 88.6313 138.598 88.7044 139.176 88.9298C139.759 89.1552 140.307 89.5242 140.82 90.0368C141.333 90.5495 141.701 91.0956 141.924 91.6751C142.15 92.2572 142.223 92.8181 142.144 93.358C142.067 93.8955 141.834 94.3611 141.445 94.7549C141.023 95.1709 140.529 95.4075 139.961 95.4644C139.393 95.5214 138.869 95.3914 138.388 95.0743L138.336 95.1264C138.591 95.4805 138.753 95.8706 138.823 96.2966C138.897 96.7226 138.874 97.1424 138.752 97.556C138.636 97.9696 138.42 98.3361 138.105 98.6556C137.691 99.0642 137.195 99.3045 136.617 99.3763C136.04 99.4481 135.433 99.3552 134.799 99.0977C134.169 98.8401 133.568 98.4253 132.995 97.8531ZM134.178 96.6718C134.433 96.9269 134.702 97.104 134.985 97.203C135.27 97.2996 135.547 97.3194 135.818 97.2625C136.093 97.2055 136.338 97.0693 136.554 96.8538C136.775 96.6334 136.914 96.3833 136.971 96.1034C137.03 95.8211 137.013 95.5362 136.919 95.249C136.827 94.9592 136.657 94.6905 136.409 94.4428C136.164 94.1976 135.895 94.028 135.602 93.9339C135.312 93.8373 135.026 93.8187 134.743 93.8781C134.465 93.9376 134.216 94.0775 133.995 94.2979C133.78 94.5134 133.642 94.7573 133.583 95.0298C133.526 95.2997 133.547 95.5783 133.646 95.8656C133.747 96.1505 133.925 96.4192 134.178 96.6718ZM137.581 93.2726C137.794 93.4856 138.027 93.6317 138.28 93.711C138.533 93.7902 138.783 93.8001 139.031 93.7407C139.279 93.6812 139.503 93.5512 139.704 93.3506C139.903 93.1525 140.029 92.932 140.084 92.6893C140.141 92.4441 140.129 92.1977 140.05 91.9501C139.973 91.6999 139.826 91.4659 139.607 91.2479C139.392 91.0325 139.157 90.8851 138.905 90.8058C138.654 90.7241 138.406 90.7117 138.161 90.7687C137.92 90.8257 137.701 90.9532 137.502 91.1513C137.302 91.3519 137.171 91.5761 137.112 91.8237C137.052 92.0714 137.062 92.3216 137.142 92.5742C137.221 92.8268 137.367 93.0596 137.581 93.2726Z" fill="white"/>
</g>
<defs>
<filter id="filter0_df_673_8097" x="127.133" y="291.951" width="136.686" height="95.3345" filterUnits="userSpaceOnUse" color-interpolation-filters="sRGB">
<feFlood flood-opacity="0" result="BackgroundImageFix"/>
<feColorMatrix in="SourceAlpha" type="matrix" values="0 0 0 0 0 0 0 0 0 0 0 0 0 0 0 0 0 0 127 0" result="hardAlpha"/>
<feOffset dy="4"/>
<feGaussianBlur stdDeviation="2"/>
<feComposite in2="hardAlpha" operator="out"/>
<feColorMatrix type="matrix" values="0 0 0 0 0 0 0 0 0 0 0 0 0 0 0 0 0 0 0.25 0"/>
<feBlend mode="normal" in2="BackgroundImageFix" result="effect1_dropShadow_673_8097"/>
<feBlend mode="normal" in="SourceGraphic" in2="effect1_dropShadow_673_8097" result="shape"/>
<feGaussianBlur stdDeviation="4" result="effect2_foregroundBlur_673_8097"/>
</filter>
<filter id="filter1_f_673_8097" x="0" y="112" width="74.3152" height="74.3532" filterUnits="userSpaceOnUse" color-interpolation-filters="sRGB">
<feFlood flood-opacity="0" result="BackgroundImageFix"/>
<feBlend mode="normal" in="SourceGraphic" in2="BackgroundImageFix" result="shape"/>
<feGaussianBlur stdDeviation="2" result="effect1_foregroundBlur_673_8097"/>
</filter>
<filter id="filter2_f_673_8097" x="43.5859" y="267.091" width="41.4995" height="32.6932" filterUnits="userSpaceOnUse" color-interpolation-filters="sRGB">
<feFlood flood-opacity="0" result="BackgroundImageFix"/>
<feBlend mode="normal" in="SourceGraphic" in2="BackgroundImageFix" result="shape"/>
<feGaussianBlur stdDeviation="2" result="effect1_foregroundBlur_673_8097"/>
</filter>
<filter id="filter3_f_673_8097" x="87.9817" y="140.608" width="117.479" height="117.364" filterUnits="userSpaceOnUse" color-interpolation-filters="sRGB">
<feFlood flood-opacity="0" result="BackgroundImageFix"/>
<feBlend mode="normal" in="SourceGraphic" in2="BackgroundImageFix" result="shape"/>
<feGaussianBlur stdDeviation="3.5" result="effect1_foregroundBlur_673_8097"/>
</filter>
<filter id="filter4_f_673_8097" x="108.432" y="65.6281" width="58.3171" height="58.2702" filterUnits="userSpaceOnUse" color-interpolation-filters="sRGB">
<feFlood flood-opacity="0" result="BackgroundImageFix"/>
<feBlend mode="normal" in="SourceGraphic" in2="BackgroundImageFix" result="shape"/>
<feGaussianBlur stdDeviation="4" result="effect1_foregroundBlur_673_8097"/>
</filter>
<linearGradient id="paint0_linear_673_8097" x1="198.65" y1="367.005" x2="192.077" y2="309.119" gradientUnits="userSpaceOnUse">
<stop stop-color="#F0C827"/>
<stop offset="0.08" stop-color="#E9BE25"/>
<stop offset="0.22" stop-color="#E2B424"/>
<stop offset="0.38" stop-color="#EECA46"/>
<stop offset="0.57" stop-color="#FAE168"/>
<stop offset="0.68" stop-color="#FFEA76"/>
<stop offset="0.74" stop-color="#FDE770"/>
<stop offset="0.82" stop-color="#FBE161"/>
<stop offset="0.91" stop-color="#F6D647"/>
<stop offset="1" stop-color="#F0C827"/>
</linearGradient>
<linearGradient id="paint1_linear_673_8097" x1="198.65" y1="367.005" x2="192.077" y2="309.119" gradientUnits="userSpaceOnUse">
<stop stop-color="#E1C5FF"/>
<stop offset="1" stop-color="#CD9CFE"/>
</linearGradient>
<linearGradient id="paint2_linear_673_8097" x1="201.332" y1="320.409" x2="201.075" y2="318.151" gradientUnits="userSpaceOnUse">
<stop offset="0.04" stop-color="#F8DA36"/>
<stop offset="0.11" stop-color="#F1CD21"/>
<stop offset="0.19" stop-color="#EBC412"/>
<stop offset="0.28" stop-color="#E8BE09"/>
<stop offset="0.42" stop-color="#E8BD07"/>
<stop offset="0.51" stop-color="#EFCB1B"/>
<stop offset="0.64" stop-color="#F8DB33"/>
<stop offset="0.77" stop-color="#FDE542"/>
<stop offset="0.87" stop-color="#FFE947"/>
<stop offset="1" stop-color="#FFEC63"/>
</linearGradient>
<linearGradient id="paint3_linear_673_8097" x1="195.315" y1="329.603" x2="194.752" y2="324.64" gradientUnits="userSpaceOnUse">
<stop offset="0.04" stop-color="#F8DA36"/>
<stop offset="0.11" stop-color="#F1CD21"/>
<stop offset="0.19" stop-color="#EBC412"/>
<stop offset="0.28" stop-color="#E8BE09"/>
<stop offset="0.42" stop-color="#E8BD07"/>
<stop offset="0.51" stop-color="#EFCB1B"/>
<stop offset="0.64" stop-color="#F8DB33"/>
<stop offset="0.77" stop-color="#FDE542"/>
<stop offset="0.87" stop-color="#FFE947"/>
<stop offset="1" stop-color="#FFEC63"/>
</linearGradient>
<linearGradient id="paint4_linear_673_8097" x1="195.765" y1="349.952" x2="194.814" y2="341.576" gradientUnits="userSpaceOnUse">
<stop offset="0.04" stop-color="#F8DA36"/>
<stop offset="0.11" stop-color="#F1CD21"/>
<stop offset="0.19" stop-color="#EBC412"/>
<stop offset="0.28" stop-color="#E8BE09"/>
<stop offset="0.42" stop-color="#E8BD07"/>
<stop offset="0.51" stop-color="#EFCB1B"/>
<stop offset="0.64" stop-color="#F8DB33"/>
<stop offset="0.77" stop-color="#FDE542"/>
<stop offset="0.87" stop-color="#FFE947"/>
<stop offset="1" stop-color="#FFEC63"/>
</linearGradient>
<linearGradient id="paint5_linear_673_8097" x1="200.849" y1="335.651" x2="200.143" y2="329.428" gradientUnits="userSpaceOnUse">
<stop offset="0.04" stop-color="#F8DA36"/>
<stop offset="0.11" stop-color="#F1CD21"/>
<stop offset="0.19" stop-color="#EBC412"/>
<stop offset="0.28" stop-color="#E8BE09"/>
<stop offset="0.42" stop-color="#E8BD07"/>
<stop offset="0.51" stop-color="#EFCB1B"/>
<stop offset="0.64" stop-color="#F8DB33"/>
<stop offset="0.77" stop-color="#FDE542"/>
<stop offset="0.87" stop-color="#FFE947"/>
<stop offset="1" stop-color="#FFEC63"/>
</linearGradient>
<linearGradient id="paint6_linear_673_8097" x1="193.128" y1="359.122" x2="192.737" y2="355.682" gradientUnits="userSpaceOnUse">
<stop offset="0.04" stop-color="#F8DA36"/>
<stop offset="0.11" stop-color="#F1CD21"/>
<stop offset="0.19" stop-color="#EBC412"/>
<stop offset="0.28" stop-color="#E8BE09"/>
<stop offset="0.42" stop-color="#E8BD07"/>
<stop offset="0.51" stop-color="#EFCB1B"/>
<stop offset="0.64" stop-color="#F8DB33"/>
<stop offset="0.77" stop-color="#FDE542"/>
<stop offset="0.87" stop-color="#FFE947"/>
<stop offset="1" stop-color="#FFEC63"/>
</linearGradient>
<linearGradient id="paint7_linear_673_8097" x1="184.369" y1="353.959" x2="183.201" y2="343.679" gradientUnits="userSpaceOnUse">
<stop offset="0.04" stop-color="#F8DA36"/>
<stop offset="0.11" stop-color="#F1CD21"/>
<stop offset="0.19" stop-color="#EBC412"/>
<stop offset="0.28" stop-color="#E8BE09"/>
<stop offset="0.42" stop-color="#E8BD07"/>
<stop offset="0.51" stop-color="#EFCB1B"/>
<stop offset="0.64" stop-color="#F8DB33"/>
<stop offset="0.77" stop-color="#FDE542"/>
<stop offset="0.87" stop-color="#FFE947"/>
<stop offset="1" stop-color="#FFEC63"/>
</linearGradient>
<linearGradient id="paint8_linear_673_8097" x1="186.089" y1="337.393" x2="183.798" y2="317.214" gradientUnits="userSpaceOnUse">
<stop offset="0.04" stop-color="#F8DA36"/>
<stop offset="0.11" stop-color="#F1CD21"/>
<stop offset="0.19" stop-color="#EBC412"/>
<stop offset="0.28" stop-color="#E8BE09"/>
<stop offset="0.42" stop-color="#E8BD07"/>
<stop offset="0.51" stop-color="#EFCB1B"/>
<stop offset="0.64" stop-color="#F8DB33"/>
<stop offset="0.77" stop-color="#FDE542"/>
<stop offset="0.87" stop-color="#FFE947"/>
<stop offset="1" stop-color="#FFEC63"/>
</linearGradient>
<linearGradient id="paint9_linear_673_8097" x1="17.0479" y1="174.558" x2="56.3476" y2="122.692" gradientUnits="userSpaceOnUse">
<stop stop-color="#F0E0FF"/>
<stop offset="0.58" stop-color="#D5ADFF"/>
<stop offset="1" stop-color="#E2C6FF"/>
</linearGradient>
<linearGradient id="paint10_linear_673_8097" x1="57.0179" y1="166.881" x2="16.8713" y2="129.572" gradientUnits="userSpaceOnUse">
<stop stop-color="#CD9BFE"/>
<stop offset="1" stop-color="#CF9FFF"/>
</linearGradient>
<linearGradient id="paint11_linear_673_8097" x1="28.3492" y1="134.425" x2="26.7256" y2="132.916" gradientUnits="userSpaceOnUse">
<stop offset="0.04" stop-color="#F8DA36"/>
<stop offset="0.11" stop-color="#F1CD21"/>
<stop offset="0.19" stop-color="#EBC412"/>
<stop offset="0.28" stop-color="#E8BE09"/>
<stop offset="0.42" stop-color="#E8BD07"/>
<stop offset="0.51" stop-color="#EFCB1B"/>
<stop offset="0.64" stop-color="#F8DB33"/>
<stop offset="0.77" stop-color="#FDE542"/>
<stop offset="0.87" stop-color="#FFE947"/>
<stop offset="1" stop-color="#FFEC63"/>
</linearGradient>
<linearGradient id="paint12_linear_673_8097" x1="31.7815" y1="142.794" x2="28.2207" y2="139.484" gradientUnits="userSpaceOnUse">
<stop offset="0.04" stop-color="#F8DA36"/>
<stop offset="0.11" stop-color="#F1CD21"/>
<stop offset="0.19" stop-color="#EBC412"/>
<stop offset="0.28" stop-color="#E8BE09"/>
<stop offset="0.42" stop-color="#E8BD07"/>
<stop offset="0.51" stop-color="#EFCB1B"/>
<stop offset="0.64" stop-color="#F8DB33"/>
<stop offset="0.77" stop-color="#FDE542"/>
<stop offset="0.87" stop-color="#FFE947"/>
<stop offset="1" stop-color="#FFEC63"/>
</linearGradient>
<linearGradient id="paint13_linear_673_8097" x1="45.5195" y1="156.906" x2="39.5234" y2="151.334" gradientUnits="userSpaceOnUse">
<stop offset="0.04" stop-color="#F8DA36"/>
<stop offset="0.11" stop-color="#F1CD21"/>
<stop offset="0.19" stop-color="#EBC412"/>
<stop offset="0.28" stop-color="#E8BE09"/>
<stop offset="0.42" stop-color="#E8BD07"/>
<stop offset="0.51" stop-color="#EFCB1B"/>
<stop offset="0.64" stop-color="#F8DB33"/>
<stop offset="0.77" stop-color="#FDE542"/>
<stop offset="0.87" stop-color="#FFE947"/>
<stop offset="1" stop-color="#FFEC63"/>
</linearGradient>
<linearGradient id="paint14_linear_673_8097" x1="38.2738" y1="145.242" x2="33.8274" y2="141.11" gradientUnits="userSpaceOnUse">
<stop offset="0.04" stop-color="#F8DA36"/>
<stop offset="0.11" stop-color="#F1CD21"/>
<stop offset="0.19" stop-color="#EBC412"/>
<stop offset="0.28" stop-color="#E8BE09"/>
<stop offset="0.42" stop-color="#E8BD07"/>
<stop offset="0.51" stop-color="#EFCB1B"/>
<stop offset="0.64" stop-color="#F8DB33"/>
<stop offset="0.77" stop-color="#FDE542"/>
<stop offset="0.87" stop-color="#FFE947"/>
<stop offset="1" stop-color="#FFEC63"/>
</linearGradient>
<linearGradient id="paint15_linear_673_8097" x1="50.4443" y1="164.186" x2="47.9905" y2="161.906" gradientUnits="userSpaceOnUse">
<stop offset="0.04" stop-color="#F8DA36"/>
<stop offset="0.11" stop-color="#F1CD21"/>
<stop offset="0.19" stop-color="#EBC412"/>
<stop offset="0.28" stop-color="#E8BE09"/>
<stop offset="0.42" stop-color="#E8BD07"/>
<stop offset="0.51" stop-color="#EFCB1B"/>
<stop offset="0.64" stop-color="#F8DB33"/>
<stop offset="0.77" stop-color="#FDE542"/>
<stop offset="0.87" stop-color="#FFE947"/>
<stop offset="1" stop-color="#FFEC63"/>
</linearGradient>
<linearGradient id="paint16_linear_673_8097" x1="43.1026" y1="163.354" x2="35.7411" y2="156.513" gradientUnits="userSpaceOnUse">
<stop offset="0.04" stop-color="#F8DA36"/>
<stop offset="0.11" stop-color="#F1CD21"/>
<stop offset="0.19" stop-color="#EBC412"/>
<stop offset="0.28" stop-color="#E8BE09"/>
<stop offset="0.42" stop-color="#E8BD07"/>
<stop offset="0.51" stop-color="#EFCB1B"/>
<stop offset="0.64" stop-color="#F8DB33"/>
<stop offset="0.77" stop-color="#FDE542"/>
<stop offset="0.87" stop-color="#FFE947"/>
<stop offset="1" stop-color="#FFEC63"/>
</linearGradient>
<linearGradient id="paint17_linear_673_8097" x1="32.8433" y1="151.197" x2="18.3971" y2="137.772" gradientUnits="userSpaceOnUse">
<stop offset="0.04" stop-color="#F8DA36"/>
<stop offset="0.11" stop-color="#F1CD21"/>
<stop offset="0.19" stop-color="#EBC412"/>
<stop offset="0.28" stop-color="#E8BE09"/>
<stop offset="0.42" stop-color="#E8BD07"/>
<stop offset="0.51" stop-color="#EFCB1B"/>
<stop offset="0.64" stop-color="#F8DB33"/>
<stop offset="0.77" stop-color="#FDE542"/>
<stop offset="0.87" stop-color="#FFE947"/>
<stop offset="1" stop-color="#FFEC63"/>
</linearGradient>
<linearGradient id="paint18_linear_673_8097" x1="58.6676" y1="46.3111" x2="101.218" y2="18.7873" gradientUnits="userSpaceOnUse">
<stop stop-color="#F0E0FF"/>
<stop offset="0.58" stop-color="#D5ADFF"/>
<stop offset="1" stop-color="#E2C6FF"/>
</linearGradient>
<linearGradient id="paint19_linear_673_8097" x1="89.9565" y1="51.2977" x2="70.4921" y2="13.3502" gradientUnits="userSpaceOnUse">
<stop stop-color="#CD9BFE"/>
<stop offset="1" stop-color="#CF9FFF"/>
</linearGradient>
<linearGradient id="paint20_linear_673_8097" x1="77.6085" y1="19.9425" x2="76.8214" y2="18.4079" gradientUnits="userSpaceOnUse">
<stop offset="0.04" stop-color="#F8DA36"/>
<stop offset="0.11" stop-color="#F1CD21"/>
<stop offset="0.19" stop-color="#EBC412"/>
<stop offset="0.28" stop-color="#E8BE09"/>
<stop offset="0.42" stop-color="#E8BD07"/>
<stop offset="0.51" stop-color="#EFCB1B"/>
<stop offset="0.64" stop-color="#F8DB33"/>
<stop offset="0.77" stop-color="#FDE542"/>
<stop offset="0.87" stop-color="#FFE947"/>
<stop offset="1" stop-color="#FFEC63"/>
</linearGradient>
<linearGradient id="paint21_linear_673_8097" x1="77.8949" y1="26.9765" x2="76.1686" y2="23.6107" gradientUnits="userSpaceOnUse">
<stop offset="0.04" stop-color="#F8DA36"/>
<stop offset="0.11" stop-color="#F1CD21"/>
<stop offset="0.19" stop-color="#EBC412"/>
<stop offset="0.28" stop-color="#E8BE09"/>
<stop offset="0.42" stop-color="#E8BD07"/>
<stop offset="0.51" stop-color="#EFCB1B"/>
<stop offset="0.64" stop-color="#F8DB33"/>
<stop offset="0.77" stop-color="#FDE542"/>
<stop offset="0.87" stop-color="#FFE947"/>
<stop offset="1" stop-color="#FFEC63"/>
</linearGradient>
<linearGradient id="paint22_linear_673_8097" x1="84.1951" y1="40.9483" x2="81.288" y2="35.2805" gradientUnits="userSpaceOnUse">
<stop offset="0.04" stop-color="#F8DA36"/>
<stop offset="0.11" stop-color="#F1CD21"/>
<stop offset="0.19" stop-color="#EBC412"/>
<stop offset="0.28" stop-color="#E8BE09"/>
<stop offset="0.42" stop-color="#E8BD07"/>
<stop offset="0.51" stop-color="#EFCB1B"/>
<stop offset="0.64" stop-color="#F8DB33"/>
<stop offset="0.77" stop-color="#FDE542"/>
<stop offset="0.87" stop-color="#FFE947"/>
<stop offset="1" stop-color="#FFEC63"/>
</linearGradient>
<linearGradient id="paint23_linear_673_8097" x1="81.9949" y1="30.4907" x2="79.839" y2="26.2879" gradientUnits="userSpaceOnUse">
<stop offset="0.04" stop-color="#F8DA36"/>
<stop offset="0.11" stop-color="#F1CD21"/>
<stop offset="0.19" stop-color="#EBC412"/>
<stop offset="0.28" stop-color="#E8BE09"/>
<stop offset="0.42" stop-color="#E8BD07"/>
<stop offset="0.51" stop-color="#EFCB1B"/>
<stop offset="0.64" stop-color="#F8DB33"/>
<stop offset="0.77" stop-color="#FDE542"/>
<stop offset="0.87" stop-color="#FFE947"/>
<stop offset="1" stop-color="#FFEC63"/>
</linearGradient>
<linearGradient id="paint24_linear_673_8097" x1="85.8633" y1="47.5819" x2="84.6736" y2="45.2625" gradientUnits="userSpaceOnUse">
<stop offset="0.04" stop-color="#F8DA36"/>
<stop offset="0.11" stop-color="#F1CD21"/>
<stop offset="0.19" stop-color="#EBC412"/>
<stop offset="0.28" stop-color="#E8BE09"/>
<stop offset="0.42" stop-color="#E8BD07"/>
<stop offset="0.51" stop-color="#EFCB1B"/>
<stop offset="0.64" stop-color="#F8DB33"/>
<stop offset="0.77" stop-color="#FDE542"/>
<stop offset="0.87" stop-color="#FFE947"/>
<stop offset="1" stop-color="#FFEC63"/>
</linearGradient>
<linearGradient id="paint25_linear_673_8097" x1="80.7121" y1="45.0255" x2="77.1431" y2="38.0672" gradientUnits="userSpaceOnUse">
<stop offset="0.04" stop-color="#F8DA36"/>
<stop offset="0.11" stop-color="#F1CD21"/>
<stop offset="0.19" stop-color="#EBC412"/>
<stop offset="0.28" stop-color="#E8BE09"/>
<stop offset="0.42" stop-color="#E8BD07"/>
<stop offset="0.51" stop-color="#EFCB1B"/>
<stop offset="0.64" stop-color="#F8DB33"/>
<stop offset="0.77" stop-color="#FDE542"/>
<stop offset="0.87" stop-color="#FFE947"/>
<stop offset="1" stop-color="#FFEC63"/>
</linearGradient>
<linearGradient id="paint26_linear_673_8097" x1="76.4377" y1="33.4072" x2="69.4338" y2="19.7522" gradientUnits="userSpaceOnUse">
<stop offset="0.04" stop-color="#F8DA36"/>
<stop offset="0.11" stop-color="#F1CD21"/>
<stop offset="0.19" stop-color="#EBC412"/>
<stop offset="0.28" stop-color="#E8BE09"/>
<stop offset="0.42" stop-color="#E8BD07"/>
<stop offset="0.51" stop-color="#EFCB1B"/>
<stop offset="0.64" stop-color="#F8DB33"/>
<stop offset="0.77" stop-color="#FDE542"/>
<stop offset="0.87" stop-color="#FFE947"/>
<stop offset="1" stop-color="#FFEC63"/>
</linearGradient>
<linearGradient id="paint27_linear_673_8097" x1="67.278" y1="290.693" x2="61.1052" y2="275.344" gradientUnits="userSpaceOnUse">
<stop stop-color="#F0C827"/>
<stop offset="0.08" stop-color="#E9BE25"/>
<stop offset="0.22" stop-color="#E2B424"/>
<stop offset="0.38" stop-color="#EECA46"/>
<stop offset="0.57" stop-color="#FAE168"/>
<stop offset="0.68" stop-color="#FFEA76"/>
<stop offset="0.74" stop-color="#FDE770"/>
<stop offset="0.82" stop-color="#FBE161"/>
<stop offset="0.91" stop-color="#F6D647"/>
<stop offset="1" stop-color="#F0C827"/>
</linearGradient>
<linearGradient id="paint28_linear_673_8097" x1="67.278" y1="290.693" x2="61.1052" y2="275.344" gradientUnits="userSpaceOnUse">
<stop stop-color="#E1C5FF"/>
<stop offset="1" stop-color="#CD9CFE"/>
</linearGradient>
<linearGradient id="paint29_linear_673_8097" x1="64.4852" y1="277.737" x2="64.2444" y2="277.139" gradientUnits="userSpaceOnUse">
<stop offset="0.04" stop-color="#F8DA36"/>
<stop offset="0.11" stop-color="#F1CD21"/>
<stop offset="0.19" stop-color="#EBC412"/>
<stop offset="0.28" stop-color="#E8BE09"/>
<stop offset="0.42" stop-color="#E8BD07"/>
<stop offset="0.51" stop-color="#EFCB1B"/>
<stop offset="0.64" stop-color="#F8DB33"/>
<stop offset="0.77" stop-color="#FDE542"/>
<stop offset="0.87" stop-color="#FFE947"/>
<stop offset="1" stop-color="#FFEC63"/>
</linearGradient>
<linearGradient id="paint30_linear_673_8097" x1="63.5331" y1="280.708" x2="63.0034" y2="279.393" gradientUnits="userSpaceOnUse">
<stop offset="0.04" stop-color="#F8DA36"/>
<stop offset="0.11" stop-color="#F1CD21"/>
<stop offset="0.19" stop-color="#EBC412"/>
<stop offset="0.28" stop-color="#E8BE09"/>
<stop offset="0.42" stop-color="#E8BD07"/>
<stop offset="0.51" stop-color="#EFCB1B"/>
<stop offset="0.64" stop-color="#F8DB33"/>
<stop offset="0.77" stop-color="#FDE542"/>
<stop offset="0.87" stop-color="#FFE947"/>
<stop offset="1" stop-color="#FFEC63"/>
</linearGradient>
<linearGradient id="paint31_linear_673_8097" x1="65.1973" y1="286.243" x2="64.3041" y2="284.022" gradientUnits="userSpaceOnUse">
<stop offset="0.04" stop-color="#F8DA36"/>
<stop offset="0.11" stop-color="#F1CD21"/>
<stop offset="0.19" stop-color="#EBC412"/>
<stop offset="0.28" stop-color="#E8BE09"/>
<stop offset="0.42" stop-color="#E8BD07"/>
<stop offset="0.51" stop-color="#EFCB1B"/>
<stop offset="0.64" stop-color="#F8DB33"/>
<stop offset="0.77" stop-color="#FDE542"/>
<stop offset="0.87" stop-color="#FFE947"/>
<stop offset="1" stop-color="#FFEC63"/>
</linearGradient>
<linearGradient id="paint32_linear_673_8097" x1="65.5064" y1="281.945" x2="64.8428" y2="280.295" gradientUnits="userSpaceOnUse">
<stop offset="0.04" stop-color="#F8DA36"/>
<stop offset="0.11" stop-color="#F1CD21"/>
<stop offset="0.19" stop-color="#EBC412"/>
<stop offset="0.28" stop-color="#E8BE09"/>
<stop offset="0.42" stop-color="#E8BD07"/>
<stop offset="0.51" stop-color="#EFCB1B"/>
<stop offset="0.64" stop-color="#F8DB33"/>
<stop offset="0.77" stop-color="#FDE542"/>
<stop offset="0.87" stop-color="#FFE947"/>
<stop offset="1" stop-color="#FFEC63"/>
</linearGradient>
<linearGradient id="paint33_linear_673_8097" x1="65.1693" y1="288.952" x2="64.8022" y2="288.04" gradientUnits="userSpaceOnUse">
<stop offset="0.04" stop-color="#F8DA36"/>
<stop offset="0.11" stop-color="#F1CD21"/>
<stop offset="0.19" stop-color="#EBC412"/>
<stop offset="0.28" stop-color="#E8BE09"/>
<stop offset="0.42" stop-color="#E8BD07"/>
<stop offset="0.51" stop-color="#EFCB1B"/>
<stop offset="0.64" stop-color="#F8DB33"/>
<stop offset="0.77" stop-color="#FDE542"/>
<stop offset="0.87" stop-color="#FFE947"/>
<stop offset="1" stop-color="#FFEC63"/>
</linearGradient>
<linearGradient id="paint34_linear_673_8097" x1="62.3816" y1="288.201" x2="61.2854" y2="285.475" gradientUnits="userSpaceOnUse">
<stop offset="0.04" stop-color="#F8DA36"/>
<stop offset="0.11" stop-color="#F1CD21"/>
<stop offset="0.19" stop-color="#EBC412"/>
<stop offset="0.28" stop-color="#E8BE09"/>
<stop offset="0.42" stop-color="#E8BD07"/>
<stop offset="0.51" stop-color="#EFCB1B"/>
<stop offset="0.64" stop-color="#F8DB33"/>
<stop offset="0.77" stop-color="#FDE542"/>
<stop offset="0.87" stop-color="#FFE947"/>
<stop offset="1" stop-color="#FFEC63"/>
</linearGradient>
<linearGradient id="paint35_linear_673_8097" x1="61.5988" y1="283.537" x2="59.447" y2="278.186" gradientUnits="userSpaceOnUse">
<stop offset="0.04" stop-color="#F8DA36"/>
<stop offset="0.11" stop-color="#F1CD21"/>
<stop offset="0.19" stop-color="#EBC412"/>
<stop offset="0.28" stop-color="#E8BE09"/>
<stop offset="0.42" stop-color="#E8BD07"/>
<stop offset="0.51" stop-color="#EFCB1B"/>
<stop offset="0.64" stop-color="#F8DB33"/>
<stop offset="0.77" stop-color="#FDE542"/>
<stop offset="0.87" stop-color="#FFE947"/>
<stop offset="1" stop-color="#FFEC63"/>
</linearGradient>
<radialGradient id="paint36_radial_673_8097" cx="0" cy="0" r="1" gradientUnits="userSpaceOnUse" gradientTransform="translate(167.769 200.709) rotate(143.421) scale(73.2469 73.2234)">
<stop stop-color="#A381FF"/>
<stop offset="0.234375" stop-color="#8D62FF"/>
<stop offset="0.83" stop-color="#3C13C9"/>
<stop offset="1" stop-color="#7859FF"/>
</radialGradient>
<radialGradient id="paint37_radial_673_8097" cx="0" cy="0" r="1" gradientUnits="userSpaceOnUse" gradientTransform="translate(143.791 88.7716) rotate(95.4861) scale(29.9335 29.9661)">
<stop stop-color="#A381FF"/>
<stop offset="0.234375" stop-color="#8D62FF"/>
<stop offset="0.83" stop-color="#3C13C9"/>
<stop offset="1" stop-color="#7859FF"/>
</radialGradient>
</defs>
</svg>
