<svg width="395" height="556" viewBox="0 0 395 556" fill="none" xmlns="http://www.w3.org/2000/svg">
<g filter="url(#filter0_f_673_8002)">
<g style="mix-blend-mode:multiply">
<path d="M106.707 316.105C107.021 315.55 107.317 314.983 107.566 314.413C107.848 313.788 108.129 313.163 108.375 312.516C108.635 311.804 108.889 311.062 109.113 310.327C109.356 309.48 109.563 308.61 109.723 307.737C109.939 306.648 110.071 305.534 110.126 304.423C110.235 302.572 110.171 300.716 109.9 298.834C109.723 297.655 109.48 296.462 109.149 295.289C108.818 294.117 108.399 292.966 107.947 291.869L107.652 290.843L107.506 290.878L106.42 291.188L105.177 291.55L103.934 291.913L102.69 292.276L101.447 292.639L100.204 293.002L98.9425 293.353L97.6992 293.716L96.438 294.068L95.1948 294.431L93.9333 294.783L92.6903 295.145L91.447 295.508L90.2038 295.871L88.9426 296.223L87.6993 296.586L86.456 296.948L85.1946 297.3L83.9516 297.663L82.6901 298.015L81.4468 298.377L80.2038 298.74L78.9605 299.103L77.6991 299.455L76.4561 299.818L75.1946 300.169L73.9514 300.532L72.7081 300.895L71.4651 301.258L70.2036 301.61L68.9604 301.972L67.7173 302.335L66.4559 302.687L65.2126 303.05L63.9696 303.413L62.7081 303.764L61.4649 304.127L60.2218 304.49L58.9786 304.853L57.7353 305.216L56.4921 305.578L55.4062 305.888L55.249 305.941L55.5445 306.968C55.7221 308.146 55.9651 309.34 56.2959 310.512C56.6268 311.684 57.0274 312.824 57.4974 313.932C58.2473 315.683 59.1695 317.316 60.2167 318.825C60.856 319.737 61.565 320.617 62.3071 321.442C62.9007 322.102 63.5346 322.738 64.1907 323.336C64.7489 323.851 65.3473 324.34 65.9569 324.811C66.4938 325.237 67.0713 325.639 67.6415 326.011C68.1753 326.361 68.7311 326.675 69.2579 326.996C69.7775 327.287 70.3084 327.561 70.8503 327.816C71.3557 328.05 71.8611 328.283 72.3777 328.498C72.8761 328.702 73.3857 328.888 73.8771 329.063C74.3684 329.238 74.8525 329.383 75.3478 329.511C75.8321 329.656 76.3093 329.773 76.7975 329.871C77.2565 329.976 77.7445 330.075 78.2257 330.144C78.6776 330.22 79.1589 330.289 79.633 330.329C80.0959 330.387 80.5518 330.416 81.0076 330.444C81.4635 330.473 81.9011 330.491 82.3681 330.501C82.8169 330.501 83.2658 330.501 83.7075 330.471C84.1381 330.46 84.5799 330.43 85.0326 330.382C85.4744 330.353 85.909 330.294 86.3436 330.235C86.7782 330.176 87.1946 330.106 87.6403 330.029C88.0568 329.959 88.4845 329.871 88.9231 329.765C89.3325 329.666 89.7709 329.56 90.1914 329.442C90.6119 329.325 91.0142 329.197 91.4275 329.05C91.8409 328.904 92.2432 328.776 92.6495 328.6C93.0629 328.454 93.4691 328.278 93.8462 328.109C94.2524 327.934 94.6407 327.747 95.0399 327.542C95.4391 327.337 95.8382 327.132 96.2193 326.916C96.6003 326.7 96.9925 326.466 97.3664 326.221C97.7585 325.987 98.1435 325.724 98.4993 325.468C98.8843 325.204 99.2512 324.93 99.6181 324.656C99.996 324.363 100.356 324.06 100.715 323.756C101.086 323.434 101.439 323.101 101.792 322.769C102.155 322.418 102.501 322.056 102.836 321.712C103.192 321.332 103.531 320.941 103.851 320.538C104.201 320.129 104.532 319.709 104.845 319.277C105.17 318.827 105.505 318.36 105.811 317.899C106.121 317.391 106.432 316.883 106.742 316.375L106.707 316.105Z" fill="#A249FB"/>
</g>
<path d="M86.4836 274.413C101.486 276.657 111.831 290.651 109.567 305.625C107.32 320.611 93.3113 330.945 78.3202 328.683C63.3181 326.439 52.9726 312.445 55.237 297.471C57.4833 282.485 71.4925 272.151 86.4836 274.413Z" fill="url(#paint0_linear_673_8002)"/>
<path d="M104.654 295.264C108.115 307.554 100.966 320.324 88.6632 323.782C76.3601 327.24 63.5753 320.099 60.1137 307.809C56.6521 295.52 63.8011 282.749 76.1041 279.292C88.4071 275.834 101.192 282.975 104.654 295.264Z" fill="url(#paint1_linear_673_8002)"/>
<path d="M91.2535 301.538C90.5013 300.607 89.718 299.931 88.8997 299.557C88.0743 299.154 86.6256 298.669 84.5062 298.1C82.0154 297.404 80.5012 296.905 79.9452 296.591C79.3711 296.266 78.9346 295.552 78.6179 294.439C78.4257 293.774 78.4041 293.238 78.5238 292.838C78.6434 292.438 78.9223 292.185 79.3539 292.049C79.8913 291.904 80.314 291.987 80.5816 292.324C80.8492 292.661 81.1645 293.451 81.5167 294.711L81.6483 295.189L81.2863 295.292L81.8476 295.883L88.9479 293.886C88.8283 293.266 88.7221 292.827 88.6331 292.524C88.0462 290.424 87.0351 288.937 85.6002 288.063C84.1652 287.189 82.3175 286.91 80.0637 287.254L79.4231 284.997L78.8618 284.406L79.0611 285.1L76.1472 285.914L76.7876 288.171C74.4638 289.12 72.8674 290.388 72.0025 291.927C71.1376 293.466 71.0114 295.306 71.6164 297.417C72.0182 298.881 72.6879 300.111 73.5783 301.101C74.4688 302.092 75.4013 302.809 76.3689 303.224C77.3365 303.64 79.0728 304.224 81.6362 304.964C83.1656 305.398 84.1321 305.937 84.5472 306.564C84.9623 307.19 85.385 308.294 85.8333 309.886C86.0184 310.521 86.0331 311.028 85.8953 311.417C85.7575 311.806 85.449 312.066 84.97 312.198C84.4034 312.35 83.9848 312.22 83.7141 311.806C83.4434 311.392 83.0359 310.223 82.4805 308.316L82.2456 307.476L81.9968 306.578L81.4353 305.987L81.6346 306.681L74.8963 308.575L75.2949 309.963C76.1844 313.119 77.5237 315.129 79.3016 316.013C81.0905 316.879 82.9494 317.14 84.8966 316.808L85.4875 318.86L85.1255 318.963L85.6868 319.554L88.9629 318.638L88.2048 315.96C90.5548 314.928 92.1339 313.525 92.9421 311.752C93.7503 309.979 93.7987 307.818 93.0763 305.287C92.628 303.695 92.0169 302.451 91.2828 301.531L91.2535 301.538Z" fill="#B061FE"/>
<path d="M88.3872 293.295L81.2869 295.293L80.9559 294.12C80.6037 292.86 80.2884 292.071 80.0209 291.734C79.7533 291.396 79.3305 291.313 78.7931 291.459C78.3726 291.576 78.0826 291.847 77.9559 292.218C77.8362 292.618 77.8689 293.136 78.05 293.819C78.3667 294.933 78.8032 295.647 79.3774 295.971C79.9223 296.303 81.4657 296.796 83.9383 297.48C86.0467 298.068 87.5246 298.545 88.3318 298.937C89.1572 299.34 89.9335 299.987 90.6857 300.919C91.4379 301.85 92.0382 303.112 92.4793 304.675C93.2018 307.206 93.1532 309.367 92.345 311.139C91.5257 312.93 89.9466 314.333 87.6077 315.348L88.3657 318.025L85.0897 318.942L84.3106 316.177C82.3523 316.527 80.4934 316.266 78.7155 315.382C76.9377 314.498 75.5985 312.488 74.7091 309.332L74.3105 307.944L81.4107 305.947L81.8944 307.686C82.4317 309.581 82.8392 310.75 83.128 311.175C83.3987 311.589 83.8173 311.719 84.384 311.567C84.8629 311.435 85.1714 311.175 85.3092 310.786C85.447 310.397 85.4324 309.891 85.2472 309.255C84.799 307.663 84.3583 306.548 83.9432 305.922C83.5281 305.295 82.5502 304.774 81.032 304.322C78.4686 303.582 76.7323 302.998 75.7647 302.582C74.7971 302.167 73.8937 301.443 72.974 300.459C72.0836 299.469 71.425 298.221 71.0122 296.775C70.4071 294.664 70.5336 292.824 71.3985 291.285C72.2634 289.746 73.8487 288.496 76.1836 287.529L75.543 285.272L78.8189 284.355L79.4595 286.612C81.7314 286.279 83.5792 286.558 85.0141 287.432C86.4491 288.306 87.449 289.812 88.047 291.893C88.1179 292.186 88.2423 292.635 88.3618 293.255L88.3872 293.295Z" fill="white"/>
<g style="mix-blend-mode:screen" opacity="0.7">
<path style="mix-blend-mode:screen" d="M79.5431 286.638L79.5612 286.65C81.5226 286.376 83.1709 286.533 84.5018 287.17C83.1709 286.533 81.5157 286.347 79.5251 286.628L79.5431 286.638Z" fill="url(#paint2_linear_673_8002)"/>
<path style="mix-blend-mode:screen" d="M79.6978 291.487C79.8068 291.553 79.9159 291.62 79.9916 291.741C80.2592 292.078 80.5745 292.867 80.9267 294.127L81.2576 295.3L81.2798 295.263L80.9923 294.142C80.6401 292.883 80.3248 292.093 80.0573 291.756C79.9523 291.642 79.836 291.546 79.716 291.498L79.6978 291.487Z" fill="url(#paint3_linear_673_8002)"/>
<path style="mix-blend-mode:screen" d="M85.4065 310.871C85.5443 310.482 85.5297 309.975 85.3446 309.339C84.8963 307.747 84.4556 306.632 84.0587 306.017C83.8133 305.644 83.356 305.29 82.6941 304.987C83.3268 305.298 83.7477 305.629 84.0042 305.984C84.4192 306.61 84.8602 307.725 85.3084 309.317C85.4936 309.953 85.508 310.46 85.3702 310.849C85.2324 311.238 84.9241 311.498 84.4452 311.629C84.1235 311.707 83.8461 311.712 83.6241 311.627C83.8602 311.771 84.167 311.759 84.4997 311.663C84.9787 311.531 85.2869 311.271 85.4247 310.882L85.4065 310.871Z" fill="url(#paint4_linear_673_8002)"/>
<path style="mix-blend-mode:screen" d="M88.3495 298.948C87.5241 298.545 86.0754 298.061 83.9559 297.492C81.7638 296.878 80.3041 296.412 79.624 296.097C80.293 296.43 81.7528 296.896 84.0105 297.525C86.0825 298.09 87.5312 298.574 88.3677 298.959L88.3495 298.948Z" fill="url(#paint5_linear_673_8002)"/>
<path style="mix-blend-mode:screen" d="M84.3718 316.239L84.3354 316.217L85.0964 318.971L85.1185 318.934L84.3718 316.239V316.239Z" fill="url(#paint6_linear_673_8002)"/>
<path style="mix-blend-mode:screen" d="M78.784 315.474C77.0062 314.59 75.6671 312.579 74.7776 309.424L74.379 308.036L81.4318 306.034L81.4136 306.023L74.3244 308.003L74.7231 309.39C75.6125 312.546 76.9518 314.557 78.7297 315.44C78.7842 315.474 78.8386 315.507 78.8931 315.54C78.8568 315.518 78.8204 315.496 78.784 315.474Z" fill="url(#paint7_linear_673_8002)"/>
<path style="mix-blend-mode:screen" d="M75.6699 302.574C74.779 302.156 73.9301 301.465 73.0902 300.555C72.1997 299.564 71.5409 298.317 71.128 296.87C70.523 294.759 70.6495 292.92 71.5144 291.381C72.3793 289.842 73.9646 288.592 76.2994 287.625L75.6588 285.368L78.8764 284.465L78.8582 284.454L75.5935 285.353L76.2338 287.61C73.91 288.559 72.3136 289.827 71.4487 291.366C70.5838 292.905 70.4576 294.745 71.0626 296.856C71.4644 298.32 72.1341 299.549 73.0245 300.54C73.8716 301.479 74.7497 302.163 75.6588 302.593L75.6699 302.574Z" fill="url(#paint8_linear_673_8002)"/>
</g>
</g>
<g filter="url(#filter1_df_673_8002)">
<path d="M384.804 492.505C378.445 476.7 352.363 467.008 322.608 470.391C292.854 473.774 269.621 489.067 266.969 505.889L266.2 505.639L266.642 509.207C268.799 528.08 297.25 540.368 330.196 536.609C363.138 532.868 388.091 514.527 385.957 495.641L385.519 492.056L384.826 492.493L384.804 492.505Z" fill="#A249FB"/>
<path d="M384.921 486.845C385.054 487.948 385.176 488.4 385.245 489.257C385.268 489.587 385.551 491.664 385.514 492.073C383.58 509.265 359.575 525.487 329.289 528.933C298.296 532.45 271.436 521.439 266.222 505.626C266.222 505.626 265.757 501.518 265.646 500.403C263.495 481.512 288.465 463.177 321.407 459.435C354.349 455.694 382.805 467.964 384.943 486.832L384.921 486.845Z" fill="#A249FB"/>
<path d="M384.825 486.019C386.981 504.892 362.006 523.245 329.064 526.986C296.122 530.728 267.666 518.458 265.528 499.59C263.371 480.717 288.346 462.364 321.288 458.622C354.23 454.881 382.686 467.151 384.825 486.019Z" fill="#E0C4FF"/>
<path d="M375.399 487.092C377.214 502.995 356.188 518.441 328.445 521.579C300.697 524.736 276.758 514.397 274.943 498.494C273.128 482.59 294.154 467.145 321.897 464.006C349.645 460.85 373.602 471.193 375.399 487.092Z" fill="url(#paint9_linear_673_8002)"/>
<path d="M375.399 487.092C377.214 502.995 356.188 518.441 328.445 521.579C300.697 524.736 276.758 514.397 274.943 498.494C273.128 482.59 294.154 467.145 321.897 464.006C349.645 460.85 373.602 471.193 375.399 487.092Z" fill="url(#paint10_linear_673_8002)"/>
<g style="mix-blend-mode:screen" opacity="0.3">
<path d="M328.462 521.584C300.776 524.72 276.858 514.445 274.97 498.597C274.96 498.633 274.973 498.655 274.981 498.695C276.796 514.599 300.74 524.92 328.484 521.781C356.232 518.624 377.257 503.179 375.438 487.293C375.447 487.258 375.435 487.235 375.427 487.195C377.14 503.052 356.147 518.449 328.462 521.584Z" fill="#FEF0A0"/>
</g>
<path opacity="0.4" d="M322.051 465.306C349.545 462.174 373.259 471.879 375.45 487.525C375.431 487.386 375.435 487.235 375.399 487.092C373.601 471.193 349.64 460.868 321.896 464.006C294.148 467.163 273.14 482.613 274.942 498.494C274.961 498.632 274.98 498.771 274.994 498.927C273.612 483.181 294.545 468.415 322.039 465.283L322.051 465.306Z" fill="#D16A0D"/>
<g style="mix-blend-mode:multiply" opacity="0.4">
<path d="M344.278 493.068C343.109 491.851 341.754 490.963 340.171 490.412C338.612 489.848 335.706 489.122 331.494 488.226C326.528 487.16 323.516 486.405 322.479 485.948C321.403 485.499 320.797 484.589 320.631 483.191C320.54 482.347 320.716 481.711 321.156 481.223C321.609 480.757 322.32 480.459 323.286 480.345C324.506 480.205 325.322 480.354 325.753 480.797C326.183 481.239 326.48 482.235 326.655 483.807L325.599 484.315L326.837 485.285L342.856 483.461C342.875 482.704 342.862 482.13 342.827 481.777C342.526 479.143 341.071 477.237 338.43 476.033C335.813 474.815 332.005 474.317 327.008 474.537L326.69 471.688L325.448 470.736L324.793 471.793L319.306 472.544L319.623 475.393C314.246 476.365 310.281 477.746 307.753 479.58C305.213 481.392 304.097 483.635 304.392 486.287C304.61 488.118 305.432 489.697 306.879 491.01C308.327 492.323 309.97 493.272 311.828 493.861C313.681 494.467 317.14 495.327 322.233 496.485C325.283 497.174 327.101 497.904 327.719 498.703C328.319 499.497 328.73 500.905 328.962 502.892C329.05 503.678 328.856 504.31 328.368 504.765C327.88 505.221 327.11 505.523 326.011 505.638C324.75 505.785 323.908 505.591 323.507 505.042C323.106 504.494 322.768 503.029 322.497 500.632L322.371 499.569L322.243 498.449L321.005 497.479L319.563 498.49L306.206 500.268L306.408 502.018C306.854 505.987 308.769 508.572 312.149 509.79C315.524 511.026 319.377 511.499 323.693 511.262L322.851 513.753L324.071 514.718L331.451 513.879L331.06 510.535C336.515 509.489 340.499 507.904 343.047 505.789C345.595 503.675 346.69 501.026 346.326 497.86C346.112 495.878 345.412 494.276 344.238 493.076L344.278 493.068Z" fill="#B061FE"/>
</g>
<path d="M341.614 482.509L325.594 484.333L325.43 482.86C325.255 481.288 324.945 480.27 324.528 479.85C324.097 479.407 323.281 479.258 322.061 479.397C321.077 479.507 320.366 479.806 319.931 480.276C319.496 480.746 319.315 481.4 319.405 482.244C319.572 483.642 320.178 484.552 321.254 485.001C322.295 485.441 325.303 486.213 330.268 487.279C334.498 488.18 337.387 488.901 338.964 489.47C340.528 490.015 341.884 490.904 343.053 492.121C344.222 493.339 344.927 494.923 345.142 496.905C345.505 500.071 344.41 502.72 341.862 504.834C339.314 506.949 335.33 508.534 329.876 509.58L330.266 512.924L322.886 513.763L322.49 510.302C318.187 510.562 314.339 510.071 310.946 508.83C307.572 507.594 305.656 505.009 305.21 501.04L305.003 499.308L321.023 497.484L321.277 499.667C321.547 502.065 321.886 503.529 322.269 504.073C322.67 504.621 323.494 504.811 324.773 504.668C325.854 504.548 326.642 504.251 327.112 503.791C327.6 503.335 327.794 502.703 327.711 501.9C327.479 499.913 327.068 498.505 326.468 497.711C325.868 496.917 324.055 496.169 321 495.498C315.92 494.362 312.447 493.48 310.595 492.873C308.742 492.267 307.099 491.318 305.651 490.005C304.204 488.692 303.377 487.131 303.159 485.3C302.864 482.648 303.98 480.405 306.52 478.593C309.061 476.781 313.013 475.378 318.39 474.405L318.068 471.575L325.447 470.736L325.77 473.567C330.745 473.36 334.552 473.858 337.193 475.063C339.815 476.263 341.283 478.191 341.584 480.825C341.632 481.2 341.632 481.753 341.614 482.509V482.509Z" fill="white"/>
<g style="mix-blend-mode:screen" opacity="0.7">
<path style="mix-blend-mode:screen" d="M325.866 473.556L325.856 473.591C330.193 473.417 333.643 473.76 336.197 474.656C333.648 473.743 330.203 473.382 325.866 473.556Z" fill="url(#paint11_linear_673_8002)"/>
<path style="mix-blend-mode:screen" d="M324.008 479.517C324.216 479.593 324.396 479.7 324.508 479.845C324.939 480.287 325.235 481.283 325.41 482.855L325.575 484.328L325.673 484.317L325.517 482.884C325.341 481.312 325.045 480.317 324.597 479.87C324.449 479.714 324.234 479.598 323.991 479.512L324.008 479.517Z" fill="url(#paint12_linear_673_8002)"/>
<path style="mix-blend-mode:screen" d="M327.236 503.825C327.724 503.37 327.918 502.738 327.835 501.934C327.603 499.947 327.192 498.539 326.592 497.746C326.23 497.265 325.425 496.795 324.152 496.368C325.35 496.793 326.118 497.253 326.486 497.716C327.081 498.528 327.497 499.918 327.729 501.905C327.816 502.691 327.623 503.323 327.13 503.796C326.659 504.256 325.872 504.553 324.79 504.673C324.062 504.758 323.479 504.73 323.041 504.59C323.486 504.771 324.105 504.808 324.892 504.721C325.973 504.6 326.761 504.303 327.231 503.843L327.236 503.825Z" fill="url(#paint13_linear_673_8002)"/>
<path style="mix-blend-mode:screen" d="M338.951 489.447C337.392 488.884 334.485 488.158 330.255 487.257C325.848 486.307 322.996 485.596 321.674 485.136C322.938 485.599 325.831 486.302 330.362 487.286C334.503 488.163 337.369 488.896 338.951 489.447V489.447Z" fill="url(#paint14_linear_673_8002)"/>
<path style="mix-blend-mode:screen" d="M322.591 510.35C322.591 510.35 322.532 510.353 322.492 510.361L322.881 513.781L322.979 513.77L322.586 510.368L322.591 510.35Z" fill="url(#paint15_linear_673_8002)"/>
<path style="mix-blend-mode:screen" d="M311.048 508.877C307.673 507.641 305.758 505.056 305.294 501.083L305.105 499.355L321.026 497.542L321.04 497.489L305.003 499.308L305.21 501.04C305.656 505.009 307.572 507.594 310.946 508.83C311.053 508.86 311.172 508.912 311.278 508.941C311.207 508.921 311.119 508.897 311.048 508.877V508.877Z" fill="url(#paint16_linear_673_8002)"/>
<path style="mix-blend-mode:screen" d="M310.317 492.778C308.633 492.18 307.113 491.265 305.77 490.057C304.323 488.744 303.496 487.183 303.283 485.334C302.988 482.682 304.104 480.439 306.627 478.622C309.167 476.81 313.12 475.407 318.497 474.435L318.174 471.604L325.455 470.777L325.465 470.741L318.068 471.575L318.39 474.405C313.013 475.378 309.048 476.758 306.52 478.593C303.98 480.405 302.864 482.648 303.159 485.3C303.36 487.126 304.199 488.709 305.651 490.005C307.025 491.241 308.58 492.165 310.317 492.778Z" fill="url(#paint17_linear_673_8002)"/>
</g>
</g>
<g filter="url(#filter2_df_673_8002)">
<path d="M147.427 27.0412C142.721 17.8366 126.431 13.4015 108.635 17.0679C90.8392 20.7343 77.6352 31.242 76.952 41.5521L76.4734 41.4428L76.9358 43.5749C79.2699 54.8619 97.1337 60.7364 116.838 56.669C136.539 52.6125 150.616 40.1694 148.295 28.8735L147.835 26.7304L147.44 27.0323L147.427 27.0412Z" fill="#A249FB"/>
<path d="M147.188 23.6142C147.329 24.2734 147.428 24.5403 147.516 25.0542C147.548 25.2523 147.832 26.4922 147.832 26.7412C147.603 37.2353 133.983 48.3467 115.87 52.0799C97.3332 55.895 80.5006 50.7052 76.4862 41.4336C76.4862 41.4336 75.9807 38.9768 75.8529 38.3086C73.5208 27.0107 87.6084 14.5695 107.31 10.513C127.012 6.45655 144.878 12.3202 147.201 23.6052L147.188 23.6142Z" fill="#A249FB"/>
<path d="M147.085 23.1206C149.419 34.4076 135.329 46.8597 115.627 50.9162C95.9256 54.9727 78.0598 49.1091 75.7367 37.824C73.4026 26.537 87.4921 14.0849 107.194 10.0284C126.896 5.97197 144.762 11.8356 147.085 23.1206Z" fill="#E0C4FF"/>
<path d="M141.447 24.2826C143.413 33.794 131.551 44.2734 114.958 47.6824C98.3623 51.1024 83.3314 46.16 81.3659 36.6486C79.4003 27.1372 91.2622 16.6578 107.856 13.2488C124.451 9.82884 139.493 14.7732 141.447 24.2826Z" fill="url(#paint18_linear_673_8002)"/>
<path d="M141.447 24.2826C143.413 33.794 131.551 44.2734 114.958 47.6824C98.3623 51.1024 83.3314 46.16 81.3659 36.6486C79.4003 27.1372 91.2622 16.6578 107.856 13.2488C124.451 9.82884 139.493 14.7732 141.447 24.2826Z" fill="url(#paint19_linear_673_8002)"/>
<g style="mix-blend-mode:screen" opacity="0.3">
<path d="M114.969 47.6846C98.4103 51.0886 83.3952 46.183 81.3888 36.7095C81.3848 36.7314 81.3938 36.7444 81.4008 36.7683C83.3663 46.2797 98.3994 51.2111 114.993 47.8021C131.588 44.3822 143.45 33.9028 141.482 24.4023C141.486 24.3804 141.477 24.3675 141.47 24.3436C143.372 33.8321 131.527 44.2806 114.969 47.6846Z" fill="#FEF0A0"/>
</g>
<path opacity="0.4" d="M108.02 14.0255C124.463 10.6345 139.323 15.2065 141.502 24.5415C141.483 24.4589 141.477 24.3672 141.447 24.2826C139.493 14.7732 124.449 9.83977 107.855 13.2488C91.2601 16.6687 79.4092 27.1501 81.3658 36.6486C81.3847 36.7312 81.4037 36.8139 81.4207 36.9075C79.7253 27.4677 91.5684 17.4036 108.011 14.0126L108.02 14.0255Z" fill="#D16A0D"/>
<g style="mix-blend-mode:multiply" opacity="0.4">
<path d="M122.968 29.5906C122.196 28.9186 121.328 28.4558 120.342 28.2092C119.369 27.9536 117.573 27.6734 114.978 27.3616C111.919 26.9882 110.058 26.6961 109.407 26.4762C108.732 26.2633 108.316 25.7466 108.139 24.911C108.038 24.4062 108.11 24.0117 108.349 23.6929C108.597 23.3871 109.011 23.1679 109.588 23.0461C110.318 22.8955 110.819 22.9411 111.104 23.185C111.388 23.4289 111.621 24.0144 111.813 24.9545L111.203 25.3193L112.004 25.8378L121.585 23.8625C121.554 23.4044 121.515 23.0578 121.474 22.8467C121.149 21.2713 120.165 20.199 118.504 19.615C116.856 19.022 114.528 18.9282 111.52 19.3336L111.172 17.6297L110.37 17.1221L110.032 17.7965L106.757 18.5496L107.104 20.2534C103.908 21.134 101.588 22.1845 100.16 23.431C98.724 24.6644 98.1721 26.0808 98.4957 27.6672C98.7274 28.7616 99.3099 29.6707 100.256 30.3855C101.203 31.1002 102.248 31.5839 103.403 31.8384C104.555 32.1039 106.693 32.4348 109.834 32.8569C111.714 33.1072 112.853 33.4494 113.27 33.8984C113.676 34.3455 114.001 35.174 114.25 36.362C114.346 36.8321 114.263 37.2245 113.993 37.5263C113.723 37.8282 113.274 38.0525 112.616 38.1822C111.863 38.3398 111.343 38.2683 111.071 37.9586C110.799 37.649 110.514 36.7826 110.22 35.3486L110.086 34.7133L109.947 34.043L109.146 33.5244L108.33 34.2139L100.355 36.0164L100.573 37.063C101.059 39.4371 102.358 40.8947 104.467 41.4467C106.574 42.0096 108.928 42.0855 111.523 41.7071L111.151 43.2579L111.94 43.7745L116.354 42.8657L115.935 40.866C119.174 39.9366 121.495 38.7616 122.919 37.3449C124.344 35.9282 124.861 34.2678 124.468 32.3747C124.23 31.1886 123.719 30.2586 122.945 29.5976L122.968 29.5906Z" fill="#B061FE"/>
</g>
<path d="M120.782 23.3549L111.201 25.3302L111.021 24.4489C110.829 23.5088 110.587 22.9104 110.312 22.6794C110.027 22.4355 109.526 22.3899 108.796 22.5405C108.208 22.6602 107.794 22.8795 107.557 23.1873C107.32 23.4952 107.246 23.9005 107.347 24.4054C107.524 25.2409 107.94 25.7577 108.615 25.9705C109.268 26.1795 111.127 26.4826 114.186 26.8559C116.792 27.1697 118.577 27.4479 119.561 27.7055C120.536 27.9502 121.404 28.413 122.176 29.085C122.949 29.7569 123.462 30.676 123.7 31.8621C124.092 33.7552 123.576 35.4156 122.151 36.8323C120.727 38.249 118.406 39.424 115.167 40.3534L115.586 42.3531L111.172 43.2619L110.744 41.1925C108.158 41.5839 105.806 41.497 103.688 40.9321C101.581 40.3692 100.282 38.9116 99.7959 36.5375L99.576 35.5018L109.157 33.5264L109.43 34.832C109.724 36.2661 110.009 37.1324 110.27 37.44C110.542 37.7497 111.051 37.8192 111.815 37.6636C112.462 37.5319 112.922 37.3096 113.181 37.0058C113.451 36.7039 113.534 36.3115 113.44 35.8305C113.191 34.6424 112.866 33.8139 112.46 33.3669C112.054 32.9199 110.917 32.5668 109.035 32.3274C105.903 31.9182 103.756 31.5744 102.604 31.3089C101.451 31.0434 100.406 30.5597 99.4595 29.845C98.513 29.1303 97.9283 28.2321 97.6966 27.1377C97.373 25.5513 97.9249 24.1349 99.3612 22.9014C100.797 21.668 103.109 20.6045 106.305 19.7239L105.956 18.031L110.369 17.1221L110.719 18.815C113.714 18.4186 116.042 18.5124 117.703 19.0964C119.354 19.6784 120.346 20.7636 120.671 22.3391C120.721 22.5631 120.751 22.8968 120.782 23.3549V23.3549Z" fill="white"/>
<g style="mix-blend-mode:screen" opacity="0.7">
<path style="mix-blend-mode:screen" d="M110.776 18.8032L110.772 18.8251C113.383 18.4835 115.487 18.5027 117.079 18.9045C115.489 18.4918 113.387 18.4616 110.776 18.8032Z" fill="url(#paint20_linear_673_8002)"/>
<path style="mix-blend-mode:screen" d="M109.979 22.5062C110.109 22.5411 110.223 22.5958 110.299 22.6774C110.584 22.9213 110.817 23.5069 111.009 24.447L111.189 25.3283L111.247 25.3163L111.075 24.4589C110.883 23.5188 110.649 22.9333 110.354 22.6874C110.256 22.6018 110.12 22.543 109.968 22.5043L109.979 22.5062Z" fill="url(#paint21_linear_673_8002)"/>
<path style="mix-blend-mode:screen" d="M113.258 37.0197C113.528 36.7178 113.61 36.3254 113.516 35.8444C113.268 34.6563 112.942 33.8279 112.536 33.3808C112.291 33.11 111.78 32.8702 110.987 32.6813C111.734 32.8732 112.223 33.109 112.471 33.3689C112.875 33.8269 113.202 34.6444 113.451 35.8325C113.546 36.3025 113.464 36.6949 113.192 37.0078C112.933 37.3116 112.473 37.5339 111.826 37.6655C111.39 37.7563 111.036 37.7714 110.764 37.7107C111.043 37.7953 111.419 37.7842 111.89 37.6884C112.537 37.5568 112.996 37.3345 113.256 37.0306L113.258 37.0197Z" fill="url(#paint22_linear_673_8002)"/>
<path style="mix-blend-mode:screen" d="M119.551 27.6927C118.578 27.4371 116.782 27.1568 114.177 26.8431C111.462 26.5094 109.699 26.2352 108.876 26.0293C109.664 26.2402 111.451 26.5074 114.243 26.855C116.794 27.1588 118.565 27.446 119.551 27.6927V27.6927Z" fill="url(#paint23_linear_673_8002)"/>
<path style="mix-blend-mode:screen" d="M110.807 41.2158C110.807 41.2158 110.772 41.2208 110.748 41.2278L111.169 43.2731L111.227 43.2611L110.805 41.2268L110.807 41.2158Z" fill="url(#paint24_linear_673_8002)"/>
<path style="mix-blend-mode:screen" d="M103.751 40.9552C101.644 40.3922 100.346 38.9346 99.8484 36.5585L99.6396 35.5248L109.162 33.5614L109.167 33.5286L99.5757 35.5019L99.7956 36.5376C100.282 38.9118 101.581 40.3693 103.687 40.9323C103.753 40.9442 103.828 40.9691 103.894 40.981C103.85 40.9731 103.795 40.9631 103.751 40.9552V40.9552Z" fill="url(#paint25_linear_673_8002)"/>
<path style="mix-blend-mode:screen" d="M102.43 31.2662C101.38 30.9967 100.412 30.527 99.5342 29.87C98.5878 29.1553 98.0032 28.2571 97.7735 27.1517C97.4499 25.5653 98.0018 24.1489 99.4271 22.9135C100.863 21.68 103.175 20.6165 106.371 19.736L106.022 18.043L110.376 17.1461L110.38 17.1242L105.956 18.0311L106.305 19.724C103.109 20.6046 100.788 21.6551 99.3612 22.9015C97.9249 24.135 97.373 25.5514 97.6966 27.1378C97.9174 28.2302 98.511 29.1413 99.4595 29.8451C100.357 30.5171 101.347 30.9908 102.43 31.2662Z" fill="url(#paint26_linear_673_8002)"/>
</g>
</g>
<g opacity="0.5">
<path d="M109.314 330.822C112.767 331.09 115.471 333.79 115.739 337.239L116.033 341.196H116.461L116.756 337.239C117.023 333.79 119.727 331.09 123.179 330.822L127.141 330.528V330.101L123.179 329.806C119.727 329.539 117.023 326.839 116.756 323.39L116.461 319.432H116.033L115.739 323.39C115.471 326.839 112.767 329.539 109.314 329.806L105.353 330.101V330.528L109.314 330.822Z" fill="white"/>
<path d="M83.7305 196.032C85.7916 196.192 87.3977 197.797 87.5583 199.855L87.7455 202.262H88.1739L88.3615 199.855C88.5221 197.797 90.1279 196.192 92.1889 196.032L94.598 195.845V195.417L92.1889 195.23C90.1279 195.069 88.5221 193.465 88.3615 191.406L88.1739 189H87.7455L87.5583 191.406C87.3977 193.465 85.7916 195.069 83.7305 195.23L81.3218 195.417V195.845L83.7305 196.032Z" fill="white"/>
<path d="M31.9067 227.106C33.5128 227.24 34.7708 228.497 34.9046 230.101L35.0386 231.973H35.3866L35.5205 230.101C35.6544 228.497 36.9124 227.24 38.5184 227.106L40.3919 226.973V226.625L38.5184 226.491C36.9124 226.358 35.6544 225.101 35.5205 223.497L35.3866 221.625H35.0386L34.9046 223.497C34.7708 225.101 33.5128 226.358 31.9067 226.491L30.0332 226.625V226.973L31.9067 227.106Z" fill="white"/>
<path d="M76.4293 262.719C77.4464 262.799 78.2493 263.602 78.3296 264.618L78.41 265.821H78.624L78.7044 264.618C78.7847 263.602 79.5876 262.799 80.6048 262.719L81.8095 262.639V262.425L80.6048 262.345C79.5876 262.265 78.7847 261.463 78.7044 260.447L78.624 259.243H78.41L78.3296 260.447C78.2493 261.463 77.4464 262.265 76.4293 262.345L75.2246 262.425V262.639L76.4293 262.719Z" fill="white"/>
</g>
<g filter="url(#filter3_f_673_8002)">
<path d="M191.346 306.369C220.171 322.993 257.03 313.127 273.672 284.334C290.314 255.541 280.437 218.723 251.612 202.1C222.787 185.476 185.93 195.342 169.288 224.135C152.646 252.928 162.521 289.745 191.346 306.369Z" fill="url(#paint27_radial_673_8002)" style="mix-blend-mode:luminosity"/>
<path fill-rule="evenodd" clip-rule="evenodd" d="M203.4 285.515C220.695 295.489 242.811 289.57 252.796 272.294C262.781 255.019 256.855 232.928 239.56 222.954C222.265 212.979 200.15 218.899 190.165 236.174C180.18 253.45 186.105 275.541 203.4 285.515ZM258.015 275.304C246.366 295.46 220.564 302.365 200.387 290.729C180.209 279.092 173.296 253.32 184.946 233.165C196.595 213.009 222.396 206.103 242.573 217.74C262.751 229.377 269.665 255.149 258.015 275.304Z" fill="#683EE6"/>
<path fill-rule="evenodd" clip-rule="evenodd" d="M211.432 313.608C204.547 312.446 197.748 310.061 191.346 306.369C184.944 302.676 179.476 297.988 175.027 292.613C181.912 293.774 188.711 296.16 195.113 299.852C201.515 303.544 206.983 308.233 211.432 313.608Z" fill="#9D7CFF"/>
<path fill-rule="evenodd" clip-rule="evenodd" d="M280.919 264.271C275.538 268.716 270.845 274.177 267.149 280.572C263.452 286.967 261.064 293.758 259.901 300.635C265.282 296.19 269.976 290.729 273.672 284.334C277.369 277.939 279.757 271.148 280.919 264.271Z" fill="#9D7CFF"/>
<path fill-rule="evenodd" clip-rule="evenodd" d="M162.04 244.199C167.421 239.754 172.115 234.292 175.812 227.897C179.508 221.502 181.896 214.711 183.059 207.833C177.677 212.278 172.984 217.74 169.287 224.135C165.591 230.53 163.203 237.321 162.04 244.199Z" fill="#9D7CFF"/>
<path fill-rule="evenodd" clip-rule="evenodd" d="M267.932 215.856C261.047 214.694 254.249 212.309 247.846 208.617C241.444 204.924 235.977 200.236 231.527 194.86C238.412 196.022 245.211 198.407 251.613 202.1C258.015 205.792 263.483 210.48 267.932 215.856Z" fill="#9D7CFF"/>
<path d="M211.419 266.294C210.057 265.498 208.871 264.508 207.859 263.325C206.856 262.148 206.145 260.764 205.726 259.175C205.307 257.585 205.285 255.787 205.661 253.781C206.045 251.779 206.939 249.564 208.342 247.136C209.639 244.912 211.045 243.068 212.56 241.604C214.089 240.135 215.68 239.06 217.332 238.377C218.992 237.698 220.669 237.421 222.362 237.545C224.06 237.66 225.73 238.192 227.374 239.14C229.147 240.162 230.513 241.411 231.471 242.885C232.434 244.351 232.987 245.908 233.13 247.557C233.281 249.211 233.021 250.817 232.35 252.377L226.811 249.182C227.129 248.133 227.094 247.146 226.707 246.22C226.319 245.294 225.615 244.536 224.595 243.948C222.865 242.95 221.116 242.943 219.347 243.928C217.588 244.917 215.952 246.699 214.442 249.272L214.624 249.377C215.476 248.82 216.399 248.46 217.393 248.296C218.401 248.128 219.423 248.147 220.457 248.352C221.506 248.554 222.514 248.934 223.483 249.492C225.057 250.4 226.244 251.58 227.042 253.031C227.846 254.474 228.231 256.043 228.196 257.74C228.161 259.436 227.664 261.114 226.705 262.773C225.667 264.57 224.323 265.926 222.675 266.842C221.036 267.763 219.239 268.189 217.283 268.121C215.341 268.049 213.386 267.44 211.419 266.294ZM213.94 261.873C214.805 262.372 215.699 262.611 216.622 262.59C217.545 262.57 218.406 262.317 219.204 261.833C220.003 261.349 220.657 260.667 221.166 259.786C221.676 258.904 221.938 258.002 221.953 257.077C221.977 256.158 221.772 255.296 221.337 254.493C220.902 253.689 220.252 253.038 219.387 252.539C218.738 252.165 218.067 251.939 217.374 251.862C216.689 251.789 216.014 251.849 215.349 252.042C214.693 252.239 214.084 252.556 213.521 252.991C212.962 253.418 212.499 253.952 212.129 254.591C211.635 255.446 211.377 256.34 211.357 257.273C211.345 258.211 211.555 259.086 211.985 259.899C212.423 260.716 213.075 261.374 213.94 261.873Z" fill="white"/>
</g>
<g filter="url(#filter4_f_673_8002)">
<path d="M63.2742 181.603C79.4925 172.249 85.0496 151.534 75.686 135.333C66.3223 119.133 45.5837 113.583 29.3654 122.936C13.1471 132.289 7.5907 153.004 16.9544 169.205C26.318 185.405 47.0559 190.956 63.2742 181.603Z" fill="url(#paint28_radial_673_8002)" style="mix-blend-mode:luminosity"/>
<path d="M66.01 140.913C72.288 151.775 68.5625 165.665 57.6876 171.937C46.8127 178.208 32.9082 174.486 26.6303 163.624C20.3524 152.763 24.0774 138.873 34.9523 132.601C45.8272 126.33 59.7321 130.052 66.01 140.913Z" stroke="#683EE6" stroke-width="2"/>
<path fill-rule="evenodd" clip-rule="evenodd" d="M60.8339 182.883C61.578 182.358 62.3524 181.863 63.1566 181.399C63.9608 180.935 64.7775 180.513 65.6043 180.132C68.2195 178.33 70.5109 176.213 72.4564 173.863C68.5824 174.516 64.7572 175.858 61.155 177.936C57.5527 180.013 54.4764 182.651 51.9728 185.676C54.9832 185.168 57.9641 184.244 60.8339 182.883Z" fill="#9D7CFF"/>
<path fill-rule="evenodd" clip-rule="evenodd" d="M74.207 132.996C74.59 133.826 75.0144 134.645 75.4806 135.452C75.9469 136.259 76.4452 137.035 76.9729 137.782C78.3331 140.645 79.2561 143.619 79.7639 146.622C76.7361 144.121 74.0953 141.048 72.0156 137.45C69.9359 133.852 68.5921 130.031 67.9378 126.161C70.2878 128.102 72.4046 130.388 74.207 132.996Z" fill="#9D7CFF"/>
<path fill-rule="evenodd" clip-rule="evenodd" d="M24.703 178.377C24.0488 174.507 22.7051 170.686 20.6254 167.088C18.5456 163.489 15.9046 160.416 12.8767 157.916C13.3845 160.919 14.3075 163.892 15.6674 166.755C16.1954 167.502 16.6939 168.279 17.1603 169.086C17.6267 169.893 18.0511 170.713 18.4343 171.542C20.2365 174.15 22.3533 176.436 24.703 178.377Z" fill="#9D7CFF"/>
<path fill-rule="evenodd" clip-rule="evenodd" d="M31.8058 121.655C31.0617 122.18 30.2873 122.675 29.4831 123.139C28.6789 123.603 27.8621 124.025 27.0353 124.407C24.4201 126.208 22.1288 128.325 20.1833 130.676C24.0573 130.022 27.8825 128.68 31.4848 126.602C35.087 124.525 38.1633 121.887 40.667 118.862C37.6565 119.37 34.6756 120.294 31.8058 121.655Z" fill="#9D7CFF"/>
<path d="M49.2019 160.657C48.0778 161.305 46.9723 161.7 45.8856 161.84C44.801 161.973 43.8265 161.864 42.962 161.514C42.0976 161.163 41.4321 160.585 40.9657 159.778C40.6061 159.155 40.4171 158.503 40.3987 157.82C40.3824 157.129 40.5202 156.47 40.8123 155.841C41.1015 155.208 41.5221 154.667 42.0743 154.219L42.0153 154.117C41.1244 154.417 40.2538 154.403 39.4034 154.077C38.5502 153.746 37.8876 153.172 37.4156 152.356C36.9688 151.583 36.7975 150.764 36.9017 149.9C37.0031 149.032 37.3482 148.198 37.9371 147.398C38.5281 146.59 39.3272 145.896 40.3346 145.315C41.342 144.734 42.341 144.391 43.3316 144.287C44.3272 144.179 45.2268 144.299 46.0306 144.645C46.8316 144.987 47.4565 145.541 47.9053 146.306C48.3753 147.13 48.5367 147.993 48.3894 148.895C48.2422 149.796 47.8232 150.553 47.1324 151.166L47.1914 151.268C47.8462 151.02 48.518 150.93 49.207 151C49.898 151.061 50.5388 151.272 51.1293 151.631C51.722 151.983 52.2005 152.469 52.565 153.088C53.0266 153.898 53.1932 154.764 53.0649 155.687C52.9366 156.61 52.5412 157.509 51.8788 158.384C51.2184 159.251 50.3261 160.009 49.2019 160.657ZM47.8617 158.338C48.363 158.049 48.749 157.707 49.0197 157.311C49.2877 156.91 49.4336 156.489 49.4574 156.047C49.4833 155.598 49.374 155.162 49.1296 154.739C48.8795 154.306 48.5494 153.988 48.1394 153.784C47.7265 153.574 47.2779 153.483 46.7936 153.51C46.3065 153.531 45.8197 153.682 45.333 153.963C44.8512 154.241 44.4767 154.587 44.2095 155C43.9395 155.408 43.792 155.844 43.7668 156.305C43.7438 156.759 43.8573 157.203 44.1073 157.635C44.3518 158.058 44.6727 158.372 45.0702 158.577C45.4649 158.777 45.9055 158.86 46.3918 158.826C46.8754 158.787 47.3653 158.624 47.8617 158.338ZM44.0054 151.666C44.424 151.425 44.7471 151.125 44.9748 150.767C45.2025 150.409 45.3217 150.026 45.3325 149.618C45.3432 149.21 45.2348 148.809 45.0072 148.415C44.7824 148.026 44.4933 147.739 44.1397 147.554C43.7834 147.364 43.3969 147.279 42.9802 147.299C42.5607 147.314 42.1368 147.445 41.7085 147.692C41.2851 147.936 40.9596 148.238 40.7319 148.596C40.5013 148.949 40.3793 149.327 40.3658 149.731C40.3543 150.126 40.4609 150.518 40.6857 150.907C40.9133 151.301 41.2067 151.595 41.5658 151.79C41.9249 151.985 42.3167 152.073 42.7411 152.055C43.1655 152.037 43.5869 151.908 44.0054 151.666Z" fill="white"/>
</g>
<g filter="url(#filter5_f_673_8002)">
<path d="M117.48 467.049C135.918 485.467 165.814 485.468 184.253 467.049C202.692 448.631 202.692 418.768 184.253 400.35C165.814 381.931 135.919 381.932 117.48 400.35C99.0414 418.769 99.0407 448.63 117.48 467.049Z" fill="url(#paint29_radial_673_8002)" style="mix-blend-mode:luminosity"/>
<path fill-rule="evenodd" clip-rule="evenodd" d="M130.834 453.709C141.898 464.76 159.835 464.76 170.899 453.709C181.962 442.658 181.962 424.741 170.898 413.69C159.835 402.638 141.898 402.639 130.835 413.69C119.771 424.741 119.771 442.658 130.834 453.709ZM174.237 457.044C161.33 469.937 140.403 469.937 127.496 457.044C114.589 444.151 114.589 423.248 127.496 410.355C140.403 397.462 161.33 397.462 174.237 410.355C187.144 423.248 187.145 444.151 174.237 457.044Z" fill="#683EE6"/>
<path fill-rule="evenodd" clip-rule="evenodd" d="M131.21 476.595C126.235 474.322 121.575 471.139 117.479 467.049C113.384 462.958 110.198 458.302 107.922 453.333C112.897 455.607 117.557 458.789 121.653 462.88C125.748 466.971 128.934 471.626 131.21 476.595Z" fill="#9D7CFF"/>
<path fill-rule="evenodd" clip-rule="evenodd" d="M193.81 453.334C188.836 455.608 184.175 458.79 180.08 462.881C175.985 466.971 172.799 471.627 170.523 476.596C175.497 474.322 180.158 471.14 184.253 467.049C188.348 462.958 191.534 458.303 193.81 453.334Z" fill="#9D7CFF"/>
<path fill-rule="evenodd" clip-rule="evenodd" d="M107.923 414.065C112.898 411.791 117.558 408.609 121.654 404.518C125.749 400.427 128.935 395.772 131.211 390.803C126.236 393.076 121.576 396.259 117.48 400.35C113.385 404.441 110.199 409.096 107.923 414.065Z" fill="#9D7CFF"/>
<path fill-rule="evenodd" clip-rule="evenodd" d="M193.811 414.065C188.836 411.792 184.175 408.609 180.08 404.518C175.985 400.428 172.799 395.772 170.523 390.803C175.497 393.077 180.158 396.259 184.253 400.35C188.349 404.441 191.535 409.096 193.811 414.065Z" fill="#9D7CFF"/>
<path d="M136.786 436.309L157.775 429.42L157.891 429.304L149.683 421.105L152.621 418.171L164.547 430.084L161.568 433.06L140.496 440.015L136.786 436.309Z" fill="white"/>
</g>
<defs>
<filter id="filter0_f_673_8002" x="50.9258" y="270.102" width="63.2505" height="64.399" filterUnits="userSpaceOnUse" color-interpolation-filters="sRGB">
<feFlood flood-opacity="0" result="BackgroundImageFix"/>
<feBlend mode="normal" in="SourceGraphic" in2="BackgroundImageFix" result="shape"/>
<feGaussianBlur stdDeviation="2" result="effect1_foregroundBlur_673_8002"/>
</filter>
<filter id="filter1_df_673_8002" x="257.398" y="449.951" width="136.686" height="95.3345" filterUnits="userSpaceOnUse" color-interpolation-filters="sRGB">
<feFlood flood-opacity="0" result="BackgroundImageFix"/>
<feColorMatrix in="SourceAlpha" type="matrix" values="0 0 0 0 0 0 0 0 0 0 0 0 0 0 0 0 0 0 127 0" result="hardAlpha"/>
<feOffset dy="4"/>
<feGaussianBlur stdDeviation="2"/>
<feComposite in2="hardAlpha" operator="out"/>
<feColorMatrix type="matrix" values="0 0 0 0 0 0 0 0 0 0 0 0 0 0 0 0 0 0 0.25 0"/>
<feBlend mode="normal" in2="BackgroundImageFix" result="effect1_dropShadow_673_8002"/>
<feBlend mode="normal" in="SourceGraphic" in2="effect1_dropShadow_673_8002" result="shape"/>
<feGaussianBlur stdDeviation="4" result="effect2_foregroundBlur_673_8002"/>
</filter>
<filter id="filter2_df_673_8002" x="67.4839" y="0.742977" width="89.0615" height="65.2158" filterUnits="userSpaceOnUse" color-interpolation-filters="sRGB">
<feFlood flood-opacity="0" result="BackgroundImageFix"/>
<feColorMatrix in="SourceAlpha" type="matrix" values="0 0 0 0 0 0 0 0 0 0 0 0 0 0 0 0 0 0 127 0" result="hardAlpha"/>
<feOffset dy="4"/>
<feGaussianBlur stdDeviation="2"/>
<feComposite in2="hardAlpha" operator="out"/>
<feColorMatrix type="matrix" values="0 0 0 0 0 0 0 0 0 0 0 0 0 0 0 0 0 0 0.25 0"/>
<feBlend mode="normal" in2="BackgroundImageFix" result="effect1_dropShadow_673_8002"/>
<feBlend mode="normal" in="SourceGraphic" in2="effect1_dropShadow_673_8002" result="shape"/>
<feGaussianBlur stdDeviation="4" result="effect2_foregroundBlur_673_8002"/>
</filter>
<filter id="filter3_f_673_8002" x="157.203" y="190.024" width="128.553" height="128.42" filterUnits="userSpaceOnUse" color-interpolation-filters="sRGB">
<feFlood flood-opacity="0" result="BackgroundImageFix"/>
<feBlend mode="normal" in="SourceGraphic" in2="BackgroundImageFix" result="shape"/>
<feGaussianBlur stdDeviation="2" result="effect1_foregroundBlur_673_8002"/>
</filter>
<filter id="filter4_f_673_8002" x="4.40576" y="110.392" width="83.8286" height="83.7539" filterUnits="userSpaceOnUse" color-interpolation-filters="sRGB">
<feFlood flood-opacity="0" result="BackgroundImageFix"/>
<feBlend mode="normal" in="SourceGraphic" in2="BackgroundImageFix" result="shape"/>
<feGaussianBlur stdDeviation="4" result="effect1_foregroundBlur_673_8002"/>
</filter>
<filter id="filter5_f_673_8002" x="95.6509" y="378.536" width="110.431" height="110.327" filterUnits="userSpaceOnUse" color-interpolation-filters="sRGB">
<feFlood flood-opacity="0" result="BackgroundImageFix"/>
<feBlend mode="normal" in="SourceGraphic" in2="BackgroundImageFix" result="shape"/>
<feGaussianBlur stdDeviation="4" result="effect1_foregroundBlur_673_8002"/>
</filter>
<linearGradient id="paint0_linear_673_8002" x1="56.8841" y1="311.76" x2="108.043" y2="291.647" gradientUnits="userSpaceOnUse">
<stop stop-color="#F0E0FF"/>
<stop offset="0.58" stop-color="#D5ADFF"/>
<stop offset="1" stop-color="#E2C6FF"/>
</linearGradient>
<linearGradient id="paint1_linear_673_8002" x1="89.0731" y1="323.777" x2="76.5299" y2="279.263" gradientUnits="userSpaceOnUse">
<stop stop-color="#CD9BFE"/>
<stop offset="1" stop-color="#CF9FFF"/>
</linearGradient>
<linearGradient id="paint2_linear_673_8002" x1="82.6919" y1="287.795" x2="82.1846" y2="285.994" gradientUnits="userSpaceOnUse">
<stop offset="0.04" stop-color="#F8DA36"/>
<stop offset="0.11" stop-color="#F1CD21"/>
<stop offset="0.19" stop-color="#EBC412"/>
<stop offset="0.28" stop-color="#E8BE09"/>
<stop offset="0.42" stop-color="#E8BD07"/>
<stop offset="0.51" stop-color="#EFCB1B"/>
<stop offset="0.64" stop-color="#F8DB33"/>
<stop offset="0.77" stop-color="#FDE542"/>
<stop offset="0.87" stop-color="#FFE947"/>
<stop offset="1" stop-color="#FFEC63"/>
</linearGradient>
<linearGradient id="paint3_linear_673_8002" x1="81.4829" y1="295.334" x2="80.3704" y2="291.385" gradientUnits="userSpaceOnUse">
<stop offset="0.04" stop-color="#F8DA36"/>
<stop offset="0.11" stop-color="#F1CD21"/>
<stop offset="0.19" stop-color="#EBC412"/>
<stop offset="0.28" stop-color="#E8BE09"/>
<stop offset="0.42" stop-color="#E8BD07"/>
<stop offset="0.51" stop-color="#EFCB1B"/>
<stop offset="0.64" stop-color="#F8DB33"/>
<stop offset="0.77" stop-color="#FDE542"/>
<stop offset="0.87" stop-color="#FFE947"/>
<stop offset="1" stop-color="#FFEC63"/>
</linearGradient>
<linearGradient id="paint4_linear_673_8002" x1="85.1746" y1="311.539" x2="83.3012" y2="304.89" gradientUnits="userSpaceOnUse">
<stop offset="0.04" stop-color="#F8DA36"/>
<stop offset="0.11" stop-color="#F1CD21"/>
<stop offset="0.19" stop-color="#EBC412"/>
<stop offset="0.28" stop-color="#E8BE09"/>
<stop offset="0.42" stop-color="#E8BD07"/>
<stop offset="0.51" stop-color="#EFCB1B"/>
<stop offset="0.64" stop-color="#F8DB33"/>
<stop offset="0.77" stop-color="#FDE542"/>
<stop offset="0.87" stop-color="#FFE947"/>
<stop offset="1" stop-color="#FFEC63"/>
</linearGradient>
<linearGradient id="paint5_linear_673_8002" x1="85.0848" y1="299.949" x2="83.6955" y2="295.019" gradientUnits="userSpaceOnUse">
<stop offset="0.04" stop-color="#F8DA36"/>
<stop offset="0.11" stop-color="#F1CD21"/>
<stop offset="0.19" stop-color="#EBC412"/>
<stop offset="0.28" stop-color="#E8BE09"/>
<stop offset="0.42" stop-color="#E8BD07"/>
<stop offset="0.51" stop-color="#EFCB1B"/>
<stop offset="0.64" stop-color="#F8DB33"/>
<stop offset="0.77" stop-color="#FDE542"/>
<stop offset="0.87" stop-color="#FFE947"/>
<stop offset="1" stop-color="#FFEC63"/>
</linearGradient>
<linearGradient id="paint6_linear_673_8002" x1="85.5208" y1="318.948" x2="84.7541" y2="316.228" gradientUnits="userSpaceOnUse">
<stop offset="0.04" stop-color="#F8DA36"/>
<stop offset="0.11" stop-color="#F1CD21"/>
<stop offset="0.19" stop-color="#EBC412"/>
<stop offset="0.28" stop-color="#E8BE09"/>
<stop offset="0.42" stop-color="#E8BD07"/>
<stop offset="0.51" stop-color="#EFCB1B"/>
<stop offset="0.64" stop-color="#F8DB33"/>
<stop offset="0.77" stop-color="#FDE542"/>
<stop offset="0.87" stop-color="#FFE947"/>
<stop offset="1" stop-color="#FFEC63"/>
</linearGradient>
<linearGradient id="paint7_linear_673_8002" x1="80.5953" y1="315.125" x2="78.2954" y2="306.963" gradientUnits="userSpaceOnUse">
<stop offset="0.04" stop-color="#F8DA36"/>
<stop offset="0.11" stop-color="#F1CD21"/>
<stop offset="0.19" stop-color="#EBC412"/>
<stop offset="0.28" stop-color="#E8BE09"/>
<stop offset="0.42" stop-color="#E8BD07"/>
<stop offset="0.51" stop-color="#EFCB1B"/>
<stop offset="0.64" stop-color="#F8DB33"/>
<stop offset="0.77" stop-color="#FDE542"/>
<stop offset="0.87" stop-color="#FFE947"/>
<stop offset="1" stop-color="#FFEC63"/>
</linearGradient>
<linearGradient id="paint8_linear_673_8002" x1="78.5503" y1="301.857" x2="74.0369" y2="285.839" gradientUnits="userSpaceOnUse">
<stop offset="0.04" stop-color="#F8DA36"/>
<stop offset="0.11" stop-color="#F1CD21"/>
<stop offset="0.19" stop-color="#EBC412"/>
<stop offset="0.28" stop-color="#E8BE09"/>
<stop offset="0.42" stop-color="#E8BD07"/>
<stop offset="0.51" stop-color="#EFCB1B"/>
<stop offset="0.64" stop-color="#F8DB33"/>
<stop offset="0.77" stop-color="#FDE542"/>
<stop offset="0.87" stop-color="#FFE947"/>
<stop offset="1" stop-color="#FFEC63"/>
</linearGradient>
<linearGradient id="paint9_linear_673_8002" x1="328.915" y1="525.005" x2="322.341" y2="467.119" gradientUnits="userSpaceOnUse">
<stop stop-color="#F0C827"/>
<stop offset="0.08" stop-color="#E9BE25"/>
<stop offset="0.22" stop-color="#E2B424"/>
<stop offset="0.38" stop-color="#EECA46"/>
<stop offset="0.57" stop-color="#FAE168"/>
<stop offset="0.68" stop-color="#FFEA76"/>
<stop offset="0.74" stop-color="#FDE770"/>
<stop offset="0.82" stop-color="#FBE161"/>
<stop offset="0.91" stop-color="#F6D647"/>
<stop offset="1" stop-color="#F0C827"/>
</linearGradient>
<linearGradient id="paint10_linear_673_8002" x1="328.915" y1="525.005" x2="322.341" y2="467.119" gradientUnits="userSpaceOnUse">
<stop stop-color="#E1C5FF"/>
<stop offset="1" stop-color="#CD9CFE"/>
</linearGradient>
<linearGradient id="paint11_linear_673_8002" x1="331.596" y1="478.409" x2="331.34" y2="476.151" gradientUnits="userSpaceOnUse">
<stop offset="0.04" stop-color="#F8DA36"/>
<stop offset="0.11" stop-color="#F1CD21"/>
<stop offset="0.19" stop-color="#EBC412"/>
<stop offset="0.28" stop-color="#E8BE09"/>
<stop offset="0.42" stop-color="#E8BD07"/>
<stop offset="0.51" stop-color="#EFCB1B"/>
<stop offset="0.64" stop-color="#F8DB33"/>
<stop offset="0.77" stop-color="#FDE542"/>
<stop offset="0.87" stop-color="#FFE947"/>
<stop offset="1" stop-color="#FFEC63"/>
</linearGradient>
<linearGradient id="paint12_linear_673_8002" x1="325.58" y1="487.603" x2="325.016" y2="482.64" gradientUnits="userSpaceOnUse">
<stop offset="0.04" stop-color="#F8DA36"/>
<stop offset="0.11" stop-color="#F1CD21"/>
<stop offset="0.19" stop-color="#EBC412"/>
<stop offset="0.28" stop-color="#E8BE09"/>
<stop offset="0.42" stop-color="#E8BD07"/>
<stop offset="0.51" stop-color="#EFCB1B"/>
<stop offset="0.64" stop-color="#F8DB33"/>
<stop offset="0.77" stop-color="#FDE542"/>
<stop offset="0.87" stop-color="#FFE947"/>
<stop offset="1" stop-color="#FFEC63"/>
</linearGradient>
<linearGradient id="paint13_linear_673_8002" x1="326.03" y1="507.952" x2="325.079" y2="499.576" gradientUnits="userSpaceOnUse">
<stop offset="0.04" stop-color="#F8DA36"/>
<stop offset="0.11" stop-color="#F1CD21"/>
<stop offset="0.19" stop-color="#EBC412"/>
<stop offset="0.28" stop-color="#E8BE09"/>
<stop offset="0.42" stop-color="#E8BD07"/>
<stop offset="0.51" stop-color="#EFCB1B"/>
<stop offset="0.64" stop-color="#F8DB33"/>
<stop offset="0.77" stop-color="#FDE542"/>
<stop offset="0.87" stop-color="#FFE947"/>
<stop offset="1" stop-color="#FFEC63"/>
</linearGradient>
<linearGradient id="paint14_linear_673_8002" x1="331.114" y1="493.651" x2="330.407" y2="487.428" gradientUnits="userSpaceOnUse">
<stop offset="0.04" stop-color="#F8DA36"/>
<stop offset="0.11" stop-color="#F1CD21"/>
<stop offset="0.19" stop-color="#EBC412"/>
<stop offset="0.28" stop-color="#E8BE09"/>
<stop offset="0.42" stop-color="#E8BD07"/>
<stop offset="0.51" stop-color="#EFCB1B"/>
<stop offset="0.64" stop-color="#F8DB33"/>
<stop offset="0.77" stop-color="#FDE542"/>
<stop offset="0.87" stop-color="#FFE947"/>
<stop offset="1" stop-color="#FFEC63"/>
</linearGradient>
<linearGradient id="paint15_linear_673_8002" x1="323.393" y1="517.122" x2="323.002" y2="513.682" gradientUnits="userSpaceOnUse">
<stop offset="0.04" stop-color="#F8DA36"/>
<stop offset="0.11" stop-color="#F1CD21"/>
<stop offset="0.19" stop-color="#EBC412"/>
<stop offset="0.28" stop-color="#E8BE09"/>
<stop offset="0.42" stop-color="#E8BD07"/>
<stop offset="0.51" stop-color="#EFCB1B"/>
<stop offset="0.64" stop-color="#F8DB33"/>
<stop offset="0.77" stop-color="#FDE542"/>
<stop offset="0.87" stop-color="#FFE947"/>
<stop offset="1" stop-color="#FFEC63"/>
</linearGradient>
<linearGradient id="paint16_linear_673_8002" x1="314.633" y1="511.959" x2="313.466" y2="501.679" gradientUnits="userSpaceOnUse">
<stop offset="0.04" stop-color="#F8DA36"/>
<stop offset="0.11" stop-color="#F1CD21"/>
<stop offset="0.19" stop-color="#EBC412"/>
<stop offset="0.28" stop-color="#E8BE09"/>
<stop offset="0.42" stop-color="#E8BD07"/>
<stop offset="0.51" stop-color="#EFCB1B"/>
<stop offset="0.64" stop-color="#F8DB33"/>
<stop offset="0.77" stop-color="#FDE542"/>
<stop offset="0.87" stop-color="#FFE947"/>
<stop offset="1" stop-color="#FFEC63"/>
</linearGradient>
<linearGradient id="paint17_linear_673_8002" x1="316.354" y1="495.393" x2="314.063" y2="475.214" gradientUnits="userSpaceOnUse">
<stop offset="0.04" stop-color="#F8DA36"/>
<stop offset="0.11" stop-color="#F1CD21"/>
<stop offset="0.19" stop-color="#EBC412"/>
<stop offset="0.28" stop-color="#E8BE09"/>
<stop offset="0.42" stop-color="#E8BD07"/>
<stop offset="0.51" stop-color="#EFCB1B"/>
<stop offset="0.64" stop-color="#F8DB33"/>
<stop offset="0.77" stop-color="#FDE542"/>
<stop offset="0.87" stop-color="#FFE947"/>
<stop offset="1" stop-color="#FFEC63"/>
</linearGradient>
<linearGradient id="paint18_linear_673_8002" x1="115.429" y1="49.7271" x2="108.301" y2="15.1044" gradientUnits="userSpaceOnUse">
<stop stop-color="#F0C827"/>
<stop offset="0.08" stop-color="#E9BE25"/>
<stop offset="0.22" stop-color="#E2B424"/>
<stop offset="0.38" stop-color="#EECA46"/>
<stop offset="0.57" stop-color="#FAE168"/>
<stop offset="0.68" stop-color="#FFEA76"/>
<stop offset="0.74" stop-color="#FDE770"/>
<stop offset="0.82" stop-color="#FBE161"/>
<stop offset="0.91" stop-color="#F6D647"/>
<stop offset="1" stop-color="#F0C827"/>
</linearGradient>
<linearGradient id="paint19_linear_673_8002" x1="115.429" y1="49.7271" x2="108.301" y2="15.1044" gradientUnits="userSpaceOnUse">
<stop stop-color="#E1C5FF"/>
<stop offset="1" stop-color="#CD9CFE"/>
</linearGradient>
<linearGradient id="paint20_linear_673_8002" x1="114.504" y1="21.4233" x2="114.226" y2="20.0726" gradientUnits="userSpaceOnUse">
<stop offset="0.04" stop-color="#F8DA36"/>
<stop offset="0.11" stop-color="#F1CD21"/>
<stop offset="0.19" stop-color="#EBC412"/>
<stop offset="0.28" stop-color="#E8BE09"/>
<stop offset="0.42" stop-color="#E8BD07"/>
<stop offset="0.51" stop-color="#EFCB1B"/>
<stop offset="0.64" stop-color="#F8DB33"/>
<stop offset="0.77" stop-color="#FDE542"/>
<stop offset="0.87" stop-color="#FFE947"/>
<stop offset="1" stop-color="#FFEC63"/>
</linearGradient>
<linearGradient id="paint21_linear_673_8002" x1="111.371" y1="27.3072" x2="110.759" y2="24.3388" gradientUnits="userSpaceOnUse">
<stop offset="0.04" stop-color="#F8DA36"/>
<stop offset="0.11" stop-color="#F1CD21"/>
<stop offset="0.19" stop-color="#EBC412"/>
<stop offset="0.28" stop-color="#E8BE09"/>
<stop offset="0.42" stop-color="#E8BD07"/>
<stop offset="0.51" stop-color="#EFCB1B"/>
<stop offset="0.64" stop-color="#F8DB33"/>
<stop offset="0.77" stop-color="#FDE542"/>
<stop offset="0.87" stop-color="#FFE947"/>
<stop offset="1" stop-color="#FFEC63"/>
</linearGradient>
<linearGradient id="paint22_linear_673_8002" x1="112.754" y1="39.5791" x2="111.723" y2="34.5691" gradientUnits="userSpaceOnUse">
<stop offset="0.04" stop-color="#F8DA36"/>
<stop offset="0.11" stop-color="#F1CD21"/>
<stop offset="0.19" stop-color="#EBC412"/>
<stop offset="0.28" stop-color="#E8BE09"/>
<stop offset="0.42" stop-color="#E8BD07"/>
<stop offset="0.51" stop-color="#EFCB1B"/>
<stop offset="0.64" stop-color="#F8DB33"/>
<stop offset="0.77" stop-color="#FDE542"/>
<stop offset="0.87" stop-color="#FFE947"/>
<stop offset="1" stop-color="#FFEC63"/>
</linearGradient>
<linearGradient id="paint23_linear_673_8002" x1="115.045" y1="30.66" x2="114.279" y2="26.9379" gradientUnits="userSpaceOnUse">
<stop offset="0.04" stop-color="#F8DA36"/>
<stop offset="0.11" stop-color="#F1CD21"/>
<stop offset="0.19" stop-color="#EBC412"/>
<stop offset="0.28" stop-color="#E8BE09"/>
<stop offset="0.42" stop-color="#E8BD07"/>
<stop offset="0.51" stop-color="#EFCB1B"/>
<stop offset="0.64" stop-color="#F8DB33"/>
<stop offset="0.77" stop-color="#FDE542"/>
<stop offset="0.87" stop-color="#FFE947"/>
<stop offset="1" stop-color="#FFEC63"/>
</linearGradient>
<linearGradient id="paint24_linear_673_8002" x1="111.66" y1="45.2637" x2="111.236" y2="43.2068" gradientUnits="userSpaceOnUse">
<stop offset="0.04" stop-color="#F8DA36"/>
<stop offset="0.11" stop-color="#F1CD21"/>
<stop offset="0.19" stop-color="#EBC412"/>
<stop offset="0.28" stop-color="#E8BE09"/>
<stop offset="0.42" stop-color="#E8BD07"/>
<stop offset="0.51" stop-color="#EFCB1B"/>
<stop offset="0.64" stop-color="#F8DB33"/>
<stop offset="0.77" stop-color="#FDE542"/>
<stop offset="0.87" stop-color="#FFE947"/>
<stop offset="1" stop-color="#FFEC63"/>
</linearGradient>
<linearGradient id="paint25_linear_673_8002" x1="106.086" y1="42.6219" x2="104.821" y2="36.4732" gradientUnits="userSpaceOnUse">
<stop offset="0.04" stop-color="#F8DA36"/>
<stop offset="0.11" stop-color="#F1CD21"/>
<stop offset="0.19" stop-color="#EBC412"/>
<stop offset="0.28" stop-color="#E8BE09"/>
<stop offset="0.42" stop-color="#E8BD07"/>
<stop offset="0.51" stop-color="#EFCB1B"/>
<stop offset="0.64" stop-color="#F8DB33"/>
<stop offset="0.77" stop-color="#FDE542"/>
<stop offset="0.87" stop-color="#FFE947"/>
<stop offset="1" stop-color="#FFEC63"/>
</linearGradient>
<linearGradient id="paint26_linear_673_8002" x1="106.221" y1="32.5177" x2="103.737" y2="20.4481" gradientUnits="userSpaceOnUse">
<stop offset="0.04" stop-color="#F8DA36"/>
<stop offset="0.11" stop-color="#F1CD21"/>
<stop offset="0.19" stop-color="#EBC412"/>
<stop offset="0.28" stop-color="#E8BE09"/>
<stop offset="0.42" stop-color="#E8BD07"/>
<stop offset="0.51" stop-color="#EFCB1B"/>
<stop offset="0.64" stop-color="#F8DB33"/>
<stop offset="0.77" stop-color="#FDE542"/>
<stop offset="0.87" stop-color="#FFE947"/>
<stop offset="1" stop-color="#FFEC63"/>
</linearGradient>
<radialGradient id="paint27_radial_673_8002" cx="0" cy="0" r="1" gradientUnits="userSpaceOnUse" gradientTransform="translate(234.118 233.184) rotate(80.4697) scale(85.2623 85.3515)">
<stop stop-color="#A381FF"/>
<stop offset="0.234375" stop-color="#8D62FF"/>
<stop offset="0.83" stop-color="#3C13C9"/>
<stop offset="1" stop-color="#7859FF"/>
</radialGradient>
<radialGradient id="paint28_radial_673_8002" cx="0" cy="0" r="1" gradientUnits="userSpaceOnUse" gradientTransform="translate(39.6067 140.196) rotate(20.4593) scale(48.0178 47.9776)">
<stop stop-color="#A381FF"/>
<stop offset="0.234375" stop-color="#8D62FF"/>
<stop offset="0.83" stop-color="#3C13C9"/>
<stop offset="1" stop-color="#7859FF"/>
</radialGradient>
<radialGradient id="paint29_radial_673_8002" cx="0" cy="0" r="1" gradientUnits="userSpaceOnUse" gradientTransform="translate(164.703 420.329) rotate(95.4861) scale(66.7973 66.8699)">
<stop stop-color="#A381FF"/>
<stop offset="0.234375" stop-color="#8D62FF"/>
<stop offset="0.83" stop-color="#3C13C9"/>
<stop offset="1" stop-color="#7859FF"/>
</radialGradient>
</defs>
</svg>
