<svg width="21" height="17" viewBox="0 0 21 17" fill="none" xmlns="http://www.w3.org/2000/svg">
<path d="M6.3335 15.5778C6.3335 14.7923 6.97025 14.1555 7.75572 14.1555C8.54119 14.1555 9.17794 14.7923 9.17794 15.5778C9.17794 16.3632 8.54119 17 7.75572 17C6.97025 17 6.3335 16.3632 6.3335 15.5778Z" fill="currentColor"/>
<path d="M14.8667 15.5778C14.8667 14.7923 15.5034 14.1555 16.2889 14.1555C17.0744 14.1555 17.7111 14.7923 17.7111 15.5778C17.7111 16.3632 17.0744 17 16.2889 17C15.5034 17 14.8667 16.3632 14.8667 15.5778Z" fill="currentColor"/>
<path d="M1 1H2.78426C2.99403 1 3.18149 1.13093 3.2537 1.32788L6.56357 10.3552C6.85242 11.1429 7.60227 11.6667 8.44134 11.6667H15.9142C16.775 11.6667 17.5393 11.1158 17.8116 10.2991L19.9808 3.79145C20.0887 3.46768 19.8477 3.13333 19.5064 3.13333H8.46667" stroke="currentColor" stroke-width="1.5" stroke-linecap="round" stroke-linejoin="round"/>
</svg>
