<svg width="39" height="41" viewBox="0 0 39 41" fill="none" xmlns="http://www.w3.org/2000/svg">
<path fill-rule="evenodd" clip-rule="evenodd" d="M32.0204 13.7329C31.5161 13.1386 30.6714 12.4943 29.5954 12.3532L29.189 11.4919C30.2218 11.6258 31.3672 12.5471 31.764 13.2757L32.0049 13.741L32.0126 13.737L32.0204 13.7329Z" fill="url(#paint0_linear_111_4531)"/>
<path style="mix-blend-mode:screen" opacity="0.5" fill-rule="evenodd" clip-rule="evenodd" d="M30.1642 12.2554C30.9552 12.6817 31.3735 12.9961 31.8104 13.5172C31.2992 12.9854 30.5307 12.4885 29.5877 12.3572L29.1812 11.4959C29.4356 11.5314 29.6945 11.6137 29.9459 11.7195C29.829 11.7407 29.7052 11.8244 29.7734 11.9563C29.8417 12.0881 30.0856 12.2174 30.1565 12.2594L30.1642 12.2554Z" fill="url(#paint1_radial_111_4531)"/>
<path fill-rule="evenodd" clip-rule="evenodd" d="M13.5743 14.4516L12.5061 23.804C11.07 23.5936 3.45282 20.9391 4.36838 12.9636L4.42788 12.4707L4.71471 12.0371C5.17369 11.3473 6.40044 10.5452 7.43859 10.4994C7.2409 13.1187 8.20623 13.73 9.94909 13.8111L13.6263 13.9823L13.5743 14.4516ZM6.41197 14.4424C7.10644 15.2333 8.14795 15.7069 9.45704 15.7667L11.9033 15.877L11.3011 21.134C8.19159 19.6662 6.61556 17.552 6.41197 14.4424Z" fill="#BC7800"/>
<path fill-rule="evenodd" clip-rule="evenodd" d="M22.7183 14.8705L22.928 24.2792C24.3836 24.2042 32.2059 22.2593 32.0312 14.2287L32.0203 13.7329L31.7795 13.2676C31.3749 12.543 30.2295 11.6218 29.1967 11.4878C29.1474 14.1089 28.1316 14.6347 26.3887 14.5536L22.7115 14.3824L22.7221 14.8587L22.7183 14.8705ZM29.8466 15.5167C29.0796 16.2382 28.007 16.6164 26.6979 16.5566L24.2517 16.4463L24.3647 21.7363C27.5973 20.5547 29.3586 18.6009 29.8466 15.5167Z" fill="#BC7800"/>
<path fill-rule="evenodd" clip-rule="evenodd" d="M13.5742 14.4517L12.5061 23.804C11.0699 23.5937 3.45278 20.9392 4.36834 12.9636L4.42784 12.4707C4.97859 11.9202 5.88075 11.3648 6.96971 11.3222C6.89666 13.0806 7.82603 14.1923 9.63923 14.2763L13.586 14.4554L13.5742 14.4517ZM11.9032 15.877L9.457 15.7667C7.69461 15.6859 6.41766 14.8524 5.82091 13.5096C5.64356 16.1871 6.58073 18.4156 8.58079 20.1333C9.35546 20.7942 10.2536 21.3518 11.189 21.7722L11.2243 21.7834L11.9032 15.877Z" fill="url(#paint2_linear_111_4531)"/>
<path fill-rule="evenodd" clip-rule="evenodd" d="M13.5742 14.4516L13.6262 13.9823L9.94903 13.8111C8.20617 13.73 7.24084 13.1187 7.43853 10.4994L6.95792 11.3184C6.88488 13.0768 7.81425 14.1885 9.62745 14.2725L13.5742 14.4516Z" fill="url(#paint3_linear_111_4531)"/>
<path fill-rule="evenodd" clip-rule="evenodd" d="M6.41196 14.4424C6.16985 14.1646 5.97026 13.855 5.82094 13.5095C5.64359 16.1871 6.58076 18.4156 8.58082 20.1333C9.37528 20.8134 10.2695 21.3632 11.2243 21.7834L11.3011 21.134C8.19158 19.6662 6.61555 17.552 6.41196 14.4424Z" fill="url(#paint4_linear_111_4531)"/>
<path fill-rule="evenodd" clip-rule="evenodd" d="M4.41611 12.467C4.96686 11.9164 5.86901 11.361 6.95797 11.3184L7.43858 10.4994C6.39642 10.5374 5.17369 11.3473 4.7147 12.0371L4.42787 12.4707L4.41611 12.467Z" fill="url(#paint5_linear_111_4531)"/>
<path fill-rule="evenodd" clip-rule="evenodd" d="M22.7183 14.8705L22.928 24.2792C24.3836 24.2042 32.2059 22.2594 32.0312 14.2287L32.0203 13.7329C31.516 13.1386 30.6713 12.4943 29.5954 12.3531C29.5106 14.1078 28.4783 15.1337 26.6651 15.0497L22.7183 14.8705ZM24.2517 16.4463L26.6979 16.5566C28.4603 16.6374 29.8133 15.9273 30.5256 14.6442C30.4617 17.3319 29.3198 19.4567 27.1621 20.9865C26.3268 21.5761 25.3883 22.0423 24.4128 22.38L24.3817 22.3961L24.2517 16.4463Z" fill="url(#paint6_linear_111_4531)"/>
<path fill-rule="evenodd" clip-rule="evenodd" d="M22.7183 14.8705L22.7078 14.3942L26.385 14.5654C28.1279 14.6465 29.1437 14.1207 29.1929 11.4996L29.5994 12.3609C29.5146 14.1155 28.4823 15.1414 26.6691 15.0574L22.7223 14.8783L22.7183 14.8705Z" fill="url(#paint7_linear_111_4531)"/>
<path fill-rule="evenodd" clip-rule="evenodd" d="M29.8506 15.5245C30.1126 15.2709 30.3468 14.9825 30.5296 14.6519C30.4657 17.3396 29.3238 19.4644 27.1661 20.9942C26.3193 21.5996 25.369 22.062 24.3817 22.396L24.3687 21.7441C27.6014 20.5624 29.3626 18.6086 29.8506 15.5245Z" fill="url(#paint8_linear_111_4531)"/>
<path fill-rule="evenodd" clip-rule="evenodd" d="M23.3193 32.9941L23.2258 34.9598C23.1808 35.9367 20.4527 36.6114 17.1389 36.4586C13.8252 36.3057 11.1763 35.386 11.2212 34.409L11.3148 32.4434L23.3116 32.9981L23.3193 32.9941Z" fill="url(#paint9_linear_111_4531)"/>
<path fill-rule="evenodd" clip-rule="evenodd" d="M23.3193 32.9941C23.2744 33.971 20.5463 34.6457 17.2325 34.4929C13.9187 34.34 11.2698 33.4203 11.3147 32.4434C11.3987 30.6302 12.9607 30.3428 14.6568 29.5927C15.4253 29.2539 16.0662 28.7255 16.1079 27.7994L16.1627 26.6896L17.5929 26.7555L19.0232 26.8214L18.9684 27.9313C18.9267 28.8574 19.5168 29.4466 20.2489 29.8543C21.8665 30.7572 23.3996 31.1927 23.3116 32.9981L23.3193 32.9941Z" fill="url(#paint10_linear_111_4531)"/>
<path style="mix-blend-mode:multiply" fill-rule="evenodd" clip-rule="evenodd" d="M11.9478 32.4697C12.0317 30.6565 13.4335 30.3635 14.9499 29.6081C15.6363 29.2627 16.2146 28.7274 16.2604 27.809C16.2747 27.4378 16.293 27.0744 16.3151 26.6991L16.1627 26.6896L16.1079 27.7994C16.0662 28.7255 15.4253 29.2539 14.6568 29.5927C12.9607 30.3428 11.3987 30.6302 11.3147 32.4434C11.303 32.7247 11.5179 33.0068 11.9081 33.2669C11.9201 33.0051 11.928 32.7355 11.9478 32.4697Z" fill="url(#paint11_radial_111_4531)"/>
<path style="mix-blend-mode:multiply" fill-rule="evenodd" clip-rule="evenodd" d="M19.8229 29.829C21.1905 30.7237 22.4772 31.1392 22.3932 32.9524C22.378 33.265 22.3669 33.5854 22.3518 33.898C22.9497 33.6475 23.3007 33.338 23.3193 32.9941C23.4033 31.1809 21.8743 30.7532 20.2566 29.8502C19.5246 29.4426 18.9344 28.8534 18.9762 27.9272L19.0309 26.8174L18.8082 26.8049C18.7938 27.1761 18.7755 27.5395 18.7534 27.9147C18.7117 28.8409 19.2079 29.4197 19.8229 29.829Z" fill="url(#paint12_radial_111_4531)"/>
<path style="mix-blend-mode:screen" opacity="0.5" fill-rule="evenodd" clip-rule="evenodd" d="M21.6 32.9205C21.684 31.1073 20.5965 30.6969 19.4517 29.8147C18.9306 29.4158 18.5242 28.8396 18.5659 27.9135C18.5803 27.5423 18.5986 27.1788 18.6207 26.8036L18.2105 26.7898C18.1961 27.161 18.1778 27.5245 18.1557 27.8997C18.114 28.8258 18.3524 29.4005 18.6585 29.7828C19.3305 30.6443 19.9764 31.0375 19.8884 32.8429C19.8608 33.3783 19.8409 33.9097 19.8132 34.4451C20.4606 34.3853 21.049 34.2872 21.5431 34.1593C21.5647 33.745 21.5785 33.3348 21.6 32.9205Z" fill="url(#paint13_radial_111_4531)"/>
<path style="mix-blend-mode:screen" fill-rule="evenodd" clip-rule="evenodd" d="M16.1173 32.6613C16.2013 30.8481 16.5246 30.5038 16.892 29.6942C17.0588 29.3326 17.2033 28.776 17.2528 27.8459C17.2672 27.4747 17.2855 27.1113 17.3076 26.7361L16.7331 26.7089C16.7188 27.0801 16.7005 27.4436 16.6784 27.8188C16.6366 28.7449 16.2381 29.2855 15.7744 29.6435C14.7426 30.4233 13.7982 30.745 13.7102 32.5505C13.6894 33.0233 13.6687 33.4961 13.648 33.9689C14.334 34.1546 15.1484 34.3033 16.0322 34.3964C16.0553 33.8142 16.0825 33.2398 16.1133 32.6536L16.1173 32.6613Z" fill="url(#paint14_radial_111_4531)"/>
<path style="mix-blend-mode:multiply" opacity="0.5" fill-rule="evenodd" clip-rule="evenodd" d="M11.3148 32.4434L11.2212 34.409C11.2095 34.6904 11.4243 34.9725 11.8146 35.2326L11.9082 33.2669C11.5179 33.0068 11.2953 32.7288 11.3148 32.4434Z" fill="url(#paint15_linear_111_4531)"/>
<path style="mix-blend-mode:multiply" opacity="0.5" fill-rule="evenodd" clip-rule="evenodd" d="M22.3517 33.898L22.2581 35.8637C22.856 35.6132 23.2071 35.3037 23.2257 34.9597L23.3193 32.9941C23.3047 33.3458 22.9496 33.6475 22.3517 33.898Z" fill="url(#paint16_linear_111_4531)"/>
<path style="mix-blend-mode:screen" opacity="0.75" fill-rule="evenodd" clip-rule="evenodd" d="M15.9427 36.3698L16.0363 34.4042C15.1524 34.3111 14.338 34.1624 13.652 33.9767L13.5584 35.9423C14.2444 36.128 15.0588 36.2767 15.9427 36.3698Z" fill="url(#paint17_linear_111_4531)"/>
<path style="mix-blend-mode:multiply" fill-rule="evenodd" clip-rule="evenodd" d="M22.7183 14.8705L22.928 24.2792C23.3027 24.2623 24.0857 24.1224 25.0494 23.7809C25.6597 23.0226 26.1986 22.1832 26.6551 21.3177C25.9543 21.7493 25.1939 22.1036 24.4165 22.3683L24.3855 22.3843L24.2554 16.4346L26.7017 16.5449C27.3582 16.5786 27.9546 16.4961 28.4832 16.3208C28.5126 16.1876 28.5342 16.0584 28.5676 15.933L28.8921 14.2804C28.3919 14.8146 27.6498 15.0906 26.6729 15.0457L22.7261 14.8665L22.7183 14.8705Z" fill="url(#paint18_radial_111_4531)"/>
<path style="mix-blend-mode:screen" opacity="0.35" fill-rule="evenodd" clip-rule="evenodd" d="M19.8132 34.4451L19.7196 36.4107C20.367 36.3509 20.9554 36.2529 21.4495 36.1249L21.5431 34.1592C21.0489 34.2872 20.4606 34.3853 19.8132 34.4451Z" fill="url(#paint19_linear_111_4531)"/>
<path style="mix-blend-mode:multiply" fill-rule="evenodd" clip-rule="evenodd" d="M18.9876 27.6264C18.9791 27.8569 18.3322 27.9558 17.5457 27.8418C16.7591 27.7278 16.1303 27.4437 16.1348 27.2054L16.1677 26.4903L19.0205 26.9113L18.9876 27.6264Z" fill="url(#paint20_radial_111_4531)"/>
<path fill-rule="evenodd" clip-rule="evenodd" d="M9.22019 12.517L18.2314 12.926L27.2466 13.3428L26.821 15.8637C25.9653 20.8587 23.007 27.6991 17.5715 27.4549C12.1436 27.2066 9.82246 20.1198 9.42764 15.0642L9.22795 12.5129L9.22019 12.517Z" fill="url(#paint21_linear_111_4531)"/>
<path style="mix-blend-mode:screen" opacity="0.75" fill-rule="evenodd" clip-rule="evenodd" d="M9.56013 12.5278L16.8402 12.8595L24.1203 13.1912L23.8035 15.3903C23.177 19.7456 20.8628 25.7217 16.4782 25.5136C12.0976 25.3132 10.133 19.143 9.75518 14.7471L9.56788 12.5238L9.56013 12.5278Z" fill="url(#paint22_radial_111_4531)"/>
<path style="mix-blend-mode:screen" opacity="0.75" fill-rule="evenodd" clip-rule="evenodd" d="M10.115 12.5552L15.6758 12.8133L21.2365 13.0714L20.9892 14.9298C20.4901 18.6195 18.7019 23.6744 15.3568 23.5181C12.0118 23.3618 10.537 18.1572 10.2624 14.4355L10.1268 12.5589L10.115 12.5552Z" fill="url(#paint23_radial_111_4531)"/>
<path style="mix-blend-mode:multiply" fill-rule="evenodd" clip-rule="evenodd" d="M17.5597 27.4511C12.7063 27.23 10.6587 20.1589 10.3342 15.1062C10.2794 14.2595 10.2247 13.4129 10.1658 12.5584L9.2202 12.517L9.41989 15.0682C9.81471 20.1239 12.1319 27.2029 17.5637 27.4589L17.5597 27.4511Z" fill="url(#paint24_radial_111_4531)"/>
<path style="mix-blend-mode:multiply" opacity="0.75" fill-rule="evenodd" clip-rule="evenodd" d="M25.6448 15.8137C24.8712 20.8154 22.2646 27.6704 17.5597 27.4511C22.9875 27.6994 25.9575 20.8627 26.8092 15.8599L27.2348 13.339L26.0351 13.2816C25.9102 14.123 25.7735 14.9606 25.6486 15.802L25.6448 15.8137Z" fill="url(#paint25_radial_111_4531)"/>
<path style="mix-blend-mode:screen" opacity="0.6" fill-rule="evenodd" clip-rule="evenodd" d="M17.5597 27.4511C21.4362 27.6273 23.648 20.7505 24.324 15.7502C24.4372 14.9051 24.5543 14.0677 24.6675 13.2226L22.0883 13.1024C22.0025 13.9433 21.9206 14.7918 21.8347 15.6327C21.3347 20.6501 19.8848 27.5553 17.5597 27.4511Z" fill="url(#paint26_radial_111_4531)"/>
<path style="mix-blend-mode:screen" fill-rule="evenodd" clip-rule="evenodd" d="M17.5597 27.4511C16.4734 27.4038 16.2663 20.4125 16.3678 15.385C16.3834 14.5413 16.4067 13.6935 16.4222 12.8498L12.8153 12.6815C12.8388 13.5247 12.8663 14.3756 12.8821 15.2229C13.0228 20.2625 14.289 27.3055 17.5479 27.4474L17.5597 27.4511Z" fill="url(#paint27_radial_111_4531)"/>
<path fill-rule="evenodd" clip-rule="evenodd" d="M18.0955 15.7787C13.8243 15.5807 10.2752 14.5173 9.28512 13.2502C8.76424 12.5858 8.95224 10.6696 8.99022 9.75526L18.3571 10.1867L27.724 10.618C27.6825 11.5637 27.6895 13.4576 27.1123 14.071C26.0078 15.2424 22.3745 15.9727 18.1033 15.7747L18.0955 15.7787Z" fill="url(#paint28_radial_111_4531)"/>
<path style="mix-blend-mode:screen" fill-rule="evenodd" clip-rule="evenodd" d="M17.0525 15.473C13.475 15.1716 10.4929 14.1589 9.66913 13.0613C9.23145 12.4816 9.38878 10.8861 9.42092 10.1124L17.268 10.7798L25.1152 11.4473C25.0833 12.2405 25.0899 13.8298 24.6009 14.3287C23.6769 15.2789 20.63 15.7745 17.0525 15.473Z" fill="url(#paint29_radial_111_4531)"/>
<path style="mix-blend-mode:screen" fill-rule="evenodd" clip-rule="evenodd" d="M15.8823 15.0169C13.0186 14.6508 10.6393 13.739 9.97818 12.8227C9.63172 12.3433 9.75437 11.0606 9.78094 10.4471L16.0484 11.2538L22.3159 12.0605C22.2896 12.6935 22.2918 13.9705 21.9028 14.3586C21.167 15.0836 18.7343 15.3792 15.8706 15.0131L15.8823 15.0169Z" fill="url(#paint30_radial_111_4531)"/>
<path style="mix-blend-mode:multiply" opacity="0.75" fill-rule="evenodd" clip-rule="evenodd" d="M27.7122 10.6143C27.6816 11.2201 27.0603 11.7481 26.0118 12.1728L25.918 13.2832L25.7879 14.8745C26.3743 14.6398 26.8158 14.372 27.1005 14.0673L27.116 14.0593C27.6812 13.4226 27.6667 11.5522 27.7122 10.6143Z" fill="url(#paint31_radial_111_4531)"/>
<path style="mix-blend-mode:multiply" opacity="0.75" fill-rule="evenodd" clip-rule="evenodd" d="M10.2753 12.5608L10.2813 11.3188C9.47437 10.8615 9.00248 10.3487 8.98736 9.82557C8.93788 10.7557 8.77579 12.57 9.27313 13.2269L9.28116 13.2424C9.38442 13.366 9.50721 13.4892 9.66128 13.6159C9.81937 13.7504 10.0125 13.8766 10.2251 14.0025L10.2645 14.0215L10.279 12.549L10.2753 12.5608Z" fill="url(#paint32_radial_111_4531)"/>
<path style="mix-blend-mode:screen" opacity="0.65" fill-rule="evenodd" clip-rule="evenodd" d="M21.9477 13.0966L21.8318 15.703C22.5378 15.6424 23.1965 15.5473 23.7963 15.4335C24.0027 15.3954 24.1974 15.3536 24.3803 15.3081L24.476 13.2136L24.5028 12.6196C23.7477 12.7942 22.8903 12.9233 21.9503 13.0068L21.9477 13.0966Z" fill="url(#paint33_radial_111_4531)"/>
<path style="mix-blend-mode:screen" fill-rule="evenodd" clip-rule="evenodd" d="M16.4939 12.9503C15.215 12.8158 14.0444 12.6057 13.0137 12.3428L12.8912 15.0313C13.9142 15.2982 15.0965 15.5121 16.3754 15.6465L16.5017 12.9462L16.4939 12.9503Z" fill="url(#paint34_radial_111_4531)"/>
<g style="mix-blend-mode:screen" opacity="0.75">
<path fill-rule="evenodd" clip-rule="evenodd" d="M18.4542 7.35398C23.5694 7.58707 27.6599 9.10759 27.5812 10.7411C27.5025 12.3746 23.3007 13.5072 18.1855 13.2742C13.0703 13.0411 8.97976 11.5205 9.05846 9.88706C9.13716 8.25357 13.339 7.12089 18.4582 7.36173L18.4542 7.35398Z" fill="#FFFCE4"/>
</g>
<path fill-rule="evenodd" clip-rule="evenodd" d="M18.4847 7.29888C23.6507 7.53517 27.7837 9.02385 27.7163 10.622C27.641 12.2242 23.3919 13.3224 18.2218 13.0784C13.0558 12.8421 8.9228 11.3534 8.99027 9.75524C9.0655 8.15304 13.3147 7.05484 18.4847 7.29888Z" fill="url(#paint35_radial_111_4531)"/>
<path fill-rule="evenodd" clip-rule="evenodd" d="M18.4759 7.50992C23.3293 7.73105 27.2103 9.07486 27.1407 10.5169C27.0788 11.9549 23.0858 12.9401 18.2401 12.715C13.3867 12.4939 9.50569 11.15 9.57535 9.70804C9.63725 8.27005 13.6302 7.28478 18.4759 7.50992Z" fill="url(#paint36_radial_111_4531)"/>
<path style="mix-blend-mode:screen" fill-rule="evenodd" clip-rule="evenodd" d="M16.9749 7.68708C20.5622 7.85562 23.5736 9.00071 24.7424 10.4801C25.0923 10.9282 25.2786 11.402 25.2581 11.8944C25.2587 11.9334 25.2514 11.9765 25.248 12.0078C26.3636 11.6368 27.0558 11.1507 27.1378 10.5872C27.1412 10.5559 27.1487 10.5323 27.1444 10.5051C27.2063 9.06707 23.333 7.71925 18.4797 7.49812C14.4235 7.31661 10.9765 7.97012 9.90948 9.02383C11.478 8.08417 14.0673 7.54028 16.9786 7.67532L16.9749 7.68708Z" fill="url(#paint37_radial_111_4531)"/>
<path style="mix-blend-mode:multiply" fill-rule="evenodd" clip-rule="evenodd" d="M22.0582 12.6264C21.7753 11.6619 20.525 10.7851 18.7323 10.2087C17.5633 9.83065 16.1616 9.57297 14.6455 9.51216C13.1332 9.43958 11.7134 9.56487 10.5143 9.83157C10.2068 9.90226 9.91105 9.97669 9.63509 10.0704C10.1647 11.3595 13.7892 12.5116 18.2401 12.715C19.6078 12.7739 20.9 12.7442 22.0622 12.6342L22.0582 12.6264Z" fill="url(#paint38_radial_111_4531)"/>
<path style="mix-blend-mode:screen" fill-rule="evenodd" clip-rule="evenodd" d="M14.5568 31.3749C15.5273 31.5215 16.2987 31.9481 16.2844 32.3192C16.27 32.6904 15.4681 32.8696 14.4975 32.723C13.527 32.5765 12.7556 32.1499 12.7699 31.7787C12.7843 31.4075 13.5862 31.2284 14.5568 31.3749Z" fill="url(#paint39_radial_111_4531)"/>
<path style="mix-blend-mode:screen" opacity="0.5" fill-rule="evenodd" clip-rule="evenodd" d="M4.86016 12.945C5.08624 12.3561 6.43904 11.9115 6.77236 12.2895C6.97862 12.5171 7.11516 13.0658 7.67609 13.5227C7.1574 13.0144 6.91249 12.2563 6.94619 11.3147C5.86498 11.3533 4.96684 11.9164 4.40432 12.4632L4.34482 12.9561C4.07032 15.389 4.58166 17.3267 5.46996 18.8529C4.50131 16.8865 4.44459 13.9467 4.84063 12.9453L4.86016 12.945Z" fill="url(#paint40_radial_111_4531)"/>
<path style="mix-blend-mode:screen" opacity="0.5" fill-rule="evenodd" clip-rule="evenodd" d="M6.3974 11.1661C5.5666 11.5175 5.12916 11.7931 4.6399 12.2724C5.19949 11.796 6.00567 11.3591 6.95798 11.3184L7.43859 10.4994C7.18881 10.5107 6.92006 10.5613 6.65586 10.6587C6.76953 10.6884 6.88803 10.7844 6.80382 10.9066C6.71962 11.0288 6.4712 11.1378 6.3974 11.1661Z" fill="url(#paint41_radial_111_4531)"/>
<path style="mix-blend-mode:multiply" opacity="0.5" fill-rule="evenodd" clip-rule="evenodd" d="M10.3176 20.6206C10.4177 20.7949 10.4715 21.0128 10.119 20.9397C8.22308 20.5249 6.38881 17.8169 6.12623 16.0749C6.10079 15.9308 6.01369 15.2876 6.22816 15.2651C6.36081 15.2554 6.47237 15.414 6.55638 15.5573C6.4929 15.2067 6.44867 14.8363 6.41995 14.4579C6.17785 14.1801 5.97826 13.8705 5.82893 13.525C5.65158 16.2026 6.58875 18.4311 8.58882 20.1488C9.13825 20.6214 9.74543 21.0347 10.3986 21.3848C10.5757 21.48 10.7645 21.5789 10.9453 21.6623C10.8281 21.3788 10.7146 21.0836 10.6089 20.7844C10.5105 20.7272 10.416 20.6778 10.3176 20.6206Z" fill="url(#paint42_radial_111_4531)"/>
<path style="mix-blend-mode:multiply" opacity="0.5" fill-rule="evenodd" clip-rule="evenodd" d="M25.3937 21.3119C25.271 21.4737 25.2076 21.6933 25.5663 21.6453C27.4882 21.4076 29.5694 18.8752 29.9907 17.1627C30.0238 17.0178 30.175 16.3791 29.9715 16.3468C29.8383 16.3174 29.7116 16.4715 29.6236 16.6055C29.7203 16.2605 29.7973 15.8962 29.8584 15.5205C30.1204 15.2669 30.3546 14.9785 30.5374 14.6479C30.4735 17.3356 29.3316 19.4604 27.1739 20.9902C26.5862 21.4124 25.9351 21.769 25.2596 22.0596C25.0733 22.1365 24.8791 22.2173 24.6887 22.2863C24.8333 22.0148 24.9699 21.7278 25.0987 21.4449C25.1995 21.3927 25.3006 21.36 25.4014 21.3079L25.3937 21.3119Z" fill="url(#paint43_radial_111_4531)"/>
<path style="mix-blend-mode:multiply" fill-rule="evenodd" clip-rule="evenodd" d="M27.5828 14.4862C27.4076 14.5277 27.2245 14.5537 27.0255 14.5682L26.9387 15.0654C27.7782 15.0536 28.4344 14.7828 28.8806 14.2962C28.7651 14.415 27.7728 14.9483 27.5468 14.7015C27.4951 14.6397 27.5213 14.5574 27.575 14.4902L27.5828 14.4862Z" fill="url(#paint44_linear_111_4531)"/>
<path style="mix-blend-mode:multiply" opacity="0.75" fill-rule="evenodd" clip-rule="evenodd" d="M8.76694 13.6167C8.9357 13.6769 9.11596 13.7212 9.31547 13.7458L9.3576 14.245C8.52453 14.1552 7.89892 13.8202 7.49335 13.3026C7.59661 13.4261 8.53494 14.0613 8.78545 13.8235C8.8432 13.7641 8.82258 13.6863 8.77469 13.6127L8.76694 13.6167Z" fill="url(#paint45_linear_111_4531)"/>
<path style="mix-blend-mode:screen" fill-rule="evenodd" clip-rule="evenodd" d="M17.4576 10.6522C18.7099 13.0716 17.7635 16.0489 15.3441 17.3011C12.9248 18.5534 9.95521 17.603 8.70295 15.1836C7.45069 12.7643 8.39709 9.78698 10.8087 8.53873C13.2203 7.29049 16.2053 8.23287 17.4576 10.6522Z" fill="url(#paint46_radial_111_4531)"/>
<path style="mix-blend-mode:screen" d="M7.4704 13.3342C8.40829 12.8487 8.77506 11.6949 8.28961 10.757C7.80416 9.81911 6.65031 9.45233 5.71242 9.93778C4.77453 10.4232 4.40776 11.5771 4.89321 12.515C5.37866 13.4529 6.53251 13.8196 7.4704 13.3342Z" fill="url(#paint47_radial_111_4531)"/>
<defs>
<linearGradient id="paint0_linear_111_4531" x1="26.6125" y1="10.4462" x2="32.12" y2="13.3176" gradientUnits="userSpaceOnUse">
<stop stop-color="#FFCC00"/>
<stop offset="1" stop-color="#9C5900"/>
</linearGradient>
<radialGradient id="paint1_radial_111_4531" cx="0" cy="0" r="1" gradientUnits="userSpaceOnUse" gradientTransform="translate(32.5823 12.0263) rotate(-27.3661) scale(4.66262 4.66262)">
<stop/>
<stop offset="1" stop-color="#FFF369"/>
</radialGradient>
<linearGradient id="paint2_linear_111_4531" x1="2.85347" y1="12.4303" x2="14.726" y2="20.8558" gradientUnits="userSpaceOnUse">
<stop stop-color="#FFCC00"/>
<stop offset="1" stop-color="#B36600"/>
</linearGradient>
<linearGradient id="paint3_linear_111_4531" x1="8.05752" y1="10.0807" x2="10.5598" y2="13.6424" gradientUnits="userSpaceOnUse">
<stop stop-color="#DB7D00"/>
<stop offset="1" stop-color="#914900"/>
</linearGradient>
<linearGradient id="paint4_linear_111_4531" x1="5.04048" y1="14.1101" x2="10.736" y2="21.7707" gradientUnits="userSpaceOnUse">
<stop stop-color="#C77000"/>
<stop offset="0.4" stop-color="#CC8B00"/>
<stop offset="1" stop-color="#BA5E00"/>
</linearGradient>
<linearGradient id="paint5_linear_111_4531" x1="4.30372" y1="12.2499" x2="7.49076" y2="10.6002" gradientUnits="userSpaceOnUse">
<stop stop-color="#FFCC00"/>
<stop offset="1" stop-color="#B36600"/>
</linearGradient>
<linearGradient id="paint6_linear_111_4531" x1="21.701" y1="22.2696" x2="41.1295" y2="3.27624" gradientUnits="userSpaceOnUse">
<stop stop-color="#B35100"/>
<stop offset="1" stop-color="#FFCC00"/>
</linearGradient>
<linearGradient id="paint7_linear_111_4531" x1="25.9998" y1="14.1061" x2="28.5505" y2="11.0751" gradientUnits="userSpaceOnUse">
<stop stop-color="#8A4500"/>
<stop offset="1" stop-color="#B86800"/>
</linearGradient>
<linearGradient id="paint8_linear_111_4531" x1="24.902" y1="22.7363" x2="30.9579" y2="15.1185" gradientUnits="userSpaceOnUse">
<stop stop-color="#C75A00"/>
<stop offset="0.4" stop-color="#BF6D00"/>
<stop offset="1" stop-color="#914900"/>
</linearGradient>
<linearGradient id="paint9_linear_111_4531" x1="11.2316" y1="34.3152" x2="23.2284" y2="34.8699" gradientUnits="userSpaceOnUse">
<stop stop-color="#781916"/>
<stop offset="0.31" stop-color="#963333"/>
<stop offset="1" stop-color="#450E0E"/>
</linearGradient>
<linearGradient id="paint10_linear_111_4531" x1="11.4104" y1="30.3488" x2="23.415" y2="30.8995" gradientUnits="userSpaceOnUse">
<stop offset="0.05" stop-color="#ED9500"/>
<stop offset="0.4" stop-color="#FFCC00"/>
<stop offset="0.93" stop-color="#B36600"/>
</linearGradient>
<radialGradient id="paint11_radial_111_4531" cx="0" cy="0" r="1" gradientUnits="userSpaceOnUse" gradientTransform="translate(14.7976 32.9609) rotate(-27.3661) scale(6.72326 6.72326)">
<stop stop-color="white"/>
<stop offset="1" stop-color="#E08F48"/>
</radialGradient>
<radialGradient id="paint12_radial_111_4531" cx="0" cy="0" r="1" gradientUnits="userSpaceOnUse" gradientTransform="translate(20.6846 33.9252) rotate(-27.3661) scale(7.02013 7.02013)">
<stop stop-color="white"/>
<stop offset="1" stop-color="#E08F48"/>
</radialGradient>
<radialGradient id="paint13_radial_111_4531" cx="0" cy="0" r="1" gradientUnits="userSpaceOnUse" gradientTransform="translate(17.5855 32.3635) rotate(-27.3661) scale(4.85472)">
<stop stop-color="#FFF369"/>
<stop offset="0.11" stop-color="#FAEE67"/>
<stop offset="0.23" stop-color="#ECE161"/>
<stop offset="0.36" stop-color="#D6CC58"/>
<stop offset="0.5" stop-color="#B6AE4B"/>
<stop offset="0.64" stop-color="#8E873A"/>
<stop offset="0.78" stop-color="#5C5826"/>
<stop offset="0.92" stop-color="#22210E"/>
<stop offset="1"/>
</radialGradient>
<radialGradient id="paint14_radial_111_4531" cx="0" cy="0" r="1" gradientUnits="userSpaceOnUse" gradientTransform="translate(13.7514 31.0347) rotate(-27.3661) scale(4.85472)">
<stop stop-color="#FFF369"/>
<stop offset="0.11" stop-color="#FAEE67"/>
<stop offset="0.23" stop-color="#ECE161"/>
<stop offset="0.36" stop-color="#D6CC58"/>
<stop offset="0.5" stop-color="#B6AE4B"/>
<stop offset="0.64" stop-color="#8E873A"/>
<stop offset="0.78" stop-color="#5C5826"/>
<stop offset="0.92" stop-color="#22210E"/>
<stop offset="1"/>
</radialGradient>
<linearGradient id="paint15_linear_111_4531" x1="11.2521" y1="33.8228" x2="11.8851" y2="33.8491" gradientUnits="userSpaceOnUse">
<stop stop-color="#616DBE"/>
<stop offset="0.6" stop-color="#C2C7E6"/>
<stop offset="1" stop-color="white"/>
</linearGradient>
<linearGradient id="paint16_linear_111_4531" x1="22.3238" y1="34.4139" x2="23.2499" y2="34.4556" gradientUnits="userSpaceOnUse">
<stop stop-color="white"/>
<stop offset="0.4" stop-color="#C2C7E6"/>
<stop offset="1" stop-color="#616DBE"/>
</linearGradient>
<linearGradient id="paint17_linear_111_4531" x1="13.6015" y1="35.1138" x2="16.0009" y2="35.2287" gradientUnits="userSpaceOnUse">
<stop stop-color="#AB665D"/>
<stop offset="1" stop-color="#2B2321"/>
</linearGradient>
<radialGradient id="paint18_radial_111_4531" cx="0" cy="0" r="1" gradientUnits="userSpaceOnUse" gradientTransform="translate(21.2002 16.0594) rotate(-27.3661) scale(9.55227 9.55227)">
<stop stop-color="#E08F48"/>
<stop offset="1" stop-color="white"/>
</radialGradient>
<linearGradient id="paint19_linear_111_4531" x1="19.7736" y1="35.2423" x2="21.4892" y2="35.3277" gradientUnits="userSpaceOnUse">
<stop stop-color="#AB665D"/>
<stop offset="1" stop-color="#2B2321"/>
</linearGradient>
<radialGradient id="paint20_radial_111_4531" cx="0" cy="0" r="1" gradientUnits="userSpaceOnUse" gradientTransform="translate(17.8369 26.0491) rotate(-27.3661) scale(4.11254 4.11254)">
<stop stop-color="#FFA163"/>
<stop offset="1" stop-color="white"/>
</radialGradient>
<linearGradient id="paint21_linear_111_4531" x1="8.88421" y1="19.7698" x2="26.9028" y2="20.5996" gradientUnits="userSpaceOnUse">
<stop offset="0.05" stop-color="#ED9500"/>
<stop offset="0.4" stop-color="#FFCC00"/>
<stop offset="1" stop-color="#D96D00"/>
</linearGradient>
<radialGradient id="paint22_radial_111_4531" cx="0" cy="0" r="1" gradientUnits="userSpaceOnUse" gradientTransform="translate(11.1575 14.4932) rotate(-27.3661) scale(14.9047 14.9047)">
<stop stop-color="#FFF369"/>
<stop offset="0.11" stop-color="#FAEE67"/>
<stop offset="0.23" stop-color="#ECE161"/>
<stop offset="0.36" stop-color="#D6CC58"/>
<stop offset="0.5" stop-color="#B6AE4B"/>
<stop offset="0.64" stop-color="#8E873A"/>
<stop offset="0.78" stop-color="#5C5826"/>
<stop offset="0.92" stop-color="#22210E"/>
<stop offset="1"/>
</radialGradient>
<radialGradient id="paint23_radial_111_4531" cx="0" cy="0" r="1" gradientUnits="userSpaceOnUse" gradientTransform="translate(11.4375 12.7359) rotate(-27.3661) scale(11.8836)">
<stop stop-color="#FFF369"/>
<stop offset="0.11" stop-color="#FAEE67"/>
<stop offset="0.23" stop-color="#ECE161"/>
<stop offset="0.36" stop-color="#D6CC58"/>
<stop offset="0.5" stop-color="#B6AE4B"/>
<stop offset="0.64" stop-color="#8E873A"/>
<stop offset="0.78" stop-color="#5C5826"/>
<stop offset="0.92" stop-color="#22210E"/>
<stop offset="1"/>
</radialGradient>
<radialGradient id="paint24_radial_111_4531" cx="0" cy="0" r="1" gradientUnits="userSpaceOnUse" gradientTransform="translate(16.8616 17.7447) rotate(-27.3661) scale(12.5384 12.5384)">
<stop stop-color="white"/>
<stop offset="1" stop-color="#E08F48"/>
</radialGradient>
<radialGradient id="paint25_radial_111_4531" cx="0" cy="0" r="1" gradientUnits="userSpaceOnUse" gradientTransform="translate(18.5006 18.2138) rotate(-27.3661) scale(10.8445 10.8445)">
<stop stop-color="white"/>
<stop offset="1" stop-color="#E08F48"/>
</radialGradient>
<radialGradient id="paint26_radial_111_4531" cx="0" cy="0" r="1" gradientUnits="userSpaceOnUse" gradientTransform="translate(13.687 13.8525) rotate(-27.3661) scale(14.2324)">
<stop stop-color="#FFF369"/>
<stop offset="0.11" stop-color="#FAEE67"/>
<stop offset="0.23" stop-color="#ECE161"/>
<stop offset="0.36" stop-color="#D6CC58"/>
<stop offset="0.5" stop-color="#B6AE4B"/>
<stop offset="0.64" stop-color="#8E873A"/>
<stop offset="0.78" stop-color="#5C5826"/>
<stop offset="0.92" stop-color="#22210E"/>
<stop offset="1"/>
</radialGradient>
<radialGradient id="paint27_radial_111_4531" cx="0" cy="0" r="1" gradientUnits="userSpaceOnUse" gradientTransform="translate(8.70193 15.3907) rotate(-27.3661) scale(15.0095)">
<stop stop-color="#FFF369"/>
<stop offset="0.11" stop-color="#FAEE67"/>
<stop offset="0.23" stop-color="#ECE161"/>
<stop offset="0.36" stop-color="#D6CC58"/>
<stop offset="0.5" stop-color="#B6AE4B"/>
<stop offset="0.64" stop-color="#8E873A"/>
<stop offset="0.78" stop-color="#5C5826"/>
<stop offset="0.92" stop-color="#22210E"/>
<stop offset="1"/>
</radialGradient>
<radialGradient id="paint28_radial_111_4531" cx="0" cy="0" r="1" gradientUnits="userSpaceOnUse" gradientTransform="translate(12.6486 14.1639) rotate(-27.3661) scale(14.7562 14.7562)">
<stop stop-color="#FFCC00"/>
<stop offset="1" stop-color="#ED9500"/>
</radialGradient>
<radialGradient id="paint29_radial_111_4531" cx="0" cy="0" r="1" gradientUnits="userSpaceOnUse" gradientTransform="translate(16.8345 2.952) rotate(-27.3661) scale(14.3895)">
<stop stop-color="#FFF369"/>
<stop offset="0.11" stop-color="#FAEE67"/>
<stop offset="0.23" stop-color="#ECE161"/>
<stop offset="0.36" stop-color="#D6CC58"/>
<stop offset="0.5" stop-color="#B6AE4B"/>
<stop offset="0.64" stop-color="#8E873A"/>
<stop offset="0.78" stop-color="#5C5826"/>
<stop offset="0.92" stop-color="#22210E"/>
<stop offset="1"/>
</radialGradient>
<radialGradient id="paint30_radial_111_4531" cx="0" cy="0" r="1" gradientUnits="userSpaceOnUse" gradientTransform="translate(15.2129 6.52453) rotate(-27.3661) scale(10.1897)">
<stop stop-color="#FFF369"/>
<stop offset="0.11" stop-color="#FAEE67"/>
<stop offset="0.23" stop-color="#ECE161"/>
<stop offset="0.36" stop-color="#D6CC58"/>
<stop offset="0.5" stop-color="#B6AE4B"/>
<stop offset="0.64" stop-color="#8E873A"/>
<stop offset="0.78" stop-color="#5C5826"/>
<stop offset="0.92" stop-color="#22210E"/>
<stop offset="1"/>
</radialGradient>
<radialGradient id="paint31_radial_111_4531" cx="0" cy="0" r="1" gradientUnits="userSpaceOnUse" gradientTransform="translate(23.5028 12.3212) rotate(-27.3661) scale(6.13825 6.13825)">
<stop stop-color="white"/>
<stop offset="1" stop-color="#FFA163"/>
</radialGradient>
<radialGradient id="paint32_radial_111_4531" cx="0" cy="0" r="1" gradientUnits="userSpaceOnUse" gradientTransform="translate(12.5548 12.482) rotate(-27.3661) scale(6.26922 6.26922)">
<stop stop-color="white"/>
<stop offset="1" stop-color="#FFA163"/>
</radialGradient>
<radialGradient id="paint33_radial_111_4531" cx="0" cy="0" r="1" gradientUnits="userSpaceOnUse" gradientTransform="translate(19.987 12.5187) rotate(-27.3661) scale(5.81518 5.81518)">
<stop stop-color="#FFF369"/>
<stop offset="0.11" stop-color="#FAEE67"/>
<stop offset="0.23" stop-color="#ECE161"/>
<stop offset="0.36" stop-color="#D6CC58"/>
<stop offset="0.5" stop-color="#B6AE4B"/>
<stop offset="0.64" stop-color="#8E873A"/>
<stop offset="0.78" stop-color="#5C5826"/>
<stop offset="0.92" stop-color="#22210E"/>
<stop offset="1"/>
</radialGradient>
<radialGradient id="paint34_radial_111_4531" cx="0" cy="0" r="1" gradientUnits="userSpaceOnUse" gradientTransform="translate(11 12.7264) rotate(-27.3661) scale(7.68373 7.68372)">
<stop stop-color="#FFF369"/>
<stop offset="0.11" stop-color="#FAEE67"/>
<stop offset="0.23" stop-color="#ECE161"/>
<stop offset="0.36" stop-color="#D6CC58"/>
<stop offset="0.5" stop-color="#B6AE4B"/>
<stop offset="0.64" stop-color="#8E873A"/>
<stop offset="0.78" stop-color="#5C5826"/>
<stop offset="0.92" stop-color="#22210E"/>
<stop offset="1"/>
</radialGradient>
<radialGradient id="paint35_radial_111_4531" cx="0" cy="0" r="1" gradientUnits="userSpaceOnUse" gradientTransform="translate(10.3419 12.5754) rotate(-27.3661) scale(21.4184 21.4184)">
<stop stop-color="#FCF80D"/>
<stop offset="1" stop-color="#FC9C0D"/>
</radialGradient>
<radialGradient id="paint36_radial_111_4531" cx="0" cy="0" r="1" gradientUnits="userSpaceOnUse" gradientTransform="translate(22.5092 3.54439) rotate(-27.3661) scale(11.1414)">
<stop stop-color="#FCF80D"/>
<stop offset="1" stop-color="#F78A0C"/>
</radialGradient>
<radialGradient id="paint37_radial_111_4531" cx="0" cy="0" r="1" gradientUnits="userSpaceOnUse" gradientTransform="translate(20.7731 13.9995) rotate(-27.3661) scale(14.2324)">
<stop/>
<stop offset="0.15" stop-color="#201F0D"/>
<stop offset="0.48" stop-color="#736E2F"/>
<stop offset="0.97" stop-color="#F6EB65"/>
<stop offset="1" stop-color="#FFF369"/>
</radialGradient>
<radialGradient id="paint38_radial_111_4531" cx="0" cy="0" r="1" gradientUnits="userSpaceOnUse" gradientTransform="translate(12.0561 18.4328) rotate(-27.3661) scale(12.6607)">
<stop stop-color="#E08F48"/>
<stop offset="1" stop-color="white"/>
</radialGradient>
<radialGradient id="paint39_radial_111_4531" cx="0" cy="0" r="1" gradientUnits="userSpaceOnUse" gradientTransform="translate(13.412 30.7778) rotate(-27.3661) scale(4.21732 4.21731)">
<stop stop-color="#FFF369"/>
<stop offset="0.11" stop-color="#FAEE67"/>
<stop offset="0.23" stop-color="#ECE161"/>
<stop offset="0.36" stop-color="#D6CC58"/>
<stop offset="0.5" stop-color="#B6AE4B"/>
<stop offset="0.64" stop-color="#8E873A"/>
<stop offset="0.78" stop-color="#5C5826"/>
<stop offset="0.92" stop-color="#22210E"/>
<stop offset="1"/>
</radialGradient>
<radialGradient id="paint40_radial_111_4531" cx="0" cy="0" r="1" gradientUnits="userSpaceOnUse" gradientTransform="translate(2.5449 11.5871) rotate(-27.3661) scale(9.38637)">
<stop stop-color="#FFF369"/>
<stop offset="0.11" stop-color="#FAEE67"/>
<stop offset="0.23" stop-color="#ECE161"/>
<stop offset="0.36" stop-color="#D6CC58"/>
<stop offset="0.5" stop-color="#B6AE4B"/>
<stop offset="0.64" stop-color="#8E873A"/>
<stop offset="0.78" stop-color="#5C5826"/>
<stop offset="0.92" stop-color="#22210E"/>
<stop offset="1"/>
</radialGradient>
<radialGradient id="paint41_radial_111_4531" cx="0" cy="0" r="1" gradientUnits="userSpaceOnUse" gradientTransform="translate(5.83931 10.3538) rotate(-27.3661) scale(3.26558 3.26558)">
<stop/>
<stop offset="0.08" stop-color="#22210E"/>
<stop offset="0.22" stop-color="#5C5826"/>
<stop offset="0.36" stop-color="#8E873A"/>
<stop offset="0.5" stop-color="#B6AE4B"/>
<stop offset="0.64" stop-color="#D6CC58"/>
<stop offset="0.77" stop-color="#ECE161"/>
<stop offset="0.89" stop-color="#FAEE67"/>
<stop offset="1" stop-color="#FFF369"/>
</radialGradient>
<radialGradient id="paint42_radial_111_4531" cx="0" cy="0" r="1" gradientUnits="userSpaceOnUse" gradientTransform="translate(10.7772 16.3418) rotate(-27.3661) scale(6.26049)">
<stop stop-color="white"/>
<stop offset="1" stop-color="#E08F48"/>
</radialGradient>
<radialGradient id="paint43_radial_111_4531" cx="0" cy="0" r="1" gradientUnits="userSpaceOnUse" gradientTransform="translate(23.8568 15.8543) rotate(-27.3661) scale(8.39971 8.39971)">
<stop stop-color="white"/>
<stop offset="1" stop-color="#E08F48"/>
</radialGradient>
<linearGradient id="paint44_linear_111_4531" x1="26.9304" y1="15.0303" x2="28.776" y2="14.0751" gradientUnits="userSpaceOnUse">
<stop stop-color="#E08F48"/>
<stop offset="1" stop-color="white"/>
</linearGradient>
<linearGradient id="paint45_linear_111_4531" x1="9.58384" y1="14.2263" x2="7.45668" y2="13.1938" gradientUnits="userSpaceOnUse">
<stop stop-color="#E08F48"/>
<stop offset="1" stop-color="white"/>
</linearGradient>
<radialGradient id="paint46_radial_111_4531" cx="0" cy="0" r="1" gradientUnits="userSpaceOnUse" gradientTransform="translate(13.0764 12.9199) rotate(-27.3661) scale(4.9333)">
<stop stop-color="#FFF200"/>
<stop offset="0.07" stop-color="#E1D500"/>
<stop offset="0.21" stop-color="#A69D00"/>
<stop offset="0.36" stop-color="#736D00"/>
<stop offset="0.5" stop-color="#4A4600"/>
<stop offset="0.64" stop-color="#292700"/>
<stop offset="0.77" stop-color="#121100"/>
<stop offset="0.89" stop-color="#040400"/>
<stop offset="1"/>
</radialGradient>
<radialGradient id="paint47_radial_111_4531" cx="0" cy="0" r="1" gradientUnits="userSpaceOnUse" gradientTransform="translate(6.59141 11.636) rotate(-27.3661) scale(1.9122)">
<stop stop-color="#FFF200"/>
<stop offset="0.07" stop-color="#E1D500"/>
<stop offset="0.21" stop-color="#A69D00"/>
<stop offset="0.36" stop-color="#736D00"/>
<stop offset="0.5" stop-color="#4A4600"/>
<stop offset="0.64" stop-color="#292700"/>
<stop offset="0.77" stop-color="#121100"/>
<stop offset="0.89" stop-color="#040400"/>
<stop offset="1"/>
</radialGradient>
</defs>
</svg>
