<svg width="16" height="16" viewBox="0 0 16 16" fill="none" xmlns="http://www.w3.org/2000/svg">
<path d="M15.6857 8.55594C15.5703 8.46056 15.4305 8.3995 15.2821 8.37971C15.1337 8.35993 14.9827 8.38221 14.8464 8.44403C14.001 8.83085 13.082 9.02994 12.1523 9.0276C10.4327 9.02552 8.78359 8.34366 7.56462 7.13067C6.34565 5.91769 5.65567 4.27198 5.64512 2.55236C5.64876 2.01342 5.71584 1.47678 5.84497 0.95353C5.87237 0.814063 5.86209 0.669813 5.8152 0.53564C5.7683 0.401467 5.68648 0.282224 5.57816 0.190196C5.46984 0.0981674 5.33895 0.0366817 5.19896 0.0120732C5.05898 -0.0125353 4.91496 0.00062332 4.78175 0.0501935C3.52853 0.613706 2.43913 1.48655 1.61588 2.58672C0.792639 3.68689 0.262575 4.97827 0.0754883 6.33956C-0.111599 7.70085 0.050432 9.08735 0.546359 10.3688C1.04229 11.6503 1.85583 12.7847 2.91057 13.6654C3.9653 14.5461 5.22661 15.1442 6.57599 15.4036C7.92537 15.6629 9.31854 15.575 10.6246 15.1481C11.9307 14.7212 13.1068 13.9692 14.0425 12.9629C14.9781 11.9566 15.6426 10.729 15.9735 9.39533C16.0138 9.24264 16.008 9.08143 15.9568 8.93204C15.9056 8.78265 15.8113 8.65178 15.6857 8.55594ZM8.09132 13.904C6.74971 13.8945 5.44383 13.4706 4.35246 12.6903C3.2611 11.91 2.43761 10.8114 1.99475 9.54492C1.55188 8.27848 1.5113 6.90611 1.87856 5.61571C2.24581 4.32531 3.00294 3.17997 4.04629 2.33651V2.55236C4.04841 4.70156 4.90311 6.76214 6.42283 8.28186C7.94255 9.80158 10.0031 10.6563 12.1523 10.6584C12.7166 10.6605 13.2795 10.6015 13.8311 10.4825C13.2794 11.5262 12.4533 12.3994 11.4418 13.008C10.4303 13.6166 9.2718 13.9375 8.09132 13.936V13.904Z" fill="currentColor"/>
</svg>
