<svg width="24" height="24" viewBox="0 0 24 24" fill="none" xmlns="http://www.w3.org/2000/svg">
<path d="M3.8119 13.0657L3.04001 13.7015L3.8119 13.0657ZM20.188 10.9343L19.4161 11.57L20.188 10.9343ZM3.8119 10.9343L4.58379 11.57L3.8119 10.9343ZM20.188 13.0657L19.4161 12.43L19.4161 12.43L20.188 13.0657ZM18.2878 13.6827C17.9001 14.076 17.9047 14.7092 18.298 15.0968C18.6914 15.4845 19.3246 15.4799 19.7122 15.0866L18.2878 13.6827ZM10.8444 5.09163C10.2989 5.17756 9.92625 5.68948 10.0122 6.23504C10.0981 6.7806 10.61 7.1532 11.1556 7.06728L10.8444 5.09163ZM11.9999 17C10.4741 17 8.98608 16.3224 7.65906 15.3677C6.33994 14.4186 5.26401 13.2558 4.58379 12.43L3.04001 13.7015C3.77988 14.5998 4.9801 15.9041 6.49104 16.9912C7.99408 18.0725 9.89 19 11.9999 19V17ZM11.9999 7C13.5257 7 15.0138 7.6776 16.3408 8.63233C17.6599 9.58138 18.7359 10.7442 19.4161 11.57L20.9598 10.2985C20.22 9.40025 19.0198 8.0959 17.5088 7.00885C16.0058 5.92747 14.1099 5 11.9999 5V7ZM4.58379 12.43C4.37149 12.1722 4.37149 11.8278 4.58379 11.57L3.04002 10.2985C2.21941 11.2948 2.21941 12.7052 3.04001 13.7015L4.58379 12.43ZM20.9598 13.7015C21.7805 12.7052 21.7805 11.2948 20.9598 10.2985L19.4161 11.57C19.6284 11.8278 19.6284 12.1722 19.4161 12.43L20.9598 13.7015ZM19.4161 12.43C19.1158 12.7945 18.7353 13.2286 18.2878 13.6827L19.7122 15.0866C20.2083 14.5833 20.6286 14.1037 20.9598 13.7015L19.4161 12.43ZM15.7973 15.7366C14.6078 16.4956 13.317 17 11.9999 17V19C13.8263 19 15.4907 18.3046 16.873 17.4227L15.7973 15.7366ZM4.58379 11.57C5.30766 10.6912 6.47656 9.43461 7.90746 8.45823L6.78018 6.80619C5.1316 7.9311 3.82506 9.34539 3.04002 10.2985L4.58379 11.57ZM11.1556 7.06728C11.4352 7.02323 11.7168 7 11.9999 7V5C11.6071 5 11.2214 5.03226 10.8444 5.09163L11.1556 7.06728Z" fill="currentColor"/>
<path d="M3 3L21 21" stroke="currentColor" stroke-width="2" stroke-linecap="round" stroke-linejoin="round"/>
<path d="M11.2236 14.8977C10.7149 14.7615 10.2511 14.4937 9.87875 14.1213C9.50638 13.7489 9.23859 13.2851 9.10229 12.7764" stroke="currentColor" stroke-width="2" stroke-linecap="round"/>
</svg>
