<svg width="16" height="16" viewBox="0 0 16 16" fill="none" xmlns="http://www.w3.org/2000/svg">
<g clip-path="url(#clip0_727_8344)">
<path d="M15.844 8.18417C15.844 7.64035 15.7999 7.09359 15.7058 6.55859H8.15997V9.63925H12.4811C12.3018 10.6328 11.7257 11.5117 10.882 12.0703V14.0692H13.46C14.9739 12.6758 15.844 10.6181 15.844 8.18417Z" fill="#4285F4"/>
<path d="M8.15999 16.0002C10.3176 16.0002 12.1372 15.2918 13.4629 14.0689L10.885 12.07C10.1677 12.558 9.24174 12.8343 8.16293 12.8343C6.07584 12.8343 4.30623 11.4263 3.67128 9.5332H1.01099V11.5938C2.36906 14.2953 5.13518 16.0002 8.15999 16.0002Z" fill="#34A853"/>
<path d="M3.66833 9.5338C3.33322 8.54023 3.33322 7.46435 3.66833 6.47078V4.41016H1.01097C-0.123694 6.67067 -0.123694 9.33391 1.01097 11.5944L3.66833 9.5338Z" fill="#FBBC04"/>
<path d="M8.15999 3.16644C9.30053 3.1488 10.4029 3.57798 11.2289 4.36578L13.5129 2.08174C12.0667 0.72367 10.1471 -0.0229773 8.15999 0.000539111C5.13518 0.000539111 2.36906 1.70548 1.01099 4.40987L3.66834 6.4705C4.30035 4.57449 6.0729 3.16644 8.15999 3.16644Z" fill="#EA4335"/>
</g>
<defs>
<clipPath id="clip0_727_8344">
<rect width="16" height="16" fill="white"/>
</clipPath>
</defs>
</svg>
