<svg width="23" height="20" viewBox="0 0 23 20" fill="none" xmlns="http://www.w3.org/2000/svg">
<path d="M8.88873 3.33333V2.22222H13.3332V3.33333H15.5554V2.22222C15.5548 1.63303 15.3205 1.06814 14.9039 0.651523C14.4872 0.234903 13.9224 0.000588307 13.3332 0H8.88873C8.29954 0.000588307 7.73465 0.234903 7.31803 0.651523C6.90141 1.06814 6.66709 1.63303 6.6665 2.22222V3.33333H8.88873Z" fill="url(#paint0_linear_204_1378)"/>
<path d="M7.77762 13.3334C7.48293 13.3334 7.20031 13.2163 6.99194 13.0079C6.78357 12.7995 6.6665 12.5169 6.6665 12.2222V10C6.6665 9.70534 6.78357 9.42273 6.99194 9.21435C7.20031 9.00598 7.48293 8.88892 7.77762 8.88892C8.0723 8.88892 8.35492 9.00598 8.56329 9.21435C8.77166 9.42273 8.88873 9.70534 8.88873 10V12.2222C8.88873 12.5169 8.77166 12.7995 8.56329 13.0079C8.35492 13.2163 8.0723 13.3334 7.77762 13.3334ZM14.4443 13.3334C14.1496 13.3334 13.867 13.2163 13.6586 13.0079C13.4502 12.7995 13.3332 12.5169 13.3332 12.2222V10C13.3332 9.70534 13.4502 9.42273 13.6586 9.21435C13.867 9.00598 14.1496 8.88892 14.4443 8.88892C14.739 8.88892 15.0216 9.00598 15.23 9.21435C15.4383 9.42273 15.5554 9.70534 15.5554 10V12.2222C15.5554 12.5169 15.4383 12.7995 15.23 13.0079C15.0216 13.2163 14.739 13.3334 14.4443 13.3334Z" fill="url(#paint1_linear_204_1378)"/>
<path d="M20 3.33325H2.22222C1.63285 3.33325 1.06762 3.56738 0.650874 3.98413C0.234126 4.40087 0 4.9661 0 5.55547V8.88881C0 9.47818 0.234126 10.0434 0.650874 10.4602C1.06762 10.8769 1.63285 11.111 2.22222 11.111H6.66667V9.99992C6.66667 9.70523 6.78373 9.42262 6.9921 9.21424C7.20048 9.00587 7.48309 8.88881 7.77778 8.88881C8.07246 8.88881 8.35508 9.00587 8.56345 9.21424C8.77182 9.42262 8.88889 9.70523 8.88889 9.99992V11.111H13.3333V9.99992C13.3333 9.70523 13.4504 9.42262 13.6588 9.21424C13.8671 9.00587 14.1498 8.88881 14.4444 8.88881C14.7391 8.88881 15.0217 9.00587 15.2301 9.21424C15.4385 9.42262 15.5556 9.70523 15.5556 9.99992V11.111H20C20.5894 11.111 21.1546 10.8769 21.5713 10.4602C21.9881 10.0434 22.2222 9.47818 22.2222 8.88881V5.55547C22.2222 4.9661 21.9881 4.40087 21.5713 3.98413C21.1546 3.56738 20.5894 3.33325 20 3.33325Z" fill="#8B5CFF"/>
<path d="M20 11.1111H15.5556V12.2222C15.5556 12.5169 15.4385 12.7995 15.2301 13.0079C15.0217 13.2163 14.7391 13.3334 14.4444 13.3334C14.1498 13.3334 13.8671 13.2163 13.6588 13.0079C13.4504 12.7995 13.3333 12.5169 13.3333 12.2222V11.1111H8.88889V12.2222C8.88889 12.5169 8.77182 12.7995 8.56345 13.0079C8.35508 13.2163 8.07246 13.3334 7.77778 13.3334C7.48309 13.3334 7.20048 13.2163 6.9921 13.0079C6.78373 12.7995 6.66667 12.5169 6.66667 12.2222V11.1111H2.22222C1.63285 11.1111 1.06762 10.877 0.650874 10.4603C0.234126 10.0435 0 9.47829 0 8.88892V17.7778C0 18.3672 0.234126 18.9324 0.650874 19.3492C1.06762 19.7659 1.63285 20 2.22222 20H20C20.5894 20 21.1546 19.7659 21.5713 19.3492C21.9881 18.9324 22.2222 18.3672 22.2222 17.7778V8.88892C22.2222 9.47829 21.9881 10.0435 21.5713 10.4603C21.1546 10.877 20.5894 11.1111 20 11.1111Z" fill="url(#paint2_linear_204_1378)"/>
<defs>
<linearGradient id="paint0_linear_204_1378" x1="11.1109" y1="0" x2="11.1109" y2="3.33333" gradientUnits="userSpaceOnUse">
<stop stop-color="#F4AB42"/>
<stop offset="1" stop-color="#EE8910"/>
</linearGradient>
<linearGradient id="paint1_linear_204_1378" x1="11.1109" y1="8.88892" x2="11.1109" y2="13.3334" gradientUnits="userSpaceOnUse">
<stop stop-color="#F3AA40"/>
<stop offset="1" stop-color="#EF991B"/>
</linearGradient>
<linearGradient id="paint2_linear_204_1378" x1="11.1111" y1="8.88892" x2="11.1111" y2="20" gradientUnits="userSpaceOnUse">
<stop stop-color="#882AFF"/>
<stop offset="1" stop-color="#6255FF"/>
</linearGradient>
</defs>
</svg>
