<svg width="18" height="18" viewBox="0 0 18 18" fill="none" xmlns="http://www.w3.org/2000/svg">
<path d="M1 3.66667C1 2.19391 2.19391 1 3.66667 1H4.55556C6.02831 1 7.22222 2.19391 7.22222 3.66667V4.55556C7.22222 6.02831 6.02831 7.22222 4.55556 7.22222H3.66667C2.19391 7.22222 1 6.02831 1 4.55556V3.66667Z" stroke="currentColor" stroke-width="1.5"/>
<path d="M10.7778 3.66667C10.7778 2.19391 11.9717 1 13.4444 1H14.3333C15.8061 1 17 2.19391 17 3.66667V4.55556C17 6.02831 15.8061 7.22222 14.3333 7.22222H13.4444C11.9717 7.22222 10.7778 6.02831 10.7778 4.55556V3.66667Z" stroke="currentColor" stroke-width="1.5"/>
<path d="M10.7778 13.4444C10.7778 11.9717 11.9717 10.7778 13.4444 10.7778H14.3333C15.8061 10.7778 17 11.9717 17 13.4444V14.3333C17 15.8061 15.8061 17 14.3333 17H13.4444C11.9717 17 10.7778 15.8061 10.7778 14.3333V13.4444Z" stroke="currentColor" stroke-width="1.5"/>
<path d="M1 13.4444C1 11.9717 2.19391 10.7778 3.66667 10.7778H4.55556C6.02831 10.7778 7.22222 11.9717 7.22222 13.4444V14.3333C7.22222 15.8061 6.02831 17 4.55556 17H3.66667C2.19391 17 1 15.8061 1 14.3333V13.4444Z" stroke="currentColor" stroke-width="1.5"/>
</svg>
