<svg width="240" height="91" viewBox="0 0 240 91" fill="none" xmlns="http://www.w3.org/2000/svg">
<path d="M155.433 8.93146C142.671 7.00846 129.47 7.07411 116.68 7.96884C93.9222 9.56092 77.6625 11.7368 55.6469 18.9854C40.8776 23.8482 27.3791 29.5478 15.8946 41.2325C8.86528 48.3843 -14.9896 71.9134 18.1321 84.2828C37.9606 91.6877 66.6248 90.2539 85.6397 88.9354C119.697 86.5738 148.532 82.1926 181.141 71.0736C200.313 64.5362 234.317 49.2083 238.841 30.5368C240.865 10.5357 223.054 6.81073 213.799 4.86709C174.828 -3.31798 132.866 2.25934 95.0661 14.3863C69.2458 22.6698 45.5321 36.7097 21.7503 50.3239" stroke="white" stroke-width="2" stroke-linecap="round"/>
</svg>
