<svg width="124" height="120" viewBox="0 0 124 120" fill="none" xmlns="http://www.w3.org/2000/svg">
<path d="M75.254 110.502C76.99 110.967 78.0206 112.751 77.5553 114.488L91.4924 118.222C94.2581 118.963 97.1007 117.322 97.8417 114.556L116.404 45.2822C117.145 42.5165 115.504 39.6738 112.738 38.9328L98.8008 35.1984C98.3357 36.9344 96.5511 37.965 94.8149 37.4998C93.0786 37.0345 92.0484 35.2497 92.5136 33.5137L78.5764 29.7792C75.8108 29.0382 72.9682 30.6795 72.2272 33.4452L53.6653 102.719C52.9242 105.485 54.5654 108.327 57.331 109.068L71.2681 112.803C71.7333 111.067 73.5178 110.036 75.254 110.502Z" fill="url(#paint0_linear_1249_34228)"/>
<path d="M59.2197 105.747C60.7761 104.848 62.7667 105.381 63.6655 106.938L76.1612 99.7237C78.6408 98.2922 79.4903 95.1216 78.0587 92.642L42.1997 30.5325C40.7681 28.0528 37.5976 27.2032 35.118 28.6348L22.6223 35.8492C23.5209 37.4057 22.9878 39.3963 21.4311 40.295C19.8744 41.1938 17.8839 40.6602 16.9853 39.1037L4.48958 46.3181C2.01001 47.7497 1.16052 50.9202 2.59215 53.3999L38.4509 115.509C39.8826 117.989 43.0531 118.838 45.5327 117.407L58.0284 110.192C57.1297 108.636 57.6628 106.645 59.2195 105.747L59.2197 105.747Z" fill="url(#paint1_linear_1249_34228)"/>
<path d="M111.663 25.6781L111.762 25.6552C108.316 24.9233 105.67 22.1559 105.083 18.6795L104.817 17.0938L104.565 18.5651C103.978 22.0416 101.333 24.809 97.8789 25.5409L97.7798 25.5637C101.226 26.2956 103.871 29.063 104.458 32.5395L104.725 34.1252L104.977 32.6538C105.564 29.1774 108.209 26.41 111.663 25.6781Z" fill="url(#paint2_linear_1249_34228)"/>
<path d="M37.2245 5.83217L37.2931 5.81693C34.9526 5.32138 33.1458 3.43831 32.7493 1.07495L32.5663 0L32.3986 1.00634C32.0022 3.3697 30.1954 5.25277 27.8549 5.74831L27.7863 5.76356C30.1267 6.2591 31.9336 8.14217 32.33 10.5055L32.513 11.5805L32.6807 10.5742C33.0771 8.21079 34.884 6.32772 37.2245 5.83217Z" fill="url(#paint3_linear_1249_34228)"/>
<g filter="url(#filter0_d_1249_34228)">
<path d="M32.973 103.047C31.6391 101.299 28.064 100.989 24.4817 102.431C20.8995 103.874 18.5373 106.575 18.7861 108.76L18.6819 108.755L18.8596 109.184C19.7765 111.458 23.7354 112.01 27.7015 110.411C31.6675 108.814 34.1386 105.675 33.2241 103.398L33.0464 102.967L32.9753 103.045L32.973 103.047Z" fill="#D16A0D"/>
<path d="M32.7928 102.337C32.8473 102.47 32.8781 102.522 32.916 102.626C32.9302 102.666 33.0369 102.915 33.0463 102.967C33.397 105.173 30.9709 108.016 27.3247 109.485C23.5932 110.987 19.8759 110.539 18.6842 108.75C18.6842 108.75 18.4851 108.255 18.433 108.12C17.5161 105.843 19.9896 102.704 23.9557 101.107C27.9217 99.5105 31.8807 100.06 32.7952 102.335L32.7928 102.337Z" fill="#D16A0D"/>
<path d="M32.7526 102.239C33.6695 104.513 31.196 107.655 27.2299 109.252C23.2639 110.849 19.3049 110.299 18.3904 108.024C17.4735 105.75 19.947 102.608 23.913 101.012C27.8791 99.4148 31.8381 99.9644 32.7526 102.239Z" fill="url(#paint4_linear_1249_34228)"/>
<g style="mix-blend-mode:screen" opacity="0.5">
<path d="M23.9225 101.035C27.8815 99.4405 31.831 99.9855 32.7573 102.25C32.7573 102.246 32.755 102.243 32.7526 102.239C31.8357 99.9618 27.8791 99.4121 23.913 101.011C19.947 102.608 17.4735 105.747 18.3904 108.024C18.3904 108.029 18.3928 108.031 18.3952 108.036C17.4925 105.762 19.9636 102.632 23.9225 101.037V101.035Z" fill="#FEF0A0"/>
</g>
<path d="M31.6177 102.696C32.3901 104.612 30.3076 107.257 26.967 108.6C23.6264 109.946 20.2953 109.481 19.5229 107.565C18.7505 105.648 20.8331 103.004 24.1737 101.66C27.5143 100.315 30.8477 100.779 31.6177 102.696Z" fill="url(#paint5_linear_1249_34228)"/>
<path d="M31.6177 102.696C32.3901 104.612 30.3076 107.257 26.967 108.6C23.6264 109.946 20.2953 109.481 19.5229 107.565C18.7505 105.648 20.8331 103.004 24.1737 101.66C27.5143 100.315 30.8477 100.779 31.6177 102.696Z" fill="url(#paint6_linear_1249_34228)"/>
<g style="mix-blend-mode:multiply">
<path d="M24.1737 101.662C27.5048 100.321 30.8288 100.778 31.613 102.683C31.613 102.678 31.6083 102.674 31.6083 102.669C30.8359 100.752 27.5024 100.29 24.1642 101.636C20.8236 102.982 18.7435 105.626 19.5134 107.54C19.5158 107.545 19.5182 107.549 19.5206 107.554C18.7671 105.64 20.8449 103.005 24.176 101.664L24.1737 101.662Z" fill="#FEF0A0"/>
</g>
<g style="mix-blend-mode:screen" opacity="0.3">
<path d="M26.9694 108.601C23.6359 109.942 20.3095 109.485 19.53 107.578C19.53 107.582 19.5324 107.585 19.5348 107.59C20.3071 109.506 23.6383 109.968 26.9789 108.625C30.3194 107.279 32.402 104.635 31.6296 102.721C31.6296 102.716 31.6272 102.714 31.6249 102.709C32.383 104.623 30.3028 107.26 26.9694 108.601Z" fill="#FEF0A0"/>
</g>
<path opacity="0.4" d="M24.2376 101.816C27.5474 100.482 30.8288 100.875 31.639 102.747C31.6319 102.73 31.6272 102.711 31.6177 102.695C30.8477 100.778 27.5143 100.316 24.1737 101.659C20.8331 103.005 18.7529 105.649 19.5229 107.564C19.53 107.58 19.5371 107.597 19.5442 107.616C18.8311 105.704 20.9255 103.147 24.2352 101.813L24.2376 101.816Z" fill="#D16A0D"/>
<g style="mix-blend-mode:multiply" opacity="0.4">
<path d="M27.955 104.505C27.7679 104.394 27.5688 104.33 27.3532 104.316C27.14 104.299 26.7538 104.309 26.1994 104.342C25.5455 104.38 25.1452 104.389 25.0006 104.368C24.8514 104.349 24.7448 104.257 24.676 104.088C24.6358 103.986 24.6358 103.901 24.6737 103.825C24.714 103.752 24.7921 103.69 24.9082 103.643C25.0551 103.584 25.1617 103.574 25.2304 103.615C25.2991 103.655 25.3702 103.769 25.446 103.958L25.3323 104.058L25.5195 104.136L27.448 103.359C27.4243 103.264 27.403 103.193 27.3864 103.15C27.2585 102.833 27.0121 102.646 26.6425 102.586C26.2752 102.525 25.7848 102.593 25.1712 102.792L25.0338 102.449L24.8466 102.373L24.8016 102.527L24.1453 102.809L24.2828 103.153C23.6478 103.458 23.2024 103.766 22.9513 104.081C22.6977 104.394 22.6361 104.711 22.7641 105.031C22.8541 105.252 23.0105 105.42 23.2355 105.534C23.4606 105.647 23.6975 105.709 23.9487 105.718C24.1998 105.73 24.6594 105.718 25.3323 105.688C25.7351 105.669 25.9862 105.697 26.0905 105.775C26.1923 105.853 26.2918 106.015 26.389 106.254C26.4269 106.349 26.4245 106.434 26.3795 106.507C26.3345 106.581 26.2492 106.645 26.1165 106.697C25.9649 106.758 25.8535 106.763 25.7848 106.709C25.7161 106.654 25.6237 106.484 25.5076 106.195L25.4555 106.067L25.401 105.932L25.2138 105.853L25.0693 106.029L23.4701 106.709L23.5554 106.92C23.7473 107.398 24.0742 107.654 24.5362 107.69C24.9982 107.727 25.4934 107.654 26.0217 107.476L26.0028 107.815L26.1876 107.893L27.0761 107.536L26.9126 107.133C27.5546 106.815 27.9953 106.481 28.2393 106.131C28.4834 105.78 28.5284 105.413 28.3744 105.031C28.2796 104.792 28.1375 104.617 27.9503 104.508L27.955 104.505Z" fill="#AA7E03"/>
</g>
<path d="M27.2608 103.283L25.3323 104.06L25.2612 103.882C25.1854 103.693 25.112 103.577 25.0456 103.539C24.9769 103.498 24.8703 103.508 24.7234 103.567C24.6049 103.615 24.5268 103.676 24.4889 103.75C24.4509 103.823 24.4509 103.911 24.4912 104.013C24.5599 104.181 24.6665 104.273 24.8158 104.292C24.9603 104.311 25.3607 104.304 26.0146 104.266C26.5714 104.233 26.9552 104.223 27.1708 104.24C27.384 104.254 27.583 104.318 27.7702 104.43C27.9574 104.541 28.0995 104.714 28.1943 104.953C28.3483 105.335 28.3033 105.702 28.0592 106.052C27.8152 106.403 27.3745 106.737 26.7325 107.055L26.896 107.457L26.0075 107.815L25.8393 107.398C25.3133 107.578 24.8182 107.649 24.3538 107.611C23.8918 107.573 23.5649 107.318 23.373 106.839L23.2876 106.631L25.2162 105.853L25.3228 106.116C25.4389 106.405 25.5313 106.576 25.5976 106.631C25.6663 106.685 25.7753 106.68 25.9293 106.619C26.0596 106.567 26.1473 106.503 26.1899 106.429C26.2349 106.356 26.2373 106.27 26.1994 106.173C26.1023 105.934 26.0028 105.773 25.9009 105.695C25.799 105.616 25.5479 105.586 25.1451 105.607C24.4746 105.64 24.0126 105.65 23.7615 105.638C23.5104 105.626 23.2735 105.564 23.0484 105.451C22.8233 105.337 22.6669 105.171 22.5769 104.951C22.4489 104.631 22.5106 104.313 22.7641 104.001C23.0176 103.688 23.4606 103.378 24.0956 103.072L23.9582 102.731L24.8466 102.373L24.984 102.714C25.5953 102.518 26.0857 102.449 26.4553 102.508C26.8225 102.567 27.0713 102.757 27.1992 103.074C27.2182 103.119 27.2371 103.188 27.2608 103.283Z" fill="white"/>
<g style="mix-blend-mode:screen" opacity="0.7">
<path style="mix-blend-mode:screen" d="M24.9958 102.709V102.714C25.5289 102.544 25.9695 102.468 26.3178 102.491C25.9695 102.465 25.5289 102.539 24.9958 102.709Z" fill="url(#paint7_linear_1249_34228)"/>
<path style="mix-blend-mode:screen" d="M24.9698 103.516C24.9982 103.518 25.0243 103.525 25.0432 103.539C25.1119 103.58 25.183 103.693 25.2588 103.883L25.3299 104.061L25.3417 104.056L25.273 103.883C25.1972 103.693 25.1261 103.58 25.0551 103.539C25.0314 103.525 25.0006 103.518 24.9674 103.516H24.9698Z" fill="url(#paint8_linear_1249_34228)"/>
<path style="mix-blend-mode:screen" d="M26.2065 106.43C26.2515 106.356 26.2539 106.271 26.216 106.174C26.1189 105.934 26.0193 105.773 25.9175 105.695C25.8559 105.648 25.7398 105.617 25.5668 105.607C25.7303 105.619 25.8416 105.65 25.9032 105.695C26.0051 105.776 26.1046 105.934 26.2018 106.174C26.2397 106.268 26.2373 106.354 26.1923 106.43C26.1496 106.503 26.062 106.567 25.9317 106.619C25.844 106.655 25.7706 106.671 25.7114 106.669C25.773 106.676 25.8511 106.659 25.9459 106.621C26.0762 106.569 26.1639 106.505 26.2065 106.432V106.43Z" fill="url(#paint9_linear_1249_34228)"/>
<path style="mix-blend-mode:screen" d="M27.1684 104.238C26.9552 104.222 26.569 104.231 26.0123 104.265C25.4318 104.298 25.0527 104.307 24.8727 104.295C25.0456 104.31 25.4294 104.298 26.0265 104.265C26.5714 104.231 26.9528 104.224 27.1684 104.238Z" fill="url(#paint10_linear_1249_34228)"/>
<path style="mix-blend-mode:screen" d="M25.8535 107.4C25.8535 107.4 25.8464 107.403 25.8416 107.405L26.0075 107.817L26.0193 107.813L25.8535 107.403V107.4Z" fill="url(#paint11_linear_1249_34228)"/>
<path style="mix-blend-mode:screen" d="M24.368 107.614C23.906 107.576 23.579 107.32 23.3847 106.841L23.3018 106.633L25.2185 105.861V105.854L23.2876 106.631L23.3729 106.839C23.5648 107.318 23.8917 107.574 24.3537 107.611C24.368 107.611 24.3846 107.614 24.3988 107.614C24.3893 107.614 24.3774 107.614 24.368 107.614Z" fill="url(#paint12_linear_1249_34228)"/>
<path style="mix-blend-mode:screen" d="M23.7236 105.635C23.4938 105.619 23.2734 105.557 23.065 105.453C22.8399 105.339 22.6835 105.173 22.5935 104.951C22.4655 104.631 22.5272 104.313 22.7783 104.001C23.0318 103.688 23.4748 103.378 24.1098 103.072L23.9724 102.731L24.849 102.378V102.373L23.9582 102.731L24.0956 103.072C23.4606 103.378 23.0152 103.686 22.7641 104.001C22.5106 104.313 22.4489 104.631 22.5769 104.951C22.6645 105.171 22.8233 105.339 23.0484 105.451C23.2616 105.557 23.4867 105.619 23.7236 105.635Z" fill="url(#paint13_linear_1249_34228)"/>
</g>
</g>
<g filter="url(#filter1_d_1249_34228)">
<path d="M118.541 85.1998C119.345 84.1586 118.97 82.0452 117.582 80.1991C116.194 78.3529 114.268 77.4064 113.045 77.8883L113.032 77.8273L112.811 77.9964C111.639 78.8781 111.933 81.2507 113.471 83.2943C115.007 85.3383 117.203 86.28 118.377 85.3992L118.599 85.2298L118.543 85.2008L118.541 85.1998Z" fill="#D16A0D"/>
<path d="M118.922 84.9878C118.854 85.0398 118.829 85.0657 118.774 85.1037C118.753 85.1182 118.626 85.2183 118.597 85.2318C117.377 85.7758 115.36 84.8144 113.946 82.9353C112.501 81.0121 112.184 78.7953 113.033 77.83C113.033 77.83 113.289 77.6384 113.358 77.5873C114.532 76.7052 116.728 77.6482 118.265 79.6922C119.801 81.7363 120.096 84.1084 118.924 84.9888L118.922 84.9878Z" fill="#D16A0D"/>
<path d="M118.974 84.9478C117.802 85.8296 115.604 84.8869 114.067 82.8429C112.531 80.7989 112.236 78.4267 113.408 77.5463C114.58 76.6646 116.778 77.6072 118.314 79.6512C119.851 81.6952 120.146 84.0674 118.974 84.9478Z" fill="url(#paint14_linear_1249_34228)"/>
<g style="mix-blend-mode:screen" opacity="0.5">
<path d="M118.302 79.6606C119.836 81.7009 120.133 84.0669 118.967 84.9526C118.97 84.9519 118.971 84.9502 118.974 84.9481C120.147 84.0659 119.852 81.6951 118.314 79.6515C116.778 77.6074 114.581 76.6645 113.408 77.5466C113.405 77.5473 113.404 77.5491 113.402 77.5512C114.576 76.6776 116.767 77.6207 118.301 79.661L118.302 79.6606Z" fill="#FEF0A0"/>
</g>
<path d="M118.534 84.3635C117.546 85.1064 115.696 84.3126 114.403 82.5907C113.108 80.8691 112.861 78.8728 113.849 78.13C114.837 77.3871 116.686 78.1809 117.98 79.9028C119.274 81.6243 119.522 83.622 118.534 84.3635Z" fill="url(#paint15_linear_1249_34228)"/>
<path d="M118.534 84.3635C117.546 85.1064 115.696 84.3126 114.403 82.5907C113.108 80.8691 112.861 78.8728 113.849 78.13C114.837 77.3871 116.686 78.1809 117.98 79.9028C119.274 81.6243 119.522 83.622 118.534 84.3635Z" fill="url(#paint16_linear_1249_34228)"/>
<g style="mix-blend-mode:multiply">
<path d="M117.98 79.9042C119.27 81.621 119.52 83.6121 118.541 84.36C118.544 84.3592 118.546 84.3558 118.549 84.355C119.536 83.6121 119.287 81.6149 117.993 79.8947C116.699 78.1731 114.849 77.3807 113.862 78.1218C113.86 78.1239 113.858 78.126 113.855 78.1281C114.845 77.3966 116.688 78.1891 117.979 79.9059L117.98 79.9042Z" fill="#FEF0A0"/>
</g>
<g style="mix-blend-mode:screen" opacity="0.3">
<path d="M114.403 82.5926C113.113 80.8744 112.862 78.882 113.843 78.1365C113.84 78.1372 113.839 78.1389 113.837 78.141C112.849 78.8839 113.098 80.8798 114.391 82.6018C115.686 84.3233 117.536 85.1171 118.522 84.3746C118.525 84.3739 118.526 84.3721 118.528 84.37C117.539 85.1043 115.694 84.3108 114.403 82.5926Z" fill="#FEF0A0"/>
</g>
<path opacity="0.4" d="M117.899 79.9633C119.182 81.6689 119.463 83.6255 118.507 84.3833C118.515 84.3766 118.526 84.371 118.534 84.3629C119.522 83.6214 119.273 81.6241 117.98 79.9022C116.685 78.1806 114.836 77.3882 113.849 78.1294C113.84 78.136 113.832 78.1427 113.822 78.1497C114.816 77.4418 116.617 78.256 117.9 79.9616L117.899 79.9633Z" fill="#D16A0D"/>
<g style="mix-blend-mode:multiply" opacity="0.4">
<path d="M116.92 82.5264C116.955 82.401 116.961 82.2762 116.936 82.1494C116.913 82.0237 116.848 81.802 116.743 81.4869C116.619 81.115 116.552 80.8852 116.542 80.7984C116.53 80.7092 116.567 80.6333 116.653 80.5676C116.706 80.5286 116.755 80.5153 116.805 80.5255C116.853 80.5374 116.901 80.573 116.946 80.6328C117.003 80.7085 117.025 80.7686 117.013 80.8145C117 80.8604 116.945 80.9191 116.848 80.9922L116.773 80.9419L116.756 81.0622L117.504 82.056C117.555 82.0276 117.593 82.0043 117.615 81.9881C117.778 81.8651 117.848 81.6938 117.825 81.4711C117.804 81.2494 117.688 80.9767 117.478 80.653L117.656 80.5205L117.671 80.4006L117.575 80.3984L117.31 80.063L117.133 80.1955C116.858 79.876 116.611 79.6664 116.39 79.5701C116.17 79.472 115.977 79.4856 115.812 79.609C115.699 79.6951 115.626 79.8115 115.595 79.9591C115.564 80.1068 115.566 80.2532 115.599 80.3997C115.631 80.5466 115.709 80.8103 115.831 81.1943C115.904 81.424 115.927 81.5735 115.898 81.6458C115.868 81.7168 115.791 81.7992 115.667 81.8924C115.618 81.9289 115.569 81.9408 115.519 81.9261C115.47 81.9115 115.42 81.8721 115.369 81.8035C115.31 81.7255 115.29 81.6619 115.311 81.6137C115.332 81.5656 115.416 81.4858 115.565 81.374L115.631 81.3241L115.701 81.2717L115.717 81.1515L115.593 81.0951L114.953 80.2765L114.844 80.3584C114.597 80.5434 114.5 80.7719 114.551 81.0443C114.601 81.317 114.72 81.5917 114.904 81.8694L114.706 81.9109L114.689 82.0298L115.033 82.4877L115.241 82.3309C115.523 82.6527 115.785 82.8555 116.025 82.9422C116.265 83.0289 116.484 82.9981 116.681 82.8501C116.804 82.7583 116.884 82.649 116.918 82.524L116.92 82.5264Z" fill="#AA7E03"/>
</g>
<path d="M117.519 81.9349L116.771 80.9411L116.863 80.8725C116.961 80.7994 117.016 80.739 117.028 80.6948C117.041 80.6488 117.019 80.5887 116.962 80.513C116.916 80.4519 116.868 80.4163 116.82 80.4058C116.772 80.3952 116.721 80.4088 116.668 80.4478C116.582 80.5136 116.545 80.5895 116.557 80.6786C116.569 80.7651 116.635 80.9953 116.758 81.3672C116.863 81.6837 116.928 81.9039 116.952 82.031C116.977 82.1564 116.97 82.2813 116.935 82.4067C116.9 82.532 116.822 82.6409 116.698 82.7327C116.502 82.8807 116.283 82.9116 116.042 82.8249C115.802 82.7382 115.541 82.5353 115.258 82.2135L115.051 82.3703L114.706 81.9124L114.921 81.7507C114.736 81.4747 114.618 81.1997 114.568 80.9255C114.518 80.6528 114.616 80.4243 114.862 80.2393L114.97 80.1578L115.717 81.1516L115.582 81.2539C115.433 81.3657 115.348 81.4455 115.327 81.4923C115.306 81.5404 115.326 81.6026 115.385 81.6821C115.436 81.7493 115.486 81.79 115.535 81.8033C115.585 81.8179 115.634 81.8061 115.685 81.7691C115.808 81.676 115.885 81.5936 115.915 81.5226C115.944 81.4516 115.923 81.3018 115.848 81.0724C115.725 80.6902 115.648 80.4248 115.616 80.2779C115.584 80.1309 115.583 79.9846 115.614 79.8369C115.645 79.6893 115.717 79.5733 115.83 79.4872C115.995 79.3637 116.188 79.3502 116.408 79.4482C116.628 79.5463 116.876 79.7542 117.15 80.0737L117.326 79.9415L117.67 80.3994L117.495 80.5316C117.703 80.8542 117.819 81.1269 117.842 81.3496C117.864 81.5709 117.793 81.744 117.63 81.867C117.606 81.885 117.57 81.9065 117.519 81.9349Z" fill="white"/>
<g style="mix-blend-mode:screen" opacity="0.7">
<path style="mix-blend-mode:screen" d="M117.499 80.5384L117.497 80.5392C117.678 80.8207 117.79 81.0636 117.83 81.2684C117.791 81.0632 117.68 80.82 117.499 80.5384Z" fill="url(#paint17_linear_1249_34228)"/>
<path style="mix-blend-mode:screen" d="M117.03 80.6479C117.033 80.6646 117.033 80.6808 117.028 80.6939C117.015 80.7399 116.96 80.7985 116.862 80.8717L116.771 80.9403L116.775 80.9464L116.865 80.8799C116.962 80.8067 117.017 80.7481 117.029 80.7008C117.034 80.6849 117.033 80.666 117.03 80.6465L117.03 80.6479Z" fill="url(#paint18_linear_1249_34228)"/>
<path style="mix-blend-mode:screen" d="M115.538 81.8132C115.587 81.8278 115.637 81.816 115.687 81.7791C115.81 81.6859 115.888 81.6035 115.917 81.5325C115.935 81.4896 115.935 81.4178 115.914 81.3164C115.932 81.4127 115.932 81.4818 115.915 81.5243C115.884 81.5956 115.808 81.6777 115.685 81.7709C115.636 81.8074 115.586 81.8193 115.536 81.805C115.487 81.7917 115.436 81.751 115.386 81.6838C115.352 81.6386 115.331 81.5988 115.323 81.5642C115.328 81.6009 115.35 81.6435 115.387 81.6924C115.437 81.7596 115.488 81.8003 115.537 81.8136L115.538 81.8132Z" fill="url(#paint19_linear_1249_34228)"/>
<path style="mix-blend-mode:screen" d="M116.953 82.0287C116.929 81.9029 116.864 81.6813 116.759 81.3648C116.65 81.0346 116.586 80.8171 116.565 80.7112C116.583 80.8133 116.649 81.0332 116.761 81.373C116.865 81.6827 116.928 81.9019 116.953 82.0287Z" fill="url(#paint20_linear_1249_34228)"/>
<path style="mix-blend-mode:screen" d="M114.922 81.7588C114.922 81.7588 114.92 81.7551 114.918 81.7527L114.705 81.9123L114.71 81.9184L114.921 81.7592L114.922 81.7588Z" fill="url(#paint21_linear_1249_34228)"/>
<path style="mix-blend-mode:screen" d="M114.569 80.9337C114.519 80.661 114.617 80.4325 114.863 80.2462L114.971 80.166L115.713 81.1537L115.718 81.1526L114.97 80.1574L114.863 80.239C114.616 80.4239 114.519 80.6524 114.568 80.9251C114.57 80.9334 114.572 80.9433 114.574 80.9515C114.572 80.9461 114.57 80.9392 114.569 80.9337Z" fill="url(#paint22_linear_1249_34228)"/>
<path style="mix-blend-mode:screen" d="M115.612 80.2556C115.586 80.1203 115.587 79.9835 115.615 79.8469C115.646 79.6992 115.718 79.5832 115.833 79.4967C115.998 79.3733 116.19 79.3598 116.41 79.4564C116.63 79.5545 116.878 79.7624 117.153 80.0819L117.328 79.9497L117.668 80.4015L117.671 80.4007L117.326 79.9415L117.15 80.0737C116.876 79.7542 116.629 79.5445 116.408 79.4482C116.188 79.3502 115.995 79.3637 115.83 79.4872C115.716 79.5719 115.644 79.6897 115.614 79.8369C115.586 79.9766 115.585 80.1162 115.612 80.2556Z" fill="url(#paint23_linear_1249_34228)"/>
</g>
</g>
<g style="mix-blend-mode:multiply">
<path d="M28.4159 55.6467C28.4133 55.5689 28.4081 55.4911 28.3977 55.4159C28.3873 55.3329 28.3769 55.25 28.3614 55.167C28.3432 55.0762 28.3225 54.9829 28.2992 54.8921C28.2706 54.7884 28.2369 54.6847 28.198 54.5835C28.1513 54.4565 28.0943 54.332 28.0295 54.2127C27.9232 54.0131 27.7987 53.8238 27.6509 53.6448C27.5575 53.5333 27.4564 53.4244 27.3475 53.3233C27.2386 53.2222 27.1219 53.1288 27.0052 53.0432L26.9093 52.9551L26.8963 52.968L26.8029 53.0692L26.6967 53.1859L26.5903 53.3026L26.484 53.4192L26.3777 53.5359L26.2714 53.6526L26.1625 53.7693L26.0561 53.886L25.9472 54.0027L25.8409 54.1194L25.732 54.2361L25.6257 54.3527L25.5194 54.4694L25.4131 54.5861L25.3042 54.7028L25.1978 54.8195L25.0915 54.9362L24.9826 55.0529L24.8763 55.1696L24.7674 55.2863L24.6611 55.403L24.5548 55.5196L24.4484 55.6363L24.3395 55.753L24.2332 55.8697L24.1243 55.9864L24.018 56.1031L23.9116 56.2198L23.8054 56.3365L23.6964 56.4531L23.5901 56.5698L23.4838 56.6865L23.3749 56.8032L23.2686 56.9199L23.1623 57.0366L23.0534 57.1533L22.947 57.27L22.8407 57.3867L22.7344 57.5033L22.6281 57.62L22.5218 57.7367L22.4284 57.8379L22.4155 57.8534L22.5114 57.9416C22.6048 58.0531 22.7059 58.162 22.8148 58.2631C22.9237 58.3643 23.0378 58.4576 23.1571 58.5432C23.3464 58.678 23.546 58.7895 23.7509 58.8803C23.8753 58.9347 24.005 58.9814 24.1347 59.0203C24.2384 59.0514 24.3447 59.0774 24.451 59.0981C24.5418 59.1162 24.6351 59.1292 24.7285 59.1396C24.8115 59.15 24.8971 59.1551 24.98 59.1577C25.0578 59.1603 25.1356 59.1577 25.2108 59.1577C25.2834 59.1551 25.356 59.15 25.4286 59.1422C25.496 59.1344 25.5634 59.1266 25.6309 59.1162C25.6957 59.1059 25.7605 59.0929 25.8228 59.0799C25.885 59.067 25.9446 59.0514 26.0043 59.0333C26.0639 59.0177 26.121 58.9996 26.178 58.9788C26.2325 58.9607 26.2895 58.9399 26.344 58.9166C26.3958 58.8958 26.4503 58.8725 26.5022 58.8466C26.554 58.8232 26.6033 58.7973 26.6526 58.7714C26.7018 58.7454 26.7485 58.7195 26.7978 58.691C26.8444 58.6625 26.8911 58.6339 26.9352 58.6028C26.9793 58.5743 27.0234 58.5432 27.0674 58.5095C27.1115 58.4783 27.153 58.4446 27.1945 58.4109C27.236 58.3772 27.2749 58.3435 27.3164 58.3072C27.3553 58.2735 27.3942 58.2372 27.4331 58.1983C27.4694 58.162 27.5083 58.1231 27.5446 58.0842C27.5809 58.0453 27.6146 58.0064 27.6483 57.9649C27.682 57.9234 27.7157 57.8845 27.7468 57.8404C27.7805 57.799 27.8117 57.7549 27.8402 57.7134C27.8713 57.6693 27.8998 57.6252 27.9284 57.5785C27.9569 57.5319 27.9854 57.4852 28.0113 57.4385C28.0373 57.3918 28.0632 57.3426 28.0865 57.2933C28.1125 57.244 28.1358 57.1922 28.1566 57.1429C28.1799 57.091 28.2006 57.0392 28.2214 56.9873C28.2421 56.9329 28.2603 56.8784 28.2784 56.824C28.2966 56.7669 28.3121 56.7099 28.3277 56.6528C28.3432 56.5932 28.3562 56.5335 28.3692 56.4765C28.3821 56.4142 28.3925 56.352 28.4003 56.2898C28.4107 56.225 28.4184 56.1601 28.4236 56.0953C28.4288 56.0279 28.434 55.9579 28.4366 55.8905C28.4366 55.8178 28.4366 55.7452 28.4366 55.6726L28.4159 55.6467Z" fill="#D16A0D"/>
</g>
<path d="M23.6628 52.5857C25.3664 51.8674 27.332 52.6687 28.0477 54.3723C28.766 56.076 27.9647 58.0416 26.261 58.7573C24.5574 59.4755 22.5918 58.6743 21.8761 56.9706C21.1578 55.267 21.9591 53.3014 23.6628 52.5857Z" fill="url(#paint24_linear_1249_34228)"/>
<g style="mix-blend-mode:screen" opacity="0.5">
<path d="M22.5217 53.4085C23.7768 52.0549 25.8927 51.9745 27.2463 53.2244C27.2463 53.2244 27.2411 53.2192 27.2385 53.2166C25.8824 51.959 23.7638 52.0368 22.5062 53.3929C21.2485 54.7491 21.3263 56.8677 22.6825 58.1253L22.6903 58.1331C21.3419 56.8729 21.2667 54.7595 22.5217 53.4085Z" fill="#FEF0A0"/>
</g>
<path d="M26.8782 53.6052C28.0192 54.6658 28.0866 56.4498 27.026 57.5908C25.9654 58.7317 24.1814 58.7992 23.0404 57.7386C21.8995 56.678 21.8321 54.894 22.8926 53.753C23.9532 52.6121 25.7372 52.5446 26.8782 53.6052Z" fill="url(#paint25_linear_1249_34228)"/>
<path d="M25.8823 55.1095C25.7449 55.0602 25.6204 55.0395 25.5115 55.0524C25.4 55.0628 25.2185 55.1043 24.9618 55.1795C24.6584 55.265 24.4691 55.3091 24.3913 55.3117C24.3109 55.3143 24.2202 55.2676 24.1164 55.1717C24.0542 55.1146 24.0179 55.0602 24.005 55.0109C23.992 54.9617 24.0049 54.9176 24.0412 54.8761C24.0879 54.8268 24.1372 54.8087 24.1865 54.8268C24.2357 54.845 24.3187 54.9072 24.4354 55.0161L24.4795 55.0576L24.4484 55.0913L24.5443 55.1172L25.1563 54.4586C25.1044 54.4016 25.0655 54.3627 25.037 54.3367C24.8425 54.1552 24.6428 54.0645 24.438 54.0645C24.2331 54.0645 24.0231 54.1526 23.8105 54.3315L23.6004 54.1371L23.5045 54.1111L23.5693 54.1708L23.3178 54.4404L23.5278 54.6349C23.3463 54.8813 23.2607 55.1147 23.2685 55.3299C23.2763 55.5451 23.38 55.7448 23.5771 55.9263C23.7119 56.0533 23.8597 56.1389 24.0153 56.1856C24.1709 56.2323 24.3135 56.2478 24.4406 56.2297C24.5676 56.2115 24.7855 56.1623 25.0992 56.0767C25.2859 56.0248 25.4207 56.0196 25.5037 56.0585C25.5867 56.0974 25.7008 56.1856 25.8486 56.323C25.9083 56.3775 25.942 56.4293 25.9524 56.4786C25.9627 56.5279 25.9472 56.5746 25.9057 56.6186C25.8564 56.6705 25.8045 56.6835 25.7501 56.6575C25.6956 56.6316 25.579 56.5357 25.4 56.3723L25.3222 56.2997L25.2393 56.2219L25.1433 56.196L25.2081 56.2556L24.6273 56.8805L24.7569 56.9998C25.0499 57.2721 25.317 57.3966 25.5582 57.3758C25.7994 57.3525 26.0094 57.2617 26.1909 57.1035L26.3828 57.2799L26.3517 57.3136L26.4476 57.3395L26.7303 57.0361L26.4813 56.8053C26.6602 56.5486 26.7354 56.3023 26.7069 56.0663C26.6784 55.8303 26.5461 55.6022 26.3102 55.3843C26.1624 55.2469 26.0198 55.1561 25.8849 55.1069L25.8823 55.1095Z" fill="#D16A0D"/>
<path d="M25.0604 54.4319L24.4484 55.0905L24.3395 54.9894C24.2228 54.8805 24.1398 54.8183 24.0906 54.8001C24.0413 54.782 23.992 54.8001 23.9453 54.8494C23.909 54.8883 23.8961 54.935 23.9065 54.9816C23.9194 55.0309 23.9557 55.0828 24.018 55.1424C24.1217 55.2384 24.2125 55.285 24.2928 55.2824C24.3706 55.2824 24.5625 55.2358 24.8633 55.1502C25.12 55.0776 25.3041 55.0335 25.413 55.0231C25.5245 55.0127 25.6464 55.0309 25.7839 55.0802C25.9213 55.1294 26.0639 55.2228 26.2091 55.3576C26.4451 55.5754 26.5773 55.8036 26.6058 56.0396C26.6344 56.2782 26.5592 56.5245 26.3803 56.7786L26.6292 57.0094L26.3465 57.3128L26.0898 57.0743C25.9083 57.235 25.6983 57.3258 25.4571 57.3465C25.216 57.3673 24.9489 57.2428 24.6559 56.9705L24.5262 56.8512L25.1382 56.1926L25.299 56.343C25.4753 56.5064 25.592 56.6023 25.649 56.6282C25.7035 56.6542 25.7553 56.6412 25.8046 56.5893C25.8461 56.5453 25.8617 56.4986 25.8513 56.4493C25.8409 56.4 25.8072 56.3482 25.7476 56.2937C25.5997 56.1563 25.4831 56.0681 25.4001 56.0292C25.3171 55.9903 25.1823 55.9981 24.9956 56.0474C24.6818 56.133 24.464 56.1822 24.3369 56.2004C24.2098 56.2185 24.0698 56.2004 23.9116 56.1563C23.756 56.1096 23.6083 56.0215 23.4734 55.897C23.2763 55.7155 23.1726 55.5158 23.1649 55.3006C23.1571 55.0854 23.2426 54.8546 23.4242 54.6056L23.2141 54.4112L23.4967 54.1078L23.7068 54.3022C23.922 54.1233 24.132 54.0352 24.3369 54.0352C24.5418 54.0352 24.7414 54.1285 24.9359 54.3074C24.9618 54.3334 25.0033 54.3723 25.0552 54.4293L25.0604 54.4319Z" fill="white"/>
<g style="mix-blend-mode:screen" opacity="0.7">
<path style="mix-blend-mode:screen" d="M23.7172 54.3003H23.7198C23.9065 54.1473 24.088 54.0592 24.2669 54.041C24.088 54.0592 23.9039 54.1447 23.7146 54.3003H23.7172Z" fill="url(#paint26_linear_1249_34228)"/>
<path style="mix-blend-mode:screen" d="M24.0413 54.7959C24.0569 54.7959 24.0725 54.7959 24.088 54.8037C24.1373 54.8219 24.2202 54.8841 24.3369 54.993L24.4459 55.0941V55.089L24.3447 54.9904C24.228 54.8815 24.1451 54.8193 24.0958 54.8011C24.0776 54.7959 24.0595 54.7933 24.0439 54.7959H24.0413Z" fill="url(#paint27_linear_1249_34228)"/>
<path style="mix-blend-mode:screen" d="M25.8669 56.4531C25.8565 56.4039 25.8228 56.352 25.7631 56.2976C25.6153 56.1601 25.4987 56.072 25.4183 56.0331C25.369 56.0097 25.299 56.0019 25.2108 56.0123C25.2964 56.0045 25.3612 56.0123 25.4105 56.0331C25.4935 56.072 25.6102 56.1601 25.758 56.2976C25.8176 56.352 25.8513 56.4039 25.8617 56.4531C25.8721 56.5024 25.8565 56.5491 25.815 56.5932C25.7865 56.6217 25.758 56.6398 25.7294 56.645C25.7631 56.645 25.7943 56.6243 25.8228 56.5932C25.8643 56.5491 25.8798 56.5024 25.8695 56.4531H25.8669Z" fill="url(#paint28_linear_1249_34228)"/>
<path style="mix-blend-mode:screen" d="M25.4157 55.0234C25.3042 55.0338 25.1227 55.0753 24.8659 55.1505C24.5989 55.2257 24.4174 55.2698 24.3266 55.2802C24.4174 55.2724 24.5989 55.2283 24.8737 55.1505C25.1253 55.0779 25.3068 55.0364 25.4183 55.0234H25.4157Z" fill="url(#paint29_linear_1249_34228)"/>
<path style="mix-blend-mode:screen" d="M26.1003 57.0781H26.0951L26.3492 57.3167V57.3115L26.1003 57.0781Z" fill="url(#paint30_linear_1249_34228)"/>
<path style="mix-blend-mode:screen" d="M25.4701 57.3525C25.2289 57.3732 24.9618 57.2488 24.6688 56.9765L24.5392 56.8572L25.1459 56.2012H25.1433L24.5314 56.8572L24.661 56.9765C24.954 57.2488 25.2212 57.3732 25.4623 57.3525C25.4701 57.3525 25.4779 57.3525 25.4856 57.3525C25.4805 57.3525 25.4753 57.3525 25.4701 57.3525Z" fill="url(#paint31_linear_1249_34228)"/>
<path style="mix-blend-mode:screen" d="M24.3266 56.2072C24.2073 56.2202 24.075 56.202 23.9298 56.1605C23.7742 56.1139 23.6264 56.0257 23.4916 55.9012C23.2945 55.7197 23.1908 55.5201 23.183 55.3048C23.1752 55.0896 23.2608 54.8588 23.4423 54.6099L23.2323 54.4154L23.5097 54.1172H23.5072L23.2245 54.418L23.4345 54.6125C23.253 54.8588 23.1675 55.0922 23.1752 55.3074C23.183 55.5226 23.2867 55.7223 23.4838 55.9038C23.6187 56.0309 23.7665 56.1165 23.922 56.1631C24.0698 56.2072 24.2047 56.2228 24.3266 56.2098V56.2072Z" fill="url(#paint32_linear_1249_34228)"/>
</g>
<path d="M63.073 112.548C64.9906 112.548 66.5455 114.102 66.5455 116.02H81.9408C84.9957 116.02 87.4722 113.544 87.4722 110.489V33.9671C87.4722 30.9121 84.9957 28.4355 81.9408 28.4355H66.5455C66.5455 30.3532 64.9909 31.9082 63.073 31.9082C61.1551 31.9082 59.6005 30.3532 59.6005 28.4355H44.2052C41.1503 28.4355 38.6738 30.9121 38.6738 33.9671V110.489C38.6738 113.544 41.1503 116.02 44.2052 116.02H59.6005C59.6005 114.102 61.1551 112.547 63.073 112.547V112.548Z" fill="url(#paint33_linear_1249_34228)"/>
<path d="M48.4047 78.2578H44.9101C43.9941 78.2578 43.2515 79.0004 43.2515 79.9164V83.4112C43.2515 84.3272 43.9941 85.0698 44.9101 85.0698H48.4047C49.3207 85.0698 50.0632 84.3272 50.0632 83.4112V79.9164C50.0632 79.0004 49.3207 78.2578 48.4047 78.2578Z" fill="white"/>
<path d="M59.3483 78.2578H55.8537C54.9377 78.2578 54.1951 79.0004 54.1951 79.9164V83.4112C54.1951 84.3272 54.9377 85.0698 55.8537 85.0698H59.3483C60.2643 85.0698 61.0068 84.3272 61.0068 83.4112V79.9164C61.0068 79.0004 60.2643 78.2578 59.3483 78.2578Z" fill="white"/>
<path d="M70.2919 78.2578H66.7973C65.8813 78.2578 65.1387 79.0004 65.1387 79.9164V83.4112C65.1387 84.3272 65.8813 85.0698 66.7973 85.0698H70.2919C71.2079 85.0698 71.9505 84.3272 71.9505 83.4112V79.9164C71.9505 79.0004 71.2079 78.2578 70.2919 78.2578Z" fill="white"/>
<path d="M81.2358 78.2578H77.7411C76.8251 78.2578 76.0826 79.0004 76.0826 79.9164V83.4112C76.0826 84.3272 76.8251 85.0698 77.7411 85.0698H81.2358C82.1517 85.0698 82.8943 84.3272 82.8943 83.4112V79.9164C82.8943 79.0004 82.1517 78.2578 81.2358 78.2578Z" fill="white"/>
<path d="M48.4048 89.2891H44.9101C43.9941 89.2891 43.2516 90.0316 43.2516 90.9477V94.4424C43.2516 95.3584 43.9941 96.101 44.9101 96.101H48.4048C49.3208 96.101 50.0633 95.3584 50.0633 94.4424V90.9477C50.0633 90.0316 49.3208 89.2891 48.4048 89.2891Z" fill="white"/>
<path d="M59.3483 89.2891H55.8537C54.9377 89.2891 54.1951 90.0316 54.1951 90.9477V94.4424C54.1951 95.3584 54.9377 96.101 55.8537 96.101H59.3483C60.2643 96.101 61.0068 95.3584 61.0068 94.4424V90.9477C61.0068 90.0316 60.2643 89.2891 59.3483 89.2891Z" fill="white"/>
<path d="M70.292 89.2891H66.7973C65.8814 89.2891 65.1388 90.0316 65.1388 90.9477V94.4424C65.1388 95.3584 65.8814 96.101 66.7973 96.101H70.292C71.208 96.101 71.9505 95.3584 71.9505 94.4424V90.9477C71.9505 90.0316 71.208 89.2891 70.292 89.2891Z" fill="white"/>
<path d="M81.2358 89.2891H77.7412C76.8252 89.2891 76.0826 90.0316 76.0826 90.9477V94.4424C76.0826 95.3584 76.8252 96.101 77.7412 96.101H81.2358C82.1518 96.101 82.8944 95.3584 82.8944 94.4424V90.9477C82.8944 90.0316 82.1518 89.2891 81.2358 89.2891Z" fill="white"/>
<path d="M48.4047 100.764H44.9101C43.9941 100.764 43.2515 101.506 43.2515 102.422V105.917C43.2515 106.833 43.9941 107.576 44.9101 107.576H48.4047C49.3207 107.576 50.0632 106.833 50.0632 105.917V102.422C50.0632 101.506 49.3207 100.764 48.4047 100.764Z" fill="white"/>
<path d="M59.3483 100.764H55.8537C54.9377 100.764 54.1951 101.506 54.1951 102.422V105.917C54.1951 106.833 54.9377 107.576 55.8537 107.576H59.3483C60.2643 107.576 61.0068 106.833 61.0068 105.917V102.422C61.0068 101.506 60.2643 100.764 59.3483 100.764Z" fill="white"/>
<path d="M70.2919 100.764H66.7973C65.8813 100.764 65.1387 101.506 65.1387 102.422V105.917C65.1387 106.833 65.8813 107.576 66.7973 107.576H70.2919C71.2079 107.576 71.9505 106.833 71.9505 105.917V102.422C71.9505 101.506 71.2079 100.764 70.2919 100.764Z" fill="white"/>
<path d="M81.2358 100.764H77.7412C76.8252 100.764 76.0826 101.506 76.0826 102.422V105.917C76.0826 106.833 76.8252 107.576 77.7412 107.576H81.2358C82.1518 107.576 82.8944 106.833 82.8944 105.917V102.422C82.8944 101.506 82.1518 100.764 81.2358 100.764Z" fill="white"/>
<path d="M81.4877 35.6855H45.199V71.0806H81.4877V35.6855Z" fill="white"/>
<path d="M50.386 49.0781H49.2863V54.3292H50.386V49.0781Z" fill="#1C53B4"/>
<path d="M52.5396 50.1289H51.4399V55.38H52.5396V50.1289Z" fill="#1C53B4"/>
<path d="M69.6997 45.959H68.6674V51.1783H69.6997V45.959Z" fill="#1C53B4"/>
<path d="M77.237 45.8945H76.2047V51.1795H77.237V45.8945Z" fill="#1C53B4"/>
<path d="M74.0512 45.9277H73.0189V49.0785H74.0512V45.9277Z" fill="#1C53B4"/>
<path d="M71.8305 49.0781H70.7981V51.1785H71.8305V49.0781Z" fill="#1C53B4"/>
<path d="M54.6702 57.4805H53.5933V59.5808H54.6702V57.4805Z" fill="#1C53B4"/>
<path d="M79.3906 67.9824H78.3582V70.0828H79.3906V67.9824Z" fill="#1C53B4"/>
<path d="M67.5462 46.9785H66.5139V49.0789H67.5462V46.9785Z" fill="#1C53B4"/>
<path d="M62.2069 41.7266H61.1303V43.8269H62.2069V41.7266Z" fill="#1C53B4"/>
<path d="M80.5114 48.0289V46.9785H77.0793V48.0289H80.5114Z" fill="#1C53B4"/>
<path d="M65.4601 36.709H64.3604V41.7922H65.4601V36.709Z" fill="#1C53B4"/>
<path d="M64.3835 40.6758H63.2838V45.9269H64.3835V40.6758Z" fill="#1C53B4"/>
<path d="M56.8464 36.709H55.7467V41.756H56.8464V36.709Z" fill="#1C53B4"/>
<path d="M60.0537 50.0293H58.954V55.2486H60.0537V50.0293Z" fill="#1C53B4"/>
<path d="M65.4601 52.2305H64.3604V57.4816H65.4601V52.2305Z" fill="#1C53B4"/>
<path d="M64.3835 61.6816H63.2838V66.9327H64.3835V61.6816Z" fill="#1C53B4"/>
<path d="M80.5345 53.2793H79.4348V58.5304H80.5345V53.2793Z" fill="#1C53B4"/>
<path d="M68.6677 54.3301H67.568V59.5812H68.6677V54.3301Z" fill="#1C53B4"/>
<path d="M70.8211 65.8828H69.7214V70.0836H70.8211V65.8828Z" fill="#1C53B4"/>
<path d="M70.7538 59.582H69.7442V64.8331H70.7538V59.582Z" fill="#1C53B4"/>
<path d="M75.1278 59.6133H74.0512V64.8326H75.1278V59.6133Z" fill="#1C53B4"/>
<path d="M75.1277 60.6324V59.582H69.7767V60.6324H75.1277Z" fill="#1C53B4"/>
<path d="M75.1277 64.8324V63.8477H69.8112V64.8324H75.1277Z" fill="#1C53B4"/>
<path d="M62.2073 54.3301H61.1075V59.5812H62.2073V54.3301Z" fill="#1C53B4"/>
<path d="M60.0765 64.832H58.9768V69.0328H60.0765V64.832Z" fill="#1C53B4"/>
<path d="M48.2325 55.3809H47.1328V60.632H48.2325V55.3809Z" fill="#1C53B4"/>
<path d="M52.5472 46.9844H51.4399V48.0302H52.5472V46.9844Z" fill="#1C53B4"/>
<path d="M49.2863 46.9785H48.179V48.0244H49.2863V46.9785Z" fill="#1C53B4"/>
<path d="M47.148 48.0293H46.0407V49.0752H47.148V48.0293Z" fill="#1C53B4"/>
<path d="M56.854 44.6816H55.7467V45.99H56.854V44.6816Z" fill="#1C53B4"/>
<path d="M52.5599 48.0293H50.3629V49.0752H52.5599V48.0293Z" fill="#1C53B4"/>
<path d="M54.6702 49.0781H53.5933V50.124H54.6702V49.0781Z" fill="#1C53B4"/>
<path d="M57.9003 37.5293H56.793V38.5752H57.9003V37.5293Z" fill="#1C53B4"/>
<path d="M59.0075 38.5781H57.9002V39.624H59.0075V38.5781Z" fill="#1C53B4"/>
<path d="M63.3246 37.5312H61.1303V38.5771H63.3246V37.5312Z" fill="#1C53B4"/>
<path d="M61.3324 42.7773H60.0538V43.8232H61.3324V42.7773Z" fill="#1C53B4"/>
<path d="M51.4394 45.9277H50.3629V46.9736H51.4394V45.9277Z" fill="#1C53B4"/>
<path d="M58.9769 62.7324H56.8234V63.7783H58.9769V62.7324Z" fill="#1C53B4"/>
<path d="M60.0537 61.6816H58.9464V62.7275H60.0537V61.6816Z" fill="#1C53B4"/>
<path d="M70.8515 39.6328H69.7442V40.6787H70.8515V39.6328Z" fill="#1C53B4"/>
<path d="M68.8021 38.5781H67.6948V39.624H68.8021V38.5781Z" fill="#1C53B4"/>
<path d="M69.7747 37.6602H68.6674V38.706H69.7747V37.6602Z" fill="#1C53B4"/>
<path d="M70.7842 36.6777H69.6769V38.708H70.7842V36.6777Z" fill="#1C53B4"/>
<path d="M70.8208 44.8848H69.7135V45.9306H70.8208V44.8848Z" fill="#1C53B4"/>
<path d="M64.4584 38.582H63.2838V39.6279H64.4584V38.582Z" fill="#1C53B4"/>
<path d="M49.8631 51.1855H47.1328V52.2314H49.8631V51.1855Z" fill="#1C53B4"/>
<path d="M47.1632 52.2109H46.0559V53.2793H47.1632V52.2109Z" fill="#1C53B4"/>
<path d="M57.674 50.1348H54.6698V51.1806H57.674V50.1348Z" fill="#1C53B4"/>
<path d="M64.3911 51.1855H63.2838V52.2314H64.3911V51.1855Z" fill="#1C53B4"/>
<path d="M70.8208 51.1797H69.7135V52.2256H70.8208V51.1797Z" fill="#1C53B4"/>
<path d="M75.1278 49.0859H74.0204V50.1318H75.1278V49.0859Z" fill="#1C53B4"/>
<path d="M75.1278 46.9785H74.0204V48.0244H75.1278V46.9785Z" fill="#1C53B4"/>
<path d="M76.2047 48.0352H75.0974V49.081H76.2047V48.0352Z" fill="#1C53B4"/>
<path d="M79.4655 45.9336H78.3582V46.9795H79.4655V45.9336Z" fill="#1C53B4"/>
<path d="M80.5117 48.0293H79.4348V49.0752H80.5117V48.0293Z" fill="#1C53B4"/>
<path d="M80.5117 50.1289H79.4044V51.1793H80.5117V50.1289Z" fill="#1C53B4"/>
<path d="M79.4348 51.1797H78.3582V52.23H79.4348V51.1797Z" fill="#1C53B4"/>
<path d="M77.2813 52.2305H76.2413V53.2763H77.2813V52.2305Z" fill="#1C53B4"/>
<path d="M76.2351 57.4805H75.1277V58.5263H76.2351V57.4805Z" fill="#1C53B4"/>
<path d="M75.1585 56.4336H74.0512V57.4795H75.1585V56.4336Z" fill="#1C53B4"/>
<path d="M79.6113 57.4805H77.2509V58.5263H79.6113V57.4805Z" fill="#1C53B4"/>
<path d="M80.5421 59.5879H79.4348V60.6338H80.5421V59.5879Z" fill="#1C53B4"/>
<path d="M77.312 59.582H76.2047V60.6279H77.312V59.582Z" fill="#1C53B4"/>
<path d="M77.312 65.8867H76.2047V66.9326H77.312V65.8867Z" fill="#1C53B4"/>
<path d="M80.5114 67.9863H79.3674V69.0322H80.5114V67.9863Z" fill="#1C53B4"/>
<path d="M75.1278 66.9355H74.0204V67.9814H75.1278V66.9355Z" fill="#1C53B4"/>
<path d="M74.0709 67.9629H72.9636V70.0702H74.0709V67.9629Z" fill="#1C53B4"/>
<path d="M68.6981 66.8672H67.5908V67.9787H68.6981V66.8672Z" fill="#1C53B4"/>
<path d="M70.1383 69.0371H67.5908V70.083H70.1383V69.0371Z" fill="#1C53B4"/>
<path d="M78.3886 66.9355H77.2813V67.9814H78.3886V66.9355Z" fill="#1C53B4"/>
<path d="M76.2043 51.1797H75.1277V52.2256H76.2043V51.1797Z" fill="#1C53B4"/>
<path d="M74.0816 50.1289H72.9743V51.1748H74.0816V50.1289Z" fill="#1C53B4"/>
<path d="M71.9285 46.9844H69.64V48.0302H71.9285V46.9844Z" fill="#1C53B4"/>
<path d="M54.7006 51.1855H53.5933V52.2314H54.7006V51.1855Z" fill="#1C53B4"/>
<path d="M50.3628 55.3867H49.2863V56.4326H50.3628V55.3867Z" fill="#1C53B4"/>
<path d="M50.3629 58.5371H48.0726V59.583H50.3629V58.5371Z" fill="#1C53B4"/>
<path d="M55.7468 58.5312H54.6395V59.5816H55.7468V58.5312Z" fill="#1C53B4"/>
<path d="M56.843 61.8027V59.5684H55.6798V61.8027H56.843Z" fill="#1C53B4"/>
<path d="M56.9059 54.332H55.7986V55.3779H56.9059V54.332Z" fill="#1C53B4"/>
<path d="M53.5933 53.2852H52.486V54.331H53.5933V53.2852Z" fill="#1C53B4"/>
<path d="M63.2164 55.3809H62.1091V56.4267H63.2164V55.3809Z" fill="#1C53B4"/>
<path d="M67.6212 53.2852H66.5139V54.331H67.6212V53.2852Z" fill="#1C53B4"/>
<path d="M74.0513 52.2305H72.944V53.2808H74.0513V52.2305Z" fill="#1C53B4"/>
<path d="M53.5929 59.5879H52.5164V60.6338H53.5929V59.5879Z" fill="#1C53B4"/>
<path d="M47.1998 59.582H46.0559V60.6279H47.1998V59.582Z" fill="#1C53B4"/>
<path d="M47.1846 56.4531H46.0407V57.499H47.1846V56.4531Z" fill="#1C53B4"/>
<path d="M61.1303 62.7363H60.023V63.7822H61.1303V62.7363Z" fill="#1C53B4"/>
<path d="M62.2376 65.8867H61.1303V66.9326H62.2376V65.8867Z" fill="#1C53B4"/>
<path d="M63.3246 69.0371H61.1303V70.083H63.3246V69.0371Z" fill="#1C53B4"/>
<path d="M63.3142 66.9355H62.2069V67.9814H63.3142V66.9355Z" fill="#1C53B4"/>
<path d="M66.5446 45.9336H65.4373V46.9795H66.5446V45.9336Z" fill="#1C53B4"/>
<path d="M63.2838 60.6309H60.0538V61.6767H63.2838V60.6309Z" fill="#1C53B4"/>
<path d="M67.6212 61.6816H66.5139V62.7275H67.6212V61.6816Z" fill="#1C53B4"/>
<path d="M68.6981 60.6387H67.5908V61.6845H68.6981V60.6387Z" fill="#1C53B4"/>
<path d="M68.7348 62.7324H67.6274V63.7783H68.7348V62.7324Z" fill="#1C53B4"/>
<path d="M66.5139 69.0332H65.4066V70.0791H66.5139V69.0332Z" fill="#1C53B4"/>
<path d="M51.4702 59.5879H50.3629V60.6338H51.4702V59.5879Z" fill="#1C53B4"/>
<path d="M56.843 61.6855H55.6797V62.7314H56.843V61.6855Z" fill="#1C53B4"/>
<path d="M56.854 63.7852H55.7467V64.831H56.854V63.7852Z" fill="#1C53B4"/>
<path d="M57.9673 64.8359H56.86V65.8818H57.9673V64.8359Z" fill="#1C53B4"/>
<path d="M57.9673 65.8828H56.86V66.9287H57.9673V65.8828Z" fill="#1C53B4"/>
<path d="M56.854 66.9355H55.7467V67.9814H56.854V66.9355Z" fill="#1C53B4"/>
<path d="M57.9307 67.9824H56.8234V69.0283H57.9307V67.9824Z" fill="#1C53B4"/>
<path d="M56.8906 69.0371H55.7833V70.083H56.8906V69.0371Z" fill="#1C53B4"/>
<path d="M59.0075 69.0332H57.9002V70.0836H59.0075V69.0332Z" fill="#1C53B4"/>
<path d="M49.3167 54.3301H48.2094V55.3759H49.3167V54.3301Z" fill="#1C53B4"/>
<path d="M48.2401 53.2852H47.1328V54.331H48.2401V53.2852Z" fill="#1C53B4"/>
<path d="M47.1632 54.3438H46.0559V55.3896H47.1632V54.3438Z" fill="#1C53B4"/>
<path d="M54.6699 36.709H46.0559V44.8117H54.6699V36.709Z" fill="#1C53B4"/>
<path d="M53.3443 37.9551H47.3818V43.5637H53.3443V37.9551Z" fill="white"/>
<path d="M52.1796 39.0508H48.5458V42.4692H52.1796V39.0508Z" fill="#1C53B4"/>
<path d="M54.6699 61.668H46.0559V70.0815H54.6699V61.668Z" fill="#1C53B4"/>
<path d="M53.3443 62.9629H47.3819V68.7867H53.3443V62.9629Z" fill="white"/>
<path d="M52.1796 64.0996H48.5458V67.6493H52.1796V64.0996Z" fill="#1C53B4"/>
<path d="M80.559 36.709H71.945V44.8117H80.559V36.709Z" fill="#1C53B4"/>
<path d="M79.2331 37.9551H73.2707V43.5637H79.2331V37.9551Z" fill="white"/>
<path d="M78.0691 39.0508H74.4349V42.4692H78.0691V39.0508Z" fill="#1C53B4"/>
<path d="M73.0756 61.6016H71.7969V62.8844H73.0756V61.6016Z" fill="#1C53B4"/>
<path d="M63.2838 39.6289H61.1303V41.7293H63.2838V39.6289Z" fill="#1C53B4"/>
<path d="M60.0537 45.9277H57.8329V48.0281H60.0537V45.9277Z" fill="#1C53B4"/>
<path d="M67.7254 50.1289H65.4373V52.2293H67.7254V50.1289Z" fill="#1C53B4"/>
<path d="M73.1091 52.2305H70.8209V54.3308H73.1091V52.2305Z" fill="#1C53B4"/>
<path d="M74.0513 54.3301H71.8978V56.4304H74.0513V54.3301Z" fill="#1C53B4"/>
<path d="M78.4928 62.7324H76.2047V64.8328H78.4928V62.7324Z" fill="#1C53B4"/>
<path d="M65.4373 48.0293H63.2164V50.1297H65.4373V48.0293Z" fill="#1C53B4"/>
<path d="M52.5163 56.4297H50.3629V58.5301H52.5163V56.4297Z" fill="#1C53B4"/>
<path d="M70.8885 55.3809H68.6003V57.4812H70.8885V55.3809Z" fill="#1C53B4"/>
<path d="M64.3607 57.4805H62.1399V59.5808H64.3607V57.4805Z" fill="#1C53B4"/>
<path d="M78.4928 54.3301H76.2047V56.4304H78.4928V54.3301Z" fill="#1C53B4"/>
<path d="M60.0537 58.5312H57.9002V60.6316H60.0537V58.5312Z" fill="#1C53B4"/>
<path d="M67.6581 41.7266H65.4373V43.8269H67.6581V41.7266Z" fill="#1C53B4"/>
<path d="M63.2838 46.9785H61.1303V51.1793H63.2838V46.9785Z" fill="#1C53B4"/>
<path d="M59.1116 53.1484H56.8234V57.4804H59.1116V53.1484Z" fill="#1C53B4"/>
<path d="M52.5164 45.9282V46.9785H54.6688V45.9282H52.5164Z" fill="#1C53B4"/>
<path d="M56.8234 41.727V42.7773H58.9769V41.727H56.8234Z" fill="#1C53B4"/>
<path d="M46.0559 45.9271V46.9785H48.2084V45.9271H46.0559Z" fill="#1C53B4"/>
<path d="M55.7474 43.8301V44.916H57.8999V43.8301H55.7474Z" fill="#1C53B4"/>
<path d="M55.7467 45.9289V46.9492H57.8992V45.9289H55.7467Z" fill="#1C53B4"/>
<path d="M54.6709 48.0578V49.0781H56.8234V48.0578H54.6709Z" fill="#1C53B4"/>
<path d="M57.8999 49.0774V50.1934H60.0524V49.0774H57.8999Z" fill="#1C53B4"/>
<path d="M47.1325 49.0785V50.1289H49.285V49.0785H47.1325Z" fill="#1C53B4"/>
<path d="M60.0544 44.9074V45.9277H62.2069V44.9074H60.0544Z" fill="#1C53B4"/>
<path d="M64.2944 43.8266V44.877H66.5142V43.8266H64.2944Z" fill="#1C53B4"/>
<path d="M67.5908 43.8266V44.877H69.7442V43.8266H67.5908Z" fill="#1C53B4"/>
<path d="M68.6688 42.8449V43.8652H70.8212V42.8449H68.6688Z" fill="#1C53B4"/>
<path d="M67.5908 40.6762V41.7266H69.7442V40.6762H67.5908Z" fill="#1C53B4"/>
<path d="M61.1303 52.2289V53.2793H63.2838V52.2289H61.1303Z" fill="#1C53B4"/>
<path d="M65.4235 36.7102V37.7305H67.5759V36.7102H65.4235Z" fill="#1C53B4"/>
<path d="M56.8243 50.1293V51.1797H58.9768V50.1293H56.8243Z" fill="#1C53B4"/>
<path d="M52.5174 55.3793V56.4297H54.6698V55.3793H52.5174Z" fill="#1C53B4"/>
<path d="M54.6709 56.3289V57.4805H56.8234V56.3289H54.6709Z" fill="#1C53B4"/>
<path d="M61.1303 63.7817V64.832H63.2828V63.7817H61.1303Z" fill="#1C53B4"/>
<path d="M59.0438 64.832V65.918H61.1963V64.832H59.0438Z" fill="#1C53B4"/>
<path d="M50.1612 50.1293V51.1797H52.3136V50.1293H50.1612Z" fill="#1C53B4"/>
<path d="M54.6709 52.2277V53.248H56.8233V52.2277H54.6709Z" fill="#1C53B4"/>
<path d="M65.4383 54.3293V55.3496H67.5907V54.3293H65.4383Z" fill="#1C53B4"/>
<path d="M64.3604 59.5813V60.6016H66.5812V59.5813H64.3604Z" fill="#1C53B4"/>
<path d="M70.8209 57.4797V58.5H72.9733V57.4797H70.8209Z" fill="#1C53B4"/>
<path d="M77.2813 60.6313V61.6816H79.4338V60.6313H77.2813Z" fill="#1C53B4"/>
<path d="M78.4937 64.8313V65.8516H80.6461V64.8313H78.4937Z" fill="#1C53B4"/>
<path d="M70.7732 67.9641V68.9844H73.0016V67.9641H70.7732Z" fill="#1C53B4"/>
<path d="M71.8987 65.9113V66.9316H74.0512V65.9113H71.8987Z" fill="#1C53B4"/>
<path d="M64.3607 62.7609V63.7812H66.5142V62.7609H64.3607Z" fill="#1C53B4"/>
<path d="M75.1282 67.9836V69.0039H77.2817V67.9836H75.1282Z" fill="#1C53B4"/>
<path d="M65.4373 64.8625V65.8828H67.5907V64.8625H65.4373Z" fill="#1C53B4"/>
<path d="M67.5905 65.882V66.9023H69.7439V65.882H67.5905Z" fill="#1C53B4"/>
<path d="M63.2838 67.9828V69.0332H65.4372V67.9828H63.2838Z" fill="#1C53B4"/>
<path d="M47.8025 34.3967C47.8025 34.1635 47.6088 33.9746 47.3698 33.9746H43.9915C43.7035 33.9746 43.4703 34.2022 43.4703 34.483V37.774C43.4703 38.0071 43.6641 38.1961 43.9031 38.1961C44.1421 38.1961 44.3359 38.0071 44.3359 37.774V35.2412C44.3359 35.008 44.5296 34.8191 44.7686 34.8191H47.3694C47.6084 34.8191 47.8022 34.6302 47.8022 34.397L47.8025 34.3967Z" fill="#4CEAB1"/>
<path d="M78.9018 34.3967C78.9018 34.1635 79.0956 33.9746 79.3346 33.9746H82.7128C83.0008 33.9746 83.234 34.2022 83.234 34.483V37.774C83.234 38.0071 83.0402 38.1961 82.8012 38.1961C82.5622 38.1961 82.3684 38.0071 82.3684 37.774V35.2412C82.3684 35.008 82.1747 34.8191 81.9357 34.8191H79.3349C79.0959 34.8191 78.9021 34.6302 78.9021 34.397L78.9018 34.3967Z" fill="#4CEAB1"/>
<path d="M47.8025 72.4459C47.8025 72.679 47.6088 72.8679 47.3698 72.8679H43.9915C43.7035 72.8679 43.4703 72.6403 43.4703 72.3595V69.0686C43.4703 68.8354 43.6641 68.6465 43.9031 68.6465C44.1421 68.6465 44.3359 68.8354 44.3359 69.0686V71.6014C44.3359 71.8345 44.5296 72.0235 44.7686 72.0235H47.3694C47.6084 72.0235 47.8022 72.2124 47.8022 72.4455L47.8025 72.4459Z" fill="#4CEAB1"/>
<path d="M78.8953 72.4521C78.8953 72.6859 79.0898 72.8756 79.3295 72.8756H82.7181C83.0068 72.8756 83.241 72.6473 83.241 72.3654V69.0641C83.241 68.8302 83.0465 68.6406 82.8068 68.6406C82.5671 68.6406 82.3727 68.8302 82.3727 69.0641V71.6048C82.3727 71.8387 82.1782 72.0283 81.9385 72.0283H79.3295C79.0898 72.0283 78.8953 72.2179 78.8953 72.4518V72.4521Z" fill="#4CEAB1"/>
<g opacity="0.43">
<path d="M83.3038 54.5859H43.4703V72.8765H83.3038V54.5859Z" fill="#51FCEE"/>
</g>
<path d="M83.1114 54.7812H43.5999C43.4935 54.7812 43.4075 54.6651 43.4075 54.5215C43.4075 54.3778 43.4935 54.2617 43.5999 54.2617H83.1118C83.2182 54.2617 83.3042 54.3778 83.3042 54.5215C83.3042 54.6651 83.2182 54.7812 83.1118 54.7812H83.1114Z" fill="#13CCDF"/>
<defs>
<filter id="filter0_d_1249_34228" x="14.1995" y="100.096" width="23.2148" height="19.2305" filterUnits="userSpaceOnUse" color-interpolation-filters="sRGB">
<feFlood flood-opacity="0" result="BackgroundImageFix"/>
<feColorMatrix in="SourceAlpha" type="matrix" values="0 0 0 0 0 0 0 0 0 0 0 0 0 0 0 0 0 0 127 0" result="hardAlpha"/>
<feOffset dy="4"/>
<feGaussianBlur stdDeviation="2"/>
<feComposite in2="hardAlpha" operator="out"/>
<feColorMatrix type="matrix" values="0 0 0 0 0 0 0 0 0 0 0 0 0 0 0 0 0 0 0.25 0"/>
<feBlend mode="normal" in2="BackgroundImageFix" result="effect1_dropShadow_1249_34228"/>
<feBlend mode="normal" in="SourceGraphic" in2="effect1_dropShadow_1249_34228" result="shape"/>
</filter>
<filter id="filter1_d_1249_34228" x="108.094" y="77.2148" width="15.5983" height="16.5137" filterUnits="userSpaceOnUse" color-interpolation-filters="sRGB">
<feFlood flood-opacity="0" result="BackgroundImageFix"/>
<feColorMatrix in="SourceAlpha" type="matrix" values="0 0 0 0 0 0 0 0 0 0 0 0 0 0 0 0 0 0 127 0" result="hardAlpha"/>
<feOffset dy="4"/>
<feGaussianBlur stdDeviation="2"/>
<feComposite in2="hardAlpha" operator="out"/>
<feColorMatrix type="matrix" values="0 0 0 0 0 0 0 0 0 0 0 0 0 0 0 0 0 0 0.25 0"/>
<feBlend mode="normal" in2="BackgroundImageFix" result="effect1_dropShadow_1249_34228"/>
<feBlend mode="normal" in="SourceGraphic" in2="effect1_dropShadow_1249_34228" result="shape"/>
</filter>
<linearGradient id="paint0_linear_1249_34228" x1="95.6572" y1="34.356" x2="74.4117" y2="113.645" gradientUnits="userSpaceOnUse">
<stop stop-color="white"/>
<stop offset="0.0001" stop-color="white"/>
<stop offset="1" stop-color="#C5C8E6"/>
</linearGradient>
<linearGradient id="paint1_linear_1249_34228" x1="19.8038" y1="37.4764" x2="60.847" y2="108.565" gradientUnits="userSpaceOnUse">
<stop stop-color="white"/>
<stop offset="0.0001" stop-color="white"/>
<stop offset="0.630208" stop-color="#C5C8E5"/>
<stop offset="1" stop-color="#DBDBDB"/>
</linearGradient>
<linearGradient id="paint2_linear_1249_34228" x1="104.771" y1="17.0938" x2="104.771" y2="34.1252" gradientUnits="userSpaceOnUse">
<stop stop-color="#13CCDF"/>
<stop offset="1" stop-color="#A6F7FF" stop-opacity="0"/>
</linearGradient>
<linearGradient id="paint3_linear_1249_34228" x1="32.5397" y1="0" x2="32.5397" y2="11.5805" gradientUnits="userSpaceOnUse">
<stop stop-color="#13CCDF"/>
<stop offset="1" stop-color="#A6F7FF" stop-opacity="0"/>
</linearGradient>
<linearGradient id="paint4_linear_1249_34228" x1="21.1263" y1="102.928" x2="28.2525" y2="110.178" gradientUnits="userSpaceOnUse">
<stop stop-color="#FFD08D"/>
<stop offset="0.58" stop-color="#FFDC2A"/>
<stop offset="0.81" stop-color="#F3C237"/>
<stop offset="1" stop-color="#EBB140"/>
</linearGradient>
<linearGradient id="paint5_linear_1249_34228" x1="27.1431" y1="109.01" x2="24.3342" y2="102.033" gradientUnits="userSpaceOnUse">
<stop stop-color="#F0C827"/>
<stop offset="0.08" stop-color="#E9BE25"/>
<stop offset="0.22" stop-color="#E2B424"/>
<stop offset="0.38" stop-color="#EECA46"/>
<stop offset="0.57" stop-color="#FAE168"/>
<stop offset="0.68" stop-color="#FFEA76"/>
<stop offset="0.74" stop-color="#FDE770"/>
<stop offset="0.82" stop-color="#FBE161"/>
<stop offset="0.91" stop-color="#F6D647"/>
<stop offset="1" stop-color="#F0C827"/>
</linearGradient>
<linearGradient id="paint6_linear_1249_34228" x1="27.1431" y1="109.01" x2="24.3342" y2="102.033" gradientUnits="userSpaceOnUse">
<stop stop-color="#FFD08D"/>
<stop offset="0.58" stop-color="#FFAF2A"/>
<stop offset="0.71" stop-color="#F8A631"/>
<stop offset="1" stop-color="#EC9540"/>
</linearGradient>
<linearGradient id="paint7_linear_1249_34228" x1="25.8749" y1="103.116" x2="25.7653" y2="102.844" gradientUnits="userSpaceOnUse">
<stop offset="0.04" stop-color="#F8DA36"/>
<stop offset="0.11" stop-color="#F1CD21"/>
<stop offset="0.19" stop-color="#EBC412"/>
<stop offset="0.28" stop-color="#E8BE09"/>
<stop offset="0.42" stop-color="#E8BD07"/>
<stop offset="0.51" stop-color="#EFCB1B"/>
<stop offset="0.64" stop-color="#F8DB33"/>
<stop offset="0.77" stop-color="#FDE542"/>
<stop offset="0.87" stop-color="#FFE947"/>
<stop offset="1" stop-color="#FFEC63"/>
</linearGradient>
<linearGradient id="paint8_linear_1249_34228" x1="25.4431" y1="104.468" x2="25.2023" y2="103.87" gradientUnits="userSpaceOnUse">
<stop offset="0.04" stop-color="#F8DA36"/>
<stop offset="0.11" stop-color="#F1CD21"/>
<stop offset="0.19" stop-color="#EBC412"/>
<stop offset="0.28" stop-color="#E8BE09"/>
<stop offset="0.42" stop-color="#E8BD07"/>
<stop offset="0.51" stop-color="#EFCB1B"/>
<stop offset="0.64" stop-color="#F8DB33"/>
<stop offset="0.77" stop-color="#FDE542"/>
<stop offset="0.87" stop-color="#FFE947"/>
<stop offset="1" stop-color="#FFEC63"/>
</linearGradient>
<linearGradient id="paint9_linear_1249_34228" x1="26.1985" y1="106.984" x2="25.792" y2="105.975" gradientUnits="userSpaceOnUse">
<stop offset="0.04" stop-color="#F8DA36"/>
<stop offset="0.11" stop-color="#F1CD21"/>
<stop offset="0.19" stop-color="#EBC412"/>
<stop offset="0.28" stop-color="#E8BE09"/>
<stop offset="0.42" stop-color="#E8BD07"/>
<stop offset="0.51" stop-color="#EFCB1B"/>
<stop offset="0.64" stop-color="#F8DB33"/>
<stop offset="0.77" stop-color="#FDE542"/>
<stop offset="0.87" stop-color="#FFE947"/>
<stop offset="1" stop-color="#FFEC63"/>
</linearGradient>
<linearGradient id="paint10_linear_1249_34228" x1="26.3388" y1="105.031" x2="26.0368" y2="104.281" gradientUnits="userSpaceOnUse">
<stop offset="0.04" stop-color="#F8DA36"/>
<stop offset="0.11" stop-color="#F1CD21"/>
<stop offset="0.19" stop-color="#EBC412"/>
<stop offset="0.28" stop-color="#E8BE09"/>
<stop offset="0.42" stop-color="#E8BD07"/>
<stop offset="0.51" stop-color="#EFCB1B"/>
<stop offset="0.64" stop-color="#F8DB33"/>
<stop offset="0.77" stop-color="#FDE542"/>
<stop offset="0.87" stop-color="#FFE947"/>
<stop offset="1" stop-color="#FFEC63"/>
</linearGradient>
<linearGradient id="paint11_linear_1249_34228" x1="26.186" y1="108.216" x2="26.0191" y2="107.801" gradientUnits="userSpaceOnUse">
<stop offset="0.04" stop-color="#F8DA36"/>
<stop offset="0.11" stop-color="#F1CD21"/>
<stop offset="0.19" stop-color="#EBC412"/>
<stop offset="0.28" stop-color="#E8BE09"/>
<stop offset="0.42" stop-color="#E8BD07"/>
<stop offset="0.51" stop-color="#EFCB1B"/>
<stop offset="0.64" stop-color="#F8DB33"/>
<stop offset="0.77" stop-color="#FDE542"/>
<stop offset="0.87" stop-color="#FFE947"/>
<stop offset="1" stop-color="#FFEC63"/>
</linearGradient>
<linearGradient id="paint12_linear_1249_34228" x1="24.9196" y1="107.874" x2="24.4208" y2="106.635" gradientUnits="userSpaceOnUse">
<stop offset="0.04" stop-color="#F8DA36"/>
<stop offset="0.11" stop-color="#F1CD21"/>
<stop offset="0.19" stop-color="#EBC412"/>
<stop offset="0.28" stop-color="#E8BE09"/>
<stop offset="0.42" stop-color="#E8BD07"/>
<stop offset="0.51" stop-color="#EFCB1B"/>
<stop offset="0.64" stop-color="#F8DB33"/>
<stop offset="0.77" stop-color="#FDE542"/>
<stop offset="0.87" stop-color="#FFE947"/>
<stop offset="1" stop-color="#FFEC63"/>
</linearGradient>
<linearGradient id="paint13_linear_1249_34228" x1="24.564" y1="105.754" x2="23.5848" y2="103.321" gradientUnits="userSpaceOnUse">
<stop offset="0.04" stop-color="#F8DA36"/>
<stop offset="0.11" stop-color="#F1CD21"/>
<stop offset="0.19" stop-color="#EBC412"/>
<stop offset="0.28" stop-color="#E8BE09"/>
<stop offset="0.42" stop-color="#E8BD07"/>
<stop offset="0.51" stop-color="#EFCB1B"/>
<stop offset="0.64" stop-color="#F8DB33"/>
<stop offset="0.77" stop-color="#FDE542"/>
<stop offset="0.87" stop-color="#FFE947"/>
<stop offset="1" stop-color="#FFEC63"/>
</linearGradient>
<linearGradient id="paint14_linear_1249_34228" x1="116.776" y1="78.338" x2="113.691" y2="83.577" gradientUnits="userSpaceOnUse">
<stop stop-color="#FFD08D"/>
<stop offset="0.58" stop-color="#FFDC2A"/>
<stop offset="0.81" stop-color="#F3C237"/>
<stop offset="1" stop-color="#EBB140"/>
</linearGradient>
<linearGradient id="paint15_linear_1249_34228" x1="114.193" y1="82.7559" x2="117.789" y2="80.0533" gradientUnits="userSpaceOnUse">
<stop stop-color="#F0C827"/>
<stop offset="0.08" stop-color="#E9BE25"/>
<stop offset="0.22" stop-color="#E2B424"/>
<stop offset="0.38" stop-color="#EECA46"/>
<stop offset="0.57" stop-color="#FAE168"/>
<stop offset="0.68" stop-color="#FFEA76"/>
<stop offset="0.74" stop-color="#FDE770"/>
<stop offset="0.82" stop-color="#FBE161"/>
<stop offset="0.91" stop-color="#F6D647"/>
<stop offset="1" stop-color="#F0C827"/>
</linearGradient>
<linearGradient id="paint16_linear_1249_34228" x1="114.193" y1="82.7559" x2="117.789" y2="80.0533" gradientUnits="userSpaceOnUse">
<stop stop-color="#FFD08D"/>
<stop offset="0.58" stop-color="#FFAF2A"/>
<stop offset="0.71" stop-color="#F8A631"/>
<stop offset="1" stop-color="#EC9540"/>
</linearGradient>
<linearGradient id="paint17_linear_1249_34228" x1="117.4" y1="81.1093" x2="117.54" y2="81.0039" gradientUnits="userSpaceOnUse">
<stop offset="0.04" stop-color="#F8DA36"/>
<stop offset="0.11" stop-color="#F1CD21"/>
<stop offset="0.19" stop-color="#EBC412"/>
<stop offset="0.28" stop-color="#E8BE09"/>
<stop offset="0.42" stop-color="#E8BD07"/>
<stop offset="0.51" stop-color="#EFCB1B"/>
<stop offset="0.64" stop-color="#F8DB33"/>
<stop offset="0.77" stop-color="#FDE542"/>
<stop offset="0.87" stop-color="#FFE947"/>
<stop offset="1" stop-color="#FFEC63"/>
</linearGradient>
<linearGradient id="paint18_linear_1249_34228" x1="116.553" y1="81.0687" x2="116.861" y2="80.837" gradientUnits="userSpaceOnUse">
<stop offset="0.04" stop-color="#F8DA36"/>
<stop offset="0.11" stop-color="#F1CD21"/>
<stop offset="0.19" stop-color="#EBC412"/>
<stop offset="0.28" stop-color="#E8BE09"/>
<stop offset="0.42" stop-color="#E8BD07"/>
<stop offset="0.51" stop-color="#EFCB1B"/>
<stop offset="0.64" stop-color="#F8DB33"/>
<stop offset="0.77" stop-color="#FDE542"/>
<stop offset="0.87" stop-color="#FFE947"/>
<stop offset="1" stop-color="#FFEC63"/>
</linearGradient>
<linearGradient id="paint19_linear_1249_34228" x1="115.216" y1="81.8945" x2="115.736" y2="81.5034" gradientUnits="userSpaceOnUse">
<stop offset="0.04" stop-color="#F8DA36"/>
<stop offset="0.11" stop-color="#F1CD21"/>
<stop offset="0.19" stop-color="#EBC412"/>
<stop offset="0.28" stop-color="#E8BE09"/>
<stop offset="0.42" stop-color="#E8BD07"/>
<stop offset="0.51" stop-color="#EFCB1B"/>
<stop offset="0.64" stop-color="#F8DB33"/>
<stop offset="0.77" stop-color="#FDE542"/>
<stop offset="0.87" stop-color="#FFE947"/>
<stop offset="1" stop-color="#FFEC63"/>
</linearGradient>
<linearGradient id="paint20_linear_1249_34228" x1="116.367" y1="81.672" x2="116.753" y2="81.3815" gradientUnits="userSpaceOnUse">
<stop offset="0.04" stop-color="#F8DA36"/>
<stop offset="0.11" stop-color="#F1CD21"/>
<stop offset="0.19" stop-color="#EBC412"/>
<stop offset="0.28" stop-color="#E8BE09"/>
<stop offset="0.42" stop-color="#E8BD07"/>
<stop offset="0.51" stop-color="#EFCB1B"/>
<stop offset="0.64" stop-color="#F8DB33"/>
<stop offset="0.77" stop-color="#FDE542"/>
<stop offset="0.87" stop-color="#FFE947"/>
<stop offset="1" stop-color="#FFEC63"/>
</linearGradient>
<linearGradient id="paint21_linear_1249_34228" x1="114.503" y1="82.0771" x2="114.716" y2="81.9165" gradientUnits="userSpaceOnUse">
<stop offset="0.04" stop-color="#F8DA36"/>
<stop offset="0.11" stop-color="#F1CD21"/>
<stop offset="0.19" stop-color="#EBC412"/>
<stop offset="0.28" stop-color="#E8BE09"/>
<stop offset="0.42" stop-color="#E8BD07"/>
<stop offset="0.51" stop-color="#EFCB1B"/>
<stop offset="0.64" stop-color="#F8DB33"/>
<stop offset="0.77" stop-color="#FDE542"/>
<stop offset="0.87" stop-color="#FFE947"/>
<stop offset="1" stop-color="#FFEC63"/>
</linearGradient>
<linearGradient id="paint22_linear_1249_34228" x1="114.504" y1="81.2927" x2="115.143" y2="80.8127" gradientUnits="userSpaceOnUse">
<stop offset="0.04" stop-color="#F8DA36"/>
<stop offset="0.11" stop-color="#F1CD21"/>
<stop offset="0.19" stop-color="#EBC412"/>
<stop offset="0.28" stop-color="#E8BE09"/>
<stop offset="0.42" stop-color="#E8BD07"/>
<stop offset="0.51" stop-color="#EFCB1B"/>
<stop offset="0.64" stop-color="#F8DB33"/>
<stop offset="0.77" stop-color="#FDE542"/>
<stop offset="0.87" stop-color="#FFE947"/>
<stop offset="1" stop-color="#FFEC63"/>
</linearGradient>
<linearGradient id="paint23_linear_1249_34228" x1="115.674" y1="80.7594" x2="116.927" y2="79.8172" gradientUnits="userSpaceOnUse">
<stop offset="0.04" stop-color="#F8DA36"/>
<stop offset="0.11" stop-color="#F1CD21"/>
<stop offset="0.19" stop-color="#EBC412"/>
<stop offset="0.28" stop-color="#E8BE09"/>
<stop offset="0.42" stop-color="#E8BD07"/>
<stop offset="0.51" stop-color="#EFCB1B"/>
<stop offset="0.64" stop-color="#F8DB33"/>
<stop offset="0.77" stop-color="#FDE542"/>
<stop offset="0.87" stop-color="#FFE947"/>
<stop offset="1" stop-color="#FFEC63"/>
</linearGradient>
<linearGradient id="paint24_linear_1249_34228" x1="22.9553" y1="58.3547" x2="27.0051" y2="53.0159" gradientUnits="userSpaceOnUse">
<stop stop-color="#FFD08D"/>
<stop offset="0.58" stop-color="#FFDC2A"/>
<stop offset="0.81" stop-color="#F3C237"/>
<stop offset="1" stop-color="#EBB140"/>
</linearGradient>
<linearGradient id="paint25_linear_1249_34228" x1="27.0683" y1="57.5643" x2="22.9329" y2="53.7254" gradientUnits="userSpaceOnUse">
<stop stop-color="#FFAA3F"/>
<stop offset="0.58" stop-color="#FFAF2A"/>
<stop offset="0.71" stop-color="#F8A631"/>
<stop offset="1" stop-color="#EC9540"/>
</linearGradient>
<linearGradient id="paint26_linear_1249_34228" x1="24.1183" y1="54.2209" x2="23.951" y2="54.0657" gradientUnits="userSpaceOnUse">
<stop offset="0.04" stop-color="#F8DA36"/>
<stop offset="0.11" stop-color="#F1CD21"/>
<stop offset="0.19" stop-color="#EBC412"/>
<stop offset="0.28" stop-color="#E8BE09"/>
<stop offset="0.42" stop-color="#E8BD07"/>
<stop offset="0.51" stop-color="#EFCB1B"/>
<stop offset="0.64" stop-color="#F8DB33"/>
<stop offset="0.77" stop-color="#FDE542"/>
<stop offset="0.87" stop-color="#FFE947"/>
<stop offset="1" stop-color="#FFEC63"/>
</linearGradient>
<linearGradient id="paint27_linear_1249_34228" x1="24.4715" y1="55.0834" x2="24.1047" y2="54.7429" gradientUnits="userSpaceOnUse">
<stop offset="0.04" stop-color="#F8DA36"/>
<stop offset="0.11" stop-color="#F1CD21"/>
<stop offset="0.19" stop-color="#EBC412"/>
<stop offset="0.28" stop-color="#E8BE09"/>
<stop offset="0.42" stop-color="#E8BD07"/>
<stop offset="0.51" stop-color="#EFCB1B"/>
<stop offset="0.64" stop-color="#F8DB33"/>
<stop offset="0.77" stop-color="#FDE542"/>
<stop offset="0.87" stop-color="#FFE947"/>
<stop offset="1" stop-color="#FFEC63"/>
</linearGradient>
<linearGradient id="paint28_linear_1249_34228" x1="25.8852" y1="56.5374" x2="25.2675" y2="55.9641" gradientUnits="userSpaceOnUse">
<stop offset="0.04" stop-color="#F8DA36"/>
<stop offset="0.11" stop-color="#F1CD21"/>
<stop offset="0.19" stop-color="#EBC412"/>
<stop offset="0.28" stop-color="#E8BE09"/>
<stop offset="0.42" stop-color="#E8BD07"/>
<stop offset="0.51" stop-color="#EFCB1B"/>
<stop offset="0.64" stop-color="#F8DB33"/>
<stop offset="0.77" stop-color="#FDE542"/>
<stop offset="0.87" stop-color="#FFE947"/>
<stop offset="1" stop-color="#FFEC63"/>
</linearGradient>
<linearGradient id="paint29_linear_1249_34228" x1="25.1396" y1="55.3349" x2="24.6815" y2="54.9097" gradientUnits="userSpaceOnUse">
<stop offset="0.04" stop-color="#F8DA36"/>
<stop offset="0.11" stop-color="#F1CD21"/>
<stop offset="0.19" stop-color="#EBC412"/>
<stop offset="0.28" stop-color="#E8BE09"/>
<stop offset="0.42" stop-color="#E8BD07"/>
<stop offset="0.51" stop-color="#EFCB1B"/>
<stop offset="0.64" stop-color="#F8DB33"/>
<stop offset="0.77" stop-color="#FDE542"/>
<stop offset="0.87" stop-color="#FFE947"/>
<stop offset="1" stop-color="#FFEC63"/>
</linearGradient>
<linearGradient id="paint30_linear_1249_34228" x1="26.392" y1="57.2874" x2="26.1392" y2="57.0528" gradientUnits="userSpaceOnUse">
<stop offset="0.04" stop-color="#F8DA36"/>
<stop offset="0.11" stop-color="#F1CD21"/>
<stop offset="0.19" stop-color="#EBC412"/>
<stop offset="0.28" stop-color="#E8BE09"/>
<stop offset="0.42" stop-color="#E8BD07"/>
<stop offset="0.51" stop-color="#EFCB1B"/>
<stop offset="0.64" stop-color="#F8DB33"/>
<stop offset="0.77" stop-color="#FDE542"/>
<stop offset="0.87" stop-color="#FFE947"/>
<stop offset="1" stop-color="#FFEC63"/>
</linearGradient>
<linearGradient id="paint31_linear_1249_34228" x1="25.6364" y1="57.2013" x2="24.8781" y2="56.4974" gradientUnits="userSpaceOnUse">
<stop offset="0.04" stop-color="#F8DA36"/>
<stop offset="0.11" stop-color="#F1CD21"/>
<stop offset="0.19" stop-color="#EBC412"/>
<stop offset="0.28" stop-color="#E8BE09"/>
<stop offset="0.42" stop-color="#E8BD07"/>
<stop offset="0.51" stop-color="#EFCB1B"/>
<stop offset="0.64" stop-color="#F8DB33"/>
<stop offset="0.77" stop-color="#FDE542"/>
<stop offset="0.87" stop-color="#FFE947"/>
<stop offset="1" stop-color="#FFEC63"/>
</linearGradient>
<linearGradient id="paint32_linear_1249_34228" x1="24.5807" y1="55.9497" x2="23.0926" y2="54.5683" gradientUnits="userSpaceOnUse">
<stop offset="0.04" stop-color="#F8DA36"/>
<stop offset="0.11" stop-color="#F1CD21"/>
<stop offset="0.19" stop-color="#EBC412"/>
<stop offset="0.28" stop-color="#E8BE09"/>
<stop offset="0.42" stop-color="#E8BD07"/>
<stop offset="0.51" stop-color="#EFCB1B"/>
<stop offset="0.64" stop-color="#F8DB33"/>
<stop offset="0.77" stop-color="#FDE542"/>
<stop offset="0.87" stop-color="#FFE947"/>
<stop offset="1" stop-color="#FFEC63"/>
</linearGradient>
<linearGradient id="paint33_linear_1249_34228" x1="63.073" y1="28.4355" x2="63.073" y2="116.02" gradientUnits="userSpaceOnUse">
<stop stop-color="#F4F7FF"/>
<stop offset="1" stop-color="#DDE5FF"/>
</linearGradient>
</defs>
</svg>
