<svg width="160" height="160" viewBox="0 0 160 160" fill="none" xmlns="http://www.w3.org/2000/svg">
<circle cx="80" cy="80" r="80" fill="#F3F3F3"/>
<path opacity="0.5" d="M123.644 50.9256C126.751 52.5722 128.764 55.7292 128.948 59.2404L130.093 81.2101L130.889 103.195C131.017 106.709 129.289 110.031 126.34 111.945L107.887 123.922L89.245 135.604C86.2657 137.471 82.5249 137.637 79.3926 136.04L59.7935 126.047L40.3557 115.744C37.2492 114.097 35.2356 110.94 35.0525 107.429L33.9069 85.4593L33.1107 63.4742C32.9835 59.9606 34.7108 56.6383 37.66 54.7242L56.1135 42.7472L74.7551 31.0651C77.7343 29.1981 81.4752 29.0328 84.6075 30.6298L104.207 40.6225L123.644 50.9256Z" fill="url(#paint0_linear_1253_39091)"/>
<path d="M103.999 35.3697C107.515 35.3976 110.757 37.2699 112.54 40.3007L123.69 59.2648L134.538 78.4038C136.272 81.4625 136.272 85.207 134.538 88.2658L123.69 107.405L112.54 126.369C110.757 129.4 107.515 131.272 103.999 131.3L82 131.475L60.0011 131.3C56.4853 131.272 53.2425 129.4 51.4604 126.369L40.3095 107.405L29.4615 88.2658C27.7278 85.207 27.7278 81.4625 29.4615 78.4038L40.3095 59.2648L51.4604 40.3007C53.2425 37.2699 56.4853 35.3976 60.0011 35.3697L82 35.1948L103.999 35.3697Z" fill="url(#paint1_linear_1253_39091)"/>
<g clip-path="url(#clip0_1253_39091)">
<path opacity="0.5" d="M107.971 96.6556L92.3023 87.5678C91.443 87.0731 89.9621 87.1281 88.9749 87.6961L56.1025 106.659C55.1152 107.227 55.0055 108.089 55.8648 108.583L71.5331 117.671C72.3924 118.166 73.8733 118.111 74.8606 117.543L107.733 98.5794C108.72 97.9931 108.83 97.1319 107.971 96.6556Z" fill="#173D7A"/>
<path d="M71.0761 114.299L54.7679 104.826C54.2377 104.515 53.9817 104.094 54 103.654V101.29L54.9141 102.353C54.969 102.316 55.0238 102.28 55.097 102.243L88.4447 83.0049C89.761 82.2354 91.7721 82.1621 92.9239 82.8217L108.994 92.1476C109.324 91.7995 110 91.03 110 91.03V93.3569C110.018 93.8882 109.653 94.4379 108.903 94.8593L75.5553 114.097C74.2207 114.885 72.2279 114.959 71.0761 114.299Z" fill="#5793CE"/>
<path d="M62.2638 108.49L63.1962 109.04C63.3242 109.113 63.4156 109.04 63.4156 108.875C63.4156 108.71 63.3059 108.509 63.1962 108.435L62.2638 107.886C62.1358 107.813 62.0444 107.886 62.0444 108.051C62.0444 108.234 62.1358 108.417 62.2638 108.49Z" fill="#173D7A"/>
<path d="M88.4447 83.0049C89.761 82.2354 91.7721 82.1621 92.9239 82.8217L108.994 92.1476C109.324 91.7995 110 91.03 110 91.03V93.3569C110.018 93.8882 109.653 94.4379 108.903 94.8593L75.5553 114.097C74.8606 114.501 73.983 114.702 73.142 114.72L73.1786 91.7995L88.4447 83.0049Z" fill="#396CAA"/>
<path d="M109.232 89.9126L92.9239 80.4584C91.7721 79.7988 89.7793 79.8721 88.4446 80.6416L55.1152 99.8615C53.7989 100.631 53.6526 101.785 54.7861 102.445L71.0943 111.899C72.2461 112.559 74.239 112.485 75.5736 111.716L108.921 92.4777C110.238 91.7265 110.384 90.5722 109.232 89.9126Z" fill="#D4ECFF"/>
<path d="M71.0761 112.174L54.7679 102.702C54.1828 102.353 53.9269 101.877 54.0183 101.401C54.0548 101.785 54.2925 102.17 54.7861 102.445L71.0943 111.899C72.2461 112.559 74.239 112.486 75.5736 111.716L108.921 92.4779C109.561 92.1114 109.927 91.6534 110 91.1953C110.037 91.7267 109.671 92.2946 108.903 92.7344L75.5553 111.973C74.2207 112.742 72.2096 112.834 71.0761 112.174Z" fill="white"/>
<path d="M107.971 90.2786L92.3023 81.1909C91.443 80.6962 89.9621 80.7511 88.9749 81.3191L56.1025 100.282C55.1152 100.85 55.0055 101.712 55.8648 102.206L71.5331 111.294C72.3924 111.789 73.8733 111.734 74.8606 111.166L107.733 92.2024C108.72 91.6344 108.83 90.7733 107.971 90.2786Z" fill="#173D7A"/>
<path d="M99.6703 90.3532L97.8237 89.2722L98.5367 88.8691L100.402 89.9318L99.6703 90.3532Z" fill="#FF2C9C"/>
<path d="M102.266 91.8559L100.402 90.7749L101.133 90.3535L102.998 91.4345L102.266 91.8559Z" fill="white"/>
<path d="M91.3699 85.4978L89.5051 84.4168L90.2181 84.0137L92.0829 85.0764L91.3699 85.4978Z" fill="white"/>
<path d="M99.268 91.4348L96.6719 89.9507L97.4032 89.5293L99.9811 91.0317L99.268 91.4348Z" fill="white"/>
<path d="M101.133 92.5146L99.9811 91.855L100.712 91.4336L101.846 92.0932L101.133 92.5146Z" fill="#D4ECFF"/>
</g>
<g filter="url(#filter0_d_1253_39091)">
<path d="M134.328 85.2281C135.035 84.3127 134.706 82.4547 133.486 80.8317C132.265 79.2087 130.572 78.3766 129.497 78.8002L129.485 78.7466L129.291 78.8952C128.261 79.6704 128.519 81.7562 129.871 83.5529C131.222 85.3499 133.153 86.1777 134.184 85.4034L134.379 85.2545L134.33 85.229L134.328 85.2281Z" fill="#D16A0D"/>
<path d="M134.664 85.0412C134.604 85.0869 134.581 85.1097 134.534 85.1431C134.515 85.1558 134.403 85.2438 134.378 85.2557C133.305 85.734 131.531 84.8887 130.289 83.2368C129.018 81.546 128.74 79.5971 129.486 78.7484C129.486 78.7484 129.711 78.5799 129.772 78.5351C130.804 77.7596 132.735 78.5886 134.085 80.3856C135.436 82.1826 135.696 84.2681 134.665 85.0421L134.664 85.0412Z" fill="#D16A0D"/>
<path d="M134.709 85.0069C133.678 85.7821 131.746 84.9534 130.395 83.1564C129.045 81.3594 128.785 79.2739 129.816 78.4999C130.846 77.7247 132.778 78.5534 134.129 80.3504C135.48 82.1474 135.739 84.2329 134.709 85.0069Z" fill="url(#paint2_linear_1253_39091)"/>
<g style="mix-blend-mode:screen" opacity="0.5">
<path d="M134.118 80.3587C135.467 82.1524 135.728 84.2325 134.703 85.0112C134.706 85.0105 134.707 85.009 134.709 85.0072C135.74 84.2316 135.481 82.1473 134.129 80.3507C132.778 78.5537 130.847 77.7247 129.816 78.5002C129.813 78.5008 129.812 78.5023 129.81 78.5042C130.843 77.7362 132.769 78.5653 134.117 80.359L134.118 80.3587Z" fill="#FEF0A0"/>
</g>
<path d="M134.322 84.4936C133.454 85.1467 131.827 84.4488 130.69 82.935C129.552 81.4215 129.335 79.6665 130.203 79.0134C131.072 78.3603 132.698 79.0582 133.835 80.572C134.973 82.0855 135.191 83.8417 134.322 84.4936Z" fill="url(#paint3_linear_1253_39091)"/>
<path d="M134.322 84.4936C133.454 85.1467 131.827 84.4488 130.69 82.935C129.552 81.4215 129.335 79.6665 130.203 79.0134C131.072 78.3603 132.698 79.0582 133.835 80.572C134.973 82.0855 135.191 83.8417 134.322 84.4936Z" fill="url(#paint4_linear_1253_39091)"/>
<g style="mix-blend-mode:multiply">
<path d="M133.835 80.5723C134.969 82.0816 135.189 83.832 134.329 84.4895C134.331 84.4889 134.333 84.4859 134.335 84.4852C135.204 83.8321 134.985 82.0762 133.847 80.5639C132.709 79.0504 131.083 78.3537 130.215 79.0053C130.213 79.0072 130.211 79.009 130.209 79.0109C131.079 78.3677 132.7 79.0644 133.834 80.5738L133.835 80.5723Z" fill="#FEF0A0"/>
</g>
<g style="mix-blend-mode:screen" opacity="0.3">
<path d="M130.691 82.9357C129.556 81.4251 129.336 79.6735 130.198 79.018C130.196 79.0187 130.195 79.0202 130.193 79.0221C129.325 79.6752 129.543 81.4299 130.68 82.9437C131.818 84.4572 133.444 85.1551 134.312 84.5023C134.314 84.5016 134.315 84.5001 134.317 84.4983C133.448 85.1438 131.826 84.4462 130.691 82.9357Z" fill="#FEF0A0"/>
</g>
<path opacity="0.4" d="M133.764 80.6252C134.892 82.1247 135.139 83.8448 134.299 84.511C134.306 84.5051 134.315 84.5002 134.322 84.4931C135.191 83.8412 134.972 82.0853 133.835 80.5715C132.697 79.058 131.071 78.3613 130.203 79.0129C130.196 79.0187 130.188 79.0246 130.18 79.0308C131.054 78.4084 132.637 79.1242 133.765 80.6237L133.764 80.6252Z" fill="#D16A0D"/>
<g style="mix-blend-mode:multiply" opacity="0.4">
<path d="M132.903 82.8794C132.934 82.7691 132.94 82.6594 132.918 82.5479C132.897 82.4374 132.84 82.2425 132.747 81.9655C132.639 81.6385 132.58 81.4365 132.571 81.3602C132.56 81.2818 132.593 81.2151 132.669 81.1573C132.715 81.1229 132.758 81.1113 132.802 81.1203C132.845 81.1307 132.887 81.1621 132.927 81.2146C132.977 81.2811 132.996 81.334 132.985 81.3743C132.974 81.4147 132.926 81.4663 132.84 81.5306L132.774 81.4864L132.759 81.5921L133.417 82.4658C133.461 82.4409 133.495 82.4204 133.514 82.4061C133.658 82.298 133.719 82.1473 133.699 81.9516C133.68 81.7567 133.579 81.517 133.394 81.2324L133.55 81.1158L133.563 81.0105L133.479 81.0086L133.246 80.7136L133.09 80.8302C132.849 80.5493 132.632 80.365 132.438 80.2803C132.244 80.1941 132.075 80.206 131.93 80.3145C131.83 80.3902 131.766 80.4925 131.739 80.6223C131.712 80.7521 131.712 80.8808 131.742 81.0097C131.77 81.1388 131.839 81.3707 131.946 81.7082C132.01 81.9102 132.03 82.0416 132.004 82.1052C131.979 82.1676 131.91 82.24 131.802 82.3219C131.759 82.3541 131.715 82.3645 131.672 82.3516C131.629 82.3387 131.584 82.3041 131.54 82.2438C131.488 82.1752 131.47 82.1193 131.489 82.077C131.507 82.0347 131.581 81.9645 131.712 81.8662L131.77 81.8224L131.831 81.7763L131.845 81.6706L131.737 81.6211L131.174 80.9014L131.078 80.9734C130.861 81.136 130.776 81.3369 130.821 81.5763C130.864 81.8161 130.969 82.0576 131.131 82.3018L130.956 82.3383L130.942 82.4428L131.245 82.8453L131.427 82.7075C131.675 82.9904 131.905 83.1687 132.116 83.2449C132.328 83.3211 132.52 83.294 132.693 83.1639C132.802 83.0832 132.871 82.9872 132.901 82.8773L132.903 82.8794Z" fill="#AA7E03"/>
</g>
<path d="M133.43 82.3598L132.772 81.4861L132.853 81.4258C132.939 81.3615 132.988 81.3084 132.998 81.2695C133.009 81.2292 132.99 81.1763 132.94 81.1098C132.9 81.056 132.858 81.0247 132.815 81.0155C132.773 81.0062 132.728 81.0181 132.682 81.0524C132.606 81.1102 132.574 81.177 132.584 81.2553C132.594 81.3313 132.652 81.5337 132.761 81.8607C132.853 82.1389 132.91 82.3326 132.931 82.4443C132.953 82.5545 132.948 82.6643 132.916 82.7745C132.885 82.8848 132.817 82.9805 132.708 83.0612C132.535 83.1913 132.343 83.2184 132.132 83.1422C131.92 83.066 131.691 82.8876 131.442 82.6047L131.26 82.7426L130.957 82.34L131.146 82.1978C130.983 81.9552 130.879 81.7134 130.836 81.4724C130.792 81.2326 130.877 81.0317 131.094 80.8691L131.189 80.7974L131.846 81.6712L131.727 81.7611C131.596 81.8594 131.522 81.9295 131.503 81.9706C131.485 82.013 131.502 82.0677 131.554 82.1375C131.598 82.1966 131.643 82.2324 131.686 82.2441C131.729 82.2569 131.773 82.2465 131.817 82.2141C131.925 82.1322 131.994 82.0597 132.02 81.9973C132.045 81.9349 132.027 81.8032 131.961 81.6015C131.853 81.2655 131.785 81.0322 131.757 80.903C131.729 80.7738 131.728 80.6451 131.755 80.5154C131.782 80.3856 131.845 80.2836 131.945 80.2079C132.09 80.0994 132.26 80.0874 132.453 80.1736C132.646 80.2598 132.864 80.4426 133.106 80.7235L133.26 80.6073L133.563 81.0098L133.408 81.126C133.592 81.4097 133.693 81.6495 133.713 81.8452C133.733 82.0398 133.671 82.1919 133.527 82.3001C133.507 82.3159 133.474 82.3348 133.43 82.3598Z" fill="white"/>
<g style="mix-blend-mode:screen" opacity="0.7">
<path style="mix-blend-mode:screen" d="M133.413 81.1319L133.41 81.1326C133.569 81.3801 133.668 81.5936 133.703 81.7737C133.669 81.5933 133.572 81.3794 133.413 81.1319Z" fill="url(#paint5_linear_1253_39091)"/>
<path style="mix-blend-mode:screen" d="M133 81.2278C133.003 81.2425 133.002 81.2567 132.998 81.2683C132.987 81.3087 132.939 81.3602 132.853 81.4245L132.772 81.4848L132.776 81.4902L132.855 81.4318C132.941 81.3675 132.989 81.3159 132.999 81.2743C133.003 81.2603 133.003 81.2437 133 81.2266L133 81.2278Z" fill="url(#paint6_linear_1253_39091)"/>
<path style="mix-blend-mode:screen" d="M131.688 82.2532C131.732 82.266 131.775 82.2556 131.819 82.2232C131.928 82.1413 131.996 82.0688 132.022 82.0064C132.038 81.9687 132.037 81.9055 132.019 81.8164C132.035 81.901 132.034 81.9618 132.02 81.9992C131.993 82.0619 131.926 82.134 131.817 82.2159C131.775 82.2481 131.731 82.2585 131.686 82.2459C131.643 82.2343 131.599 82.1985 131.555 82.1394C131.525 82.0997 131.506 82.0647 131.499 82.0342C131.504 82.0665 131.523 82.104 131.555 82.1469C131.599 82.206 131.644 82.2418 131.687 82.2535L131.688 82.2532Z" fill="url(#paint7_linear_1253_39091)"/>
<path style="mix-blend-mode:screen" d="M132.932 82.4425C132.912 82.3319 132.854 82.1371 132.762 81.8588C132.666 81.5685 132.609 81.3773 132.591 81.2842C132.607 81.374 132.665 81.5673 132.764 81.866C132.855 82.1383 132.91 82.331 132.932 82.4425Z" fill="url(#paint8_linear_1253_39091)"/>
<path style="mix-blend-mode:screen" d="M131.147 82.2052C131.147 82.2052 131.145 82.2019 131.143 82.1999L130.956 82.3402L130.96 82.3456L131.146 82.2056L131.147 82.2052Z" fill="url(#paint9_linear_1253_39091)"/>
<path style="mix-blend-mode:screen" d="M130.836 81.4797C130.793 81.2399 130.878 81.039 131.095 80.8752L131.189 80.8047L131.843 81.6731L131.846 81.6721L131.189 80.7972L131.094 80.8689C130.877 81.0315 130.792 81.2323 130.836 81.4721C130.838 81.4793 130.839 81.4881 130.841 81.4953C130.839 81.4905 130.838 81.4845 130.836 81.4797Z" fill="url(#paint10_linear_1253_39091)"/>
<path style="mix-blend-mode:screen" d="M131.753 80.8834C131.73 80.7645 131.732 80.6442 131.756 80.5241C131.783 80.3943 131.846 80.2923 131.947 80.2163C132.092 80.1078 132.262 80.0959 132.455 80.1809C132.648 80.2671 132.866 80.4498 133.108 80.7307L133.262 80.6145L133.561 81.0117L133.563 81.011L133.26 80.6073L133.106 80.7235C132.864 80.4426 132.647 80.2583 132.453 80.1736C132.26 80.0874 132.09 80.0994 131.945 80.2079C131.845 80.2824 131.781 80.3859 131.755 80.5154C131.73 80.6382 131.729 80.7609 131.753 80.8834Z" fill="url(#paint11_linear_1253_39091)"/>
</g>
</g>
<path d="M53.7594 54.9007C57.7316 55.7596 55.1375 52.4773 56.1694 51.8391C51.319 49.655 50.7529 47.9758 49.5616 45.2826L45.8525 50.4106C48.3729 52.7514 51.7608 54.4686 53.7594 54.9007Z" fill="url(#paint12_linear_1253_39091)"/>
<path d="M93.1026 60.1735C94.0636 60.248 94.816 61.0004 94.8905 61.9614L94.9725 63.0639H95.0916L95.1736 61.9614C95.2481 61.0004 96.0004 60.248 96.9614 60.1735L98.0639 60.0915V59.9723L96.9614 59.8904C96.0004 59.8159 95.2481 59.0635 95.1736 58.1025L95.0916 57H94.9725L94.8905 58.1025C94.816 59.0635 94.0636 59.8159 93.1026 59.8904L92.0001 59.9723V60.0915L93.1026 60.1735Z" fill="white"/>
<path d="M67.5215 96.5271C67.9685 96.5644 68.3186 96.9145 68.3559 97.3615L68.3932 97.8829H68.49L68.5273 97.3615C68.5645 96.9145 68.9147 96.5644 69.3616 96.5271L69.8831 96.4899V96.393L69.3616 96.3558C68.9147 96.3186 68.5645 95.9684 68.5273 95.5215L68.49 95H68.3932L68.3559 95.5215C68.3186 95.9684 67.9685 96.3186 67.5215 96.3558L67.0001 96.393V96.4899L67.5215 96.5271Z" fill="white"/>
<path d="M56.9149 95.6423C57.6872 95.7033 58.2969 96.313 58.3578 97.0854L58.4189 98H58.5814L58.6424 97.0854C58.7034 96.313 59.313 95.7033 60.0854 95.6423L61.0001 95.5813V95.4187L60.0854 95.3577C59.313 95.2967 58.7034 94.687 58.6424 93.9146L58.5814 93H58.4189L58.3578 93.9146C58.2969 94.687 57.6872 95.2967 56.9149 95.3577L56.0001 95.4187V95.5813L56.9149 95.6423Z" fill="white"/>
<path d="M99.4436 48.4066C101.582 48.2427 103.243 46.574 103.407 44.4434L103.593 42H103.861L104.047 44.4434C104.211 46.5814 105.88 48.2427 108.01 48.4066L110.454 48.5928V48.861L108.01 49.0472C105.872 49.2111 104.211 50.8798 104.047 53.0103L103.861 55.4538H103.593L103.407 53.0103C103.243 50.8723 101.574 49.2111 99.4436 49.0472L97.0001 48.861V48.5928L99.4436 48.4066Z" fill="white"/>
<path d="M118.219 67.4534C117.545 64.4216 114.85 61.0529 115.861 58.358C115.052 57.819 113.839 61.0529 115.187 64.4216C115.299 64.8708 117.545 66.7797 118.219 67.4534Z" fill="#D9D9D9"/>
<path d="M115.187 59.7049C114.489 61.6241 114.85 63.4105 115.187 64.4211C108.482 52.1463 118.556 50.9463 122.598 50.0711C122.598 50.0711 122.598 52.6307 122.935 53.6413C123.609 54.9887 126.64 55.9994 126.64 55.9994C126.304 57.01 116.534 55.9993 115.187 59.7049Z" fill="url(#paint13_linear_1253_39091)"/>
<g clip-path="url(#clip1_1253_39091)">
<path style="mix-blend-mode:screen" opacity="0.5" d="M87.5995 88.9946C95.9552 84.1704 98.8181 73.4859 93.9939 65.1302C89.1697 56.7744 78.4852 53.9115 70.1295 58.7357C61.7737 63.5599 58.9108 74.2444 63.735 82.6002C68.5592 90.9559 79.2437 93.8188 87.5995 88.9946Z" fill="url(#paint14_radial_1253_39091)"/>
<path fill-rule="evenodd" clip-rule="evenodd" d="M97.127 70.6762C96.5188 70.0227 95.5185 69.3301 94.2801 69.2252L93.7697 68.2612C94.9585 68.3601 96.3174 69.3538 96.8097 70.1665L97.1097 70.6862L97.1183 70.6812L97.127 70.6762Z" fill="url(#paint15_linear_1253_39091)"/>
<path style="mix-blend-mode:screen" opacity="0.5" fill-rule="evenodd" clip-rule="evenodd" d="M94.9257 69.0843C95.853 69.5304 96.3482 69.8681 96.8754 70.4412C96.2625 69.8598 95.3572 69.3317 94.2714 69.2311L93.7611 68.2671C94.0539 68.2943 94.3545 68.3749 94.6477 68.4827C94.5151 68.5131 94.3778 68.6154 94.4628 68.7626C94.5478 68.9098 94.8337 69.045 94.917 69.0893L94.9257 69.0843Z" fill="url(#paint16_radial_1253_39091)"/>
<path fill-rule="evenodd" clip-rule="evenodd" d="M76.0612 72.4693L75.3314 83.2252C73.6773 83.0602 64.823 80.4242 65.4507 71.2514L65.4929 70.6844L65.7982 70.1732C66.287 69.3598 67.6483 68.3776 68.8336 68.2706C68.7452 71.2777 69.8818 71.9263 71.88 71.9273L76.096 71.9296L76.0612 72.4693ZM67.8666 72.8357C68.7027 73.704 69.9192 74.191 71.42 74.1905L74.2245 74.1879L73.8123 80.2341C70.1775 78.7184 68.2631 76.3826 67.8666 72.8357Z" fill="#BC7800"/>
<path fill-rule="evenodd" clip-rule="evenodd" d="M86.5447 72.4673L87.2798 83.2204C88.9411 83.058 97.788 80.4213 97.1654 71.2429L97.1269 70.6762L96.8269 70.1566C96.326 69.3489 94.9671 68.3552 93.7783 68.2563C93.8599 71.2576 92.7254 71.9126 90.7272 71.9116L86.5112 71.9093L86.5484 72.4536L86.5447 72.4673ZM94.734 72.8315C93.8944 73.6973 92.6872 74.1864 91.1864 74.1869L88.3819 74.1894L88.7896 80.2356C92.4258 78.7136 94.338 76.3856 94.734 72.8315Z" fill="#BC7800"/>
<path fill-rule="evenodd" clip-rule="evenodd" d="M76.0612 72.4689L75.3314 83.2249C73.6773 83.0598 64.823 80.4238 65.4507 71.251L65.4928 70.684C66.094 70.0252 67.0969 69.3422 68.3405 69.2362C68.3494 71.2518 69.4712 72.4747 71.55 72.4754L76.0749 72.4726L76.0612 72.4689ZM74.2244 74.1876L71.42 74.1901C69.3995 74.1905 67.8947 73.3041 67.1413 71.7992C67.0793 74.8718 68.2688 77.3721 70.6474 79.2319C71.5684 79.9472 72.6254 80.5379 73.7176 80.9696L73.7585 80.9806L74.2244 74.1876Z" fill="url(#paint17_linear_1253_39091)"/>
<path fill-rule="evenodd" clip-rule="evenodd" d="M76.0612 72.4688L76.096 71.9291L71.88 71.9268C69.8818 71.9258 68.7452 71.2772 68.8336 68.2701L68.3268 69.2324C68.3358 71.248 69.4576 72.4709 71.5364 72.4716L76.0612 72.4688Z" fill="url(#paint18_linear_1253_39091)"/>
<path fill-rule="evenodd" clip-rule="evenodd" d="M67.8666 72.8344C67.575 72.5293 67.3303 72.1856 67.1413 71.7982C67.0793 74.8709 68.2688 77.3711 70.6474 79.231C71.5921 79.9673 72.6441 80.5493 73.7586 80.9797L73.8123 80.2327C70.1775 78.7171 68.2632 76.3813 67.8666 72.8344Z" fill="url(#paint19_linear_1253_39091)"/>
<path fill-rule="evenodd" clip-rule="evenodd" d="M65.4792 70.6803C66.0803 70.0214 67.0832 69.3385 68.3268 69.2325L68.8336 68.2702C67.6433 68.3685 66.287 69.3594 65.7982 70.1728L65.4929 70.6839L65.4792 70.6803Z" fill="url(#paint20_linear_1253_39091)"/>
<path fill-rule="evenodd" clip-rule="evenodd" d="M86.5447 72.4659L87.2798 83.2191C88.9411 83.0566 97.788 80.4199 97.1654 71.2415L97.1269 70.6749C96.5187 70.0214 95.5184 69.3288 94.28 69.2239C94.2754 71.2358 93.1484 72.4638 91.0695 72.4632L86.5447 72.4659ZM88.3819 74.1881L91.1864 74.1855C93.2069 74.1852 94.7174 73.3015 95.4649 71.7961C95.5332 74.8744 94.3386 77.3654 91.9506 79.2291C91.026 79.9477 89.9767 80.5304 88.8785 80.9681L88.8438 80.9881L88.3819 74.1881Z" fill="url(#paint21_linear_1253_39091)"/>
<path fill-rule="evenodd" clip-rule="evenodd" d="M86.5447 72.4673L86.5076 71.923L90.7236 71.9253C92.7218 71.9263 93.8563 71.2713 93.7747 68.27L94.2851 69.234C94.2804 71.2459 93.1534 72.4739 91.0746 72.4732L86.5497 72.476L86.5447 72.4673Z" fill="url(#paint22_linear_1253_39091)"/>
<path fill-rule="evenodd" clip-rule="evenodd" d="M94.739 72.8397C95.0254 72.5358 95.2781 72.1935 95.4699 71.8057C95.5382 74.884 94.3437 77.375 91.9556 79.2387C91.0187 79.9759 89.9558 80.5549 88.8439 80.9891L88.7947 80.2438C92.4308 78.7218 94.343 76.3939 94.739 72.8397Z" fill="url(#paint23_linear_1253_39091)"/>
<path fill-rule="evenodd" clip-rule="evenodd" d="M88.1861 93.1692L88.1825 95.4229C88.1826 96.543 85.0969 97.4585 81.2977 97.458C77.4984 97.4576 74.4195 96.5447 74.4195 95.4247L74.4231 93.1709L88.1775 93.1742L88.1861 93.1692Z" fill="url(#paint24_linear_1253_39091)"/>
<path fill-rule="evenodd" clip-rule="evenodd" d="M88.1861 93.1702C88.1862 94.2902 85.1005 95.2057 81.3013 95.2053C77.5021 95.2048 74.4231 94.292 74.4231 93.1719C74.4238 91.0931 76.1957 90.6821 78.0966 89.7347C78.958 89.3066 79.6634 88.6684 79.6624 87.6067L79.6667 86.3341L81.3064 86.3342L82.9462 86.3343L82.9419 87.607C82.9429 88.6687 83.6491 89.3118 84.5081 89.7396C86.4063 90.6875 88.1831 91.105 88.1775 93.1752L88.1861 93.1702Z" fill="url(#paint25_linear_1253_39091)"/>
<path style="mix-blend-mode:multiply" fill-rule="evenodd" clip-rule="evenodd" d="M75.1487 93.1675C75.1494 91.0887 76.7377 90.6797 78.4328 89.7357C79.1999 89.3043 79.8333 88.6615 79.8373 87.6084C79.8342 87.183 79.836 86.7662 79.8416 86.3358L79.6667 86.3328L79.6624 87.6055C79.6634 88.6672 78.958 89.3054 78.0966 89.7335C76.1957 90.6809 74.4238 91.0919 74.4231 93.1707C74.4245 93.4932 74.6852 93.8046 75.1453 94.0817C75.1452 93.7815 75.1401 93.4727 75.1487 93.1675Z" fill="url(#paint26_radial_1253_39091)"/>
<path style="mix-blend-mode:multiply" fill-rule="evenodd" clip-rule="evenodd" d="M84.0193 89.7329C85.6311 90.6846 87.125 91.0922 87.1244 93.171C87.1235 93.5295 87.1276 93.8966 87.1267 94.2551C87.7976 93.9371 88.1829 93.5645 88.1861 93.17C88.1868 91.0912 86.415 90.6823 84.5167 89.7344C83.6577 89.3066 82.9516 88.6635 82.9506 87.6018L82.9548 86.3292L82.6993 86.3266C82.7024 86.752 82.7006 87.1688 82.695 87.5992C82.696 88.661 83.2942 89.2971 84.0193 89.7329Z" fill="url(#paint27_radial_1253_39091)"/>
<path style="mix-blend-mode:screen" opacity="0.5" fill-rule="evenodd" clip-rule="evenodd" d="M86.2152 93.1765C86.2159 91.0977 84.9501 90.6853 83.5939 89.7363C82.9768 89.3074 82.4815 88.6696 82.4805 87.6078C82.4774 87.1824 82.4792 86.7656 82.4847 86.3352L82.0147 86.341C82.0178 86.7664 82.0159 87.1832 82.0104 87.6136C82.0114 88.6754 82.3145 89.3203 82.6847 89.7416C83.4989 90.6918 84.2586 91.1076 84.253 93.1778C84.2495 93.7918 84.2547 94.4008 84.2512 95.0148C84.9888 94.9123 85.6567 94.7692 86.2153 94.5967C86.2182 94.1217 86.2124 93.6516 86.2152 93.1765Z" fill="url(#paint28_radial_1253_39091)"/>
<path style="mix-blend-mode:screen" fill-rule="evenodd" clip-rule="evenodd" d="M79.9291 93.169C79.9297 91.0901 80.2814 90.6792 80.6592 89.7336C80.831 89.3112 80.967 88.6668 80.9747 87.6001C80.9716 87.1746 80.9734 86.7579 80.979 86.3274L80.3203 86.3266C80.3235 86.7521 80.3216 87.1688 80.3161 87.5993C80.3171 88.661 79.8895 89.3005 79.3779 89.7344C78.2385 90.6809 77.1749 91.0987 77.1693 93.1689C77.1704 93.7109 77.1716 94.2529 77.1728 94.7949C77.9674 94.9713 78.9069 95.0986 79.923 95.1585C79.9188 94.4912 79.9196 93.8326 79.9241 93.1603L79.9291 93.169Z" fill="url(#paint29_radial_1253_39091)"/>
<path style="mix-blend-mode:multiply" opacity="0.5" fill-rule="evenodd" clip-rule="evenodd" d="M74.4231 93.1717L74.4195 95.4254C74.4209 95.7479 74.6815 96.0593 75.1417 96.3364L75.1453 94.0826C74.6852 93.8056 74.4159 93.4992 74.4231 93.1717Z" fill="url(#paint30_linear_1253_39091)"/>
<path style="mix-blend-mode:multiply" opacity="0.5" fill-rule="evenodd" clip-rule="evenodd" d="M87.1267 94.2549L87.1231 96.5087C87.794 96.1906 88.1793 95.818 88.1825 95.4236L88.1861 93.1698C88.1879 93.573 87.7976 93.9369 87.1267 94.2549Z" fill="url(#paint31_linear_1253_39091)"/>
<path style="mix-blend-mode:screen" opacity="0.75" fill-rule="evenodd" clip-rule="evenodd" d="M79.9244 97.4195L79.928 95.1658C78.9119 95.1058 77.9724 94.9785 77.1778 94.8022L77.1742 97.0559C77.9688 97.2323 78.9083 97.3595 79.9244 97.4195Z" fill="url(#paint32_linear_1253_39091)"/>
<path style="mix-blend-mode:multiply" fill-rule="evenodd" clip-rule="evenodd" d="M86.5447 72.4659L87.2798 83.2191C87.7075 83.1799 88.5959 82.9788 89.6805 82.5373C90.3389 81.6376 90.9113 80.649 91.388 79.6347C90.6089 80.1654 89.7575 80.6107 88.8821 80.9545L88.8475 80.9745L88.3856 74.1744L91.19 74.1718C91.9429 74.1759 92.6209 74.0501 93.2164 73.8217C93.2431 73.6678 93.261 73.5189 93.2926 73.3736L93.5768 71.4659C93.0327 72.1034 92.1982 72.4581 91.0782 72.4582L86.5534 72.4609L86.5447 72.4659Z" fill="url(#paint33_radial_1253_39091)"/>
<path style="mix-blend-mode:screen" opacity="0.35" fill-rule="evenodd" clip-rule="evenodd" d="M84.2513 95.0151L84.2476 97.2688C84.9852 97.1663 85.6531 97.0232 86.2118 96.8508L86.2154 94.597C85.6567 94.7694 84.9888 94.9126 84.2513 95.0151Z" fill="url(#paint34_linear_1253_39091)"/>
<path style="mix-blend-mode:multiply" fill-rule="evenodd" clip-rule="evenodd" d="M82.9478 87.2562C82.9502 87.5204 82.2153 87.6675 81.3095 87.5785C80.4036 87.4895 79.6693 87.1976 79.6619 86.9247L79.6619 86.1049L82.9479 86.4363L82.9478 87.2562Z" fill="url(#paint35_radial_1253_39091)"/>
<path fill-rule="evenodd" clip-rule="evenodd" d="M70.9781 70.4846L81.309 70.4783L91.6449 70.4807L91.2907 73.3872C90.5746 79.1468 87.5502 87.1284 81.3187 87.135C75.0958 87.1367 72.0672 79.1511 71.3494 73.3879L70.9867 70.4796L70.9781 70.4846Z" fill="url(#paint36_linear_1253_39091)"/>
<path style="mix-blend-mode:screen" opacity="0.75" fill-rule="evenodd" clip-rule="evenodd" d="M71.3675 70.4796L79.7139 70.4759L88.0602 70.4722L87.8135 73.0049C87.3261 78.0206 84.9929 84.9795 79.9657 84.9721C74.9435 84.9734 72.371 78.0177 71.7075 73.0084L71.3762 70.4746L71.3675 70.4796Z" fill="url(#paint37_radial_1253_39091)"/>
<path style="mix-blend-mode:screen" opacity="0.75" fill-rule="evenodd" clip-rule="evenodd" d="M72.0038 70.4821L78.3793 70.4847L84.7548 70.4874L84.5695 72.6266C84.1928 76.874 82.413 82.7513 78.5778 82.7485C74.7426 82.7458 72.7815 76.869 72.2714 72.6255L72.0175 70.4858L72.0038 70.4821Z" fill="url(#paint38_radial_1253_39091)"/>
<path style="mix-blend-mode:multiply" fill-rule="evenodd" clip-rule="evenodd" d="M81.305 87.1322C75.7407 87.1347 73.026 79.1527 72.3889 73.3891C72.2816 72.4233 72.1744 71.4575 72.0621 70.4831L70.978 70.4855L71.3408 73.3937C72.0586 79.157 75.0821 87.1339 81.31 87.1409L81.305 87.1322Z" fill="url(#paint39_radial_1253_39091)"/>
<path style="mix-blend-mode:multiply" opacity="0.75" fill-rule="evenodd" clip-rule="evenodd" d="M89.9425 73.3912C89.3207 79.1542 86.6994 87.1339 81.305 87.1306C87.5279 87.129 90.566 79.1511 91.2771 73.3827L91.6313 70.4762L90.2557 70.4737C90.1571 71.4428 90.0448 72.4083 89.9461 73.3775L89.9425 73.3912Z" fill="url(#paint40_radial_1253_39091)"/>
<path style="mix-blend-mode:screen" opacity="0.6" fill-rule="evenodd" clip-rule="evenodd" d="M81.305 87.1308C85.7492 87.1284 87.9178 79.1445 88.428 73.3882C88.513 72.4153 88.6029 71.4512 88.6879 70.4784L85.7309 70.4766C85.6769 71.4431 85.6279 72.4183 85.5739 73.3847C85.2659 79.1513 83.9705 87.1276 81.305 87.1308Z" fill="url(#paint41_radial_1253_39091)"/>
<path style="mix-blend-mode:screen" fill-rule="evenodd" clip-rule="evenodd" d="M81.305 87.1314C80.0597 87.1344 79.4548 79.1467 79.3064 73.3896C79.2797 72.4235 79.2618 71.4524 79.2351 70.4863L75.0998 70.4836C75.171 71.447 75.2473 72.4191 75.3099 73.3876C75.7362 79.1459 77.5554 87.1369 81.2913 87.1277L81.305 87.1314Z" fill="url(#paint42_radial_1253_39091)"/>
<path fill-rule="evenodd" clip-rule="evenodd" d="M81.3037 73.7501C76.4068 73.7483 72.2904 72.7185 71.0909 71.321C70.4601 70.5883 70.5743 68.3862 70.5696 67.3381L81.3087 67.3386L92.0477 67.3392C92.05 68.4232 92.1577 70.5897 91.5296 71.3218C90.3277 72.7201 86.2093 73.7468 81.3124 73.7451L81.3037 73.7501Z" fill="url(#paint43_radial_1253_39091)"/>
<path style="mix-blend-mode:screen" fill-rule="evenodd" clip-rule="evenodd" d="M80.0943 73.4535C75.9855 73.2969 72.5205 72.2952 71.5203 71.0829C70.9891 70.4428 71.0851 68.6091 71.0812 67.7222L80.0939 68.0728L89.1067 68.4234C89.112 69.3326 89.2032 71.1505 88.67 71.747C87.6629 72.8827 84.2031 73.6101 80.0943 73.4535Z" fill="url(#paint44_radial_1253_39091)"/>
<path style="mix-blend-mode:screen" fill-rule="evenodd" clip-rule="evenodd" d="M78.7316 72.9949C75.436 72.7267 72.6659 71.8088 71.8614 70.7953C71.4398 70.265 71.5126 68.7912 71.5107 68.0879L78.7235 68.6809L85.9364 69.2739C85.9396 69.9995 86.0094 71.4604 85.5848 71.9249C84.7812 72.793 82.0135 73.2593 78.7179 72.9912L78.7316 72.9949Z" fill="url(#paint45_radial_1253_39091)"/>
<path style="mix-blend-mode:multiply" opacity="0.75" fill-rule="evenodd" clip-rule="evenodd" d="M92.034 67.3355C92.0309 68.0302 91.3478 68.667 90.1707 69.2081L90.1218 70.4834L90.0567 72.3108C90.7153 72.0114 91.2062 71.6817 91.5159 71.3182L91.5333 71.3082C92.1463 70.5501 92.0314 68.411 92.034 67.3355Z" fill="url(#paint46_radial_1253_39091)"/>
<path style="mix-blend-mode:multiply" opacity="0.75" fill-rule="evenodd" clip-rule="evenodd" d="M72.1874 70.4795L72.129 69.0583C71.1817 68.5775 70.6148 68.0157 70.57 67.418C70.5623 68.4848 70.4724 70.569 71.0759 71.2944L71.0859 71.3117C71.2106 71.4476 71.3575 71.5821 71.5405 71.719C71.7284 71.8645 71.956 71.9987 72.2059 72.1316L72.2519 72.1512L72.191 70.4658L72.1874 70.4795Z" fill="url(#paint47_radial_1253_39091)"/>
<path style="mix-blend-mode:screen" opacity="0.65" fill-rule="evenodd" clip-rule="evenodd" d="M85.5696 70.4775L85.5743 73.4655C86.3788 73.3589 87.1273 73.2155 87.8075 73.0537C88.0417 72.9993 88.2623 72.9412 88.4691 72.8795L88.4684 70.4782L88.4678 69.7973C87.613 70.0367 86.639 70.2296 85.5679 70.3745L85.5696 70.4775Z" fill="url(#paint48_radial_1253_39091)"/>
<path style="mix-blend-mode:screen" fill-rule="evenodd" clip-rule="evenodd" d="M79.3225 70.5972C77.8523 70.5108 76.502 70.3319 75.3089 70.0855L75.3102 73.1678C76.4946 73.4192 77.8586 73.6017 79.3288 73.6882L79.3312 70.5922L79.3225 70.5972Z" fill="url(#paint49_radial_1253_39091)"/>
<g style="mix-blend-mode:screen" opacity="0.75">
<path fill-rule="evenodd" clip-rule="evenodd" d="M81.2706 64.0915C87.135 64.089 91.8949 65.6132 91.8908 67.4862C91.8867 69.3592 87.1392 70.8762 81.2748 70.8787C75.4104 70.8813 70.6505 69.357 70.6546 67.484C70.6587 65.6111 75.4062 64.094 81.2756 64.1002L81.2706 64.0915Z" fill="#FFFCE4"/>
</g>
<path fill-rule="evenodd" clip-rule="evenodd" d="M81.3026 64.0281C87.2253 64.0265 92.0321 65.5121 92.039 67.3441C92.0373 69.1811 87.2338 70.6612 81.3061 70.6541C75.3833 70.6556 70.5765 69.17 70.5696 67.338C70.5714 65.501 75.3749 64.021 81.3026 64.0281Z" fill="url(#paint50_radial_1253_39091)"/>
<path fill-rule="evenodd" clip-rule="evenodd" d="M81.3037 64.2682C86.8679 64.2658 91.3789 65.5989 91.3751 67.2524C91.3799 68.9008 86.8635 70.2381 81.3079 70.2356C75.7437 70.238 71.2328 68.9049 71.2366 67.2515C71.2317 65.6031 75.7481 64.2657 81.3037 64.2682Z" fill="url(#paint51_radial_1253_39091)"/>
<path style="mix-blend-mode:screen" fill-rule="evenodd" clip-rule="evenodd" d="M79.5957 64.5518C83.7087 64.5558 87.2142 65.7074 88.6292 67.3383C89.0532 67.8326 89.2912 68.3649 89.2937 68.9293C89.2964 68.9739 89.2904 69.0235 89.2881 69.0595C90.5449 68.5764 91.3113 67.9838 91.3754 67.3348C91.3777 67.2988 91.385 67.2715 91.3787 67.2405C91.3738 65.5921 86.8716 64.254 81.3073 64.2564C76.6572 64.2622 72.748 65.1913 71.5827 66.453C73.3277 65.2954 76.2615 64.5369 79.5993 64.5381L79.5957 64.5518Z" fill="url(#paint52_radial_1253_39091)"/>
<path style="mix-blend-mode:multiply" fill-rule="evenodd" clip-rule="evenodd" d="M85.6714 69.9342C85.2969 68.8456 83.8204 67.9082 81.7391 67.3432C80.3817 66.9722 78.7646 66.7512 77.0269 66.7614C75.2928 66.758 73.6751 66.976 72.3173 67.3442C71.9692 67.4413 71.6348 67.542 71.324 67.6637C71.9977 69.1107 76.2051 70.2381 81.3079 70.2364C82.8757 70.2319 84.3525 70.1298 85.6764 69.9429L85.6714 69.9342Z" fill="url(#paint53_radial_1253_39091)"/>
<path style="mix-blend-mode:screen" fill-rule="evenodd" clip-rule="evenodd" d="M78.076 91.7777C79.194 91.8943 80.099 92.3418 80.1022 92.7672C80.1053 93.1926 79.1972 93.4398 78.0791 93.3232C76.961 93.2066 76.0561 92.7592 76.0529 92.3338C76.0498 91.9083 76.9579 91.6612 78.076 91.7777Z" fill="url(#paint54_radial_1253_39091)"/>
<path style="mix-blend-mode:screen" opacity="0.5" fill-rule="evenodd" clip-rule="evenodd" d="M66.0124 71.2032C66.24 70.5175 67.7643 69.9377 68.1656 70.3527C68.4135 70.6021 68.5986 71.2227 69.2644 71.7159C68.6442 71.1617 68.3241 70.3073 68.3131 69.2282C67.0782 69.3292 66.0803 70.0208 65.4655 70.676L65.4234 71.243C65.2374 74.0409 65.9244 76.2308 67.021 77.9301C65.8093 75.7314 65.5897 72.371 65.9901 71.2045L66.0124 71.2032Z" fill="url(#paint55_radial_1253_39091)"/>
<path style="mix-blend-mode:screen" opacity="0.5" fill-rule="evenodd" clip-rule="evenodd" d="M67.6775 69.0874C66.7455 69.5332 66.2595 69.8715 65.725 70.4457C66.3401 69.8711 67.2395 69.3288 68.3268 69.2322L68.8336 68.2699C68.5484 68.2959 68.2436 68.368 67.9465 68.4934C68.0781 68.5213 68.2187 68.6249 68.1288 68.7691C68.0389 68.9134 67.7604 69.0511 67.6775 69.0874Z" fill="url(#paint56_radial_1253_39091)"/>
<path style="mix-blend-mode:multiply" opacity="0.5" fill-rule="evenodd" clip-rule="evenodd" d="M72.6601 79.6973C72.7837 79.8915 72.8568 80.138 72.4496 80.0728C70.2587 79.6981 68.0177 76.6965 67.6256 74.7174C67.5889 74.5538 67.4554 73.8226 67.6996 73.7855C67.8508 73.7675 67.9868 73.943 68.0905 74.1026C67.9994 73.7048 67.9293 73.2834 67.8765 72.852C67.5849 72.5469 67.3403 72.2032 67.1513 71.8158C67.0893 74.8884 68.2788 77.3887 70.6574 79.2485C71.3108 79.7604 72.0272 80.2012 72.7929 80.5675C73.0005 80.667 73.2218 80.7702 73.433 80.8561C73.284 80.538 73.1386 80.2062 73.0019 79.8695C72.8863 79.8092 72.7757 79.7576 72.6601 79.6973Z" fill="url(#paint57_radial_1253_39091)"/>
<path style="mix-blend-mode:multiply" opacity="0.5" fill-rule="evenodd" clip-rule="evenodd" d="M89.9445 79.6949C89.8126 79.8865 89.7518 80.141 90.1595 80.0673C92.3458 79.6941 94.5936 76.6874 94.9854 74.706C95.0157 74.5385 95.1551 73.7998 94.9205 73.7736C94.7666 73.747 94.6297 73.9299 94.5362 74.0879C94.6286 73.688 94.6975 73.2673 94.7476 72.8342C95.0341 72.5302 95.2868 72.188 95.4786 71.8002C95.5469 74.8784 94.3523 77.3694 91.9642 79.2332C91.3141 79.7471 90.588 80.1894 89.8305 80.5574C89.6213 80.6551 89.4035 80.7578 89.1893 80.8468C89.3404 80.5286 89.4816 80.1931 89.6141 79.8626C89.7267 79.7976 89.8406 79.7549 89.9532 79.6899L89.9445 79.6949Z" fill="url(#paint58_radial_1253_39091)"/>
<path style="mix-blend-mode:multiply" fill-rule="evenodd" clip-rule="evenodd" d="M92.0898 71.7702C91.8916 71.8269 91.6834 71.8663 91.4565 71.8934L91.3834 72.4667C92.3432 72.4091 93.0796 72.0647 93.5645 71.4846C93.4386 71.6265 92.3315 72.2889 92.0599 72.0184C91.9975 71.9505 92.0232 71.8549 92.0811 71.7752L92.0898 71.7702Z" fill="url(#paint59_linear_1253_39091)"/>
<path style="mix-blend-mode:multiply" opacity="0.75" fill-rule="evenodd" clip-rule="evenodd" d="M70.5174 71.767C70.7137 71.8269 70.9222 71.8681 71.1518 71.8857L71.2263 72.4547C70.2684 72.3957 69.5351 72.0455 69.0438 71.4746C69.1685 71.6105 70.2754 72.2878 70.5495 72.0025C70.6124 71.9315 70.5848 71.8436 70.5261 71.762L70.5174 71.767Z" fill="url(#paint60_linear_1253_39091)"/>
<path style="mix-blend-mode:screen" fill-rule="evenodd" clip-rule="evenodd" d="M80.3041 67.918C81.8641 70.62 80.938 74.076 78.236 75.636C75.534 77.196 72.0867 76.265 70.5267 73.563C68.9667 70.861 69.8927 67.4049 72.586 65.8499C75.2794 64.2949 78.7441 65.216 80.3041 67.918Z" fill="url(#paint61_radial_1253_39091)"/>
<path style="mix-blend-mode:screen" d="M69.0192 71.5126C70.0666 70.9079 70.4255 69.5685 69.8208 68.521C69.216 67.4736 67.8766 67.1147 66.8292 67.7195C65.7817 68.3242 65.4228 69.6636 66.0276 70.711C66.6323 71.7585 67.9717 72.1174 69.0192 71.5126Z" fill="url(#paint62_radial_1253_39091)"/>
</g>
<g filter="url(#filter1_d_1253_39091)">
<path d="M55.9881 117.595C54.8154 116.058 51.6724 115.785 48.523 117.053C45.3737 118.322 43.2971 120.696 43.5158 122.617L43.4241 122.613L43.5803 122.99C44.3864 124.989 47.8669 125.475 51.3537 124.069C54.8404 122.665 57.0129 119.905 56.2089 117.903L56.0527 117.524L55.9902 117.593L55.9881 117.595Z" fill="#D16A0D"/>
<path d="M55.8298 116.97C55.8777 117.087 55.9047 117.133 55.938 117.225C55.9505 117.26 56.0443 117.479 56.0526 117.525C56.3609 119.464 54.228 121.963 51.0224 123.255C47.7419 124.575 44.4738 124.181 43.4261 122.609C43.4261 122.609 43.2512 122.174 43.2054 122.055C42.3993 120.053 44.5738 117.293 48.0606 115.889C51.5473 114.486 55.0278 114.969 55.8318 116.968L55.8298 116.97Z" fill="#D16A0D"/>
<path d="M55.7943 116.884C56.6004 118.884 54.4259 121.646 50.9391 123.05C47.4524 124.454 43.9719 123.97 43.1679 121.971C42.3618 119.971 44.5363 117.209 48.0231 115.805C51.5098 114.402 54.9903 114.885 55.7943 116.884Z" fill="url(#paint63_linear_1253_39091)"/>
<g style="mix-blend-mode:screen" opacity="0.5">
<path d="M48.0314 115.826C51.5119 114.424 54.9841 114.903 55.7985 116.894C55.7985 116.89 55.7964 116.888 55.7944 116.884C54.9883 114.882 51.5099 114.399 48.0231 115.805C44.5364 117.209 42.3618 119.969 43.1679 121.97C43.1679 121.974 43.17 121.977 43.1721 121.981C42.3785 119.981 44.5509 117.23 48.0314 115.828V115.826Z" fill="#FEF0A0"/>
</g>
<path d="M54.7966 117.286C55.4756 118.971 53.6448 121.296 50.7079 122.477C47.771 123.66 44.8425 123.252 44.1635 121.567C43.4845 119.882 45.3153 117.557 48.2522 116.376C51.1891 115.193 54.1197 115.601 54.7966 117.286Z" fill="url(#paint64_linear_1253_39091)"/>
<path d="M54.7966 117.286C55.4756 118.971 53.6448 121.296 50.7079 122.477C47.771 123.66 44.8425 123.252 44.1635 121.567C43.4845 119.882 45.3153 117.557 48.2522 116.376C51.1891 115.193 54.1197 115.601 54.7966 117.286Z" fill="url(#paint65_linear_1253_39091)"/>
<g style="mix-blend-mode:multiply">
<path d="M48.2522 116.376C51.1807 115.197 54.103 115.599 54.7925 117.274C54.7925 117.27 54.7883 117.266 54.7883 117.261C54.1093 115.576 51.1787 115.17 48.2439 116.353C45.307 117.536 43.4782 119.861 44.1552 121.544C44.1572 121.548 44.1593 121.552 44.1614 121.556C43.4991 119.873 45.3257 117.557 48.2543 116.378L48.2522 116.376Z" fill="#FEF0A0"/>
</g>
<g style="mix-blend-mode:screen" opacity="0.3">
<path d="M50.71 122.477C47.7794 123.656 44.855 123.254 44.1697 121.577C44.1697 121.581 44.1718 121.583 44.1739 121.588C44.8529 123.273 47.7815 123.679 50.7183 122.498C53.6552 121.315 55.4861 118.99 54.8071 117.307C54.8071 117.303 54.805 117.301 54.8029 117.297C55.4694 118.98 53.6406 121.298 50.71 122.477Z" fill="#FEF0A0"/>
</g>
<path opacity="0.4" d="M48.3084 116.513C51.2182 115.34 54.103 115.686 54.8154 117.331C54.8091 117.317 54.805 117.3 54.7966 117.285C54.1197 115.6 51.1891 115.194 48.2522 116.375C45.3154 117.558 43.4866 119.883 44.1635 121.566C44.1698 121.58 44.176 121.595 44.1823 121.611C43.5553 119.931 45.3966 117.683 48.3064 116.51L48.3084 116.513Z" fill="#D16A0D"/>
<g style="mix-blend-mode:multiply" opacity="0.4">
<path d="M51.5765 118.879C51.412 118.781 51.237 118.724 51.0475 118.712C50.86 118.697 50.5205 118.706 50.0331 118.735C49.4582 118.768 49.1062 118.776 48.9792 118.758C48.848 118.741 48.7542 118.66 48.6938 118.512C48.6584 118.422 48.6584 118.347 48.6917 118.281C48.7271 118.216 48.7959 118.162 48.8979 118.12C49.0271 118.068 49.1208 118.06 49.1812 118.095C49.2416 118.131 49.3041 118.231 49.3708 118.397L49.2708 118.485L49.4353 118.554L51.1308 117.87C51.11 117.787 51.0912 117.725 51.0766 117.687C50.9642 117.408 50.7475 117.243 50.4226 117.191C50.0998 117.137 49.6686 117.198 49.1291 117.373L49.0083 117.071L48.8438 117.004L48.8042 117.139L48.2273 117.387L48.3481 117.689C47.7898 117.958 47.3983 118.229 47.1775 118.506C46.9546 118.781 46.9004 119.06 47.0129 119.341C47.0921 119.535 47.2295 119.682 47.4274 119.782C47.6253 119.882 47.8336 119.937 48.0544 119.945C48.2751 119.955 48.6792 119.945 49.2708 119.918C49.6248 119.901 49.8456 119.926 49.9373 119.995C50.0269 120.064 50.1143 120.205 50.1997 120.416C50.2331 120.499 50.231 120.574 50.1914 120.639C50.1518 120.703 50.0768 120.759 49.9602 120.805C49.8269 120.859 49.729 120.863 49.6686 120.816C49.6082 120.768 49.527 120.618 49.4249 120.364L49.3791 120.251L49.3312 120.132L49.1666 120.064L49.0396 120.218L47.6336 120.816L47.7086 121.001C47.8773 121.422 48.1647 121.647 48.5709 121.678C48.9771 121.711 49.4124 121.647 49.8769 121.49L49.8602 121.788L50.0227 121.857L50.8038 121.543L50.6601 121.188C51.2245 120.909 51.6119 120.616 51.8265 120.307C52.041 119.999 52.0806 119.676 51.9452 119.341C51.8619 119.131 51.7369 118.976 51.5724 118.881L51.5765 118.879Z" fill="#AA7E03"/>
</g>
<path d="M50.9662 117.804L49.2708 118.487L49.2083 118.331C49.1416 118.164 49.0771 118.062 49.0187 118.029C48.9583 117.993 48.8646 118.002 48.7355 118.054C48.6313 118.095 48.5626 118.149 48.5293 118.214C48.4959 118.279 48.4959 118.356 48.5314 118.445C48.5918 118.593 48.6855 118.674 48.8167 118.691C48.9438 118.708 49.2958 118.701 49.8706 118.668C50.3601 118.639 50.6975 118.631 50.8871 118.645C51.0745 118.658 51.2495 118.714 51.4141 118.812C51.5786 118.91 51.7036 119.062 51.7869 119.272C51.9223 119.608 51.8827 119.93 51.6682 120.239C51.4536 120.547 51.0662 120.841 50.5018 121.12L50.6455 121.474L49.8644 121.788L49.7165 121.422C49.2541 121.58 48.8188 121.642 48.4105 121.609C48.0044 121.576 47.7169 121.351 47.5482 120.93L47.4732 120.747L49.1687 120.064L49.2624 120.295C49.3645 120.549 49.4457 120.699 49.504 120.747C49.5644 120.795 49.6603 120.791 49.7957 120.736C49.9102 120.691 49.9873 120.634 50.0248 120.57C50.0643 120.505 50.0664 120.43 50.0331 120.345C49.9477 120.134 49.8602 119.993 49.7707 119.924C49.6811 119.855 49.4603 119.828 49.1062 119.847C48.5168 119.876 48.1106 119.885 47.8898 119.874C47.669 119.864 47.4608 119.81 47.2629 119.71C47.065 119.61 46.9275 119.464 46.8484 119.27C46.7359 118.989 46.7901 118.71 47.0129 118.435C47.2358 118.16 47.6253 117.887 48.1835 117.618L48.0627 117.318L48.8438 117.004L48.9646 117.304C49.502 117.131 49.9331 117.071 50.2581 117.123C50.5809 117.175 50.7996 117.341 50.9121 117.62C50.9287 117.66 50.9454 117.72 50.9662 117.804Z" fill="white"/>
<g style="mix-blend-mode:screen" opacity="0.7">
<path style="mix-blend-mode:screen" d="M48.9749 117.3V117.304C49.4436 117.154 49.831 117.087 50.1372 117.108C49.831 117.085 49.4436 117.15 48.9749 117.3Z" fill="url(#paint66_linear_1253_39091)"/>
<path style="mix-blend-mode:screen" d="M48.9521 118.008C48.9771 118.01 49 118.016 49.0167 118.029C49.0771 118.064 49.1396 118.164 49.2062 118.331L49.2687 118.487L49.2791 118.483L49.2187 118.331C49.152 118.164 49.0896 118.064 49.0271 118.029C49.0062 118.016 48.9792 118.01 48.95 118.008H48.9521Z" fill="url(#paint67_linear_1253_39091)"/>
<path style="mix-blend-mode:screen" d="M50.0394 120.57C50.0789 120.506 50.081 120.431 50.0477 120.345C49.9623 120.135 49.8748 119.993 49.7853 119.925C49.7311 119.883 49.629 119.856 49.477 119.848C49.6207 119.858 49.7186 119.885 49.7727 119.925C49.8623 119.996 49.9498 120.135 50.0352 120.345C50.0685 120.429 50.0664 120.504 50.0268 120.57C49.9894 120.635 49.9123 120.691 49.7977 120.737C49.7207 120.768 49.6561 120.783 49.604 120.781C49.6582 120.787 49.7269 120.772 49.8102 120.739C49.9248 120.693 50.0019 120.637 50.0394 120.572V120.57Z" fill="url(#paint68_linear_1253_39091)"/>
<path style="mix-blend-mode:screen" d="M50.885 118.644C50.6975 118.629 50.358 118.637 49.8686 118.667C49.3582 118.696 49.025 118.704 48.8667 118.694C49.0187 118.706 49.3562 118.696 49.8811 118.667C50.3601 118.637 50.6955 118.631 50.885 118.644Z" fill="url(#paint69_linear_1253_39091)"/>
<path style="mix-blend-mode:screen" d="M49.729 121.424C49.729 121.424 49.7228 121.426 49.7186 121.428L49.8644 121.79L49.8748 121.786L49.729 121.426V121.424Z" fill="url(#paint70_linear_1253_39091)"/>
<path style="mix-blend-mode:screen" d="M48.423 121.612C48.0169 121.579 47.7294 121.354 47.5586 120.933L47.4857 120.75L49.1708 120.071V120.064L47.4732 120.748L47.5482 120.931C47.7169 121.352 48.0043 121.577 48.4105 121.61C48.423 121.61 48.4376 121.612 48.4501 121.612C48.4418 121.612 48.4313 121.612 48.423 121.612Z" fill="url(#paint71_linear_1253_39091)"/>
<path style="mix-blend-mode:screen" d="M47.8565 119.872C47.6545 119.857 47.4607 119.803 47.2774 119.712C47.0796 119.612 46.9421 119.466 46.863 119.27C46.7505 118.989 46.8046 118.71 47.0254 118.435C47.2483 118.16 47.6378 117.887 48.196 117.618L48.0752 117.318L48.8459 117.008V117.004L48.0627 117.318L48.1835 117.618C47.6253 117.887 47.2337 118.158 47.0129 118.435C46.7901 118.71 46.7359 118.989 46.8484 119.27C46.9254 119.464 47.065 119.612 47.2629 119.71C47.4503 119.803 47.6482 119.857 47.8565 119.872Z" fill="url(#paint72_linear_1253_39091)"/>
</g>
</g>
<defs>
<filter id="filter0_d_1253_39091" x="124.66" y="78.209" width="14.68" height="15.4844" filterUnits="userSpaceOnUse" color-interpolation-filters="sRGB">
<feFlood flood-opacity="0" result="BackgroundImageFix"/>
<feColorMatrix in="SourceAlpha" type="matrix" values="0 0 0 0 0 0 0 0 0 0 0 0 0 0 0 0 0 0 127 0" result="hardAlpha"/>
<feOffset dy="4"/>
<feGaussianBlur stdDeviation="2"/>
<feComposite in2="hardAlpha" operator="out"/>
<feColorMatrix type="matrix" values="0 0 0 0 0 0 0 0 0 0 0 0 0 0 0 0 0 0 0.25 0"/>
<feBlend mode="normal" in2="BackgroundImageFix" result="effect1_dropShadow_1253_39091"/>
<feBlend mode="normal" in="SourceGraphic" in2="effect1_dropShadow_1253_39091" result="shape"/>
</filter>
<filter id="filter1_d_1253_39091" x="39" y="115" width="21.3761" height="17.873" filterUnits="userSpaceOnUse" color-interpolation-filters="sRGB">
<feFlood flood-opacity="0" result="BackgroundImageFix"/>
<feColorMatrix in="SourceAlpha" type="matrix" values="0 0 0 0 0 0 0 0 0 0 0 0 0 0 0 0 0 0 127 0" result="hardAlpha"/>
<feOffset dy="4"/>
<feGaussianBlur stdDeviation="2"/>
<feComposite in2="hardAlpha" operator="out"/>
<feColorMatrix type="matrix" values="0 0 0 0 0 0 0 0 0 0 0 0 0 0 0 0 0 0 0.25 0"/>
<feBlend mode="normal" in2="BackgroundImageFix" result="effect1_dropShadow_1253_39091"/>
<feBlend mode="normal" in="SourceGraphic" in2="effect1_dropShadow_1253_39091" result="shape"/>
</filter>
<linearGradient id="paint0_linear_1253_39091" x1="128.652" y1="53.5801" x2="35.3477" y2="113.089" gradientUnits="userSpaceOnUse">
<stop stop-color="#882AFF"/>
<stop offset="1" stop-color="#6255FF"/>
</linearGradient>
<linearGradient id="paint1_linear_1253_39091" x1="109.667" y1="35.4147" x2="54.3333" y2="131.255" gradientUnits="userSpaceOnUse">
<stop stop-color="#882AFF"/>
<stop offset="1" stop-color="#6255FF"/>
</linearGradient>
<linearGradient id="paint2_linear_1253_39091" x1="132.777" y1="79.1959" x2="130.064" y2="83.8018" gradientUnits="userSpaceOnUse">
<stop stop-color="#FFD08D"/>
<stop offset="0.58" stop-color="#FFDC2A"/>
<stop offset="0.81" stop-color="#F3C237"/>
<stop offset="1" stop-color="#EBB140"/>
</linearGradient>
<linearGradient id="paint3_linear_1253_39091" x1="130.506" y1="83.0803" x2="133.667" y2="80.7043" gradientUnits="userSpaceOnUse">
<stop stop-color="#F0C827"/>
<stop offset="0.08" stop-color="#E9BE25"/>
<stop offset="0.22" stop-color="#E2B424"/>
<stop offset="0.38" stop-color="#EECA46"/>
<stop offset="0.57" stop-color="#FAE168"/>
<stop offset="0.68" stop-color="#FFEA76"/>
<stop offset="0.74" stop-color="#FDE770"/>
<stop offset="0.82" stop-color="#FBE161"/>
<stop offset="0.91" stop-color="#F6D647"/>
<stop offset="1" stop-color="#F0C827"/>
</linearGradient>
<linearGradient id="paint4_linear_1253_39091" x1="130.506" y1="83.0803" x2="133.667" y2="80.7043" gradientUnits="userSpaceOnUse">
<stop stop-color="#FFD08D"/>
<stop offset="0.58" stop-color="#FFAF2A"/>
<stop offset="0.71" stop-color="#F8A631"/>
<stop offset="1" stop-color="#EC9540"/>
</linearGradient>
<linearGradient id="paint5_linear_1253_39091" x1="133.325" y1="81.6338" x2="133.449" y2="81.5411" gradientUnits="userSpaceOnUse">
<stop offset="0.04" stop-color="#F8DA36"/>
<stop offset="0.11" stop-color="#F1CD21"/>
<stop offset="0.19" stop-color="#EBC412"/>
<stop offset="0.28" stop-color="#E8BE09"/>
<stop offset="0.42" stop-color="#E8BD07"/>
<stop offset="0.51" stop-color="#EFCB1B"/>
<stop offset="0.64" stop-color="#F8DB33"/>
<stop offset="0.77" stop-color="#FDE542"/>
<stop offset="0.87" stop-color="#FFE947"/>
<stop offset="1" stop-color="#FFEC63"/>
</linearGradient>
<linearGradient id="paint6_linear_1253_39091" x1="132.581" y1="81.5978" x2="132.852" y2="81.3941" gradientUnits="userSpaceOnUse">
<stop offset="0.04" stop-color="#F8DA36"/>
<stop offset="0.11" stop-color="#F1CD21"/>
<stop offset="0.19" stop-color="#EBC412"/>
<stop offset="0.28" stop-color="#E8BE09"/>
<stop offset="0.42" stop-color="#E8BD07"/>
<stop offset="0.51" stop-color="#EFCB1B"/>
<stop offset="0.64" stop-color="#F8DB33"/>
<stop offset="0.77" stop-color="#FDE542"/>
<stop offset="0.87" stop-color="#FFE947"/>
<stop offset="1" stop-color="#FFEC63"/>
</linearGradient>
<linearGradient id="paint7_linear_1253_39091" x1="131.405" y1="82.3246" x2="131.863" y2="81.9808" gradientUnits="userSpaceOnUse">
<stop offset="0.04" stop-color="#F8DA36"/>
<stop offset="0.11" stop-color="#F1CD21"/>
<stop offset="0.19" stop-color="#EBC412"/>
<stop offset="0.28" stop-color="#E8BE09"/>
<stop offset="0.42" stop-color="#E8BD07"/>
<stop offset="0.51" stop-color="#EFCB1B"/>
<stop offset="0.64" stop-color="#F8DB33"/>
<stop offset="0.77" stop-color="#FDE542"/>
<stop offset="0.87" stop-color="#FFE947"/>
<stop offset="1" stop-color="#FFEC63"/>
</linearGradient>
<linearGradient id="paint8_linear_1253_39091" x1="132.417" y1="82.1289" x2="132.757" y2="81.8735" gradientUnits="userSpaceOnUse">
<stop offset="0.04" stop-color="#F8DA36"/>
<stop offset="0.11" stop-color="#F1CD21"/>
<stop offset="0.19" stop-color="#EBC412"/>
<stop offset="0.28" stop-color="#E8BE09"/>
<stop offset="0.42" stop-color="#E8BD07"/>
<stop offset="0.51" stop-color="#EFCB1B"/>
<stop offset="0.64" stop-color="#F8DB33"/>
<stop offset="0.77" stop-color="#FDE542"/>
<stop offset="0.87" stop-color="#FFE947"/>
<stop offset="1" stop-color="#FFEC63"/>
</linearGradient>
<linearGradient id="paint9_linear_1253_39091" x1="130.778" y1="82.4851" x2="130.966" y2="82.3439" gradientUnits="userSpaceOnUse">
<stop offset="0.04" stop-color="#F8DA36"/>
<stop offset="0.11" stop-color="#F1CD21"/>
<stop offset="0.19" stop-color="#EBC412"/>
<stop offset="0.28" stop-color="#E8BE09"/>
<stop offset="0.42" stop-color="#E8BD07"/>
<stop offset="0.51" stop-color="#EFCB1B"/>
<stop offset="0.64" stop-color="#F8DB33"/>
<stop offset="0.77" stop-color="#FDE542"/>
<stop offset="0.87" stop-color="#FFE947"/>
<stop offset="1" stop-color="#FFEC63"/>
</linearGradient>
<linearGradient id="paint10_linear_1253_39091" x1="130.779" y1="81.7953" x2="131.341" y2="81.3733" gradientUnits="userSpaceOnUse">
<stop offset="0.04" stop-color="#F8DA36"/>
<stop offset="0.11" stop-color="#F1CD21"/>
<stop offset="0.19" stop-color="#EBC412"/>
<stop offset="0.28" stop-color="#E8BE09"/>
<stop offset="0.42" stop-color="#E8BD07"/>
<stop offset="0.51" stop-color="#EFCB1B"/>
<stop offset="0.64" stop-color="#F8DB33"/>
<stop offset="0.77" stop-color="#FDE542"/>
<stop offset="0.87" stop-color="#FFE947"/>
<stop offset="1" stop-color="#FFEC63"/>
</linearGradient>
<linearGradient id="paint11_linear_1253_39091" x1="131.808" y1="81.3263" x2="132.91" y2="80.498" gradientUnits="userSpaceOnUse">
<stop offset="0.04" stop-color="#F8DA36"/>
<stop offset="0.11" stop-color="#F1CD21"/>
<stop offset="0.19" stop-color="#EBC412"/>
<stop offset="0.28" stop-color="#E8BE09"/>
<stop offset="0.42" stop-color="#E8BD07"/>
<stop offset="0.51" stop-color="#EFCB1B"/>
<stop offset="0.64" stop-color="#F8DB33"/>
<stop offset="0.77" stop-color="#FDE542"/>
<stop offset="0.87" stop-color="#FFE947"/>
<stop offset="1" stop-color="#FFEC63"/>
</linearGradient>
<linearGradient id="paint12_linear_1253_39091" x1="46.7054" y1="50.3587" x2="55.5318" y2="53.3534" gradientUnits="userSpaceOnUse">
<stop stop-color="#FA6045"/>
<stop offset="1" stop-color="#C9290C"/>
</linearGradient>
<linearGradient id="paint13_linear_1253_39091" x1="125.009" y1="55.0604" x2="114.456" y2="58.9001" gradientUnits="userSpaceOnUse">
<stop stop-color="#FFCA7D"/>
<stop offset="1" stop-color="#FFA422"/>
</linearGradient>
<radialGradient id="paint14_radial_1253_39091" cx="0" cy="0" r="1" gradientUnits="userSpaceOnUse" gradientTransform="translate(78.8645 73.8652) rotate(-30) scale(17.47)">
<stop stop-color="#FCEA10"/>
<stop offset="0.12" stop-color="#CDBE0D"/>
<stop offset="0.3" stop-color="#8F8509"/>
<stop offset="0.47" stop-color="#5C5505"/>
<stop offset="0.63" stop-color="#343003"/>
<stop offset="0.78" stop-color="#171501"/>
<stop offset="0.91" stop-color="#060500"/>
<stop offset="1"/>
</radialGradient>
<linearGradient id="paint15_linear_1253_39091" x1="90.7671" y1="67.2005" x2="97.2191" y2="70.1957" gradientUnits="userSpaceOnUse">
<stop stop-color="#FFCC00"/>
<stop offset="1" stop-color="#9C5900"/>
</linearGradient>
<radialGradient id="paint16_radial_1253_39091" cx="0" cy="0" r="1" gradientUnits="userSpaceOnUse" gradientTransform="translate(97.68 68.695) rotate(-30) scale(5.33999 5.34)">
<stop/>
<stop offset="1" stop-color="#FFF369"/>
</radialGradient>
<linearGradient id="paint17_linear_1253_39091" x1="63.6895" y1="70.7205" x2="77.716" y2="79.735" gradientUnits="userSpaceOnUse">
<stop stop-color="#FFCC00"/>
<stop offset="1" stop-color="#B36600"/>
</linearGradient>
<linearGradient id="paint18_linear_1253_39091" x1="69.5197" y1="67.7585" x2="72.5699" y2="71.7017" gradientUnits="userSpaceOnUse">
<stop stop-color="#DB7D00"/>
<stop offset="1" stop-color="#914900"/>
</linearGradient>
<linearGradient id="paint19_linear_1253_39091" x1="66.28" y1="72.5264" x2="73.1992" y2="80.9908" gradientUnits="userSpaceOnUse">
<stop stop-color="#C77000"/>
<stop offset="0.4" stop-color="#CC8B00"/>
<stop offset="1" stop-color="#BA5E00"/>
</linearGradient>
<linearGradient id="paint20_linear_1253_39091" x1="65.3392" y1="70.4378" x2="68.8986" y2="68.3828" gradientUnits="userSpaceOnUse">
<stop stop-color="#FFCC00"/>
<stop offset="1" stop-color="#B36600"/>
</linearGradient>
<linearGradient id="paint21_linear_1253_39091" x1="85.7702" y1="80.9845" x2="106.998" y2="58.2323" gradientUnits="userSpaceOnUse">
<stop stop-color="#B35100"/>
<stop offset="1" stop-color="#FFCC00"/>
</linearGradient>
<linearGradient id="paint22_linear_1253_39091" x1="90.2587" y1="71.42" x2="93.0173" y2="67.8182" gradientUnits="userSpaceOnUse">
<stop stop-color="#8A4500"/>
<stop offset="1" stop-color="#B86800"/>
</linearGradient>
<linearGradient id="paint23_linear_1253_39091" x1="89.457" y1="81.351" x2="95.9845" y2="72.3169" gradientUnits="userSpaceOnUse">
<stop stop-color="#C75A00"/>
<stop offset="0.4" stop-color="#BF6D00"/>
<stop offset="1" stop-color="#914900"/>
</linearGradient>
<linearGradient id="paint24_linear_1253_39091" x1="74.4265" y1="95.3167" x2="88.1808" y2="95.32" gradientUnits="userSpaceOnUse">
<stop stop-color="#781916"/>
<stop offset="0.31" stop-color="#963333"/>
<stop offset="1" stop-color="#450E0E"/>
</linearGradient>
<linearGradient id="paint25_linear_1253_39091" x1="74.4223" y1="90.7706" x2="88.1854" y2="90.7689" gradientUnits="userSpaceOnUse">
<stop offset="0.05" stop-color="#ED9500"/>
<stop offset="0.4" stop-color="#FFCC00"/>
<stop offset="0.93" stop-color="#B36600"/>
</linearGradient>
<radialGradient id="paint26_radial_1253_39091" cx="0" cy="0" r="1" gradientUnits="userSpaceOnUse" gradientTransform="translate(78.435 93.5795) rotate(-30) scale(7.7 7.7)">
<stop stop-color="white"/>
<stop offset="1" stop-color="#E08F48"/>
</radialGradient>
<radialGradient id="paint27_radial_1253_39091" cx="0" cy="0" r="1" gradientUnits="userSpaceOnUse" gradientTransform="translate(85.2208 94.374) rotate(-30) scale(8.04 8.04)">
<stop stop-color="white"/>
<stop offset="1" stop-color="#E08F48"/>
</radialGradient>
<radialGradient id="paint28_radial_1253_39091" cx="0" cy="0" r="1" gradientUnits="userSpaceOnUse" gradientTransform="translate(81.593 92.7506) rotate(-30) scale(5.56)">
<stop stop-color="#FFF369"/>
<stop offset="0.11" stop-color="#FAEE67"/>
<stop offset="0.23" stop-color="#ECE161"/>
<stop offset="0.36" stop-color="#D6CC58"/>
<stop offset="0.5" stop-color="#B6AE4B"/>
<stop offset="0.64" stop-color="#8E873A"/>
<stop offset="0.78" stop-color="#5C5826"/>
<stop offset="0.92" stop-color="#22210E"/>
<stop offset="1"/>
</radialGradient>
<radialGradient id="paint29_radial_1253_39091" cx="0" cy="0" r="1" gradientUnits="userSpaceOnUse" gradientTransform="translate(77.1367 91.4325) rotate(-30) scale(5.56)">
<stop stop-color="#FFF369"/>
<stop offset="0.11" stop-color="#FAEE67"/>
<stop offset="0.23" stop-color="#ECE161"/>
<stop offset="0.36" stop-color="#D6CC58"/>
<stop offset="0.5" stop-color="#B6AE4B"/>
<stop offset="0.64" stop-color="#8E873A"/>
<stop offset="0.78" stop-color="#5C5826"/>
<stop offset="0.92" stop-color="#22210E"/>
<stop offset="1"/>
</radialGradient>
<linearGradient id="paint30_linear_1253_39091" x1="74.4239" y1="94.7531" x2="75.1495" y2="94.7499" gradientUnits="userSpaceOnUse">
<stop stop-color="#616DBE"/>
<stop offset="0.6" stop-color="#C2C7E6"/>
<stop offset="1" stop-color="white"/>
</linearGradient>
<linearGradient id="paint31_linear_1253_39091" x1="87.1219" y1="94.8466" x2="88.1837" y2="94.8456" gradientUnits="userSpaceOnUse">
<stop stop-color="white"/>
<stop offset="0.4" stop-color="#C2C7E6"/>
<stop offset="1" stop-color="#616DBE"/>
</linearGradient>
<linearGradient id="paint32_linear_1253_39091" x1="77.1799" y1="96.1058" x2="79.931" y2="96.1109" gradientUnits="userSpaceOnUse">
<stop stop-color="#AB665D"/>
<stop offset="1" stop-color="#2B2321"/>
</linearGradient>
<radialGradient id="paint33_radial_1253_39091" cx="0" cy="0" r="1" gradientUnits="userSpaceOnUse" gradientTransform="translate(84.8704 73.906) rotate(-30) scale(10.94 10.94)">
<stop stop-color="#E08F48"/>
<stop offset="1" stop-color="white"/>
</radialGradient>
<linearGradient id="paint34_linear_1253_39091" x1="84.2479" y1="95.9292" x2="86.2151" y2="95.9366" gradientUnits="userSpaceOnUse">
<stop stop-color="#AB665D"/>
<stop offset="1" stop-color="#2B2321"/>
</linearGradient>
<radialGradient id="paint35_radial_1253_39091" cx="0" cy="0" r="1" gradientUnits="userSpaceOnUse" gradientTransform="translate(81.5483 85.5123) rotate(-30) scale(4.71 4.71)">
<stop stop-color="#FFA163"/>
<stop offset="1" stop-color="white"/>
</radialGradient>
<linearGradient id="paint36_linear_1253_39091" x1="70.9754" y1="78.8" x2="91.6336" y2="78.801" gradientUnits="userSpaceOnUse">
<stop offset="0.05" stop-color="#ED9500"/>
<stop offset="0.4" stop-color="#FFCC00"/>
<stop offset="1" stop-color="#D96D00"/>
</linearGradient>
<radialGradient id="paint37_radial_1253_39091" cx="0" cy="0" r="1" gradientUnits="userSpaceOnUse" gradientTransform="translate(73.2985 72.6441) rotate(-30) scale(17.07)">
<stop stop-color="#FFF369"/>
<stop offset="0.11" stop-color="#FAEE67"/>
<stop offset="0.23" stop-color="#ECE161"/>
<stop offset="0.36" stop-color="#D6CC58"/>
<stop offset="0.5" stop-color="#B6AE4B"/>
<stop offset="0.64" stop-color="#8E873A"/>
<stop offset="0.78" stop-color="#5C5826"/>
<stop offset="0.92" stop-color="#22210E"/>
<stop offset="1"/>
</radialGradient>
<radialGradient id="paint38_radial_1253_39091" cx="0" cy="0" r="1" gradientUnits="userSpaceOnUse" gradientTransform="translate(73.5264 70.6192) rotate(-30) scale(13.61)">
<stop stop-color="#FFF369"/>
<stop offset="0.11" stop-color="#FAEE67"/>
<stop offset="0.23" stop-color="#ECE161"/>
<stop offset="0.36" stop-color="#D6CC58"/>
<stop offset="0.5" stop-color="#B6AE4B"/>
<stop offset="0.64" stop-color="#8E873A"/>
<stop offset="0.78" stop-color="#5C5826"/>
<stop offset="0.92" stop-color="#22210E"/>
<stop offset="1"/>
</radialGradient>
<radialGradient id="paint39_radial_1253_39091" cx="0" cy="0" r="1" gradientUnits="userSpaceOnUse" gradientTransform="translate(79.9955 76.0641) rotate(-30) scale(14.36 14.36)">
<stop stop-color="white"/>
<stop offset="1" stop-color="#E08F48"/>
</radialGradient>
<radialGradient id="paint40_radial_1253_39091" cx="0" cy="0" r="1" gradientUnits="userSpaceOnUse" gradientTransform="translate(81.8953 76.513) rotate(-30) scale(12.42)">
<stop stop-color="white"/>
<stop offset="1" stop-color="#E08F48"/>
</radialGradient>
<radialGradient id="paint41_radial_1253_39091" cx="0" cy="0" r="1" gradientUnits="userSpaceOnUse" gradientTransform="translate(76.1586 71.777) rotate(-30) scale(16.3 16.3)">
<stop stop-color="#FFF369"/>
<stop offset="0.11" stop-color="#FAEE67"/>
<stop offset="0.23" stop-color="#ECE161"/>
<stop offset="0.36" stop-color="#D6CC58"/>
<stop offset="0.5" stop-color="#B6AE4B"/>
<stop offset="0.64" stop-color="#8E873A"/>
<stop offset="0.78" stop-color="#5C5826"/>
<stop offset="0.92" stop-color="#22210E"/>
<stop offset="1"/>
</radialGradient>
<radialGradient id="paint42_radial_1253_39091" cx="0" cy="0" r="1" gradientUnits="userSpaceOnUse" gradientTransform="translate(70.5364 73.7996) rotate(-30) scale(17.19)">
<stop stop-color="#FFF369"/>
<stop offset="0.11" stop-color="#FAEE67"/>
<stop offset="0.23" stop-color="#ECE161"/>
<stop offset="0.36" stop-color="#D6CC58"/>
<stop offset="0.5" stop-color="#B6AE4B"/>
<stop offset="0.64" stop-color="#8E873A"/>
<stop offset="0.78" stop-color="#5C5826"/>
<stop offset="0.92" stop-color="#22210E"/>
<stop offset="1"/>
</radialGradient>
<radialGradient id="paint43_radial_1253_39091" cx="0" cy="0" r="1" gradientUnits="userSpaceOnUse" gradientTransform="translate(74.9871 72.1893) rotate(-30) scale(16.9 16.9)">
<stop stop-color="#FFCC00"/>
<stop offset="1" stop-color="#ED9500"/>
</radialGradient>
<radialGradient id="paint44_radial_1253_39091" cx="0" cy="0" r="1" gradientUnits="userSpaceOnUse" gradientTransform="translate(79.1859 59.1401) rotate(-30) scale(16.48)">
<stop stop-color="#FFF369"/>
<stop offset="0.11" stop-color="#FAEE67"/>
<stop offset="0.23" stop-color="#ECE161"/>
<stop offset="0.36" stop-color="#D6CC58"/>
<stop offset="0.5" stop-color="#B6AE4B"/>
<stop offset="0.64" stop-color="#8E873A"/>
<stop offset="0.78" stop-color="#5C5826"/>
<stop offset="0.92" stop-color="#22210E"/>
<stop offset="1"/>
</radialGradient>
<radialGradient id="paint45_radial_1253_39091" cx="0" cy="0" r="1" gradientUnits="userSpaceOnUse" gradientTransform="translate(77.5188 63.3143) rotate(-30) scale(11.67)">
<stop stop-color="#FFF369"/>
<stop offset="0.11" stop-color="#FAEE67"/>
<stop offset="0.23" stop-color="#ECE161"/>
<stop offset="0.36" stop-color="#D6CC58"/>
<stop offset="0.5" stop-color="#B6AE4B"/>
<stop offset="0.64" stop-color="#8E873A"/>
<stop offset="0.78" stop-color="#5C5826"/>
<stop offset="0.92" stop-color="#22210E"/>
<stop offset="1"/>
</radialGradient>
<radialGradient id="paint46_radial_1253_39091" cx="0" cy="0" r="1" gradientUnits="userSpaceOnUse" gradientTransform="translate(87.308 69.5099) rotate(-30) scale(7.03 7.03)">
<stop stop-color="white"/>
<stop offset="1" stop-color="#FFA163"/>
</radialGradient>
<radialGradient id="paint47_radial_1253_39091" cx="0" cy="0" r="1" gradientUnits="userSpaceOnUse" gradientTransform="translate(74.7912 70.2694) rotate(-30) scale(7.18 7.18)">
<stop stop-color="white"/>
<stop offset="1" stop-color="#FFA163"/>
</radialGradient>
<radialGradient id="paint48_radial_1253_39091" cx="0" cy="0" r="1" gradientUnits="userSpaceOnUse" gradientTransform="translate(83.296 69.9195) rotate(-30) scale(6.66 6.66)">
<stop stop-color="#FFF369"/>
<stop offset="0.11" stop-color="#FAEE67"/>
<stop offset="0.23" stop-color="#ECE161"/>
<stop offset="0.36" stop-color="#D6CC58"/>
<stop offset="0.5" stop-color="#B6AE4B"/>
<stop offset="0.64" stop-color="#8E873A"/>
<stop offset="0.78" stop-color="#5C5826"/>
<stop offset="0.92" stop-color="#22210E"/>
<stop offset="1"/>
</radialGradient>
<radialGradient id="paint49_radial_1253_39091" cx="0" cy="0" r="1" gradientUnits="userSpaceOnUse" gradientTransform="translate(73.0253 70.6302) rotate(-30) scale(8.8 8.8)">
<stop stop-color="#FFF369"/>
<stop offset="0.11" stop-color="#FAEE67"/>
<stop offset="0.23" stop-color="#ECE161"/>
<stop offset="0.36" stop-color="#D6CC58"/>
<stop offset="0.5" stop-color="#B6AE4B"/>
<stop offset="0.64" stop-color="#8E873A"/>
<stop offset="0.78" stop-color="#5C5826"/>
<stop offset="0.92" stop-color="#22210E"/>
<stop offset="1"/>
</radialGradient>
<radialGradient id="paint50_radial_1253_39091" cx="0" cy="0" r="1" gradientUnits="userSpaceOnUse" gradientTransform="translate(72.2644 70.4934) rotate(-30) scale(24.53 24.53)">
<stop stop-color="#FCF80D"/>
<stop offset="1" stop-color="#FC9C0D"/>
</radialGradient>
<radialGradient id="paint51_radial_1253_39091" cx="0" cy="0" r="1" gradientUnits="userSpaceOnUse" gradientTransform="translate(85.7094 59.5191) rotate(-30) scale(12.76)">
<stop stop-color="#FCF80D"/>
<stop offset="1" stop-color="#F78A0C"/>
</radialGradient>
<radialGradient id="paint52_radial_1253_39091" cx="0" cy="0" r="1" gradientUnits="userSpaceOnUse" gradientTransform="translate(84.2733 71.5737) rotate(-30) scale(16.3)">
<stop/>
<stop offset="0.15" stop-color="#201F0D"/>
<stop offset="0.48" stop-color="#736E2F"/>
<stop offset="0.97" stop-color="#F6EB65"/>
<stop offset="1" stop-color="#FFF369"/>
</radialGradient>
<radialGradient id="paint53_radial_1253_39091" cx="0" cy="0" r="1" gradientUnits="userSpaceOnUse" gradientTransform="translate(74.5339 77.1035) rotate(-30) scale(14.5)">
<stop stop-color="#E08F48"/>
<stop offset="1" stop-color="white"/>
</radialGradient>
<radialGradient id="paint54_radial_1253_39091" cx="0" cy="0" r="1" gradientUnits="userSpaceOnUse" gradientTransform="translate(76.7348 91.1549) rotate(-30) scale(4.83 4.83)">
<stop stop-color="#FFF369"/>
<stop offset="0.11" stop-color="#FAEE67"/>
<stop offset="0.23" stop-color="#ECE161"/>
<stop offset="0.36" stop-color="#D6CC58"/>
<stop offset="0.5" stop-color="#B6AE4B"/>
<stop offset="0.64" stop-color="#8E873A"/>
<stop offset="0.78" stop-color="#5C5826"/>
<stop offset="0.92" stop-color="#22210E"/>
<stop offset="1"/>
</radialGradient>
<radialGradient id="paint55_radial_1253_39091" cx="0" cy="0" r="1" gradientUnits="userSpaceOnUse" gradientTransform="translate(63.2921 69.7715) rotate(-30) scale(10.75)">
<stop stop-color="#FFF369"/>
<stop offset="0.11" stop-color="#FAEE67"/>
<stop offset="0.23" stop-color="#ECE161"/>
<stop offset="0.36" stop-color="#D6CC58"/>
<stop offset="0.5" stop-color="#B6AE4B"/>
<stop offset="0.64" stop-color="#8E873A"/>
<stop offset="0.78" stop-color="#5C5826"/>
<stop offset="0.92" stop-color="#22210E"/>
<stop offset="1"/>
</radialGradient>
<radialGradient id="paint56_radial_1253_39091" cx="0" cy="0" r="1" gradientUnits="userSpaceOnUse" gradientTransform="translate(66.9962 68.1875) rotate(-30) scale(3.74 3.74)">
<stop/>
<stop offset="0.08" stop-color="#22210E"/>
<stop offset="0.22" stop-color="#5C5826"/>
<stop offset="0.36" stop-color="#8E873A"/>
<stop offset="0.5" stop-color="#B6AE4B"/>
<stop offset="0.64" stop-color="#D6CC58"/>
<stop offset="0.77" stop-color="#ECE161"/>
<stop offset="0.89" stop-color="#FAEE67"/>
<stop offset="1" stop-color="#FFF369"/>
</radialGradient>
<radialGradient id="paint57_radial_1253_39091" cx="0" cy="0" r="1" gradientUnits="userSpaceOnUse" gradientTransform="translate(72.9607 74.778) rotate(-30) scale(7.17)">
<stop stop-color="white"/>
<stop offset="1" stop-color="#E08F48"/>
</radialGradient>
<radialGradient id="paint58_radial_1253_39091" cx="0" cy="0" r="1" gradientUnits="userSpaceOnUse" gradientTransform="translate(87.899 73.532) rotate(-30) scale(9.62 9.62)">
<stop stop-color="white"/>
<stop offset="1" stop-color="#E08F48"/>
</radialGradient>
<linearGradient id="paint59_linear_1253_39091" x1="91.372" y1="72.4271" x2="93.4332" y2="71.2371" gradientUnits="userSpaceOnUse">
<stop stop-color="#E08F48"/>
<stop offset="1" stop-color="white"/>
</linearGradient>
<linearGradient id="paint60_linear_1253_39091" x1="71.4841" y1="72.4213" x2="68.9961" y2="71.352" gradientUnits="userSpaceOnUse">
<stop stop-color="#E08F48"/>
<stop offset="1" stop-color="white"/>
</linearGradient>
<radialGradient id="paint61_radial_1253_39091" cx="0" cy="0" r="1" gradientUnits="userSpaceOnUse" gradientTransform="translate(75.411 70.743) rotate(-30) scale(5.65)">
<stop stop-color="#FFF200"/>
<stop offset="0.07" stop-color="#E1D500"/>
<stop offset="0.21" stop-color="#A69D00"/>
<stop offset="0.36" stop-color="#736D00"/>
<stop offset="0.5" stop-color="#4A4600"/>
<stop offset="0.64" stop-color="#292700"/>
<stop offset="0.77" stop-color="#121100"/>
<stop offset="0.89" stop-color="#040400"/>
<stop offset="1"/>
</radialGradient>
<radialGradient id="paint62_radial_1253_39091" cx="0" cy="0" r="1" gradientUnits="userSpaceOnUse" gradientTransform="translate(67.9242 69.616) rotate(-30) scale(2.19)">
<stop stop-color="#FFF200"/>
<stop offset="0.07" stop-color="#E1D500"/>
<stop offset="0.21" stop-color="#A69D00"/>
<stop offset="0.36" stop-color="#736D00"/>
<stop offset="0.5" stop-color="#4A4600"/>
<stop offset="0.64" stop-color="#292700"/>
<stop offset="0.77" stop-color="#121100"/>
<stop offset="0.89" stop-color="#040400"/>
<stop offset="1"/>
</radialGradient>
<linearGradient id="paint63_linear_1253_39091" x1="45.5732" y1="117.49" x2="51.8381" y2="123.864" gradientUnits="userSpaceOnUse">
<stop stop-color="#FFD08D"/>
<stop offset="0.58" stop-color="#FFDC2A"/>
<stop offset="0.81" stop-color="#F3C237"/>
<stop offset="1" stop-color="#EBB140"/>
</linearGradient>
<linearGradient id="paint64_linear_1253_39091" x1="50.8628" y1="122.837" x2="48.3934" y2="116.704" gradientUnits="userSpaceOnUse">
<stop stop-color="#F0C827"/>
<stop offset="0.08" stop-color="#E9BE25"/>
<stop offset="0.22" stop-color="#E2B424"/>
<stop offset="0.38" stop-color="#EECA46"/>
<stop offset="0.57" stop-color="#FAE168"/>
<stop offset="0.68" stop-color="#FFEA76"/>
<stop offset="0.74" stop-color="#FDE770"/>
<stop offset="0.82" stop-color="#FBE161"/>
<stop offset="0.91" stop-color="#F6D647"/>
<stop offset="1" stop-color="#F0C827"/>
</linearGradient>
<linearGradient id="paint65_linear_1253_39091" x1="50.8628" y1="122.837" x2="48.3934" y2="116.704" gradientUnits="userSpaceOnUse">
<stop stop-color="#FFD08D"/>
<stop offset="0.58" stop-color="#FFAF2A"/>
<stop offset="0.71" stop-color="#F8A631"/>
<stop offset="1" stop-color="#EC9540"/>
</linearGradient>
<linearGradient id="paint66_linear_1253_39091" x1="49.7478" y1="117.658" x2="49.6515" y2="117.418" gradientUnits="userSpaceOnUse">
<stop offset="0.04" stop-color="#F8DA36"/>
<stop offset="0.11" stop-color="#F1CD21"/>
<stop offset="0.19" stop-color="#EBC412"/>
<stop offset="0.28" stop-color="#E8BE09"/>
<stop offset="0.42" stop-color="#E8BD07"/>
<stop offset="0.51" stop-color="#EFCB1B"/>
<stop offset="0.64" stop-color="#F8DB33"/>
<stop offset="0.77" stop-color="#FDE542"/>
<stop offset="0.87" stop-color="#FFE947"/>
<stop offset="1" stop-color="#FFEC63"/>
</linearGradient>
<linearGradient id="paint67_linear_1253_39091" x1="49.3682" y1="118.845" x2="49.1565" y2="118.319" gradientUnits="userSpaceOnUse">
<stop offset="0.04" stop-color="#F8DA36"/>
<stop offset="0.11" stop-color="#F1CD21"/>
<stop offset="0.19" stop-color="#EBC412"/>
<stop offset="0.28" stop-color="#E8BE09"/>
<stop offset="0.42" stop-color="#E8BD07"/>
<stop offset="0.51" stop-color="#EFCB1B"/>
<stop offset="0.64" stop-color="#F8DB33"/>
<stop offset="0.77" stop-color="#FDE542"/>
<stop offset="0.87" stop-color="#FFE947"/>
<stop offset="1" stop-color="#FFEC63"/>
</linearGradient>
<linearGradient id="paint68_linear_1253_39091" x1="50.0323" y1="121.058" x2="49.6749" y2="120.171" gradientUnits="userSpaceOnUse">
<stop offset="0.04" stop-color="#F8DA36"/>
<stop offset="0.11" stop-color="#F1CD21"/>
<stop offset="0.19" stop-color="#EBC412"/>
<stop offset="0.28" stop-color="#E8BE09"/>
<stop offset="0.42" stop-color="#E8BD07"/>
<stop offset="0.51" stop-color="#EFCB1B"/>
<stop offset="0.64" stop-color="#F8DB33"/>
<stop offset="0.77" stop-color="#FDE542"/>
<stop offset="0.87" stop-color="#FFE947"/>
<stop offset="1" stop-color="#FFEC63"/>
</linearGradient>
<linearGradient id="paint69_linear_1253_39091" x1="50.1556" y1="119.34" x2="49.8902" y2="118.681" gradientUnits="userSpaceOnUse">
<stop offset="0.04" stop-color="#F8DA36"/>
<stop offset="0.11" stop-color="#F1CD21"/>
<stop offset="0.19" stop-color="#EBC412"/>
<stop offset="0.28" stop-color="#E8BE09"/>
<stop offset="0.42" stop-color="#E8BD07"/>
<stop offset="0.51" stop-color="#EFCB1B"/>
<stop offset="0.64" stop-color="#F8DB33"/>
<stop offset="0.77" stop-color="#FDE542"/>
<stop offset="0.87" stop-color="#FFE947"/>
<stop offset="1" stop-color="#FFEC63"/>
</linearGradient>
<linearGradient id="paint70_linear_1253_39091" x1="50.0214" y1="122.14" x2="49.8746" y2="121.776" gradientUnits="userSpaceOnUse">
<stop offset="0.04" stop-color="#F8DA36"/>
<stop offset="0.11" stop-color="#F1CD21"/>
<stop offset="0.19" stop-color="#EBC412"/>
<stop offset="0.28" stop-color="#E8BE09"/>
<stop offset="0.42" stop-color="#E8BD07"/>
<stop offset="0.51" stop-color="#EFCB1B"/>
<stop offset="0.64" stop-color="#F8DB33"/>
<stop offset="0.77" stop-color="#FDE542"/>
<stop offset="0.87" stop-color="#FFE947"/>
<stop offset="1" stop-color="#FFEC63"/>
</linearGradient>
<linearGradient id="paint71_linear_1253_39091" x1="48.908" y1="121.841" x2="48.4694" y2="120.752" gradientUnits="userSpaceOnUse">
<stop offset="0.04" stop-color="#F8DA36"/>
<stop offset="0.11" stop-color="#F1CD21"/>
<stop offset="0.19" stop-color="#EBC412"/>
<stop offset="0.28" stop-color="#E8BE09"/>
<stop offset="0.42" stop-color="#E8BD07"/>
<stop offset="0.51" stop-color="#EFCB1B"/>
<stop offset="0.64" stop-color="#F8DB33"/>
<stop offset="0.77" stop-color="#FDE542"/>
<stop offset="0.87" stop-color="#FFE947"/>
<stop offset="1" stop-color="#FFEC63"/>
</linearGradient>
<linearGradient id="paint72_linear_1253_39091" x1="48.5953" y1="119.976" x2="47.7345" y2="117.838" gradientUnits="userSpaceOnUse">
<stop offset="0.04" stop-color="#F8DA36"/>
<stop offset="0.11" stop-color="#F1CD21"/>
<stop offset="0.19" stop-color="#EBC412"/>
<stop offset="0.28" stop-color="#E8BE09"/>
<stop offset="0.42" stop-color="#E8BD07"/>
<stop offset="0.51" stop-color="#EFCB1B"/>
<stop offset="0.64" stop-color="#F8DB33"/>
<stop offset="0.77" stop-color="#FDE542"/>
<stop offset="0.87" stop-color="#FFE947"/>
<stop offset="1" stop-color="#FFEC63"/>
</linearGradient>
<clipPath id="clip0_1253_39091">
<rect width="56" height="38" fill="white" transform="translate(54 80)"/>
</clipPath>
<clipPath id="clip1_1253_39091">
<rect width="34.94" height="41.23" fill="white" transform="translate(55 67.4707) rotate(-30)"/>
</clipPath>
</defs>
</svg>
