<svg width="160" height="160" viewBox="0 0 160 160" fill="none" xmlns="http://www.w3.org/2000/svg">
<circle cx="80" cy="80" r="80" fill="#F3F3F3"/>
<path opacity="0.5" d="M123.644 50.9256C126.751 52.5722 128.764 55.7292 128.948 59.2404L130.093 81.2101L130.889 103.195C131.017 106.709 129.289 110.031 126.34 111.945L107.887 123.922L89.245 135.604C86.2657 137.471 82.5249 137.637 79.3926 136.04L59.7935 126.047L40.3557 115.744C37.2492 114.097 35.2356 110.94 35.0525 107.429L33.9069 85.4593L33.1107 63.4742C32.9835 59.9606 34.7108 56.6383 37.66 54.7242L56.1135 42.7472L74.7551 31.0651C77.7343 29.1981 81.4752 29.0328 84.6075 30.6298L104.207 40.6225L123.644 50.9256Z" fill="url(#paint0_linear_1253_38822)"/>
<path d="M103.999 35.3697C107.515 35.3976 110.757 37.2699 112.54 40.3007L123.69 59.2648L134.538 78.4038C136.272 81.4625 136.272 85.207 134.538 88.2658L123.69 107.405L112.54 126.369C110.757 129.4 107.515 131.272 103.999 131.3L82 131.475L60.0011 131.3C56.4853 131.272 53.2425 129.4 51.4604 126.369L40.3095 107.405L29.4615 88.2658C27.7278 85.207 27.7278 81.4625 29.4615 78.4038L40.3095 59.2648L51.4604 40.3007C53.2425 37.2699 56.4853 35.3976 60.0011 35.3697L82 35.1948L103.999 35.3697Z" fill="url(#paint1_linear_1253_38822)"/>
<g style="mix-blend-mode:multiply">
<path d="M53.309 67.8973C53.306 67.8061 53.2999 67.7149 53.2877 67.6268C53.2756 67.5295 53.2634 67.4322 53.2452 67.335C53.2239 67.2286 53.1996 67.1192 53.1722 67.0128C53.1388 66.8912 53.0993 66.7696 53.0537 66.6511C52.999 66.5021 52.9321 66.3562 52.8561 66.2164C52.7315 65.9823 52.5856 65.7605 52.4123 65.5507C52.3029 65.42 52.1843 65.2924 52.0567 65.1738C51.929 65.0553 51.7922 64.9458 51.6555 64.8455L51.543 64.7422L51.5278 64.7574L51.4184 64.8759L51.2938 65.0127L51.1691 65.1495L51.0445 65.2863L50.9199 65.4231L50.7953 65.5598L50.6676 65.6966L50.543 65.8334L50.4153 65.9702L50.2907 66.107L50.163 66.2438L50.0384 66.3805L49.9138 66.5173L49.7891 66.6541L49.6615 66.7909L49.5369 66.9277L49.4122 67.0644L49.2846 67.2012L49.16 67.338L49.0323 67.4748L48.9076 67.6116L48.783 67.7483L48.6584 67.8851L48.5307 68.0219L48.4061 68.1587L48.2785 68.2955L48.1538 68.4323L48.0292 68.569L47.9046 68.7058L47.7769 68.8426L47.6523 68.9794L47.5277 69.1162L47.4 69.253L47.2754 69.3897L47.1508 69.5265L47.0231 69.6633L46.8985 69.8001L46.7739 69.9369L46.6492 70.0736L46.5246 70.2104L46.4 70.3472L46.2906 70.4658L46.2754 70.484L46.3878 70.5873C46.4973 70.718 46.6158 70.8457 46.7434 70.9643C46.8711 71.0828 47.0049 71.1922 47.1447 71.2925C47.3666 71.4506 47.6006 71.5813 47.8407 71.6877C47.9866 71.7515 48.1387 71.8062 48.2906 71.8518C48.4122 71.8883 48.5368 71.9187 48.6615 71.943C48.7678 71.9643 48.8773 71.9795 48.9867 71.9916C49.0839 72.0038 49.1843 72.0099 49.2815 72.0129C49.3727 72.016 49.4639 72.0129 49.552 72.0129C49.6371 72.0099 49.7223 72.0038 49.8074 71.9947C49.8864 71.9856 49.9654 71.9764 50.0445 71.9643C50.1204 71.9521 50.1965 71.9369 50.2694 71.9217C50.3424 71.9065 50.4123 71.8883 50.4822 71.867C50.5521 71.8488 50.619 71.8275 50.6858 71.8032C50.7497 71.7819 50.8165 71.7576 50.8803 71.7302C50.9411 71.7059 51.005 71.6786 51.0658 71.6482C51.1266 71.6208 51.1843 71.5904 51.2421 71.56C51.2998 71.5296 51.3545 71.4992 51.4123 71.4658C51.467 71.4324 51.5217 71.3989 51.5734 71.3624C51.6251 71.329 51.6767 71.2925 51.7284 71.253C51.7801 71.2165 51.8287 71.177 51.8773 71.1375C51.926 71.098 51.9716 71.0585 52.0202 71.0159C52.0658 70.9764 52.1114 70.9339 52.157 70.8883C52.1996 70.8457 52.2451 70.8001 52.2877 70.7545C52.3302 70.7089 52.3698 70.6633 52.4093 70.6147C52.4488 70.5661 52.4883 70.5205 52.5248 70.4688C52.5643 70.4202 52.6008 70.3685 52.6342 70.3199C52.6707 70.2682 52.7041 70.2165 52.7376 70.1618C52.771 70.1071 52.8044 70.0524 52.8348 69.9977C52.8652 69.9429 52.8956 69.8852 52.923 69.8274C52.9534 69.7697 52.9807 69.7089 53.0051 69.6511C53.0324 69.5904 53.0567 69.5296 53.0811 69.4688C53.1054 69.4049 53.1266 69.3411 53.1479 69.2773C53.1692 69.2104 53.1874 69.1435 53.2056 69.0767C53.2239 69.0067 53.2391 68.9368 53.2543 68.87C53.2695 68.797 53.2816 68.7241 53.2908 68.6511C53.3029 68.5751 53.312 68.4991 53.3181 68.4231C53.3242 68.3441 53.3303 68.262 53.3333 68.183C53.3333 68.0979 53.3333 68.0128 53.3333 67.9277L53.309 67.8973Z" fill="#D16A0D"/>
</g>
<path d="M47.7374 64.3088C49.7344 63.4668 52.0384 64.4061 52.8774 66.4031C53.7193 68.4001 52.7801 70.7041 50.7831 71.5431C48.7861 72.385 46.482 71.4458 45.6431 69.4488C44.8011 67.4518 45.7404 65.1477 47.7374 64.3088Z" fill="url(#paint2_linear_1253_38822)"/>
<g style="mix-blend-mode:screen" opacity="0.5">
<path d="M46.3999 65.2733C47.8711 63.6866 50.3514 63.5924 51.9381 65.0575C51.9381 65.0575 51.932 65.0514 51.929 65.0483C50.3392 63.5741 47.8559 63.6653 46.3817 65.255C44.9075 66.8447 44.9986 69.3281 46.5883 70.8023L46.5975 70.8114C45.0169 69.3342 44.9287 66.8569 46.3999 65.2733Z" fill="#FEF0A0"/>
</g>
<path d="M51.5065 65.5026C52.844 66.7458 52.923 68.837 51.6798 70.1744C50.4366 71.5119 48.3453 71.5909 47.0079 70.3477C45.6705 69.1045 45.5915 67.0132 46.8347 65.6758C48.0779 64.3384 50.1691 64.2594 51.5065 65.5026Z" fill="url(#paint3_linear_1253_38822)"/>
<path d="M50.3392 67.266C50.1781 67.2082 50.0322 67.1839 49.9046 67.1991C49.7739 67.2113 49.5611 67.2599 49.2602 67.348C48.9045 67.4483 48.6827 67.5 48.5915 67.5031C48.4972 67.5061 48.3908 67.4514 48.2693 67.3389C48.1963 67.2721 48.1538 67.2082 48.1386 67.1505C48.1234 67.0927 48.1385 67.041 48.1811 66.9924C48.2358 66.9347 48.2936 66.9134 48.3513 66.9347C48.4091 66.9559 48.5063 67.0289 48.6431 67.1565L48.6948 67.2052L48.6583 67.2447L48.7708 67.2751L49.4881 66.503C49.4274 66.4362 49.3818 66.3906 49.3483 66.3602C49.1204 66.1474 48.8863 66.041 48.6462 66.041C48.406 66.041 48.1599 66.1444 47.9106 66.3541L47.6644 66.1261L47.5519 66.0957L47.6279 66.1656L47.3331 66.4818L47.5793 66.7097C47.3665 66.9985 47.2662 67.2721 47.2753 67.5243C47.2844 67.7766 47.406 68.0107 47.637 68.2234C47.7951 68.3724 47.9683 68.4727 48.1507 68.5274C48.3331 68.5821 48.5003 68.6004 48.6492 68.5791C48.7982 68.5578 49.0535 68.5 49.4213 68.3997C49.6401 68.3389 49.7982 68.3329 49.8954 68.3785C49.9927 68.4241 50.1265 68.5274 50.2997 68.6885C50.3696 68.7523 50.4092 68.8131 50.4213 68.8709C50.4335 68.9286 50.4152 68.9834 50.3666 69.035C50.3088 69.0958 50.2481 69.111 50.1842 69.0806C50.1204 69.0502 49.9836 68.9378 49.7739 68.7463L49.6827 68.6612L49.5854 68.57L49.4729 68.5396L49.5489 68.6095L48.8681 69.342L49.02 69.4818C49.3635 69.801 49.6766 69.9469 49.9593 69.9226C50.242 69.8952 50.4882 69.7888 50.7009 69.6034L50.9259 69.8101L50.8894 69.8496L51.0019 69.88L51.3332 69.5244L51.0414 69.2539C51.2511 68.953 51.3393 68.6642 51.3058 68.3876C51.2724 68.111 51.1174 67.8435 50.8408 67.5882C50.6675 67.4271 50.5003 67.3207 50.3423 67.2629L50.3392 67.266Z" fill="#D16A0D"/>
<path d="M49.3757 66.4729L48.6584 67.2449L48.5307 67.1264C48.3939 66.9987 48.2967 66.9258 48.2389 66.9045C48.1812 66.8832 48.1234 66.9045 48.0687 66.9623C48.0261 67.0078 48.011 67.0626 48.0231 67.1173C48.0383 67.175 48.0808 67.2358 48.1538 67.3057C48.2754 67.4182 48.3818 67.4729 48.476 67.4699C48.5672 67.4699 48.7921 67.4152 49.1447 67.3148C49.4456 67.2297 49.6614 67.1781 49.7891 67.1659C49.9198 67.1537 50.0627 67.175 50.2238 67.2328C50.3849 67.2905 50.5521 67.4 50.7223 67.558C50.9989 67.8133 51.1539 68.0808 51.1873 68.3574C51.2208 68.6371 51.1326 68.9258 50.9229 69.2237L51.2147 69.4942L50.8834 69.8499L50.5824 69.5702C50.3697 69.7587 50.1235 69.8651 49.8408 69.8894C49.5581 69.9137 49.245 69.7678 48.9016 69.4486L48.7496 69.3088L49.4669 68.5368L49.6554 68.7131C49.8621 68.9046 49.9988 69.017 50.0657 69.0474C50.1296 69.0778 50.1903 69.0626 50.2481 69.0018C50.2967 68.9502 50.315 68.8954 50.3028 68.8377C50.2907 68.7799 50.2511 68.7191 50.1812 68.6553C50.008 68.4942 49.8712 68.3909 49.7739 68.3453C49.6767 68.2997 49.5186 68.3088 49.2997 68.3665C48.9319 68.4669 48.6766 68.5246 48.5277 68.5459C48.3787 68.5672 48.2146 68.5459 48.0292 68.4942C47.8468 68.4395 47.6735 68.3362 47.5155 68.1903C47.2845 67.9775 47.1629 67.7434 47.1538 67.4911C47.1447 67.2389 47.245 66.9683 47.4578 66.6765L47.2115 66.4486L47.5428 66.0929L47.7891 66.3209C48.0413 66.1112 48.2875 66.0078 48.5277 66.0078C48.7678 66.0078 49.0019 66.1172 49.2298 66.327C49.2602 66.3574 49.3088 66.403 49.3696 66.4698L49.3757 66.4729Z" fill="white"/>
<g style="mix-blend-mode:screen" opacity="0.7">
<path style="mix-blend-mode:screen" d="M47.8012 66.3196H47.8042C48.023 66.1402 48.2359 66.0369 48.4456 66.0156C48.2359 66.0369 48.02 66.1372 47.7981 66.3196H47.8012Z" fill="url(#paint4_linear_1253_38822)"/>
<path style="mix-blend-mode:screen" d="M48.1811 66.8996C48.1994 66.8996 48.2176 66.8996 48.2359 66.9087C48.2936 66.93 48.3909 67.003 48.5276 67.1306L48.6553 67.2492V67.2431L48.5368 67.1276C48.4 66.9999 48.3027 66.927 48.245 66.9057C48.2237 66.8996 48.2024 66.8966 48.1842 66.8996H48.1811Z" fill="url(#paint5_linear_1253_38822)"/>
<path style="mix-blend-mode:screen" d="M50.321 68.8423C50.3088 68.7846 50.2693 68.7238 50.1994 68.66C50.0262 68.4989 49.8894 68.3955 49.7952 68.3499C49.7374 68.3226 49.6553 68.3134 49.552 68.3256C49.6523 68.3165 49.7283 68.3256 49.786 68.3499C49.8833 68.3955 50.0201 68.4989 50.1934 68.66C50.2633 68.7238 50.3028 68.7846 50.3149 68.8423C50.3271 68.9001 50.3089 68.9548 50.2602 69.0065C50.2268 69.0399 50.1933 69.0612 50.1599 69.0673C50.1994 69.0673 50.2359 69.0429 50.2694 69.0065C50.318 68.9548 50.3362 68.9001 50.324 68.8423H50.321Z" fill="url(#paint6_linear_1253_38822)"/>
<path style="mix-blend-mode:screen" d="M49.7921 67.166C49.6614 67.1782 49.4487 67.2268 49.1477 67.315C48.8347 67.4031 48.6219 67.4548 48.5155 67.4669C48.6219 67.4578 48.8347 67.4062 49.1569 67.315C49.4517 67.2299 49.6645 67.1812 49.7952 67.166H49.7921Z" fill="url(#paint7_linear_1253_38822)"/>
<path style="mix-blend-mode:screen" d="M50.5946 69.5762H50.5885L50.8864 69.8558V69.8497L50.5946 69.5762Z" fill="url(#paint8_linear_1253_38822)"/>
<path style="mix-blend-mode:screen" d="M49.8559 69.8965C49.5732 69.9208 49.2602 69.7749 48.9167 69.4557L48.7647 69.3159L49.476 68.5469H49.4729L48.7556 69.3159L48.9076 69.4557C49.251 69.7749 49.5641 69.9208 49.8468 69.8965C49.856 69.8965 49.8651 69.8965 49.8742 69.8965C49.8681 69.8965 49.862 69.8965 49.8559 69.8965Z" fill="url(#paint9_linear_1253_38822)"/>
<path style="mix-blend-mode:screen" d="M48.5155 68.5534C48.3757 68.5686 48.2207 68.5474 48.0505 68.4987C47.8681 68.444 47.6948 68.3407 47.5367 68.1948C47.3057 67.982 47.1842 67.7479 47.175 67.4957C47.1659 67.2434 47.2662 66.9728 47.479 66.681L47.2328 66.4531L47.558 66.1035H47.555L47.2237 66.4561L47.4699 66.6841C47.2571 66.9728 47.1568 67.2464 47.1659 67.4987C47.175 67.751 47.2966 67.985 47.5276 68.1978C47.6857 68.3467 47.8589 68.4471 48.0413 68.5018C48.2146 68.5534 48.3727 68.5717 48.5155 68.5565V68.5534Z" fill="url(#paint10_linear_1253_38822)"/>
</g>
<path d="M88.1367 56.2313C89.418 56.3306 90.4212 57.3338 90.5206 58.6151L90.6298 60.0852H90.7886L90.898 58.6151C90.9973 57.3338 92.0004 56.3306 93.2817 56.2313L94.7517 56.1221V55.9631L93.2817 55.8539C92.0004 55.7545 90.9973 54.7513 90.898 53.47L90.7886 52H90.6298L90.5206 53.47C90.4212 54.7513 89.418 55.7545 88.1367 55.8539L86.6667 55.9631V56.1221L88.1367 56.2313Z" fill="white"/>
<path d="M54.0286 104.702C54.6246 104.752 55.0914 105.219 55.141 105.815L55.1908 106.51H55.3199L55.3696 105.815C55.4193 105.219 55.8861 104.752 56.482 104.702L57.1773 104.653V104.523L56.482 104.474C55.8861 104.424 55.4193 103.957 55.3696 103.361L55.3199 102.666H55.1908L55.141 103.361C55.0914 103.957 54.6246 104.424 54.0286 104.474L53.3334 104.523V104.653L54.0286 104.702Z" fill="white"/>
<path d="M39.8863 103.523C40.9161 103.604 41.729 104.417 41.8103 105.447L41.8917 106.667H42.1084L42.1897 105.447C42.271 104.417 43.0839 103.604 44.1137 103.523L45.3333 103.442V103.225L44.1137 103.144C43.0839 103.062 42.271 102.249 42.1897 101.22L42.1084 100H41.8917L41.8103 101.22C41.729 102.249 40.9161 103.062 39.8863 103.144L38.6667 103.225V103.442L39.8863 103.523Z" fill="white"/>
<path d="M96.5913 40.5421C99.4419 40.3236 101.657 38.0986 101.876 35.2579L102.124 32H102.481L102.73 35.2579C102.948 38.1086 105.173 40.3236 108.014 40.5421L111.272 40.7904V41.148L108.014 41.3963C105.163 41.6148 102.948 43.8397 102.73 46.6804L102.481 49.9383H102.124L101.876 46.6804C101.657 43.8298 99.432 41.6148 96.5913 41.3963L93.3333 41.148V40.7904L96.5913 40.5421Z" fill="white"/>
<g clip-path="url(#clip0_1253_38822)">
<path d="M62.6564 81.4758L63.3767 81.0576C63.9344 80.7323 64.7244 80.7788 65.5609 81.2667L64.8406 81.6849C63.9808 81.197 63.2141 81.1505 62.6564 81.4758Z" fill="#A3F6FF"/>
<path d="M62.6564 81.4758L63.3767 81.0576C63.9344 80.7323 64.7244 80.7788 65.5609 81.2667L64.8406 81.6849C63.9808 81.197 63.2141 81.1505 62.6564 81.4758Z" fill="#A3F6FF"/>
<path d="M67.9076 86.727L68.6047 86.332L69.0927 94.4412L68.3724 94.8362L67.9076 86.727Z" fill="#A3F6FF"/>
<path d="M64.8405 81.6858L65.5608 81.2676C67.1641 82.197 68.5118 84.4044 68.6279 86.3097L67.9076 86.7279C67.7915 84.8226 66.4438 82.6152 64.8405 81.6858Z" fill="#A3F6FF"/>
<path d="M64.8405 81.6858L65.5608 81.2676C67.1641 82.197 68.5118 84.4044 68.6279 86.3097L67.9076 86.7279C67.7915 84.8226 66.4438 82.6152 64.8405 81.6858Z" fill="#A3F6FF"/>
<path d="M64.8406 81.6844C66.4438 82.6138 67.7915 84.8212 67.9076 86.7265L68.3956 94.8357L61.239 90.6998L61.7735 83.1715C61.8896 81.4056 63.2373 80.755 64.8406 81.6844Z" fill="#0D8C99"/>
<path d="M64.2829 76.8748C62.4473 75.8292 60.7976 75.713 59.6125 76.4101L58.1952 77.2465C59.3802 76.5495 61.0531 76.6424 62.8655 77.7113C66.4903 79.8025 69.4179 84.891 69.4179 89.0502C69.4179 91.1182 68.6744 92.582 67.4894 93.2558L68.9068 92.4194C70.0918 91.7223 70.8121 90.2817 70.8353 88.2137C70.8353 84.0546 67.9076 78.966 64.2829 76.8748Z" fill="#A3F6FF"/>
<path d="M62.8655 77.7108C66.4903 79.802 69.4179 84.8906 69.4179 89.0498C69.3947 93.2089 66.4438 94.9051 62.819 92.8139C59.1943 90.7227 56.2666 85.6342 56.2666 81.475C56.2666 77.2926 59.2175 75.6196 62.8655 77.7108Z" fill="#0CDEF4"/>
<path d="M46.043 94.3483C46.2754 94.4877 46.4612 94.813 46.4612 95.0686C46.4612 95.3474 46.2754 95.4404 46.043 95.3009C45.8106 95.1615 45.6248 94.8362 45.6248 94.5806C45.6248 94.325 45.8106 94.2321 46.043 94.3483Z" fill="#0D8C99"/>
<path d="M62.0755 85.1474C61.9593 85.0777 61.8432 85.0777 61.7735 85.1242L45.7177 94.3487C45.7874 94.3022 45.9036 94.3022 46.0198 94.3719C46.2521 94.5113 46.438 94.8366 46.438 95.0922C46.438 95.2316 46.3915 95.3246 46.3218 95.3711L62.3776 86.1465C62.4473 86.1001 62.4938 86.0071 62.4938 85.8677C62.4938 85.5889 62.3079 85.2636 62.0755 85.1474Z" fill="#0D8C99"/>
<path d="M57.7769 92.606C57.7769 91.3978 56.8011 90.4219 55.5928 90.4219C54.3846 90.4219 53.4087 91.3978 53.4087 92.606C53.4087 93.8143 54.3846 94.7902 55.5928 94.7902C56.8011 94.7902 57.7769 93.8143 57.7769 92.606Z" fill="#FF3262"/>
<path d="M66.6064 91.7681C66.6064 90.5599 65.6305 89.584 64.4223 89.584C63.2141 89.584 62.2382 90.5599 62.2382 91.7681C62.2382 92.9764 63.2141 93.9523 64.4223 93.9523C65.6305 93.9523 66.6064 92.9764 66.6064 91.7681Z" fill="#FF3262"/>
<path d="M61.7037 89.7238C62.91 89.7238 63.8879 88.7459 63.8879 87.5396C63.8879 86.3333 62.91 85.3555 61.7037 85.3555C60.4975 85.3555 59.5196 86.3333 59.5196 87.5396C59.5196 88.7459 60.4975 89.7238 61.7037 89.7238Z" fill="#FF3262"/>
<path d="M57.3355 85.7505C57.3355 84.5423 56.3596 83.5664 55.1513 83.5664C53.9431 83.5664 52.9672 84.5423 52.9672 85.7505C52.9672 86.9588 53.9431 87.9347 55.1513 87.9347C56.3596 87.9347 57.3355 86.9588 57.3355 85.7505Z" fill="#FF3262"/>
<path d="M54.5704 89.6783C54.5704 88.47 53.5945 87.4941 52.3863 87.4941C51.178 87.4941 50.2021 88.47 50.2021 89.6783C50.2021 90.8865 51.178 91.8624 52.3863 91.8624C53.5945 91.8624 54.5704 90.8865 54.5704 89.6783Z" fill="#FF3262"/>
<path d="M60.2632 92.6046C61.4694 92.6046 62.4473 91.6267 62.4473 90.4205C62.4473 89.2142 61.4694 88.2363 60.2632 88.2363C59.0569 88.2363 58.079 89.2142 58.079 90.4205C58.079 91.6267 59.0569 92.6046 60.2632 92.6046Z" fill="#B8E6F6"/>
<path d="M57.7769 89.0494C57.7769 87.8411 56.8011 86.8652 55.5928 86.8652C54.3846 86.8652 53.4087 87.8411 53.4087 89.0494C53.4087 90.2576 54.3846 91.2335 55.5928 91.2335C56.8011 91.2335 57.7769 90.2576 57.7769 89.0494Z" fill="#B8E6F6"/>
<path d="M64.7476 91.1183C65.9539 91.1183 66.9317 90.1404 66.9317 88.9341C66.9317 87.7279 65.9539 86.75 64.7476 86.75C63.5413 86.75 62.5635 87.7279 62.5635 88.9341C62.5635 90.1404 63.5413 91.1183 64.7476 91.1183Z" fill="#B8E6F6"/>
<path d="M59.1711 96.2291C59.1711 95.0208 58.1952 94.0449 56.9869 94.0449C55.7787 94.0449 54.8028 95.0208 54.8028 96.2291C54.8028 97.4373 55.7787 98.4132 56.9869 98.4132C58.172 98.4132 59.1711 97.4373 59.1711 96.2291Z" fill="#B8E6F6"/>
<path d="M60.054 96.6476C61.2603 96.6476 62.2382 95.6697 62.2382 94.4634C62.2382 93.2572 61.2603 92.2793 60.054 92.2793C58.8477 92.2793 57.8699 93.2572 57.8699 94.4634C57.8699 95.6697 58.8477 96.6476 60.054 96.6476Z" fill="#FDD303"/>
<path d="M60.7511 86.6568C60.7511 85.4486 59.7752 84.4727 58.5669 84.4727C57.3587 84.4727 56.3828 85.4486 56.3828 86.6568C56.3828 87.865 57.3587 88.8409 58.5669 88.8409C59.752 88.8409 60.7511 87.865 60.7511 86.6568Z" fill="#FDD303"/>
<g opacity="0.5">
<path d="M54.646 100.716C57.209 99.2264 57.2013 94.4303 54.6289 90.0034C52.0565 85.5764 47.8935 83.195 45.3305 84.6843C42.7675 86.1736 42.7752 90.9696 45.3476 95.3966C47.92 99.8235 52.083 102.205 54.646 100.716Z" fill="#B8E6F6"/>
<path d="M62.8423 77.6873C61.0067 76.6417 59.357 76.5255 58.1719 77.2226L45.3459 84.6812C46.5309 83.9841 48.2039 84.0771 50.0163 85.1459C53.641 87.2371 56.5687 92.3257 56.5687 96.4848C56.5687 98.5528 55.8251 100.017 54.6401 100.69L67.4662 93.2319C68.6512 92.5348 69.3715 91.0942 69.3947 89.0262C69.4179 84.8671 66.467 79.8017 62.8423 77.6873Z" fill="#B8E6F6"/>
</g>
<path d="M50.0163 85.1463C48.1807 84.1007 46.5309 83.9845 45.3459 84.6816L43.9286 85.518C45.1136 84.821 46.7865 84.9139 48.5989 85.9827C52.2236 88.0739 55.1513 93.1625 55.1513 97.3217C55.1513 99.3897 54.4078 100.853 53.2228 101.527L54.6401 100.691C55.8252 99.9938 56.5455 98.5532 56.5687 96.4852C56.5919 92.326 53.641 87.2375 50.0163 85.1463Z" fill="#A3F6FF"/>
<path d="M48.5989 85.9823C52.2236 88.0735 55.1513 93.1621 55.1513 97.3213C55.1281 101.48 52.1772 103.177 48.5524 101.085C44.9277 98.9942 42 93.9056 42 89.7465C42.0232 85.5641 44.9742 83.8911 48.5989 85.9823Z" fill="#0CDEF4"/>
<path d="M44.463 91.9778L45.1833 91.5595C45.7409 91.2342 46.5309 91.2807 47.3674 91.7687L46.6471 92.1869C45.8106 91.6989 45.0438 91.6525 44.463 91.9778Z" fill="#A3F6FF"/>
<path d="M44.463 91.9778L45.1833 91.5595C45.7409 91.2342 46.5309 91.2807 47.3674 91.7687L46.6471 92.1869C45.8106 91.6989 45.0438 91.6525 44.463 91.9778Z" fill="#A3F6FF"/>
<path d="M49.7142 97.229L50.4345 96.834L50.9224 104.943L50.2021 105.338L49.7142 97.229Z" fill="#A3F6FF"/>
<path d="M46.6703 92.1878L47.3906 91.7695C48.9939 92.699 50.3415 94.9063 50.4577 96.8116L49.7374 97.2299C49.6212 95.3246 48.2736 93.1172 46.6703 92.1878Z" fill="#A3F6FF"/>
<path d="M46.6703 92.1878L47.3906 91.7695C48.9939 92.699 50.3415 94.9063 50.4577 96.8116L49.7374 97.2299C49.6212 95.3246 48.2736 93.1172 46.6703 92.1878Z" fill="#A3F6FF"/>
<path d="M46.6703 92.1877C48.2736 93.1171 49.6212 95.3245 49.7374 97.2298L50.2254 105.339L43.0688 101.226L43.6032 93.698C43.7194 91.9088 45.0438 91.2582 46.6703 92.1877Z" fill="#0D8C99"/>
<path d="M45.4389 93.6739L45.9036 93.4183C46.1127 93.3021 46.3915 93.3254 46.6936 93.488L46.2289 93.7436C45.9268 93.581 45.648 93.5577 45.4389 93.6739Z" fill="#A3F6FF"/>
<path d="M45.4389 93.6739L45.9036 93.4183C46.1127 93.3021 46.3915 93.3254 46.6936 93.488L46.2289 93.7436C45.9268 93.581 45.648 93.5577 45.4389 93.6739Z" fill="#A3F6FF"/>
<path d="M47.4603 96.1137L46.9956 96.3693C47.2048 96.2531 47.3209 95.9975 47.3209 95.649C47.3209 94.9519 46.833 94.0922 46.2056 93.7204L46.6703 93.4648C47.2745 93.8134 47.7856 94.6731 47.7856 95.3934C47.7856 95.7652 47.6695 95.9975 47.4603 96.1137Z" fill="#A3F6FF"/>
<path d="M46.2289 93.7439L46.6936 93.4883C47.2977 93.8368 47.8089 94.6965 47.8089 95.4168C47.8089 95.7654 47.6927 96.021 47.4836 96.1371L47.0189 96.3927C47.228 96.2765 47.3442 96.021 47.3442 95.6724C47.3442 94.9754 46.8562 94.1156 46.2289 93.7439Z" fill="#A3F6FF"/>
<path d="M46.2289 93.7438C46.833 94.0923 47.3442 94.952 47.3442 95.6723C47.3442 96.3694 46.833 96.6715 46.2289 96.2997C45.6247 95.9512 45.1136 95.0915 45.1136 94.3712C45.1136 93.6741 45.6247 93.3953 46.2289 93.7438Z" fill="#0CDEF4"/>
<path d="M65.1194 102.27L72.973 113.307C74.0418 113.052 75.2501 113.354 75.6683 113.958L82.9411 112.238C82.4996 111.634 83.0108 110.937 84.0796 110.682L76.226 99.6447C75.1571 99.9003 73.9489 99.5983 73.5307 98.9941L66.2579 100.714C66.6762 101.318 66.165 102.015 65.1194 102.27Z" fill="#0CDEF4"/>
<path d="M75.9704 113.424C75.3663 113.006 74.4136 112.773 73.4842 112.82H73.4377L66.0256 102.433L66.1185 102.387C66.8388 102.038 67.2338 101.527 67.1409 100.993L67.1176 100.923L73.1821 99.4824L73.2054 99.5057C73.8095 99.9239 74.7621 100.156 75.6916 100.11H75.738L83.1502 110.519L83.0572 110.566C82.3369 110.914 81.9419 111.425 82.0349 111.96L82.0581 112.03L75.9936 113.47L75.9704 113.424ZM82.9411 110.45L75.6916 100.272C74.7389 100.319 73.7862 100.087 73.1589 99.6683L67.3035 101.062C67.3732 101.62 66.9782 102.155 66.2812 102.503L73.5307 112.68C74.4833 112.634 75.436 112.866 76.0633 113.284L81.9187 111.89C81.849 111.333 82.2208 110.798 82.9411 110.45Z" fill="#F7F7F7"/>
<path d="M82.9411 112.238L82.0349 112.447C82.1511 112.61 82.4299 112.68 82.6855 112.633C82.9411 112.564 83.0572 112.401 82.9411 112.238Z" fill="#0CDEF4"/>
<path d="M76.5745 113.748L75.6683 113.957C75.7845 114.12 76.0633 114.19 76.3189 114.143C76.5745 114.073 76.6907 113.911 76.5745 113.748Z" fill="#0CDEF4"/>
<path d="M77.8525 113.447L76.9463 113.656C77.0625 113.819 77.3413 113.889 77.5969 113.842C77.8525 113.773 77.9687 113.61 77.8525 113.447Z" fill="#0CDEF4"/>
<path d="M79.1304 113.145L78.2242 113.354C78.3404 113.516 78.6193 113.586 78.8748 113.54C79.1304 113.47 79.2466 113.307 79.1304 113.145Z" fill="#0CDEF4"/>
<path d="M80.4084 112.842L79.5022 113.051C79.6184 113.214 79.8972 113.283 80.1528 113.237C80.4084 113.167 80.5246 113.004 80.4084 112.842Z" fill="#0CDEF4"/>
<path d="M81.6863 112.541L80.7802 112.75C80.8963 112.913 81.1752 112.982 81.4307 112.936C81.6863 112.866 81.7793 112.704 81.6863 112.541Z" fill="#0CDEF4"/>
<path d="M66.2347 100.714L67.1409 100.505C67.0247 100.342 66.7459 100.272 66.4903 100.319C66.2347 100.365 66.1185 100.551 66.2347 100.714Z" fill="#0CDEF4"/>
<path d="M72.6012 99.2041L73.5074 98.9949C73.3912 98.8323 73.1124 98.7626 72.8568 98.8091C72.6012 98.8555 72.4851 99.0414 72.6012 99.2041Z" fill="#0CDEF4"/>
<path d="M71.3233 99.5068L72.2295 99.2977C72.1133 99.135 71.8345 99.0653 71.5789 99.1118C71.3233 99.1583 71.2071 99.3441 71.3233 99.5068Z" fill="#0CDEF4"/>
<path d="M70.0453 99.8076L70.9515 99.5985C70.8353 99.4358 70.5565 99.3661 70.3009 99.4126C70.0686 99.459 69.9524 99.6449 70.0453 99.8076Z" fill="#0CDEF4"/>
<path d="M68.7906 100.11L69.6968 99.9012C69.5806 99.7385 69.3018 99.6688 69.0462 99.7153C68.7906 99.7618 68.6744 99.9477 68.7906 100.11Z" fill="#0CDEF4"/>
<path d="M67.5126 100.413L68.4188 100.204C68.3027 100.041 68.0238 99.9716 67.7682 100.018C67.5126 100.065 67.3965 100.25 67.5126 100.413Z" fill="#0CDEF4"/>
<path d="M76.334 101.025L66.7707 103.295L66.8029 103.431L76.3661 101.161L76.334 101.025Z" fill="#F7F7F7"/>
<path d="M82.3752 109.506L72.812 111.775L72.8441 111.911L82.4074 109.642L82.3752 109.506Z" fill="#F7F7F7"/>
<path d="M78.4566 105.546L77.8757 105.57L77.6433 105.268L77.5039 105.593L76.923 105.616L77.411 105.802L77.2716 106.127L77.7363 105.918L78.2242 106.081L78.0151 105.779L78.4566 105.546Z" fill="#FAF4F2"/>
<path d="M72.3921 106.989L71.6253 107.035L71.3465 106.617L71.1606 107.035L70.3938 107.082L71.0444 107.314L70.8585 107.732L71.4394 107.454L72.09 107.686L71.8112 107.268L72.3921 106.989Z" fill="#FAF4F2"/>
<path d="M71.2071 105.315L70.4403 105.362L70.1615 104.943L69.9756 105.385L69.2088 105.408L69.8594 105.64L69.6736 106.082L70.2544 105.78L70.905 106.012L70.6262 105.617L71.2071 105.315Z" fill="#FAF4F2"/>
<path d="M73.5771 108.661L72.8103 108.684L72.5315 108.289L72.3456 108.707L71.5789 108.754L72.2295 108.986L72.0668 109.404L72.6477 109.126L73.2983 109.358L72.9962 108.94L73.5771 108.661Z" fill="#FAF4F2"/>
<path d="M73.8095 103.736L73.3215 103.852L73.0195 103.41L70.998 103.875L70.7656 103.55L72.7871 103.085L72.4851 102.644L72.973 102.527L73.8095 103.736Z" fill="#F7F7F7"/>
<path d="M73.9489 103.945L74.1812 104.271L71.695 104.851L71.4627 104.526L73.9489 103.945Z" fill="#F7F7F7"/>
<path d="M72.3456 105.85C72.183 105.618 72.1598 105.408 72.2992 105.246C72.4386 105.06 72.7174 104.944 73.1357 104.828C73.3448 104.781 73.5307 104.758 73.7165 104.758C73.9024 104.758 74.0883 104.781 74.2277 104.804C74.3904 104.851 74.5298 104.897 74.646 104.967C74.7621 105.037 74.8551 105.13 74.948 105.246C74.9945 105.315 75.0177 105.362 75.041 105.408C75.0642 105.455 75.0642 105.501 75.0874 105.548C75.0874 105.594 75.0874 105.618 75.0874 105.664C75.0874 105.687 75.0874 105.71 75.0642 105.734L74.553 105.757C74.553 105.71 74.553 105.641 74.553 105.571C74.5298 105.501 74.5065 105.432 74.4601 105.362C74.4136 105.315 74.3671 105.269 74.3207 105.223C74.251 105.176 74.1813 105.153 74.0883 105.13C73.9954 105.106 73.9024 105.106 73.7862 105.106C73.6701 105.106 73.5307 105.13 73.3912 105.153C73.2751 105.176 73.1821 105.223 73.0892 105.246C72.9962 105.292 72.9265 105.339 72.8801 105.385C72.8336 105.432 72.8104 105.501 72.8104 105.548C72.8104 105.618 72.8336 105.687 72.8801 105.757C72.9033 105.803 72.9498 105.85 72.973 105.873C73.0195 105.92 73.0427 105.943 73.0659 105.966C73.0892 105.989 73.1357 106.013 73.1589 106.036C73.1821 106.059 73.2286 106.059 73.2518 106.082L72.8568 106.268C72.7871 106.245 72.6942 106.175 72.6012 106.105C72.5083 106.059 72.4154 105.966 72.3456 105.85Z" fill="#F7F7F7"/>
<path d="M73.4609 107.384C73.5306 107.338 73.5771 107.291 73.6468 107.222C73.7165 107.152 73.7862 107.105 73.8327 107.036C73.9024 106.966 73.9489 106.896 74.0186 106.827C74.0651 106.757 74.1115 106.687 74.1348 106.617L73.0892 106.873L72.8568 106.548L75.343 105.967L75.5754 106.292L74.6459 106.501C74.8551 106.548 75.0642 106.594 75.2965 106.641C75.5289 106.687 75.738 106.734 75.9239 106.78L76.2027 107.175C75.9239 107.129 75.6683 107.082 75.4127 107.012C75.1571 106.966 74.9015 106.896 74.6227 106.827C74.5298 106.989 74.4136 107.129 74.2742 107.291C74.1115 107.454 73.9489 107.617 73.7398 107.779L73.4609 107.384Z" fill="#F7F7F7"/>
<path d="M73.8792 107.964L76.3654 107.383L77.0392 108.359L76.5745 108.475L76.1098 107.824L75.6218 107.94L76.0169 108.521L75.5521 108.638L75.1571 108.057L74.553 108.196L75.041 108.893L74.5762 109.009L73.8792 107.964Z" fill="#F7F7F7"/>
<path d="M77.9919 109.706L77.5039 109.822L77.2019 109.381L75.1804 109.846L74.948 109.52L76.9695 109.056L76.6675 108.614L77.1554 108.498L77.9919 109.706Z" fill="#F7F7F7"/>
<path d="M67.1409 102.061L81.7793 110.495C82.5925 110.031 83.8937 110.031 84.707 110.495L90.2603 107.289C89.447 106.824 89.447 106.057 90.2603 105.593L75.6219 97.1582C74.8086 97.6229 73.5074 97.6229 72.6942 97.1582L67.1409 100.365C67.9541 100.829 67.9541 101.596 67.1409 102.061Z" fill="#FF3262"/>
<path d="M76.9463 101.527L76.5745 101.736L75.9936 101.411L74.4601 102.294L74.0418 102.038L75.5754 101.156L74.9945 100.83L75.3663 100.621L76.9463 101.527Z" fill="#FAF4F2"/>
<path d="M77.2019 101.689L77.6201 101.945L75.7148 103.037L75.2966 102.782L77.2019 101.689Z" fill="#FAF4F2"/>
<path d="M77.016 103.804C76.7139 103.618 76.5513 103.433 76.5745 103.247C76.5745 103.061 76.7371 102.875 77.0624 102.689C77.2251 102.596 77.3877 102.526 77.5504 102.48C77.713 102.433 77.8989 102.41 78.0616 102.41C78.2242 102.41 78.4101 102.433 78.5728 102.48C78.7354 102.526 78.8981 102.596 79.0142 102.666C79.0839 102.712 79.1536 102.759 79.2234 102.805C79.2698 102.852 79.3163 102.898 79.3628 102.921C79.386 102.968 79.4325 102.991 79.4325 103.014C79.4557 103.038 79.4557 103.061 79.4557 103.084L78.991 103.223C78.9678 103.177 78.9213 103.107 78.8748 103.061C78.8283 103.014 78.7354 102.945 78.6425 102.898C78.5728 102.852 78.5031 102.828 78.4101 102.805C78.3172 102.782 78.2242 102.759 78.1313 102.759C78.0383 102.759 77.9222 102.782 77.8292 102.805C77.713 102.828 77.6201 102.875 77.5039 102.945C77.411 102.991 77.3413 103.038 77.2948 103.107C77.2483 103.154 77.2019 103.223 77.2019 103.27C77.1786 103.316 77.2019 103.386 77.2483 103.433C77.2948 103.502 77.3645 103.549 77.4575 103.595C77.5272 103.642 77.5736 103.665 77.6433 103.688C77.6898 103.711 77.7595 103.735 77.806 103.758C77.8525 103.781 77.8989 103.781 77.9454 103.804C77.9919 103.804 78.0151 103.828 78.0616 103.828L77.8292 104.083C77.7363 104.06 77.6201 104.037 77.4807 103.99C77.2948 103.967 77.1554 103.897 77.016 103.804Z" fill="#FAF4F2"/>
<path d="M79.084 104.965C79.1072 104.919 79.1304 104.849 79.1537 104.779C79.1769 104.71 79.2001 104.64 79.2001 104.547C79.2234 104.477 79.2234 104.384 79.2234 104.315C79.2234 104.245 79.2234 104.175 79.2001 104.106L78.3869 104.57L77.9686 104.315L79.874 103.223L80.2922 103.478L79.5719 103.896C79.8043 103.896 80.0366 103.896 80.269 103.873C80.5013 103.873 80.7337 103.85 80.9428 103.85L81.454 104.152C81.1751 104.175 80.8963 104.175 80.6175 104.175C80.3387 104.175 80.0598 104.175 79.781 104.175C79.8043 104.338 79.8043 104.501 79.781 104.687C79.7578 104.872 79.6881 105.058 79.6184 105.244L79.084 104.965Z" fill="#FAF4F2"/>
<path d="M79.8275 105.408L81.7328 104.316L83.0107 105.06L82.6622 105.269L81.8025 104.781L81.4307 104.99L82.1975 105.432L81.849 105.641L81.0822 105.199L80.6175 105.455L81.5469 105.989L81.1984 106.198L79.8275 105.408Z" fill="#FAF4F2"/>
<path d="M84.7999 106.082L84.4281 106.291L83.8472 105.966L82.3137 106.849L81.8954 106.593L83.429 105.71L82.8481 105.385L83.2199 105.176L84.7999 106.082Z" fill="#FAF4F2"/>
<path d="M68.1168 102.015L68.1865 101.945C68.628 101.481 68.628 100.923 68.1865 100.458L68.1168 100.389L72.7871 97.6934H72.8104C73.6468 97.949 74.6924 97.949 75.5289 97.6934H75.5522L89.2844 105.617L89.2147 105.686C88.7732 106.151 88.7732 106.709 89.2147 107.173L89.2844 107.243L84.614 109.938H84.5908C83.7543 109.683 82.7087 109.683 81.8722 109.938H81.849L68.1168 102.015ZM89.052 105.663L75.5289 97.856C74.6692 98.1116 73.6468 98.1116 72.7871 97.856L68.3259 100.435C68.7209 100.923 68.7209 101.504 68.3259 101.992L81.849 109.799C82.7087 109.543 83.7311 109.543 84.5908 109.799L89.052 107.22C88.657 106.732 88.657 106.151 89.052 105.663Z" fill="#F7F7F7"/>
<path d="M90.2602 107.289L89.5632 107.684C89.7723 107.8 90.0976 107.8 90.2835 107.707C90.4926 107.591 90.4694 107.405 90.2602 107.289Z" fill="#FF3262"/>
<path d="M85.404 110.1L84.707 110.495C84.9161 110.611 85.2414 110.611 85.4273 110.518C85.6131 110.402 85.6131 110.216 85.404 110.1Z" fill="#FF3262"/>
<path d="M86.3799 109.543L85.6828 109.938C85.892 110.054 86.2173 110.054 86.4031 109.961C86.589 109.845 86.5658 109.659 86.3799 109.543Z" fill="#FF3262"/>
<path d="M87.3326 108.963L86.6355 109.358C86.8446 109.474 87.1699 109.474 87.3558 109.381C87.5649 109.288 87.5417 109.102 87.3326 108.963Z" fill="#FF3262"/>
<path d="M88.3085 108.404L87.6114 108.799C87.8205 108.915 88.1458 108.915 88.3317 108.823C88.5408 108.73 88.5176 108.52 88.3085 108.404Z" fill="#FF3262"/>
<path d="M89.2844 107.848L88.5873 108.243C88.7964 108.359 89.1217 108.359 89.3076 108.266C89.5167 108.15 89.4935 107.964 89.2844 107.848Z" fill="#FF3262"/>
<path d="M67.1409 100.364L67.8379 99.9692C67.6288 99.853 67.3035 99.853 67.1176 99.946C66.9318 100.062 66.9318 100.248 67.1409 100.364Z" fill="#FF3262"/>
<path d="M72.0203 97.5536L72.7174 97.1586C72.5083 97.0425 72.183 97.0425 71.9971 97.1354C71.788 97.2516 71.8112 97.4375 72.0203 97.5536Z" fill="#FF3262"/>
<path d="M71.0444 98.1122L71.7415 97.7172C71.5324 97.6011 71.2071 97.6011 71.0212 97.694C70.8121 97.8102 70.8353 97.9961 71.0444 98.1122Z" fill="#FF3262"/>
<path d="M70.0686 98.6689L70.7656 98.2739C70.5565 98.1577 70.2312 98.1577 70.0453 98.2506C69.8362 98.3668 69.8594 98.5527 70.0686 98.6689Z" fill="#FF3262"/>
<path d="M69.0927 99.249L69.7897 98.854C69.5806 98.7378 69.2553 98.7378 69.0694 98.8307C68.8603 98.9237 68.8835 99.1095 69.0927 99.249Z" fill="#FF3262"/>
<path d="M68.1168 99.8076L68.8138 99.4125C68.6047 99.2964 68.2794 99.2964 68.0935 99.3893C67.9077 99.5055 67.9077 99.6914 68.1168 99.8076Z" fill="#FF3262"/>
<path d="M76.7103 98.4L69.3858 102.629L69.4556 102.75L76.78 98.5208L76.7103 98.4Z" fill="#F7F7F7"/>
<path d="M87.9333 104.886L80.6089 109.115L80.6786 109.236L88.003 105.007L87.9333 104.886Z" fill="#F7F7F7"/>
<path d="M81.6631 102.132L81.1287 102.271L80.7104 102.039L80.8034 102.364L80.269 102.527L80.8499 102.573L80.9428 102.922L81.2216 102.62L81.8025 102.666L81.3843 102.434L81.6631 102.132Z" fill="#FAF4F2"/>
<path d="M77.016 104.802L76.3421 104.988L75.8077 104.686L75.9239 105.127L75.2501 105.313L75.9936 105.383L76.1098 105.824L76.4583 105.429L77.2019 105.499L76.6674 105.197L77.016 104.802Z" fill="#FAF4F2"/>
<path d="M74.8086 103.524L74.1348 103.733L73.6004 103.408L73.7165 103.85L73.0427 104.036L73.7862 104.105L73.9024 104.547L74.251 104.152L74.9945 104.221L74.4601 103.919L74.8086 103.524Z" fill="#FAF4F2"/>
<path d="M79.2234 106.081L78.5495 106.267L78.0151 105.965L78.1313 106.406L77.4575 106.592L78.201 106.662L78.3172 107.103L78.6657 106.708L79.4093 106.778L78.8748 106.476L79.2234 106.081Z" fill="#FAF4F2"/>
<path d="M74.1348 89.8879L73.6933 89.8414L73.7398 89.7949L74.1812 89.8414L74.1348 89.8879Z" fill="#E4F0F5"/>
<path d="M74.1812 89.8417L73.7398 89.7953C73.8559 89.7256 73.9953 89.6558 74.1348 89.6094L74.5065 89.6791C74.3904 89.7256 74.2974 89.7953 74.1812 89.8417Z" fill="#E4F0F5"/>
<path d="M74.5065 89.6784L74.1348 89.6087C75.0874 89.1904 76.3421 89.051 77.5039 89.2601C82.7784 90.1663 87.2628 91.6766 90.8411 93.7446L90.3996 93.7911C86.8911 91.7696 82.3369 90.2825 77.318 89.3763C76.3421 89.2137 75.2965 89.3298 74.5065 89.6784Z" fill="#E4F0F5"/>
<path d="M98.718 101.947V102.877C98.718 103.458 98.323 103.992 97.6259 104.41V103.481C98.323 103.063 98.718 102.505 98.718 101.947Z" fill="#62C7E7"/>
<path d="M90.3997 93.7906L90.8411 93.7441C92.4444 94.6736 93.885 95.7192 95.0932 96.8577H94.5588C93.3738 95.7424 91.9797 94.6968 90.3997 93.7906Z" fill="#E4F0F5"/>
<path d="M94.5588 96.8574H95.0932C96.5338 98.2051 97.6956 99.6922 98.5553 101.295C98.9736 102.062 98.6018 102.922 97.6259 103.48L97.1844 103.015C97.9977 102.527 98.2997 101.83 97.9512 101.179C97.1147 99.6457 95.9762 98.1818 94.5588 96.8574Z" fill="#E4F0F5"/>
<path d="M97.6259 103.48V104.41L97.533 104.456V103.527L97.6259 103.48Z" fill="#62C7E7"/>
<path d="M97.1844 103.016L97.6259 103.48L97.533 103.527L97.0915 103.062L97.1844 103.016Z" fill="#E4F0F5"/>
<path d="M90.3996 93.7909C93.8385 95.7659 96.3712 98.345 97.9512 101.18C98.2997 101.83 97.9977 102.527 97.1844 103.015L97.0915 103.062C95.8135 103.805 93.8153 103.736 92.6303 103.062C92.3514 102.899 92.1191 102.69 91.9332 102.458C90.3299 100.204 88.0993 98.345 85.3111 96.7418C82.4763 95.1153 79.2001 93.7909 75.2036 92.8615C74.7854 92.7685 74.4368 92.6291 74.158 92.4665C72.973 91.7694 72.8568 90.6308 74.1348 89.8873L74.2045 89.8641C75.0177 89.3994 76.226 89.2135 77.3413 89.3994C82.3369 90.2823 86.8911 91.7694 90.3996 93.7909Z" fill="#F4F5FA"/>
<path d="M97.533 103.527V104.456C95.9994 105.339 93.6062 105.27 92.1888 104.456C91.8403 104.271 91.5614 104.015 91.3755 103.736C89.7955 101.598 87.6114 99.7164 84.8928 98.1363C82.1278 96.5331 78.7819 95.2551 74.9712 94.3489C74.4833 94.2328 74.0651 94.0701 73.7165 93.861C72.973 93.4428 72.6012 92.8619 72.6012 92.281V91.3516C72.6012 91.9325 72.9962 92.5133 73.7165 92.9316C74.0651 93.1407 74.4833 93.3033 74.9712 93.4195C78.7819 94.3257 82.1046 95.6037 84.8928 97.2069C87.6114 98.7869 89.7955 100.669 91.3755 102.807C91.5847 103.086 91.8635 103.318 92.212 103.527C93.6062 104.34 95.9994 104.41 97.533 103.527Z" fill="#62C7E7"/>
<path d="M97.0915 103.062L97.533 103.527C97.2309 103.713 96.9056 103.829 96.5571 103.945L96.2783 103.411C96.5571 103.318 96.8359 103.202 97.0915 103.062Z" fill="#E4F0F5"/>
<path d="M96.2782 103.411L96.5571 103.946C95.1629 104.341 93.4435 104.201 92.305 103.597L92.7232 103.109C93.6759 103.621 95.0932 103.737 96.2782 103.411Z" fill="#E4F0F5"/>
<path d="M92.7232 103.11L92.305 103.598C92.2585 103.574 92.2353 103.551 92.1888 103.528C91.8403 103.342 91.5614 103.087 91.3523 102.808C89.7723 100.67 87.5882 98.7879 84.8696 97.2079C84.5443 97.022 84.219 96.8361 83.8937 96.6735L84.3119 96.1855C84.6372 96.3714 84.9858 96.5573 85.2878 96.7432C88.0761 98.3465 90.3067 100.205 91.91 102.459C92.0726 102.692 92.3282 102.901 92.607 103.063C92.6535 103.063 92.7 103.087 92.7232 103.11Z" fill="#E4F0F5"/>
<path d="M84.3352 96.2083L83.9169 96.6963C81.3378 95.3486 78.3404 94.2565 74.9712 93.4433C74.5298 93.3271 74.158 93.1877 73.8327 93.0251L74.2509 92.5371C74.5298 92.6765 74.8318 92.7927 75.2036 92.8856C78.7354 93.6989 81.7328 94.8142 84.3352 96.2083Z" fill="#E4F0F5"/>
<path d="M74.2509 92.5139L73.8327 93.0018C73.7862 92.9786 73.763 92.9554 73.7165 92.9321C72.2992 92.1189 72.1597 90.7247 73.6933 89.8418L74.1348 89.8883C72.8568 90.6318 72.973 91.7936 74.158 92.4674C74.1812 92.4907 74.2045 92.5139 74.2509 92.5139Z" fill="#E4F0F5"/>
<path d="M92.0494 96.4855L93.1879 95.8116L90.3532 79.7559L89.2147 80.4297L92.0494 96.4855Z" fill="#62C7E7"/>
<path d="M89.2146 80.4305L90.3532 79.7567L82.2905 75.1328L81.1519 75.7834L89.2146 80.4305Z" fill="#E4F0F5"/>
<path d="M81.1519 75.7832L83.9866 91.839L92.0494 96.4861L89.2146 80.4303L81.1519 75.7832Z" fill="#E4F0F5"/>
<path d="M62.424 39.8837L63.8182 39.0937C64.0273 38.9775 64.3294 38.9775 64.6547 39.1866L63.2605 39.9766C62.9352 39.7675 62.6332 39.7443 62.424 39.8837Z" fill="#F4F5FA"/>
<path d="M62.424 39.8837L63.8182 39.0937C64.0273 38.9775 64.3294 38.9775 64.6547 39.1866L63.2605 39.9766C62.9352 39.7675 62.6332 39.7443 62.424 39.8837Z" fill="#F4F5FA"/>
<path d="M115.099 102.853L113.705 103.643C113.914 103.527 114.053 103.271 114.053 102.899L115.448 102.109C115.424 102.481 115.308 102.737 115.099 102.853Z" fill="#62C7E7"/>
<path d="M114.053 102.899L115.448 102.109C115.448 102.481 115.308 102.737 115.099 102.853L113.705 103.643C113.914 103.527 114.03 103.271 114.053 102.899Z" fill="#62C7E7"/>
<path d="M114.123 70.6709L115.517 69.8809L115.424 102.109L114.053 102.899L114.123 70.6709Z" fill="#62C7E7"/>
<path d="M63.2605 39.9541L64.6314 39.1641L114.355 67.86L112.961 68.6732L63.2605 39.9541Z" fill="#F4F5FA"/>
<path d="M112.961 68.6728L114.355 67.8828C115.006 68.2546 115.517 69.1608 115.517 69.9043L114.123 70.6943C114.146 69.9275 113.612 69.0446 112.961 68.6728Z" fill="#E4F0F5"/>
<path d="M112.961 68.6728L114.355 67.8828C115.006 68.2546 115.517 69.1608 115.517 69.9043L114.123 70.6943C114.146 69.9275 113.612 69.0446 112.961 68.6728Z" fill="#F4F5FA"/>
<path d="M112.961 68.6732C113.612 69.0449 114.123 69.9511 114.123 70.6947L114.053 102.899C114.053 103.643 113.519 103.945 112.892 103.573L63.1443 74.8771C62.4938 74.5053 61.9826 73.5991 61.9826 72.8556L62.0755 40.6279C62.0755 39.8843 62.6099 39.5823 63.2373 39.954L112.961 68.6732Z" fill="#E4F0F5"/>
<path d="M113.17 70.6712L113.101 102.109V102.597L63.6323 74.0403C63.2838 73.8312 62.9352 73.2503 62.9352 72.8553L63.0282 40.9297L63.4232 41.162L112.473 69.4862C112.845 69.6953 113.17 70.2762 113.17 70.6712Z" fill="#E4F0F5"/>
<path d="M113.17 70.6713L113.101 102.109L64.0273 73.7848C63.6788 73.5757 63.3302 72.9948 63.3535 72.5998L63.4464 41.1621L112.497 69.4862C112.845 69.6954 113.17 70.2763 113.17 70.6713Z" fill="#9FD6EF"/>
<path opacity="0.3" d="M107.826 101.783L64.6314 76.851V43.9727L107.826 68.9044V101.783Z" fill="#F4F5FA"/>
<path opacity="0.3" d="M106.525 103.804L63.3302 78.8492V45.9941L106.525 70.9259V103.804Z" fill="#F4F5FA"/>
<path d="M104.666 104.316L61.4714 79.3842V46.5059L104.666 71.4376V104.316Z" fill="#E4F0F5"/>
<path d="M102.505 92.8128L63.4464 70.2743V50.1523L102.505 72.7141V92.8128Z" fill="#F4F5FA"/>
<path d="M76.2027 63.6066C75.9936 63.4904 75.8309 63.3742 75.6683 63.2348C75.5289 63.1186 75.3895 62.956 75.2733 62.7933C75.0177 62.4448 74.9015 61.9801 74.9015 61.3992C74.9015 60.888 75.0177 60.6092 75.2733 60.5395C75.5056 60.4698 75.8077 60.5395 76.2027 60.7718C76.3654 60.8648 76.5048 60.9577 76.621 61.0274C76.7371 61.1203 76.8533 61.2133 76.9695 61.3527C77.0857 61.4689 77.1786 61.6083 77.2483 61.7477C77.318 61.8871 77.3877 62.0498 77.4342 62.2589C77.4807 62.468 77.5039 62.6771 77.5039 62.9095C77.5039 63.3974 77.3877 63.6763 77.1554 63.7924C76.8998 63.9086 76.5977 63.8389 76.2027 63.6066ZM76.0633 62.6074C76.0865 62.7236 76.1098 62.8165 76.133 62.8398C76.1562 62.863 76.1795 62.9095 76.2259 62.9095C76.2492 62.9327 76.2957 62.9327 76.3189 62.9327C76.3421 62.9327 76.3654 62.863 76.3654 62.7701C76.3886 62.6771 76.3886 62.5377 76.3886 62.3518C76.3886 62.1892 76.3886 62.0498 76.3886 61.9568C76.3886 61.8639 76.3654 61.7709 76.3654 61.7245C76.3654 61.678 76.3421 61.6315 76.3189 61.5851C76.2957 61.5386 76.2724 61.4921 76.2259 61.4689C76.2027 61.4456 76.1562 61.4456 76.133 61.4456C76.1098 61.4456 76.0865 61.5154 76.0633 61.6083C76.0401 61.7245 76.0401 61.8639 76.0401 62.073C76.0168 62.3054 76.0401 62.468 76.0633 62.6074Z" fill="#9FD6EF"/>
<path d="M80.2225 64.3045V65.7684C80.2225 65.7916 80.1528 65.7916 79.9901 65.7219C79.8275 65.6522 79.6648 65.5592 79.5022 65.4663C79.3395 65.3734 79.2233 65.3037 79.1769 65.2572C79.1304 65.2107 79.1072 65.1642 79.1072 65.1178V63.6307C79.1072 63.4913 79.1072 63.3983 79.0839 63.3519C79.0839 63.3054 79.0607 63.2589 79.0607 63.2124C79.0375 63.1427 79.0142 63.0963 78.9678 63.073C78.898 63.0266 78.8516 63.0498 78.8516 63.1427V65.0248C78.8516 65.0481 78.7819 65.0481 78.6192 64.9784C78.4566 64.9086 78.2939 64.8389 78.1313 64.7228C77.9686 64.6298 77.8524 64.5601 77.806 64.5136C77.7595 64.4672 77.7363 64.4207 77.7363 64.3742V62.0042C77.7363 61.9345 77.806 61.9113 77.9686 61.9345C78.1313 61.9577 78.2939 62.0274 78.4566 62.1204C78.6425 62.2133 78.7354 62.3295 78.7586 62.4689L78.8051 62.7013L78.8283 62.7245C78.898 62.5851 79.0375 62.5386 79.2466 62.5851C79.3163 62.6083 79.4092 62.6316 79.5022 62.7013C79.781 62.8639 79.9669 63.073 80.0598 63.3054C80.176 63.5377 80.2225 63.8863 80.2225 64.3045Z" fill="#9FD6EF"/>
<path d="M81.6166 63.212V66.5812C81.6166 66.6277 81.5469 66.6044 81.3842 66.5347C81.2216 66.465 81.0589 66.3721 80.8963 66.2791C80.7336 66.1862 80.6175 66.1165 80.571 66.07C80.5245 66.0235 80.5013 65.9771 80.5013 65.9306V62.6312C80.5013 62.5614 80.571 62.5382 80.7336 62.5614C80.8963 62.5847 81.0589 62.6544 81.2216 62.7473C81.5004 62.91 81.6166 63.0494 81.6166 63.212Z" fill="#9FD6EF"/>
<path d="M82.4763 63.4906C82.6622 63.5835 82.8016 63.6997 82.8946 63.8391C82.9875 63.9553 83.0572 64.0947 83.0572 64.2573C83.0572 64.5362 82.8713 64.5826 82.4763 64.3503C82.1045 64.1179 81.8954 63.8856 81.8954 63.5835C81.8954 63.3047 82.1045 63.2582 82.4763 63.4906ZM83.034 65.0474V67.3941C83.034 67.4406 82.9643 67.4174 82.8016 67.3477C82.639 67.278 82.4763 67.185 82.3137 67.0921C82.151 66.9991 82.0348 66.9294 81.9884 66.883C81.9419 66.8365 81.9187 66.79 81.9187 66.7435V64.4897C81.9187 64.42 81.9884 64.3968 82.151 64.42C82.3137 64.4432 82.4763 64.5129 82.6622 64.6059C82.9178 64.7685 83.034 64.9079 83.034 65.0474Z" fill="#9FD6EF"/>
<path d="M85.8222 67.533V68.9969C85.8222 69.0433 85.7525 69.0201 85.5899 68.9504C85.4272 68.8807 85.2646 68.7878 85.1019 68.6948C84.9393 68.6019 84.8231 68.5322 84.7766 68.4857C84.7302 68.4392 84.7069 68.3928 84.7069 68.3463V66.836C84.7069 66.6966 84.7069 66.6036 84.6837 66.5571C84.6837 66.5107 84.6605 66.4642 84.6605 66.4177C84.6372 66.348 84.614 66.3016 84.5675 66.2783C84.4978 66.2318 84.4513 66.2551 84.4513 66.348V68.2301C84.4513 68.2766 84.3816 68.2533 84.219 68.1836C84.0563 68.1139 83.8937 68.0442 83.731 67.928C83.5684 67.8351 83.4522 67.7654 83.4057 67.7189C83.3593 67.6724 83.336 67.626 83.336 67.5795V65.2327C83.336 65.163 83.4057 65.1398 83.5684 65.163C83.731 65.1862 83.8937 65.256 84.0563 65.3489C84.2422 65.4418 84.3352 65.558 84.3584 65.6974L84.4049 65.9298L84.4281 65.953C84.4978 65.8136 84.6372 65.7671 84.8463 65.8136C84.9161 65.8368 85.009 65.8601 85.1019 65.9298C85.3808 66.0924 85.5666 66.3016 85.6596 66.5339C85.7758 66.7663 85.8222 67.1148 85.8222 67.533Z" fill="#9FD6EF"/>
<path d="M87.1699 68.8353C87.1699 69.0445 87.2628 69.1839 87.4255 69.3001C87.5184 69.3465 87.6579 69.393 87.8205 69.4162C87.9831 69.4395 88.0529 69.4395 88.0761 69.4395C88.1226 69.4627 88.1923 69.6021 88.2852 69.8345C88.3782 70.0668 88.4014 70.2295 88.4014 70.2992C88.4014 70.4154 88.2852 70.4618 88.0761 70.3921C87.867 70.3224 87.6346 70.2295 87.4255 70.1133C87.2164 69.9971 87.0305 69.8809 86.8911 69.7415C86.7517 69.6254 86.6355 69.5092 86.5425 69.393C86.4496 69.2768 86.3799 69.1606 86.3102 69.0445C86.2405 68.9283 86.194 68.8121 86.1708 68.7192C86.1475 68.6262 86.1011 68.51 86.1011 68.4171C86.0778 68.2545 86.0546 68.115 86.0546 67.9524C86.0546 67.3715 86.194 67.0462 86.4496 66.9765C86.589 66.93 86.7284 66.9533 86.8911 66.9997C87.0537 67.0462 87.2396 67.1392 87.4487 67.2553C88.1458 67.6503 88.4943 68.1383 88.4943 68.6959C88.4943 69.3001 88.0993 69.3698 87.3326 68.9051L87.1699 68.8353ZM87.1699 68.1383V68.4636C87.2396 68.51 87.3093 68.51 87.3558 68.4636C87.4023 68.4171 87.4255 68.3474 87.4255 68.2312C87.4255 68.0453 87.379 67.9292 87.3093 67.8827C87.2164 67.813 87.1699 67.9059 87.1699 68.1383Z" fill="#9FD6EF"/>
<path d="M66.0255 66.6275C65.77 66.4649 65.5841 66.3487 65.4911 66.279C65.3982 66.186 65.3517 66.1163 65.3517 66.0234V60.3307C65.3517 60.1913 65.5144 60.1448 65.8164 60.1913C66.1185 60.2377 66.467 60.3771 66.8388 60.5863C67.1641 60.7721 67.3964 60.9813 67.5126 61.2136C67.5591 61.3066 67.5591 61.3763 67.5591 61.4227V65.489C68.2097 65.8143 68.6744 66.0699 69.0229 66.2557C69.1391 66.3254 69.1856 66.5578 69.1856 66.9528C69.1856 67.3478 69.1623 67.6963 69.1159 67.9519C69.0694 68.2075 68.9997 68.3237 68.93 68.2772L66.0255 66.6275Z" fill="#FF3262"/>
<path d="M72.3224 70.3454C71.8809 70.0898 71.5091 69.8342 71.2071 69.5553C70.905 69.2765 70.6029 68.9512 70.3474 68.5562C69.8129 67.7662 69.5573 66.6974 69.5573 65.3265C69.5573 64.7456 69.6271 64.3041 69.7665 63.9556C69.9059 63.607 70.115 63.3979 70.3706 63.2818C70.8818 63.0959 71.5324 63.212 72.3456 63.6768C72.7639 63.9091 73.1124 64.1647 73.4377 64.4203C73.7397 64.6759 74.0418 65.0012 74.3206 65.3962C74.8783 66.1862 75.1571 67.2318 75.1571 68.533C75.1571 69.6948 74.9015 70.4151 74.4136 70.6939C73.8559 70.9495 73.1821 70.8565 72.3224 70.3454ZM72.0436 68.6259C72.1133 68.7421 72.183 68.835 72.2991 68.9048C72.4153 68.9745 72.485 68.9745 72.5547 68.928C72.6244 68.8815 72.6709 68.7189 72.7174 68.44C72.7639 68.1845 72.7871 67.7894 72.7871 67.255C72.7871 66.7438 72.7639 66.3256 72.7174 66.0235C72.6709 65.7215 72.6244 65.5124 72.5547 65.373C72.485 65.2568 72.4153 65.1638 72.2991 65.0941C72.183 65.0244 72.1133 65.0244 72.0436 65.0709C71.9738 65.1174 71.9274 65.28 71.8809 65.5356C71.8344 65.7912 71.8112 66.1862 71.8112 66.6974C71.8112 67.2086 71.8344 67.6268 71.8809 67.9521C71.9506 68.2774 71.9971 68.5098 72.0436 68.6259Z" fill="#FF3262"/>
<path d="M78.4798 73.7618C78.1545 73.6224 77.8292 73.4365 77.5039 73.2506C77.1786 73.0647 76.9695 72.9253 76.8765 72.8556C76.7836 72.7626 76.7371 72.6929 76.7371 72.6V68.6499L75.6451 68.0226C75.5986 67.9993 75.5289 67.8832 75.5056 67.674C75.4592 67.4882 75.4359 67.2093 75.4359 66.884C75.4359 66.5587 75.4592 66.2567 75.5289 66.0243C75.5986 65.792 75.6683 65.699 75.7845 65.7687L80.0598 68.2317C80.1295 68.2782 80.1992 68.3944 80.2225 68.5802C80.2457 68.7661 80.2689 69.0217 80.2689 69.347C80.2689 69.6723 80.2457 69.9511 80.176 70.2067C80.1295 70.4623 80.0366 70.5553 79.9436 70.5088L78.9677 69.9279V73.8779C78.9677 73.9709 78.8051 73.9244 78.4798 73.7618Z" fill="#FF3262"/>
<path d="M83.6381 76.7344C83.3128 76.595 82.9875 76.4091 82.6622 76.2232C82.3369 76.0374 82.1278 75.8979 82.0348 75.8282C81.9419 75.7353 81.8954 75.6656 81.8954 75.5726V71.6226L80.8034 70.9952C80.7569 70.972 80.6872 70.8558 80.6639 70.6467C80.6175 70.4608 80.5942 70.182 80.5942 69.8567C80.5942 69.5082 80.6175 69.2293 80.6872 68.997C80.7569 68.7646 80.8266 68.6717 80.9428 68.7414L85.2181 71.2044C85.2878 71.2508 85.3575 71.367 85.3808 71.5529C85.404 71.7388 85.4272 71.9944 85.4272 72.3197C85.4272 72.645 85.404 72.9238 85.3343 73.1794C85.2878 73.435 85.1949 73.5279 85.1019 73.4814L84.126 72.9006V76.8506C84.1028 76.9203 83.9402 76.8971 83.6381 76.7344Z" fill="#FF3262"/>
<path d="M89.9117 80.429L86.5658 78.5004C86.3102 78.361 86.1243 78.2216 86.0546 78.1287C85.9616 78.0357 85.9152 77.9428 85.9152 77.8498V72.0409C85.9152 71.8783 85.9849 71.8086 86.101 71.8086C86.2172 71.8086 86.4496 71.9015 86.7749 72.0874L89.9581 73.923C90.0743 73.9927 90.1208 74.2251 90.1208 74.6666C90.1208 75.0848 90.0976 75.4101 90.0511 75.596C90.0046 75.7819 89.9349 75.8748 89.8652 75.8283C89.5167 75.6192 88.9358 75.2475 88.1458 74.713V75.3172C88.9358 75.7354 89.4237 76.0142 89.6793 76.1536C89.8187 76.2466 89.8884 76.4789 89.8884 76.8507C89.8884 77.2457 89.8652 77.5013 89.7955 77.6872C89.749 77.8498 89.6561 77.9195 89.5631 77.8498L88.1225 76.9901V77.571C89.0287 78.0125 89.6793 78.3378 90.0278 78.5469C90.144 78.6166 90.1905 78.849 90.1905 79.2904C90.1905 79.7087 90.1673 80.034 90.1208 80.2199C90.0511 80.3825 89.9814 80.4755 89.9117 80.429Z" fill="#FF3262"/>
<path d="M92.9323 81.8923C92.9323 81.962 92.7697 81.9388 92.4444 81.7994C92.1191 81.6599 91.7938 81.4973 91.4685 81.3114C91.1432 81.1255 90.934 80.9861 90.8411 80.8932C90.7482 80.8002 90.7017 80.7073 90.7017 80.6143V74.7125C90.7017 74.5499 90.8643 74.5499 91.2129 74.666C91.5614 74.8055 92.0029 75.0146 92.5141 75.3166C93.0485 75.6187 93.3738 75.8278 93.5364 75.9208C93.6991 76.0137 93.885 76.1299 94.0941 76.2693C94.3032 76.4087 94.4658 76.5249 94.6053 76.6411C94.7214 76.7572 94.8608 76.8967 95.0235 77.0361C95.1629 77.1987 95.2791 77.3381 95.372 77.5008C95.465 77.6634 95.5347 77.8261 95.6276 78.012C95.767 78.3605 95.8367 78.7787 95.8367 79.2667C95.8367 79.7546 95.767 80.1264 95.6276 80.382C95.4882 80.6376 95.3023 80.777 95.07 80.8235C95.6741 82.2873 95.9762 83.147 95.9762 83.4491C95.9762 83.7511 95.465 83.5885 94.4194 83.0076C94.1173 82.845 93.9082 82.7055 93.792 82.6126C93.6758 82.5197 93.6061 82.4035 93.5597 82.2873L93.0485 80.1032L92.9091 80.0102V81.8923H92.9323ZM92.9323 78.6161L93.1414 78.7323C93.4435 78.9181 93.6061 78.7323 93.6061 78.1746C93.6061 77.8958 93.5597 77.6634 93.49 77.5008C93.397 77.3381 93.3041 77.222 93.2111 77.1755L92.9555 77.0361V78.6161H92.9323Z" fill="#FF3262"/>
<path d="M99.415 85.8433C99.0897 85.7038 98.7644 85.5412 98.4624 85.3553C98.1371 85.1694 97.928 85.03 97.835 84.9371C97.7421 84.8441 97.6956 84.7512 97.6956 84.6582V83.055C96.65 79.9879 96.1388 78.3382 96.1388 78.1291C96.1388 77.9896 96.3247 77.9664 96.6732 78.0361C97.0218 78.1058 97.3935 78.2452 97.7885 78.4776C98.2997 78.7564 98.5553 79.0817 98.5785 79.4535L98.7877 82.0326L98.8806 82.0791L99.02 79.7555C99.02 79.5929 99.2059 79.5697 99.5777 79.6626C99.9494 79.7555 100.275 79.9182 100.623 80.1041C100.949 80.29 101.181 80.4758 101.297 80.6617C101.413 80.8476 101.483 80.987 101.483 81.1264C101.483 81.2426 100.949 82.3115 99.903 84.3329V85.9362C99.903 86.0059 99.7403 85.9827 99.415 85.8433Z" fill="#FF3262"/>
<path d="M89.0985 93.2561L72.6245 83.7527V77.5488L89.0985 87.0522V93.2561Z" fill="#FF3262"/>
<path d="M76.4118 84.5655C76.3421 84.4958 76.2956 84.4261 76.2259 84.3099C76.1562 84.217 76.1098 84.1008 76.0633 83.9846C75.9703 83.729 75.9006 83.427 75.9006 83.1017C75.9006 82.8925 75.9239 82.7299 75.9936 82.5905C76.0401 82.4511 76.1098 82.3814 76.2027 82.3349C76.2724 82.2884 76.3886 82.2652 76.4815 82.2884C76.6442 82.2884 76.8301 82.3581 76.9927 82.4511C77.2715 82.6137 77.4807 82.7531 77.5968 82.8693C77.713 82.9855 77.7595 83.1017 77.7595 83.2178C77.7595 83.334 77.7362 83.4502 77.713 83.5664C77.6665 83.6825 77.6201 83.729 77.5736 83.6825C77.5504 83.6825 77.5039 83.6128 77.3877 83.4967C77.2948 83.3805 77.2018 83.3108 77.1321 83.2643C77.0624 83.2178 77.0159 83.2178 76.9695 83.2643C76.923 83.3108 76.923 83.427 76.923 83.6128C76.923 83.7987 76.9462 83.9381 76.9695 84.0311C76.9927 84.124 77.0624 84.1937 77.1321 84.217C77.2018 84.2634 77.2948 84.2867 77.4109 84.2867C77.5271 84.2867 77.5736 84.3099 77.5968 84.3099C77.6433 84.3331 77.6898 84.4261 77.7362 84.5887C77.7827 84.7514 77.806 84.8676 77.806 84.9605C77.806 85.1231 77.7362 85.1929 77.5968 85.1696C77.4574 85.1464 77.2715 85.0767 77.0392 84.9373C76.7371 84.8443 76.5512 84.7049 76.4118 84.5655Z" fill="#F4F5FA"/>
<path d="M78.9445 82.9628V86.0067C78.9445 86.0299 78.8748 86.0299 78.7354 85.9602C78.596 85.8905 78.4566 85.8208 78.2939 85.7279C78.1545 85.6349 78.0383 85.5885 78.0151 85.542C77.9686 85.4955 77.9454 85.4723 77.9454 85.4258V82.4749C77.9454 82.4052 78.0151 82.382 78.1545 82.4052C78.2939 82.4284 78.4333 82.4749 78.596 82.5678C78.8516 82.7073 78.9445 82.8234 78.9445 82.9628Z" fill="#F4F5FA"/>
<path d="M79.7345 83.2172C79.8972 83.3102 80.0133 83.4031 80.1063 83.5193C80.1992 83.6355 80.2457 83.7516 80.2457 83.8911C80.2457 84.1467 80.083 84.1699 79.7345 83.984C79.386 83.7749 79.2233 83.5658 79.2233 83.3102C79.2233 83.0313 79.386 83.0081 79.7345 83.2172ZM80.2225 84.6114V86.7258C80.2225 86.749 80.1528 86.749 80.0133 86.6793C79.8739 86.6096 79.7345 86.5399 79.5719 86.447C79.4324 86.354 79.3163 86.3076 79.293 86.2611C79.2466 86.2146 79.2233 86.1914 79.2233 86.1449V84.1234C79.2233 84.0537 79.293 84.0305 79.4324 84.0537C79.5719 84.0769 79.7113 84.1234 79.8972 84.2164C80.1063 84.3558 80.2225 84.4952 80.2225 84.6114Z" fill="#F4F5FA"/>
<path d="M80.966 87.1905C80.8963 87.1208 80.8498 87.0511 80.7801 86.9349C80.7104 86.842 80.6639 86.7258 80.6175 86.6096C80.5245 86.354 80.4548 86.052 80.4548 85.7267C80.4548 85.5175 80.478 85.3549 80.5477 85.2155C80.5942 85.0761 80.6639 85.0064 80.7569 84.9599C80.8266 84.9134 80.9428 84.8902 81.0357 84.9134C81.1983 84.9134 81.3842 84.9831 81.5469 85.0761C81.8257 85.2387 82.0348 85.3781 82.151 85.4943C82.2672 85.6105 82.3136 85.7267 82.3136 85.8428C82.3136 85.959 82.2904 86.0752 82.2672 86.1914C82.2207 86.3075 82.1742 86.354 82.1278 86.3075C82.1045 86.3075 82.0581 86.2378 81.9419 86.1217C81.8489 86.0055 81.756 85.9358 81.6863 85.8893C81.6166 85.8428 81.5701 85.8428 81.5236 85.8893C81.4772 85.9358 81.4772 86.052 81.4772 86.2378C81.4772 86.4237 81.5004 86.5631 81.5236 86.6561C81.5469 86.749 81.6166 86.8187 81.6863 86.842C81.756 86.8884 81.8489 86.9117 81.9651 86.9117C82.0813 86.9117 82.1278 86.9117 82.151 86.9349C82.1975 86.9581 82.2439 87.0511 82.2904 87.2137C82.3369 87.3764 82.3601 87.4926 82.3601 87.5855C82.3601 87.7481 82.2904 87.8179 82.151 87.7946C82.0116 87.7714 81.8257 87.7017 81.5933 87.5623C81.2913 87.4926 81.1054 87.3531 80.966 87.1905Z" fill="#F4F5FA"/>
<path d="M83.3128 88.5852C83.1734 88.5155 83.034 88.4458 82.8713 88.3529C82.7319 88.2599 82.6157 88.2135 82.5692 88.167C82.5228 88.1205 82.4995 88.0973 82.4995 88.0508V85.0999C82.4995 85.0302 82.5692 85.007 82.7087 85.0302C82.8481 85.0534 82.9875 85.0999 83.1501 85.1928C83.3825 85.3323 83.4987 85.4484 83.4987 85.5878V87.1911L83.5451 87.2143C83.6613 86.6334 83.7543 86.3546 83.8007 86.3779C83.9401 86.4708 84.126 86.587 84.3119 86.7961C84.521 86.982 84.614 87.1214 84.614 87.2376C84.614 87.3073 84.5675 87.4002 84.4746 87.5396C84.3816 87.679 84.2654 87.772 84.1725 87.8417C84.521 88.5388 84.7069 88.9105 84.7069 89.0035C84.7069 89.0964 84.5907 89.1197 84.3816 89.1197C84.1493 89.1197 84.0098 89.0732 83.9169 89.0267C83.8704 89.0035 83.824 88.9105 83.7775 88.7711C83.731 88.6085 83.6845 88.3994 83.6148 88.1205L83.5219 88.1902V88.6085C83.5219 88.6549 83.4522 88.6549 83.3128 88.5852Z" fill="#F4F5FA"/>
</g>
<defs>
<linearGradient id="paint0_linear_1253_38822" x1="128.652" y1="53.5801" x2="35.3477" y2="113.089" gradientUnits="userSpaceOnUse">
<stop stop-color="#882AFF"/>
<stop offset="1" stop-color="#6255FF"/>
</linearGradient>
<linearGradient id="paint1_linear_1253_38822" x1="109.667" y1="35.4147" x2="54.3333" y2="131.255" gradientUnits="userSpaceOnUse">
<stop stop-color="#882AFF"/>
<stop offset="1" stop-color="#6255FF"/>
</linearGradient>
<linearGradient id="paint2_linear_1253_38822" x1="46.9082" y1="71.0712" x2="51.6552" y2="64.8131" gradientUnits="userSpaceOnUse">
<stop stop-color="#FFD08D"/>
<stop offset="0.58" stop-color="#FFDC2A"/>
<stop offset="0.81" stop-color="#F3C237"/>
<stop offset="1" stop-color="#EBB140"/>
</linearGradient>
<linearGradient id="paint3_linear_1253_38822" x1="51.7294" y1="70.1433" x2="46.8819" y2="65.6435" gradientUnits="userSpaceOnUse">
<stop stop-color="#FFAA3F"/>
<stop offset="0.58" stop-color="#FFAF2A"/>
<stop offset="0.71" stop-color="#F8A631"/>
<stop offset="1" stop-color="#EC9540"/>
</linearGradient>
<linearGradient id="paint4_linear_1253_38822" x1="48.2713" y1="66.2265" x2="48.0753" y2="66.0446" gradientUnits="userSpaceOnUse">
<stop offset="0.04" stop-color="#F8DA36"/>
<stop offset="0.11" stop-color="#F1CD21"/>
<stop offset="0.19" stop-color="#EBC412"/>
<stop offset="0.28" stop-color="#E8BE09"/>
<stop offset="0.42" stop-color="#E8BD07"/>
<stop offset="0.51" stop-color="#EFCB1B"/>
<stop offset="0.64" stop-color="#F8DB33"/>
<stop offset="0.77" stop-color="#FDE542"/>
<stop offset="0.87" stop-color="#FFE947"/>
<stop offset="1" stop-color="#FFEC63"/>
</linearGradient>
<linearGradient id="paint5_linear_1253_38822" x1="48.6853" y1="67.2366" x2="48.2554" y2="66.8374" gradientUnits="userSpaceOnUse">
<stop offset="0.04" stop-color="#F8DA36"/>
<stop offset="0.11" stop-color="#F1CD21"/>
<stop offset="0.19" stop-color="#EBC412"/>
<stop offset="0.28" stop-color="#E8BE09"/>
<stop offset="0.42" stop-color="#E8BD07"/>
<stop offset="0.51" stop-color="#EFCB1B"/>
<stop offset="0.64" stop-color="#F8DB33"/>
<stop offset="0.77" stop-color="#FDE542"/>
<stop offset="0.87" stop-color="#FFE947"/>
<stop offset="1" stop-color="#FFEC63"/>
</linearGradient>
<linearGradient id="paint6_linear_1253_38822" x1="50.3424" y1="68.9411" x2="49.6184" y2="68.269" gradientUnits="userSpaceOnUse">
<stop offset="0.04" stop-color="#F8DA36"/>
<stop offset="0.11" stop-color="#F1CD21"/>
<stop offset="0.19" stop-color="#EBC412"/>
<stop offset="0.28" stop-color="#E8BE09"/>
<stop offset="0.42" stop-color="#E8BD07"/>
<stop offset="0.51" stop-color="#EFCB1B"/>
<stop offset="0.64" stop-color="#F8DB33"/>
<stop offset="0.77" stop-color="#FDE542"/>
<stop offset="0.87" stop-color="#FFE947"/>
<stop offset="1" stop-color="#FFEC63"/>
</linearGradient>
<linearGradient id="paint7_linear_1253_38822" x1="49.4685" y1="67.5311" x2="48.9316" y2="67.0327" gradientUnits="userSpaceOnUse">
<stop offset="0.04" stop-color="#F8DA36"/>
<stop offset="0.11" stop-color="#F1CD21"/>
<stop offset="0.19" stop-color="#EBC412"/>
<stop offset="0.28" stop-color="#E8BE09"/>
<stop offset="0.42" stop-color="#E8BD07"/>
<stop offset="0.51" stop-color="#EFCB1B"/>
<stop offset="0.64" stop-color="#F8DB33"/>
<stop offset="0.77" stop-color="#FDE542"/>
<stop offset="0.87" stop-color="#FFE947"/>
<stop offset="1" stop-color="#FFEC63"/>
</linearGradient>
<linearGradient id="paint8_linear_1253_38822" x1="50.9365" y1="69.8215" x2="50.6402" y2="69.5465" gradientUnits="userSpaceOnUse">
<stop offset="0.04" stop-color="#F8DA36"/>
<stop offset="0.11" stop-color="#F1CD21"/>
<stop offset="0.19" stop-color="#EBC412"/>
<stop offset="0.28" stop-color="#E8BE09"/>
<stop offset="0.42" stop-color="#E8BD07"/>
<stop offset="0.51" stop-color="#EFCB1B"/>
<stop offset="0.64" stop-color="#F8DB33"/>
<stop offset="0.77" stop-color="#FDE542"/>
<stop offset="0.87" stop-color="#FFE947"/>
<stop offset="1" stop-color="#FFEC63"/>
</linearGradient>
<linearGradient id="paint9_linear_1253_38822" x1="50.0509" y1="69.7192" x2="49.1621" y2="68.8941" gradientUnits="userSpaceOnUse">
<stop offset="0.04" stop-color="#F8DA36"/>
<stop offset="0.11" stop-color="#F1CD21"/>
<stop offset="0.19" stop-color="#EBC412"/>
<stop offset="0.28" stop-color="#E8BE09"/>
<stop offset="0.42" stop-color="#E8BD07"/>
<stop offset="0.51" stop-color="#EFCB1B"/>
<stop offset="0.64" stop-color="#F8DB33"/>
<stop offset="0.77" stop-color="#FDE542"/>
<stop offset="0.87" stop-color="#FFE947"/>
<stop offset="1" stop-color="#FFEC63"/>
</linearGradient>
<linearGradient id="paint10_linear_1253_38822" x1="48.8134" y1="68.2515" x2="47.0691" y2="66.6323" gradientUnits="userSpaceOnUse">
<stop offset="0.04" stop-color="#F8DA36"/>
<stop offset="0.11" stop-color="#F1CD21"/>
<stop offset="0.19" stop-color="#EBC412"/>
<stop offset="0.28" stop-color="#E8BE09"/>
<stop offset="0.42" stop-color="#E8BD07"/>
<stop offset="0.51" stop-color="#EFCB1B"/>
<stop offset="0.64" stop-color="#F8DB33"/>
<stop offset="0.77" stop-color="#FDE542"/>
<stop offset="0.87" stop-color="#FFE947"/>
<stop offset="1" stop-color="#FFEC63"/>
</linearGradient>
<clipPath id="clip0_1253_38822">
<rect width="74.0285" height="80" fill="white" transform="translate(42 39)"/>
</clipPath>
</defs>
</svg>
