<svg width="160" height="160" viewBox="0 0 160 160" fill="none" xmlns="http://www.w3.org/2000/svg">
<circle cx="80" cy="80" r="80" fill="#F3F3F3"/>
<path opacity="0.5" d="M123.644 50.9236C126.751 52.5702 128.764 55.7273 128.948 59.2384L130.093 81.2081L130.889 103.193C131.017 106.707 129.289 110.029 126.34 111.943L107.887 123.92L89.245 135.602C86.2657 137.469 82.5249 137.635 79.3926 136.038L59.7935 126.045L40.3557 115.742C37.2492 114.095 35.2356 110.938 35.0525 107.427L33.9069 85.4574L33.1107 63.4722C32.9835 59.9586 34.7108 56.6363 37.66 54.7222L56.1135 42.7452L74.7551 31.0631C77.7343 29.1961 81.4752 29.0309 84.6075 30.6279L104.207 40.6206L123.644 50.9236Z" fill="url(#paint0_linear_1246_20579)"/>
<path d="M103.999 35.3677C107.515 35.3957 110.757 37.2679 112.54 40.2987L123.69 59.2628L134.538 78.4018C136.272 81.4606 136.272 85.2051 134.538 88.2638L123.69 107.403L112.54 126.367C110.757 129.398 107.515 131.27 103.999 131.298L82 131.473L60.0011 131.298C56.4853 131.27 53.2425 129.398 51.4604 126.367L40.3095 107.403L29.4615 88.2638C27.7278 85.2051 27.7278 81.4606 29.4615 78.4018L40.3095 59.2628L51.4604 40.2987C53.2425 37.2679 56.4853 35.3957 60.0011 35.3677L82 35.1928L103.999 35.3677Z" fill="url(#paint1_linear_1246_20579)"/>
<g filter="url(#filter0_d_1246_20579)">
<path d="M53.3175 116.793C51.7539 114.744 47.5632 114.38 43.3641 116.071C39.165 117.763 36.3961 120.928 36.6877 123.489L36.5656 123.484L36.7738 123.986C37.8486 126.652 42.4893 127.299 47.1383 125.425C51.7873 123.553 54.6839 119.873 53.6119 117.204L53.4036 116.699L53.3203 116.79L53.3175 116.793Z" fill="#D16A0D"/>
<path d="M53.1064 115.962C53.1703 116.117 53.2064 116.179 53.2508 116.301C53.2675 116.348 53.3924 116.64 53.4036 116.701C53.8146 119.286 50.9707 122.619 46.6967 124.341C42.3226 126.101 37.9652 125.577 36.5683 123.48C36.5683 123.48 36.335 122.899 36.2739 122.741C35.1991 120.072 38.0985 116.392 42.7475 114.521C47.3965 112.649 52.0372 113.293 53.1092 115.959L53.1064 115.962Z" fill="#D16A0D"/>
<path d="M53.0591 115.846C54.1339 118.512 51.2345 122.194 46.5855 124.066C41.9365 125.938 37.2958 125.294 36.2238 122.628C35.1491 119.962 38.0484 116.279 42.6974 114.407C47.3464 112.535 51.9871 113.18 53.0591 115.846Z" fill="url(#paint2_linear_1246_20579)"/>
<g style="mix-blend-mode:screen" opacity="0.5">
<path d="M42.7085 114.435C47.3492 112.566 51.9788 113.205 53.0647 115.86C53.0647 115.854 53.0619 115.851 53.0591 115.846C51.9843 113.177 47.3464 112.533 42.6974 114.407C38.0484 116.279 35.1491 119.959 36.2238 122.628C36.2238 122.633 36.2266 122.636 36.2294 122.642C35.1713 119.976 38.0679 116.307 42.7085 114.438V114.435Z" fill="#FEF0A0"/>
</g>
<path d="M51.7289 116.382C52.6343 118.628 50.1931 121.728 46.2773 123.302C42.3615 124.88 38.4568 124.335 37.5514 122.089C36.6461 119.842 39.0872 116.743 43.003 115.168C46.9189 113.591 50.8263 114.135 51.7289 116.382Z" fill="url(#paint3_linear_1246_20579)"/>
<path d="M51.7289 116.382C52.6343 118.628 50.1931 121.728 46.2773 123.302C42.3615 124.88 38.4568 124.335 37.5514 122.089C36.6461 119.842 39.0872 116.743 43.003 115.168C46.9189 113.591 50.8263 114.135 51.7289 116.382Z" fill="url(#paint4_linear_1246_20579)"/>
<g style="mix-blend-mode:multiply">
<path d="M43.003 115.168C46.9077 113.596 50.804 114.132 51.7233 116.365C51.7233 116.36 51.7178 116.354 51.7178 116.349C50.8124 114.102 46.9049 113.56 42.9918 115.138C39.076 116.715 36.6376 119.814 37.5402 122.058C37.543 122.064 37.5458 122.07 37.5486 122.075C36.6654 119.831 39.101 116.743 43.0057 115.171L43.003 115.168Z" fill="#FEF0A0"/>
</g>
<g style="mix-blend-mode:screen" opacity="0.3">
<path d="M46.2801 123.303C42.3726 124.875 38.4734 124.339 37.5597 122.104C37.5597 122.109 37.5625 122.112 37.5653 122.117C38.4706 124.364 42.3753 124.906 46.2912 123.331C50.207 121.754 52.6481 118.654 51.7428 116.41C51.7428 116.405 51.74 116.402 51.7372 116.396C52.6259 118.64 50.1875 121.731 46.2801 123.303Z" fill="#FEF0A0"/>
</g>
<path opacity="0.4" d="M43.078 115.352C46.9577 113.788 50.8041 114.25 51.7539 116.443C51.7456 116.424 51.74 116.402 51.7289 116.382C50.8263 114.136 46.9188 113.594 43.003 115.169C39.0872 116.746 36.6488 119.846 37.5514 122.089C37.5597 122.109 37.5681 122.128 37.5764 122.151C36.7405 119.909 39.1955 116.913 43.0752 115.349L43.078 115.352Z" fill="#D16A0D"/>
<g style="mix-blend-mode:multiply" opacity="0.4">
<path d="M47.4353 118.507C47.216 118.377 46.9827 118.302 46.7299 118.285C46.48 118.266 46.0273 118.277 45.3774 118.316C44.6109 118.36 44.1416 118.371 43.9722 118.346C43.7972 118.324 43.6723 118.216 43.5917 118.018C43.5445 117.899 43.5445 117.799 43.589 117.71C43.6362 117.624 43.7278 117.552 43.8639 117.496C44.0361 117.427 44.161 117.416 44.2416 117.463C44.3221 117.51 44.4055 117.644 44.4943 117.866L44.361 117.982L44.5804 118.074L46.841 117.163C46.8133 117.052 46.7883 116.969 46.7688 116.919C46.6188 116.547 46.33 116.327 45.8968 116.258C45.4663 116.186 44.8914 116.266 44.1722 116.499L44.0111 116.097L43.7917 116.008L43.7389 116.188L42.9697 116.519L43.1307 116.921C42.3864 117.28 41.8643 117.641 41.5699 118.01C41.2728 118.377 41.2006 118.749 41.3505 119.124C41.4561 119.382 41.6394 119.579 41.9032 119.713C42.167 119.846 42.4447 119.918 42.7391 119.929C43.0335 119.943 43.5723 119.929 44.361 119.893C44.8331 119.871 45.1275 119.904 45.2497 119.996C45.3691 120.087 45.4858 120.276 45.5996 120.557C45.6441 120.668 45.6413 120.768 45.5885 120.854C45.5357 120.94 45.4358 121.015 45.2803 121.076C45.1025 121.148 44.972 121.154 44.8914 121.09C44.8109 121.026 44.7026 120.826 44.5665 120.487L44.5054 120.337L44.4415 120.179L44.2221 120.087L44.0527 120.293L42.1781 121.09L42.2781 121.337C42.5031 121.898 42.8863 122.198 43.4279 122.24C43.9694 122.284 44.5498 122.198 45.1692 121.99L45.147 122.387L45.3636 122.479L46.405 122.059L46.2134 121.587C46.966 121.215 47.4825 120.823 47.7686 120.412C48.0546 120.001 48.1074 119.571 47.9269 119.124C47.8158 118.843 47.6492 118.638 47.4298 118.51L47.4353 118.507Z" fill="#AA7E03"/>
</g>
<path d="M46.6216 117.074L44.361 117.985L44.2777 117.777C44.1888 117.555 44.1027 117.419 44.0249 117.374C43.9444 117.327 43.8194 117.338 43.6473 117.408C43.5084 117.463 43.4167 117.535 43.3723 117.621C43.3279 117.707 43.3279 117.81 43.3751 117.93C43.4556 118.127 43.5806 118.235 43.7556 118.257C43.925 118.28 44.3943 118.271 45.1608 118.227C45.8134 118.188 46.2633 118.177 46.5161 118.196C46.766 118.213 46.9993 118.288 47.2187 118.418C47.4381 118.549 47.6047 118.752 47.7158 119.032C47.8963 119.479 47.8436 119.91 47.5575 120.321C47.2715 120.732 46.7549 121.123 46.0023 121.496L46.1939 121.968L45.1525 122.387L44.9553 121.898C44.3388 122.109 43.7583 122.193 43.214 122.148C42.6724 122.104 42.2892 121.804 42.0643 121.243L41.9643 120.998L44.2249 120.087L44.3499 120.396C44.486 120.735 44.5943 120.935 44.672 120.998C44.7526 121.062 44.8803 121.057 45.0608 120.985C45.2136 120.923 45.3163 120.848 45.3663 120.762C45.4191 120.676 45.4219 120.576 45.3774 120.462C45.2636 120.182 45.1469 119.993 45.0275 119.901C44.9081 119.81 44.6137 119.774 44.1416 119.799C43.3557 119.838 42.8141 119.849 42.5197 119.835C42.2253 119.821 41.9476 119.749 41.6838 119.615C41.42 119.482 41.2366 119.288 41.1311 119.029C40.9811 118.654 41.0534 118.282 41.3505 117.916C41.6477 117.549 42.167 117.185 42.9113 116.827L42.7502 116.427L43.7917 116.008L43.9527 116.408C44.6692 116.177 45.2441 116.097 45.6774 116.166C46.1079 116.236 46.3994 116.458 46.5494 116.83C46.5716 116.883 46.5938 116.963 46.6216 117.074Z" fill="white"/>
<g style="mix-blend-mode:screen" opacity="0.7">
<path style="mix-blend-mode:screen" d="M43.9666 116.402V116.408C44.5914 116.208 45.108 116.119 45.5162 116.147C45.108 116.116 44.5914 116.202 43.9666 116.402Z" fill="url(#paint5_linear_1246_20579)"/>
<path style="mix-blend-mode:screen" d="M43.9361 117.346C43.9695 117.348 44 117.357 44.0222 117.373C44.1027 117.421 44.1861 117.554 44.2749 117.776L44.3583 117.984L44.3721 117.979L44.2916 117.776C44.2027 117.554 44.1194 117.421 44.0361 117.373C44.0083 117.357 43.9722 117.348 43.9333 117.346H43.9361Z" fill="url(#paint6_linear_1246_20579)"/>
<path style="mix-blend-mode:screen" d="M45.3858 120.763C45.4386 120.676 45.4414 120.576 45.3969 120.463C45.2831 120.182 45.1664 119.993 45.047 119.902C44.9748 119.846 44.8387 119.81 44.636 119.799C44.8276 119.813 44.9581 119.849 45.0303 119.902C45.1497 119.996 45.2664 120.182 45.3803 120.463C45.4247 120.574 45.4219 120.674 45.3691 120.763C45.3191 120.849 45.2164 120.924 45.0636 120.985C44.9609 121.026 44.8748 121.046 44.8054 121.043C44.8776 121.051 44.9692 121.032 45.0803 120.987C45.2331 120.926 45.3358 120.851 45.3858 120.765V120.763Z" fill="url(#paint7_linear_1246_20579)"/>
<path style="mix-blend-mode:screen" d="M46.5133 118.193C46.2634 118.174 45.8107 118.185 45.1581 118.224C44.4777 118.262 44.0333 118.274 43.8223 118.26C44.025 118.276 44.4749 118.262 45.1748 118.224C45.8135 118.185 46.2606 118.176 46.5133 118.193Z" fill="url(#paint8_linear_1246_20579)"/>
<path style="mix-blend-mode:screen" d="M44.972 121.9C44.972 121.9 44.9637 121.903 44.9581 121.906L45.1526 122.389L45.1664 122.384L44.972 121.903V121.9Z" fill="url(#paint9_linear_1246_20579)"/>
<path style="mix-blend-mode:screen" d="M43.2306 122.151C42.6891 122.107 42.3058 121.807 42.0781 121.246L41.9809 121.002L44.2276 120.096V120.088L41.9642 120.999L42.0642 121.243C42.2892 121.804 42.6724 122.104 43.214 122.149C43.2306 122.149 43.2501 122.151 43.2667 122.151C43.2556 122.151 43.2418 122.151 43.2306 122.151Z" fill="url(#paint10_linear_1246_20579)"/>
<path style="mix-blend-mode:screen" d="M42.4753 119.832C42.2059 119.813 41.9476 119.74 41.7032 119.618C41.4394 119.485 41.2561 119.29 41.1506 119.029C41.0006 118.654 41.0728 118.282 41.3672 117.916C41.6644 117.549 42.1837 117.185 42.928 116.827L42.7669 116.427L43.7945 116.013V116.008L42.7502 116.427L42.9113 116.827C42.167 117.185 41.6449 117.546 41.3505 117.916C41.0534 118.282 40.9811 118.654 41.1311 119.029C41.2339 119.288 41.42 119.485 41.6838 119.615C41.9337 119.74 42.1976 119.813 42.4753 119.832Z" fill="url(#paint11_linear_1246_20579)"/>
</g>
</g>
<g filter="url(#filter1_d_1246_20579)">
<path d="M143.104 89.6388C144.046 88.4183 143.608 85.941 141.981 83.7769C140.353 81.6129 138.096 80.5034 136.662 81.0682L136.646 80.9968L136.388 81.1949C135.014 82.2285 135.359 85.0096 137.161 87.4052C138.962 89.8012 141.536 90.9049 142.912 89.8725L143.172 89.674L143.106 89.64L143.104 89.6388Z" fill="#D16A0D"/>
<path d="M143.551 89.3889C143.471 89.4499 143.442 89.4802 143.378 89.5248C143.353 89.5417 143.204 89.6591 143.17 89.6749C141.74 90.3126 139.375 89.1856 137.719 86.983C136.024 84.7286 135.653 82.1301 136.648 80.9985C136.648 80.9985 136.947 80.7739 137.029 80.7141C138.405 79.6801 140.979 80.7855 142.78 83.1815C144.581 85.5774 144.928 88.3581 143.553 89.3901L143.551 89.3889Z" fill="#D16A0D"/>
<path d="M143.611 89.3432C142.238 90.3768 139.661 89.2719 137.86 86.8759C136.059 84.4799 135.713 81.6992 137.087 80.6672C138.461 79.6336 141.037 80.7386 142.838 83.1346C144.639 85.5306 144.986 88.3112 143.611 89.3432Z" fill="url(#paint12_linear_1246_20579)"/>
<g style="mix-blend-mode:screen" opacity="0.5">
<path d="M142.824 83.1456C144.622 85.5372 144.97 88.3106 143.604 89.3489C143.607 89.348 143.609 89.346 143.611 89.3435C144.987 88.3095 144.641 85.5304 142.838 83.1349C141.037 80.7389 138.463 79.6335 137.087 80.6675C137.084 80.6684 137.083 80.6704 137.08 80.6729C138.457 79.6489 141.024 80.7544 142.823 83.146L142.824 83.1456Z" fill="#FEF0A0"/>
</g>
<path d="M143.096 88.6581C141.938 89.5289 139.769 88.5985 138.254 86.58C136.736 84.562 136.446 82.222 137.604 81.3512C138.762 80.4804 140.93 81.4109 142.446 83.4293C143.963 85.4473 144.254 87.7889 143.096 88.6581Z" fill="url(#paint13_linear_1246_20579)"/>
<path d="M143.096 88.6581C141.938 89.5289 139.769 88.5985 138.254 86.58C136.736 84.562 136.446 82.222 137.604 81.3512C138.762 80.4804 140.93 81.4109 142.446 83.4293C143.963 85.4473 144.254 87.7889 143.096 88.6581Z" fill="url(#paint14_linear_1246_20579)"/>
<g style="mix-blend-mode:multiply">
<path d="M142.446 83.4284C143.959 85.4408 144.252 87.7747 143.105 88.6514C143.108 88.6506 143.11 88.6465 143.113 88.6456C144.271 87.7748 143.979 85.4336 142.462 83.4172C140.945 81.3992 138.777 80.4703 137.62 81.3391C137.617 81.3416 137.614 81.3441 137.612 81.3465C138.771 80.489 140.932 81.418 142.445 83.4304L142.446 83.4284Z" fill="#FEF0A0"/>
</g>
<g style="mix-blend-mode:screen" opacity="0.3">
<path d="M138.254 86.5815C136.741 84.5675 136.447 82.2319 137.597 81.358C137.594 81.3589 137.593 81.3609 137.59 81.3634C136.432 82.2342 136.724 84.5738 138.24 86.5922C139.757 88.6103 141.926 89.5407 143.082 88.6704C143.085 88.6695 143.086 88.6675 143.089 88.665C141.93 89.5258 139.767 88.5956 138.254 86.5815Z" fill="#FEF0A0"/>
</g>
<path opacity="0.4" d="M142.352 83.5003C143.856 85.4996 144.185 87.793 143.064 88.6813C143.074 88.6735 143.086 88.6669 143.096 88.6574C144.254 87.7882 143.962 85.4471 142.446 83.4286C140.929 81.4106 138.761 80.4817 137.604 81.3505C137.594 81.3583 137.584 81.3661 137.573 81.3744C138.738 80.5446 140.849 81.499 142.353 83.4983L142.352 83.5003Z" fill="#D16A0D"/>
<g style="mix-blend-mode:multiply" opacity="0.4">
<path d="M141.204 86.5065C141.245 86.3595 141.252 86.2131 141.223 86.0645C141.196 85.9171 141.119 85.6574 140.996 85.2879C140.852 84.852 140.773 84.5826 140.761 84.4809C140.747 84.3763 140.79 84.2874 140.891 84.2103C140.953 84.1646 141.011 84.1491 141.069 84.161C141.126 84.175 141.182 84.2167 141.235 84.2867C141.302 84.3755 141.328 84.4459 141.313 84.4998C141.298 84.5536 141.234 84.6224 141.119 84.7081L141.031 84.6491L141.012 84.7901L141.888 85.955C141.948 85.9218 141.993 85.8945 142.018 85.8755C142.21 85.7313 142.292 85.5304 142.265 85.2694C142.24 85.0096 142.105 84.6899 141.859 84.3105L142.066 84.1551L142.084 84.0146L141.971 84.0121L141.661 83.6188L141.454 83.7742C141.131 83.3997 140.842 83.1539 140.583 83.041C140.325 82.9261 140.099 82.942 139.906 83.0867C139.773 83.1876 139.687 83.324 139.651 83.4971C139.615 83.6701 139.616 83.8418 139.655 84.0135C139.693 84.1858 139.784 84.4949 139.927 84.9449C140.013 85.2142 140.04 85.3895 140.006 85.4742C139.971 85.5574 139.88 85.654 139.736 85.7632C139.678 85.8061 139.62 85.82 139.562 85.8028C139.504 85.7856 139.446 85.7395 139.386 85.6591C139.317 85.5676 139.294 85.4931 139.318 85.4366C139.342 85.3802 139.441 85.2867 139.616 85.1557L139.693 85.0971L139.775 85.0357L139.794 84.8948L139.649 84.8287L138.898 83.8692L138.771 83.9652C138.481 84.182 138.367 84.4498 138.427 84.7691C138.485 85.0888 138.625 85.4108 138.841 85.7364L138.608 85.785L138.589 85.9243L138.992 86.4611L139.235 86.2773C139.567 86.6545 139.873 86.8923 140.155 86.9939C140.437 87.0955 140.693 87.0594 140.924 86.8859C141.069 86.7783 141.162 86.6502 141.201 86.5037L141.204 86.5065Z" fill="#AA7E03"/>
</g>
<path d="M141.906 85.8143L141.03 84.6494L141.137 84.569C141.252 84.4833 141.317 84.4125 141.33 84.3607C141.345 84.3068 141.32 84.2364 141.253 84.1476C141.199 84.076 141.143 84.0343 141.087 84.0219C141.03 84.0096 140.971 84.0255 140.909 84.0712C140.808 84.1483 140.764 84.2372 140.779 84.3418C140.792 84.4431 140.869 84.7129 141.014 85.1488C141.137 85.5199 141.213 85.778 141.241 85.927C141.27 86.074 141.263 86.2204 141.222 86.3674C141.18 86.5143 141.089 86.642 140.944 86.7496C140.714 86.9231 140.457 86.9592 140.175 86.8576C139.893 86.7559 139.587 86.5181 139.256 86.141L139.013 86.3248L138.609 85.788L138.861 85.5984C138.644 85.2749 138.506 84.9525 138.447 84.6312C138.389 84.3114 138.503 84.0436 138.792 83.8268L138.918 83.7312L139.794 84.8962L139.635 85.0161C139.461 85.1472 139.362 85.2407 139.337 85.2955C139.312 85.3519 139.335 85.4249 139.405 85.518C139.464 85.5968 139.523 85.6445 139.581 85.6601C139.639 85.6772 139.697 85.6633 139.756 85.62C139.9 85.5109 139.991 85.4142 140.026 85.3311C140.06 85.2479 140.035 85.0722 139.948 84.8034C139.804 84.3553 139.714 84.0442 139.676 83.872C139.638 83.6998 139.637 83.5282 139.673 83.3551C139.71 83.1821 139.793 83.0461 139.926 82.9451C140.12 82.8004 140.346 82.7846 140.604 82.8995C140.861 83.0144 141.152 83.2581 141.474 83.6326L141.68 83.4777L142.084 84.0144L141.878 84.1694C142.122 84.5476 142.257 84.8673 142.284 85.1283C142.311 85.3877 142.227 85.5906 142.036 85.7348C142.009 85.7558 141.966 85.7811 141.906 85.8143Z" fill="white"/>
<g style="mix-blend-mode:screen" opacity="0.7">
<path style="mix-blend-mode:screen" d="M141.883 84.1772L141.88 84.1781C142.092 84.5081 142.223 84.7927 142.271 85.0329C142.225 84.7923 142.095 84.5072 141.883 84.1772Z" fill="url(#paint15_linear_1246_20579)"/>
<path style="mix-blend-mode:screen" d="M141.333 84.3043C141.336 84.324 141.336 84.343 141.33 84.3584C141.315 84.4122 141.251 84.481 141.137 84.5667L141.029 84.6471L141.035 84.6542L141.139 84.5763C141.254 84.4906 141.318 84.4218 141.332 84.3664C141.338 84.3478 141.337 84.3256 141.332 84.3027L141.333 84.3043Z" fill="url(#paint16_linear_1246_20579)"/>
<path style="mix-blend-mode:screen" d="M139.584 85.6722C139.642 85.6893 139.7 85.6755 139.759 85.6322C139.903 85.523 139.994 85.4264 140.029 85.3432C140.05 85.2929 140.05 85.2087 140.025 85.0898C140.046 85.2027 140.046 85.2837 140.026 85.3336C139.99 85.4172 139.901 85.5134 139.756 85.6226C139.699 85.6654 139.641 85.6793 139.581 85.6626C139.524 85.647 139.465 85.5993 139.406 85.5205C139.366 85.4676 139.341 85.4208 139.332 85.3803C139.338 85.4233 139.364 85.4732 139.407 85.5305C139.466 85.6093 139.525 85.6571 139.582 85.6726L139.584 85.6722Z" fill="url(#paint17_linear_1246_20579)"/>
<path style="mix-blend-mode:screen" d="M141.243 85.9252C141.215 85.7778 141.139 85.518 141.015 85.147C140.887 84.76 140.812 84.505 140.788 84.3809C140.809 84.5006 140.887 84.7584 141.018 85.1567C141.139 85.5196 141.213 85.7767 141.243 85.9252Z" fill="url(#paint18_linear_1246_20579)"/>
<path style="mix-blend-mode:screen" d="M138.862 85.6076C138.862 85.6076 138.859 85.6032 138.857 85.6005L138.608 85.7876L138.613 85.7947L138.861 85.6081L138.862 85.6076Z" fill="url(#paint19_linear_1246_20579)"/>
<path style="mix-blend-mode:screen" d="M138.448 84.6409C138.39 84.3211 138.504 84.0533 138.793 83.8349L138.919 83.7409L139.79 84.8987L139.795 84.8974L138.918 83.7308L138.792 83.8265C138.503 84.0432 138.389 84.3111 138.447 84.6308C138.45 84.6404 138.451 84.6521 138.454 84.6617C138.452 84.6553 138.45 84.6473 138.448 84.6409Z" fill="url(#paint20_linear_1246_20579)"/>
<path style="mix-blend-mode:screen" d="M139.671 83.8459C139.64 83.6873 139.642 83.5269 139.675 83.3668C139.711 83.1937 139.795 83.0577 139.929 82.9564C140.123 82.8117 140.349 82.7958 140.606 82.9091C140.864 83.024 141.155 83.2677 141.477 83.6423L141.683 83.4873L142.081 84.0169L142.084 84.016L141.68 83.4777L141.474 83.6326C141.152 83.2581 140.863 83.0124 140.604 82.8995C140.346 82.7846 140.12 82.8004 139.926 82.9451C139.793 83.0445 139.708 83.1825 139.673 83.3551C139.64 83.5189 139.639 83.6824 139.671 83.8459Z" fill="url(#paint21_linear_1246_20579)"/>
</g>
</g>
<g style="mix-blend-mode:multiply">
<path d="M53.309 67.8973C53.3059 67.8061 53.2998 67.7149 53.2877 67.6268C53.2755 67.5295 53.2634 67.4322 53.2451 67.335C53.2238 67.2286 53.1995 67.1192 53.1722 67.0128C53.1387 66.8912 53.0992 66.7696 53.0536 66.6511C52.9989 66.5021 52.932 66.3562 52.856 66.2164C52.7314 65.9823 52.5855 65.7605 52.4123 65.5507C52.3028 65.42 52.1843 65.2924 52.0566 65.1738C51.929 65.0553 51.7922 64.9458 51.6554 64.8455L51.5429 64.7422L51.5277 64.7574L51.4183 64.8759L51.2937 65.0127L51.1691 65.1495L51.0444 65.2863L50.9198 65.4231L50.7952 65.5598L50.6675 65.6966L50.5429 65.8334L50.4153 65.9702L50.2906 66.107L50.163 66.2438L50.0384 66.3805L49.9137 66.5173L49.7891 66.6541L49.6615 66.7909L49.5368 66.9277L49.4122 67.0644L49.2845 67.2012L49.1599 67.338L49.0322 67.4748L48.9076 67.6116L48.783 67.7483L48.6584 67.8851L48.5307 68.0219L48.4061 68.1587L48.2784 68.2955L48.1538 68.4323L48.0291 68.569L47.9046 68.7058L47.7769 68.8426L47.6522 68.9794L47.5276 69.1162L47.4 69.253L47.2753 69.3897L47.1507 69.5265L47.0231 69.6633L46.8984 69.8001L46.7738 69.9369L46.6492 70.0736L46.5246 70.2104L46.3999 70.3472L46.2905 70.4658L46.2753 70.484L46.3878 70.5873C46.4972 70.718 46.6157 70.8457 46.7434 70.9643C46.8711 71.0828 47.0048 71.1922 47.1447 71.2925C47.3665 71.4506 47.6006 71.5813 47.8407 71.6877C47.9866 71.7515 48.1386 71.8062 48.2906 71.8518C48.4122 71.8883 48.5368 71.9187 48.6614 71.943C48.7678 71.9643 48.8772 71.9795 48.9866 71.9916C49.0839 72.0038 49.1842 72.0099 49.2815 72.0129C49.3727 72.016 49.4638 72.0129 49.552 72.0129C49.6371 72.0099 49.7222 72.0038 49.8073 71.9947C49.8864 71.9856 49.9654 71.9764 50.0444 71.9643C50.1204 71.9521 50.1964 71.9369 50.2694 71.9217C50.3423 71.9065 50.4122 71.8883 50.4821 71.867C50.552 71.8488 50.6189 71.8275 50.6858 71.8032C50.7496 71.7819 50.8165 71.7576 50.8803 71.7302C50.9411 71.7059 51.005 71.6786 51.0657 71.6482C51.1265 71.6208 51.1843 71.5904 51.242 71.56C51.2998 71.5296 51.3545 71.4992 51.4122 71.4658C51.4669 71.4324 51.5217 71.3989 51.5733 71.3624C51.625 71.329 51.6767 71.2925 51.7284 71.253C51.78 71.2165 51.8287 71.177 51.8773 71.1375C51.9259 71.098 51.9715 71.0585 52.0202 71.0159C52.0657 70.9764 52.1114 70.9339 52.157 70.8883C52.1995 70.8457 52.2451 70.8001 52.2876 70.7545C52.3302 70.7089 52.3697 70.6633 52.4092 70.6147C52.4487 70.5661 52.4883 70.5205 52.5247 70.4688C52.5642 70.4202 52.6007 70.3685 52.6342 70.3199C52.6706 70.2682 52.7041 70.2165 52.7375 70.1618C52.771 70.1071 52.8044 70.0524 52.8348 69.9977C52.8652 69.9429 52.8956 69.8852 52.9229 69.8274C52.9533 69.7697 52.9807 69.7089 53.005 69.6511C53.0324 69.5904 53.0567 69.5296 53.081 69.4688C53.1053 69.4049 53.1266 69.3411 53.1479 69.2773C53.1691 69.2104 53.1874 69.1435 53.2056 69.0767C53.2238 69.0067 53.239 68.9368 53.2542 68.87C53.2694 68.797 53.2816 68.7241 53.2907 68.6511C53.3029 68.5751 53.312 68.4991 53.3181 68.4231C53.3241 68.3441 53.3302 68.262 53.3333 68.183C53.3333 68.0979 53.3333 68.0128 53.3333 67.9277L53.309 67.8973Z" fill="#D16A0D"/>
</g>
<path d="M47.7374 64.3088C49.7344 63.4668 52.0384 64.4061 52.8774 66.4031C53.7193 68.4001 52.7801 70.7041 50.7831 71.5431C48.7861 72.385 46.482 71.4458 45.6431 69.4488C44.8011 67.4518 45.7404 65.1477 47.7374 64.3088Z" fill="url(#paint22_linear_1246_20579)"/>
<g style="mix-blend-mode:screen" opacity="0.5">
<path d="M46.3999 65.2733C47.871 63.6866 50.3514 63.5924 51.9381 65.0575C51.9381 65.0575 51.932 65.0514 51.9289 65.0483C50.3392 63.5741 47.8559 63.6653 46.3817 65.255C44.9075 66.8447 44.9986 69.3281 46.5883 70.8023L46.5975 70.8114C45.0169 69.3342 44.9287 66.8569 46.3999 65.2733Z" fill="#FEF0A0"/>
</g>
<path d="M51.5065 65.5045C52.844 66.7477 52.923 68.839 51.6798 70.1764C50.4366 71.5138 48.3453 71.5928 47.0079 70.3496C45.6705 69.1064 45.5915 67.0152 46.8347 65.6778C48.0779 64.3403 50.1691 64.2613 51.5065 65.5045Z" fill="url(#paint23_linear_1246_20579)"/>
<path d="M50.3392 67.2679C50.1781 67.2102 50.0322 67.1859 49.9046 67.2011C49.7739 67.2132 49.5611 67.2618 49.2602 67.35C48.9045 67.4503 48.6826 67.502 48.5915 67.505C48.4972 67.5081 48.3908 67.4533 48.2692 67.3409C48.1963 67.274 48.1538 67.2102 48.1386 67.1524C48.1234 67.0947 48.1385 67.043 48.1811 66.9944C48.2358 66.9366 48.2936 66.9153 48.3513 66.9366C48.4091 66.9579 48.5063 67.0308 48.6431 67.1585L48.6948 67.2071L48.6583 67.2466L48.7708 67.277L49.4881 66.505C49.4273 66.4381 49.3818 66.3925 49.3483 66.3621C49.1203 66.1494 48.8863 66.043 48.6462 66.043C48.406 66.043 48.1598 66.1463 47.9106 66.356L47.6644 66.1281L47.5519 66.0977L47.6279 66.1676L47.3331 66.4837L47.5792 66.7117C47.3665 67.0004 47.2662 67.274 47.2753 67.5263C47.2844 67.7786 47.406 68.0126 47.637 68.2254C47.7951 68.3743 47.9683 68.4746 48.1507 68.5294C48.3331 68.5841 48.5003 68.6023 48.6492 68.581C48.7981 68.5598 49.0535 68.502 49.4213 68.4017C49.6401 68.3409 49.7982 68.3348 49.8954 68.3804C49.9927 68.426 50.1265 68.5294 50.2997 68.6905C50.3696 68.7543 50.4091 68.8151 50.4213 68.8728C50.4335 68.9306 50.4152 68.9853 50.3666 69.037C50.3088 69.0978 50.248 69.113 50.1842 69.0826C50.1204 69.0522 49.9836 68.9397 49.7739 68.7482L49.6827 68.6631L49.5854 68.5719L49.4729 68.5415L49.5489 68.6114L48.868 69.344L49.02 69.4838C49.3635 69.803 49.6766 69.9489 49.9593 69.9245C50.242 69.8972 50.4882 69.7908 50.7009 69.6054L50.9259 69.8121L50.8894 69.8516L51.0018 69.882L51.3332 69.5264L51.0414 69.2558C51.2511 68.9549 51.3392 68.6661 51.3058 68.3895C51.2724 68.1129 51.1173 67.8455 50.8407 67.5901C50.6675 67.429 50.5003 67.3226 50.3423 67.2649L50.3392 67.2679Z" fill="#D16A0D"/>
<path d="M49.3758 66.4748L48.6584 67.2469L48.5307 67.1283C48.394 67.0007 48.2967 66.9277 48.239 66.9065C48.1812 66.8852 48.1234 66.9065 48.0687 66.9642C48.0262 67.0098 48.011 67.0645 48.0232 67.1192C48.0383 67.177 48.0809 67.2378 48.1538 67.3077C48.2754 67.4201 48.3818 67.4749 48.476 67.4718C48.5672 67.4718 48.7922 67.4171 49.1447 67.3168C49.4457 67.2317 49.6615 67.18 49.7891 67.1679C49.9198 67.1557 50.0627 67.177 50.2238 67.2347C50.3849 67.2925 50.5521 67.4019 50.7223 67.56C50.9989 67.8153 51.1539 68.0828 51.1874 68.3594C51.2208 68.639 51.1326 68.9278 50.9229 69.2257L51.2147 69.4962L50.8834 69.8518L50.5825 69.5722C50.3697 69.7606 50.1235 69.867 49.8408 69.8913C49.5581 69.9157 49.2451 69.7698 48.9016 69.4506L48.7496 69.3108L49.467 68.5387L49.6554 68.715C49.8621 68.9065 49.9989 69.019 50.0658 69.0494C50.1296 69.0798 50.1904 69.0646 50.2481 69.0038C50.2968 68.9521 50.315 68.8974 50.3029 68.8396C50.2907 68.7819 50.2512 68.7211 50.1813 68.6573C50.008 68.4962 49.8712 68.3928 49.774 68.3472C49.6767 68.3016 49.5186 68.3107 49.2998 68.3685C48.932 68.4688 48.6766 68.5266 48.5277 68.5478C48.3788 68.5691 48.2146 68.5478 48.0292 68.4962C47.8468 68.4415 47.6736 68.3381 47.5155 68.1922C47.2845 67.9794 47.1629 67.7454 47.1538 67.4931C47.1447 67.2408 47.245 66.9703 47.4578 66.6785L47.2116 66.4505L47.5429 66.0949L47.7891 66.3228C48.0414 66.1131 48.2876 66.0098 48.5277 66.0098C48.7678 66.0098 49.0019 66.1192 49.2299 66.3289C49.2603 66.3593 49.3089 66.4049 49.3697 66.4718L49.3758 66.4748Z" fill="white"/>
<g style="mix-blend-mode:screen" opacity="0.7">
<path style="mix-blend-mode:screen" d="M47.8011 66.3196H47.8041C48.023 66.1402 48.2358 66.0369 48.4455 66.0156C48.2358 66.0369 48.02 66.1372 47.7981 66.3196H47.8011Z" fill="url(#paint24_linear_1246_20579)"/>
<path style="mix-blend-mode:screen" d="M48.1811 66.8996C48.1993 66.8996 48.2176 66.8996 48.2358 66.9087C48.2936 66.93 48.3908 67.003 48.5276 67.1306L48.6553 67.2492V67.2431L48.5367 67.1276C48.4 66.9999 48.3027 66.927 48.2449 66.9057C48.2237 66.8996 48.2024 66.8966 48.1841 66.8996H48.1811Z" fill="url(#paint25_linear_1246_20579)"/>
<path style="mix-blend-mode:screen" d="M50.321 68.8423C50.3088 68.7846 50.2693 68.7238 50.1994 68.66C50.0261 68.4989 49.8894 68.3955 49.7951 68.3499C49.7374 68.3226 49.6553 68.3134 49.5519 68.3256C49.6522 68.3165 49.7282 68.3256 49.786 68.3499C49.8833 68.3955 50.0201 68.4989 50.1933 68.66C50.2632 68.7238 50.3027 68.7846 50.3149 68.8423C50.327 68.9001 50.3088 68.9548 50.2602 69.0065C50.2268 69.0399 50.1933 69.0612 50.1599 69.0673C50.1994 69.0673 50.2359 69.0429 50.2693 69.0065C50.318 68.9548 50.3362 68.9001 50.324 68.8423H50.321Z" fill="url(#paint26_linear_1246_20579)"/>
<path style="mix-blend-mode:screen" d="M49.7921 67.168C49.6614 67.1801 49.4486 67.2288 49.1477 67.3169C48.8346 67.4051 48.6219 67.4567 48.5155 67.4689C48.6219 67.4598 48.8347 67.4081 49.1569 67.3169C49.4517 67.2318 49.6645 67.1832 49.7952 67.168H49.7921Z" fill="url(#paint27_linear_1246_20579)"/>
<path style="mix-blend-mode:screen" d="M50.5946 69.5742H50.5886L50.8864 69.8539V69.8478L50.5946 69.5742Z" fill="url(#paint28_linear_1246_20579)"/>
<path style="mix-blend-mode:screen" d="M49.8559 69.8965C49.5732 69.9208 49.2601 69.7749 48.9167 69.4557L48.7647 69.3159L49.4759 68.5469H49.4729L48.7556 69.3159L48.9075 69.4557C49.251 69.7749 49.5641 69.9208 49.8468 69.8965C49.8559 69.8965 49.865 69.8965 49.8741 69.8965C49.8681 69.8965 49.862 69.8965 49.8559 69.8965Z" fill="url(#paint29_linear_1246_20579)"/>
<path style="mix-blend-mode:screen" d="M48.5155 68.5534C48.3757 68.5686 48.2207 68.5474 48.0504 68.4987C47.8681 68.444 47.6948 68.3407 47.5367 68.1948C47.3057 67.982 47.1842 67.7479 47.175 67.4957C47.1659 67.2434 47.2662 66.9728 47.479 66.681L47.2328 66.4531L47.558 66.1035H47.555L47.2237 66.4561L47.4699 66.6841C47.2571 66.9728 47.1568 67.2464 47.1659 67.4987C47.175 67.751 47.2966 67.985 47.5276 68.1978C47.6857 68.3467 47.8589 68.4471 48.0413 68.5018C48.2146 68.5534 48.3727 68.5717 48.5155 68.5565V68.5534Z" fill="url(#paint30_linear_1246_20579)"/>
</g>
<path d="M35.6792 49.2022C40.9754 50.3474 37.5167 45.971 38.8926 45.1201C32.4254 42.208 31.6706 39.969 30.0822 36.3782L25.1368 43.2154C28.4973 46.3366 33.0144 48.6261 35.6792 49.2022Z" fill="url(#paint31_linear_1246_20579)"/>
<path d="M88.1367 56.2313C89.418 56.3306 90.4212 57.3338 90.5206 58.6151L90.6298 60.0852H90.7886L90.898 58.6151C90.9973 57.3338 92.0004 56.3306 93.2817 56.2313L94.7517 56.1221V55.9631L93.2817 55.8539C92.0004 55.7545 90.9973 54.7513 90.898 53.47L90.7886 52H90.6298L90.5206 53.47C90.4212 54.7513 89.418 55.7545 88.1367 55.8539L86.6667 55.9631V56.1221L88.1367 56.2313Z" fill="white"/>
<path d="M54.0285 104.702C54.6245 104.752 55.0913 105.219 55.141 105.815L55.1907 106.51H55.3198L55.3696 105.815C55.4192 105.219 55.886 104.752 56.482 104.702L57.1772 104.653V104.523L56.482 104.474C55.886 104.424 55.4192 103.957 55.3696 103.361L55.3198 102.666H55.1907L55.141 103.361C55.0913 103.957 54.6245 104.424 54.0285 104.474L53.3333 104.523V104.653L54.0285 104.702Z" fill="white"/>
<path d="M39.8864 103.523C40.9161 103.604 41.729 104.417 41.8103 105.447L41.8917 106.667H42.1084L42.1897 105.447C42.271 104.417 43.0839 103.604 44.1137 103.523L45.3334 103.442V103.225L44.1137 103.144C43.0839 103.062 42.271 102.249 42.1897 101.22L42.1084 100H41.8917L41.8103 101.22C41.729 102.249 40.9161 103.062 39.8864 103.144L38.6667 103.225V103.442L39.8864 103.523Z" fill="white"/>
<path d="M96.5913 40.5421C99.442 40.3236 101.657 38.0986 101.876 35.2579L102.124 32H102.481L102.73 35.2579C102.948 38.1086 105.173 40.3236 108.014 40.5421L111.272 40.7904V41.148L108.014 41.3963C105.163 41.6148 102.948 43.8397 102.73 46.6804L102.481 49.9383H102.124L101.876 46.6804C101.657 43.8298 99.432 41.6148 96.5913 41.3963L93.3334 41.148V40.7904L96.5913 40.5421Z" fill="white"/>
<path d="M121.624 65.9385C120.726 61.8961 117.133 57.4046 118.48 53.8113C117.402 53.0926 115.785 57.4045 117.582 61.8961C117.732 62.495 120.726 65.0402 121.624 65.9385Z" fill="#D9D9D9"/>
<path d="M117.582 55.6078C116.652 58.1668 117.133 60.5486 117.582 61.8961C108.643 45.5296 122.074 43.9297 127.464 42.7627C127.464 42.7627 127.464 46.1755 127.913 47.523C128.811 49.3196 132.854 50.6671 132.854 50.6671C132.405 52.0146 119.379 50.6671 117.582 55.6078Z" fill="url(#paint32_linear_1246_20579)"/>
<path d="M94.2516 95.5359C101.356 92.5247 104.674 84.3247 101.663 77.2206C98.6515 70.1165 90.4515 66.7985 83.3474 69.8096C76.2433 72.8207 72.9253 81.0207 75.9364 88.1249C78.9475 95.229 87.1475 98.547 94.2516 95.5359Z" fill="url(#paint33_linear_1246_20579)"/>
<path d="M92.926 92.4254C98.3119 90.1448 100.829 83.9298 98.5485 78.5439C96.2679 73.158 90.053 70.6407 84.6671 72.9213C79.2812 75.202 76.7639 81.4169 79.0445 86.8028C81.3251 92.1887 87.5401 94.706 92.926 92.4254Z" fill="#EBEBEB"/>
<path d="M96.2635 83.8693C96.9261 79.746 94.1207 75.8662 89.9974 75.2035C85.8741 74.5409 81.9942 77.3463 81.3316 81.4696C80.6689 85.5929 83.4743 89.4727 87.5977 90.1354C91.721 90.7981 95.6008 87.9927 96.2635 83.8693Z" fill="url(#paint34_linear_1246_20579)"/>
<path d="M94.0057 82.6723C94.0057 85.5465 91.6764 87.8758 88.8022 87.8758C85.928 87.8758 83.5987 85.5465 83.5987 82.6723C83.5987 79.798 85.928 77.4688 88.8022 77.4688C91.6764 77.4688 94.0057 79.798 94.0057 82.6723Z" fill="#EBEBEB"/>
<path d="M91.199 82.6731C91.199 83.9993 90.1236 85.0747 88.7974 85.0747C87.4712 85.0747 86.3958 83.9993 86.3958 82.6731C86.3958 81.3469 87.4712 80.2715 88.7974 80.2715C90.1236 80.2715 91.199 81.3469 91.199 82.6731Z" fill="#EE4730"/>
<path d="M106.699 73.4381C106.482 73.1969 105.835 72.353 104.389 73.6599C103.014 74.9041 101.346 76.6788 101.346 76.6788C101.346 76.6788 103.704 76.0663 105.454 75.4587C107.292 74.8173 106.872 73.7178 106.699 73.4381Z" fill="#F5523F"/>
<path d="M104.659 73.9961L102.233 74.922C101.505 75.2017 100.801 75.5441 100.13 75.9492L88.7974 82.8165L100.203 78.129C101.49 77.5985 102.682 76.8703 103.738 75.9637L105.035 74.8497C104.852 74.5989 104.721 74.3047 104.659 73.9961Z" fill="#1B2847"/>
<path d="M101.013 76.6779C101.013 76.6779 101.341 73.0899 103.299 71.5756C105.257 70.0613 104.842 74.4836 104.842 74.4836L101.018 76.6779H101.013Z" fill="#D92402"/>
<path d="M101.013 76.6589C101.013 76.6589 104.283 78.1731 106.573 77.2327C108.864 76.2923 104.828 74.4453 104.828 74.4453L101.013 76.6589Z" fill="#EE4831"/>
<path d="M70.3512 66.478C70.3512 66.478 66.0784 67.5438 62.8762 69.9165C59.674 72.2892 56.3513 79.6436 55.7003 84.8037C55.0492 89.9638 53.7423 94.0003 55.7003 96.6382C57.6582 99.2761 64.0047 99.8114 69.4638 100.347C74.9229 100.882 82.4509 99.5751 83.9652 97.6751C85.4795 95.775 85.3589 81.4086 82.5136 75.9881C79.6683 70.5676 74.5034 66.3527 70.3512 66.4732V66.478Z" fill="url(#paint35_linear_1246_20579)"/>
<path d="M69.758 67.5435C69.758 67.5435 65.1766 66.4295 64.5544 62.9621C63.9275 59.4898 65.7504 58.289 67.1538 59.0896C68.5572 59.8901 68.779 59.4609 69.758 58.8533C70.7369 58.2456 72.1596 59.2246 72.8733 60.247C73.5871 61.2694 73.7173 60.0685 75.41 59.9335C77.1027 59.7985 77.6766 61.3562 76.7892 63.4057C75.8971 65.4505 75.0531 67.6303 69.758 67.5435Z" fill="url(#paint36_linear_1246_20579)"/>
<path d="M66.4207 65.8945L66.006 68.0791C66.006 68.0791 67.1779 69.2076 70.3656 69.2076C73.5533 69.2076 75.2749 68.0791 75.2749 68.0791L75.0675 66.1067C75.0675 66.1067 70.708 67.2111 66.4207 65.8945Z" fill="#7CF3FF"/>
<path d="M90.6699 92.6179C92.4281 96.7881 90.4668 101.6 86.2965 103.351C82.1262 105.11 77.3149 103.148 75.563 98.978C73.8047 94.8077 75.7661 89.9964 79.9364 88.2445C84.1066 86.4862 88.918 88.4476 90.6699 92.6179Z" fill="url(#paint37_linear_1246_20579)"/>
<path d="M88.1708 100.491C85.5747 103.284 81.2077 103.449 78.4148 100.853C75.6219 98.2571 75.4569 93.8901 78.053 91.0972C80.6491 88.3043 85.0162 88.1393 87.809 90.7354C90.6019 93.3315 90.7669 97.6986 88.1708 100.491Z" fill="url(#paint38_linear_1246_20579)"/>
<path d="M85.6838 96.4179C85.5312 96.0947 85.3517 95.8433 85.1407 95.6773C84.9298 95.5022 84.5438 95.2599 83.9693 94.9457C83.296 94.5687 82.8921 94.3173 82.753 94.1872C82.6093 94.0525 82.533 93.8146 82.5196 93.469C82.5106 93.2626 82.542 93.1055 82.6049 92.9978C82.6677 92.8901 82.7664 92.8362 82.901 92.8272C83.0671 92.8227 83.1838 92.8766 83.2377 92.9933C83.2915 93.11 83.3274 93.3613 83.3409 93.7518L83.3454 93.8999L83.2332 93.9044L83.3544 94.1153L85.5537 94.0345C85.5626 93.846 85.5627 93.7114 85.5582 93.6172C85.5357 92.9663 85.3472 92.4636 84.9926 92.1091C84.638 91.7545 84.1219 91.5436 83.4442 91.4852L83.4172 90.785L83.296 90.5741L83.305 90.7895L82.4029 90.8209L82.4298 91.5211C81.6892 91.6333 81.1371 91.8891 80.7781 92.2751C80.419 92.6611 80.253 93.1863 80.2799 93.8416C80.2934 94.2949 80.4011 94.6988 80.5896 95.0489C80.7781 95.399 80.998 95.6728 81.2494 95.8613C81.5007 96.0498 81.963 96.3416 82.6542 96.7365C83.0671 96.9699 83.3095 97.1943 83.3858 97.4053C83.4621 97.6162 83.507 97.9663 83.525 98.46C83.5339 98.6575 83.5025 98.8057 83.4352 98.9089C83.3679 99.0121 83.2601 99.066 83.112 99.0705C82.937 99.0749 82.8248 99.0076 82.7754 98.8685C82.726 98.7293 82.6901 98.3613 82.6632 97.7689L82.6542 97.5085L82.6453 97.2303L82.524 97.0193L82.533 97.2347L80.4459 97.311L80.4639 97.7419C80.4998 98.7203 80.7467 99.3981 81.2 99.7796C81.6578 100.157 82.1784 100.363 82.7664 100.403L82.7933 101.041L82.6811 101.045L82.8023 101.256L83.8167 101.22L83.7852 100.39C84.5393 100.255 85.0958 99.9591 85.4549 99.5013C85.814 99.0435 85.98 98.4196 85.9486 97.6342C85.9306 97.1404 85.8409 96.7365 85.6928 96.4179L85.6838 96.4179Z" fill="#D16A0D"/>
<path d="M85.4325 93.822L83.2332 93.9028L83.2197 93.5392C83.2062 93.1487 83.1703 92.8974 83.1165 92.7807C83.0626 92.664 82.9459 92.6101 82.7798 92.6146C82.6497 92.6191 82.5465 92.6775 82.4836 92.7763C82.4208 92.884 82.3939 93.0365 82.3983 93.2475C82.4118 93.5931 82.4881 93.831 82.6318 93.9656C82.7664 94.1003 83.1793 94.3516 83.8481 94.7242C84.4181 95.0428 84.8131 95.2852 85.0195 95.4557C85.2305 95.6308 85.41 95.8732 85.5626 96.1963C85.7152 96.5195 85.8005 96.9279 85.8185 97.4127C85.8499 98.1981 85.6838 98.822 85.3247 99.2798C84.9612 99.7421 84.4046 100.038 83.6551 100.168L83.6865 100.999L82.6721 101.035L82.6407 100.177C82.0483 100.142 81.5276 99.9351 81.0743 99.5536C80.621 99.1721 80.3742 98.4944 80.3383 97.5159L80.3203 97.085L82.5196 97.0042L82.5375 97.5428C82.5599 98.1308 82.5959 98.4988 82.6497 98.6425C82.6991 98.7816 82.8113 98.8489 82.9863 98.8444C83.1344 98.8399 83.2422 98.7861 83.3095 98.6829C83.3768 98.5796 83.4082 98.4315 83.3993 98.234C83.3813 97.7403 83.332 97.3857 83.2557 97.1748C83.1794 96.9638 82.9325 96.7439 82.524 96.506C81.8328 96.111 81.3705 95.8193 81.1192 95.6308C80.8678 95.4423 80.6569 95.1685 80.4594 94.8184C80.2709 94.4683 80.1677 94.0599 80.1497 93.6111C80.1228 92.9558 80.2889 92.4307 80.6479 92.0447C81.007 91.6587 81.5546 91.4073 82.2996 91.2906L82.2727 90.5904L83.287 90.5545L83.314 91.2547C83.9962 91.3175 84.5123 91.5285 84.8669 91.883C85.2215 92.2376 85.4055 92.7448 85.4325 93.3911C85.4325 93.4809 85.4369 93.62 85.428 93.8085L85.4325 93.822Z" fill="white"/>
<g style="mix-blend-mode:screen" opacity="0.7">
<path style="mix-blend-mode:screen" d="M83.3362 91.2677L83.3407 91.2722C83.9287 91.3306 84.3955 91.4922 84.7367 91.7705C84.3955 91.4922 83.9288 91.3216 83.3318 91.2633L83.3362 91.2677Z" fill="url(#paint39_linear_1246_20579)"/>
<path style="mix-blend-mode:screen" d="M83.0401 92.6873C83.067 92.7142 83.094 92.7412 83.1075 92.7816C83.1613 92.8983 83.1972 93.1496 83.2107 93.5401L83.2242 93.9037L83.2331 93.8947L83.2286 93.5491C83.2152 93.1586 83.1793 92.9073 83.1254 92.7906C83.103 92.7502 83.076 92.7142 83.0446 92.6918L83.0401 92.6873Z" fill="url(#paint40_linear_1246_20579)"/>
<path style="mix-blend-mode:screen" d="M83.3319 98.715C83.3992 98.6117 83.4306 98.4636 83.4217 98.2661C83.4037 97.7724 83.3543 97.4179 83.2825 97.2114C83.2377 97.0857 83.1299 96.951 82.9594 96.8164C83.1209 96.951 83.2197 97.0767 83.2691 97.1979C83.3454 97.4089 83.3948 97.7635 83.4127 98.2572C83.4217 98.4547 83.3902 98.6028 83.3229 98.706C83.2556 98.8092 83.1479 98.8631 82.9998 98.8676C82.901 98.8676 82.8202 98.8496 82.7619 98.8092C82.8202 98.8676 82.91 98.8856 83.0133 98.8811C83.1614 98.8766 83.2691 98.8227 83.3364 98.7195L83.3319 98.715Z" fill="url(#paint41_linear_1246_20579)"/>
<path style="mix-blend-mode:screen" d="M85.024 95.4612C84.813 95.2862 84.427 95.0438 83.8525 94.7297C83.2601 94.3975 82.8696 94.1597 82.6946 94.0205C82.8651 94.1642 83.2556 94.402 83.866 94.7431C84.427 95.0528 84.813 95.2952 85.0285 95.4657L85.024 95.4612Z" fill="url(#paint42_linear_1246_20579)"/>
<path style="mix-blend-mode:screen" d="M82.6541 100.2L82.6451 100.191L82.6721 101.044L82.681 101.035L82.6541 100.2Z" fill="url(#paint43_linear_1246_20579)"/>
<path style="mix-blend-mode:screen" d="M81.0876 99.5844C80.6343 99.2029 80.3875 98.5251 80.3516 97.5467L80.3336 97.1158L82.5194 97.0305L82.5149 97.026L80.3201 97.1023L80.3381 97.5332C80.374 98.5117 80.6209 99.1894 81.0742 99.571C81.0877 99.5844 81.1011 99.5979 81.1146 99.6113C81.1056 99.6024 81.0966 99.5934 81.0876 99.5844Z" fill="url(#paint44_linear_1246_20579)"/>
<path style="mix-blend-mode:screen" d="M81.0922 95.623C80.8633 95.439 80.6658 95.1786 80.4862 94.8555C80.2977 94.5054 80.1945 94.0969 80.1765 93.6481C80.1496 92.9928 80.3157 92.4677 80.6747 92.0817C81.0338 91.6957 81.5814 91.4444 82.3264 91.3277L82.2995 90.6275L83.2959 90.5916L83.2914 90.5871L82.2816 90.6185L82.3085 91.3187C81.5679 91.4309 81.0158 91.6867 80.6568 92.0727C80.2977 92.4587 80.1317 92.9839 80.1586 93.6392C80.1721 94.0925 80.2797 94.4964 80.4683 94.8465C80.6478 95.1786 80.8543 95.439 81.0877 95.6275L81.0922 95.623Z" fill="url(#paint45_linear_1246_20579)"/>
</g>
<path d="M73.838 80.7664L70.6943 80.8819L70.675 80.3622C70.6558 79.804 70.6045 79.4448 70.5275 79.2779C70.4505 79.1111 70.2836 79.0341 70.0463 79.0405C69.8602 79.0469 69.7127 79.1304 69.6229 79.2716C69.5331 79.4255 69.4945 79.6436 69.5009 79.9452C69.5202 80.4392 69.6293 80.7792 69.8346 80.9717C70.0271 81.1642 70.6173 81.5234 71.5732 82.0559C72.388 82.5114 72.9526 82.8579 73.2477 83.1017C73.5493 83.3519 73.8059 83.6984 74.024 84.1603C74.2422 84.6222 74.3641 85.2061 74.3897 85.8989C74.4347 87.0217 74.1972 87.9134 73.684 88.5678C73.1643 89.2286 72.3687 89.6521 71.2973 89.8381L71.3423 91.0251L69.8923 91.0763L69.8474 89.8509C69.0005 89.7996 68.2563 89.5046 67.6083 88.9592C66.9604 88.4139 66.6075 87.4451 66.5562 86.0465L66.5305 85.4306L69.6742 85.3151L69.6999 86.085C69.7319 86.9255 69.7833 87.4515 69.8603 87.6568C69.9308 87.8557 70.0912 87.9519 70.3414 87.9455C70.5531 87.9391 70.7071 87.8621 70.8034 87.7146C70.8996 87.567 70.9445 87.3553 70.9317 87.073C70.906 86.3673 70.8355 85.8605 70.7264 85.5589C70.6173 85.2574 70.2644 84.943 69.6806 84.603C68.6926 84.0384 68.0317 83.6213 67.6725 83.3519C67.3132 83.0824 67.0116 82.6911 66.7293 82.1906C66.4599 81.6902 66.3124 81.1064 66.2867 80.4649C66.2482 79.5282 66.4856 78.7776 66.9989 78.2258C67.5121 77.6741 68.2949 77.3148 69.3599 77.148L69.3213 76.1471L70.7713 76.0957L70.8098 77.0966C71.785 77.1864 72.5227 77.4879 73.0296 77.9948C73.5364 78.5016 73.7995 79.2266 73.838 80.1505C73.838 80.2788 73.8444 80.4777 73.8315 80.7471L73.838 80.7664Z" fill="white"/>
<defs>
<filter id="filter0_d_1246_20579" x="32" y="113.334" width="25.8348" height="21.1641" filterUnits="userSpaceOnUse" color-interpolation-filters="sRGB">
<feFlood flood-opacity="0" result="BackgroundImageFix"/>
<feColorMatrix in="SourceAlpha" type="matrix" values="0 0 0 0 0 0 0 0 0 0 0 0 0 0 0 0 0 0 127 0" result="hardAlpha"/>
<feOffset dy="4"/>
<feGaussianBlur stdDeviation="2"/>
<feComposite in2="hardAlpha" operator="out"/>
<feColorMatrix type="matrix" values="0 0 0 0 0 0 0 0 0 0 0 0 0 0 0 0 0 0 0.25 0"/>
<feBlend mode="normal" in2="BackgroundImageFix" result="effect1_dropShadow_1246_20579"/>
<feBlend mode="normal" in="SourceGraphic" in2="effect1_dropShadow_1246_20579" result="shape"/>
</filter>
<filter id="filter1_d_1246_20579" x="131.547" y="80.2793" width="16.9067" height="17.9805" filterUnits="userSpaceOnUse" color-interpolation-filters="sRGB">
<feFlood flood-opacity="0" result="BackgroundImageFix"/>
<feColorMatrix in="SourceAlpha" type="matrix" values="0 0 0 0 0 0 0 0 0 0 0 0 0 0 0 0 0 0 127 0" result="hardAlpha"/>
<feOffset dy="4"/>
<feGaussianBlur stdDeviation="2"/>
<feComposite in2="hardAlpha" operator="out"/>
<feColorMatrix type="matrix" values="0 0 0 0 0 0 0 0 0 0 0 0 0 0 0 0 0 0 0.25 0"/>
<feBlend mode="normal" in2="BackgroundImageFix" result="effect1_dropShadow_1246_20579"/>
<feBlend mode="normal" in="SourceGraphic" in2="effect1_dropShadow_1246_20579" result="shape"/>
</filter>
<linearGradient id="paint0_linear_1246_20579" x1="128.652" y1="53.5781" x2="35.3477" y2="113.087" gradientUnits="userSpaceOnUse">
<stop stop-color="#882AFF"/>
<stop offset="1" stop-color="#6255FF"/>
</linearGradient>
<linearGradient id="paint1_linear_1246_20579" x1="109.667" y1="35.4128" x2="54.3333" y2="131.253" gradientUnits="userSpaceOnUse">
<stop stop-color="#882AFF"/>
<stop offset="1" stop-color="#6255FF"/>
</linearGradient>
<linearGradient id="paint2_linear_1246_20579" x1="39.4309" y1="116.654" x2="47.7842" y2="125.152" gradientUnits="userSpaceOnUse">
<stop stop-color="#FFD08D"/>
<stop offset="0.58" stop-color="#FFDC2A"/>
<stop offset="0.81" stop-color="#F3C237"/>
<stop offset="1" stop-color="#EBB140"/>
</linearGradient>
<linearGradient id="paint3_linear_1246_20579" x1="46.4838" y1="123.783" x2="43.1912" y2="115.605" gradientUnits="userSpaceOnUse">
<stop stop-color="#F0C827"/>
<stop offset="0.08" stop-color="#E9BE25"/>
<stop offset="0.22" stop-color="#E2B424"/>
<stop offset="0.38" stop-color="#EECA46"/>
<stop offset="0.57" stop-color="#FAE168"/>
<stop offset="0.68" stop-color="#FFEA76"/>
<stop offset="0.74" stop-color="#FDE770"/>
<stop offset="0.82" stop-color="#FBE161"/>
<stop offset="0.91" stop-color="#F6D647"/>
<stop offset="1" stop-color="#F0C827"/>
</linearGradient>
<linearGradient id="paint4_linear_1246_20579" x1="46.4838" y1="123.783" x2="43.1912" y2="115.605" gradientUnits="userSpaceOnUse">
<stop stop-color="#FFD08D"/>
<stop offset="0.58" stop-color="#FFAF2A"/>
<stop offset="0.71" stop-color="#F8A631"/>
<stop offset="1" stop-color="#EC9540"/>
</linearGradient>
<linearGradient id="paint5_linear_1246_20579" x1="44.997" y1="116.879" x2="44.8686" y2="116.56" gradientUnits="userSpaceOnUse">
<stop offset="0.04" stop-color="#F8DA36"/>
<stop offset="0.11" stop-color="#F1CD21"/>
<stop offset="0.19" stop-color="#EBC412"/>
<stop offset="0.28" stop-color="#E8BE09"/>
<stop offset="0.42" stop-color="#E8BD07"/>
<stop offset="0.51" stop-color="#EFCB1B"/>
<stop offset="0.64" stop-color="#F8DB33"/>
<stop offset="0.77" stop-color="#FDE542"/>
<stop offset="0.87" stop-color="#FFE947"/>
<stop offset="1" stop-color="#FFEC63"/>
</linearGradient>
<linearGradient id="paint6_linear_1246_20579" x1="44.491" y1="118.462" x2="44.2087" y2="117.761" gradientUnits="userSpaceOnUse">
<stop offset="0.04" stop-color="#F8DA36"/>
<stop offset="0.11" stop-color="#F1CD21"/>
<stop offset="0.19" stop-color="#EBC412"/>
<stop offset="0.28" stop-color="#E8BE09"/>
<stop offset="0.42" stop-color="#E8BD07"/>
<stop offset="0.51" stop-color="#EFCB1B"/>
<stop offset="0.64" stop-color="#F8DB33"/>
<stop offset="0.77" stop-color="#FDE542"/>
<stop offset="0.87" stop-color="#FFE947"/>
<stop offset="1" stop-color="#FFEC63"/>
</linearGradient>
<linearGradient id="paint7_linear_1246_20579" x1="45.3764" y1="121.413" x2="44.8999" y2="120.23" gradientUnits="userSpaceOnUse">
<stop offset="0.04" stop-color="#F8DA36"/>
<stop offset="0.11" stop-color="#F1CD21"/>
<stop offset="0.19" stop-color="#EBC412"/>
<stop offset="0.28" stop-color="#E8BE09"/>
<stop offset="0.42" stop-color="#E8BD07"/>
<stop offset="0.51" stop-color="#EFCB1B"/>
<stop offset="0.64" stop-color="#F8DB33"/>
<stop offset="0.77" stop-color="#FDE542"/>
<stop offset="0.87" stop-color="#FFE947"/>
<stop offset="1" stop-color="#FFEC63"/>
</linearGradient>
<linearGradient id="paint8_linear_1246_20579" x1="45.5409" y1="119.122" x2="45.1869" y2="118.242" gradientUnits="userSpaceOnUse">
<stop offset="0.04" stop-color="#F8DA36"/>
<stop offset="0.11" stop-color="#F1CD21"/>
<stop offset="0.19" stop-color="#EBC412"/>
<stop offset="0.28" stop-color="#E8BE09"/>
<stop offset="0.42" stop-color="#E8BD07"/>
<stop offset="0.51" stop-color="#EFCB1B"/>
<stop offset="0.64" stop-color="#F8DB33"/>
<stop offset="0.77" stop-color="#FDE542"/>
<stop offset="0.87" stop-color="#FFE947"/>
<stop offset="1" stop-color="#FFEC63"/>
</linearGradient>
<linearGradient id="paint9_linear_1246_20579" x1="45.3618" y1="122.856" x2="45.1661" y2="122.37" gradientUnits="userSpaceOnUse">
<stop offset="0.04" stop-color="#F8DA36"/>
<stop offset="0.11" stop-color="#F1CD21"/>
<stop offset="0.19" stop-color="#EBC412"/>
<stop offset="0.28" stop-color="#E8BE09"/>
<stop offset="0.42" stop-color="#E8BD07"/>
<stop offset="0.51" stop-color="#EFCB1B"/>
<stop offset="0.64" stop-color="#F8DB33"/>
<stop offset="0.77" stop-color="#FDE542"/>
<stop offset="0.87" stop-color="#FFE947"/>
<stop offset="1" stop-color="#FFEC63"/>
</linearGradient>
<linearGradient id="paint10_linear_1246_20579" x1="43.8773" y1="122.457" x2="43.2925" y2="121.004" gradientUnits="userSpaceOnUse">
<stop offset="0.04" stop-color="#F8DA36"/>
<stop offset="0.11" stop-color="#F1CD21"/>
<stop offset="0.19" stop-color="#EBC412"/>
<stop offset="0.28" stop-color="#E8BE09"/>
<stop offset="0.42" stop-color="#E8BD07"/>
<stop offset="0.51" stop-color="#EFCB1B"/>
<stop offset="0.64" stop-color="#F8DB33"/>
<stop offset="0.77" stop-color="#FDE542"/>
<stop offset="0.87" stop-color="#FFE947"/>
<stop offset="1" stop-color="#FFEC63"/>
</linearGradient>
<linearGradient id="paint11_linear_1246_20579" x1="43.4604" y1="119.97" x2="42.3126" y2="117.12" gradientUnits="userSpaceOnUse">
<stop offset="0.04" stop-color="#F8DA36"/>
<stop offset="0.11" stop-color="#F1CD21"/>
<stop offset="0.19" stop-color="#EBC412"/>
<stop offset="0.28" stop-color="#E8BE09"/>
<stop offset="0.42" stop-color="#E8BD07"/>
<stop offset="0.51" stop-color="#EFCB1B"/>
<stop offset="0.64" stop-color="#F8DB33"/>
<stop offset="0.77" stop-color="#FDE542"/>
<stop offset="0.87" stop-color="#FFE947"/>
<stop offset="1" stop-color="#FFEC63"/>
</linearGradient>
<linearGradient id="paint12_linear_1246_20579" x1="141.035" y1="81.5952" x2="137.419" y2="87.7364" gradientUnits="userSpaceOnUse">
<stop stop-color="#FFD08D"/>
<stop offset="0.58" stop-color="#FFDC2A"/>
<stop offset="0.81" stop-color="#F3C237"/>
<stop offset="1" stop-color="#EBB140"/>
</linearGradient>
<linearGradient id="paint13_linear_1246_20579" x1="138.008" y1="86.7738" x2="142.223" y2="83.6057" gradientUnits="userSpaceOnUse">
<stop stop-color="#F0C827"/>
<stop offset="0.08" stop-color="#E9BE25"/>
<stop offset="0.22" stop-color="#E2B424"/>
<stop offset="0.38" stop-color="#EECA46"/>
<stop offset="0.57" stop-color="#FAE168"/>
<stop offset="0.68" stop-color="#FFEA76"/>
<stop offset="0.74" stop-color="#FDE770"/>
<stop offset="0.82" stop-color="#FBE161"/>
<stop offset="0.91" stop-color="#F6D647"/>
<stop offset="1" stop-color="#F0C827"/>
</linearGradient>
<linearGradient id="paint14_linear_1246_20579" x1="138.008" y1="86.7738" x2="142.223" y2="83.6057" gradientUnits="userSpaceOnUse">
<stop stop-color="#FFD08D"/>
<stop offset="0.58" stop-color="#FFAF2A"/>
<stop offset="0.71" stop-color="#F8A631"/>
<stop offset="1" stop-color="#EC9540"/>
</linearGradient>
<linearGradient id="paint15_linear_1246_20579" x1="141.767" y1="84.8464" x2="141.931" y2="84.7228" gradientUnits="userSpaceOnUse">
<stop offset="0.04" stop-color="#F8DA36"/>
<stop offset="0.11" stop-color="#F1CD21"/>
<stop offset="0.19" stop-color="#EBC412"/>
<stop offset="0.28" stop-color="#E8BE09"/>
<stop offset="0.42" stop-color="#E8BD07"/>
<stop offset="0.51" stop-color="#EFCB1B"/>
<stop offset="0.64" stop-color="#F8DB33"/>
<stop offset="0.77" stop-color="#FDE542"/>
<stop offset="0.87" stop-color="#FFE947"/>
<stop offset="1" stop-color="#FFEC63"/>
</linearGradient>
<linearGradient id="paint16_linear_1246_20579" x1="140.774" y1="84.7977" x2="141.135" y2="84.5261" gradientUnits="userSpaceOnUse">
<stop offset="0.04" stop-color="#F8DA36"/>
<stop offset="0.11" stop-color="#F1CD21"/>
<stop offset="0.19" stop-color="#EBC412"/>
<stop offset="0.28" stop-color="#E8BE09"/>
<stop offset="0.42" stop-color="#E8BD07"/>
<stop offset="0.51" stop-color="#EFCB1B"/>
<stop offset="0.64" stop-color="#F8DB33"/>
<stop offset="0.77" stop-color="#FDE542"/>
<stop offset="0.87" stop-color="#FFE947"/>
<stop offset="1" stop-color="#FFEC63"/>
</linearGradient>
<linearGradient id="paint17_linear_1246_20579" x1="139.207" y1="85.7674" x2="139.817" y2="85.309" gradientUnits="userSpaceOnUse">
<stop offset="0.04" stop-color="#F8DA36"/>
<stop offset="0.11" stop-color="#F1CD21"/>
<stop offset="0.19" stop-color="#EBC412"/>
<stop offset="0.28" stop-color="#E8BE09"/>
<stop offset="0.42" stop-color="#E8BD07"/>
<stop offset="0.51" stop-color="#EFCB1B"/>
<stop offset="0.64" stop-color="#F8DB33"/>
<stop offset="0.77" stop-color="#FDE542"/>
<stop offset="0.87" stop-color="#FFE947"/>
<stop offset="1" stop-color="#FFEC63"/>
</linearGradient>
<linearGradient id="paint18_linear_1246_20579" x1="140.556" y1="85.5072" x2="141.009" y2="85.1666" gradientUnits="userSpaceOnUse">
<stop offset="0.04" stop-color="#F8DA36"/>
<stop offset="0.11" stop-color="#F1CD21"/>
<stop offset="0.19" stop-color="#EBC412"/>
<stop offset="0.28" stop-color="#E8BE09"/>
<stop offset="0.42" stop-color="#E8BD07"/>
<stop offset="0.51" stop-color="#EFCB1B"/>
<stop offset="0.64" stop-color="#F8DB33"/>
<stop offset="0.77" stop-color="#FDE542"/>
<stop offset="0.87" stop-color="#FFE947"/>
<stop offset="1" stop-color="#FFEC63"/>
</linearGradient>
<linearGradient id="paint19_linear_1246_20579" x1="138.37" y1="85.9807" x2="138.621" y2="85.7925" gradientUnits="userSpaceOnUse">
<stop offset="0.04" stop-color="#F8DA36"/>
<stop offset="0.11" stop-color="#F1CD21"/>
<stop offset="0.19" stop-color="#EBC412"/>
<stop offset="0.28" stop-color="#E8BE09"/>
<stop offset="0.42" stop-color="#E8BD07"/>
<stop offset="0.51" stop-color="#EFCB1B"/>
<stop offset="0.64" stop-color="#F8DB33"/>
<stop offset="0.77" stop-color="#FDE542"/>
<stop offset="0.87" stop-color="#FFE947"/>
<stop offset="1" stop-color="#FFEC63"/>
</linearGradient>
<linearGradient id="paint20_linear_1246_20579" x1="138.372" y1="85.0617" x2="139.121" y2="84.499" gradientUnits="userSpaceOnUse">
<stop offset="0.04" stop-color="#F8DA36"/>
<stop offset="0.11" stop-color="#F1CD21"/>
<stop offset="0.19" stop-color="#EBC412"/>
<stop offset="0.28" stop-color="#E8BE09"/>
<stop offset="0.42" stop-color="#E8BD07"/>
<stop offset="0.51" stop-color="#EFCB1B"/>
<stop offset="0.64" stop-color="#F8DB33"/>
<stop offset="0.77" stop-color="#FDE542"/>
<stop offset="0.87" stop-color="#FFE947"/>
<stop offset="1" stop-color="#FFEC63"/>
</linearGradient>
<linearGradient id="paint21_linear_1246_20579" x1="139.743" y1="84.4364" x2="141.213" y2="83.332" gradientUnits="userSpaceOnUse">
<stop offset="0.04" stop-color="#F8DA36"/>
<stop offset="0.11" stop-color="#F1CD21"/>
<stop offset="0.19" stop-color="#EBC412"/>
<stop offset="0.28" stop-color="#E8BE09"/>
<stop offset="0.42" stop-color="#E8BD07"/>
<stop offset="0.51" stop-color="#EFCB1B"/>
<stop offset="0.64" stop-color="#F8DB33"/>
<stop offset="0.77" stop-color="#FDE542"/>
<stop offset="0.87" stop-color="#FFE947"/>
<stop offset="1" stop-color="#FFEC63"/>
</linearGradient>
<linearGradient id="paint22_linear_1246_20579" x1="46.9082" y1="71.0712" x2="51.6552" y2="64.8131" gradientUnits="userSpaceOnUse">
<stop stop-color="#FFD08D"/>
<stop offset="0.58" stop-color="#FFDC2A"/>
<stop offset="0.81" stop-color="#F3C237"/>
<stop offset="1" stop-color="#EBB140"/>
</linearGradient>
<linearGradient id="paint23_linear_1246_20579" x1="51.7294" y1="70.1453" x2="46.8819" y2="65.6454" gradientUnits="userSpaceOnUse">
<stop stop-color="#FFAA3F"/>
<stop offset="0.58" stop-color="#FFAF2A"/>
<stop offset="0.71" stop-color="#F8A631"/>
<stop offset="1" stop-color="#EC9540"/>
</linearGradient>
<linearGradient id="paint24_linear_1246_20579" x1="48.2713" y1="66.2265" x2="48.0752" y2="66.0446" gradientUnits="userSpaceOnUse">
<stop offset="0.04" stop-color="#F8DA36"/>
<stop offset="0.11" stop-color="#F1CD21"/>
<stop offset="0.19" stop-color="#EBC412"/>
<stop offset="0.28" stop-color="#E8BE09"/>
<stop offset="0.42" stop-color="#E8BD07"/>
<stop offset="0.51" stop-color="#EFCB1B"/>
<stop offset="0.64" stop-color="#F8DB33"/>
<stop offset="0.77" stop-color="#FDE542"/>
<stop offset="0.87" stop-color="#FFE947"/>
<stop offset="1" stop-color="#FFEC63"/>
</linearGradient>
<linearGradient id="paint25_linear_1246_20579" x1="48.6853" y1="67.2366" x2="48.2553" y2="66.8374" gradientUnits="userSpaceOnUse">
<stop offset="0.04" stop-color="#F8DA36"/>
<stop offset="0.11" stop-color="#F1CD21"/>
<stop offset="0.19" stop-color="#EBC412"/>
<stop offset="0.28" stop-color="#E8BE09"/>
<stop offset="0.42" stop-color="#E8BD07"/>
<stop offset="0.51" stop-color="#EFCB1B"/>
<stop offset="0.64" stop-color="#F8DB33"/>
<stop offset="0.77" stop-color="#FDE542"/>
<stop offset="0.87" stop-color="#FFE947"/>
<stop offset="1" stop-color="#FFEC63"/>
</linearGradient>
<linearGradient id="paint26_linear_1246_20579" x1="50.3424" y1="68.9411" x2="49.6184" y2="68.269" gradientUnits="userSpaceOnUse">
<stop offset="0.04" stop-color="#F8DA36"/>
<stop offset="0.11" stop-color="#F1CD21"/>
<stop offset="0.19" stop-color="#EBC412"/>
<stop offset="0.28" stop-color="#E8BE09"/>
<stop offset="0.42" stop-color="#E8BD07"/>
<stop offset="0.51" stop-color="#EFCB1B"/>
<stop offset="0.64" stop-color="#F8DB33"/>
<stop offset="0.77" stop-color="#FDE542"/>
<stop offset="0.87" stop-color="#FFE947"/>
<stop offset="1" stop-color="#FFEC63"/>
</linearGradient>
<linearGradient id="paint27_linear_1246_20579" x1="49.4685" y1="67.5331" x2="48.9316" y2="67.0347" gradientUnits="userSpaceOnUse">
<stop offset="0.04" stop-color="#F8DA36"/>
<stop offset="0.11" stop-color="#F1CD21"/>
<stop offset="0.19" stop-color="#EBC412"/>
<stop offset="0.28" stop-color="#E8BE09"/>
<stop offset="0.42" stop-color="#E8BD07"/>
<stop offset="0.51" stop-color="#EFCB1B"/>
<stop offset="0.64" stop-color="#F8DB33"/>
<stop offset="0.77" stop-color="#FDE542"/>
<stop offset="0.87" stop-color="#FFE947"/>
<stop offset="1" stop-color="#FFEC63"/>
</linearGradient>
<linearGradient id="paint28_linear_1246_20579" x1="50.9366" y1="69.8196" x2="50.6403" y2="69.5445" gradientUnits="userSpaceOnUse">
<stop offset="0.04" stop-color="#F8DA36"/>
<stop offset="0.11" stop-color="#F1CD21"/>
<stop offset="0.19" stop-color="#EBC412"/>
<stop offset="0.28" stop-color="#E8BE09"/>
<stop offset="0.42" stop-color="#E8BD07"/>
<stop offset="0.51" stop-color="#EFCB1B"/>
<stop offset="0.64" stop-color="#F8DB33"/>
<stop offset="0.77" stop-color="#FDE542"/>
<stop offset="0.87" stop-color="#FFE947"/>
<stop offset="1" stop-color="#FFEC63"/>
</linearGradient>
<linearGradient id="paint29_linear_1246_20579" x1="50.0509" y1="69.7192" x2="49.162" y2="68.8941" gradientUnits="userSpaceOnUse">
<stop offset="0.04" stop-color="#F8DA36"/>
<stop offset="0.11" stop-color="#F1CD21"/>
<stop offset="0.19" stop-color="#EBC412"/>
<stop offset="0.28" stop-color="#E8BE09"/>
<stop offset="0.42" stop-color="#E8BD07"/>
<stop offset="0.51" stop-color="#EFCB1B"/>
<stop offset="0.64" stop-color="#F8DB33"/>
<stop offset="0.77" stop-color="#FDE542"/>
<stop offset="0.87" stop-color="#FFE947"/>
<stop offset="1" stop-color="#FFEC63"/>
</linearGradient>
<linearGradient id="paint30_linear_1246_20579" x1="48.8134" y1="68.2515" x2="47.0691" y2="66.6323" gradientUnits="userSpaceOnUse">
<stop offset="0.04" stop-color="#F8DA36"/>
<stop offset="0.11" stop-color="#F1CD21"/>
<stop offset="0.19" stop-color="#EBC412"/>
<stop offset="0.28" stop-color="#E8BE09"/>
<stop offset="0.42" stop-color="#E8BD07"/>
<stop offset="0.51" stop-color="#EFCB1B"/>
<stop offset="0.64" stop-color="#F8DB33"/>
<stop offset="0.77" stop-color="#FDE542"/>
<stop offset="0.87" stop-color="#FFE947"/>
<stop offset="1" stop-color="#FFEC63"/>
</linearGradient>
<linearGradient id="paint31_linear_1246_20579" x1="26.2739" y1="43.1463" x2="38.0424" y2="47.1391" gradientUnits="userSpaceOnUse">
<stop stop-color="#FA6045"/>
<stop offset="1" stop-color="#C9290C"/>
</linearGradient>
<linearGradient id="paint32_linear_1246_20579" x1="130.678" y1="49.4152" x2="116.608" y2="54.5348" gradientUnits="userSpaceOnUse">
<stop stop-color="#FFCA7D"/>
<stop offset="1" stop-color="#FFA422"/>
</linearGradient>
<linearGradient id="paint33_linear_1246_20579" x1="83.3474" y1="69.8096" x2="94.2517" y2="95.5359" gradientUnits="userSpaceOnUse">
<stop stop-color="#F45762"/>
<stop offset="0.0001" stop-color="#F85644"/>
<stop offset="1" stop-color="#D82300"/>
</linearGradient>
<linearGradient id="paint34_linear_1246_20579" x1="81.3316" y1="81.4696" x2="96.2635" y2="83.8693" gradientUnits="userSpaceOnUse">
<stop stop-color="#F75643"/>
<stop offset="1" stop-color="#D82401"/>
</linearGradient>
<linearGradient id="paint35_linear_1246_20579" x1="69.7974" y1="66.4707" x2="69.7974" y2="100.468" gradientUnits="userSpaceOnUse">
<stop stop-color="#4AEAFB"/>
<stop offset="1" stop-color="#02ABBD"/>
</linearGradient>
<linearGradient id="paint36_linear_1246_20579" x1="70.8154" y1="58.666" x2="70.8154" y2="67.546" gradientUnits="userSpaceOnUse">
<stop stop-color="#43E4F5"/>
<stop offset="1" stop-color="#05AEC0"/>
</linearGradient>
<linearGradient id="paint37_linear_1246_20579" x1="76.5483" y1="90.8862" x2="89.6168" y2="100.799" gradientUnits="userSpaceOnUse">
<stop stop-color="#FFD08D"/>
<stop offset="0.58" stop-color="#FFDC2A"/>
<stop offset="0.81" stop-color="#F3C237"/>
<stop offset="1" stop-color="#EBB140"/>
</linearGradient>
<linearGradient id="paint38_linear_1246_20579" x1="78.4797" y1="100.957" x2="87.8766" y2="90.834" gradientUnits="userSpaceOnUse">
<stop stop-color="#FFAA3F"/>
<stop offset="0.58" stop-color="#FFAF2A"/>
<stop offset="0.71" stop-color="#F8A631"/>
<stop offset="1" stop-color="#EC9540"/>
</linearGradient>
<linearGradient id="paint39_linear_1246_20579" x1="84.1679" y1="91.8246" x2="84.1472" y2="91.2664" gradientUnits="userSpaceOnUse">
<stop offset="0.04" stop-color="#F8DA36"/>
<stop offset="0.11" stop-color="#F1CD21"/>
<stop offset="0.19" stop-color="#EBC412"/>
<stop offset="0.28" stop-color="#E8BE09"/>
<stop offset="0.42" stop-color="#E8BD07"/>
<stop offset="0.51" stop-color="#EFCB1B"/>
<stop offset="0.64" stop-color="#F8DB33"/>
<stop offset="0.77" stop-color="#FDE542"/>
<stop offset="0.87" stop-color="#FFE947"/>
<stop offset="1" stop-color="#FFEC63"/>
</linearGradient>
<linearGradient id="paint40_linear_1246_20579" x1="83.2871" y1="93.9293" x2="83.2416" y2="92.7051" gradientUnits="userSpaceOnUse">
<stop offset="0.04" stop-color="#F8DA36"/>
<stop offset="0.11" stop-color="#F1CD21"/>
<stop offset="0.19" stop-color="#EBC412"/>
<stop offset="0.28" stop-color="#E8BE09"/>
<stop offset="0.42" stop-color="#E8BD07"/>
<stop offset="0.51" stop-color="#EFCB1B"/>
<stop offset="0.64" stop-color="#F8DB33"/>
<stop offset="0.77" stop-color="#FDE542"/>
<stop offset="0.87" stop-color="#FFE947"/>
<stop offset="1" stop-color="#FFEC63"/>
</linearGradient>
<linearGradient id="paint41_linear_1246_20579" x1="83.2177" y1="98.8925" x2="83.141" y2="96.831" gradientUnits="userSpaceOnUse">
<stop offset="0.04" stop-color="#F8DA36"/>
<stop offset="0.11" stop-color="#F1CD21"/>
<stop offset="0.19" stop-color="#EBC412"/>
<stop offset="0.28" stop-color="#E8BE09"/>
<stop offset="0.42" stop-color="#E8BD07"/>
<stop offset="0.51" stop-color="#EFCB1B"/>
<stop offset="0.64" stop-color="#F8DB33"/>
<stop offset="0.77" stop-color="#FDE542"/>
<stop offset="0.87" stop-color="#FFE947"/>
<stop offset="1" stop-color="#FFEC63"/>
</linearGradient>
<linearGradient id="paint42_linear_1246_20579" x1="84.0069" y1="95.5224" x2="83.9501" y2="93.9937" gradientUnits="userSpaceOnUse">
<stop offset="0.04" stop-color="#F8DA36"/>
<stop offset="0.11" stop-color="#F1CD21"/>
<stop offset="0.19" stop-color="#EBC412"/>
<stop offset="0.28" stop-color="#E8BE09"/>
<stop offset="0.42" stop-color="#E8BD07"/>
<stop offset="0.51" stop-color="#EFCB1B"/>
<stop offset="0.64" stop-color="#F8DB33"/>
<stop offset="0.77" stop-color="#FDE542"/>
<stop offset="0.87" stop-color="#FFE947"/>
<stop offset="1" stop-color="#FFEC63"/>
</linearGradient>
<linearGradient id="paint43_linear_1246_20579" x1="82.7967" y1="101.068" x2="82.7653" y2="100.224" gradientUnits="userSpaceOnUse">
<stop offset="0.04" stop-color="#F8DA36"/>
<stop offset="0.11" stop-color="#F1CD21"/>
<stop offset="0.19" stop-color="#EBC412"/>
<stop offset="0.28" stop-color="#E8BE09"/>
<stop offset="0.42" stop-color="#E8BD07"/>
<stop offset="0.51" stop-color="#EFCB1B"/>
<stop offset="0.64" stop-color="#F8DB33"/>
<stop offset="0.77" stop-color="#FDE542"/>
<stop offset="0.87" stop-color="#FFE947"/>
<stop offset="1" stop-color="#FFEC63"/>
</linearGradient>
<linearGradient id="paint44_linear_1246_20579" x1="81.6373" y1="99.6106" x2="81.5432" y2="97.0797" gradientUnits="userSpaceOnUse">
<stop offset="0.04" stop-color="#F8DA36"/>
<stop offset="0.11" stop-color="#F1CD21"/>
<stop offset="0.19" stop-color="#EBC412"/>
<stop offset="0.28" stop-color="#E8BE09"/>
<stop offset="0.42" stop-color="#E8BD07"/>
<stop offset="0.51" stop-color="#EFCB1B"/>
<stop offset="0.64" stop-color="#F8DB33"/>
<stop offset="0.77" stop-color="#FDE542"/>
<stop offset="0.87" stop-color="#FFE947"/>
<stop offset="1" stop-color="#FFEC63"/>
</linearGradient>
<linearGradient id="paint45_linear_1246_20579" x1="81.9778" y1="95.6171" x2="81.7931" y2="90.6504" gradientUnits="userSpaceOnUse">
<stop offset="0.04" stop-color="#F8DA36"/>
<stop offset="0.11" stop-color="#F1CD21"/>
<stop offset="0.19" stop-color="#EBC412"/>
<stop offset="0.28" stop-color="#E8BE09"/>
<stop offset="0.42" stop-color="#E8BD07"/>
<stop offset="0.51" stop-color="#EFCB1B"/>
<stop offset="0.64" stop-color="#F8DB33"/>
<stop offset="0.77" stop-color="#FDE542"/>
<stop offset="0.87" stop-color="#FFE947"/>
<stop offset="1" stop-color="#FFEC63"/>
</linearGradient>
</defs>
</svg>
