<svg width="313" height="585" viewBox="0 0 313 585" fill="none" xmlns="http://www.w3.org/2000/svg">
<g style="mix-blend-mode:luminosity">
<g style="mix-blend-mode:multiply">
<path d="M112.061 361.276C112.068 361.503 112.083 361.731 112.114 361.951C112.144 362.194 112.175 362.437 112.22 362.679C112.273 362.945 112.334 363.218 112.402 363.483C112.486 363.787 112.584 364.09 112.698 364.386C112.835 364.758 113.001 365.122 113.191 365.471C113.502 366.055 113.866 366.609 114.299 367.132C114.572 367.459 114.868 367.777 115.186 368.073C115.505 368.369 115.846 368.642 116.188 368.892L116.468 369.15L116.506 369.112L116.779 368.817L117.09 368.475L117.401 368.134L117.712 367.792L118.024 367.451L118.335 367.11L118.653 366.768L118.964 366.427L119.283 366.086L119.594 365.744L119.912 365.403L120.223 365.061L120.535 364.72L120.846 364.379L121.164 364.037L121.475 363.696L121.786 363.355L122.105 363.013L122.416 362.672L122.735 362.33L123.046 361.989L123.357 361.648L123.668 361.306L123.986 360.965L124.297 360.623L124.616 360.282L124.927 359.941L125.238 359.599L125.549 359.258L125.868 358.917L126.179 358.575L126.49 358.234L126.808 357.892L127.119 357.551L127.43 357.21L127.749 356.868L128.06 356.527L128.371 356.186L128.682 355.844L128.993 355.503L129.304 355.161L129.577 354.866L129.615 354.82L129.335 354.562C129.061 354.236 128.766 353.917 128.447 353.621C128.128 353.325 127.795 353.052 127.446 352.802C126.892 352.408 126.308 352.081 125.708 351.816C125.344 351.657 124.965 351.52 124.586 351.406C124.282 351.315 123.971 351.239 123.66 351.179C123.395 351.125 123.121 351.088 122.848 351.057C122.606 351.027 122.355 351.012 122.112 351.004C121.885 350.997 121.657 351.004 121.437 351.004C121.225 351.012 121.012 351.027 120.8 351.05C120.603 351.072 120.406 351.095 120.208 351.126C120.019 351.156 119.829 351.194 119.647 351.232C119.465 351.27 119.29 351.315 119.116 351.368C118.941 351.414 118.774 351.467 118.608 351.528C118.448 351.581 118.281 351.641 118.122 351.71C117.97 351.77 117.811 351.839 117.659 351.914C117.508 351.983 117.363 352.059 117.219 352.134C117.075 352.21 116.939 352.286 116.795 352.37C116.658 352.453 116.521 352.537 116.392 352.628C116.264 352.711 116.135 352.802 116.006 352.901C115.877 352.992 115.755 353.09 115.634 353.189C115.512 353.288 115.399 353.386 115.277 353.492C115.164 353.591 115.05 353.697 114.936 353.811C114.83 353.917 114.716 354.031 114.61 354.145C114.504 354.259 114.405 354.372 114.306 354.494C114.208 354.615 114.109 354.729 114.018 354.858C113.919 354.979 113.828 355.108 113.745 355.23C113.654 355.359 113.57 355.488 113.487 355.624C113.403 355.761 113.32 355.897 113.244 356.034C113.168 356.17 113.092 356.314 113.024 356.459C112.948 356.603 112.88 356.754 112.819 356.899C112.751 357.05 112.69 357.202 112.63 357.354C112.569 357.513 112.516 357.672 112.463 357.832C112.41 357.999 112.364 358.166 112.319 358.332C112.273 358.507 112.235 358.681 112.197 358.848C112.159 359.03 112.129 359.212 112.106 359.394C112.076 359.584 112.053 359.774 112.038 359.963C112.023 360.161 112.008 360.366 112 360.563C112 360.775 112 360.988 112 361.2L112.061 361.276Z" fill="#D16A0D"/>
</g>
<path d="M125.966 370.227C120.982 372.329 115.232 369.985 113.138 365C111.037 360.016 113.381 354.266 118.365 352.172C123.349 350.071 129.099 352.415 131.193 357.399C133.295 362.383 130.95 368.134 125.966 370.227Z" fill="url(#paint0_linear_1414_1573)"/>
<g style="mix-blend-mode:screen" opacity="0.5">
<path d="M129.304 367.822C125.633 371.782 119.442 372.017 115.482 368.361C115.482 368.361 115.497 368.376 115.505 368.384C119.473 372.063 125.671 371.835 129.35 367.868C133.029 363.9 132.802 357.702 128.834 354.023L128.811 354C132.756 357.687 132.976 363.87 129.304 367.822Z" fill="#FEF0A0"/>
</g>
<path d="M116.559 367.246C113.221 364.144 113.024 358.924 116.127 355.586C119.23 352.248 124.449 352.051 127.787 355.154C131.125 358.257 131.322 363.476 128.219 366.814C125.117 370.152 119.897 370.349 116.559 367.246Z" fill="url(#paint1_linear_1414_1573)"/>
<path d="M119.473 362.845C119.875 362.989 120.239 363.05 120.557 363.012C120.884 362.982 121.415 362.86 122.166 362.64C123.053 362.39 123.607 362.261 123.835 362.253C124.07 362.246 124.335 362.382 124.639 362.663C124.821 362.83 124.927 362.989 124.965 363.133C125.003 363.278 124.965 363.406 124.859 363.528C124.722 363.672 124.578 363.725 124.434 363.672C124.29 363.619 124.047 363.437 123.706 363.118L123.577 362.997L123.668 362.898L123.387 362.822L121.597 364.749C121.748 364.916 121.862 365.03 121.946 365.106C122.515 365.637 123.099 365.902 123.698 365.902C124.297 365.902 124.912 365.644 125.534 365.121L126.148 365.69L126.429 365.766L126.24 365.591L126.975 364.802L126.361 364.233C126.892 363.513 127.142 362.83 127.12 362.2C127.097 361.571 126.793 360.986 126.217 360.455C125.822 360.084 125.39 359.833 124.935 359.697C124.48 359.56 124.062 359.515 123.691 359.568C123.319 359.621 122.682 359.765 121.764 360.015C121.217 360.167 120.823 360.182 120.58 360.069C120.337 359.955 120.004 359.697 119.571 359.295C119.397 359.135 119.298 358.984 119.268 358.84C119.237 358.695 119.283 358.559 119.404 358.43C119.548 358.278 119.7 358.24 119.859 358.316C120.019 358.392 120.36 358.673 120.884 359.151L121.111 359.363L121.354 359.591L121.635 359.666L121.445 359.492L123.144 357.664L122.765 357.315C121.908 356.518 121.126 356.154 120.421 356.215C119.715 356.283 119.101 356.549 118.57 357.011L118.008 356.495L118.1 356.397L117.819 356.321L116.992 357.209L117.72 357.884C117.197 358.635 116.977 359.355 117.06 360.046C117.144 360.736 117.531 361.404 118.221 362.041C118.653 362.443 119.07 362.709 119.465 362.853L119.473 362.845Z" fill="#D16A0D"/>
<path d="M121.877 364.826L123.668 362.899L123.986 363.195C124.328 363.513 124.571 363.695 124.715 363.748C124.859 363.801 125.003 363.748 125.14 363.604C125.246 363.49 125.284 363.354 125.253 363.217C125.215 363.073 125.109 362.921 124.927 362.747C124.624 362.466 124.358 362.33 124.123 362.337C123.895 362.337 123.334 362.474 122.454 362.724C121.703 362.937 121.164 363.066 120.846 363.096C120.519 363.126 120.163 363.073 119.761 362.929C119.359 362.785 118.941 362.512 118.517 362.117C117.826 361.48 117.439 360.813 117.356 360.122C117.273 359.424 117.493 358.704 118.016 357.96L117.288 357.285L118.115 356.397L118.866 357.095C119.397 356.625 120.011 356.359 120.717 356.299C121.422 356.238 122.204 356.602 123.061 357.399L123.44 357.748L121.65 359.675L121.179 359.235C120.664 358.757 120.322 358.476 120.155 358.4C119.996 358.324 119.844 358.362 119.7 358.514C119.579 358.643 119.533 358.779 119.564 358.924C119.594 359.068 119.693 359.219 119.867 359.379C120.299 359.781 120.641 360.039 120.884 360.153C121.126 360.266 121.521 360.244 122.067 360.099C122.985 359.849 123.622 359.705 123.994 359.652C124.366 359.599 124.775 359.652 125.238 359.781C125.693 359.917 126.126 360.175 126.52 360.539C127.097 361.07 127.4 361.655 127.423 362.284C127.446 362.914 127.195 363.589 126.664 364.317L127.279 364.886L126.452 365.774L125.837 365.205C125.208 365.728 124.593 365.986 123.994 365.986C123.395 365.986 122.81 365.713 122.242 365.19C122.166 365.114 122.044 365 121.893 364.833L121.877 364.826Z" fill="white"/>
<g style="mix-blend-mode:screen" opacity="0.7">
<path style="mix-blend-mode:screen" d="M125.807 365.214L125.799 365.214C125.253 365.662 124.722 365.92 124.199 365.973C124.722 365.92 125.261 365.669 125.815 365.214L125.807 365.214Z" fill="url(#paint2_linear_1414_1573)"/>
<path style="mix-blend-mode:screen" d="M124.859 363.765C124.813 363.765 124.768 363.765 124.722 363.742C124.578 363.689 124.335 363.507 123.994 363.188L123.675 362.892L123.675 362.907L123.971 363.196C124.313 363.514 124.555 363.696 124.699 363.749C124.752 363.765 124.806 363.772 124.851 363.765L124.859 363.765Z" fill="url(#paint3_linear_1414_1573)"/>
<path style="mix-blend-mode:screen" d="M119.518 358.918C119.548 359.062 119.647 359.214 119.822 359.373C120.254 359.775 120.595 360.033 120.83 360.147C120.975 360.215 121.179 360.238 121.437 360.208C121.187 360.23 120.997 360.208 120.853 360.147C120.61 360.033 120.269 359.775 119.837 359.373C119.662 359.214 119.564 359.062 119.533 358.918C119.503 358.774 119.548 358.637 119.67 358.508C119.753 358.425 119.837 358.372 119.92 358.356C119.822 358.356 119.73 358.417 119.647 358.508C119.526 358.637 119.48 358.774 119.51 358.918L119.518 358.918Z" fill="url(#paint4_linear_1414_1573)"/>
<path style="mix-blend-mode:screen" d="M120.838 363.098C121.164 363.067 121.695 362.946 122.446 362.726C123.228 362.506 123.759 362.377 124.024 362.347C123.759 362.369 123.228 362.498 122.423 362.726C121.688 362.938 121.157 363.06 120.83 363.098L120.838 363.098Z" fill="url(#paint5_linear_1414_1573)"/>
<path style="mix-blend-mode:screen" d="M118.835 357.088L118.85 357.088L118.107 356.39L118.107 356.405L118.835 357.088Z" fill="url(#paint6_linear_1414_1573)"/>
<path style="mix-blend-mode:screen" d="M120.679 356.286C121.384 356.225 122.166 356.589 123.023 357.386L123.402 357.735L121.627 359.654L121.635 359.654L123.425 357.735L123.046 357.386C122.188 356.589 121.407 356.225 120.702 356.286C120.679 356.286 120.656 356.286 120.633 356.286C120.648 356.286 120.664 356.286 120.679 356.286Z" fill="url(#paint7_linear_1414_1573)"/>
<path style="mix-blend-mode:screen" d="M124.024 359.637C124.373 359.6 124.76 359.653 125.185 359.774C125.64 359.911 126.073 360.168 126.467 360.533C127.044 361.064 127.347 361.648 127.37 362.277C127.392 362.907 127.142 363.582 126.611 364.311L127.226 364.88L126.414 365.752L126.421 365.752L127.248 364.872L126.634 364.303C127.165 363.582 127.415 362.9 127.392 362.27C127.37 361.64 127.066 361.056 126.49 360.525C126.095 360.153 125.663 359.903 125.208 359.766C124.775 359.637 124.381 359.592 124.024 359.63L124.024 359.637Z" fill="url(#paint8_linear_1414_1573)"/>
</g>
</g>
<g style="mix-blend-mode:multiply">
<path d="M175.54 53.1539C175.13 53.1676 174.72 53.195 174.324 53.2496C173.887 53.3042 173.45 53.3589 173.013 53.4408C172.535 53.5364 172.043 53.6457 171.565 53.7686C171.019 53.9188 170.473 54.0963 169.94 54.3012C169.271 54.547 168.616 54.8475 167.987 55.1889C166.936 55.7489 165.939 56.4043 164.996 57.1828C164.409 57.6744 163.836 58.2071 163.303 58.7807C162.77 59.3543 162.279 59.9688 161.828 60.5833L161.364 61.0886L161.432 61.157L161.965 61.6486L162.579 62.2084L163.194 62.7684L163.808 63.3284L164.423 63.8883L165.037 64.4481L165.652 65.0218L166.267 65.5818L166.881 66.1552L167.496 66.7152L168.11 67.2889L168.725 67.8487L169.339 68.4087L169.954 68.9686L170.568 69.5421L171.183 70.1021L171.798 70.6621L172.412 71.2357L173.027 71.7955L173.641 72.3692L174.256 72.9292L174.87 73.489L175.485 74.0489L176.099 74.6226L176.714 75.1824L177.329 75.756L177.943 76.316L178.558 76.876L179.172 77.4358L179.787 78.0095L180.401 78.5694L181.016 79.1292L181.631 79.7029L182.245 80.2629L182.86 80.8227L183.474 81.3963L184.089 81.9563L184.703 82.5161L185.318 83.0761L185.932 83.6361L186.547 84.196L187.08 84.6877L187.162 84.7559L187.626 84.2506C188.213 83.7589 188.787 83.2264 189.319 82.6528C189.852 82.0792 190.344 81.4782 190.794 80.85C191.504 79.8531 192.092 78.8016 192.57 77.7227C192.856 77.0672 193.102 76.3842 193.307 75.7014C193.471 75.1551 193.608 74.5952 193.717 74.0353C193.812 73.5573 193.881 73.0657 193.935 72.5741C193.99 72.137 194.017 71.6862 194.031 71.2492C194.045 70.8395 194.031 70.43 194.031 70.0339C194.017 69.6515 193.99 69.269 193.949 68.8866C193.908 68.5315 193.867 68.1766 193.812 67.8215C193.758 67.4801 193.69 67.1385 193.621 66.8107C193.553 66.483 193.471 66.1689 193.375 65.8548C193.293 65.5407 193.198 65.2402 193.089 64.9398C192.993 64.653 192.884 64.3527 192.761 64.0659C192.652 63.7927 192.529 63.5058 192.392 63.2327C192.269 62.9595 192.133 62.7001 191.996 62.4406C191.859 62.1811 191.723 61.9354 191.573 61.6759C191.422 61.4301 191.272 61.1842 191.108 60.9521C190.958 60.7199 190.794 60.4877 190.617 60.2556C190.453 60.0234 190.275 59.8049 190.098 59.5864C189.92 59.3679 189.743 59.1631 189.551 58.9446C189.374 58.7397 189.183 58.5348 188.978 58.3299C188.787 58.1387 188.582 57.9339 188.377 57.7428C188.172 57.5516 187.967 57.374 187.749 57.1964C187.53 57.0189 187.325 56.8414 187.093 56.6775C186.875 56.4999 186.643 56.3361 186.424 56.1859C186.192 56.022 185.96 55.8716 185.714 55.7214C185.468 55.5712 185.222 55.421 184.976 55.2845C184.731 55.1479 184.471 55.0113 184.212 54.8884C183.952 54.7518 183.679 54.6288 183.42 54.5196C183.146 54.3967 182.873 54.2874 182.6 54.1782C182.313 54.0689 182.027 53.9734 181.74 53.8778C181.439 53.7822 181.139 53.7003 180.838 53.6184C180.524 53.5364 180.21 53.4681 179.91 53.3998C179.582 53.3315 179.254 53.2769 178.926 53.2359C178.585 53.1813 178.244 53.1404 177.902 53.1131C177.547 53.0857 177.178 53.0584 176.823 53.0447C176.441 53.0447 176.059 53.0447 175.676 53.0447L175.54 53.1539Z" fill="#A249FB"/>
</g>
<path d="M159.425 78.1873C155.642 69.2148 159.862 58.8628 168.835 55.0936C177.807 51.3106 188.159 55.5306 191.928 64.5031C195.711 73.4757 191.491 83.8276 182.519 87.5969C173.546 91.3798 163.194 87.1599 159.425 78.1873Z" fill="url(#paint9_linear_1414_1573)"/>
<path d="M164.793 61.2531C170.378 55.2441 179.774 54.8891 185.783 60.4748C191.792 66.0604 192.147 75.4563 186.562 81.4653C180.976 87.4743 171.58 87.8293 165.571 82.2437C159.562 76.658 159.207 67.2621 164.793 61.2531Z" fill="url(#paint10_linear_1414_1573)"/>
<path d="M172.713 66.4969C172.453 67.2207 172.344 67.8763 172.412 68.4499C172.467 69.0371 172.685 69.9931 173.081 71.3451C173.532 72.943 173.764 73.9398 173.778 74.3495C173.791 74.7729 173.546 75.251 173.04 75.7973C172.74 76.125 172.453 76.3161 172.194 76.3844C171.934 76.4527 171.702 76.3845 171.483 76.1934C171.224 75.9475 171.128 75.688 171.224 75.4285C171.32 75.169 171.647 74.732 172.221 74.1175L172.439 73.8853L172.617 74.0491L172.754 73.5438L169.285 70.3208C168.984 70.594 168.779 70.7988 168.643 70.949C167.687 71.9733 167.209 73.0249 167.209 74.1038C167.209 75.1827 167.673 76.2888 168.616 77.4087L167.591 78.5149L167.455 79.0202L167.769 78.6788L169.189 80.0035L170.213 78.8974C171.511 79.8534 172.74 80.304 173.873 80.2631C175.007 80.2221 176.058 79.6757 177.014 78.6378C177.684 77.9277 178.134 77.1493 178.38 76.3299C178.626 75.5105 178.708 74.7593 178.612 74.0901C178.517 73.421 178.257 72.2737 177.807 70.6213C177.533 69.638 177.506 68.9279 177.711 68.4909C177.916 68.0539 178.38 67.4528 179.104 66.6744C179.391 66.3603 179.664 66.1827 179.923 66.1281C180.183 66.0735 180.429 66.1555 180.661 66.374C180.934 66.6335 181.002 66.9066 180.866 67.1934C180.729 67.4802 180.224 68.0947 179.363 69.037L178.981 69.4468L178.571 69.8837L178.435 70.3892L178.749 70.0478L182.04 73.1069L182.668 72.4241C184.102 70.8808 184.758 69.4741 184.649 68.204C184.526 66.9339 184.048 65.8278 183.215 64.8718L184.143 63.8612L184.321 64.0251L184.457 63.5198L182.86 62.031L181.644 63.3422C180.292 62.3999 178.995 62.0039 177.752 62.1541C176.509 62.3043 175.307 63.0008 174.16 64.2436C173.436 65.0221 172.958 65.773 172.699 66.4832L172.713 66.4969Z" fill="#B061FE"/>
<path d="M169.149 70.8269L172.618 74.0499L172.085 74.6235C171.512 75.2381 171.184 75.675 171.088 75.9345C170.993 76.194 171.088 76.4536 171.348 76.6994C171.553 76.8906 171.798 76.9587 172.044 76.9041C172.304 76.8358 172.577 76.6447 172.891 76.317C173.396 75.7707 173.642 75.2926 173.628 74.8692C173.628 74.4595 173.383 73.449 172.932 71.8648C172.55 70.5128 172.317 69.5432 172.263 68.9696C172.208 68.3823 172.304 67.7404 172.563 67.0166C172.823 66.2928 173.314 65.5416 174.024 64.7768C175.172 63.534 176.373 62.8377 177.616 62.6875C178.873 62.5372 180.17 62.9333 181.508 63.8756L182.724 62.5644L184.322 64.0531L183.065 65.4051C183.912 66.3611 184.39 67.4673 184.499 68.7373C184.609 70.0074 183.953 71.414 182.519 72.9573L181.891 73.6401L178.422 70.4171L179.214 69.5704C180.074 68.6417 180.58 68.0272 180.716 67.7267C180.853 67.44 180.785 67.1668 180.511 66.9074C180.279 66.6889 180.033 66.6068 179.774 66.6615C179.514 66.7161 179.241 66.8937 178.955 67.2078C178.231 67.9862 177.766 68.6007 177.562 69.0377C177.357 69.4748 177.398 70.185 177.657 71.1683C178.108 72.8208 178.367 73.968 178.463 74.6372C178.559 75.3064 178.463 76.0439 178.231 76.8769C177.985 77.6963 177.521 78.4747 176.865 79.1849C175.909 80.2228 174.858 80.769 173.724 80.8099C172.59 80.8509 171.375 80.4002 170.064 79.4443L169.04 80.5505L167.442 79.062L168.466 77.9557C167.524 76.8222 167.059 75.7161 167.059 74.6372C167.059 73.5583 167.551 72.5066 168.493 71.4824C168.63 71.3458 168.835 71.1274 169.135 70.8542L169.149 70.8269Z" fill="white"/>
<g style="mix-blend-mode:screen" opacity="0.7">
<path style="mix-blend-mode:screen" d="M168.451 77.9006L168.451 77.8869C167.646 76.9036 167.181 75.9475 167.086 75.0051C167.181 75.9475 167.632 76.9171 168.451 77.9141L168.451 77.9006Z" fill="url(#paint11_linear_1414_1573)"/>
<path style="mix-blend-mode:screen" d="M171.06 76.1934C171.06 76.1114 171.06 76.0294 171.101 75.9475C171.196 75.688 171.524 75.251 172.097 74.6365L172.63 74.0628L172.603 74.0628L172.084 74.5954C171.51 75.21 171.182 75.647 171.087 75.9065C171.06 76.0021 171.046 76.0977 171.06 76.1797L171.06 76.1934Z" fill="url(#paint12_linear_1414_1573)"/>
<path style="mix-blend-mode:screen" d="M179.786 66.5799C179.527 66.6346 179.254 66.8121 178.967 67.1262C178.243 67.9047 177.779 68.5192 177.574 68.9425C177.451 69.202 177.41 69.5708 177.465 70.0352C177.424 69.5845 177.465 69.243 177.574 68.9836C177.779 68.5465 178.243 67.9319 178.967 67.1534C179.254 66.8393 179.527 66.6619 179.786 66.6073C180.046 66.5526 180.292 66.6345 180.524 66.853C180.674 67.0032 180.769 67.1536 180.797 67.3038C180.797 67.1262 180.688 66.9622 180.524 66.812C180.292 66.5935 180.046 66.5116 179.786 66.5663L179.786 66.5799Z" fill="url(#paint13_linear_1414_1573)"/>
<path style="mix-blend-mode:screen" d="M172.261 68.9556C172.316 69.5428 172.534 70.4988 172.93 71.8508C173.326 73.2575 173.559 74.2134 173.613 74.6914C173.572 74.2134 173.34 73.2575 172.93 71.8098C172.548 70.4851 172.329 69.5292 172.261 68.9419L172.261 68.9556Z" fill="url(#paint14_linear_1414_1573)"/>
<path style="mix-blend-mode:screen" d="M183.078 65.3496L183.078 65.377L184.335 64.0386L184.307 64.0386L183.078 65.3496Z" fill="url(#paint15_linear_1414_1573)"/>
<path style="mix-blend-mode:screen" d="M184.525 68.6695C184.634 69.9396 183.979 71.3462 182.545 72.8894L181.916 73.5723L178.461 70.3766L178.461 70.3903L181.916 73.6133L182.545 72.9304C183.979 71.3872 184.634 69.9804 184.525 68.7104C184.525 68.6694 184.525 68.6285 184.525 68.5875C184.525 68.6148 184.525 68.6422 184.525 68.6695Z" fill="url(#paint16_linear_1414_1573)"/>
<path style="mix-blend-mode:screen" d="M178.489 74.6915C178.558 75.3197 178.462 76.0163 178.244 76.7811C177.998 77.6005 177.533 78.379 176.878 79.0892C175.922 80.1271 174.87 80.6733 173.737 80.7142C172.603 80.7552 171.388 80.3045 170.077 79.3486L169.053 80.4548L167.482 78.9935L167.482 79.0071L169.066 80.4957L170.091 79.3896C171.388 80.3455 172.617 80.7962 173.751 80.7553C174.884 80.7143 175.936 80.1679 176.892 79.13C177.561 78.4198 178.011 77.6415 178.257 76.8221C178.489 76.0436 178.571 75.3334 178.503 74.6915L178.489 74.6915Z" fill="url(#paint17_linear_1414_1573)"/>
</g>
<g style="mix-blend-mode:multiply">
<path d="M286.713 219.17C285.71 219.203 284.708 219.27 283.738 219.404C282.669 219.538 281.6 219.672 280.53 219.872C279.36 220.106 278.157 220.373 276.987 220.674C275.65 221.042 274.314 221.476 273.01 221.978C271.373 222.579 269.768 223.315 268.231 224.15C265.657 225.52 263.218 227.125 260.912 229.03C259.474 230.233 258.071 231.536 256.767 232.94C255.464 234.344 254.261 235.848 253.158 237.352L252.021 238.588L252.188 238.755L253.492 239.959L254.996 241.329L256.5 242.699L258.004 244.069L259.508 245.44L261.012 246.81L262.516 248.214L264.02 249.584L265.524 250.988L267.028 252.358L268.532 253.762L270.036 255.132L271.54 256.502L273.044 257.873L274.548 259.276L276.052 260.646L277.555 262.017L279.059 263.421L280.563 264.791L282.067 266.195L283.571 267.565L285.075 268.935L286.579 270.305L288.083 271.709L289.587 273.079L291.091 274.483L292.595 275.853L294.099 277.224L295.603 278.594L297.107 279.998L298.611 281.368L300.115 282.738L301.619 284.142L303.123 285.512L304.627 286.882L306.131 288.286L307.635 289.657L309.139 291.027L310.643 292.397L312.147 293.767L313.651 295.138L314.954 296.341L315.155 296.508L316.291 295.271C317.728 294.068 319.132 292.765 320.436 291.361C321.739 289.957 322.942 288.487 324.045 286.949C325.783 284.509 327.22 281.936 328.39 279.296C329.092 277.692 329.693 276.02 330.195 274.349C330.596 273.012 330.93 271.642 331.197 270.272C331.431 269.102 331.598 267.899 331.732 266.696C331.866 265.626 331.933 264.523 331.966 263.454C331.999 262.451 331.966 261.449 331.966 260.48C331.933 259.544 331.866 258.608 331.765 257.672C331.665 256.803 331.565 255.934 331.431 255.065C331.297 254.23 331.13 253.394 330.963 252.592C330.796 251.79 330.596 251.021 330.362 250.252C330.161 249.484 329.927 248.748 329.66 248.013C329.426 247.311 329.159 246.576 328.858 245.874C328.59 245.206 328.29 244.504 327.955 243.835C327.655 243.167 327.32 242.532 326.986 241.897C326.652 241.262 326.318 240.661 325.95 240.026C325.582 239.424 325.215 238.822 324.814 238.254C324.446 237.686 324.045 237.118 323.611 236.55C323.209 235.981 322.775 235.447 322.34 234.912C321.906 234.377 321.472 233.876 321.004 233.341C320.569 232.84 320.101 232.338 319.6 231.837C319.132 231.369 318.631 230.868 318.129 230.4C317.628 229.932 317.127 229.498 316.592 229.063C316.057 228.629 315.556 228.194 314.988 227.793C314.453 227.359 313.885 226.958 313.35 226.59C312.782 226.189 312.214 225.821 311.612 225.453C311.011 225.086 310.409 224.718 309.807 224.384C309.206 224.05 308.571 223.715 307.936 223.415C307.301 223.08 306.632 222.78 305.997 222.512C305.329 222.211 304.66 221.944 303.992 221.677C303.29 221.409 302.588 221.175 301.886 220.941C301.151 220.708 300.416 220.507 299.681 220.307C298.912 220.106 298.143 219.939 297.408 219.772C296.606 219.605 295.804 219.471 295.002 219.371C294.166 219.237 293.33 219.137 292.495 219.07C291.626 219.003 290.724 218.936 289.855 218.903C288.919 218.903 287.983 218.903 287.047 218.903L286.713 219.17Z" fill="#A249FB"/>
</g>
<path d="M247.276 280.432C238.019 258.474 248.346 233.141 270.304 223.916C292.262 214.658 317.596 224.986 326.82 246.944C336.078 268.902 325.751 294.236 303.793 303.46C281.834 312.718 256.501 302.39 247.276 280.432Z" fill="url(#paint18_linear_1414_1573)"/>
<path d="M260.412 238.99C274.082 224.284 297.076 223.415 311.781 237.085C326.487 250.754 327.356 273.748 313.686 288.454C300.017 303.159 277.023 304.028 262.317 290.359C247.612 276.689 246.743 253.695 260.412 238.99Z" fill="url(#paint19_linear_1414_1573)"/>
<path d="M279.795 251.824C279.16 253.595 278.892 255.2 279.059 256.603C279.193 258.041 279.728 260.38 280.697 263.689C281.8 267.599 282.368 270.039 282.401 271.041C282.435 272.077 281.833 273.247 280.597 274.584C279.861 275.386 279.16 275.854 278.525 276.021C277.89 276.188 277.321 276.022 276.787 275.554C276.152 274.952 275.918 274.317 276.152 273.682C276.386 273.047 277.188 271.977 278.591 270.474L279.126 269.905L279.561 270.306L279.895 269.07L271.406 261.182C270.67 261.851 270.169 262.352 269.835 262.719C267.495 265.226 266.326 267.8 266.326 270.44C266.326 273.08 267.462 275.787 269.768 278.528L267.261 281.235L266.927 282.472L267.696 281.636L271.172 284.878L273.678 282.171C276.853 284.511 279.861 285.614 282.635 285.513C285.409 285.413 287.983 284.076 290.322 281.536C291.96 279.798 293.063 277.893 293.665 275.888C294.266 273.883 294.467 272.044 294.233 270.407C293.999 268.769 293.364 265.961 292.261 261.917C291.592 259.511 291.526 257.773 292.027 256.704C292.528 255.634 293.665 254.163 295.436 252.258C296.138 251.49 296.806 251.055 297.441 250.922C298.076 250.788 298.678 250.989 299.246 251.523C299.914 252.158 300.082 252.827 299.747 253.528C299.413 254.23 298.177 255.734 296.071 258.04L295.135 259.043L294.133 260.112L293.798 261.349L294.567 260.514L302.622 268L304.159 266.329C307.668 262.553 309.272 259.11 309.005 256.002C308.704 252.893 307.535 250.186 305.496 247.847L307.769 245.374L308.203 245.775L308.537 244.538L304.627 240.895L301.652 244.104C298.344 241.798 295.169 240.828 292.127 241.196C289.086 241.564 286.145 243.268 283.337 246.31C281.566 248.215 280.396 250.053 279.761 251.791L279.795 251.824Z" fill="#B061FE"/>
<path d="M271.073 262.42L279.562 270.308L278.259 271.711C276.855 273.215 276.053 274.285 275.819 274.92C275.585 275.555 275.819 276.19 276.454 276.792C276.956 277.26 277.557 277.426 278.159 277.293C278.794 277.126 279.462 276.658 280.231 275.856C281.468 274.519 282.069 273.349 282.036 272.313C282.036 271.31 281.434 268.837 280.331 264.96C279.395 261.651 278.827 259.279 278.693 257.875C278.56 256.438 278.794 254.867 279.429 253.095C280.064 251.324 281.267 249.486 283.005 247.614C285.812 244.573 288.753 242.869 291.795 242.501C294.87 242.133 298.045 243.103 301.32 245.409L304.294 242.2L308.205 245.843L305.13 249.152C307.202 251.491 308.372 254.198 308.639 257.307C308.907 260.415 307.302 263.857 303.793 267.634L302.256 269.305L293.767 261.417L295.705 259.345C297.811 257.073 299.047 255.569 299.382 254.833C299.716 254.131 299.549 253.463 298.88 252.828C298.312 252.293 297.71 252.093 297.075 252.226C296.44 252.36 295.772 252.795 295.07 253.563C293.299 255.468 292.162 256.972 291.661 258.042C291.16 259.111 291.26 260.849 291.895 263.256C292.998 267.3 293.633 270.107 293.867 271.745C294.101 273.383 293.867 275.187 293.299 277.226C292.697 279.231 291.561 281.136 289.957 282.874C287.617 285.414 285.044 286.751 282.27 286.851C279.496 286.951 276.521 285.849 273.313 283.509L270.806 286.216L266.896 282.573L269.402 279.866C267.096 277.092 265.96 274.385 265.96 271.745C265.96 269.105 267.163 266.531 269.469 264.024C269.803 263.69 270.305 263.155 271.04 262.487L271.073 262.42Z" fill="white"/>
<g style="mix-blend-mode:screen" opacity="0.7">
<path style="mix-blend-mode:screen" d="M269.366 279.731L269.366 279.697C267.395 277.291 266.258 274.951 266.024 272.645C266.258 274.951 267.361 277.324 269.366 279.764L269.366 279.731Z" fill="url(#paint20_linear_1414_1573)"/>
<path style="mix-blend-mode:screen" d="M275.749 275.553C275.749 275.352 275.749 275.151 275.85 274.951C276.084 274.316 276.886 273.247 278.289 271.743L279.593 270.339L279.526 270.339L278.256 271.642C276.852 273.146 276.05 274.216 275.816 274.851C275.749 275.085 275.716 275.319 275.749 275.519L275.749 275.553Z" fill="url(#paint21_linear_1414_1573)"/>
<path style="mix-blend-mode:screen" d="M297.105 252.025C296.47 252.158 295.802 252.593 295.1 253.362C293.329 255.267 292.192 256.771 291.691 257.807C291.39 258.442 291.29 259.344 291.424 260.48C291.323 259.378 291.424 258.542 291.691 257.907C292.192 256.837 293.329 255.333 295.1 253.428C295.802 252.659 296.47 252.225 297.105 252.092C297.74 251.958 298.342 252.158 298.91 252.693C299.278 253.061 299.512 253.428 299.578 253.796C299.578 253.362 299.311 252.96 298.91 252.593C298.342 252.058 297.74 251.858 297.105 251.991L297.105 252.025Z" fill="url(#paint22_linear_1414_1573)"/>
<path style="mix-blend-mode:screen" d="M278.69 257.838C278.824 259.275 279.359 261.615 280.328 264.923C281.297 268.366 281.865 270.705 281.999 271.875C281.899 270.705 281.33 268.366 280.328 264.823C279.392 261.581 278.857 259.242 278.69 257.805L278.69 257.838Z" fill="url(#paint23_linear_1414_1573)"/>
<path style="mix-blend-mode:screen" d="M305.163 249.013L305.163 249.08L308.238 245.805L308.171 245.805L305.163 249.013Z" fill="url(#paint24_linear_1414_1573)"/>
<path style="mix-blend-mode:screen" d="M308.703 257.138C308.97 260.246 307.366 263.688 303.856 267.465L302.319 269.136L293.863 261.315L293.863 261.349L302.319 269.236L303.856 267.565C307.366 263.789 308.97 260.346 308.703 257.238C308.703 257.137 308.703 257.037 308.703 256.937C308.703 257.004 308.703 257.071 308.703 257.138Z" fill="url(#paint25_linear_1414_1573)"/>
<path style="mix-blend-mode:screen" d="M293.933 271.873C294.1 273.41 293.866 275.115 293.331 276.987C292.73 278.992 291.593 280.897 289.989 282.635C287.649 285.175 285.076 286.512 282.302 286.612C279.528 286.712 276.554 285.609 273.345 283.27L270.838 285.977L266.995 282.401L266.995 282.434L270.872 286.077L273.378 283.37C276.553 285.71 279.562 286.813 282.336 286.712C285.11 286.612 287.683 285.275 290.022 282.735C291.66 280.997 292.763 279.092 293.365 277.087C293.933 275.182 294.133 273.444 293.966 271.873L293.933 271.873Z" fill="url(#paint26_linear_1414_1573)"/>
</g>
<path d="M350.15 152.093C382.741 133.276 393.908 91.6022 375.091 59.0114C356.275 26.4207 314.601 15.2549 282.01 34.0712C249.419 52.8876 238.253 94.5605 257.07 127.151C275.886 159.742 317.559 170.909 350.15 152.093Z" fill="url(#paint27_radial_1414_1573)" style="mix-blend-mode:luminosity"/>
<path d="M356.522 69.7324C369.418 92.0676 361.765 120.628 339.429 133.523C317.094 146.419 288.534 138.766 275.639 116.43C262.744 94.0952 270.396 65.5357 292.731 52.6404C315.067 39.7451 343.627 47.3972 356.522 69.7324Z" stroke="#683EE6" stroke-width="2"/>
<path fill-rule="evenodd" clip-rule="evenodd" d="M267.56 140.946C266.14 135.449 263.96 130.05 260.982 124.892C258.005 119.735 254.419 115.148 250.368 111.169C249.753 108.94 249.256 106.695 248.876 104.441C254.96 109.472 260.267 115.654 264.446 122.892C268.625 130.131 271.326 137.818 272.64 145.603C270.879 144.146 269.183 142.593 267.56 140.946Z" fill="#9D7CFF"/>
<path fill-rule="evenodd" clip-rule="evenodd" d="M297.993 27.3683C294.014 31.4195 289.426 35.0054 284.269 37.9832C279.111 40.9609 273.712 43.1409 268.214 44.5615C266.567 46.184 265.014 47.8802 263.558 49.6416C271.343 48.3268 279.03 45.6267 286.269 41.4473C293.508 37.2679 299.69 31.9608 304.721 25.876C302.467 26.2566 300.222 26.7533 297.993 27.3683Z" fill="#9D7CFF"/>
<path d="M350.15 152.093C382.741 133.276 393.908 91.6022 375.091 59.0114C356.275 26.4207 314.601 15.2549 282.01 34.0712C249.419 52.8876 238.253 94.5605 257.07 127.151C275.886 159.742 317.559 170.909 350.15 152.093Z" fill="url(#paint28_radial_1414_1573)" style="mix-blend-mode:luminosity"/>
<path d="M356.522 69.7324C369.418 92.0676 361.765 120.628 339.429 133.523C317.094 146.419 288.534 138.766 275.639 116.43C262.744 94.0952 270.396 65.5357 292.731 52.6404C315.067 39.7451 343.627 47.3972 356.522 69.7324Z" stroke="#683EE6" stroke-width="2"/>
<path fill-rule="evenodd" clip-rule="evenodd" d="M267.56 140.946C266.14 135.449 263.96 130.05 260.982 124.892C258.005 119.735 254.419 115.148 250.368 111.169C249.753 108.94 249.256 106.695 248.876 104.441C254.96 109.472 260.267 115.654 264.446 122.892C268.625 130.131 271.326 137.818 272.64 145.603C270.879 144.146 269.183 142.593 267.56 140.946Z" fill="#9D7CFF"/>
<path fill-rule="evenodd" clip-rule="evenodd" d="M297.993 27.3683C294.014 31.4195 289.426 35.0054 284.269 37.9832C279.111 40.9609 273.712 43.1409 268.214 44.5615C266.567 46.184 265.014 47.8802 263.558 49.6416C271.343 48.3268 279.03 45.6267 286.269 41.4473C293.508 37.2679 299.69 31.9608 304.721 25.876C302.467 26.2566 300.222 26.7533 297.993 27.3683Z" fill="#9D7CFF"/>
<path d="M129 280C142.807 280 154 268.807 154 255C154 241.193 142.807 230 129 230C115.192 230 104 241.193 104 255C104 268.807 115.192 280 129 280Z" fill="url(#paint29_radial_1414_1573)" style="mix-blend-mode:luminosity"/>
<path d="M145.5 255C145.5 264.113 138.113 271.5 129 271.5C119.887 271.5 112.5 264.113 112.5 255C112.5 245.887 119.887 238.5 129 238.5C138.113 238.5 145.5 245.887 145.5 255Z" stroke="#683EE6" stroke-width="2"/>
<path fill-rule="evenodd" clip-rule="evenodd" d="M137.719 278.437C135.004 279.448 132.066 280 129 280C125.933 280 122.995 279.448 120.281 278.438C122.995 277.427 125.933 276.875 129 276.875C132.066 276.875 135.004 277.427 137.719 278.437Z" fill="#9D7CFF"/>
<path fill-rule="evenodd" clip-rule="evenodd" d="M152.438 246.281C151.427 248.996 150.875 251.934 150.875 255C150.875 258.067 151.427 261.004 152.437 263.719C153.448 261.004 154 258.067 154 255C154 251.934 153.448 248.996 152.438 246.281Z" fill="#9D7CFF"/>
<path fill-rule="evenodd" clip-rule="evenodd" d="M105.562 263.72C106.573 261.005 107.125 258.067 107.125 255C107.125 251.934 106.573 248.996 105.562 246.281C104.552 248.996 104 251.934 104 255C104 258.067 104.552 261.005 105.562 263.72Z" fill="#9D7CFF"/>
<path fill-rule="evenodd" clip-rule="evenodd" d="M137.719 231.563C135.004 232.573 132.066 233.125 129 233.125C125.933 233.125 122.995 232.573 120.281 231.562C122.995 230.552 125.933 230 129 230C132.066 230 135.004 230.552 137.719 231.563Z" fill="#9D7CFF"/>
<g filter="url(#filter0_d_1414_1573)">
<path d="M102.07 521.595C93.2155 509.988 69.4828 507.928 45.7029 517.506C21.9229 527.084 6.24256 545.013 7.89394 559.514L7.20203 559.482L8.38159 562.329C14.4681 577.427 40.7486 581.092 67.0764 570.476C93.4042 559.876 109.808 539.037 103.737 523.923L102.558 521.06L102.086 521.579L102.07 521.595Z" fill="#D16A0D"/>
<path d="M100.875 516.882C101.237 517.763 101.441 518.109 101.693 518.801C101.787 519.068 102.495 520.719 102.558 521.065C104.885 535.708 88.7805 554.581 64.5759 564.332C39.8052 574.303 15.1288 571.33 7.21787 559.456C7.21787 559.456 5.89667 556.169 5.55067 555.273C-0.535861 540.159 15.8837 519.32 42.2115 508.719C68.5393 498.119 94.8198 501.768 100.891 516.866L100.875 516.882Z" fill="#D16A0D"/>
<path d="M100.608 516.229C106.694 531.328 90.2745 552.182 63.9467 562.783C37.6189 573.383 11.3384 569.734 5.2676 554.636C-0.818933 539.538 15.6005 518.683 41.9282 508.083C68.256 497.482 94.5367 501.131 100.608 516.229Z" fill="url(#paint30_linear_1414_1573)"/>
<g style="mix-blend-mode:screen" opacity="0.5">
<path d="M41.9912 508.235C68.2718 497.651 94.4896 501.268 100.639 516.304C100.639 516.272 100.623 516.256 100.608 516.225C94.521 501.111 68.256 497.462 41.9282 508.078C15.6005 518.679 -0.818933 539.517 5.2676 554.632C5.2676 554.663 5.28336 554.679 5.29909 554.71C-0.693082 539.612 15.7106 518.836 41.9912 508.251V508.235Z" fill="#FEF0A0"/>
</g>
<path d="M93.0745 519.259C98.2016 531.982 84.3772 549.534 62.2014 558.452C40.0257 567.385 17.913 564.302 12.7858 551.579C7.65867 538.855 21.4831 521.303 43.6589 512.386C65.8346 503.453 87.963 506.535 93.0745 519.259Z" fill="url(#paint31_linear_1414_1573)"/>
<path d="M93.0745 519.259C98.2016 531.982 84.3772 549.534 62.2014 558.452C40.0257 567.385 17.913 564.302 12.7858 551.579C7.65867 538.855 21.4831 521.303 43.6589 512.386C65.8346 503.453 87.963 506.535 93.0745 519.259Z" fill="url(#paint32_linear_1414_1573)"/>
<g style="mix-blend-mode:multiply">
<path d="M43.6586 512.392C65.7714 503.49 87.8369 506.526 93.0427 519.171C93.0427 519.139 93.0114 519.108 93.0114 519.076C87.8843 506.353 65.7556 503.286 43.5956 512.219C21.4199 521.152 7.61114 538.704 12.7226 551.412C12.7383 551.443 12.7541 551.475 12.7698 551.506C7.76846 538.798 21.5613 521.31 43.6741 512.408L43.6586 512.392Z" fill="#FEF0A0"/>
</g>
<g style="mix-blend-mode:screen" opacity="0.3">
<path d="M62.2174 558.456C40.0889 567.358 18.0075 564.322 12.8331 551.662C12.8331 551.693 12.8489 551.709 12.8646 551.74C17.9918 564.464 40.1047 567.531 62.2804 558.613C84.4562 549.68 98.2806 532.128 93.1535 519.42C93.1535 519.389 93.1377 519.373 93.122 519.342C98.1548 532.05 84.346 549.554 62.2174 558.456Z" fill="#FEF0A0"/>
</g>
<path opacity="0.4" d="M44.0827 513.417C66.054 504.562 87.8365 507.173 93.2153 519.598C93.1682 519.488 93.1367 519.362 93.0738 519.252C87.9624 506.528 65.834 503.461 43.6582 512.379C21.4825 521.312 7.67377 538.864 12.7852 551.572C12.8324 551.682 12.8795 551.792 12.9267 551.918C8.19272 539.226 22.0957 522.256 44.067 513.401L44.0827 513.417Z" fill="#D16A0D"/>
<g style="mix-blend-mode:multiply" opacity="0.4">
<path d="M68.7596 531.286C67.5171 530.546 66.196 530.122 64.7648 530.027C63.3493 529.917 60.7857 529.98 57.1055 530.2C52.7647 530.452 50.1069 530.515 49.1475 530.373C48.1567 530.248 47.4489 529.634 46.9928 528.518C46.7255 527.841 46.7255 527.275 46.9771 526.772C47.2445 526.284 47.7635 525.875 48.5341 525.561C49.5092 525.168 50.2169 525.105 50.673 525.372C51.1291 525.639 51.601 526.394 52.1043 527.652L51.3492 528.313L52.5917 528.832L65.3939 523.673C65.2366 523.044 65.0951 522.573 64.985 522.289C64.1357 520.182 62.5 518.94 60.0465 518.546C57.6088 518.137 54.3533 518.593 50.2798 519.915L49.3677 517.634L48.1252 517.131L47.8263 518.153L43.4699 520.025L44.382 522.305C40.1671 524.334 37.2103 526.379 35.5432 528.47C33.8604 530.546 33.4514 532.654 34.3007 534.777C34.8983 536.24 35.9363 537.356 37.4304 538.111C38.9245 538.866 40.4973 539.275 42.1644 539.338C43.8315 539.417 46.8826 539.338 51.3492 539.134C54.0229 539.008 55.6901 539.196 56.3821 539.715C57.0584 540.234 57.719 541.304 58.3638 542.892C58.6154 543.522 58.5996 544.088 58.3008 544.575C58.002 545.063 57.4358 545.487 56.5551 545.834C55.5485 546.242 54.8093 546.274 54.3532 545.912C53.8971 545.55 53.2839 544.418 52.5132 542.499L52.1671 541.65L51.8054 540.754L50.5628 540.234L49.6035 541.398L38.9874 545.912L39.5536 547.312C40.8275 550.489 42.9979 552.187 46.0648 552.423C49.1316 552.675 52.4187 552.187 55.9259 551.008L55.8002 553.257L57.027 553.776L62.9248 551.401L61.8395 548.727C66.1016 546.62 69.0269 544.402 70.6468 542.075C72.2668 539.747 72.5657 537.309 71.5434 534.777C70.9143 533.189 69.9706 532.025 68.7281 531.301L68.7596 531.286Z" fill="#AA7E03"/>
</g>
<path d="M64.1514 523.17L51.3492 528.329L50.8775 527.149C50.3742 525.891 49.8866 525.12 49.4462 524.869C48.9901 524.601 48.2824 524.664 47.3073 525.057C46.5209 525.372 46.0019 525.781 45.7503 526.269C45.4987 526.756 45.4987 527.338 45.766 528.014C46.2221 529.131 46.9299 529.744 47.9207 529.87C48.8801 529.996 51.5379 529.949 55.8787 529.697C59.5747 529.477 62.1225 529.414 63.5537 529.524C64.9692 529.618 66.2903 530.043 67.5328 530.782C68.7753 531.521 69.719 532.67 70.3481 534.258C71.3704 536.79 71.0714 539.228 69.4515 541.556C67.8316 543.883 64.9063 546.101 60.6442 548.208L61.7295 550.882L55.8317 553.257L54.7149 550.489C51.2234 551.684 47.9363 552.156 44.8537 551.904C41.7869 551.653 39.6166 549.954 38.3427 546.777L37.7764 545.393L50.5785 540.234L51.2864 541.98C52.057 543.899 52.6703 545.031 53.1106 545.393C53.5667 545.755 54.2902 545.723 55.3125 545.314C56.1775 544.968 56.7594 544.544 57.0425 544.056C57.3413 543.569 57.3571 543.003 57.1055 542.358C56.4607 540.769 55.8001 539.7 55.1238 539.181C54.4475 538.662 52.7805 538.457 50.1068 538.599C45.656 538.819 42.589 538.882 40.9219 538.803C39.2547 538.725 37.6822 538.316 36.1881 537.561C34.6939 536.806 33.6558 535.705 33.0581 534.242C32.2088 532.119 32.6178 530.012 34.3006 527.936C35.9835 525.86 38.9245 523.799 43.1395 521.77L42.2274 519.506L48.1252 517.131L49.0373 519.396C53.095 518.09 56.3507 517.634 58.8042 518.027C61.2419 518.42 62.8932 519.679 63.7424 521.786C63.8683 522.085 63.9941 522.541 64.1514 523.17Z" fill="white"/>
<g style="mix-blend-mode:screen" opacity="0.7">
<path style="mix-blend-mode:screen" d="M49.1156 519.362V519.393C52.6543 518.261 55.5795 517.758 57.8915 517.915C55.5795 517.742 52.6543 518.229 49.1156 519.362Z" fill="url(#paint33_linear_1414_1573)"/>
<path style="mix-blend-mode:screen" d="M48.9426 524.713C49.1314 524.729 49.3043 524.776 49.4301 524.87C49.8862 525.138 50.358 525.892 50.8613 527.151L51.3332 528.33L51.4118 528.299L50.9556 527.151C50.4523 525.892 49.9806 525.138 49.5088 524.87C49.3515 524.776 49.1471 524.729 48.9269 524.713H48.9426Z" fill="url(#paint34_linear_1414_1573)"/>
<path style="mix-blend-mode:screen" d="M57.153 544.061C57.4518 543.573 57.4676 543.007 57.2159 542.362C56.5711 540.774 55.9105 539.704 55.2343 539.185C54.8253 538.871 54.0547 538.666 52.9066 538.604C53.9918 538.682 54.7309 538.887 55.1398 539.185C55.8161 539.72 56.4766 540.774 57.1215 542.362C57.3731 542.991 57.3573 543.558 57.0585 544.061C56.7754 544.549 56.1935 544.973 55.3285 545.319C54.7466 545.555 54.2592 545.665 53.866 545.649C54.2749 545.697 54.7939 545.587 55.423 545.335C56.288 544.989 56.8699 544.564 57.153 544.077V544.061Z" fill="url(#paint35_linear_1414_1573)"/>
<path style="mix-blend-mode:screen" d="M63.5378 529.51C62.1223 529.4 59.5587 529.463 55.8628 529.683C52.0096 529.903 49.4933 529.966 48.298 529.888C49.4461 529.982 51.9939 529.903 55.9572 529.683C59.5746 529.463 62.1066 529.416 63.5378 529.51Z" fill="url(#paint36_linear_1414_1573)"/>
<path style="mix-blend-mode:screen" d="M54.8095 550.504C54.8095 550.504 54.7623 550.52 54.7308 550.535L55.8319 553.272L55.9104 553.241L54.8095 550.52V550.504Z" fill="url(#paint37_linear_1414_1573)"/>
<path style="mix-blend-mode:screen" d="M44.9484 551.922C41.8816 551.67 39.7111 549.972 38.4215 546.795L37.8711 545.411L50.5945 540.284V540.236L37.7766 545.395L38.343 546.779C39.6169 549.956 41.7871 551.654 44.854 551.906C44.9483 551.906 45.0585 551.922 45.1529 551.922C45.09 551.922 45.0113 551.922 44.9484 551.922Z" fill="url(#paint38_linear_1414_1573)"/>
<path style="mix-blend-mode:screen" d="M40.6704 538.788C39.1448 538.677 37.6821 538.269 36.2981 537.577C34.804 536.822 33.766 535.721 33.1683 534.242C32.319 532.119 32.728 530.012 34.3951 527.936C36.0779 525.86 39.019 523.799 43.2339 521.77L42.3216 519.506L48.1409 517.162V517.131L42.2274 519.506L43.1395 521.77C38.9245 523.799 35.9678 525.844 34.3006 527.936C32.6178 530.012 32.2088 532.119 33.0581 534.242C33.64 535.705 34.6939 536.822 36.1881 537.561C37.6035 538.269 39.0976 538.677 40.6704 538.788Z" fill="url(#paint39_linear_1414_1573)"/>
</g>
</g>
<defs>
<filter id="filter0_d_1414_1573" x="0" y="502" width="109" height="82.5488" filterUnits="userSpaceOnUse" color-interpolation-filters="sRGB">
<feFlood flood-opacity="0" result="BackgroundImageFix"/>
<feColorMatrix in="SourceAlpha" type="matrix" values="0 0 0 0 0 0 0 0 0 0 0 0 0 0 0 0 0 0 127 0" result="hardAlpha"/>
<feOffset dy="4"/>
<feGaussianBlur stdDeviation="2"/>
<feComposite in2="hardAlpha" operator="out"/>
<feColorMatrix type="matrix" values="0 0 0 0 0 0 0 0 0 0 0 0 0 0 0 0 0 0 0.25 0"/>
<feBlend mode="normal" in2="BackgroundImageFix" result="effect1_dropShadow_1414_1573"/>
<feBlend mode="normal" in="SourceGraphic" in2="effect1_dropShadow_1414_1573" result="shape"/>
</filter>
<linearGradient id="paint0_linear_1414_1573" x1="128.036" y1="353.35" x2="116.188" y2="368.969" gradientUnits="userSpaceOnUse">
<stop stop-color="#FFD08D"/>
<stop offset="0.58" stop-color="#FFDC2A"/>
<stop offset="0.81" stop-color="#F3C237"/>
<stop offset="1" stop-color="#EBB140"/>
</linearGradient>
<linearGradient id="paint1_linear_1414_1573" x1="116.003" y1="355.664" x2="128.102" y2="366.895" gradientUnits="userSpaceOnUse">
<stop stop-color="#FFAA3F"/>
<stop offset="0.58" stop-color="#FFAF2A"/>
<stop offset="0.71" stop-color="#F8A631"/>
<stop offset="1" stop-color="#EC9540"/>
</linearGradient>
<linearGradient id="paint2_linear_1414_1573" x1="124.634" y1="365.446" x2="125.123" y2="365.9" gradientUnits="userSpaceOnUse">
<stop offset="0.04" stop-color="#F8DA36"/>
<stop offset="0.11" stop-color="#F1CD21"/>
<stop offset="0.19" stop-color="#EBC412"/>
<stop offset="0.28" stop-color="#E8BE09"/>
<stop offset="0.42" stop-color="#E8BD07"/>
<stop offset="0.51" stop-color="#EFCB1B"/>
<stop offset="0.64" stop-color="#F8DB33"/>
<stop offset="0.77" stop-color="#FDE542"/>
<stop offset="0.87" stop-color="#FFE947"/>
<stop offset="1" stop-color="#FFEC63"/>
</linearGradient>
<linearGradient id="paint3_linear_1414_1573" x1="123.6" y1="362.924" x2="124.673" y2="363.92" gradientUnits="userSpaceOnUse">
<stop offset="0.04" stop-color="#F8DA36"/>
<stop offset="0.11" stop-color="#F1CD21"/>
<stop offset="0.19" stop-color="#EBC412"/>
<stop offset="0.28" stop-color="#E8BE09"/>
<stop offset="0.42" stop-color="#E8BD07"/>
<stop offset="0.51" stop-color="#EFCB1B"/>
<stop offset="0.64" stop-color="#F8DB33"/>
<stop offset="0.77" stop-color="#FDE542"/>
<stop offset="0.87" stop-color="#FFE947"/>
<stop offset="1" stop-color="#FFEC63"/>
</linearGradient>
<linearGradient id="paint4_linear_1414_1573" x1="119.465" y1="358.671" x2="121.272" y2="360.349" gradientUnits="userSpaceOnUse">
<stop offset="0.04" stop-color="#F8DA36"/>
<stop offset="0.11" stop-color="#F1CD21"/>
<stop offset="0.19" stop-color="#EBC412"/>
<stop offset="0.28" stop-color="#E8BE09"/>
<stop offset="0.42" stop-color="#E8BD07"/>
<stop offset="0.51" stop-color="#EFCB1B"/>
<stop offset="0.64" stop-color="#F8DB33"/>
<stop offset="0.77" stop-color="#FDE542"/>
<stop offset="0.87" stop-color="#FFE947"/>
<stop offset="1" stop-color="#FFEC63"/>
</linearGradient>
<linearGradient id="paint5_linear_1414_1573" x1="121.646" y1="362.186" x2="122.986" y2="363.43" gradientUnits="userSpaceOnUse">
<stop offset="0.04" stop-color="#F8DA36"/>
<stop offset="0.11" stop-color="#F1CD21"/>
<stop offset="0.19" stop-color="#EBC412"/>
<stop offset="0.28" stop-color="#E8BE09"/>
<stop offset="0.42" stop-color="#E8BD07"/>
<stop offset="0.51" stop-color="#EFCB1B"/>
<stop offset="0.64" stop-color="#F8DB33"/>
<stop offset="0.77" stop-color="#FDE542"/>
<stop offset="0.87" stop-color="#FFE947"/>
<stop offset="1" stop-color="#FFEC63"/>
</linearGradient>
<linearGradient id="paint6_linear_1414_1573" x1="117.982" y1="356.476" x2="118.721" y2="357.162" gradientUnits="userSpaceOnUse">
<stop offset="0.04" stop-color="#F8DA36"/>
<stop offset="0.11" stop-color="#F1CD21"/>
<stop offset="0.19" stop-color="#EBC412"/>
<stop offset="0.28" stop-color="#E8BE09"/>
<stop offset="0.42" stop-color="#E8BD07"/>
<stop offset="0.51" stop-color="#EFCB1B"/>
<stop offset="0.64" stop-color="#F8DB33"/>
<stop offset="0.77" stop-color="#FDE542"/>
<stop offset="0.87" stop-color="#FFE947"/>
<stop offset="1" stop-color="#FFEC63"/>
</linearGradient>
<linearGradient id="paint7_linear_1414_1573" x1="120.192" y1="356.728" x2="122.411" y2="358.788" gradientUnits="userSpaceOnUse">
<stop offset="0.04" stop-color="#F8DA36"/>
<stop offset="0.11" stop-color="#F1CD21"/>
<stop offset="0.19" stop-color="#EBC412"/>
<stop offset="0.28" stop-color="#E8BE09"/>
<stop offset="0.42" stop-color="#E8BD07"/>
<stop offset="0.51" stop-color="#EFCB1B"/>
<stop offset="0.64" stop-color="#F8DB33"/>
<stop offset="0.77" stop-color="#FDE542"/>
<stop offset="0.87" stop-color="#FFE947"/>
<stop offset="1" stop-color="#FFEC63"/>
</linearGradient>
<linearGradient id="paint8_linear_1414_1573" x1="123.281" y1="360.391" x2="127.634" y2="364.432" gradientUnits="userSpaceOnUse">
<stop offset="0.04" stop-color="#F8DA36"/>
<stop offset="0.11" stop-color="#F1CD21"/>
<stop offset="0.19" stop-color="#EBC412"/>
<stop offset="0.28" stop-color="#E8BE09"/>
<stop offset="0.42" stop-color="#E8BD07"/>
<stop offset="0.51" stop-color="#EFCB1B"/>
<stop offset="0.64" stop-color="#F8DB33"/>
<stop offset="0.77" stop-color="#FDE542"/>
<stop offset="0.87" stop-color="#FFE947"/>
<stop offset="1" stop-color="#FFEC63"/>
</linearGradient>
<linearGradient id="paint9_linear_1414_1573" x1="189.808" y1="81.913" x2="161.691" y2="60.5846" gradientUnits="userSpaceOnUse">
<stop stop-color="#F0E0FF"/>
<stop offset="0.58" stop-color="#D5ADFF"/>
<stop offset="1" stop-color="#E2C6FF"/>
</linearGradient>
<linearGradient id="paint10_linear_1414_1573" x1="185.643" y1="60.2517" x2="165.426" y2="82.0315" gradientUnits="userSpaceOnUse">
<stop stop-color="#CD9BFE"/>
<stop offset="1" stop-color="#CF9FFF"/>
</linearGradient>
<linearGradient id="paint11_linear_1414_1573" x1="168.033" y1="75.788" x2="167.216" y2="76.6688" gradientUnits="userSpaceOnUse">
<stop offset="0.04" stop-color="#F8DA36"/>
<stop offset="0.11" stop-color="#F1CD21"/>
<stop offset="0.19" stop-color="#EBC412"/>
<stop offset="0.28" stop-color="#E8BE09"/>
<stop offset="0.42" stop-color="#E8BD07"/>
<stop offset="0.51" stop-color="#EFCB1B"/>
<stop offset="0.64" stop-color="#F8DB33"/>
<stop offset="0.77" stop-color="#FDE542"/>
<stop offset="0.87" stop-color="#FFE947"/>
<stop offset="1" stop-color="#FFEC63"/>
</linearGradient>
<linearGradient id="paint12_linear_1414_1573" x1="172.573" y1="73.928" x2="170.78" y2="75.8598" gradientUnits="userSpaceOnUse">
<stop offset="0.04" stop-color="#F8DA36"/>
<stop offset="0.11" stop-color="#F1CD21"/>
<stop offset="0.19" stop-color="#EBC412"/>
<stop offset="0.28" stop-color="#E8BE09"/>
<stop offset="0.42" stop-color="#E8BD07"/>
<stop offset="0.51" stop-color="#EFCB1B"/>
<stop offset="0.64" stop-color="#F8DB33"/>
<stop offset="0.77" stop-color="#FDE542"/>
<stop offset="0.87" stop-color="#FFE947"/>
<stop offset="1" stop-color="#FFEC63"/>
</linearGradient>
<linearGradient id="paint13_linear_1414_1573" x1="180.23" y1="66.4836" x2="177.21" y2="69.7366" gradientUnits="userSpaceOnUse">
<stop offset="0.04" stop-color="#F8DA36"/>
<stop offset="0.11" stop-color="#F1CD21"/>
<stop offset="0.19" stop-color="#EBC412"/>
<stop offset="0.28" stop-color="#E8BE09"/>
<stop offset="0.42" stop-color="#E8BD07"/>
<stop offset="0.51" stop-color="#EFCB1B"/>
<stop offset="0.64" stop-color="#F8DB33"/>
<stop offset="0.77" stop-color="#FDE542"/>
<stop offset="0.87" stop-color="#FFE947"/>
<stop offset="1" stop-color="#FFEC63"/>
</linearGradient>
<linearGradient id="paint14_linear_1414_1573" x1="173.901" y1="70.4098" x2="171.662" y2="72.8221" gradientUnits="userSpaceOnUse">
<stop offset="0.04" stop-color="#F8DA36"/>
<stop offset="0.11" stop-color="#F1CD21"/>
<stop offset="0.19" stop-color="#EBC412"/>
<stop offset="0.28" stop-color="#E8BE09"/>
<stop offset="0.42" stop-color="#E8BD07"/>
<stop offset="0.51" stop-color="#EFCB1B"/>
<stop offset="0.64" stop-color="#F8DB33"/>
<stop offset="0.77" stop-color="#FDE542"/>
<stop offset="0.87" stop-color="#FFE947"/>
<stop offset="1" stop-color="#FFEC63"/>
</linearGradient>
<linearGradient id="paint15_linear_1414_1573" x1="184.181" y1="63.8134" x2="182.945" y2="65.1446" gradientUnits="userSpaceOnUse">
<stop offset="0.04" stop-color="#F8DA36"/>
<stop offset="0.11" stop-color="#F1CD21"/>
<stop offset="0.19" stop-color="#EBC412"/>
<stop offset="0.28" stop-color="#E8BE09"/>
<stop offset="0.42" stop-color="#E8BD07"/>
<stop offset="0.51" stop-color="#EFCB1B"/>
<stop offset="0.64" stop-color="#F8DB33"/>
<stop offset="0.77" stop-color="#FDE542"/>
<stop offset="0.87" stop-color="#FFE947"/>
<stop offset="1" stop-color="#FFEC63"/>
</linearGradient>
<linearGradient id="paint16_linear_1414_1573" x1="183.729" y1="67.7934" x2="180.021" y2="71.787" gradientUnits="userSpaceOnUse">
<stop offset="0.04" stop-color="#F8DA36"/>
<stop offset="0.11" stop-color="#F1CD21"/>
<stop offset="0.19" stop-color="#EBC412"/>
<stop offset="0.28" stop-color="#E8BE09"/>
<stop offset="0.42" stop-color="#E8BD07"/>
<stop offset="0.51" stop-color="#EFCB1B"/>
<stop offset="0.64" stop-color="#F8DB33"/>
<stop offset="0.77" stop-color="#FDE542"/>
<stop offset="0.87" stop-color="#FFE947"/>
<stop offset="1" stop-color="#FFEC63"/>
</linearGradient>
<linearGradient id="paint17_linear_1414_1573" x1="177.133" y1="73.3531" x2="169.858" y2="81.1902" gradientUnits="userSpaceOnUse">
<stop offset="0.04" stop-color="#F8DA36"/>
<stop offset="0.11" stop-color="#F1CD21"/>
<stop offset="0.19" stop-color="#EBC412"/>
<stop offset="0.28" stop-color="#E8BE09"/>
<stop offset="0.42" stop-color="#E8BD07"/>
<stop offset="0.51" stop-color="#EFCB1B"/>
<stop offset="0.64" stop-color="#F8DB33"/>
<stop offset="0.77" stop-color="#FDE542"/>
<stop offset="0.87" stop-color="#FFE947"/>
<stop offset="1" stop-color="#FFEC63"/>
</linearGradient>
<linearGradient id="paint18_linear_1414_1573" x1="321.632" y1="289.55" x2="252.821" y2="237.354" gradientUnits="userSpaceOnUse">
<stop stop-color="#F0E0FF"/>
<stop offset="0.58" stop-color="#D5ADFF"/>
<stop offset="1" stop-color="#E2C6FF"/>
</linearGradient>
<linearGradient id="paint19_linear_1414_1573" x1="311.44" y1="236.539" x2="261.962" y2="289.839" gradientUnits="userSpaceOnUse">
<stop stop-color="#CD9BFE"/>
<stop offset="1" stop-color="#CF9FFF"/>
</linearGradient>
<linearGradient id="paint20_linear_1414_1573" x1="268.343" y1="274.561" x2="266.342" y2="276.716" gradientUnits="userSpaceOnUse">
<stop offset="0.04" stop-color="#F8DA36"/>
<stop offset="0.11" stop-color="#F1CD21"/>
<stop offset="0.19" stop-color="#EBC412"/>
<stop offset="0.28" stop-color="#E8BE09"/>
<stop offset="0.42" stop-color="#E8BD07"/>
<stop offset="0.51" stop-color="#EFCB1B"/>
<stop offset="0.64" stop-color="#F8DB33"/>
<stop offset="0.77" stop-color="#FDE542"/>
<stop offset="0.87" stop-color="#FFE947"/>
<stop offset="1" stop-color="#FFEC63"/>
</linearGradient>
<linearGradient id="paint21_linear_1414_1573" x1="279.454" y1="270.009" x2="275.066" y2="274.736" gradientUnits="userSpaceOnUse">
<stop offset="0.04" stop-color="#F8DA36"/>
<stop offset="0.11" stop-color="#F1CD21"/>
<stop offset="0.19" stop-color="#EBC412"/>
<stop offset="0.28" stop-color="#E8BE09"/>
<stop offset="0.42" stop-color="#E8BD07"/>
<stop offset="0.51" stop-color="#EFCB1B"/>
<stop offset="0.64" stop-color="#F8DB33"/>
<stop offset="0.77" stop-color="#FDE542"/>
<stop offset="0.87" stop-color="#FFE947"/>
<stop offset="1" stop-color="#FFEC63"/>
</linearGradient>
<linearGradient id="paint22_linear_1414_1573" x1="298.192" y1="251.789" x2="290.802" y2="259.75" gradientUnits="userSpaceOnUse">
<stop offset="0.04" stop-color="#F8DA36"/>
<stop offset="0.11" stop-color="#F1CD21"/>
<stop offset="0.19" stop-color="#EBC412"/>
<stop offset="0.28" stop-color="#E8BE09"/>
<stop offset="0.42" stop-color="#E8BD07"/>
<stop offset="0.51" stop-color="#EFCB1B"/>
<stop offset="0.64" stop-color="#F8DB33"/>
<stop offset="0.77" stop-color="#FDE542"/>
<stop offset="0.87" stop-color="#FFE947"/>
<stop offset="1" stop-color="#FFEC63"/>
</linearGradient>
<linearGradient id="paint23_linear_1414_1573" x1="282.704" y1="261.397" x2="277.225" y2="267.3" gradientUnits="userSpaceOnUse">
<stop offset="0.04" stop-color="#F8DA36"/>
<stop offset="0.11" stop-color="#F1CD21"/>
<stop offset="0.19" stop-color="#EBC412"/>
<stop offset="0.28" stop-color="#E8BE09"/>
<stop offset="0.42" stop-color="#E8BD07"/>
<stop offset="0.51" stop-color="#EFCB1B"/>
<stop offset="0.64" stop-color="#F8DB33"/>
<stop offset="0.77" stop-color="#FDE542"/>
<stop offset="0.87" stop-color="#FFE947"/>
<stop offset="1" stop-color="#FFEC63"/>
</linearGradient>
<linearGradient id="paint24_linear_1414_1573" x1="307.861" y1="245.254" x2="304.836" y2="248.512" gradientUnits="userSpaceOnUse">
<stop offset="0.04" stop-color="#F8DA36"/>
<stop offset="0.11" stop-color="#F1CD21"/>
<stop offset="0.19" stop-color="#EBC412"/>
<stop offset="0.28" stop-color="#E8BE09"/>
<stop offset="0.42" stop-color="#E8BD07"/>
<stop offset="0.51" stop-color="#EFCB1B"/>
<stop offset="0.64" stop-color="#F8DB33"/>
<stop offset="0.77" stop-color="#FDE542"/>
<stop offset="0.87" stop-color="#FFE947"/>
<stop offset="1" stop-color="#FFEC63"/>
</linearGradient>
<linearGradient id="paint25_linear_1414_1573" x1="306.754" y1="254.994" x2="297.681" y2="264.767" gradientUnits="userSpaceOnUse">
<stop offset="0.04" stop-color="#F8DA36"/>
<stop offset="0.11" stop-color="#F1CD21"/>
<stop offset="0.19" stop-color="#EBC412"/>
<stop offset="0.28" stop-color="#E8BE09"/>
<stop offset="0.42" stop-color="#E8BD07"/>
<stop offset="0.51" stop-color="#EFCB1B"/>
<stop offset="0.64" stop-color="#F8DB33"/>
<stop offset="0.77" stop-color="#FDE542"/>
<stop offset="0.87" stop-color="#FFE947"/>
<stop offset="1" stop-color="#FFEC63"/>
</linearGradient>
<linearGradient id="paint26_linear_1414_1573" x1="290.613" y1="268.598" x2="272.809" y2="287.777" gradientUnits="userSpaceOnUse">
<stop offset="0.04" stop-color="#F8DA36"/>
<stop offset="0.11" stop-color="#F1CD21"/>
<stop offset="0.19" stop-color="#EBC412"/>
<stop offset="0.28" stop-color="#E8BE09"/>
<stop offset="0.42" stop-color="#E8BD07"/>
<stop offset="0.51" stop-color="#EFCB1B"/>
<stop offset="0.64" stop-color="#F8DB33"/>
<stop offset="0.77" stop-color="#FDE542"/>
<stop offset="0.87" stop-color="#FFE947"/>
<stop offset="1" stop-color="#FFEC63"/>
</linearGradient>
<radialGradient id="paint27_radial_1414_1573" cx="0" cy="0" r="1" gradientUnits="userSpaceOnUse" gradientTransform="translate(302.59 68.7934) rotate(20.48) scale(96.5049 96.5049)">
<stop stop-color="#A381FF"/>
<stop offset="0.234375" stop-color="#8D62FF"/>
<stop offset="0.83" stop-color="#3C13C9"/>
<stop offset="1" stop-color="#7859FF"/>
</radialGradient>
<radialGradient id="paint28_radial_1414_1573" cx="0" cy="0" r="1" gradientUnits="userSpaceOnUse" gradientTransform="translate(302.59 68.7934) rotate(20.48) scale(96.5049 96.5049)">
<stop stop-color="#A381FF"/>
<stop offset="0.234375" stop-color="#8D62FF"/>
<stop offset="0.83" stop-color="#3C13C9"/>
<stop offset="1" stop-color="#7859FF"/>
</radialGradient>
<radialGradient id="paint29_radial_1414_1573" cx="0" cy="0" r="1" gradientUnits="userSpaceOnUse" gradientTransform="translate(129.169 244.808) rotate(50.48) scale(35.407 35.407)">
<stop stop-color="#A381FF"/>
<stop offset="0.234375" stop-color="#8D62FF"/>
<stop offset="0.83" stop-color="#3C13C9"/>
<stop offset="1" stop-color="#7859FF"/>
</radialGradient>
<linearGradient id="paint30_linear_1414_1573" x1="23.4294" y1="520.803" x2="70.7349" y2="568.931" gradientUnits="userSpaceOnUse">
<stop stop-color="#FFD08D"/>
<stop offset="0.58" stop-color="#FFDC2A"/>
<stop offset="0.81" stop-color="#F3C237"/>
<stop offset="1" stop-color="#EBB140"/>
</linearGradient>
<linearGradient id="paint31_linear_1414_1573" x1="63.371" y1="561.174" x2="44.7247" y2="514.861" gradientUnits="userSpaceOnUse">
<stop stop-color="#F0C827"/>
<stop offset="0.08" stop-color="#E9BE25"/>
<stop offset="0.22" stop-color="#E2B424"/>
<stop offset="0.38" stop-color="#EECA46"/>
<stop offset="0.57" stop-color="#FAE168"/>
<stop offset="0.68" stop-color="#FFEA76"/>
<stop offset="0.74" stop-color="#FDE770"/>
<stop offset="0.82" stop-color="#FBE161"/>
<stop offset="0.91" stop-color="#F6D647"/>
<stop offset="1" stop-color="#F0C827"/>
</linearGradient>
<linearGradient id="paint32_linear_1414_1573" x1="63.371" y1="561.174" x2="44.7247" y2="514.861" gradientUnits="userSpaceOnUse">
<stop stop-color="#FFD08D"/>
<stop offset="0.58" stop-color="#FFAF2A"/>
<stop offset="0.71" stop-color="#F8A631"/>
<stop offset="1" stop-color="#EC9540"/>
</linearGradient>
<linearGradient id="paint33_linear_1414_1573" x1="54.9514" y1="522.064" x2="54.224" y2="520.257" gradientUnits="userSpaceOnUse">
<stop offset="0.04" stop-color="#F8DA36"/>
<stop offset="0.11" stop-color="#F1CD21"/>
<stop offset="0.19" stop-color="#EBC412"/>
<stop offset="0.28" stop-color="#E8BE09"/>
<stop offset="0.42" stop-color="#E8BD07"/>
<stop offset="0.51" stop-color="#EFCB1B"/>
<stop offset="0.64" stop-color="#F8DB33"/>
<stop offset="0.77" stop-color="#FDE542"/>
<stop offset="0.87" stop-color="#FFE947"/>
<stop offset="1" stop-color="#FFEC63"/>
</linearGradient>
<linearGradient id="paint34_linear_1414_1573" x1="52.0848" y1="531.035" x2="50.4862" y2="527.064" gradientUnits="userSpaceOnUse">
<stop offset="0.04" stop-color="#F8DA36"/>
<stop offset="0.11" stop-color="#F1CD21"/>
<stop offset="0.19" stop-color="#EBC412"/>
<stop offset="0.28" stop-color="#E8BE09"/>
<stop offset="0.42" stop-color="#E8BD07"/>
<stop offset="0.51" stop-color="#EFCB1B"/>
<stop offset="0.64" stop-color="#F8DB33"/>
<stop offset="0.77" stop-color="#FDE542"/>
<stop offset="0.87" stop-color="#FFE947"/>
<stop offset="1" stop-color="#FFEC63"/>
</linearGradient>
<linearGradient id="paint35_linear_1414_1573" x1="57.0995" y1="547.745" x2="54.4013" y2="541.043" gradientUnits="userSpaceOnUse">
<stop offset="0.04" stop-color="#F8DA36"/>
<stop offset="0.11" stop-color="#F1CD21"/>
<stop offset="0.19" stop-color="#EBC412"/>
<stop offset="0.28" stop-color="#E8BE09"/>
<stop offset="0.42" stop-color="#E8BD07"/>
<stop offset="0.51" stop-color="#EFCB1B"/>
<stop offset="0.64" stop-color="#F8DB33"/>
<stop offset="0.77" stop-color="#FDE542"/>
<stop offset="0.87" stop-color="#FFE947"/>
<stop offset="1" stop-color="#FFEC63"/>
</linearGradient>
<linearGradient id="paint36_linear_1414_1573" x1="58.0305" y1="534.769" x2="56.026" y2="529.79" gradientUnits="userSpaceOnUse">
<stop offset="0.04" stop-color="#F8DA36"/>
<stop offset="0.11" stop-color="#F1CD21"/>
<stop offset="0.19" stop-color="#EBC412"/>
<stop offset="0.28" stop-color="#E8BE09"/>
<stop offset="0.42" stop-color="#E8BD07"/>
<stop offset="0.51" stop-color="#EFCB1B"/>
<stop offset="0.64" stop-color="#F8DB33"/>
<stop offset="0.77" stop-color="#FDE542"/>
<stop offset="0.87" stop-color="#FFE947"/>
<stop offset="1" stop-color="#FFEC63"/>
</linearGradient>
<linearGradient id="paint37_linear_1414_1573" x1="57.0169" y1="555.915" x2="55.9089" y2="553.163" gradientUnits="userSpaceOnUse">
<stop offset="0.04" stop-color="#F8DA36"/>
<stop offset="0.11" stop-color="#F1CD21"/>
<stop offset="0.19" stop-color="#EBC412"/>
<stop offset="0.28" stop-color="#E8BE09"/>
<stop offset="0.42" stop-color="#E8BD07"/>
<stop offset="0.51" stop-color="#EFCB1B"/>
<stop offset="0.64" stop-color="#F8DB33"/>
<stop offset="0.77" stop-color="#FDE542"/>
<stop offset="0.87" stop-color="#FFE947"/>
<stop offset="1" stop-color="#FFEC63"/>
</linearGradient>
<linearGradient id="paint38_linear_1414_1573" x1="48.6103" y1="553.65" x2="45.2989" y2="545.425" gradientUnits="userSpaceOnUse">
<stop offset="0.04" stop-color="#F8DA36"/>
<stop offset="0.11" stop-color="#F1CD21"/>
<stop offset="0.19" stop-color="#EBC412"/>
<stop offset="0.28" stop-color="#E8BE09"/>
<stop offset="0.42" stop-color="#E8BD07"/>
<stop offset="0.51" stop-color="#EFCB1B"/>
<stop offset="0.64" stop-color="#F8DB33"/>
<stop offset="0.77" stop-color="#FDE542"/>
<stop offset="0.87" stop-color="#FFE947"/>
<stop offset="1" stop-color="#FFEC63"/>
</linearGradient>
<linearGradient id="paint39_linear_1414_1573" x1="46.249" y1="539.572" x2="39.7489" y2="523.427" gradientUnits="userSpaceOnUse">
<stop offset="0.04" stop-color="#F8DA36"/>
<stop offset="0.11" stop-color="#F1CD21"/>
<stop offset="0.19" stop-color="#EBC412"/>
<stop offset="0.28" stop-color="#E8BE09"/>
<stop offset="0.42" stop-color="#E8BD07"/>
<stop offset="0.51" stop-color="#EFCB1B"/>
<stop offset="0.64" stop-color="#F8DB33"/>
<stop offset="0.77" stop-color="#FDE542"/>
<stop offset="0.87" stop-color="#FFE947"/>
<stop offset="1" stop-color="#FFEC63"/>
</linearGradient>
</defs>
</svg>
