<svg width="40" height="40" viewBox="0 0 40 40" fill="none" xmlns="http://www.w3.org/2000/svg">
<path d="M19.9996 39.9999C31.0453 39.9999 39.9998 31.0456 39.9998 19.9999C39.9998 8.95423 31.0453 0 19.9996 0C8.95395 0 0 8.95423 0 19.9999C0 31.0456 8.95395 39.9999 19.9996 39.9999Z" fill="url(#paint0_radial_755_13282)" style="mix-blend-mode:luminosity"/>
<path fill-rule="evenodd" clip-rule="evenodd" d="M19.9998 32C26.6272 32 32 26.6273 32 19.9999C32 13.3726 26.6273 8 19.9998 8C13.3724 8 8 13.3725 8 19.9999C8 26.6274 13.3724 32 19.9998 32ZM34 19.9999C34 27.7319 27.7318 34 19.9998 34C12.2678 34 6 27.7319 6 19.9999C6 12.268 12.2678 6 19.9998 6C27.7318 6 34 12.268 34 19.9999Z" fill="#BDBDBD"/>
<path fill-rule="evenodd" clip-rule="evenodd" d="M26.975 38.75C24.8031 39.5583 22.453 40 19.9996 40C17.5463 40 15.1962 39.5583 13.0244 38.75C15.1962 37.9417 17.5463 37.5 19.9997 37.5C22.453 37.5 24.8032 37.9417 26.975 38.75Z" fill="#E2E2E2"/>
<path fill-rule="evenodd" clip-rule="evenodd" d="M38.7499 13.0249C37.9417 15.1966 37.5 17.5467 37.5 20C37.5 22.4533 37.9417 24.8034 38.7499 26.9751C39.5581 24.8034 39.9999 22.4533 39.9999 20C39.9999 17.5467 39.5581 15.1966 38.7499 13.0249Z" fill="#E2E2E2"/>
<path fill-rule="evenodd" clip-rule="evenodd" d="M1.24996 26.975C2.05825 24.8032 2.5 22.453 2.5 19.9997C2.5 17.5464 2.05825 15.1962 1.24996 13.0244C0.441717 15.1962 0 17.5464 0 19.9997C0 22.453 0.441717 24.8032 1.24996 26.975Z" fill="#E2E2E2"/>
<path fill-rule="evenodd" clip-rule="evenodd" d="M26.9755 1.25001C24.8037 2.05827 22.4535 2.5 20.0002 2.5C17.5468 2.5 15.1967 2.05826 13.0249 1.24998C15.1967 0.441726 17.5468 0 20.0001 0C22.4535 0 24.8036 0.441735 26.9755 1.25001Z" fill="#E2E2E2"/>
<defs>
<radialGradient id="paint0_radial_755_13282" cx="0" cy="0" r="1" gradientUnits="userSpaceOnUse" gradientTransform="translate(20.1351 11.8463) rotate(50.4801) scale(28.3255 28.3255)">
<stop stop-color="#F0F0F0"/>
<stop offset="0.317708" stop-color="#D5D5D5"/>
<stop offset="0.83" stop-color="#989898"/>
<stop offset="1" stop-color="#A8A8A8"/>
</radialGradient>
</defs>
</svg>
