<svg width="120" height="40" viewBox="0 0 120 40" fill="none" xmlns="http://www.w3.org/2000/svg">
<path d="M9 5.00098H98C102.418 5.00098 106 8.5827 106 13.001V40.001H25C16.1634 40.001 9 32.8375 9 24.001V5.00098Z" fill="#FF228C"/>
<mask id="mask0_800_13640" style="mask-type:alpha" maskUnits="userSpaceOnUse" x="9" y="5" width="97" height="36">
<rect x="9" y="5.00098" width="97" height="35" fill="#D9D9D9"/>
</mask>
<g mask="url(#mask0_800_13640)">
<path d="M71.0328 -5.99902H52.7487L61.1289 53.6267L71.0328 -5.99902Z" fill="url(#paint0_linear_800_13640)"/>
<path d="M34.3004 -0.738425L18.4659 6.27637L64.5771 54.6986L34.3004 -0.738425Z" fill="url(#paint1_linear_800_13640)"/>
<path d="M105.151 6.27651L89.3168 -0.738281L57.7205 54.1142L105.151 6.27651Z" fill="url(#paint2_linear_800_13640)"/>
<path d="M9.32381 18.6791L0.181763 30.8291L71.6685 55.0732L9.32381 18.6791Z" fill="url(#paint3_linear_800_13640)"/>
<path d="M124.616 30.7037L115.474 18.5537L52.3676 53.9353L124.616 30.7037Z" fill="url(#paint4_linear_800_13640)"/>
</g>
<path d="M20.6752 14.7962C24.6092 15.6459 22.0401 12.3988 23.0621 11.7674C18.2583 9.60671 17.6977 7.94547 16.5178 5.28118L12.8444 10.3542C15.3405 12.67 18.6958 14.3687 20.6752 14.7962Z" fill="url(#paint5_linear_800_13640)"/>
<path d="M91.3319 13.2893C89.8066 13.958 89.3195 14.4487 88.6068 15.3326C89.9144 12.5396 84.8028 12.1545 82.2695 11.6884C82.2695 11.6884 85.9112 9.48967 86.6692 6.10608C88.4799 8.17462 91.7927 8.56518 91.3319 13.2893Z" fill="url(#paint6_linear_800_13640)"/>
<path d="M32.1221 14.4199C31.924 13.5295 31.1317 12.5402 31.4288 11.7488C31.1912 11.5905 30.8346 12.5402 31.2308 13.5295C31.2638 13.6614 31.924 14.222 32.1221 14.4199Z" fill="#D9D9D9"/>
<path d="M31.2308 12.1442C31.0257 12.7078 31.1318 13.2324 31.2308 13.5292C29.2597 9.92448 32.2213 9.5721 33.4096 9.31506C33.4096 9.31506 33.4097 10.0667 33.5087 10.3635C33.7068 10.7592 34.5981 11.056 34.5981 11.056C34.4992 11.3528 31.6269 11.056 31.2308 12.1442Z" fill="url(#paint7_linear_800_13640)"/>
<path d="M14.3792 9.31134C15.0626 8.26163 17.0812 7.93059 19.1788 8.59479C21.2764 9.259 22.7369 10.6899 22.688 11.9422L22.7468 11.9343L22.6642 12.1862C22.2413 13.5177 20.0155 14 17.692 13.2649C15.3685 12.5297 13.8283 10.8542 14.2511 9.52267L14.3337 9.27075L14.3775 9.31147L14.3792 9.31134Z" fill="#D16A0D"/>
<path d="M14.4499 8.90199C14.4253 8.98009 14.409 9.01013 14.3932 9.07062C14.3865 9.09316 14.3365 9.23926 14.3337 9.26996C14.2301 10.5383 15.7322 12.0473 17.8663 12.724C20.051 13.4172 22.1444 13.0008 22.7452 11.9353C22.7452 11.9353 22.8368 11.6455 22.8613 11.5657C23.2841 10.2342 21.7439 8.55863 19.4204 7.82347C17.0969 7.08831 14.871 7.57062 14.4482 8.90211L14.4499 8.90199Z" fill="#D16A0D"/>
<path d="M14.4692 8.84455C14.0464 10.176 15.5866 11.8516 17.9101 12.5868C20.2336 13.3219 22.4594 12.8396 22.8823 11.5081C23.3051 10.1766 21.7649 8.50106 19.4414 7.7659C17.1179 7.03074 14.8921 7.51305 14.4692 8.84455Z" fill="url(#paint8_linear_800_13640)"/>
<g style="mix-blend-mode:screen" opacity="0.5">
<path d="M19.4356 7.77908C17.1173 7.04523 14.8945 7.5239 14.4663 8.85073C14.4661 8.84905 14.4659 8.84568 14.4691 8.84374C14.892 7.51224 17.1178 7.02994 19.4413 7.7651C21.7648 8.50026 23.305 10.1758 22.8822 11.5073C22.8823 11.509 22.8809 11.5125 22.8793 11.5143C23.2938 10.1851 21.7539 8.51294 19.4356 7.77908Z" fill="#FEF0A0"/>
</g>
<path d="M15.1332 9.05466C14.7775 10.1761 16.0738 11.5872 18.0306 12.2062C19.9874 12.8252 21.8611 12.4187 22.2168 11.2973C22.5725 10.1759 21.2746 8.76488 19.3195 8.14577C17.3627 7.52679 15.4889 7.93325 15.1332 9.05466Z" fill="url(#paint9_linear_800_13640)"/>
<path d="M15.1332 9.05466C14.7775 10.1761 16.0738 11.5872 18.0306 12.2062C19.9874 12.8252 21.8611 12.4187 22.2168 11.2973C22.5725 10.1759 21.2746 8.76488 19.3195 8.14577C17.3627 7.52679 15.4889 7.93325 15.1332 9.05466Z" fill="url(#paint10_linear_800_13640)"/>
<g style="mix-blend-mode:multiply">
<path d="M19.3193 8.14597C17.3676 7.52829 15.4987 7.931 15.1358 9.04618C15.1355 9.04281 15.1371 9.041 15.1385 9.03751C15.4942 7.9161 17.3679 7.50964 19.3248 8.1303C21.2816 8.74928 22.5779 10.1604 22.2222 11.2818C22.2224 11.2852 22.2209 11.287 22.2194 11.2905C22.565 10.1699 21.2693 8.76547 19.3194 8.14766L19.3193 8.14597Z" fill="#FEF0A0"/>
</g>
<g style="mix-blend-mode:screen" opacity="0.3">
<path d="M18.0304 12.2057C19.982 12.8234 21.8527 12.4206 22.2138 11.3038C22.2139 11.3055 22.2125 11.309 22.2109 11.3108C21.8552 12.4322 19.9815 12.8387 18.0247 12.2197C16.0679 11.6007 14.7717 10.1896 15.1274 9.06817C15.1272 9.06648 15.1287 9.06299 15.1302 9.06117C14.7813 10.1821 16.0788 11.588 18.0304 12.2057Z" fill="#FEF0A0"/>
</g>
<path opacity="0.4" d="M19.2905 8.23498C17.3528 7.62133 15.503 7.98531 15.1234 9.08312C15.126 9.07276 15.1286 9.06239 15.1329 9.0519C15.4886 7.93049 17.3624 7.52403 19.3192 8.14301C21.276 8.76199 22.5722 10.1731 22.2165 11.2945C22.2139 11.3049 22.2096 11.3154 22.2069 11.3241C22.5308 10.2085 21.2298 8.84681 19.2904 8.23329L19.2905 8.23498Z" fill="#D16A0D"/>
<g style="mix-blend-mode:multiply" opacity="0.4">
<path d="M19.9204 10.9974C19.8974 10.8762 19.8509 10.7665 19.7771 10.6694C19.7033 10.5722 19.5548 10.4102 19.3327 10.1846C19.0701 9.91801 18.9172 9.75093 18.8715 9.68083C18.8235 9.61057 18.8242 9.52919 18.8699 9.43768C18.8976 9.38207 18.9345 9.34983 18.9808 9.33856C19.0271 9.3273 19.0827 9.33941 19.1477 9.37011C19.2277 9.4102 19.2716 9.45266 19.2794 9.49747C19.2872 9.54229 19.2655 9.61506 19.2129 9.71929L19.1262 9.70748L19.1633 9.81652L20.2203 10.3519C20.2522 10.3062 20.2749 10.2706 20.2873 10.2463C20.3757 10.0726 20.3636 9.89702 20.2499 9.7158C20.1373 9.53586 19.9244 9.35156 19.61 9.16167L19.7052 8.97531L19.6682 8.86628L19.5853 8.90501L19.2183 8.72957L19.1231 8.91592C18.7538 8.75827 18.4544 8.68312 18.2248 8.69287C17.9952 8.70261 17.8369 8.79375 17.7473 8.96852C17.6852 9.09006 17.6728 9.21972 17.7091 9.35863C17.7453 9.49754 17.8076 9.62264 17.896 9.73392C17.9855 9.84647 18.1631 10.0392 18.4274 10.3155C18.5877 10.4807 18.6695 10.5999 18.673 10.6731C18.6765 10.7464 18.6456 10.8497 18.5792 10.9817C18.5529 11.0338 18.5149 11.0648 18.4663 11.0735C18.4178 11.0822 18.3588 11.0687 18.2869 11.0328C18.2034 10.9912 18.1598 10.944 18.1571 10.8948C18.1545 10.8455 18.1938 10.7416 18.2739 10.5841L18.3097 10.5147L18.347 10.4418L18.31 10.3327L18.1803 10.336L17.2888 9.90511L17.2296 10.0197C17.0969 10.2813 17.1099 10.5168 17.2669 10.7297C17.4253 10.9415 17.6417 11.1272 17.9151 11.2856L17.7633 11.4047L17.8003 11.5137L18.2872 11.7595L18.3991 11.5383C18.7758 11.6941 19.0855 11.7579 19.327 11.731C19.5685 11.7041 19.7431 11.5854 19.8495 11.3758C19.917 11.245 19.9374 11.1195 19.9157 10.9971L19.9204 10.9974Z" fill="#AA7E03"/>
</g>
<path d="M20.2503 10.1371C20.3387 9.96346 20.3254 9.7866 20.2141 9.60554C20.1016 9.4256 19.8886 9.24131 19.5742 9.05141L19.6683 8.86378L19.1815 8.61803L19.0873 8.80567C18.718 8.64801 18.4186 8.57286 18.1891 8.58261C17.9595 8.59235 17.7999 8.68461 17.7115 8.85826C17.6507 8.97869 17.6371 9.10947 17.6733 9.24837C17.7095 9.38728 17.7718 9.51238 17.8602 9.62366C17.9497 9.73622 18.1273 9.92891 18.3929 10.2041C18.5532 10.3693 18.6351 10.4885 18.6385 10.5618C18.6431 10.6363 18.6111 10.7383 18.5447 10.8703C18.5184 10.9225 18.4804 10.9534 18.4318 10.9622C18.3833 10.9709 18.3243 10.9573 18.2524 10.9214C18.1689 10.8799 18.1253 10.8327 18.1227 10.7834C18.12 10.7341 18.1593 10.6302 18.2394 10.4728L18.3127 10.328L17.2556 9.79263L17.1975 9.90845C17.0648 10.1701 17.0778 10.4056 17.2348 10.6185C17.3932 10.8302 17.6096 11.016 17.883 11.1744L17.7682 11.4025L18.2551 11.6483L18.367 11.4271C18.7437 11.5829 19.0534 11.6467 19.2949 11.6198C19.5364 11.5929 19.711 11.4741 19.8161 11.2657C19.8823 11.1361 19.9053 11.0083 19.8823 10.887C19.8593 10.7658 19.8127 10.6561 19.739 10.559C19.6652 10.4618 19.5167 10.2998 19.2945 10.0742C19.032 9.80759 18.879 9.64051 18.8334 9.57041C18.7854 9.50015 18.7861 9.41879 18.8318 9.32727C18.8595 9.27167 18.8964 9.23942 18.9438 9.22943C18.9901 9.21817 19.0458 9.22788 19.1094 9.26208C19.1894 9.30216 19.2344 9.34589 19.2411 9.38944C19.2501 9.43315 19.2272 9.50703 19.1746 9.61125L19.1249 9.70848L20.182 10.2439C20.2139 10.1981 20.2366 10.1625 20.2478 10.1393L20.2503 10.1371Z" fill="white"/>
<g style="mix-blend-mode:screen" opacity="0.7">
<path style="mix-blend-mode:screen" d="M19.5794 9.05723L19.5768 9.05945C19.851 9.2239 20.0476 9.38433 20.1676 9.54203C20.0489 9.38322 19.8512 9.22152 19.5794 9.05723Z" fill="url(#paint11_linear_800_13640)"/>
<path style="mix-blend-mode:screen" d="M19.2245 9.3466C19.2356 9.35932 19.2395 9.37394 19.2422 9.38729C19.2512 9.43099 19.2283 9.50488 19.1757 9.6091L19.126 9.70633L19.133 9.70919L19.1813 9.61545C19.2338 9.51123 19.2555 9.43846 19.2477 9.39364C19.2452 9.3779 19.2379 9.36186 19.2245 9.3466Z" fill="url(#paint12_linear_800_13640)"/>
<path style="mix-blend-mode:screen" d="M18.4372 10.9686C18.4857 10.9598 18.5238 10.9289 18.55 10.8768C18.6164 10.7447 18.6485 10.6427 18.645 10.5695C18.642 10.525 18.6113 10.4642 18.5518 10.386C18.608 10.4604 18.6375 10.5199 18.6394 10.5631C18.644 10.6376 18.612 10.7396 18.5456 10.8717C18.5193 10.9238 18.4813 10.9548 18.4327 10.9635C18.3842 10.9722 18.3252 10.9587 18.2533 10.9227C18.2057 10.8992 18.1716 10.8729 18.1506 10.8464C18.1714 10.8753 18.2067 10.9028 18.2589 10.9291C18.3308 10.965 18.3898 10.9785 18.4383 10.9698L18.4372 10.9686Z" fill="url(#paint13_linear_800_13640)"/>
<path style="mix-blend-mode:screen" d="M19.7385 10.5609C19.6647 10.4638 19.5162 10.3018 19.294 10.0762C19.063 9.84038 18.9154 9.68204 18.8526 9.60001C18.9108 9.67934 19.0606 9.84023 19.2983 10.0836C19.5171 10.3054 19.6634 10.4649 19.7383 10.5633L19.7385 10.5609Z" fill="url(#paint14_linear_800_13640)"/>
<path style="mix-blend-mode:screen" d="M17.8895 11.1827C17.8895 11.1827 17.8861 11.1789 17.8837 11.1787L17.7691 11.4045L17.7761 11.4073L17.8895 11.1827Z" fill="url(#paint15_linear_800_13640)"/>
<path style="mix-blend-mode:screen" d="M17.2402 10.6244C17.0819 10.4126 17.0702 10.176 17.2028 9.91431L17.2621 9.79977L18.3122 10.3323L18.3147 10.3301L17.2565 9.7934L17.1984 9.90923C17.0658 10.1709 17.0787 10.4064 17.2358 10.6193C17.2413 10.6256 17.2469 10.632 17.2512 10.6395C17.2478 10.6356 17.2434 10.6306 17.2389 10.6255L17.2402 10.6244Z" fill="url(#paint16_linear_800_13640)"/>
<path style="mix-blend-mode:screen" d="M17.8466 9.60883C17.7675 9.50295 17.7106 9.3866 17.6785 9.25755C17.6423 9.11864 17.6546 8.98898 17.7167 8.86744C17.8052 8.6914 17.9648 8.59915 18.1943 8.59178C18.4238 8.58204 18.7232 8.65718 19.0925 8.81484L19.1877 8.62847L19.6676 8.87136L19.6702 8.86914L19.1822 8.62212L19.0881 8.80975C18.7187 8.65209 18.4194 8.57695 18.1898 8.58669C17.9602 8.59644 17.8006 8.68869 17.7122 8.86234C17.6514 8.98277 17.6378 9.11355 17.674 9.25246C17.7083 9.38406 17.7662 9.50407 17.8477 9.6101L17.8466 9.60883Z" fill="url(#paint17_linear_800_13640)"/>
</g>
<path d="M97.2967 34.4398C97.8313 33.6187 99.4102 33.3598 101.051 33.8793C102.692 34.3989 103.834 35.5182 103.796 36.4977L103.842 36.4916L103.777 36.6887C103.447 37.7302 101.706 38.1075 99.888 37.5324C98.0705 36.9573 96.8657 35.6467 97.1965 34.6051L97.2611 34.4081L97.2954 34.4399L97.2967 34.4398Z" fill="#D16A0D"/>
<path d="M97.3519 34.1193C97.3327 34.1804 97.3199 34.2039 97.3076 34.2513C97.3023 34.2689 97.2632 34.3832 97.2611 34.4072C97.18 35.3993 98.3549 36.5797 100.024 37.109C101.733 37.6512 103.371 37.3256 103.841 36.4921C103.841 36.4921 103.912 36.2654 103.932 36.203C104.262 35.1614 103.057 33.8508 101.24 33.2757C99.4225 32.7006 97.6814 33.0779 97.3506 34.1194L97.3519 34.1193Z" fill="#D16A0D"/>
<path d="M97.3671 34.0747C97.0364 35.1162 98.2412 36.4269 100.059 37.0019C101.876 37.577 103.617 37.1997 103.948 36.1582C104.279 35.1167 103.074 33.806 101.256 33.2309C99.439 32.6559 97.6978 33.0331 97.3671 34.0747Z" fill="url(#paint18_linear_800_13640)"/>
<g style="mix-blend-mode:screen" opacity="0.5">
<path d="M101.252 33.2413C99.4384 32.6672 97.6997 33.0417 97.3647 34.0796C97.3646 34.0782 97.3644 34.0756 97.367 34.0741C97.6977 33.0326 99.4388 32.6553 101.256 33.2303C103.074 33.8054 104.279 35.1161 103.948 36.1576C103.948 36.1589 103.947 36.1617 103.946 36.1631C104.27 35.1234 103.065 33.8153 101.252 33.2413Z" fill="#FEF0A0"/>
</g>
<path d="M97.8864 34.2393C97.6082 35.1165 98.6221 36.2204 100.153 36.7045C101.683 37.1887 103.149 36.8708 103.427 35.9936C103.706 35.1164 102.69 34.0126 101.161 33.5284C99.6303 33.0442 98.1646 33.3621 97.8864 34.2393Z" fill="url(#paint19_linear_800_13640)"/>
<path d="M97.8864 34.2393C97.6082 35.1165 98.6221 36.2204 100.153 36.7045C101.683 37.1887 103.149 36.8708 103.427 35.9936C103.706 35.1164 102.69 34.0126 101.161 33.5284C99.6303 33.0442 98.1646 33.3621 97.8864 34.2393Z" fill="url(#paint20_linear_800_13640)"/>
<g style="mix-blend-mode:multiply">
<path d="M101.161 33.5283C99.6343 33.0451 98.1724 33.3601 97.8884 34.2325C97.8882 34.2298 97.8894 34.2284 97.8906 34.2257C98.1688 33.3485 99.6345 33.0305 101.165 33.516C102.696 34.0002 103.71 35.1041 103.432 35.9813C103.432 35.9839 103.431 35.9853 103.429 35.988C103.7 35.1114 102.686 34.0129 101.161 33.5296L101.161 33.5283Z" fill="#FEF0A0"/>
</g>
<g style="mix-blend-mode:screen" opacity="0.3">
<path d="M100.153 36.7041C101.679 37.1873 103.143 36.8722 103.425 35.9986C103.425 36 103.424 36.0027 103.423 36.0041C103.145 36.8813 101.679 37.1993 100.148 36.7151C98.6176 36.2309 97.6037 35.1271 97.8819 34.2498C97.8818 34.2485 97.8829 34.2458 97.8841 34.2444C97.6112 35.1212 98.6261 36.221 100.153 36.7041Z" fill="#FEF0A0"/>
</g>
<path opacity="0.4" d="M101.138 33.5982C99.6227 33.1182 98.1757 33.4029 97.8788 34.2616C97.8808 34.2535 97.8829 34.2454 97.8862 34.2372C98.1645 33.36 99.6301 33.0421 101.161 33.5262C102.691 34.0104 103.705 35.1143 103.427 35.9915C103.425 35.9996 103.422 36.0078 103.42 36.0146C103.673 35.1419 102.655 34.0768 101.138 33.5969L101.138 33.5982Z" fill="#D16A0D"/>
<g style="mix-blend-mode:multiply" opacity="0.4">
<path d="M101.631 35.7587C101.613 35.6639 101.577 35.5781 101.519 35.5021C101.461 35.4261 101.345 35.2994 101.171 35.1229C100.966 34.9144 100.846 34.7837 100.811 34.7288C100.773 34.6739 100.774 34.6102 100.809 34.5386C100.831 34.4951 100.86 34.4699 100.896 34.4611C100.932 34.4523 100.976 34.4618 101.027 34.4858C101.089 34.5171 101.124 34.5504 101.13 34.5854C101.136 34.6205 101.119 34.6774 101.078 34.7589L101.01 34.7497L101.039 34.835L101.866 35.2538C101.891 35.218 101.909 35.1902 101.918 35.1711C101.987 35.0353 101.978 34.8979 101.889 34.7562C101.801 34.6154 101.634 34.4713 101.388 34.3227L101.463 34.177L101.434 34.0917L101.369 34.122L101.082 33.9847L101.008 34.1305C100.719 34.0072 100.484 33.9484 100.305 33.956C100.125 33.9636 100.001 34.0349 99.9313 34.1716C99.8827 34.2667 99.8731 34.3681 99.9014 34.4768C99.9298 34.5855 99.9785 34.6833 100.048 34.7704C100.118 34.8584 100.257 35.0091 100.463 35.2253C100.589 35.3545 100.653 35.4478 100.655 35.5051C100.658 35.5624 100.634 35.6432 100.582 35.7464C100.562 35.7872 100.532 35.8114 100.494 35.8183C100.456 35.8251 100.41 35.8145 100.353 35.7864C100.288 35.7539 100.254 35.717 100.252 35.6784C100.25 35.6399 100.281 35.5586 100.343 35.4354L100.371 35.3811L100.4 35.3241L100.371 35.2388L100.27 35.2414L99.5727 34.9043L99.5264 34.9939C99.4226 35.1986 99.4327 35.3828 99.5556 35.5493C99.6795 35.7149 99.8488 35.8602 100.063 35.9841L99.9439 36.0773L99.9728 36.1626L100.354 36.3548L100.441 36.1818C100.736 36.3037 100.978 36.3536 101.167 36.3326C101.356 36.3115 101.493 36.2186 101.576 36.0547C101.629 35.9524 101.645 35.8542 101.628 35.7585L101.631 35.7587Z" fill="#AA7E03"/>
</g>
<path d="M101.889 35.0859C101.958 34.9501 101.948 34.8117 101.861 34.6701C101.773 34.5293 101.606 34.3852 101.36 34.2366L101.434 34.0899L101.053 33.8976L100.98 34.0444C100.691 33.9211 100.457 33.8623 100.277 33.8699C100.097 33.8775 99.9725 33.9497 99.9034 34.0855C99.8558 34.1797 99.8452 34.282 99.8735 34.3907C99.9018 34.4994 99.9505 34.5972 100.02 34.6843C100.09 34.7723 100.229 34.923 100.436 35.1383C100.562 35.2675 100.626 35.3608 100.629 35.4181C100.632 35.4764 100.607 35.5562 100.555 35.6595C100.535 35.7002 100.505 35.7245 100.467 35.7313C100.429 35.7381 100.383 35.7275 100.326 35.6994C100.261 35.6669 100.227 35.63 100.225 35.5914C100.223 35.5529 100.254 35.4716 100.316 35.3485L100.374 35.2352L99.5467 34.8164L99.5013 34.907C99.3975 35.1117 99.4076 35.2959 99.5305 35.4624C99.6544 35.6281 99.8237 35.7734 100.038 35.8973L99.9477 36.0757L100.329 36.268L100.416 36.095C100.711 36.2168 100.953 36.2668 101.142 36.2457C101.331 36.2247 101.467 36.1318 101.55 35.9687C101.601 35.8673 101.619 35.7674 101.601 35.6725C101.583 35.5776 101.547 35.4919 101.489 35.4159C101.432 35.3399 101.315 35.2132 101.142 35.0367C100.936 34.8281 100.817 34.6974 100.781 34.6426C100.743 34.5876 100.744 34.524 100.78 34.4524C100.801 34.4089 100.83 34.3837 100.867 34.3759C100.904 34.3671 100.947 34.3747 100.997 34.4014C101.059 34.4328 101.095 34.467 101.1 34.501C101.107 34.5352 101.089 34.593 101.048 34.6746L101.009 34.7506L101.836 35.1694C101.861 35.1336 101.879 35.1058 101.887 35.0876L101.889 35.0859Z" fill="white"/>
<g style="mix-blend-mode:screen" opacity="0.7">
<path style="mix-blend-mode:screen" d="M101.365 34.2405L101.363 34.2422C101.577 34.3709 101.731 34.4964 101.825 34.6197C101.732 34.4955 101.577 34.369 101.365 34.2405Z" fill="url(#paint21_linear_800_13640)"/>
<path style="mix-blend-mode:screen" d="M101.087 34.4674C101.096 34.4774 101.099 34.4888 101.101 34.4993C101.108 34.5334 101.09 34.5912 101.049 34.6728L101.01 34.7488L101.015 34.7511L101.053 34.6777C101.094 34.5962 101.111 34.5393 101.105 34.5042C101.103 34.4919 101.097 34.4794 101.087 34.4674Z" fill="url(#paint22_linear_800_13640)"/>
<path style="mix-blend-mode:screen" d="M100.471 35.7356C100.509 35.7288 100.539 35.7046 100.559 35.6638C100.611 35.5606 100.636 35.4808 100.634 35.4235C100.631 35.3886 100.607 35.3411 100.561 35.28C100.605 35.3382 100.628 35.3847 100.629 35.4185C100.633 35.4768 100.608 35.5566 100.556 35.6599C100.535 35.7006 100.506 35.7248 100.468 35.7317C100.43 35.7385 100.383 35.7279 100.327 35.6998C100.29 35.6814 100.263 35.6608 100.247 35.6401C100.263 35.6627 100.291 35.6842 100.332 35.7047C100.388 35.7329 100.434 35.7435 100.472 35.7366L100.471 35.7356Z" fill="url(#paint23_linear_800_13640)"/>
<path style="mix-blend-mode:screen" d="M101.489 35.4171C101.431 35.3411 101.315 35.2144 101.141 35.0379C100.961 34.8534 100.845 34.7296 100.796 34.6654C100.842 34.7275 100.959 34.8533 101.145 35.0437C101.316 35.2172 101.43 35.3419 101.489 35.4189L101.489 35.4171Z" fill="url(#paint24_linear_800_13640)"/>
<path style="mix-blend-mode:screen" d="M100.043 35.9033C100.043 35.9033 100.04 35.9003 100.038 35.9002L99.9485 36.0768L99.954 36.079L100.043 35.9033Z" fill="url(#paint25_linear_800_13640)"/>
<path style="mix-blend-mode:screen" d="M99.5348 35.4665C99.4109 35.3009 99.4018 35.1158 99.5055 34.9111L99.5519 34.8215L100.373 35.2381L100.375 35.2363L99.5475 34.8165L99.502 34.9071C99.3983 35.1118 99.4084 35.296 99.5313 35.4625C99.5356 35.4675 99.54 35.4725 99.5433 35.4783C99.5407 35.4754 99.5372 35.4714 99.5338 35.4674L99.5348 35.4665Z" fill="url(#paint26_linear_800_13640)"/>
<path style="mix-blend-mode:screen" d="M100.009 34.6724C99.9472 34.5895 99.9027 34.4985 99.8776 34.3976C99.8493 34.2889 99.8589 34.1875 99.9075 34.0924C99.9767 33.9547 100.102 33.8826 100.281 33.8768C100.461 33.8692 100.695 33.928 100.984 34.0513L101.058 33.9055L101.434 34.0955L101.436 34.0938L101.054 33.9005L100.98 34.0473C100.691 33.924 100.457 33.8652 100.278 33.8728C100.098 33.8804 99.9731 33.9526 99.904 34.0884C99.8564 34.1826 99.8458 34.2849 99.8741 34.3936C99.9009 34.4965 99.9462 34.5904 100.01 34.6734L100.009 34.6724Z" fill="url(#paint27_linear_800_13640)"/>
</g>
<path d="M98.4546 11.431C97.9791 11.3941 97.6069 11.0219 97.57 10.5464L97.5295 10.001H97.4705L97.43 10.5464C97.3931 11.0219 97.0209 11.3941 96.5454 11.431L96 11.4715V11.5305L96.5454 11.571C97.0209 11.6079 97.3931 11.9801 97.43 12.4555L97.4705 13.001H97.5295L97.57 12.4555C97.6069 11.9801 97.9791 11.6079 98.4546 11.571L99 11.5305V11.4715L98.4546 11.431Z" fill="white"/>
<path d="M82.6371 14.4707C82.3266 14.4586 82.0847 14.3377 82.0605 14.1824L82.0322 14.001H81.9678L81.9395 14.1824C81.9153 14.3377 81.6734 14.4586 81.3629 14.4707L81 14.4848V14.5171L81.3629 14.5312C81.6734 14.5433 81.9153 14.6643 81.9395 14.8195L81.9678 15.001H82.0322L82.0605 14.8195C82.0847 14.6643 82.3266 14.5433 82.6371 14.5312L83 14.5171V14.4848L82.6371 14.4707Z" fill="white"/>
<path d="M104.819 15.9415C104.664 15.9157 104.543 15.6728 104.53 15.3627L104.517 15.001H104.483L104.47 15.3627C104.457 15.6728 104.336 15.9157 104.181 15.9415L104 15.9674V16.0346L104.181 16.0604C104.336 16.0862 104.457 16.3291 104.47 16.6392L104.483 17.001H104.517L104.53 16.6392C104.543 16.3291 104.664 16.0862 104.819 16.0604L105 16.0346V15.9674L104.819 15.9415Z" fill="white"/>
<path d="M12.6915 2.52932C11.5448 1.03003 8.47404 0.762752 5.39823 1.99986C2.32242 3.23697 0.291401 5.55337 0.508008 7.4294L0.418823 7.4243L0.571716 7.7934C1.35914 9.74579 4.7586 10.2167 8.1657 8.84724C11.5728 7.47776 13.6955 4.78463 12.9081 2.83224L12.7552 2.46314L12.694 2.52932H12.6915Z" fill="#D16A0D"/>
<path d="M12.5361 1.92363C12.5819 2.03818 12.61 2.08145 12.6406 2.17055C12.6533 2.20364 12.7451 2.41746 12.7527 2.46328C13.0534 4.35712 10.9689 6.79571 7.83956 8.05572C4.63633 9.34629 1.4433 8.95937 0.418877 7.42699C0.418877 7.42699 0.248146 7.00189 0.202277 6.8848C-0.585151 4.93241 1.53759 2.23927 4.94468 0.8698C8.35177 -0.499674 11.7512 -0.0287574 12.5386 1.92363H12.5361Z" fill="#D16A0D"/>
<path d="M12.5005 1.8377C13.2879 3.79009 11.1651 6.48322 7.75802 7.85269C4.35093 9.22217 0.951497 8.75125 0.164069 6.79886C-0.623359 4.84647 1.49938 2.15334 4.90647 0.783863C8.31356 -0.585611 11.713 -0.114696 12.5005 1.8377Z" fill="url(#paint28_linear_800_13640)"/>
<g style="mix-blend-mode:screen" opacity="0.5">
<path d="M4.91668 0.804227C8.31612 -0.562702 11.7104 -0.0968778 12.5055 1.84788C12.5055 1.84533 12.5055 1.84024 12.5005 1.8377C11.713 -0.114696 8.31356 -0.585611 4.90647 0.783863C1.49938 2.15334 -0.623359 4.84647 0.164069 6.79886C0.164069 6.80141 0.166622 6.8065 0.16917 6.80904C-0.605516 4.8592 1.51723 2.17116 4.91668 0.804227Z" fill="#FEF0A0"/>
</g>
<path d="M11.527 2.22982C12.1896 3.8742 10.4032 6.14224 7.5338 7.29535C4.6644 8.44845 1.80266 8.05136 1.1401 6.40697C0.477537 4.76258 2.26646 2.49455 5.13331 1.34144C8.00271 0.188331 10.8645 0.585428 11.527 2.22982Z" fill="url(#paint29_linear_800_13640)"/>
<path d="M11.527 2.22982C12.1896 3.8742 10.4032 6.14224 7.5338 7.29535C4.6644 8.44845 1.80266 8.05136 1.1401 6.40697C0.477537 4.76258 2.26646 2.49455 5.13331 1.34144C8.00271 0.188331 10.8645 0.585428 11.527 2.22982Z" fill="url(#paint30_linear_800_13640)"/>
<g style="mix-blend-mode:multiply">
<path d="M5.13336 1.34189C7.99512 0.19133 10.8492 0.583336 11.522 2.21754C11.522 2.21245 11.5194 2.20991 11.5169 2.20481C10.8543 0.560427 7.99256 0.16333 5.12316 1.31898C2.25376 2.47209 0.467415 4.74013 1.12998 6.38451C1.12998 6.3896 1.1325 6.39215 1.13505 6.39724C0.487775 4.75285 2.27416 2.495 5.13336 1.34444V1.34189Z" fill="#FEF0A0"/>
</g>
<g style="mix-blend-mode:screen" opacity="0.3">
<path d="M7.53374 7.29558C4.67199 8.44615 1.81535 8.05414 1.14514 6.41739C1.14514 6.41993 1.14769 6.42502 1.15024 6.42757C1.8128 8.07196 4.67455 8.46905 7.54395 7.31595C10.4133 6.16284 12.1997 3.8948 11.5372 2.25042C11.5372 2.24787 11.5346 2.24278 11.5321 2.24023C12.1844 3.88462 10.3955 6.14502 7.53374 7.29558Z" fill="#FEF0A0"/>
</g>
<path opacity="0.4" d="M5.1867 1.47342C8.02807 0.330495 10.8491 0.6665 11.5448 2.27271C11.5397 2.25743 11.5345 2.24216 11.5269 2.22689C10.8643 0.582499 8.0026 0.185401 5.1332 1.33851C2.2638 2.49162 0.477423 4.75965 1.13998 6.40404C1.14508 6.41931 1.15274 6.43459 1.15784 6.44731C0.543696 4.80802 2.34279 2.6138 5.1867 1.47088V1.47342Z" fill="#D16A0D"/>
<g style="mix-blend-mode:multiply" opacity="0.4">
<path d="M8.37975 3.78469C8.21921 3.69051 8.04847 3.63451 7.86499 3.62178C7.68151 3.60906 7.35023 3.61669 6.87369 3.64469C6.31051 3.67778 5.96906 3.68542 5.84419 3.6676C5.71678 3.65233 5.62502 3.57087 5.56641 3.42833C5.53073 3.34178 5.53073 3.26796 5.56386 3.20432C5.59698 3.14069 5.6658 3.08978 5.76518 3.0465C5.89005 2.99559 5.98178 2.98796 6.04039 3.02359C6.099 3.05923 6.16019 3.15596 6.22644 3.31887L6.12705 3.40542L6.2876 3.4716L7.944 2.80468C7.92361 2.72322 7.90576 2.66213 7.89047 2.62395C7.78089 2.35158 7.56938 2.19122 7.25084 2.14031C6.93485 2.0894 6.51438 2.14794 5.98688 2.31595L5.86967 2.02321L5.70913 1.95703L5.6709 2.0894L5.10773 2.33122L5.22494 2.62395C4.6796 2.88614 4.29736 3.15087 4.08075 3.42069C3.86415 3.69051 3.81063 3.96033 3.92021 4.23525C3.99666 4.42616 4.13171 4.56871 4.32538 4.66544C4.51905 4.76216 4.72292 4.81562 4.93698 4.8258C5.15359 4.83598 5.54858 4.8258 6.1245 4.80035C6.47107 4.78253 6.68766 4.80798 6.7743 4.87671C6.86095 4.94544 6.94759 5.0829 7.03169 5.28908C7.06481 5.37054 7.06226 5.44436 7.02403 5.50799C6.98581 5.57163 6.91194 5.62509 6.79981 5.6709C6.66985 5.72436 6.57298 5.72691 6.51437 5.68109C6.45576 5.63527 6.37678 5.48763 6.2774 5.24072L6.23406 5.13126L6.18821 5.01671L6.02767 4.95053L5.9028 5.10071L4.52926 5.68363L4.60062 5.86436C4.76626 6.27419 5.04656 6.4931 5.44409 6.52619C5.84163 6.55674 6.2672 6.49564 6.71825 6.34291L6.70297 6.6331L6.86352 6.69928L7.62546 6.39128L7.48529 6.04509C8.03573 5.77272 8.41542 5.48508 8.62438 5.18472C8.83334 4.88435 8.87158 4.56871 8.73907 4.24034C8.65753 4.03415 8.53519 3.88651 8.37465 3.78979L8.37975 3.78469Z" fill="#AA7E03"/>
</g>
<path d="M7.78608 2.73578L6.12967 3.40269L6.06848 3.24997C6.00223 3.08705 5.94107 2.98778 5.88246 2.95469C5.82385 2.91905 5.73212 2.92669 5.60726 2.9776C5.50532 3.01833 5.43906 3.06924 5.40593 3.13287C5.3728 3.19651 5.3728 3.27033 5.40593 3.35688C5.46454 3.50197 5.5563 3.58088 5.68372 3.59615C5.80859 3.61397 6.15004 3.60633 6.71321 3.57324C7.18975 3.54524 7.52103 3.53761 7.70451 3.55033C7.88799 3.56306 8.05873 3.61906 8.21928 3.71324C8.37982 3.80743 8.50215 3.95761 8.5837 4.1638C8.71621 4.49217 8.67797 4.80526 8.46901 5.10563C8.26004 5.406 7.88035 5.69364 7.32992 5.966L7.47006 6.31219L6.70811 6.6202L6.56287 6.26383C6.10927 6.41656 5.68625 6.47765 5.28872 6.4471C4.89118 6.41656 4.61085 6.1951 4.44521 5.78528L4.37133 5.60455L6.02773 4.93763L6.11947 5.16418C6.21885 5.41109 6.29783 5.55873 6.35645 5.60455C6.41506 5.65036 6.50934 5.64782 6.64185 5.59436C6.75398 5.54854 6.82788 5.49509 6.86611 5.43145C6.90433 5.36781 6.90689 5.294 6.87376 5.21254C6.78967 5.00635 6.70557 4.8689 6.61638 4.80017C6.52974 4.73144 6.31315 4.70853 5.96658 4.72381C5.39066 4.75181 4.99566 4.75944 4.77906 4.75181C4.565 4.74162 4.35858 4.68817 4.16745 4.59144C3.97378 4.49471 3.83873 4.35216 3.76228 4.16125C3.65016 3.88634 3.70622 3.61397 3.92283 3.34669C4.13943 3.07687 4.52168 2.81214 5.06702 2.54996L4.94725 2.25722L5.7092 1.94922L5.82896 2.24195C6.35391 2.0714 6.77692 2.01286 7.09291 2.06631C7.4089 2.11722 7.62296 2.28013 7.73254 2.5525C7.74783 2.59068 7.76569 2.64923 7.78608 2.73068V2.73578Z" fill="white"/>
<g style="mix-blend-mode:screen" opacity="0.7">
<path style="mix-blend-mode:screen" d="M5.83911 2.24409V2.24918C6.29781 2.10154 6.67494 2.03791 6.9731 2.05827C6.67494 2.03536 6.29526 2.099 5.83911 2.24409Z" fill="url(#paint31_linear_800_13640)"/>
<path style="mix-blend-mode:screen" d="M5.81616 2.93359C5.84165 2.93359 5.86203 2.94378 5.87987 2.95396C5.93848 2.98705 5.99967 3.08632 6.06592 3.24924L6.12708 3.40196L6.13725 3.39687L6.07865 3.24924C6.01239 3.08632 5.95124 2.9896 5.89262 2.95396C5.87224 2.94123 5.84674 2.93359 5.81616 2.93359Z" fill="url(#paint32_linear_800_13640)"/>
<path style="mix-blend-mode:screen" d="M6.87883 5.43323C6.91705 5.3696 6.91961 5.29578 6.88648 5.21432C6.80238 5.00814 6.71829 4.87068 6.63165 4.80195C6.57813 4.76122 6.47873 4.73577 6.33093 4.72559C6.47109 4.73577 6.56793 4.76122 6.61889 4.80195C6.70808 4.87068 6.79218 5.00814 6.87627 5.21432C6.9094 5.29578 6.90685 5.3696 6.86862 5.43323C6.8304 5.49687 6.7565 5.55033 6.64437 5.59614C6.57047 5.62669 6.50676 5.63942 6.4558 5.63687C6.50931 5.64196 6.57558 5.62924 6.65712 5.59614C6.76925 5.55033 6.84315 5.49687 6.88138 5.43323H6.87883Z" fill="url(#paint33_linear_800_13640)"/>
<path style="mix-blend-mode:screen" d="M7.70702 3.55577C7.52354 3.54304 7.19226 3.55068 6.71573 3.57868C6.2188 3.60668 5.89263 3.61686 5.73718 3.60668C5.88498 3.61941 6.21627 3.60923 6.72848 3.58123C7.19737 3.55322 7.52355 3.54559 7.70957 3.55832L7.70702 3.55577Z" fill="url(#paint34_linear_800_13640)"/>
<path style="mix-blend-mode:screen" d="M6.5755 6.26562C6.5755 6.26562 6.56785 6.26563 6.56531 6.26817L6.70784 6.62199L6.71803 6.6169L6.5755 6.26562Z" fill="url(#paint35_linear_800_13640)"/>
<path style="mix-blend-mode:screen" d="M5.30137 6.44893C4.90383 6.41838 4.6235 6.19693 4.45786 5.7871L4.3865 5.60637L6.03273 4.94454V4.93945L4.37378 5.60637L4.44766 5.7871C4.6133 6.19693 4.89363 6.41584 5.29117 6.44893C5.30391 6.44893 5.31665 6.44893 5.3294 6.45147C5.32175 6.45147 5.31156 6.45147 5.30137 6.45147V6.44893Z" fill="url(#paint36_linear_800_13640)"/>
<path style="mix-blend-mode:screen" d="M4.74603 4.75414C4.54726 4.73887 4.35869 4.68796 4.18031 4.59632C3.98664 4.49959 3.85155 4.35705 3.77511 4.16613C3.66298 3.89122 3.7165 3.61885 3.93565 3.35158C4.15226 3.08175 4.53453 2.81702 5.07987 2.55484L4.96263 2.26211L5.7144 1.95919V1.9541L4.9499 2.26211L5.06967 2.55484C4.52433 2.81702 4.14208 3.08175 3.92548 3.35158C3.70887 3.6214 3.65536 3.89377 3.76493 4.16613C3.84138 4.3545 3.97643 4.49959 4.17011 4.59632C4.35358 4.68796 4.54726 4.74142 4.74858 4.75414H4.74603Z" fill="url(#paint37_linear_800_13640)"/>
</g>
<path d="M118.962 20.5803C117.339 18.4583 112.993 18.0801 108.64 19.8309C104.287 21.5818 101.412 24.8602 101.719 27.5153L101.593 27.5081L101.809 28.0305C102.924 30.7937 107.735 31.4602 112.557 29.522C117.379 27.5838 120.383 23.7722 119.269 21.009L119.052 20.4866L118.966 20.5803H118.962Z" fill="#D16A0D"/>
<path d="M118.742 19.7229C118.807 19.8851 118.847 19.9463 118.89 20.0724C118.908 20.1192 119.038 20.4219 119.049 20.4867C119.474 23.1671 116.524 26.6184 112.095 28.4017C107.562 30.2282 103.043 29.6806 101.593 27.5118C101.593 27.5118 101.351 26.9102 101.286 26.7444C100.172 23.9812 103.176 20.1697 107.998 18.2315C112.82 16.2933 117.631 16.9597 118.746 19.7229H118.742Z" fill="#D16A0D"/>
<path d="M118.692 19.6009C119.806 22.3641 116.802 26.1757 111.98 28.1139C107.158 30.0521 102.347 29.3856 101.232 26.6224C100.118 23.8592 103.122 20.0476 107.944 18.1094C112.766 16.1712 117.577 16.8377 118.692 19.6009Z" fill="url(#paint38_linear_800_13640)"/>
<g style="mix-blend-mode:screen" opacity="0.5">
<path d="M107.959 18.1382C112.77 16.2036 117.574 16.8629 118.699 19.6153C118.699 19.6117 118.699 19.6045 118.692 19.6009C117.577 16.8377 112.766 16.1712 107.944 18.1094C103.122 20.0476 100.118 23.8592 101.232 26.6224C101.232 26.626 101.236 26.6332 101.239 26.6368C100.143 23.8772 103.147 20.0728 107.959 18.1382Z" fill="#FEF0A0"/>
</g>
<path d="M117.314 20.156C118.252 22.4833 115.724 25.6932 111.662 27.3252C107.601 28.9572 103.551 28.3951 102.614 26.0679C101.676 23.7406 104.208 20.5306 108.265 18.8987C112.326 17.2667 116.376 17.8287 117.314 20.156Z" fill="url(#paint39_linear_800_13640)"/>
<path d="M117.314 20.156C118.252 22.4833 115.724 25.6932 111.662 27.3252C107.601 28.9572 103.551 28.3951 102.614 26.0679C101.676 23.7406 104.208 20.5306 108.265 18.8987C112.326 17.2667 116.376 17.8287 117.314 20.156Z" fill="url(#paint40_linear_800_13640)"/>
<g style="mix-blend-mode:multiply">
<path d="M108.265 18.8987C112.315 17.2703 116.355 17.8251 117.307 20.138C117.307 20.1308 117.303 20.1272 117.3 20.12C116.362 17.7927 112.312 17.2307 108.251 18.8663C104.19 20.4983 101.661 23.7082 102.599 26.0355C102.599 26.0427 102.603 26.0463 102.606 26.0535C101.69 23.7262 104.219 20.5307 108.265 18.9023V18.8987Z" fill="#FEF0A0"/>
</g>
<g style="mix-blend-mode:screen" opacity="0.3">
<path d="M111.662 27.3247C107.612 28.9531 103.569 28.3983 102.621 26.0818C102.621 26.0854 102.624 26.0926 102.628 26.0962C103.566 28.4235 107.616 28.9855 111.677 27.3535C115.738 25.7216 118.266 22.5116 117.328 20.1843C117.328 20.1807 117.325 20.1735 117.321 20.1699C118.245 22.4972 115.713 25.6963 111.662 27.3247Z" fill="#FEF0A0"/>
</g>
<path opacity="0.4" d="M108.341 19.0857C112.362 17.4681 116.355 17.9437 117.339 20.2169C117.332 20.1953 117.325 20.1737 117.314 20.1521C116.376 17.8248 112.326 17.2628 108.265 18.8947C104.204 20.5267 101.676 23.7367 102.613 26.064C102.621 26.0856 102.632 26.1072 102.639 26.1252C101.77 23.8051 104.316 20.6997 108.341 19.0821V19.0857Z" fill="#D16A0D"/>
<g style="mix-blend-mode:multiply" opacity="0.4">
<path d="M112.86 22.3562C112.633 22.2229 112.391 22.1437 112.131 22.1256C111.872 22.1076 111.403 22.1184 110.728 22.1581C109.931 22.2049 109.448 22.2157 109.271 22.1905C109.091 22.1689 108.961 22.0536 108.878 21.8518C108.828 21.7294 108.828 21.6249 108.875 21.5348C108.921 21.4447 109.019 21.3727 109.16 21.3115C109.336 21.2394 109.466 21.2286 109.549 21.279C109.632 21.3295 109.719 21.4664 109.812 21.6969L109.672 21.8194L109.899 21.9131L112.243 20.9692C112.214 20.8539 112.189 20.7675 112.167 20.7134C112.012 20.3279 111.713 20.101 111.262 20.0289C110.815 19.9569 110.22 20.0397 109.473 20.2775L109.307 19.8632L109.08 19.7695L109.026 19.9569L108.229 20.2991L108.395 20.7134C107.623 21.0845 107.082 21.4592 106.776 21.841C106.469 22.2229 106.393 22.6048 106.548 22.9939C106.657 23.2641 106.848 23.4658 107.122 23.6027C107.396 23.7396 107.684 23.8153 107.987 23.8297C108.294 23.8441 108.853 23.8297 109.668 23.7937C110.159 23.7684 110.465 23.8045 110.588 23.9017C110.71 23.999 110.833 24.1935 110.952 24.4854C110.999 24.6006 110.995 24.7051 110.941 24.7952C110.887 24.8852 110.783 24.9609 110.624 25.0257C110.44 25.1014 110.303 25.105 110.22 25.0402C110.137 24.9753 110.025 24.7664 109.884 24.4169L109.823 24.262L109.758 24.0999L109.531 24.0062L109.354 24.2188L107.41 25.0438L107.511 25.2995C107.746 25.8796 108.142 26.1894 108.705 26.2362C109.268 26.2795 109.87 26.193 110.508 25.9768L110.487 26.3875L110.714 26.4812L111.792 26.0453L111.594 25.5553C112.373 25.1699 112.91 24.7628 113.206 24.3376C113.502 23.9125 113.556 23.4658 113.368 23.0011C113.253 22.7093 113.08 22.5003 112.853 22.3634L112.86 22.3562Z" fill="#AA7E03"/>
</g>
<path d="M112.02 20.872L109.675 21.8159L109.589 21.5997C109.495 21.3692 109.408 21.2287 109.325 21.1818C109.242 21.1314 109.113 21.1422 108.936 21.2142C108.792 21.2719 108.698 21.3439 108.651 21.434C108.604 21.5241 108.604 21.6285 108.651 21.751C108.734 21.9564 108.864 22.0681 109.044 22.0897C109.221 22.1149 109.704 22.1041 110.501 22.0573C111.176 22.0176 111.644 22.0068 111.904 22.0248C112.164 22.0428 112.405 22.1221 112.633 22.2554C112.86 22.3887 113.033 22.6013 113.148 22.8931C113.336 23.3578 113.282 23.8009 112.986 24.226C112.69 24.6511 112.153 25.0582 111.374 25.4437L111.572 25.9337L110.494 26.3696L110.288 25.8652C109.646 26.0814 109.048 26.1678 108.485 26.1246C107.922 26.0814 107.526 25.768 107.291 25.1879L107.187 24.9321L109.531 23.9883L109.661 24.3089C109.802 24.6583 109.913 24.8673 109.996 24.9321C110.079 24.997 110.213 24.9934 110.4 24.9177C110.559 24.8529 110.663 24.7772 110.718 24.6872C110.772 24.5971 110.775 24.4926 110.728 24.3773C110.609 24.0855 110.49 23.891 110.364 23.7937C110.242 23.6964 109.935 23.664 109.444 23.6856C108.629 23.7253 108.07 23.7361 107.764 23.7253C107.461 23.7109 107.169 23.6352 106.898 23.4983C106.624 23.3614 106.433 23.1597 106.325 22.8895C106.166 22.5004 106.245 22.1149 106.552 21.7366C106.859 21.3547 107.4 20.9801 108.171 20.609L108.002 20.1947L109.08 19.7588L109.25 20.1731C109.993 19.9317 110.591 19.8489 111.039 19.9245C111.486 19.9966 111.789 20.2271 111.944 20.6126C111.965 20.6666 111.991 20.7495 112.02 20.8648V20.872Z" fill="white"/>
<g style="mix-blend-mode:screen" opacity="0.7">
<path style="mix-blend-mode:screen" d="M109.264 20.1757V20.1829C109.913 19.9739 110.447 19.8839 110.869 19.9127C110.447 19.8803 109.91 19.9703 109.264 20.1757Z" fill="url(#paint41_linear_800_13640)"/>
<path style="mix-blend-mode:screen" d="M109.232 21.1523C109.268 21.1523 109.297 21.1668 109.322 21.1812C109.405 21.228 109.491 21.3685 109.585 21.5991L109.672 21.8152L109.686 21.808L109.603 21.5991C109.509 21.3685 109.423 21.2316 109.34 21.1812C109.311 21.1632 109.275 21.1523 109.232 21.1523Z" fill="url(#paint42_linear_800_13640)"/>
<path style="mix-blend-mode:screen" d="M110.736 24.69C110.79 24.5999 110.793 24.4955 110.746 24.3802C110.627 24.0884 110.508 23.8938 110.386 23.7966C110.31 23.7389 110.169 23.7029 109.96 23.6885C110.159 23.7029 110.296 23.7389 110.368 23.7966C110.494 23.8938 110.613 24.0884 110.732 24.3802C110.779 24.4955 110.775 24.5999 110.721 24.69C110.667 24.7801 110.563 24.8557 110.404 24.9206C110.299 24.9638 110.209 24.9818 110.137 24.9782C110.213 24.9854 110.306 24.9674 110.422 24.9206C110.581 24.8557 110.685 24.7801 110.739 24.69H110.736Z" fill="url(#paint43_linear_800_13640)"/>
<path style="mix-blend-mode:screen" d="M111.908 22.0319C111.648 22.0139 111.179 22.0247 110.505 22.0643C109.802 22.1039 109.34 22.1183 109.12 22.1039C109.329 22.1219 109.798 22.1075 110.523 22.0679C111.186 22.0283 111.648 22.0175 111.911 22.0355L111.908 22.0319Z" fill="url(#paint44_linear_800_13640)"/>
<path style="mix-blend-mode:screen" d="M110.306 25.8682C110.306 25.8682 110.296 25.8682 110.292 25.8718L110.494 26.3725L110.508 26.3653L110.306 25.8682Z" fill="url(#paint45_linear_800_13640)"/>
<path style="mix-blend-mode:screen" d="M108.503 26.1276C107.94 26.0843 107.544 25.7709 107.309 25.1909L107.208 24.9351L109.538 23.9984V23.9912L107.19 24.9351L107.295 25.1909C107.529 25.7709 107.926 26.0807 108.489 26.1276C108.507 26.1276 108.525 26.1276 108.543 26.1312C108.532 26.1312 108.518 26.1312 108.503 26.1312V26.1276Z" fill="url(#paint46_linear_800_13640)"/>
<path style="mix-blend-mode:screen" d="M107.717 23.7285C107.435 23.7069 107.169 23.6348 106.916 23.5051C106.642 23.3682 106.451 23.1665 106.343 22.8963C106.184 22.5072 106.26 22.1217 106.57 21.7435C106.876 21.3616 107.417 20.9869 108.189 20.6158L108.023 20.2015L109.087 19.7728V19.7656L108.005 20.2015L108.175 20.6158C107.403 20.9869 106.862 21.3616 106.555 21.7435C106.249 22.1253 106.173 22.5108 106.328 22.8963C106.436 23.1629 106.628 23.3682 106.902 23.5051C107.161 23.6348 107.435 23.7105 107.72 23.7285H107.717Z" fill="url(#paint47_linear_800_13640)"/>
</g>
<path d="M97.7265 25.4295C98.3621 25.393 98.8561 25.0209 98.9048 24.5458L98.9601 24.001H99.0399L99.0952 24.5458C99.144 25.0226 99.6401 25.393 100.274 25.4295L101 25.4711V25.5309L100.274 25.5724C99.6379 25.6089 99.144 25.981 99.0952 26.4561L99.0399 27.001H98.9601L98.9048 26.4561C98.8561 25.9794 98.3599 25.6089 97.7265 25.5724L97 25.5309V25.4711L97.7265 25.4295Z" fill="white"/>
<path d="M18.5455 31.571C19.0209 31.6079 19.3931 31.9801 19.43 32.4555L19.4705 33.001H19.5295L19.57 32.4555C19.6069 31.9801 19.9791 31.6079 20.4545 31.571L21 31.5305V31.4715L20.4545 31.431C19.9791 31.3941 19.6069 31.0219 19.57 30.5464L19.5295 30.001H19.4705L19.43 30.5464C19.3931 31.0219 19.0209 31.3941 18.5455 31.431L18 31.4715V31.5305L18.5455 31.571Z" fill="white"/>
<path d="M11.3617 20.5307C11.6718 20.5436 11.9147 20.6651 11.9405 20.8201L11.9664 21.001H12.0336L12.0595 20.8201C12.0853 20.6651 12.3282 20.5436 12.6383 20.5307L13 20.5178V20.4842L12.6383 20.4713C12.3282 20.4583 12.0853 20.3369 12.0595 20.1819L12.0336 20.001H11.9664L11.9405 20.1819C11.9147 20.3369 11.6718 20.4583 11.3617 20.4713L11 20.4842V20.5178L11.3617 20.5307Z" fill="white"/>
<path d="M17.183 25.5294C17.3374 25.5416 17.4593 25.6636 17.4715 25.8181L17.4837 26.001H17.5163L17.5285 25.8181C17.5407 25.6636 17.6626 25.5416 17.817 25.5294L18 25.5172V25.4847L17.817 25.4725C17.6626 25.4603 17.5407 25.3384 17.5285 25.1839L17.5163 25.001H17.4837L17.4715 25.1839C17.4593 25.3384 17.3374 25.4603 17.183 25.4725L17 25.4847V25.5172L17.183 25.5294Z" fill="white"/>
<path d="M23.5 9.00098L23.9243 10.0767L25 10.501L23.9243 10.9252L23.5 12.001L23.0757 10.9252L22 10.501L23.0757 10.0767L23.5 9.00098Z" fill="white"/>
<path d="M93 33.001L93.2828 33.7181L94 34.001L93.2828 34.2838L93 35.001L92.7172 34.2838L92 34.001L92.7172 33.7181L93 33.001Z" fill="white"/>
<defs>
<linearGradient id="paint0_linear_800_13640" x1="61.8907" y1="-5.99902" x2="61.8907" y2="53.6267" gradientUnits="userSpaceOnUse">
<stop stop-color="#FFEAA0" stop-opacity="0"/>
<stop offset="1" stop-color="#FFDB5B" stop-opacity="0.42"/>
</linearGradient>
<linearGradient id="paint1_linear_800_13640" x1="26.3832" y1="2.76897" x2="51.8802" y2="60.3235" gradientUnits="userSpaceOnUse">
<stop stop-color="#FFEAA0" stop-opacity="0"/>
<stop offset="1" stop-color="#FFDB5B" stop-opacity="0.42"/>
</linearGradient>
<linearGradient id="paint2_linear_800_13640" x1="97.234" y1="2.76911" x2="71.737" y2="60.3236" gradientUnits="userSpaceOnUse">
<stop stop-color="#FFEAA0" stop-opacity="0"/>
<stop offset="1" stop-color="#FFDB5B" stop-opacity="0.42"/>
</linearGradient>
<linearGradient id="paint3_linear_800_13640" x1="4.75279" y1="24.7541" x2="62.0451" y2="67.8628" gradientUnits="userSpaceOnUse">
<stop stop-color="#FFEAA0" stop-opacity="0"/>
<stop offset="1" stop-color="#FFDB5B" stop-opacity="0.42"/>
</linearGradient>
<linearGradient id="paint4_linear_800_13640" x1="120.045" y1="24.6287" x2="62.7528" y2="67.7374" gradientUnits="userSpaceOnUse">
<stop stop-color="#FFEAA0" stop-opacity="0"/>
<stop offset="1" stop-color="#FFDB5B" stop-opacity="0.42"/>
</linearGradient>
<linearGradient id="paint5_linear_800_13640" x1="13.689" y1="10.3029" x2="22.4285" y2="13.2714" gradientUnits="userSpaceOnUse">
<stop stop-color="#FA459C"/>
<stop offset="1" stop-color="#FF4A76"/>
</linearGradient>
<linearGradient id="paint6_linear_800_13640" x1="90.9358" y1="7.85516" x2="83.7722" y2="16.0779" gradientUnits="userSpaceOnUse">
<stop stop-color="#FFCA7D"/>
<stop offset="1" stop-color="#FFA422"/>
</linearGradient>
<linearGradient id="paint7_linear_800_13640" x1="34.1184" y1="10.7803" x2="31.017" y2="11.9101" gradientUnits="userSpaceOnUse">
<stop stop-color="#FFCA7D"/>
<stop offset="1" stop-color="#FFA422"/>
</linearGradient>
<linearGradient id="paint8_linear_800_13640" x1="21.0772" y1="8.80796" x2="17.346" y2="13.2354" gradientUnits="userSpaceOnUse">
<stop stop-color="#FFD08D"/>
<stop offset="0.58" stop-color="#FFDC2A"/>
<stop offset="0.81" stop-color="#F3C237"/>
<stop offset="1" stop-color="#EBB140"/>
</linearGradient>
<linearGradient id="paint9_linear_800_13640" x1="17.9212" y1="12.5203" x2="19.214" y2="8.43705" gradientUnits="userSpaceOnUse">
<stop stop-color="#F0C827"/>
<stop offset="0.08" stop-color="#E9BE25"/>
<stop offset="0.22" stop-color="#E2B424"/>
<stop offset="0.38" stop-color="#EECA46"/>
<stop offset="0.57" stop-color="#FAE168"/>
<stop offset="0.68" stop-color="#FFEA76"/>
<stop offset="0.74" stop-color="#FDE770"/>
<stop offset="0.82" stop-color="#FBE161"/>
<stop offset="0.91" stop-color="#F6D647"/>
<stop offset="1" stop-color="#F0C827"/>
</linearGradient>
<linearGradient id="paint10_linear_800_13640" x1="17.9212" y1="12.5203" x2="19.214" y2="8.43705" gradientUnits="userSpaceOnUse">
<stop stop-color="#FFD08D"/>
<stop offset="0.58" stop-color="#FFAF2A"/>
<stop offset="0.71" stop-color="#F8A631"/>
<stop offset="1" stop-color="#EC9540"/>
</linearGradient>
<linearGradient id="paint11_linear_800_13640" x1="19.7034" y1="9.65808" x2="19.7788" y2="9.50943" gradientUnits="userSpaceOnUse">
<stop offset="0.04" stop-color="#F8DA36"/>
<stop offset="0.11" stop-color="#F1CD21"/>
<stop offset="0.19" stop-color="#EBC412"/>
<stop offset="0.28" stop-color="#E8BE09"/>
<stop offset="0.42" stop-color="#E8BD07"/>
<stop offset="0.51" stop-color="#EFCB1B"/>
<stop offset="0.64" stop-color="#F8DB33"/>
<stop offset="0.77" stop-color="#FDE542"/>
<stop offset="0.87" stop-color="#FFE947"/>
<stop offset="1" stop-color="#FFEC63"/>
</linearGradient>
<linearGradient id="paint12_linear_800_13640" x1="18.962" y1="9.9786" x2="19.1282" y2="9.65091" gradientUnits="userSpaceOnUse">
<stop offset="0.04" stop-color="#F8DA36"/>
<stop offset="0.11" stop-color="#F1CD21"/>
<stop offset="0.19" stop-color="#EBC412"/>
<stop offset="0.28" stop-color="#E8BE09"/>
<stop offset="0.42" stop-color="#E8BD07"/>
<stop offset="0.51" stop-color="#EFCB1B"/>
<stop offset="0.64" stop-color="#F8DB33"/>
<stop offset="0.77" stop-color="#FDE542"/>
<stop offset="0.87" stop-color="#FFE947"/>
<stop offset="1" stop-color="#FFEC63"/>
</linearGradient>
<linearGradient id="paint13_linear_800_13640" x1="18.1648" y1="11.2464" x2="18.4448" y2="10.6941" gradientUnits="userSpaceOnUse">
<stop offset="0.04" stop-color="#F8DA36"/>
<stop offset="0.11" stop-color="#F1CD21"/>
<stop offset="0.19" stop-color="#EBC412"/>
<stop offset="0.28" stop-color="#E8BE09"/>
<stop offset="0.42" stop-color="#E8BD07"/>
<stop offset="0.51" stop-color="#EFCB1B"/>
<stop offset="0.64" stop-color="#F8DB33"/>
<stop offset="0.77" stop-color="#FDE542"/>
<stop offset="0.87" stop-color="#FFE947"/>
<stop offset="1" stop-color="#FFEC63"/>
</linearGradient>
<linearGradient id="paint14_linear_800_13640" x1="19.0561" y1="10.5739" x2="19.264" y2="10.1638" gradientUnits="userSpaceOnUse">
<stop offset="0.04" stop-color="#F8DA36"/>
<stop offset="0.11" stop-color="#F1CD21"/>
<stop offset="0.19" stop-color="#EBC412"/>
<stop offset="0.28" stop-color="#E8BE09"/>
<stop offset="0.42" stop-color="#E8BD07"/>
<stop offset="0.51" stop-color="#EFCB1B"/>
<stop offset="0.64" stop-color="#F8DB33"/>
<stop offset="0.77" stop-color="#FDE542"/>
<stop offset="0.87" stop-color="#FFE947"/>
<stop offset="1" stop-color="#FFEC63"/>
</linearGradient>
<linearGradient id="paint15_linear_800_13640" x1="17.6312" y1="11.7035" x2="17.7462" y2="11.4767" gradientUnits="userSpaceOnUse">
<stop offset="0.04" stop-color="#F8DA36"/>
<stop offset="0.11" stop-color="#F1CD21"/>
<stop offset="0.19" stop-color="#EBC412"/>
<stop offset="0.28" stop-color="#E8BE09"/>
<stop offset="0.42" stop-color="#E8BD07"/>
<stop offset="0.51" stop-color="#EFCB1B"/>
<stop offset="0.64" stop-color="#F8DB33"/>
<stop offset="0.77" stop-color="#FDE542"/>
<stop offset="0.87" stop-color="#FFE947"/>
<stop offset="1" stop-color="#FFEC63"/>
</linearGradient>
<linearGradient id="paint16_linear_800_13640" x1="17.3044" y1="11.0319" x2="17.6482" y2="10.3538" gradientUnits="userSpaceOnUse">
<stop offset="0.04" stop-color="#F8DA36"/>
<stop offset="0.11" stop-color="#F1CD21"/>
<stop offset="0.19" stop-color="#EBC412"/>
<stop offset="0.28" stop-color="#E8BE09"/>
<stop offset="0.42" stop-color="#E8BD07"/>
<stop offset="0.51" stop-color="#EFCB1B"/>
<stop offset="0.64" stop-color="#F8DB33"/>
<stop offset="0.77" stop-color="#FDE542"/>
<stop offset="0.87" stop-color="#FFE947"/>
<stop offset="1" stop-color="#FFEC63"/>
</linearGradient>
<linearGradient id="paint17_linear_800_13640" x1="18.0813" y1="10.086" x2="18.7563" y2="8.7546" gradientUnits="userSpaceOnUse">
<stop offset="0.04" stop-color="#F8DA36"/>
<stop offset="0.11" stop-color="#F1CD21"/>
<stop offset="0.19" stop-color="#EBC412"/>
<stop offset="0.28" stop-color="#E8BE09"/>
<stop offset="0.42" stop-color="#E8BD07"/>
<stop offset="0.51" stop-color="#EFCB1B"/>
<stop offset="0.64" stop-color="#F8DB33"/>
<stop offset="0.77" stop-color="#FDE542"/>
<stop offset="0.87" stop-color="#FFE947"/>
<stop offset="1" stop-color="#FFEC63"/>
</linearGradient>
<linearGradient id="paint18_linear_800_13640" x1="102.536" y1="34.0461" x2="99.6174" y2="37.5093" gradientUnits="userSpaceOnUse">
<stop stop-color="#FFD08D"/>
<stop offset="0.58" stop-color="#FFDC2A"/>
<stop offset="0.81" stop-color="#F3C237"/>
<stop offset="1" stop-color="#EBB140"/>
</linearGradient>
<linearGradient id="paint19_linear_800_13640" x1="100.067" y1="36.9502" x2="101.078" y2="33.7562" gradientUnits="userSpaceOnUse">
<stop stop-color="#F0C827"/>
<stop offset="0.08" stop-color="#E9BE25"/>
<stop offset="0.22" stop-color="#E2B424"/>
<stop offset="0.38" stop-color="#EECA46"/>
<stop offset="0.57" stop-color="#FAE168"/>
<stop offset="0.68" stop-color="#FFEA76"/>
<stop offset="0.74" stop-color="#FDE770"/>
<stop offset="0.82" stop-color="#FBE161"/>
<stop offset="0.91" stop-color="#F6D647"/>
<stop offset="1" stop-color="#F0C827"/>
</linearGradient>
<linearGradient id="paint20_linear_800_13640" x1="100.067" y1="36.9502" x2="101.078" y2="33.7562" gradientUnits="userSpaceOnUse">
<stop stop-color="#FFD08D"/>
<stop offset="0.58" stop-color="#FFAF2A"/>
<stop offset="0.71" stop-color="#F8A631"/>
<stop offset="1" stop-color="#EC9540"/>
</linearGradient>
<linearGradient id="paint21_linear_800_13640" x1="101.462" y1="34.7105" x2="101.521" y2="34.5942" gradientUnits="userSpaceOnUse">
<stop offset="0.04" stop-color="#F8DA36"/>
<stop offset="0.11" stop-color="#F1CD21"/>
<stop offset="0.19" stop-color="#EBC412"/>
<stop offset="0.28" stop-color="#E8BE09"/>
<stop offset="0.42" stop-color="#E8BD07"/>
<stop offset="0.51" stop-color="#EFCB1B"/>
<stop offset="0.64" stop-color="#F8DB33"/>
<stop offset="0.77" stop-color="#FDE542"/>
<stop offset="0.87" stop-color="#FFE947"/>
<stop offset="1" stop-color="#FFEC63"/>
</linearGradient>
<linearGradient id="paint22_linear_800_13640" x1="100.882" y1="34.9618" x2="101.012" y2="34.7055" gradientUnits="userSpaceOnUse">
<stop offset="0.04" stop-color="#F8DA36"/>
<stop offset="0.11" stop-color="#F1CD21"/>
<stop offset="0.19" stop-color="#EBC412"/>
<stop offset="0.28" stop-color="#E8BE09"/>
<stop offset="0.42" stop-color="#E8BD07"/>
<stop offset="0.51" stop-color="#EFCB1B"/>
<stop offset="0.64" stop-color="#F8DB33"/>
<stop offset="0.77" stop-color="#FDE542"/>
<stop offset="0.87" stop-color="#FFE947"/>
<stop offset="1" stop-color="#FFEC63"/>
</linearGradient>
<linearGradient id="paint23_linear_800_13640" x1="100.258" y1="35.953" x2="100.477" y2="35.5209" gradientUnits="userSpaceOnUse">
<stop offset="0.04" stop-color="#F8DA36"/>
<stop offset="0.11" stop-color="#F1CD21"/>
<stop offset="0.19" stop-color="#EBC412"/>
<stop offset="0.28" stop-color="#E8BE09"/>
<stop offset="0.42" stop-color="#E8BD07"/>
<stop offset="0.51" stop-color="#EFCB1B"/>
<stop offset="0.64" stop-color="#F8DB33"/>
<stop offset="0.77" stop-color="#FDE542"/>
<stop offset="0.87" stop-color="#FFE947"/>
<stop offset="1" stop-color="#FFEC63"/>
</linearGradient>
<linearGradient id="paint24_linear_800_13640" x1="100.955" y1="35.4272" x2="101.118" y2="35.1064" gradientUnits="userSpaceOnUse">
<stop offset="0.04" stop-color="#F8DA36"/>
<stop offset="0.11" stop-color="#F1CD21"/>
<stop offset="0.19" stop-color="#EBC412"/>
<stop offset="0.28" stop-color="#E8BE09"/>
<stop offset="0.42" stop-color="#E8BD07"/>
<stop offset="0.51" stop-color="#EFCB1B"/>
<stop offset="0.64" stop-color="#F8DB33"/>
<stop offset="0.77" stop-color="#FDE542"/>
<stop offset="0.87" stop-color="#FFE947"/>
<stop offset="1" stop-color="#FFEC63"/>
</linearGradient>
<linearGradient id="paint25_linear_800_13640" x1="99.8407" y1="36.3107" x2="99.9306" y2="36.1333" gradientUnits="userSpaceOnUse">
<stop offset="0.04" stop-color="#F8DA36"/>
<stop offset="0.11" stop-color="#F1CD21"/>
<stop offset="0.19" stop-color="#EBC412"/>
<stop offset="0.28" stop-color="#E8BE09"/>
<stop offset="0.42" stop-color="#E8BD07"/>
<stop offset="0.51" stop-color="#EFCB1B"/>
<stop offset="0.64" stop-color="#F8DB33"/>
<stop offset="0.77" stop-color="#FDE542"/>
<stop offset="0.87" stop-color="#FFE947"/>
<stop offset="1" stop-color="#FFEC63"/>
</linearGradient>
<linearGradient id="paint26_linear_800_13640" x1="99.5849" y1="35.7853" x2="99.8539" y2="35.2548" gradientUnits="userSpaceOnUse">
<stop offset="0.04" stop-color="#F8DA36"/>
<stop offset="0.11" stop-color="#F1CD21"/>
<stop offset="0.19" stop-color="#EBC412"/>
<stop offset="0.28" stop-color="#E8BE09"/>
<stop offset="0.42" stop-color="#E8BD07"/>
<stop offset="0.51" stop-color="#EFCB1B"/>
<stop offset="0.64" stop-color="#F8DB33"/>
<stop offset="0.77" stop-color="#FDE542"/>
<stop offset="0.87" stop-color="#FFE947"/>
<stop offset="1" stop-color="#FFEC63"/>
</linearGradient>
<linearGradient id="paint27_linear_800_13640" x1="100.193" y1="35.0456" x2="100.721" y2="34.0042" gradientUnits="userSpaceOnUse">
<stop offset="0.04" stop-color="#F8DA36"/>
<stop offset="0.11" stop-color="#F1CD21"/>
<stop offset="0.19" stop-color="#EBC412"/>
<stop offset="0.28" stop-color="#E8BE09"/>
<stop offset="0.42" stop-color="#E8BD07"/>
<stop offset="0.51" stop-color="#EFCB1B"/>
<stop offset="0.64" stop-color="#F8DB33"/>
<stop offset="0.77" stop-color="#FDE542"/>
<stop offset="0.87" stop-color="#FFE947"/>
<stop offset="1" stop-color="#FFEC63"/>
</linearGradient>
<linearGradient id="paint28_linear_800_13640" x1="2.37946" y1="2.08527" x2="8.49152" y2="8.31225" gradientUnits="userSpaceOnUse">
<stop stop-color="#FFD08D"/>
<stop offset="0.58" stop-color="#FFDC2A"/>
<stop offset="0.81" stop-color="#F3C237"/>
<stop offset="1" stop-color="#EBB140"/>
</linearGradient>
<linearGradient id="paint29_linear_800_13640" x1="7.54517" y1="7.30229" x2="5.13771" y2="1.31595" gradientUnits="userSpaceOnUse">
<stop stop-color="#F0C827"/>
<stop offset="0.08" stop-color="#E9BE25"/>
<stop offset="0.22" stop-color="#E2B424"/>
<stop offset="0.38" stop-color="#EECA46"/>
<stop offset="0.57" stop-color="#FAE168"/>
<stop offset="0.68" stop-color="#FFEA76"/>
<stop offset="0.74" stop-color="#FDE770"/>
<stop offset="0.82" stop-color="#FBE161"/>
<stop offset="0.91" stop-color="#F6D647"/>
<stop offset="1" stop-color="#F0C827"/>
</linearGradient>
<linearGradient id="paint30_linear_800_13640" x1="7.54517" y1="7.30229" x2="5.13771" y2="1.31595" gradientUnits="userSpaceOnUse">
<stop stop-color="#FFD08D"/>
<stop offset="0.58" stop-color="#FFAF2A"/>
<stop offset="0.71" stop-color="#F8A631"/>
<stop offset="1" stop-color="#EC9540"/>
</linearGradient>
<linearGradient id="paint31_linear_800_13640" x1="6.45635" y1="2.24862" x2="6.36265" y2="2.01563" gradientUnits="userSpaceOnUse">
<stop offset="0.04" stop-color="#F8DA36"/>
<stop offset="0.11" stop-color="#F1CD21"/>
<stop offset="0.19" stop-color="#EBC412"/>
<stop offset="0.28" stop-color="#E8BE09"/>
<stop offset="0.42" stop-color="#E8BD07"/>
<stop offset="0.51" stop-color="#EFCB1B"/>
<stop offset="0.64" stop-color="#F8DB33"/>
<stop offset="0.77" stop-color="#FDE542"/>
<stop offset="0.87" stop-color="#FFE947"/>
<stop offset="1" stop-color="#FFEC63"/>
</linearGradient>
<linearGradient id="paint32_linear_800_13640" x1="6.08551" y1="3.40702" x2="5.87896" y2="2.89342" gradientUnits="userSpaceOnUse">
<stop offset="0.04" stop-color="#F8DA36"/>
<stop offset="0.11" stop-color="#F1CD21"/>
<stop offset="0.19" stop-color="#EBC412"/>
<stop offset="0.28" stop-color="#E8BE09"/>
<stop offset="0.42" stop-color="#E8BD07"/>
<stop offset="0.51" stop-color="#EFCB1B"/>
<stop offset="0.64" stop-color="#F8DB33"/>
<stop offset="0.77" stop-color="#FDE542"/>
<stop offset="0.87" stop-color="#FFE947"/>
<stop offset="1" stop-color="#FFEC63"/>
</linearGradient>
<linearGradient id="paint33_linear_800_13640" x1="6.73584" y1="5.56571" x2="6.38772" y2="4.70007" gradientUnits="userSpaceOnUse">
<stop offset="0.04" stop-color="#F8DA36"/>
<stop offset="0.11" stop-color="#F1CD21"/>
<stop offset="0.19" stop-color="#EBC412"/>
<stop offset="0.28" stop-color="#E8BE09"/>
<stop offset="0.42" stop-color="#E8BD07"/>
<stop offset="0.51" stop-color="#EFCB1B"/>
<stop offset="0.64" stop-color="#F8DB33"/>
<stop offset="0.77" stop-color="#FDE542"/>
<stop offset="0.87" stop-color="#FFE947"/>
<stop offset="1" stop-color="#FFEC63"/>
</linearGradient>
<linearGradient id="paint34_linear_800_13640" x1="6.85673" y1="3.89021" x2="6.59752" y2="3.24566" gradientUnits="userSpaceOnUse">
<stop offset="0.04" stop-color="#F8DA36"/>
<stop offset="0.11" stop-color="#F1CD21"/>
<stop offset="0.19" stop-color="#EBC412"/>
<stop offset="0.28" stop-color="#E8BE09"/>
<stop offset="0.42" stop-color="#E8BD07"/>
<stop offset="0.51" stop-color="#EFCB1B"/>
<stop offset="0.64" stop-color="#F8DB33"/>
<stop offset="0.77" stop-color="#FDE542"/>
<stop offset="0.87" stop-color="#FFE947"/>
<stop offset="1" stop-color="#FFEC63"/>
</linearGradient>
<linearGradient id="paint35_linear_800_13640" x1="6.7219" y1="6.62231" x2="6.57953" y2="6.26868" gradientUnits="userSpaceOnUse">
<stop offset="0.04" stop-color="#F8DA36"/>
<stop offset="0.11" stop-color="#F1CD21"/>
<stop offset="0.19" stop-color="#EBC412"/>
<stop offset="0.28" stop-color="#E8BE09"/>
<stop offset="0.42" stop-color="#E8BD07"/>
<stop offset="0.51" stop-color="#EFCB1B"/>
<stop offset="0.64" stop-color="#F8DB33"/>
<stop offset="0.77" stop-color="#FDE542"/>
<stop offset="0.87" stop-color="#FFE947"/>
<stop offset="1" stop-color="#FFEC63"/>
</linearGradient>
<linearGradient id="paint36_linear_800_13640" x1="5.63715" y1="6.32962" x2="5.20969" y2="5.26671" gradientUnits="userSpaceOnUse">
<stop offset="0.04" stop-color="#F8DA36"/>
<stop offset="0.11" stop-color="#F1CD21"/>
<stop offset="0.19" stop-color="#EBC412"/>
<stop offset="0.28" stop-color="#E8BE09"/>
<stop offset="0.42" stop-color="#E8BD07"/>
<stop offset="0.51" stop-color="#EFCB1B"/>
<stop offset="0.64" stop-color="#F8DB33"/>
<stop offset="0.77" stop-color="#FDE542"/>
<stop offset="0.87" stop-color="#FFE947"/>
<stop offset="1" stop-color="#FFEC63"/>
</linearGradient>
<linearGradient id="paint37_linear_800_13640" x1="5.33253" y1="4.5106" x2="4.49334" y2="2.42388" gradientUnits="userSpaceOnUse">
<stop offset="0.04" stop-color="#F8DA36"/>
<stop offset="0.11" stop-color="#F1CD21"/>
<stop offset="0.19" stop-color="#EBC412"/>
<stop offset="0.28" stop-color="#E8BE09"/>
<stop offset="0.42" stop-color="#E8BD07"/>
<stop offset="0.51" stop-color="#EFCB1B"/>
<stop offset="0.64" stop-color="#F8DB33"/>
<stop offset="0.77" stop-color="#FDE542"/>
<stop offset="0.87" stop-color="#FFE947"/>
<stop offset="1" stop-color="#FFEC63"/>
</linearGradient>
<linearGradient id="paint38_linear_800_13640" x1="104.368" y1="19.9513" x2="113.018" y2="28.7643" gradientUnits="userSpaceOnUse">
<stop stop-color="#FFD08D"/>
<stop offset="0.58" stop-color="#FFDC2A"/>
<stop offset="0.81" stop-color="#F3C237"/>
<stop offset="1" stop-color="#EBB140"/>
</linearGradient>
<linearGradient id="paint39_linear_800_13640" x1="111.679" y1="27.335" x2="108.271" y2="18.8626" gradientUnits="userSpaceOnUse">
<stop stop-color="#F0C827"/>
<stop offset="0.08" stop-color="#E9BE25"/>
<stop offset="0.22" stop-color="#E2B424"/>
<stop offset="0.38" stop-color="#EECA46"/>
<stop offset="0.57" stop-color="#FAE168"/>
<stop offset="0.68" stop-color="#FFEA76"/>
<stop offset="0.74" stop-color="#FDE770"/>
<stop offset="0.82" stop-color="#FBE161"/>
<stop offset="0.91" stop-color="#F6D647"/>
<stop offset="1" stop-color="#F0C827"/>
</linearGradient>
<linearGradient id="paint40_linear_800_13640" x1="111.679" y1="27.335" x2="108.271" y2="18.8626" gradientUnits="userSpaceOnUse">
<stop stop-color="#FFD08D"/>
<stop offset="0.58" stop-color="#FFAF2A"/>
<stop offset="0.71" stop-color="#F8A631"/>
<stop offset="1" stop-color="#EC9540"/>
</linearGradient>
<linearGradient id="paint41_linear_800_13640" x1="110.138" y1="20.1821" x2="110.005" y2="19.8524" gradientUnits="userSpaceOnUse">
<stop offset="0.04" stop-color="#F8DA36"/>
<stop offset="0.11" stop-color="#F1CD21"/>
<stop offset="0.19" stop-color="#EBC412"/>
<stop offset="0.28" stop-color="#E8BE09"/>
<stop offset="0.42" stop-color="#E8BD07"/>
<stop offset="0.51" stop-color="#EFCB1B"/>
<stop offset="0.64" stop-color="#F8DB33"/>
<stop offset="0.77" stop-color="#FDE542"/>
<stop offset="0.87" stop-color="#FFE947"/>
<stop offset="1" stop-color="#FFEC63"/>
</linearGradient>
<linearGradient id="paint42_linear_800_13640" x1="109.613" y1="21.8224" x2="109.321" y2="21.0955" gradientUnits="userSpaceOnUse">
<stop offset="0.04" stop-color="#F8DA36"/>
<stop offset="0.11" stop-color="#F1CD21"/>
<stop offset="0.19" stop-color="#EBC412"/>
<stop offset="0.28" stop-color="#E8BE09"/>
<stop offset="0.42" stop-color="#E8BD07"/>
<stop offset="0.51" stop-color="#EFCB1B"/>
<stop offset="0.64" stop-color="#F8DB33"/>
<stop offset="0.77" stop-color="#FDE542"/>
<stop offset="0.87" stop-color="#FFE947"/>
<stop offset="1" stop-color="#FFEC63"/>
</linearGradient>
<linearGradient id="paint43_linear_800_13640" x1="110.533" y1="24.8775" x2="110.041" y2="23.6524" gradientUnits="userSpaceOnUse">
<stop offset="0.04" stop-color="#F8DA36"/>
<stop offset="0.11" stop-color="#F1CD21"/>
<stop offset="0.19" stop-color="#EBC412"/>
<stop offset="0.28" stop-color="#E8BE09"/>
<stop offset="0.42" stop-color="#E8BD07"/>
<stop offset="0.51" stop-color="#EFCB1B"/>
<stop offset="0.64" stop-color="#F8DB33"/>
<stop offset="0.77" stop-color="#FDE542"/>
<stop offset="0.87" stop-color="#FFE947"/>
<stop offset="1" stop-color="#FFEC63"/>
</linearGradient>
<linearGradient id="paint44_linear_800_13640" x1="110.704" y1="22.5052" x2="110.338" y2="21.593" gradientUnits="userSpaceOnUse">
<stop offset="0.04" stop-color="#F8DA36"/>
<stop offset="0.11" stop-color="#F1CD21"/>
<stop offset="0.19" stop-color="#EBC412"/>
<stop offset="0.28" stop-color="#E8BE09"/>
<stop offset="0.42" stop-color="#E8BD07"/>
<stop offset="0.51" stop-color="#EFCB1B"/>
<stop offset="0.64" stop-color="#F8DB33"/>
<stop offset="0.77" stop-color="#FDE542"/>
<stop offset="0.87" stop-color="#FFE947"/>
<stop offset="1" stop-color="#FFEC63"/>
</linearGradient>
<linearGradient id="paint45_linear_800_13640" x1="110.514" y1="26.373" x2="110.312" y2="25.8725" gradientUnits="userSpaceOnUse">
<stop offset="0.04" stop-color="#F8DA36"/>
<stop offset="0.11" stop-color="#F1CD21"/>
<stop offset="0.19" stop-color="#EBC412"/>
<stop offset="0.28" stop-color="#E8BE09"/>
<stop offset="0.42" stop-color="#E8BD07"/>
<stop offset="0.51" stop-color="#EFCB1B"/>
<stop offset="0.64" stop-color="#F8DB33"/>
<stop offset="0.77" stop-color="#FDE542"/>
<stop offset="0.87" stop-color="#FFE947"/>
<stop offset="1" stop-color="#FFEC63"/>
</linearGradient>
<linearGradient id="paint46_linear_800_13640" x1="108.978" y1="25.9587" x2="108.373" y2="24.4544" gradientUnits="userSpaceOnUse">
<stop offset="0.04" stop-color="#F8DA36"/>
<stop offset="0.11" stop-color="#F1CD21"/>
<stop offset="0.19" stop-color="#EBC412"/>
<stop offset="0.28" stop-color="#E8BE09"/>
<stop offset="0.42" stop-color="#E8BD07"/>
<stop offset="0.51" stop-color="#EFCB1B"/>
<stop offset="0.64" stop-color="#F8DB33"/>
<stop offset="0.77" stop-color="#FDE542"/>
<stop offset="0.87" stop-color="#FFE947"/>
<stop offset="1" stop-color="#FFEC63"/>
</linearGradient>
<linearGradient id="paint47_linear_800_13640" x1="108.547" y1="23.3838" x2="107.359" y2="20.4305" gradientUnits="userSpaceOnUse">
<stop offset="0.04" stop-color="#F8DA36"/>
<stop offset="0.11" stop-color="#F1CD21"/>
<stop offset="0.19" stop-color="#EBC412"/>
<stop offset="0.28" stop-color="#E8BE09"/>
<stop offset="0.42" stop-color="#E8BD07"/>
<stop offset="0.51" stop-color="#EFCB1B"/>
<stop offset="0.64" stop-color="#F8DB33"/>
<stop offset="0.77" stop-color="#FDE542"/>
<stop offset="0.87" stop-color="#FFE947"/>
<stop offset="1" stop-color="#FFEC63"/>
</linearGradient>
</defs>
</svg>
