<svg width="1920" height="1026" viewBox="0 0 1920 1026" fill="none" xmlns="http://www.w3.org/2000/svg">
<g opacity="0.1" filter="url(#filter0_d_1420_19026)">
<path d="M556.923 889.734C530.927 862.644 461.25 857.835 391.435 880.19C321.62 902.545 275.584 944.392 280.432 978.237L278.401 978.164L281.864 984.808C299.733 1020.05 376.89 1028.6 454.186 1003.82C531.481 979.082 579.641 930.443 561.818 895.167L558.355 888.486L556.969 889.697L556.923 889.734Z" fill="#D16A0D"/>
<path d="M553.415 878.733C554.477 880.789 555.076 881.597 555.815 883.212C556.092 883.836 558.17 887.69 558.355 888.498C565.189 922.673 517.906 966.723 446.844 989.482C374.12 1012.75 301.673 1005.82 278.447 978.102C278.447 978.102 274.568 970.43 273.553 968.338C255.683 933.061 303.889 884.423 381.185 859.682C458.48 834.941 535.637 843.457 553.46 878.697L553.415 878.733Z" fill="#D16A0D"/>
<path d="M552.629 877.212C570.499 912.452 522.293 961.127 444.997 985.868C367.701 1010.61 290.545 1002.09 272.722 966.853C254.852 931.614 303.058 882.939 380.353 858.198C457.649 833.456 534.806 841.973 552.629 877.212Z" fill="url(#paint0_linear_1420_19026)"/>
<g style="mix-blend-mode:screen" opacity="0.5">
<path d="M380.538 858.554C457.695 833.849 534.668 842.292 552.722 877.385C552.722 877.311 552.675 877.275 552.629 877.201C534.76 841.925 457.649 833.409 380.353 858.187C303.058 882.928 254.852 931.566 272.722 966.842C272.722 966.916 272.768 966.953 272.814 967.026C255.222 931.786 303.381 883.295 380.538 858.59V858.554Z" fill="#FEF0A0"/>
</g>
<path d="M530.513 884.281C545.566 913.978 504.979 954.945 439.873 975.758C374.768 996.608 309.847 989.413 294.794 959.717C279.741 930.02 320.329 889.054 385.434 868.24C450.54 847.39 515.506 854.585 530.513 884.281Z" fill="url(#paint1_linear_1420_19026)"/>
<path d="M530.513 884.281C545.566 913.978 504.979 954.945 439.873 975.758C374.768 996.608 309.847 989.413 294.794 959.717C279.741 930.02 320.329 889.054 385.434 868.24C450.54 847.39 515.506 854.585 530.513 884.281Z" fill="url(#paint2_linear_1420_19026)"/>
<g style="mix-blend-mode:multiply">
<path d="M385.433 868.256C450.354 847.479 515.136 854.564 530.42 884.077C530.42 884.003 530.328 883.93 530.328 883.857C515.275 854.16 450.308 847.002 385.248 867.852C320.143 888.702 279.602 929.668 294.609 959.328C294.655 959.402 294.701 959.475 294.747 959.549C280.064 929.888 320.558 889.069 385.479 868.292L385.433 868.256Z" fill="#FEF0A0"/>
</g>
<g style="mix-blend-mode:screen" opacity="0.3">
<path d="M439.92 975.768C374.953 996.544 310.124 989.46 294.933 959.91C294.933 959.983 294.979 960.02 295.026 960.093C310.078 989.79 374.999 996.948 440.105 976.135C505.211 955.284 545.798 914.318 530.745 884.658C530.745 884.585 530.699 884.548 530.652 884.475C545.428 914.135 504.887 954.991 439.92 975.768Z" fill="#FEF0A0"/>
</g>
<path opacity="0.4" d="M386.679 870.647C451.184 849.98 515.135 856.074 530.927 885.073C530.788 884.816 530.696 884.522 530.511 884.265C515.505 854.569 450.538 847.411 385.432 868.224C320.327 889.074 279.786 930.04 294.792 959.701C294.931 959.958 295.069 960.215 295.208 960.508C281.309 930.885 322.127 891.277 386.632 870.61L386.679 870.647Z" fill="#D16A0D"/>
<g style="mix-blend-mode:multiply" opacity="0.4">
<path d="M459.127 912.35C455.479 910.624 451.601 909.633 447.399 909.413C443.243 909.156 435.717 909.303 424.912 909.817C412.168 910.404 404.365 910.551 401.548 910.221C398.639 909.927 396.561 908.495 395.222 905.889C394.437 904.311 394.437 902.989 395.176 901.814C395.961 900.676 397.485 899.722 399.747 898.988C402.61 898.07 404.688 897.923 406.027 898.547C407.366 899.172 408.751 900.933 410.229 903.87L408.012 905.412L411.66 906.623L449.246 894.583C448.784 893.115 448.369 892.013 448.045 891.353C445.552 886.434 440.75 883.534 433.547 882.616C426.39 881.662 416.832 882.726 404.873 885.81L402.195 880.487L398.547 879.312L397.669 881.699L384.879 886.067L387.557 891.389C375.183 896.125 366.502 900.897 361.607 905.779C356.667 910.624 355.466 915.543 357.96 920.499C359.714 923.913 362.762 926.519 367.148 928.281C371.535 930.043 376.152 930.997 381.047 931.144C385.941 931.328 394.899 931.144 408.012 930.667C415.862 930.373 420.757 930.814 422.788 932.025C424.774 933.237 426.713 935.733 428.606 939.44C429.345 940.909 429.299 942.23 428.421 943.368C427.544 944.506 425.882 945.497 423.296 946.305C420.341 947.259 418.171 947.332 416.832 946.488C415.493 945.644 413.692 943.001 411.43 938.523L410.413 936.54L409.351 934.448L405.703 933.237L402.887 935.953L371.719 946.488L373.382 949.755C377.122 957.17 383.494 961.135 392.498 961.685C401.502 962.273 411.152 961.135 421.449 958.382L421.08 963.631L424.682 964.842L441.997 959.299L438.811 953.059C451.324 948.14 459.912 942.964 464.668 937.531C469.424 932.099 470.301 926.409 467.3 920.499C465.453 916.791 462.683 914.075 459.035 912.386L459.127 912.35Z" fill="#AA7E03"/>
</g>
<path d="M445.598 893.408L408.012 905.449L406.627 902.696C405.15 899.759 403.718 897.96 402.425 897.373C401.086 896.749 399.008 896.896 396.146 897.813C393.837 898.547 392.313 899.502 391.574 900.64C390.836 901.778 390.836 903.136 391.621 904.714C392.96 907.321 395.037 908.752 397.946 909.046C400.763 909.34 408.566 909.23 421.31 908.642C432.161 908.128 439.641 907.981 443.843 908.238C447.999 908.459 451.878 909.45 455.525 911.175C459.173 912.9 461.944 915.58 463.791 919.288C466.792 925.198 465.914 930.887 461.159 936.32C456.403 941.753 447.814 946.929 435.301 951.848L438.487 958.088L421.172 963.631L417.893 957.17C407.643 959.96 397.992 961.061 388.942 960.474C379.938 959.887 373.567 955.922 369.826 948.507L368.164 945.277L405.75 933.237L407.828 937.311C410.09 941.79 411.891 944.432 413.184 945.277C414.523 946.121 416.647 946.048 419.648 945.093C422.188 944.286 423.896 943.295 424.727 942.157C425.604 941.019 425.651 939.697 424.912 938.192C423.019 934.485 421.079 931.989 419.094 930.777C417.108 929.566 412.214 929.089 404.365 929.419C391.297 929.933 382.293 930.08 377.399 929.896C372.504 929.713 367.887 928.758 363.501 926.996C359.114 925.234 356.066 922.665 354.311 919.251C351.818 914.295 353.019 909.376 357.959 904.531C362.9 899.685 371.535 894.877 383.909 890.141L381.231 884.855L398.547 879.312L401.225 884.598C413.138 881.552 422.696 880.487 429.899 881.405C437.056 882.322 441.904 885.259 444.397 890.178C444.767 890.876 445.136 891.94 445.598 893.408Z" fill="white"/>
<g style="mix-blend-mode:screen" opacity="0.7">
<path style="mix-blend-mode:screen" d="M401.455 884.519V884.592C411.844 881.949 420.432 880.775 427.22 881.142C420.432 880.738 411.844 881.876 401.455 884.519Z" fill="url(#paint3_linear_1420_19026)"/>
<path style="mix-blend-mode:screen" d="M400.947 897.01C401.501 897.046 402.008 897.157 402.378 897.377C403.717 898.001 405.102 899.763 406.58 902.7L407.965 905.453L408.196 905.379L406.857 902.7C405.379 899.763 403.994 898.001 402.609 897.377C402.147 897.157 401.547 897.046 400.9 897.01H400.947Z" fill="url(#paint4_linear_1420_19026)"/>
<path style="mix-blend-mode:screen" d="M425.051 942.167C425.929 941.029 425.975 939.708 425.236 938.203C423.343 934.495 421.404 931.999 419.418 930.788C418.218 930.054 415.955 929.577 412.585 929.43C415.771 929.613 417.94 930.09 419.141 930.788C421.126 932.036 423.066 934.495 424.959 938.203C425.698 939.671 425.651 940.993 424.774 942.167C423.943 943.305 422.235 944.296 419.695 945.104C417.987 945.655 416.555 945.912 415.401 945.875C416.602 945.985 418.125 945.728 419.972 945.141C422.512 944.333 424.22 943.342 425.051 942.204V942.167Z" fill="url(#paint5_linear_1420_19026)"/>
<path style="mix-blend-mode:screen" d="M443.797 908.206C439.641 907.949 432.114 908.096 421.264 908.61C409.951 909.124 402.563 909.27 399.054 909.087C402.425 909.307 409.905 909.124 421.541 908.61C432.161 908.096 439.595 907.986 443.797 908.206Z" fill="url(#paint6_linear_1420_19026)"/>
<path style="mix-blend-mode:screen" d="M418.171 957.207C418.171 957.207 418.033 957.244 417.94 957.281L421.173 963.668L421.403 963.594L418.171 957.244V957.207Z" fill="url(#paint7_linear_1420_19026)"/>
<path style="mix-blend-mode:screen" d="M389.22 960.516C380.216 959.929 373.844 955.965 370.058 948.549L368.442 945.319L405.797 933.352V933.242L368.164 945.282L369.827 948.513C373.567 955.928 379.939 959.892 388.943 960.48C389.22 960.48 389.543 960.516 389.82 960.516C389.636 960.516 389.405 960.516 389.22 960.516Z" fill="url(#paint8_linear_1420_19026)"/>
<path style="mix-blend-mode:screen" d="M376.66 929.859C372.181 929.602 367.887 928.648 363.824 927.033C359.437 925.271 356.39 922.701 354.635 919.251C352.142 914.295 353.342 909.376 358.237 904.531C363.177 899.685 371.812 894.877 384.187 890.141L381.508 884.855L398.593 879.386V879.312L381.231 884.855L383.909 890.141C371.535 894.877 362.854 899.649 357.959 904.531C353.019 909.376 351.818 914.295 354.311 919.251C356.02 922.665 359.114 925.271 363.501 926.996C367.656 928.648 372.043 929.602 376.66 929.859Z" fill="url(#paint9_linear_1420_19026)"/>
</g>
</g>
<g opacity="0.1">
<path d="M76.9967 407C206.232 407 311 302.234 311 172.999C311 43.7646 206.232 -61 76.9967 -61C-52.2383 -61 -157 43.7646 -157 172.999C-157 302.234 -52.2383 407 76.9967 407Z" fill="url(#paint10_radial_1420_19026)" style="mix-blend-mode:luminosity"/>
<path fill-rule="evenodd" clip-rule="evenodd" d="M76.9986 306.925C150.966 306.925 210.929 246.962 210.929 172.997C210.929 99.0313 150.966 39.0696 76.9986 39.0696C3.03214 39.0696 -56.9273 99.0302 -56.9273 172.997C-56.9273 246.964 3.03242 306.925 76.9986 306.925ZM240.801 172.997C240.801 263.461 167.463 336.797 76.9986 336.797C-13.4663 336.797 -86.7997 263.461 -86.7997 172.997C-86.7997 82.5325 -13.4663 9.19727 76.9986 9.19727C167.463 9.19727 240.801 82.5325 240.801 172.997Z" fill="#683EE6"/>
<path fill-rule="evenodd" clip-rule="evenodd" d="M1.31488 394.49C25.016 386.235 50.4829 381.748 76.9979 381.748C103.513 381.748 128.98 386.235 152.681 394.49C154.67 393.81 156.647 393.105 158.612 392.374C133.201 382.917 105.703 377.748 76.9979 377.748C48.2927 377.748 20.7948 382.917 -4.61584 392.374C-2.65128 393.105 -0.674236 393.811 1.31488 394.49Z" fill="#9D7CFF"/>
<path fill-rule="evenodd" clip-rule="evenodd" d="M296.375 91.3906C286.92 116.8 281.752 144.296 281.752 172.999C281.752 201.702 286.92 229.198 296.375 254.608C297.107 252.643 297.812 250.666 298.492 248.677C290.238 224.977 285.752 199.512 285.752 172.999C285.752 146.486 290.238 121.021 298.492 97.3217C297.812 95.3325 297.107 93.3553 296.375 91.3906Z" fill="#9D7CFF"/>
</g>
<g style="mix-blend-mode:overlay">
<path d="M1579.94 935.833C1608.63 964.522 1655.15 964.522 1683.83 935.834C1712.52 907.146 1712.52 860.632 1683.83 831.944C1655.15 803.256 1608.63 803.256 1579.94 831.945C1551.26 860.633 1551.26 907.145 1579.94 935.833Z" fill="url(#paint11_radial_1420_19026)" style="mix-blend-mode:luminosity"/>
<path fill-rule="evenodd" clip-rule="evenodd" d="M1602.16 913.618C1618.58 930.038 1645.2 930.038 1661.62 913.619C1678.04 897.2 1678.04 870.578 1661.62 854.158C1645.2 837.739 1618.58 837.739 1602.16 854.158C1585.74 870.578 1585.74 897.199 1602.16 913.618ZM1668.25 920.25C1648.17 940.332 1615.61 940.331 1595.53 920.25C1575.45 900.168 1575.45 867.609 1595.53 847.527C1615.61 827.445 1648.17 827.445 1668.25 847.527C1688.33 867.609 1688.33 900.168 1668.25 920.25Z" fill="#683EE6"/>
<path fill-rule="evenodd" clip-rule="evenodd" d="M1568.19 920.525C1573.72 923.594 1578.92 927.475 1583.61 932.167C1588.3 936.859 1592.18 942.055 1595.25 947.582C1597.23 948.722 1599.25 949.763 1601.31 950.704C1597.77 942.963 1592.81 935.711 1586.44 929.338C1580.07 922.966 1572.81 918.009 1565.07 914.468C1566.01 916.524 1567.05 918.545 1568.19 920.525Z" fill="#9D7CFF"/>
<path fill-rule="evenodd" clip-rule="evenodd" d="M1695.58 920.529C1690.06 923.598 1684.86 927.478 1680.17 932.169C1675.48 936.86 1671.6 942.056 1668.53 947.581C1666.55 948.721 1664.53 949.762 1662.47 950.703C1666.01 942.963 1670.97 935.712 1677.34 929.341C1683.71 922.969 1690.96 918.012 1698.7 914.471C1697.76 916.527 1696.72 918.549 1695.58 920.529Z" fill="#9D7CFF"/>
<path fill-rule="evenodd" clip-rule="evenodd" d="M1565.07 853.309C1572.81 849.767 1580.07 844.811 1586.44 838.439C1592.81 832.067 1597.77 824.815 1601.31 817.075C1599.25 818.016 1597.23 819.057 1595.25 820.198C1592.18 825.723 1588.3 830.919 1583.61 835.61C1578.92 840.302 1573.72 844.182 1568.2 847.251C1567.06 849.231 1566.02 851.252 1565.07 853.309Z" fill="#9D7CFF"/>
<path fill-rule="evenodd" clip-rule="evenodd" d="M1695.58 847.25C1690.06 844.181 1684.86 840.301 1680.17 835.61C1675.48 830.918 1671.6 825.723 1668.53 820.198C1666.55 819.057 1664.53 818.016 1662.47 817.075C1666.01 824.815 1670.97 832.066 1677.34 838.438C1683.71 844.81 1690.96 849.767 1698.7 853.308C1697.76 851.252 1696.72 849.23 1695.58 847.25Z" fill="#9D7CFF"/>
</g>
<g filter="url(#filter1_f_1420_19026)">
<g style="mix-blend-mode:multiply">
<path d="M405.566 616.639C405.512 615.009 405.403 613.378 405.186 611.802C404.968 610.064 404.751 608.325 404.425 606.586C404.044 604.684 403.61 602.728 403.121 600.826C402.523 598.652 401.816 596.479 401.001 594.36C400.023 591.697 398.828 589.089 397.469 586.589C395.241 582.405 392.633 578.438 389.536 574.689C387.58 572.352 385.46 570.07 383.178 567.95C380.896 565.831 378.451 563.875 376.005 562.082L373.995 560.234L373.723 560.506L371.767 562.625L369.539 565.07L367.311 567.516L365.083 569.961L362.855 572.406L360.628 574.852L358.345 577.297L356.117 579.742L353.835 582.187L351.607 584.633L349.325 587.078L347.097 589.523L344.869 591.969L342.641 594.414L340.359 596.859L338.131 599.304L335.903 601.75L333.62 604.195L331.393 606.64L329.11 609.085L326.882 611.531L324.655 613.976L322.427 616.421L320.144 618.866L317.917 621.312L315.634 623.757L313.406 626.202L311.178 628.648L308.951 631.093L306.668 633.538L304.44 635.984L302.213 638.429L299.93 640.874L297.702 643.319L295.475 645.765L293.192 648.21L290.964 650.655L288.737 653.1L286.509 655.546L284.28 657.991L282.052 660.436L280.096 662.555L279.825 662.881L281.835 664.729C283.792 667.066 285.91 669.348 288.193 671.467C290.475 673.586 292.866 675.543 295.366 677.336C299.333 680.161 303.516 682.498 307.809 684.4C310.417 685.541 313.135 686.519 315.852 687.334C318.026 687.986 320.253 688.53 322.481 688.964C324.383 689.345 326.339 689.617 328.295 689.834C330.034 690.051 331.828 690.16 333.567 690.214C335.197 690.268 336.826 690.214 338.402 690.214C339.924 690.16 341.446 690.051 342.967 689.888C344.38 689.725 345.792 689.562 347.205 689.345C348.564 689.127 349.923 688.856 351.227 688.584C352.531 688.312 353.781 687.986 355.03 687.606C356.28 687.28 357.476 686.899 358.671 686.465C359.813 686.084 361.007 685.65 362.149 685.161C363.235 684.726 364.377 684.237 365.464 683.694C366.551 683.204 367.583 682.661 368.615 682.118C369.648 681.574 370.626 681.031 371.658 680.433C372.636 679.835 373.614 679.238 374.538 678.586C375.462 677.988 376.386 677.336 377.309 676.629C378.233 675.977 379.103 675.271 379.972 674.564C380.841 673.858 381.656 673.152 382.526 672.391C383.341 671.684 384.156 670.924 384.972 670.109C385.732 669.348 386.547 668.533 387.308 667.718C388.068 666.903 388.775 666.088 389.481 665.218C390.188 664.349 390.894 663.534 391.546 662.61C392.253 661.74 392.905 660.817 393.503 659.947C394.155 659.023 394.753 658.1 395.351 657.121C395.948 656.143 396.546 655.165 397.089 654.187C397.632 653.209 398.176 652.177 398.665 651.144C399.209 650.112 399.698 649.025 400.132 647.992C400.621 646.906 401.056 645.819 401.491 644.732C401.926 643.591 402.306 642.45 402.686 641.309C403.067 640.113 403.392 638.918 403.718 637.722C404.044 636.472 404.316 635.223 404.588 634.027C404.86 632.723 405.077 631.419 405.24 630.115C405.457 628.756 405.62 627.398 405.729 626.039C405.838 624.626 405.947 623.159 406.001 621.747C406.001 620.225 406.001 618.703 406.001 617.182L405.566 616.639Z" fill="#A249FB"/>
</g>
<path d="M305.961 552.521C341.662 537.469 382.851 554.26 397.849 589.961C412.901 625.662 396.11 666.851 360.409 681.849C324.708 696.901 283.518 680.11 268.521 644.409C253.469 608.708 270.26 567.518 305.961 552.521Z" fill="url(#paint12_linear_1420_19026)"/>
<path d="M373.34 573.877C397.25 596.102 398.662 633.487 376.437 657.397C354.212 681.306 316.827 682.719 292.918 660.494C269.008 638.269 267.596 600.884 289.821 576.974C312.045 553.065 349.431 551.652 373.34 573.877Z" fill="url(#paint13_linear_1420_19026)"/>
<path d="M352.476 605.391C349.596 604.359 346.987 603.924 344.705 604.195C342.368 604.413 338.565 605.282 333.185 606.858C326.827 608.651 322.861 609.575 321.231 609.629C319.546 609.684 317.644 608.706 315.47 606.695C314.166 605.5 313.406 604.358 313.134 603.326C312.863 602.294 313.134 601.37 313.894 600.5C314.872 599.468 315.905 599.088 316.938 599.468C317.97 599.848 319.709 601.152 322.154 603.435L323.078 604.304L322.426 605.011L324.437 605.554L337.261 591.752C336.174 590.556 335.359 589.741 334.761 589.198C330.686 585.394 326.501 583.492 322.208 583.492C317.916 583.492 313.515 585.34 309.059 589.089L304.657 585.014L302.646 584.47L304.005 585.72L298.734 591.371L303.135 595.447C299.332 600.609 297.538 605.5 297.701 610.01C297.864 614.52 300.038 618.704 304.168 622.508C306.994 625.17 310.091 626.964 313.351 627.942C316.611 628.92 319.6 629.246 322.263 628.866C324.925 628.485 329.49 627.453 336.065 625.659C339.978 624.573 342.803 624.464 344.542 625.279C346.281 626.094 348.672 627.942 351.769 630.822C353.019 631.963 353.726 633.05 353.943 634.082C354.161 635.115 353.834 636.093 352.965 637.017C351.932 638.103 350.846 638.375 349.705 637.832C348.563 637.288 346.118 635.278 342.369 631.854L340.738 630.333L339 628.703L336.989 628.159L338.347 629.409L326.175 642.505L328.892 645.004C335.032 650.71 340.63 653.318 345.683 652.884C350.737 652.395 355.138 650.493 358.942 647.178L362.963 650.873L362.311 651.579L364.322 652.123L370.245 645.765L365.028 640.929C368.777 635.549 370.353 630.387 369.755 625.442C369.158 620.497 366.386 615.715 361.441 611.151C358.344 608.271 355.356 606.369 352.53 605.337L352.476 605.391Z" fill="#B061FE"/>
<path d="M335.247 591.212L322.423 605.015L320.141 602.895C317.695 600.613 315.957 599.309 314.924 598.929C313.892 598.548 312.859 598.929 311.881 599.961C311.12 600.776 310.849 601.754 311.066 602.732C311.338 603.765 312.098 604.852 313.403 606.101C315.576 608.112 317.478 609.09 319.163 609.036C320.793 609.036 324.814 608.058 331.117 606.264C336.497 604.743 340.355 603.819 342.637 603.602C344.974 603.384 347.528 603.765 350.408 604.797C353.288 605.83 356.277 607.786 359.32 610.612C364.265 615.176 367.035 619.958 367.633 624.903C368.231 629.902 366.655 635.064 362.906 640.39L368.123 645.226L362.199 651.584L356.82 646.584C353.016 649.953 348.615 651.855 343.561 652.29C338.508 652.725 332.911 650.116 326.771 644.411L324.054 641.911L336.878 628.109L340.247 631.261C343.942 634.684 346.387 636.694 347.582 637.238C348.723 637.781 349.81 637.51 350.843 636.423C351.712 635.499 352.038 634.521 351.821 633.488C351.604 632.456 350.897 631.369 349.647 630.228C346.55 627.348 344.105 625.501 342.366 624.685C340.627 623.87 337.801 624.033 333.889 625.066C327.314 626.859 322.749 627.892 320.086 628.272C317.424 628.652 314.489 628.272 311.174 627.348C307.914 626.37 304.817 624.523 301.991 621.914C297.862 618.111 295.688 613.926 295.525 609.416C295.362 604.906 297.156 600.07 300.959 594.853L296.558 590.778L302.48 584.42L306.882 588.495C311.392 584.746 315.793 582.898 320.086 582.898C324.379 582.898 328.564 584.855 332.639 588.604C333.182 589.148 334.052 589.963 335.138 591.158L335.247 591.212Z" fill="white"/>
<g style="mix-blend-mode:screen" opacity="0.7">
<path style="mix-blend-mode:screen" d="M307.102 588.436H307.156C311.069 585.23 314.873 583.382 318.623 583.002C314.873 583.382 311.015 585.176 307.048 588.436H307.102Z" fill="url(#paint14_linear_1420_19026)"/>
<path style="mix-blend-mode:screen" d="M313.895 598.814C314.221 598.814 314.547 598.814 314.873 598.977C315.906 599.358 317.644 600.662 320.089 602.944L322.372 605.063V604.955L320.253 602.89C317.807 600.607 316.069 599.303 315.036 598.923C314.656 598.814 314.275 598.76 313.949 598.814H313.895Z" fill="url(#paint15_linear_1420_19026)"/>
<path style="mix-blend-mode:screen" d="M352.146 633.535C351.928 632.503 351.222 631.416 349.972 630.275C346.875 627.395 344.43 625.547 342.745 624.732C341.713 624.243 340.245 624.08 338.398 624.298C340.191 624.135 341.549 624.298 342.582 624.732C344.321 625.547 346.767 627.395 349.864 630.275C351.114 631.416 351.82 632.503 352.037 633.535C352.254 634.568 351.929 635.546 351.059 636.47C350.461 637.067 349.863 637.448 349.266 637.556C349.972 637.556 350.625 637.122 351.222 636.47C352.092 635.546 352.417 634.568 352.2 633.535H352.146Z" fill="url(#paint16_linear_1420_19026)"/>
<path style="mix-blend-mode:screen" d="M342.693 603.594C340.357 603.811 336.553 604.681 331.173 606.256C325.576 607.832 321.773 608.756 319.871 608.973C321.773 608.81 325.576 607.887 331.336 606.256C336.607 604.735 340.411 603.865 342.748 603.594H342.693Z" fill="url(#paint17_linear_1420_19026)"/>
<path style="mix-blend-mode:screen" d="M357.041 646.635H356.932L362.257 651.634V651.525L357.041 646.635Z" fill="url(#paint18_linear_1420_19026)"/>
<path style="mix-blend-mode:screen" d="M343.831 652.39C338.778 652.825 333.181 650.217 327.041 644.511L324.324 642.012L337.039 628.264H336.985L324.161 642.012L326.878 644.511C333.018 650.217 338.615 652.825 343.669 652.39C343.832 652.39 343.995 652.39 344.158 652.39C344.049 652.39 343.94 652.39 343.831 652.39Z" fill="url(#paint19_linear_1420_19026)"/>
<path style="mix-blend-mode:screen" d="M319.87 628.376C317.371 628.647 314.599 628.267 311.556 627.398C308.296 626.419 305.198 624.572 302.373 621.964C298.243 618.16 296.07 613.976 295.907 609.466C295.743 604.955 297.537 600.119 301.34 594.903L296.939 590.827L302.753 584.578H302.699L296.776 590.882L301.177 594.957C297.374 600.119 295.58 605.01 295.743 609.52C295.906 614.03 298.08 618.214 302.21 622.018C305.036 624.681 308.133 626.474 311.393 627.452C314.49 628.376 317.316 628.702 319.87 628.43V628.376Z" fill="url(#paint20_linear_1420_19026)"/>
</g>
</g>
<g style="mix-blend-mode:multiply">
<path d="M1748.73 486.437C1750.49 486.378 1752.26 486.26 1753.97 486.025C1755.85 485.789 1757.73 485.554 1759.62 485.201C1761.68 484.788 1763.8 484.318 1765.86 483.788C1768.21 483.14 1770.57 482.375 1772.86 481.492C1775.75 480.432 1778.57 479.137 1781.28 477.666C1785.81 475.252 1790.11 472.427 1794.17 469.072C1796.7 466.953 1799.18 464.657 1801.47 462.184C1803.77 459.712 1805.89 457.063 1807.83 454.414L1809.83 452.237L1809.54 451.942L1807.24 449.823L1804.59 447.41L1801.94 444.996L1799.29 442.583L1796.64 440.169L1794 437.756L1791.35 435.284L1788.7 432.87L1786.05 430.398L1783.4 427.984L1780.75 425.512L1778.1 423.099L1775.45 420.685L1772.8 418.272L1770.16 415.8L1767.51 413.386L1764.86 410.972L1762.21 408.5L1759.56 406.087L1756.91 403.614L1754.26 401.201L1751.61 398.788L1748.96 396.374L1746.32 393.902L1743.67 391.489L1741.02 389.016L1738.37 386.602L1735.72 384.189L1733.07 381.776L1730.42 379.303L1727.77 376.89L1725.12 374.477L1722.48 372.004L1719.83 369.591L1717.18 367.178L1714.53 364.705L1711.88 362.291L1709.23 359.878L1706.58 357.465L1703.93 355.051L1701.28 352.638L1698.99 350.518L1698.64 350.225L1696.63 352.403C1694.1 354.522 1691.63 356.817 1689.33 359.289C1687.04 361.762 1684.92 364.352 1682.98 367.06C1679.92 371.357 1677.38 375.889 1675.32 380.539C1674.09 383.365 1673.03 386.309 1672.15 389.252C1671.44 391.606 1670.85 394.02 1670.38 396.433C1669.97 398.493 1669.67 400.612 1669.44 402.731C1669.2 404.615 1669.09 406.558 1669.03 408.442C1668.97 410.208 1669.03 411.973 1669.03 413.68C1669.09 415.328 1669.2 416.977 1669.38 418.625C1669.56 420.156 1669.73 421.686 1669.97 423.216C1670.2 424.688 1670.5 426.16 1670.79 427.573C1671.09 428.985 1671.44 430.339 1671.85 431.693C1672.2 433.047 1672.62 434.342 1673.09 435.637C1673.5 436.873 1673.97 438.168 1674.5 439.404C1674.97 440.581 1675.5 441.818 1676.09 442.995C1676.62 444.172 1677.21 445.291 1677.8 446.409C1678.39 447.527 1678.97 448.587 1679.62 449.705C1680.27 450.765 1680.92 451.824 1681.62 452.825C1682.27 453.826 1682.98 454.826 1683.74 455.827C1684.45 456.828 1685.21 457.77 1685.98 458.711C1686.74 459.653 1687.51 460.536 1688.33 461.478C1689.1 462.361 1689.92 463.244 1690.81 464.127C1691.63 464.951 1692.51 465.834 1693.4 466.658C1694.28 467.482 1695.16 468.248 1696.1 469.013C1697.05 469.778 1697.93 470.543 1698.93 471.25C1699.87 472.015 1700.87 472.721 1701.81 473.369C1702.81 474.075 1703.82 474.723 1704.87 475.371C1705.93 476.018 1706.99 476.665 1708.05 477.254C1709.11 477.843 1710.23 478.431 1711.35 478.961C1712.47 479.55 1713.65 480.08 1714.76 480.551C1715.94 481.08 1717.12 481.551 1718.3 482.022C1719.53 482.493 1720.77 482.905 1722 483.317C1723.3 483.729 1724.59 484.082 1725.89 484.435C1727.24 484.788 1728.6 485.083 1729.89 485.377C1731.3 485.672 1732.72 485.907 1734.13 486.084C1735.6 486.319 1737.07 486.495 1738.55 486.613C1740.08 486.731 1741.66 486.849 1743.2 486.908C1744.84 486.908 1746.49 486.908 1748.14 486.908L1748.73 486.437Z" fill="#A249FB"/>
</g>
<path d="M1818.19 378.538C1834.49 417.212 1816.3 461.832 1777.63 478.078C1738.96 494.384 1694.34 476.194 1678.09 437.52C1661.78 398.846 1679.97 354.227 1718.65 337.98C1757.32 321.675 1801.94 339.864 1818.19 378.538Z" fill="url(#paint21_linear_1420_19026)"/>
<path d="M1795.05 451.53C1770.98 477.431 1730.48 478.961 1704.58 454.885C1678.68 430.81 1677.15 390.311 1701.22 364.41C1725.3 338.51 1765.8 336.98 1791.7 361.056C1817.6 385.131 1819.13 425.63 1795.05 451.53Z" fill="url(#paint22_linear_1420_19026)"/>
<path d="M1760.91 428.925C1762.03 425.805 1762.5 422.979 1762.21 420.507C1761.97 417.976 1761.03 413.855 1759.32 408.028C1757.38 401.141 1756.38 396.844 1756.32 395.078C1756.26 393.253 1757.32 391.193 1759.5 388.838C1760.8 387.425 1762.03 386.602 1763.15 386.307C1764.27 386.013 1765.27 386.307 1766.21 387.131C1767.33 388.19 1767.74 389.309 1767.33 390.427C1766.92 391.546 1765.51 393.429 1763.03 396.078L1762.09 397.079L1761.33 396.373L1760.74 398.551L1775.69 412.443C1776.98 411.265 1777.87 410.383 1778.46 409.735C1782.58 405.32 1784.64 400.787 1784.64 396.137C1784.64 391.487 1782.63 386.719 1778.57 381.892L1782.99 377.124L1783.58 374.946L1782.22 376.418L1776.1 370.708L1771.69 375.476C1766.09 371.355 1760.8 369.413 1755.91 369.589C1751.02 369.766 1746.49 372.121 1742.37 376.594C1739.49 379.655 1737.54 383.01 1736.49 386.542C1735.43 390.074 1735.07 393.312 1735.48 396.196C1735.9 399.08 1737.01 404.025 1738.96 411.148C1740.13 415.386 1740.25 418.447 1739.37 420.33C1738.49 422.214 1736.49 424.804 1733.37 428.16C1732.13 429.514 1730.95 430.279 1729.83 430.514C1728.71 430.75 1727.66 430.396 1726.65 429.455C1725.48 428.336 1725.18 427.159 1725.77 425.923C1726.36 424.687 1728.54 422.038 1732.25 417.976L1733.9 416.21L1735.66 414.327L1736.25 412.148L1734.9 413.62L1720.71 400.434L1718 403.377C1711.82 410.029 1709 416.093 1709.47 421.567C1710 427.041 1712.06 431.809 1715.65 435.93L1711.64 440.285L1710.88 439.579L1710.29 441.757L1717.18 448.174L1722.42 442.522C1728.24 446.584 1733.84 448.291 1739.19 447.644C1744.55 446.996 1749.73 443.994 1754.67 438.637C1757.79 435.282 1759.85 432.045 1760.97 428.984L1760.91 428.925Z" fill="#B061FE"/>
<path d="M1776.27 410.263L1761.32 396.371L1763.62 393.899C1766.09 391.25 1767.5 389.366 1767.92 388.248C1768.33 387.13 1767.92 386.011 1766.8 384.951C1765.91 384.127 1764.85 383.833 1763.79 384.069C1762.68 384.363 1761.5 385.187 1760.15 386.6C1757.97 388.954 1756.91 391.015 1756.97 392.84C1756.97 394.606 1758.03 398.961 1759.97 405.79C1761.62 411.617 1762.62 415.796 1762.85 418.269C1763.09 420.8 1762.68 423.567 1761.56 426.687C1760.44 429.807 1758.32 433.044 1755.26 436.341C1750.32 441.697 1745.13 444.699 1739.78 445.346C1734.36 445.994 1728.77 444.287 1723 440.225L1717.76 445.877L1710.88 439.46L1716.29 433.632C1712.64 429.512 1710.58 424.744 1710.11 419.27C1709.64 413.795 1712.47 407.732 1718.65 401.081L1721.35 398.138L1736.31 412.029L1732.89 415.679C1729.18 419.682 1727 422.331 1726.42 423.626C1725.83 424.862 1726.12 426.039 1727.3 427.157C1728.3 428.099 1729.36 428.453 1730.48 428.217C1731.6 427.982 1732.77 427.216 1734.01 425.862C1737.13 422.507 1739.13 419.859 1740.01 417.975C1740.9 416.091 1740.72 413.03 1739.6 408.792C1737.66 401.669 1736.54 396.724 1736.13 393.84C1735.72 390.955 1736.13 387.777 1737.13 384.186C1738.19 380.654 1740.19 377.299 1743.02 374.238C1747.14 369.765 1751.67 367.41 1756.55 367.234C1761.44 367.057 1766.68 369 1772.33 373.12L1776.75 368.352L1783.63 374.768L1779.22 379.536C1783.28 384.422 1785.28 389.19 1785.28 393.84C1785.28 398.49 1783.16 403.023 1779.1 407.438C1778.51 408.027 1777.63 408.968 1776.33 410.145L1776.27 410.263Z" fill="white"/>
<g style="mix-blend-mode:screen" opacity="0.7">
<path style="mix-blend-mode:screen" d="M1779.28 379.773L1779.28 379.832C1782.75 384.07 1784.75 388.191 1785.17 392.253C1784.75 388.191 1782.81 384.012 1779.28 379.715L1779.28 379.773Z" fill="url(#paint23_linear_1420_19026)"/>
<path style="mix-blend-mode:screen" d="M1768.04 387.131C1768.04 387.484 1768.04 387.838 1767.86 388.191C1767.45 389.309 1766.04 391.193 1763.56 393.841L1761.27 396.314L1761.39 396.314L1763.62 394.018C1766.1 391.369 1767.51 389.486 1767.92 388.368C1768.04 387.955 1768.1 387.543 1768.04 387.19L1768.04 387.131Z" fill="url(#paint24_linear_1420_19026)"/>
<path style="mix-blend-mode:screen" d="M1730.43 428.571C1731.54 428.335 1732.72 427.57 1733.96 426.216C1737.08 422.861 1739.08 420.212 1739.96 418.387C1740.49 417.269 1740.67 415.679 1740.43 413.678C1740.61 415.62 1740.43 417.092 1739.96 418.21C1739.08 420.094 1737.08 422.743 1733.96 426.099C1732.72 427.453 1731.54 428.217 1730.43 428.453C1729.31 428.688 1728.25 428.335 1727.25 427.394C1726.6 426.746 1726.19 426.098 1726.07 425.451C1726.07 426.216 1726.54 426.923 1727.25 427.57C1728.25 428.512 1729.31 428.865 1730.43 428.63L1730.43 428.571Z" fill="url(#paint25_linear_1420_19026)"/>
<path style="mix-blend-mode:screen" d="M1762.86 418.332C1762.62 415.801 1761.68 411.681 1759.97 405.853C1758.27 399.79 1757.27 395.67 1757.03 393.609C1757.21 395.67 1758.21 399.79 1759.97 406.03C1761.62 411.74 1762.56 415.86 1762.86 418.391L1762.86 418.332Z" fill="url(#paint26_linear_1420_19026)"/>
<path style="mix-blend-mode:screen" d="M1716.23 433.874L1716.23 433.756L1710.82 439.524L1710.94 439.524L1716.23 433.874Z" fill="url(#paint27_linear_1420_19026)"/>
<path style="mix-blend-mode:screen" d="M1710 419.565C1709.53 414.09 1712.35 408.028 1718.53 401.376L1721.24 398.433L1736.14 412.207L1736.14 412.148L1721.24 398.256L1718.53 401.199C1712.35 407.851 1709.53 413.914 1710 419.389C1710 419.565 1710 419.742 1710 419.918C1710 419.801 1710 419.683 1710 419.565Z" fill="url(#paint28_linear_1420_19026)"/>
<path style="mix-blend-mode:screen" d="M1736.01 393.612C1735.72 390.904 1736.13 387.902 1737.07 384.606C1738.13 381.074 1740.13 377.718 1742.96 374.657C1747.08 370.183 1751.61 367.829 1756.5 367.653C1761.38 367.476 1766.62 369.419 1772.27 373.539L1776.69 368.771L1783.46 375.07L1783.46 375.011L1776.63 368.595L1772.21 373.362C1766.62 369.242 1761.32 367.299 1756.44 367.476C1751.55 367.652 1747.02 370.007 1742.9 374.481C1740.02 377.542 1738.07 380.897 1737.01 384.429C1736.01 387.784 1735.66 390.845 1735.95 393.612L1736.01 393.612Z" fill="url(#paint29_linear_1420_19026)"/>
</g>
<path d="M1957.15 198.093C1989.74 179.276 2000.91 137.602 1982.09 105.011C1963.28 72.4207 1921.6 61.2549 1889.01 80.0712C1856.42 98.8876 1845.25 140.56 1864.07 173.151C1882.89 205.742 1924.56 216.909 1957.15 198.093Z" fill="url(#paint30_radial_1420_19026)" style="mix-blend-mode:luminosity"/>
<path d="M1963.52 115.732C1976.42 138.068 1968.76 166.628 1946.43 179.523C1924.09 192.419 1895.53 184.766 1882.64 162.43C1869.74 140.095 1877.4 111.536 1899.73 98.6404C1922.07 85.7451 1950.63 93.3972 1963.52 115.732Z" stroke="#683EE6" stroke-width="2"/>
<path fill-rule="evenodd" clip-rule="evenodd" d="M1874.56 186.946C1873.14 181.449 1870.96 176.05 1867.98 170.892C1865 165.735 1861.42 161.148 1857.37 157.169C1856.75 154.94 1856.26 152.695 1855.88 150.441C1861.96 155.472 1867.27 161.654 1871.45 168.892C1875.63 176.131 1878.33 183.818 1879.64 191.603C1877.88 190.146 1876.18 188.593 1874.56 186.946Z" fill="#9D7CFF"/>
<path fill-rule="evenodd" clip-rule="evenodd" d="M1904.99 73.3683C1901.01 77.4195 1896.43 81.0054 1891.27 83.9832C1886.11 86.9609 1880.71 89.1409 1875.21 90.5615C1873.57 92.184 1872.01 93.8802 1870.56 95.6416C1878.34 94.3268 1886.03 91.6267 1893.27 87.4473C1900.51 83.2679 1906.69 77.9608 1911.72 71.876C1909.47 72.2566 1907.22 72.7533 1904.99 73.3683Z" fill="#9D7CFF"/>
<g opacity="0.1" filter="url(#filter2_d_1420_19026)">
<path d="M2119.6 708.649C2085.87 664.432 1995.46 656.583 1904.87 693.071C1814.28 729.559 1754.54 797.861 1760.83 853.102L1758.2 852.982L1762.69 863.827C1785.88 921.345 1886 935.305 1986.29 894.862C2086.59 854.48 2149.08 775.094 2125.95 717.516L2121.46 706.612L2119.66 708.589L2119.6 708.649Z" fill="#D16A0D"/>
<path d="M2115.05 690.693C2116.43 694.048 2117.21 695.366 2118.16 698.002C2118.52 699.021 2121.22 705.312 2121.46 706.63C2130.33 762.41 2068.97 834.307 1976.77 871.454C1882.4 909.44 1788.4 898.116 1758.26 852.881C1758.26 852.881 1753.23 840.359 1751.91 836.944C1728.72 779.366 1791.27 699.979 1891.57 659.597C1991.86 619.215 2091.98 633.115 2115.11 690.633L2115.05 690.693Z" fill="#D16A0D"/>
<path d="M2114.03 688.209C2137.22 745.726 2074.67 825.173 1974.37 865.555C1874.07 905.937 1773.96 892.037 1750.83 834.52C1727.64 777.002 1790.19 697.555 1890.49 657.173C1990.79 616.791 2090.9 630.691 2114.03 688.209Z" fill="url(#paint31_linear_1420_19026)"/>
<g style="mix-blend-mode:screen" opacity="0.5">
<path d="M1890.73 657.754C1990.85 617.432 2090.72 631.212 2114.15 688.49C2114.15 688.37 2114.09 688.311 2114.03 688.191C2090.84 630.613 1990.79 616.713 1890.49 657.155C1790.19 697.537 1727.64 776.924 1750.83 834.502C1750.83 834.622 1750.89 834.681 1750.95 834.801C1728.12 777.283 1790.61 698.137 1890.73 657.814V657.754Z" fill="#FEF0A0"/>
</g>
<path d="M2085.33 699.748C2104.86 748.219 2052.2 815.083 1967.72 849.055C1883.24 883.086 1799 871.343 1779.47 822.872C1759.94 774.402 1812.6 707.537 1897.08 673.566C1981.56 639.534 2065.86 651.277 2085.33 699.748Z" fill="url(#paint32_linear_1420_19026)"/>
<path d="M2085.33 699.748C2104.86 748.219 2052.2 815.083 1967.72 849.055C1883.24 883.086 1799 871.343 1779.47 822.872C1759.94 774.402 1812.6 707.537 1897.08 673.566C1981.56 639.534 2065.86 651.277 2085.33 699.748Z" fill="url(#paint33_linear_1420_19026)"/>
<g style="mix-blend-mode:multiply">
<path d="M1897.08 673.588C1981.32 639.677 2065.38 651.24 2085.21 699.411C2085.21 699.292 2085.09 699.172 2085.09 699.052C2065.56 650.581 1981.26 638.898 1896.84 672.929C1812.36 706.961 1759.76 773.825 1779.23 822.236C1779.29 822.356 1779.35 822.475 1779.41 822.595C1760.36 774.185 1812.9 707.56 1897.14 673.648L1897.08 673.588Z" fill="#FEF0A0"/>
</g>
<g style="mix-blend-mode:screen" opacity="0.3">
<path d="M1967.78 849.071C1883.48 882.983 1799.36 871.419 1779.65 823.188C1779.65 823.308 1779.71 823.368 1779.77 823.488C1799.3 871.959 1883.54 883.642 1968.02 849.671C2052.5 815.639 2105.17 748.775 2085.63 700.364C2085.63 700.244 2085.57 700.184 2085.51 700.064C2104.69 748.475 2052.08 815.16 1967.78 849.071Z" fill="#FEF0A0"/>
</g>
<path opacity="0.4" d="M1898.7 677.494C1982.4 643.762 2065.38 653.708 2085.87 701.04C2085.69 700.621 2085.57 700.141 2085.33 699.722C2065.86 651.251 1981.56 639.568 1897.08 673.539C1812.6 707.571 1760 774.435 1779.47 822.846C1779.65 823.266 1779.83 823.685 1780.01 824.164C1761.97 775.813 1814.94 711.166 1898.64 677.434L1898.7 677.494Z" fill="#D16A0D"/>
<g style="mix-blend-mode:multiply" opacity="0.4">
<path d="M1992.7 745.566C1987.97 742.75 1982.94 741.132 1977.49 740.772C1972.09 740.353 1962.33 740.593 1948.31 741.431C1931.77 742.39 1921.65 742.63 1917.99 742.09C1914.22 741.611 1911.52 739.274 1909.78 735.021C1908.76 732.444 1908.76 730.287 1909.72 728.37C1910.74 726.513 1912.72 724.955 1915.65 723.757C1919.37 722.259 1922.06 722.019 1923.8 723.038C1925.54 724.056 1927.34 726.932 1929.25 731.725L1926.38 734.242L1931.11 736.219L1979.88 716.567C1979.28 714.17 1978.74 712.373 1978.32 711.294C1975.09 703.266 1968.86 698.533 1959.51 697.035C1950.22 695.477 1937.82 697.215 1922.3 702.247L1918.83 693.56L1914.1 691.643L1912.96 695.537L1896.36 702.667L1899.84 711.354C1883.78 719.083 1872.52 726.872 1866.16 734.841C1859.75 742.749 1858.2 750.778 1861.43 758.866C1863.71 764.438 1867.66 768.692 1873.35 771.568C1879.05 774.444 1885.04 776.002 1891.39 776.242C1897.74 776.541 1909.36 776.242 1926.38 775.463C1936.56 774.983 1942.91 775.702 1945.55 777.68C1948.13 779.657 1950.64 783.731 1953.1 789.782C1954.06 792.179 1954 794.336 1952.86 796.193C1951.72 798.05 1949.57 799.668 1946.21 800.986C1942.38 802.544 1939.56 802.664 1937.82 801.286C1936.08 799.908 1933.75 795.594 1930.81 788.284L1929.49 785.049L1928.12 781.634L1923.38 779.657L1919.73 784.09L1879.29 801.286L1881.44 806.618C1886.3 818.721 1894.56 825.192 1906.25 826.09C1917.93 827.049 1930.45 825.192 1943.81 820.698L1943.33 829.266L1948.01 831.243L1970.48 822.196L1966.34 812.011C1982.58 803.982 1993.72 795.534 1999.89 786.667C2006.06 777.799 2007.2 768.513 2003.31 758.866C2000.91 752.815 1997.32 748.381 1992.58 745.625L1992.7 745.566Z" fill="#AA7E03"/>
</g>
<path d="M1975.15 714.65L1926.38 734.302L1924.58 729.808C1922.66 725.015 1920.81 722.079 1919.13 721.12C1917.39 720.102 1914.7 720.341 1910.98 721.839C1907.98 723.038 1906.01 724.595 1905.05 726.453C1904.09 728.31 1904.09 730.527 1905.11 733.103C1906.85 737.357 1909.54 739.694 1913.32 740.173C1916.97 740.652 1927.1 740.473 1943.63 739.514C1957.71 738.675 1967.42 738.436 1972.87 738.855C1978.26 739.214 1983.3 740.832 1988.03 743.648C1992.76 746.464 1996.36 750.838 1998.76 756.889C2002.65 766.535 2001.51 775.822 1995.34 784.69C1989.17 793.557 1978.02 802.005 1961.79 810.033L1965.92 820.219L1943.45 829.266L1939.2 818.721C1925.9 823.274 1913.38 825.072 1901.63 824.113C1889.95 823.155 1881.68 816.684 1876.83 804.581L1874.67 799.309L1923.44 779.657L1926.14 786.307C1929.08 793.617 1931.41 797.93 1933.09 799.309C1934.83 800.687 1937.58 800.567 1941.48 799.009C1944.77 797.691 1946.99 796.073 1948.07 794.216C1949.21 792.359 1949.27 790.202 1948.31 787.745C1945.85 781.694 1943.33 777.62 1940.76 775.642C1938.18 773.665 1931.83 772.886 1921.65 773.426C1904.69 774.264 1893.01 774.504 1886.66 774.205C1880.3 773.905 1874.31 772.347 1868.62 769.471C1862.93 766.595 1858.97 762.401 1856.7 756.829C1853.46 748.741 1855.02 740.712 1861.43 732.804C1867.84 724.895 1879.05 717.046 1895.1 709.317L1891.63 700.69L1914.1 691.643L1917.57 700.27C1933.03 695.297 1945.43 693.56 1954.78 695.058C1964.07 696.555 1970.36 701.349 1973.59 709.377C1974.07 710.516 1974.55 712.253 1975.15 714.65Z" fill="white"/>
<g style="mix-blend-mode:screen" opacity="0.7">
<path style="mix-blend-mode:screen" d="M1917.87 700.142V700.261C1931.35 695.948 1942.49 694.03 1951.3 694.63C1942.49 693.971 1931.35 695.828 1917.87 700.142Z" fill="url(#paint34_linear_1420_19026)"/>
<path style="mix-blend-mode:screen" d="M1917.21 720.525C1917.93 720.585 1918.59 720.765 1919.07 721.125C1920.8 722.143 1922.6 725.019 1924.52 729.812L1926.32 734.306L1926.62 734.186L1924.88 729.812C1922.96 725.019 1921.16 722.143 1919.37 721.125C1918.77 720.765 1917.99 720.585 1917.15 720.525H1917.21Z" fill="url(#paint35_linear_1420_19026)"/>
<path style="mix-blend-mode:screen" d="M1972.81 738.802C1967.42 738.382 1957.65 738.622 1943.57 739.461C1928.89 740.3 1919.31 740.539 1914.75 740.24C1919.13 740.599 1928.83 740.3 1943.93 739.461C1957.71 738.622 1967.36 738.442 1972.81 738.802Z" fill="url(#paint36_linear_1420_19026)"/>
<path style="mix-blend-mode:screen" d="M1901.99 824.181C1890.31 823.222 1882.04 816.751 1877.13 804.648L1875.03 799.376L1923.5 779.844V779.664L1874.67 799.316L1876.83 804.588C1881.68 816.691 1889.95 823.162 1901.63 824.121C1901.99 824.121 1902.41 824.181 1902.77 824.181C1902.53 824.181 1902.23 824.181 1901.99 824.181Z" fill="url(#paint37_linear_1420_19026)"/>
<path style="mix-blend-mode:screen" d="M1885.7 774.145C1879.89 773.725 1874.31 772.167 1869.04 769.531C1863.35 766.655 1859.39 762.461 1857.12 756.829C1853.88 748.741 1855.44 740.712 1861.79 732.804C1868.2 724.895 1879.41 717.046 1895.46 709.317L1891.99 700.69L1914.16 691.762V691.643L1891.63 700.69L1895.1 709.317C1879.05 717.046 1867.78 724.835 1861.43 732.804C1855.02 740.712 1853.46 748.741 1856.7 756.829C1858.91 762.401 1862.93 766.655 1868.62 769.471C1874.01 772.167 1879.71 773.725 1885.7 774.145Z" fill="url(#paint38_linear_1420_19026)"/>
</g>
</g>
<defs>
<filter id="filter0_d_1420_19026" x="265" y="844" width="304.525" height="182" filterUnits="userSpaceOnUse" color-interpolation-filters="sRGB">
<feFlood flood-opacity="0" result="BackgroundImageFix"/>
<feColorMatrix in="SourceAlpha" type="matrix" values="0 0 0 0 0 0 0 0 0 0 0 0 0 0 0 0 0 0 127 0" result="hardAlpha"/>
<feOffset dy="4"/>
<feGaussianBlur stdDeviation="2"/>
<feComposite in2="hardAlpha" operator="out"/>
<feColorMatrix type="matrix" values="0 0 0 0 0 0 0 0 0 0 0 0 0 0 0 0 0 0 0.25 0"/>
<feBlend mode="normal" in2="BackgroundImageFix" result="effect1_dropShadow_1420_19026"/>
<feBlend mode="normal" in="SourceGraphic" in2="effect1_dropShadow_1420_19026" result="shape"/>
</filter>
<filter id="filter1_f_1420_19026" x="255" y="539" width="159.001" height="159.238" filterUnits="userSpaceOnUse" color-interpolation-filters="sRGB">
<feFlood flood-opacity="0" result="BackgroundImageFix"/>
<feBlend mode="normal" in="SourceGraphic" in2="BackgroundImageFix" result="shape"/>
<feGaussianBlur stdDeviation="4" result="effect1_foregroundBlur_1420_19026"/>
</filter>
<filter id="filter2_d_1420_19026" x="1742" y="634" width="392.763" height="292.002" filterUnits="userSpaceOnUse" color-interpolation-filters="sRGB">
<feFlood flood-opacity="0" result="BackgroundImageFix"/>
<feColorMatrix in="SourceAlpha" type="matrix" values="0 0 0 0 0 0 0 0 0 0 0 0 0 0 0 0 0 0 127 0" result="hardAlpha"/>
<feOffset dy="4"/>
<feGaussianBlur stdDeviation="2"/>
<feComposite in2="hardAlpha" operator="out"/>
<feColorMatrix type="matrix" values="0 0 0 0 0 0 0 0 0 0 0 0 0 0 0 0 0 0 0.25 0"/>
<feBlend mode="normal" in2="BackgroundImageFix" result="effect1_dropShadow_1420_19026"/>
<feBlend mode="normal" in="SourceGraphic" in2="effect1_dropShadow_1420_19026" result="shape"/>
</filter>
<linearGradient id="paint0_linear_1420_19026" x1="326.043" y1="887.888" x2="433.195" y2="1025.01" gradientUnits="userSpaceOnUse">
<stop stop-color="#FFD08D"/>
<stop offset="0.58" stop-color="#FFDC2A"/>
<stop offset="0.81" stop-color="#F3C237"/>
<stop offset="1" stop-color="#EBB140"/>
</linearGradient>
<linearGradient id="paint1_linear_1420_19026" x1="443.307" y1="982.113" x2="406.836" y2="868.168" gradientUnits="userSpaceOnUse">
<stop stop-color="#F0C827"/>
<stop offset="0.08" stop-color="#E9BE25"/>
<stop offset="0.22" stop-color="#E2B424"/>
<stop offset="0.38" stop-color="#EECA46"/>
<stop offset="0.57" stop-color="#FAE168"/>
<stop offset="0.68" stop-color="#FFEA76"/>
<stop offset="0.74" stop-color="#FDE770"/>
<stop offset="0.82" stop-color="#FBE161"/>
<stop offset="0.91" stop-color="#F6D647"/>
<stop offset="1" stop-color="#F0C827"/>
</linearGradient>
<linearGradient id="paint2_linear_1420_19026" x1="443.307" y1="982.113" x2="406.836" y2="868.168" gradientUnits="userSpaceOnUse">
<stop stop-color="#FFD08D"/>
<stop offset="0.58" stop-color="#FFAF2A"/>
<stop offset="0.71" stop-color="#F8A631"/>
<stop offset="1" stop-color="#EC9540"/>
</linearGradient>
<linearGradient id="paint3_linear_1420_19026" x1="418.588" y1="890.826" x2="417.165" y2="886.381" gradientUnits="userSpaceOnUse">
<stop offset="0.04" stop-color="#F8DA36"/>
<stop offset="0.11" stop-color="#F1CD21"/>
<stop offset="0.19" stop-color="#EBC412"/>
<stop offset="0.28" stop-color="#E8BE09"/>
<stop offset="0.42" stop-color="#E8BD07"/>
<stop offset="0.51" stop-color="#EFCB1B"/>
<stop offset="0.64" stop-color="#F8DB33"/>
<stop offset="0.77" stop-color="#FDE542"/>
<stop offset="0.87" stop-color="#FFE947"/>
<stop offset="1" stop-color="#FFEC63"/>
</linearGradient>
<linearGradient id="paint4_linear_1420_19026" x1="410.172" y1="911.765" x2="407.045" y2="901.996" gradientUnits="userSpaceOnUse">
<stop offset="0.04" stop-color="#F8DA36"/>
<stop offset="0.11" stop-color="#F1CD21"/>
<stop offset="0.19" stop-color="#EBC412"/>
<stop offset="0.28" stop-color="#E8BE09"/>
<stop offset="0.42" stop-color="#E8BD07"/>
<stop offset="0.51" stop-color="#EFCB1B"/>
<stop offset="0.64" stop-color="#F8DB33"/>
<stop offset="0.77" stop-color="#FDE542"/>
<stop offset="0.87" stop-color="#FFE947"/>
<stop offset="1" stop-color="#FFEC63"/>
</linearGradient>
<linearGradient id="paint5_linear_1420_19026" x1="424.894" y1="950.765" x2="419.617" y2="934.277" gradientUnits="userSpaceOnUse">
<stop offset="0.04" stop-color="#F8DA36"/>
<stop offset="0.11" stop-color="#F1CD21"/>
<stop offset="0.19" stop-color="#EBC412"/>
<stop offset="0.28" stop-color="#E8BE09"/>
<stop offset="0.42" stop-color="#E8BD07"/>
<stop offset="0.51" stop-color="#EFCB1B"/>
<stop offset="0.64" stop-color="#F8DB33"/>
<stop offset="0.77" stop-color="#FDE542"/>
<stop offset="0.87" stop-color="#FFE947"/>
<stop offset="1" stop-color="#FFEC63"/>
</linearGradient>
<linearGradient id="paint6_linear_1420_19026" x1="427.628" y1="920.48" x2="423.707" y2="908.231" gradientUnits="userSpaceOnUse">
<stop offset="0.04" stop-color="#F8DA36"/>
<stop offset="0.11" stop-color="#F1CD21"/>
<stop offset="0.19" stop-color="#EBC412"/>
<stop offset="0.28" stop-color="#E8BE09"/>
<stop offset="0.42" stop-color="#E8BD07"/>
<stop offset="0.51" stop-color="#EFCB1B"/>
<stop offset="0.64" stop-color="#F8DB33"/>
<stop offset="0.77" stop-color="#FDE542"/>
<stop offset="0.87" stop-color="#FFE947"/>
<stop offset="1" stop-color="#FFEC63"/>
</linearGradient>
<linearGradient id="paint7_linear_1420_19026" x1="424.652" y1="969.836" x2="422.485" y2="963.065" gradientUnits="userSpaceOnUse">
<stop offset="0.04" stop-color="#F8DA36"/>
<stop offset="0.11" stop-color="#F1CD21"/>
<stop offset="0.19" stop-color="#EBC412"/>
<stop offset="0.28" stop-color="#E8BE09"/>
<stop offset="0.42" stop-color="#E8BD07"/>
<stop offset="0.51" stop-color="#EFCB1B"/>
<stop offset="0.64" stop-color="#F8DB33"/>
<stop offset="0.77" stop-color="#FDE542"/>
<stop offset="0.87" stop-color="#FFE947"/>
<stop offset="1" stop-color="#FFEC63"/>
</linearGradient>
<linearGradient id="paint8_linear_1420_19026" x1="399.971" y1="964.55" x2="393.494" y2="944.314" gradientUnits="userSpaceOnUse">
<stop offset="0.04" stop-color="#F8DA36"/>
<stop offset="0.11" stop-color="#F1CD21"/>
<stop offset="0.19" stop-color="#EBC412"/>
<stop offset="0.28" stop-color="#E8BE09"/>
<stop offset="0.42" stop-color="#E8BD07"/>
<stop offset="0.51" stop-color="#EFCB1B"/>
<stop offset="0.64" stop-color="#F8DB33"/>
<stop offset="0.77" stop-color="#FDE542"/>
<stop offset="0.87" stop-color="#FFE947"/>
<stop offset="1" stop-color="#FFEC63"/>
</linearGradient>
<linearGradient id="paint9_linear_1420_19026" x1="393.039" y1="931.69" x2="380.325" y2="891.968" gradientUnits="userSpaceOnUse">
<stop offset="0.04" stop-color="#F8DA36"/>
<stop offset="0.11" stop-color="#F1CD21"/>
<stop offset="0.19" stop-color="#EBC412"/>
<stop offset="0.28" stop-color="#E8BE09"/>
<stop offset="0.42" stop-color="#E8BD07"/>
<stop offset="0.51" stop-color="#EFCB1B"/>
<stop offset="0.64" stop-color="#F8DB33"/>
<stop offset="0.77" stop-color="#FDE542"/>
<stop offset="0.87" stop-color="#FFE947"/>
<stop offset="1" stop-color="#FFEC63"/>
</linearGradient>
<radialGradient id="paint10_radial_1420_19026" cx="0" cy="0" r="1" gradientUnits="userSpaceOnUse" gradientTransform="translate(78.5821 77.6019) rotate(50.48) scale(331.409 331.409)">
<stop stop-color="#A381FF"/>
<stop offset="0.234375" stop-color="#8D62FF"/>
<stop offset="0.83" stop-color="#3C13C9"/>
<stop offset="1" stop-color="#7859FF"/>
</radialGradient>
<radialGradient id="paint11_radial_1420_19026" cx="0" cy="0" r="1" gradientUnits="userSpaceOnUse" gradientTransform="translate(1653.42 863.064) rotate(95.48) scale(104.041 104.041)">
<stop stop-color="#A381FF"/>
<stop offset="0.234375" stop-color="#8D62FF"/>
<stop offset="0.83" stop-color="#3C13C9"/>
<stop offset="1" stop-color="#7859FF"/>
</radialGradient>
<linearGradient id="paint12_linear_1420_19026" x1="291.136" y1="673.413" x2="376" y2="561.536" gradientUnits="userSpaceOnUse">
<stop stop-color="#F0E0FF"/>
<stop offset="0.58" stop-color="#D5ADFF"/>
<stop offset="1" stop-color="#E2C6FF"/>
</linearGradient>
<linearGradient id="paint13_linear_1420_19026" x1="377.325" y1="656.841" x2="290.665" y2="576.396" gradientUnits="userSpaceOnUse">
<stop stop-color="#CD9BFE"/>
<stop offset="1" stop-color="#CF9FFF"/>
</linearGradient>
<linearGradient id="paint14_linear_1420_19026" x1="315.508" y1="586.773" x2="312.003" y2="583.519" gradientUnits="userSpaceOnUse">
<stop offset="0.04" stop-color="#F8DA36"/>
<stop offset="0.11" stop-color="#F1CD21"/>
<stop offset="0.19" stop-color="#EBC412"/>
<stop offset="0.28" stop-color="#E8BE09"/>
<stop offset="0.42" stop-color="#E8BD07"/>
<stop offset="0.51" stop-color="#EFCB1B"/>
<stop offset="0.64" stop-color="#F8DB33"/>
<stop offset="0.77" stop-color="#FDE542"/>
<stop offset="0.87" stop-color="#FFE947"/>
<stop offset="1" stop-color="#FFEC63"/>
</linearGradient>
<linearGradient id="paint15_linear_1420_19026" x1="322.908" y1="604.838" x2="315.222" y2="597.702" gradientUnits="userSpaceOnUse">
<stop offset="0.04" stop-color="#F8DA36"/>
<stop offset="0.11" stop-color="#F1CD21"/>
<stop offset="0.19" stop-color="#EBC412"/>
<stop offset="0.28" stop-color="#E8BE09"/>
<stop offset="0.42" stop-color="#E8BD07"/>
<stop offset="0.51" stop-color="#EFCB1B"/>
<stop offset="0.64" stop-color="#F8DB33"/>
<stop offset="0.77" stop-color="#FDE542"/>
<stop offset="0.87" stop-color="#FFE947"/>
<stop offset="1" stop-color="#FFEC63"/>
</linearGradient>
<linearGradient id="paint16_linear_1420_19026" x1="352.529" y1="635.302" x2="339.586" y2="623.286" gradientUnits="userSpaceOnUse">
<stop offset="0.04" stop-color="#F8DA36"/>
<stop offset="0.11" stop-color="#F1CD21"/>
<stop offset="0.19" stop-color="#EBC412"/>
<stop offset="0.28" stop-color="#E8BE09"/>
<stop offset="0.42" stop-color="#E8BD07"/>
<stop offset="0.51" stop-color="#EFCB1B"/>
<stop offset="0.64" stop-color="#F8DB33"/>
<stop offset="0.77" stop-color="#FDE542"/>
<stop offset="0.87" stop-color="#FFE947"/>
<stop offset="1" stop-color="#FFEC63"/>
</linearGradient>
<linearGradient id="paint17_linear_1420_19026" x1="336.907" y1="610.121" x2="327.309" y2="601.211" gradientUnits="userSpaceOnUse">
<stop offset="0.04" stop-color="#F8DA36"/>
<stop offset="0.11" stop-color="#F1CD21"/>
<stop offset="0.19" stop-color="#EBC412"/>
<stop offset="0.28" stop-color="#E8BE09"/>
<stop offset="0.42" stop-color="#E8BD07"/>
<stop offset="0.51" stop-color="#EFCB1B"/>
<stop offset="0.64" stop-color="#F8DB33"/>
<stop offset="0.77" stop-color="#FDE542"/>
<stop offset="0.87" stop-color="#FFE947"/>
<stop offset="1" stop-color="#FFEC63"/>
</linearGradient>
<linearGradient id="paint18_linear_1420_19026" x1="363.153" y1="651.021" x2="357.857" y2="646.104" gradientUnits="userSpaceOnUse">
<stop offset="0.04" stop-color="#F8DA36"/>
<stop offset="0.11" stop-color="#F1CD21"/>
<stop offset="0.19" stop-color="#EBC412"/>
<stop offset="0.28" stop-color="#E8BE09"/>
<stop offset="0.42" stop-color="#E8BD07"/>
<stop offset="0.51" stop-color="#EFCB1B"/>
<stop offset="0.64" stop-color="#F8DB33"/>
<stop offset="0.77" stop-color="#FDE542"/>
<stop offset="0.87" stop-color="#FFE947"/>
<stop offset="1" stop-color="#FFEC63"/>
</linearGradient>
<linearGradient id="paint19_linear_1420_19026" x1="347.318" y1="649.222" x2="331.427" y2="634.471" gradientUnits="userSpaceOnUse">
<stop offset="0.04" stop-color="#F8DA36"/>
<stop offset="0.11" stop-color="#F1CD21"/>
<stop offset="0.19" stop-color="#EBC412"/>
<stop offset="0.28" stop-color="#E8BE09"/>
<stop offset="0.42" stop-color="#E8BD07"/>
<stop offset="0.51" stop-color="#EFCB1B"/>
<stop offset="0.64" stop-color="#F8DB33"/>
<stop offset="0.77" stop-color="#FDE542"/>
<stop offset="0.87" stop-color="#FFE947"/>
<stop offset="1" stop-color="#FFEC63"/>
</linearGradient>
<linearGradient id="paint20_linear_1420_19026" x1="325.196" y1="622.979" x2="294.013" y2="594.031" gradientUnits="userSpaceOnUse">
<stop offset="0.04" stop-color="#F8DA36"/>
<stop offset="0.11" stop-color="#F1CD21"/>
<stop offset="0.19" stop-color="#EBC412"/>
<stop offset="0.28" stop-color="#E8BE09"/>
<stop offset="0.42" stop-color="#E8BD07"/>
<stop offset="0.51" stop-color="#EFCB1B"/>
<stop offset="0.64" stop-color="#F8DB33"/>
<stop offset="0.77" stop-color="#FDE542"/>
<stop offset="0.87" stop-color="#FFE947"/>
<stop offset="1" stop-color="#FFEC63"/>
</linearGradient>
<linearGradient id="paint21_linear_1420_19026" x1="1687.23" y1="362.479" x2="1808.42" y2="454.41" gradientUnits="userSpaceOnUse">
<stop stop-color="#F0E0FF"/>
<stop offset="0.58" stop-color="#D5ADFF"/>
<stop offset="1" stop-color="#E2C6FF"/>
</linearGradient>
<linearGradient id="paint22_linear_1420_19026" x1="1705.18" y1="455.846" x2="1792.32" y2="361.97" gradientUnits="userSpaceOnUse">
<stop stop-color="#CD9BFE"/>
<stop offset="1" stop-color="#CF9FFF"/>
</linearGradient>
<linearGradient id="paint23_linear_1420_19026" x1="1781.08" y1="388.879" x2="1784.61" y2="385.082" gradientUnits="userSpaceOnUse">
<stop offset="0.04" stop-color="#F8DA36"/>
<stop offset="0.11" stop-color="#F1CD21"/>
<stop offset="0.19" stop-color="#EBC412"/>
<stop offset="0.28" stop-color="#E8BE09"/>
<stop offset="0.42" stop-color="#E8BD07"/>
<stop offset="0.51" stop-color="#EFCB1B"/>
<stop offset="0.64" stop-color="#F8DB33"/>
<stop offset="0.77" stop-color="#FDE542"/>
<stop offset="0.87" stop-color="#FFE947"/>
<stop offset="1" stop-color="#FFEC63"/>
</linearGradient>
<linearGradient id="paint24_linear_1420_19026" x1="1761.51" y1="396.895" x2="1769.24" y2="388.569" gradientUnits="userSpaceOnUse">
<stop offset="0.04" stop-color="#F8DA36"/>
<stop offset="0.11" stop-color="#F1CD21"/>
<stop offset="0.19" stop-color="#EBC412"/>
<stop offset="0.28" stop-color="#E8BE09"/>
<stop offset="0.42" stop-color="#E8BD07"/>
<stop offset="0.51" stop-color="#EFCB1B"/>
<stop offset="0.64" stop-color="#F8DB33"/>
<stop offset="0.77" stop-color="#FDE542"/>
<stop offset="0.87" stop-color="#FFE947"/>
<stop offset="1" stop-color="#FFEC63"/>
</linearGradient>
<linearGradient id="paint25_linear_1420_19026" x1="1728.51" y1="428.986" x2="1741.53" y2="414.965" gradientUnits="userSpaceOnUse">
<stop offset="0.04" stop-color="#F8DA36"/>
<stop offset="0.11" stop-color="#F1CD21"/>
<stop offset="0.19" stop-color="#EBC412"/>
<stop offset="0.28" stop-color="#E8BE09"/>
<stop offset="0.42" stop-color="#E8BD07"/>
<stop offset="0.51" stop-color="#EFCB1B"/>
<stop offset="0.64" stop-color="#F8DB33"/>
<stop offset="0.77" stop-color="#FDE542"/>
<stop offset="0.87" stop-color="#FFE947"/>
<stop offset="1" stop-color="#FFEC63"/>
</linearGradient>
<linearGradient id="paint26_linear_1420_19026" x1="1755.79" y1="412.064" x2="1765.44" y2="401.667" gradientUnits="userSpaceOnUse">
<stop offset="0.04" stop-color="#F8DA36"/>
<stop offset="0.11" stop-color="#F1CD21"/>
<stop offset="0.19" stop-color="#EBC412"/>
<stop offset="0.28" stop-color="#E8BE09"/>
<stop offset="0.42" stop-color="#E8BD07"/>
<stop offset="0.51" stop-color="#EFCB1B"/>
<stop offset="0.64" stop-color="#F8DB33"/>
<stop offset="0.77" stop-color="#FDE542"/>
<stop offset="0.87" stop-color="#FFE947"/>
<stop offset="1" stop-color="#FFEC63"/>
</linearGradient>
<linearGradient id="paint27_linear_1420_19026" x1="1711.48" y1="440.495" x2="1716.81" y2="434.757" gradientUnits="userSpaceOnUse">
<stop offset="0.04" stop-color="#F8DA36"/>
<stop offset="0.11" stop-color="#F1CD21"/>
<stop offset="0.19" stop-color="#EBC412"/>
<stop offset="0.28" stop-color="#E8BE09"/>
<stop offset="0.42" stop-color="#E8BD07"/>
<stop offset="0.51" stop-color="#EFCB1B"/>
<stop offset="0.64" stop-color="#F8DB33"/>
<stop offset="0.77" stop-color="#FDE542"/>
<stop offset="0.87" stop-color="#FFE947"/>
<stop offset="1" stop-color="#FFEC63"/>
</linearGradient>
<linearGradient id="paint28_linear_1420_19026" x1="1713.43" y1="423.341" x2="1729.41" y2="406.128" gradientUnits="userSpaceOnUse">
<stop offset="0.04" stop-color="#F8DA36"/>
<stop offset="0.11" stop-color="#F1CD21"/>
<stop offset="0.19" stop-color="#EBC412"/>
<stop offset="0.28" stop-color="#E8BE09"/>
<stop offset="0.42" stop-color="#E8BD07"/>
<stop offset="0.51" stop-color="#EFCB1B"/>
<stop offset="0.64" stop-color="#F8DB33"/>
<stop offset="0.77" stop-color="#FDE542"/>
<stop offset="0.87" stop-color="#FFE947"/>
<stop offset="1" stop-color="#FFEC63"/>
</linearGradient>
<linearGradient id="paint29_linear_1420_19026" x1="1741.86" y1="399.381" x2="1773.22" y2="365.601" gradientUnits="userSpaceOnUse">
<stop offset="0.04" stop-color="#F8DA36"/>
<stop offset="0.11" stop-color="#F1CD21"/>
<stop offset="0.19" stop-color="#EBC412"/>
<stop offset="0.28" stop-color="#E8BE09"/>
<stop offset="0.42" stop-color="#E8BD07"/>
<stop offset="0.51" stop-color="#EFCB1B"/>
<stop offset="0.64" stop-color="#F8DB33"/>
<stop offset="0.77" stop-color="#FDE542"/>
<stop offset="0.87" stop-color="#FFE947"/>
<stop offset="1" stop-color="#FFEC63"/>
</linearGradient>
<radialGradient id="paint30_radial_1420_19026" cx="0" cy="0" r="1" gradientUnits="userSpaceOnUse" gradientTransform="translate(1909.59 114.793) rotate(20.48) scale(96.5049 96.5049)">
<stop stop-color="#A381FF"/>
<stop offset="0.234375" stop-color="#8D62FF"/>
<stop offset="0.83" stop-color="#3C13C9"/>
<stop offset="1" stop-color="#7859FF"/>
</radialGradient>
<linearGradient id="paint31_linear_1420_19026" x1="1820.02" y1="705.634" x2="2000.23" y2="888.975" gradientUnits="userSpaceOnUse">
<stop stop-color="#FFD08D"/>
<stop offset="0.58" stop-color="#FFDC2A"/>
<stop offset="0.81" stop-color="#F3C237"/>
<stop offset="1" stop-color="#EBB140"/>
</linearGradient>
<linearGradient id="paint32_linear_1420_19026" x1="1972.18" y1="859.428" x2="1901.14" y2="682.994" gradientUnits="userSpaceOnUse">
<stop stop-color="#F0C827"/>
<stop offset="0.08" stop-color="#E9BE25"/>
<stop offset="0.22" stop-color="#E2B424"/>
<stop offset="0.38" stop-color="#EECA46"/>
<stop offset="0.57" stop-color="#FAE168"/>
<stop offset="0.68" stop-color="#FFEA76"/>
<stop offset="0.74" stop-color="#FDE770"/>
<stop offset="0.82" stop-color="#FBE161"/>
<stop offset="0.91" stop-color="#F6D647"/>
<stop offset="1" stop-color="#F0C827"/>
</linearGradient>
<linearGradient id="paint33_linear_1420_19026" x1="1972.18" y1="859.428" x2="1901.14" y2="682.994" gradientUnits="userSpaceOnUse">
<stop stop-color="#FFD08D"/>
<stop offset="0.58" stop-color="#FFAF2A"/>
<stop offset="0.71" stop-color="#F8A631"/>
<stop offset="1" stop-color="#EC9540"/>
</linearGradient>
<linearGradient id="paint34_linear_1420_19026" x1="1940.1" y1="710.436" x2="1937.33" y2="703.553" gradientUnits="userSpaceOnUse">
<stop offset="0.04" stop-color="#F8DA36"/>
<stop offset="0.11" stop-color="#F1CD21"/>
<stop offset="0.19" stop-color="#EBC412"/>
<stop offset="0.28" stop-color="#E8BE09"/>
<stop offset="0.42" stop-color="#E8BD07"/>
<stop offset="0.51" stop-color="#EFCB1B"/>
<stop offset="0.64" stop-color="#F8DB33"/>
<stop offset="0.77" stop-color="#FDE542"/>
<stop offset="0.87" stop-color="#FFE947"/>
<stop offset="1" stop-color="#FFEC63"/>
</linearGradient>
<linearGradient id="paint35_linear_1420_19026" x1="1929.18" y1="744.608" x2="1923.09" y2="729.482" gradientUnits="userSpaceOnUse">
<stop offset="0.04" stop-color="#F8DA36"/>
<stop offset="0.11" stop-color="#F1CD21"/>
<stop offset="0.19" stop-color="#EBC412"/>
<stop offset="0.28" stop-color="#E8BE09"/>
<stop offset="0.42" stop-color="#E8BD07"/>
<stop offset="0.51" stop-color="#EFCB1B"/>
<stop offset="0.64" stop-color="#F8DB33"/>
<stop offset="0.77" stop-color="#FDE542"/>
<stop offset="0.87" stop-color="#FFE947"/>
<stop offset="1" stop-color="#FFEC63"/>
</linearGradient>
<linearGradient id="paint36_linear_1420_19026" x1="1951.83" y1="758.836" x2="1944.19" y2="739.868" gradientUnits="userSpaceOnUse">
<stop offset="0.04" stop-color="#F8DA36"/>
<stop offset="0.11" stop-color="#F1CD21"/>
<stop offset="0.19" stop-color="#EBC412"/>
<stop offset="0.28" stop-color="#E8BE09"/>
<stop offset="0.42" stop-color="#E8BD07"/>
<stop offset="0.51" stop-color="#EFCB1B"/>
<stop offset="0.64" stop-color="#F8DB33"/>
<stop offset="0.77" stop-color="#FDE542"/>
<stop offset="0.87" stop-color="#FFE947"/>
<stop offset="1" stop-color="#FFEC63"/>
</linearGradient>
<linearGradient id="paint37_linear_1420_19026" x1="1915.94" y1="830.764" x2="1903.33" y2="799.431" gradientUnits="userSpaceOnUse">
<stop offset="0.04" stop-color="#F8DA36"/>
<stop offset="0.11" stop-color="#F1CD21"/>
<stop offset="0.19" stop-color="#EBC412"/>
<stop offset="0.28" stop-color="#E8BE09"/>
<stop offset="0.42" stop-color="#E8BD07"/>
<stop offset="0.51" stop-color="#EFCB1B"/>
<stop offset="0.64" stop-color="#F8DB33"/>
<stop offset="0.77" stop-color="#FDE542"/>
<stop offset="0.87" stop-color="#FFE947"/>
<stop offset="1" stop-color="#FFEC63"/>
</linearGradient>
<linearGradient id="paint38_linear_1420_19026" x1="1906.95" y1="777.132" x2="1882.19" y2="715.626" gradientUnits="userSpaceOnUse">
<stop offset="0.04" stop-color="#F8DA36"/>
<stop offset="0.11" stop-color="#F1CD21"/>
<stop offset="0.19" stop-color="#EBC412"/>
<stop offset="0.28" stop-color="#E8BE09"/>
<stop offset="0.42" stop-color="#E8BD07"/>
<stop offset="0.51" stop-color="#EFCB1B"/>
<stop offset="0.64" stop-color="#F8DB33"/>
<stop offset="0.77" stop-color="#FDE542"/>
<stop offset="0.87" stop-color="#FFE947"/>
<stop offset="1" stop-color="#FFEC63"/>
</linearGradient>
</defs>
</svg>
